%TF.GenerationSoftware,KiCad,Pcbnew,9.0.6-1.fc43*%
%TF.CreationDate,2025-12-20T07:51:11-05:00*%
%TF.ProjectId,electrical,656c6563-7472-4696-9361-6c2e6b696361,rev?*%
%TF.SameCoordinates,Original*%
%TF.FileFunction,Copper,L4,Bot*%
%TF.FilePolarity,Positive*%
%FSLAX46Y46*%
G04 Gerber Fmt 4.6, Leading zero omitted, Abs format (unit mm)*
G04 Created by KiCad (PCBNEW 9.0.6-1.fc43) date 2025-12-20 07:51:11*
%MOMM*%
%LPD*%
G01*
G04 APERTURE LIST*
%TA.AperFunction,ComponentPad*%
%ADD10R,1.725000X1.725000*%
%TD*%
%TA.AperFunction,ComponentPad*%
%ADD11C,1.725000*%
%TD*%
%TA.AperFunction,ComponentPad*%
%ADD12R,1.800000X1.800000*%
%TD*%
%TA.AperFunction,ComponentPad*%
%ADD13C,1.800000*%
%TD*%
%TA.AperFunction,ComponentPad*%
%ADD14O,4.200000X2.100000*%
%TD*%
%TA.AperFunction,SMDPad,CuDef*%
%ADD15R,1.200000X1.000000*%
%TD*%
%TA.AperFunction,ComponentPad*%
%ADD16C,1.381000*%
%TD*%
%TA.AperFunction,SMDPad,CuDef*%
%ADD17R,0.900000X1.000000*%
%TD*%
%TA.AperFunction,SMDPad,CuDef*%
%ADD18R,0.780000X0.990000*%
%TD*%
%TA.AperFunction,SMDPad,CuDef*%
%ADD19R,0.508000X1.117600*%
%TD*%
%TA.AperFunction,SMDPad,CuDef*%
%ADD20R,1.117600X0.508000*%
%TD*%
%TA.AperFunction,SMDPad,CuDef*%
%ADD21R,1.000000X0.900000*%
%TD*%
%TA.AperFunction,SMDPad,CuDef*%
%ADD22R,0.990000X0.780000*%
%TD*%
%TA.AperFunction,SMDPad,CuDef*%
%ADD23R,3.500000X2.600000*%
%TD*%
%TA.AperFunction,ComponentPad*%
%ADD24R,1.950000X1.950000*%
%TD*%
%TA.AperFunction,ComponentPad*%
%ADD25C,1.950000*%
%TD*%
%TA.AperFunction,SMDPad,CuDef*%
%ADD26R,1.475000X0.300000*%
%TD*%
%TA.AperFunction,SMDPad,CuDef*%
%ADD27R,0.300000X1.475000*%
%TD*%
%TA.AperFunction,SMDPad,CuDef*%
%ADD28R,0.800000X0.800000*%
%TD*%
%TA.AperFunction,ViaPad*%
%ADD29C,0.600000*%
%TD*%
%TA.AperFunction,Conductor*%
%ADD30C,0.200000*%
%TD*%
G04 APERTURE END LIST*
D10*
%TO.P,J1,1,1*%
%TO.N,+3V0*%
X143180000Y-129500000D03*
D11*
%TO.P,J1,2,2*%
X143180000Y-126960000D03*
%TO.P,J1,3,3*%
%TO.N,/Processor/TRST*%
X145720000Y-129500000D03*
%TO.P,J1,4,4*%
%TO.N,GND*%
X145720000Y-126960000D03*
%TO.P,J1,5,5*%
%TO.N,/Processor/TDI*%
X148260000Y-129500000D03*
%TO.P,J1,6,6*%
%TO.N,GND*%
X148260000Y-126960000D03*
%TO.P,J1,7,7*%
%TO.N,/Processor/TMS{slash}SWDAT*%
X150800000Y-129500000D03*
%TO.P,J1,8,8*%
%TO.N,GND*%
X150800000Y-126960000D03*
%TO.P,J1,9,9*%
%TO.N,/Processor/TCK{slash}SWCLK*%
X153340000Y-129500000D03*
%TO.P,J1,10,10*%
%TO.N,GND*%
X153340000Y-126960000D03*
%TO.P,J1,11,11*%
%TO.N,Net-(J1-Pad11)*%
X155880000Y-129500000D03*
%TO.P,J1,12,12*%
%TO.N,GND*%
X155880000Y-126960000D03*
%TO.P,J1,13,13*%
%TO.N,/Processor/TDO*%
X158420000Y-129500000D03*
%TO.P,J1,14,14*%
%TO.N,GND*%
X158420000Y-126960000D03*
%TO.P,J1,15,15*%
%TO.N,/Processor/NRST*%
X160960000Y-129500000D03*
%TO.P,J1,16,16*%
%TO.N,GND*%
X160960000Y-126960000D03*
%TO.P,J1,17,17*%
%TO.N,Net-(J1-Pad17)*%
X163500000Y-129500000D03*
%TO.P,J1,18,18*%
%TO.N,GND*%
X163500000Y-126960000D03*
%TO.P,J1,19,19*%
%TO.N,Net-(J1-Pad19)*%
X166040000Y-129500000D03*
%TO.P,J1,20,20*%
%TO.N,GND*%
X166040000Y-126960000D03*
%TD*%
D12*
%TO.P,RV1,1,1*%
%TO.N,/Processor/POT_1*%
X128250000Y-133975000D03*
D13*
%TO.P,RV1,2,2*%
%TO.N,GND*%
X130750000Y-133975000D03*
%TO.P,RV1,3,3*%
%TO.N,+3V0*%
X133250000Y-133975000D03*
D14*
%TO.P,RV1,S1*%
%TO.N,N/C*%
X126000000Y-126475000D03*
%TO.P,RV1,S2*%
X135500000Y-126475000D03*
%TD*%
D12*
%TO.P,RV2,1,1*%
%TO.N,/Processor/POT_2*%
X176750000Y-134000000D03*
D13*
%TO.P,RV2,2,2*%
%TO.N,GND*%
X179250000Y-134000000D03*
%TO.P,RV2,3,3*%
%TO.N,+3V0*%
X181750000Y-134000000D03*
D14*
%TO.P,RV2,S1*%
%TO.N,N/C*%
X174500000Y-126500000D03*
%TO.P,RV2,S2*%
X184000000Y-126500000D03*
%TD*%
D15*
%TO.P,SW2,1,A*%
%TO.N,+3V0*%
X166200000Y-104500000D03*
%TO.P,SW2,2,B*%
%TO.N,Net-(SW2A-B)*%
X166200000Y-107000000D03*
%TO.P,SW2,3,C*%
%TO.N,GND*%
X166200000Y-109500000D03*
D16*
%TO.P,SW2,4*%
%TO.N,N/C*%
X168800000Y-105500000D03*
%TO.P,SW2,5*%
X168800000Y-108500000D03*
%TD*%
D17*
%TO.P,R1,1*%
%TO.N,GND*%
X173500000Y-65750000D03*
%TO.P,R1,2*%
%TO.N,Net-(D1-K)*%
X175100000Y-65750000D03*
%TD*%
D18*
%TO.P,C7,1*%
%TO.N,GND*%
X145650000Y-114012000D03*
%TO.P,C7,2*%
%TO.N,+3V0*%
X144250000Y-114012000D03*
%TD*%
D19*
%TO.P,IC3,1,VDD_I/O*%
%TO.N,+3V0*%
X185506600Y-118871600D03*
%TO.P,IC3,2,GND_2*%
%TO.N,GND*%
X184693800Y-118871600D03*
%TO.P,IC3,3,RESERVED_2*%
%TO.N,+3V0*%
X183906400Y-118871600D03*
%TO.P,IC3,4,GND_3*%
%TO.N,GND*%
X183093600Y-118871600D03*
%TO.P,IC3,5,GND*%
X182306200Y-118871600D03*
%TO.P,IC3,6,VS*%
%TO.N,+3V0*%
X181493400Y-118871600D03*
D20*
%TO.P,IC3,7,~{CS}*%
%TO.N,/Accelerometer/ADXL_CS*%
X181620400Y-117500000D03*
D19*
%TO.P,IC3,8,INT1*%
%TO.N,/Accelerometer/ADXL_INT1*%
X181493400Y-116128400D03*
%TO.P,IC3,9,INT2*%
%TO.N,/Accelerometer/ADXL_INT2*%
X182306200Y-116128400D03*
%TO.P,IC3,10,NC*%
%TO.N,unconnected-(IC3-NC-Pad10)*%
X183093600Y-116128400D03*
%TO.P,IC3,11,RESERVED*%
%TO.N,+3V0*%
X183906400Y-116128400D03*
%TO.P,IC3,12,SDO/ALT_ADDRESS*%
%TO.N,/Accelerometer/ADXL_SDO*%
X184693800Y-116128400D03*
%TO.P,IC3,13,SDA/SDI/SDIO*%
%TO.N,/Accelerometer/ADXL_SDI*%
X185506600Y-116128400D03*
D20*
%TO.P,IC3,14,SCL/SCLK*%
%TO.N,/Accelerometer/ADXL_SCL*%
X185379600Y-117500000D03*
%TD*%
D21*
%TO.P,R2,1*%
%TO.N,Net-(J1-Pad19)*%
X166300000Y-131540000D03*
%TO.P,R2,2*%
%TO.N,GND*%
X166300000Y-133140000D03*
%TD*%
D18*
%TO.P,C5,1*%
%TO.N,GND*%
X148400000Y-114012000D03*
%TO.P,C5,2*%
%TO.N,+3V0*%
X147000000Y-114012000D03*
%TD*%
D21*
%TO.P,R3,1*%
%TO.N,GND*%
X163300000Y-133140000D03*
%TO.P,R3,2*%
%TO.N,Net-(J1-Pad17)*%
X163300000Y-131540000D03*
%TD*%
D22*
%TO.P,C2,1*%
%TO.N,GND*%
X140500000Y-103750000D03*
%TO.P,C2,2*%
%TO.N,+3V0*%
X140500000Y-102350000D03*
%TD*%
D23*
%TO.P,BT2,1,+*%
%TO.N,+3V0*%
X183000000Y-70000000D03*
%TO.P,BT2,2,-*%
%TO.N,GND*%
X183000000Y-99400000D03*
%TD*%
D18*
%TO.P,C3,1*%
%TO.N,GND*%
X148550000Y-100012000D03*
%TO.P,C3,2*%
%TO.N,+3V0*%
X149950000Y-100012000D03*
%TD*%
D22*
%TO.P,C21,1*%
%TO.N,+3V0*%
X136500000Y-84200000D03*
%TO.P,C21,2*%
%TO.N,GND*%
X136500000Y-82800000D03*
%TD*%
D18*
%TO.P,C4,1*%
%TO.N,+3V0*%
X141550000Y-115512000D03*
%TO.P,C4,2*%
%TO.N,GND*%
X142950000Y-115512000D03*
%TD*%
%TO.P,C8,1*%
%TO.N,+3V0*%
X144250000Y-115512000D03*
%TO.P,C8,2*%
%TO.N,GND*%
X145650000Y-115512000D03*
%TD*%
D17*
%TO.P,R5,1*%
%TO.N,/Processor/BOOT0*%
X161000000Y-107000000D03*
%TO.P,R5,2*%
%TO.N,Net-(SW2A-B)*%
X162600000Y-107000000D03*
%TD*%
D21*
%TO.P,R4,1*%
%TO.N,GND*%
X155800000Y-133140000D03*
%TO.P,R4,2*%
%TO.N,Net-(J1-Pad11)*%
X155800000Y-131540000D03*
%TD*%
%TO.P,R9,1*%
%TO.N,+3V0*%
X179750000Y-115700000D03*
%TO.P,R9,2*%
%TO.N,/Accelerometer/ADXL_CS*%
X179750000Y-117300000D03*
%TD*%
D22*
%TO.P,C9,1*%
%TO.N,/Processor/NRST*%
X159500000Y-114300000D03*
%TO.P,C9,2*%
%TO.N,GND*%
X159500000Y-115700000D03*
%TD*%
D17*
%TO.P,R10,1*%
%TO.N,+3V0*%
X125850000Y-84250000D03*
%TO.P,R10,2*%
%TO.N,/Screen/1V8*%
X124250000Y-84250000D03*
%TD*%
D18*
%TO.P,C11,1*%
%TO.N,+3V0*%
X187000000Y-120500000D03*
%TO.P,C11,2*%
%TO.N,GND*%
X185600000Y-120500000D03*
%TD*%
%TO.P,C10,1*%
%TO.N,GND*%
X181250000Y-120500000D03*
%TO.P,C10,2*%
%TO.N,+3V0*%
X179850000Y-120500000D03*
%TD*%
D24*
%TO.P,IC2,1,VIN*%
%TO.N,+3V0*%
X141520000Y-65530000D03*
D25*
%TO.P,IC2,2,3V0*%
%TO.N,unconnected-(IC2-3V0-Pad2)*%
X144020000Y-65530000D03*
%TO.P,IC2,3,GND*%
%TO.N,GND*%
X146520000Y-65530000D03*
%TO.P,IC2,4,SCK*%
%TO.N,/Processor/WIFI_SCK*%
X149020000Y-65530000D03*
%TO.P,IC2,5,MISO*%
%TO.N,/Processor/WIFI_MISO*%
X151520000Y-65530000D03*
%TO.P,IC2,6,MOSI*%
%TO.N,/Processor/WIFI_MOSI*%
X154020000Y-65530000D03*
%TO.P,IC2,7,CS*%
%TO.N,/Processor/WIFI_CS*%
X156520000Y-65530000D03*
%TO.P,IC2,8,BUSY*%
%TO.N,/Processor/WIFI_BUSY*%
X159020000Y-65530000D03*
%TO.P,IC2,9,RESET*%
%TO.N,/Processor/WIFI_RESET*%
X161520000Y-65530000D03*
%TO.P,IC2,10,GPIO_0*%
%TO.N,unconnected-(IC2-GPIO_0-Pad10)*%
X164020000Y-65530000D03*
%TO.P,IC2,11,UART_RX*%
%TO.N,unconnected-(IC2-UART_RX-Pad11)*%
X166520000Y-65530000D03*
%TO.P,IC2,12,UART_TX*%
%TO.N,unconnected-(IC2-UART_TX-Pad12)*%
X169020000Y-65530000D03*
%TD*%
D17*
%TO.P,R11,1*%
%TO.N,GND*%
X125850000Y-86250000D03*
%TO.P,R11,2*%
%TO.N,/Screen/1V8*%
X124250000Y-86250000D03*
%TD*%
D26*
%TO.P,IC1,1,VBAT*%
%TO.N,+3V0*%
X150738000Y-103500000D03*
%TO.P,IC1,2,PC13*%
%TO.N,unconnected-(IC1-PC13-Pad2)*%
X150738000Y-104000000D03*
%TO.P,IC1,3,PC14_-_OSC32_IN*%
%TO.N,unconnected-(IC1-PC14_-_OSC32_IN-Pad3)*%
X150738000Y-104500000D03*
%TO.P,IC1,4,PC15_-_OSC32_OUT*%
%TO.N,/Processor/BUTTON_2*%
X150738000Y-105000000D03*
%TO.P,IC1,5,PF0_-_OSC_IN*%
%TO.N,/Accelerometer/ADXL_CS*%
X150738000Y-105500000D03*
%TO.P,IC1,6,PF1_-_OSC_OUT*%
%TO.N,/Accelerometer/ADXL_SCL*%
X150738000Y-106000000D03*
%TO.P,IC1,7,PG10_-_NRST*%
%TO.N,/Processor/NRST*%
X150738000Y-106500000D03*
%TO.P,IC1,8,PA0*%
%TO.N,/Processor/POT_2*%
X150738000Y-107000000D03*
%TO.P,IC1,9,PA1*%
%TO.N,/Processor/POT_1*%
X150738000Y-107500000D03*
%TO.P,IC1,10,PA2*%
%TO.N,unconnected-(IC1-PA2-Pad10)*%
X150738000Y-108000000D03*
%TO.P,IC1,11,PA3*%
%TO.N,unconnected-(IC1-PA3-Pad11)*%
X150738000Y-108500000D03*
%TO.P,IC1,12,PA4*%
%TO.N,/Processor/WIFI_CS*%
X150738000Y-109000000D03*
D27*
%TO.P,IC1,13,PA5*%
%TO.N,/Processor/WIFI_SCK*%
X149250000Y-110488000D03*
%TO.P,IC1,14,PA6*%
%TO.N,/Processor/WIFI_MISO*%
X148750000Y-110488000D03*
%TO.P,IC1,15,PA7*%
%TO.N,/Processor/WIFI_MOSI*%
X148250000Y-110488000D03*
%TO.P,IC1,16,PB0*%
%TO.N,/Processor/WIFI_RESET*%
X147750000Y-110488000D03*
%TO.P,IC1,17,PB1*%
%TO.N,/Processor/WIFI_BUSY*%
X147250000Y-110488000D03*
%TO.P,IC1,18,PB2*%
%TO.N,unconnected-(IC1-PB2-Pad18)*%
X146750000Y-110488000D03*
%TO.P,IC1,19,VSSA*%
%TO.N,GND*%
X146250000Y-110488000D03*
%TO.P,IC1,20,VREF+*%
%TO.N,+3V0*%
X145750000Y-110488000D03*
%TO.P,IC1,21,VDDA*%
X145250000Y-110488000D03*
%TO.P,IC1,22,PB10*%
%TO.N,unconnected-(IC1-PB10-Pad22)*%
X144750000Y-110488000D03*
%TO.P,IC1,23,VSS_1*%
%TO.N,GND*%
X144250000Y-110488000D03*
%TO.P,IC1,24,VDD_1*%
%TO.N,+3V0*%
X143750000Y-110488000D03*
D26*
%TO.P,IC1,25,PB11*%
%TO.N,/Processor/BUTTON_1*%
X142262000Y-109000000D03*
%TO.P,IC1,26,PB12*%
%TO.N,unconnected-(IC1-PB12-Pad26)*%
X142262000Y-108500000D03*
%TO.P,IC1,27,PB13*%
%TO.N,unconnected-(IC1-PB13-Pad27)*%
X142262000Y-108000000D03*
%TO.P,IC1,28,PB14*%
%TO.N,unconnected-(IC1-PB14-Pad28)*%
X142262000Y-107500000D03*
%TO.P,IC1,29,PB15*%
%TO.N,unconnected-(IC1-PB15-Pad29)*%
X142262000Y-107000000D03*
%TO.P,IC1,30,PA8*%
%TO.N,/Processor/EINK_RST*%
X142262000Y-106500000D03*
%TO.P,IC1,31,PA9*%
%TO.N,/Accelerometer/ADXL_INT1*%
X142262000Y-106000000D03*
%TO.P,IC1,32,PA10*%
%TO.N,/Accelerometer/ADXL_SDO*%
X142262000Y-105500000D03*
%TO.P,IC1,33,PA11*%
%TO.N,/Accelerometer/ADXL_SDI*%
X142262000Y-105000000D03*
%TO.P,IC1,34,PA12*%
%TO.N,/Accelerometer/ADXL_INT2*%
X142262000Y-104500000D03*
%TO.P,IC1,35,VSS_2*%
%TO.N,GND*%
X142262000Y-104000000D03*
%TO.P,IC1,36,VDD_2*%
%TO.N,+3V0*%
X142262000Y-103500000D03*
D27*
%TO.P,IC1,37,PA13*%
%TO.N,/Processor/TMS{slash}SWDAT*%
X143750000Y-102012000D03*
%TO.P,IC1,38,PA14*%
%TO.N,/Processor/TCK{slash}SWCLK*%
X144250000Y-102012000D03*
%TO.P,IC1,39,PA15*%
%TO.N,/Processor/TDI*%
X144750000Y-102012000D03*
%TO.P,IC1,40,PB3*%
%TO.N,/Processor/TDO*%
X145250000Y-102012000D03*
%TO.P,IC1,41,PB4*%
%TO.N,/Processor/TRST*%
X145750000Y-102012000D03*
%TO.P,IC1,42,PB5*%
%TO.N,/Processor/EINK_CS*%
X146250000Y-102012000D03*
%TO.P,IC1,43,PB6*%
%TO.N,/Processor/EINK_BUSY*%
X146750000Y-102012000D03*
%TO.P,IC1,44,PB7*%
%TO.N,/Processor/EINK_D_C*%
X147250000Y-102012000D03*
%TO.P,IC1,45,PB8-BOOT0*%
%TO.N,/Processor/BOOT0*%
X147750000Y-102012000D03*
%TO.P,IC1,46,PB9*%
%TO.N,unconnected-(IC1-PB9-Pad46)*%
X148250000Y-102012000D03*
%TO.P,IC1,47,VSS_3*%
%TO.N,GND*%
X148750000Y-102012000D03*
%TO.P,IC1,48,VDD_3*%
%TO.N,+3V0*%
X149250000Y-102012000D03*
%TD*%
D18*
%TO.P,C1,1*%
%TO.N,GND*%
X142950000Y-114012000D03*
%TO.P,C1,2*%
%TO.N,+3V0*%
X141550000Y-114012000D03*
%TD*%
D17*
%TO.P,R7,1*%
%TO.N,/Processor/BUTTON_1*%
X135750000Y-108000000D03*
%TO.P,R7,2*%
%TO.N,+3V0*%
X137350000Y-108000000D03*
%TD*%
D28*
%TO.P,D1,1,K*%
%TO.N,Net-(D1-K)*%
X177550000Y-65750000D03*
%TO.P,D1,2,A*%
%TO.N,+3V0*%
X179050000Y-65750000D03*
%TD*%
D18*
%TO.P,C6,1*%
%TO.N,+3V0*%
X147000000Y-115512000D03*
%TO.P,C6,2*%
%TO.N,GND*%
X148400000Y-115512000D03*
%TD*%
D29*
%TO.N,GND*%
X182750000Y-101750000D03*
X166250000Y-134500000D03*
X133750000Y-91250000D03*
X142000000Y-119000000D03*
X139250000Y-103250000D03*
X133750000Y-88250000D03*
X159500000Y-119000000D03*
X177500000Y-119350000D03*
X168500000Y-119500000D03*
X145500000Y-116750000D03*
X163250000Y-134500000D03*
X148500000Y-79000000D03*
X149250000Y-115500000D03*
X185500000Y-121750000D03*
X126500000Y-86750000D03*
X155750000Y-134500000D03*
X173500000Y-64500000D03*
X164750000Y-109750000D03*
X183000000Y-120500000D03*
X129500000Y-82250000D03*
X182750000Y-121500000D03*
X133500000Y-94250000D03*
X132750000Y-119000000D03*
X134500000Y-81250000D03*
X137750000Y-82750000D03*
X150250000Y-119000000D03*
X149000000Y-99000000D03*
%TO.N,+3V0*%
X147000000Y-116750000D03*
X138750000Y-108000000D03*
X178250000Y-120750000D03*
X144750000Y-117500000D03*
X151000000Y-91500000D03*
X183500000Y-114750000D03*
X187250000Y-119250000D03*
X151250000Y-102750000D03*
X150750000Y-99000000D03*
X140250000Y-115500000D03*
X140500000Y-101500000D03*
X183000000Y-68250000D03*
X137750000Y-84250000D03*
X144000000Y-85000000D03*
X174500000Y-110000000D03*
X180750000Y-114500000D03*
X131500000Y-85750000D03*
X184250000Y-120500000D03*
X181000000Y-65750000D03*
X164500000Y-103750000D03*
%TO.N,/Processor/NRST*%
X161375000Y-114375000D03*
%TO.N,/Screen/1V8*%
X126500000Y-87750000D03*
%TO.N,/Accelerometer/ADXL_SCL*%
X146000000Y-105000000D03*
%TO.N,/Processor/EINK_CS*%
X146092185Y-98440715D03*
%TO.N,/Processor/EINK_D_C*%
X146318500Y-96667027D03*
%TO.N,/Processor/TCK{slash}SWCLK*%
X142543761Y-97934358D03*
%TO.N,/Processor/TMS{slash}SWDAT*%
X142100000Y-98600000D03*
%TO.N,/Processor/WIFI_CS*%
X152250000Y-108500000D03*
%TO.N,/Processor/WIFI_SCK*%
X153050003Y-108500000D03*
%TO.N,/Processor/BUTTON_2*%
X156000000Y-105000000D03*
%TO.N,/Processor/EINK_RST*%
X146500000Y-106500000D03*
%TO.N,/Processor/BUTTON_1*%
X133250000Y-110500000D03*
%TO.N,/Processor/WIFI_BUSY*%
X156250015Y-108500000D03*
%TO.N,/Processor/TRST*%
X144000000Y-98000000D03*
%TO.N,/Accelerometer/ADXL_SDO*%
X184693800Y-107193800D03*
X178250000Y-103500000D03*
%TO.N,/Processor/WIFI_MOSI*%
X154650009Y-108500000D03*
%TO.N,/Processor/TDO*%
X144000000Y-99000000D03*
%TO.N,/Processor/WIFI_RESET*%
X155450012Y-108500000D03*
%TO.N,/Accelerometer/ADXL_SDI*%
X138000000Y-99000000D03*
%TO.N,/Processor/EINK_BUSY*%
X145515627Y-94600000D03*
%TO.N,/Processor/WIFI_MISO*%
X153850006Y-108500000D03*
%TO.N,/Processor/TDI*%
X144000000Y-100000000D03*
%TD*%
D30*
%TO.N,GND*%
X146250000Y-110488000D02*
X146250000Y-111862000D01*
X140750000Y-104000000D02*
X140500000Y-103750000D01*
X142950000Y-118050000D02*
X142000000Y-119000000D01*
X145650000Y-116600000D02*
X145500000Y-116750000D01*
X185600000Y-120500000D02*
X185600000Y-121650000D01*
X149238000Y-115512000D02*
X149250000Y-115500000D01*
X137700000Y-82800000D02*
X137750000Y-82750000D01*
X183093600Y-120406400D02*
X183000000Y-120500000D01*
X173500000Y-65750000D02*
X173500000Y-64500000D01*
X148400000Y-114012000D02*
X148400000Y-115512000D01*
X148550000Y-99450000D02*
X149000000Y-99000000D01*
X185600000Y-121650000D02*
X185500000Y-121750000D01*
X159500000Y-115700000D02*
X159500000Y-119000000D01*
X136500000Y-82800000D02*
X137700000Y-82800000D01*
X148550000Y-100012000D02*
X148550000Y-99450000D01*
X185600000Y-120500000D02*
X184693800Y-119593800D01*
X148400000Y-115512000D02*
X149238000Y-115512000D01*
X148750000Y-100212000D02*
X148750000Y-102012000D01*
X163250000Y-133190000D02*
X163300000Y-133140000D01*
X181750000Y-120500000D02*
X182750000Y-121500000D01*
X165000000Y-109500000D02*
X164750000Y-109750000D01*
X145750000Y-115512000D02*
X145750000Y-114112000D01*
X142950000Y-115512000D02*
X142950000Y-118050000D01*
X144250000Y-112525000D02*
X142950000Y-113825000D01*
X166200000Y-109500000D02*
X165000000Y-109500000D01*
X183000000Y-101500000D02*
X182750000Y-101750000D01*
X142950000Y-114012000D02*
X142750000Y-113812000D01*
X155750000Y-134500000D02*
X155750000Y-133190000D01*
X181250000Y-120500000D02*
X182306200Y-119443800D01*
X183000000Y-99400000D02*
X183000000Y-101500000D01*
X163250000Y-134500000D02*
X163250000Y-133190000D01*
X142262000Y-104000000D02*
X140750000Y-104000000D01*
X145650000Y-115512000D02*
X145650000Y-116600000D01*
X166250000Y-133190000D02*
X166300000Y-133140000D01*
X182306200Y-119443800D02*
X182306200Y-118871600D01*
X142950000Y-113825000D02*
X142950000Y-114012000D01*
X140500000Y-103750000D02*
X139750000Y-103750000D01*
X145750000Y-114112000D02*
X145650000Y-114012000D01*
X146250000Y-111862000D02*
X148400000Y-114012000D01*
X148550000Y-100012000D02*
X148750000Y-100212000D01*
X142950000Y-115512000D02*
X142950000Y-114012000D01*
X166250000Y-134500000D02*
X166250000Y-133190000D01*
X181250000Y-120500000D02*
X181750000Y-120500000D01*
X139750000Y-103750000D02*
X139250000Y-103250000D01*
X183093600Y-118871600D02*
X183093600Y-120406400D01*
X144250000Y-110488000D02*
X144250000Y-112525000D01*
X155750000Y-133190000D02*
X155800000Y-133140000D01*
X184693800Y-119593800D02*
X184693800Y-118871600D01*
%TO.N,+3V0*%
X150738000Y-103262000D02*
X151250000Y-102750000D01*
X187000000Y-120500000D02*
X187000000Y-120365000D01*
X179850000Y-120500000D02*
X178500000Y-120500000D01*
X137700000Y-84200000D02*
X137750000Y-84250000D01*
X149488000Y-102012000D02*
X149950000Y-101550000D01*
X184250000Y-120187200D02*
X183906400Y-119843600D01*
X166200000Y-104500000D02*
X165250000Y-104500000D01*
X145250000Y-113012000D02*
X145250000Y-110488000D01*
X141550000Y-115512000D02*
X140262000Y-115512000D01*
X125850000Y-84250000D02*
X136450000Y-84250000D01*
X143750000Y-111750000D02*
X143750000Y-110488000D01*
X144250000Y-117000000D02*
X144750000Y-117500000D01*
X145750000Y-112762000D02*
X145750000Y-110488000D01*
X147000000Y-115512000D02*
X147000000Y-114012000D01*
X149950000Y-101550000D02*
X149950000Y-100012000D01*
X184250000Y-120500000D02*
X184250000Y-120187200D01*
X141550000Y-113950000D02*
X143750000Y-111750000D01*
X165250000Y-104500000D02*
X164500000Y-103750000D01*
X136500000Y-84200000D02*
X137700000Y-84200000D01*
X144250000Y-115512000D02*
X144250000Y-114012000D01*
X142262000Y-103012000D02*
X141600000Y-102350000D01*
X183906400Y-119843600D02*
X183906400Y-118871600D01*
X141600000Y-102350000D02*
X140500000Y-102350000D01*
X187000000Y-120500000D02*
X187000000Y-119500000D01*
X142262000Y-103500000D02*
X142262000Y-103012000D01*
X144250000Y-114012000D02*
X145250000Y-113012000D01*
X137350000Y-108000000D02*
X138750000Y-108000000D01*
X149950000Y-100012000D02*
X149950000Y-99800000D01*
X140500000Y-102350000D02*
X140500000Y-101500000D01*
X183906400Y-116128400D02*
X183906400Y-115156400D01*
X187000000Y-120365000D02*
X185506600Y-118871600D01*
X141550000Y-115512000D02*
X141550000Y-114012000D01*
X183000000Y-70000000D02*
X183000000Y-68250000D01*
X150738000Y-103500000D02*
X150738000Y-103262000D01*
X179850000Y-120500000D02*
X179865000Y-120500000D01*
X179750000Y-115500000D02*
X180750000Y-114500000D01*
X141550000Y-114012000D02*
X141550000Y-113950000D01*
X149250000Y-102012000D02*
X149488000Y-102012000D01*
X144250000Y-115512000D02*
X144250000Y-117000000D01*
X147000000Y-115512000D02*
X147000000Y-116750000D01*
X149950000Y-99800000D02*
X150750000Y-99000000D01*
X136450000Y-84250000D02*
X136500000Y-84200000D01*
X140262000Y-115512000D02*
X140250000Y-115500000D01*
X179050000Y-65750000D02*
X181000000Y-65750000D01*
X179865000Y-120500000D02*
X181493400Y-118871600D01*
X187000000Y-119500000D02*
X187250000Y-119250000D01*
X178500000Y-120500000D02*
X178250000Y-120750000D01*
X183906400Y-115156400D02*
X183500000Y-114750000D01*
X179750000Y-115700000D02*
X179750000Y-115500000D01*
X147000000Y-114012000D02*
X145750000Y-112762000D01*
%TO.N,/Processor/NRST*%
X161300000Y-114300000D02*
X161375000Y-114375000D01*
X159500000Y-114300000D02*
X161300000Y-114300000D01*
X156250000Y-106500000D02*
X159500000Y-109750000D01*
X159500000Y-109750000D02*
X159500000Y-114300000D01*
X150738000Y-106500000D02*
X156250000Y-106500000D01*
%TO.N,/Screen/1V8*%
X126500000Y-87750000D02*
X125598530Y-87750000D01*
X124250000Y-86401470D02*
X124250000Y-84250000D01*
X125598530Y-87750000D02*
X124250000Y-86401470D01*
%TO.N,Net-(D1-K)*%
X177550000Y-65750000D02*
X175100000Y-65750000D01*
%TO.N,/Accelerometer/ADXL_SCL*%
X164750000Y-113000000D02*
X164750000Y-117317100D01*
X186750000Y-122500000D02*
X189000000Y-120250000D01*
X147000000Y-106000000D02*
X146000000Y-105000000D01*
X155349000Y-106099000D02*
X157849000Y-106099000D01*
X164750000Y-117317100D02*
X169932900Y-122500000D01*
X169932900Y-122500000D02*
X186750000Y-122500000D01*
X189000000Y-118500000D02*
X188000000Y-117500000D01*
X150738000Y-106000000D02*
X155250000Y-106000000D01*
X155250000Y-106000000D02*
X155349000Y-106099000D01*
X157849000Y-106099000D02*
X164750000Y-113000000D01*
X150738000Y-106000000D02*
X147000000Y-106000000D01*
X188000000Y-117500000D02*
X185379600Y-117500000D01*
X189000000Y-120250000D02*
X189000000Y-118500000D01*
%TO.N,/Accelerometer/ADXL_INT1*%
X144000000Y-94000000D02*
X166000000Y-94000000D01*
X181493400Y-109493400D02*
X181493400Y-116128400D01*
X143750000Y-103500000D02*
X141500000Y-101250000D01*
X141500000Y-96500000D02*
X144000000Y-94000000D01*
X142262000Y-106000000D02*
X143251500Y-106000000D01*
X166000000Y-94000000D02*
X181493400Y-109493400D01*
X143750000Y-105501500D02*
X143750000Y-103500000D01*
X141500000Y-101250000D02*
X141500000Y-96500000D01*
X143251500Y-106000000D02*
X143750000Y-105501500D01*
%TO.N,/Accelerometer/ADXL_INT2*%
X166500000Y-93500000D02*
X182306200Y-109306200D01*
X142262000Y-104500000D02*
X139250000Y-104500000D01*
X182306200Y-109306200D02*
X182306200Y-116128400D01*
X138424972Y-98575028D02*
X143500000Y-93500000D01*
X138500000Y-103737000D02*
X138250000Y-103487000D01*
X138500000Y-103750000D02*
X138500000Y-103737000D01*
X139250000Y-104500000D02*
X138500000Y-103750000D01*
X138250000Y-103487000D02*
X138250000Y-99601000D01*
X138250000Y-99601000D02*
X138248943Y-99601000D01*
X138601000Y-98751057D02*
X138424972Y-98575028D01*
X143500000Y-93500000D02*
X166500000Y-93500000D01*
X138601000Y-99248943D02*
X138601000Y-98751057D01*
X138248943Y-99601000D02*
X138601000Y-99248943D01*
%TO.N,/Processor/EINK_CS*%
X146092185Y-98440715D02*
X146092185Y-99025085D01*
X146092185Y-99025085D02*
X146250000Y-99182900D01*
X146250000Y-99182900D02*
X146250000Y-102012000D01*
%TO.N,/Processor/EINK_D_C*%
X146500000Y-96848527D02*
X146500000Y-97432900D01*
X147151000Y-98151000D02*
X147250000Y-98250000D01*
X146500000Y-97432900D02*
X147151000Y-98083900D01*
X147151000Y-98083900D02*
X147151000Y-98151000D01*
X146318500Y-96667027D02*
X146500000Y-96848527D01*
X147250000Y-98250000D02*
X147250000Y-102012000D01*
%TO.N,/Processor/BOOT0*%
X147750000Y-102012000D02*
X147750000Y-99000000D01*
X152250000Y-98250000D02*
X161000000Y-107000000D01*
X147750000Y-99000000D02*
X148500000Y-98250000D01*
X148500000Y-98250000D02*
X152250000Y-98250000D01*
%TO.N,/Processor/TCK{slash}SWCLK*%
X143000000Y-100000000D02*
X143000000Y-98390597D01*
X143000000Y-98390597D02*
X142543761Y-97934358D01*
X144250000Y-102012000D02*
X144250000Y-101136250D01*
X143500000Y-100500000D02*
X143000000Y-100000000D01*
X143613750Y-100500000D02*
X143500000Y-100500000D01*
X144201000Y-101963000D02*
X144250000Y-102012000D01*
X144250000Y-101136250D02*
X143613750Y-100500000D01*
%TO.N,/Processor/TMS{slash}SWDAT*%
X142500000Y-99000000D02*
X142100000Y-98600000D01*
X142500000Y-99000000D02*
X142500000Y-100762000D01*
X142500000Y-100762000D02*
X143750000Y-102012000D01*
%TO.N,/Processor/WIFI_CS*%
X151750000Y-109000000D02*
X152250000Y-108500000D01*
X150738000Y-109000000D02*
X151750000Y-109000000D01*
%TO.N,/Processor/WIFI_SCK*%
X153050003Y-109199997D02*
X153050003Y-108500000D01*
X151762000Y-110488000D02*
X153050003Y-109199997D01*
X151762000Y-110488000D02*
X149250000Y-110488000D01*
%TO.N,/Processor/BUTTON_2*%
X150738000Y-105000000D02*
X156000000Y-105000000D01*
%TO.N,/Processor/EINK_RST*%
X142262000Y-106500000D02*
X146500000Y-106500000D01*
%TO.N,/Accelerometer/ADXL_CS*%
X179750000Y-117300000D02*
X181420400Y-117300000D01*
X181420400Y-117300000D02*
X181620400Y-117500000D01*
X155601000Y-105601000D02*
X158049000Y-105601000D01*
X150738000Y-105500000D02*
X155500000Y-105500000D01*
X155500000Y-105500000D02*
X155601000Y-105601000D01*
X166750000Y-118750000D02*
X180370400Y-118750000D01*
X166000000Y-118000000D02*
X166750000Y-118750000D01*
X180370400Y-118750000D02*
X181620400Y-117500000D01*
X166000000Y-113552000D02*
X166000000Y-118000000D01*
X158049000Y-105601000D02*
X166000000Y-113552000D01*
%TO.N,/Processor/BUTTON_1*%
X135750000Y-108000000D02*
X135850000Y-108000000D01*
X134750000Y-109000000D02*
X133250000Y-110500000D01*
X142262000Y-109000000D02*
X134750000Y-109000000D01*
X134750000Y-109000000D02*
X135750000Y-108000000D01*
%TO.N,/Processor/WIFI_BUSY*%
X156250015Y-109499985D02*
X156250015Y-108500000D01*
X152797000Y-112953000D02*
X156250015Y-109499985D01*
X147250000Y-111701300D02*
X147250000Y-110488000D01*
X152797000Y-112953000D02*
X148501700Y-112953000D01*
X148501700Y-112953000D02*
X147250000Y-111701300D01*
%TO.N,/Processor/TRST*%
X145750000Y-102012000D02*
X145750000Y-99750000D01*
X145750000Y-99750000D02*
X144000000Y-98000000D01*
%TO.N,/Accelerometer/ADXL_SDO*%
X136651000Y-103833900D02*
X138317100Y-105500000D01*
X167250000Y-92500000D02*
X142817100Y-92500000D01*
X184693800Y-107193800D02*
X184693800Y-116128400D01*
X136651000Y-98666100D02*
X136651000Y-103833900D01*
X138317100Y-105500000D02*
X142262000Y-105500000D01*
X178250000Y-103500000D02*
X167250000Y-92500000D01*
X142817100Y-92500000D02*
X136651000Y-98666100D01*
%TO.N,/Processor/WIFI_MOSI*%
X154650009Y-109349991D02*
X154650009Y-108500000D01*
X151849000Y-112151000D02*
X148833900Y-112151000D01*
X151849000Y-112151000D02*
X154650009Y-109349991D01*
X148833900Y-112151000D02*
X148250000Y-111567100D01*
X148250000Y-111567100D02*
X148250000Y-110488000D01*
%TO.N,/Processor/TDO*%
X144000000Y-99000000D02*
X144500000Y-99500000D01*
X145250000Y-100250000D02*
X145250000Y-102012000D01*
X144000000Y-99000000D02*
X145250000Y-100250000D01*
%TO.N,/Processor/WIFI_RESET*%
X148667800Y-112552000D02*
X147750000Y-111634200D01*
X147750000Y-111634200D02*
X147750000Y-110488000D01*
X152198000Y-112552000D02*
X148667800Y-112552000D01*
X155450012Y-109299988D02*
X155450012Y-108500000D01*
X152198000Y-112552000D02*
X155450012Y-109299988D01*
%TO.N,/Accelerometer/ADXL_SDI*%
X137052000Y-99948000D02*
X138000000Y-99000000D01*
X137750000Y-104250000D02*
X137052000Y-103552000D01*
X184501057Y-105501057D02*
X185506600Y-106506600D01*
X181251057Y-105501057D02*
X184501057Y-105501057D01*
X143000000Y-93000000D02*
X166750000Y-93000000D01*
X166750000Y-93000000D02*
X178166049Y-104416049D01*
X137052000Y-100500000D02*
X137052000Y-98948000D01*
X178166049Y-104416049D02*
X180166049Y-104416049D01*
X142262000Y-105000000D02*
X138500000Y-105000000D01*
X137052000Y-100500000D02*
X137052000Y-99948000D01*
X137052000Y-103552000D02*
X137052000Y-100500000D01*
X138500000Y-105000000D02*
X137750000Y-104250000D01*
X137052000Y-98948000D02*
X143000000Y-93000000D01*
X180166049Y-104416049D02*
X181251057Y-105501057D01*
X185506600Y-106506600D02*
X185506600Y-116128400D01*
%TO.N,/Processor/POT_2*%
X158500000Y-109317100D02*
X158500000Y-119000000D01*
X168932900Y-122067100D02*
X168932900Y-127500000D01*
X168932900Y-128000000D02*
X168932900Y-129432900D01*
X170000000Y-130500000D02*
X173500000Y-134000000D01*
X150738000Y-107000000D02*
X156182900Y-107000000D01*
X160000000Y-120500000D02*
X167365800Y-120500000D01*
X168932900Y-127500000D02*
X168932900Y-127000000D01*
X169500000Y-130000000D02*
X170000000Y-130500000D01*
X173500000Y-134000000D02*
X176750000Y-134000000D01*
X168932900Y-129432900D02*
X169500000Y-130000000D01*
X167365800Y-120500000D02*
X168932900Y-122067100D01*
X158500000Y-119000000D02*
X160000000Y-120500000D01*
X156182900Y-107000000D02*
X158500000Y-109317100D01*
X168932900Y-127500000D02*
X168932900Y-128000000D01*
%TO.N,/Processor/EINK_BUSY*%
X146750000Y-98250000D02*
X146750000Y-102012000D01*
X145718500Y-94802873D02*
X145718500Y-97218500D01*
X145515627Y-94600000D02*
X145718500Y-94802873D01*
X145718500Y-97218500D02*
X146750000Y-98250000D01*
%TO.N,/Processor/WIFI_MISO*%
X151500000Y-111750000D02*
X153850006Y-109399994D01*
X151500000Y-111750000D02*
X149000000Y-111750000D01*
X153850006Y-109399994D02*
X153850006Y-108500000D01*
X148750000Y-111500000D02*
X148750000Y-110488000D01*
X149000000Y-111750000D02*
X148750000Y-111500000D01*
%TO.N,/Processor/TDI*%
X144750000Y-102012000D02*
X144750000Y-100750000D01*
X144750000Y-100750000D02*
X144000000Y-100000000D01*
%TO.N,/Processor/POT_1*%
X128475000Y-133975000D02*
X128250000Y-133975000D01*
X150738000Y-107500000D02*
X156099958Y-107500000D01*
X158000000Y-119000000D02*
X156500000Y-120500000D01*
X141500000Y-120500000D02*
X138500000Y-123500000D01*
X130500000Y-136000000D02*
X128475000Y-133975000D01*
X138500000Y-123500000D02*
X138500000Y-133000000D01*
X138500000Y-133000000D02*
X135500000Y-136000000D01*
X135500000Y-136000000D02*
X130500000Y-136000000D01*
X156500000Y-120500000D02*
X141500000Y-120500000D01*
X156099958Y-107500000D02*
X158000000Y-109400042D01*
X158000000Y-109400042D02*
X158000000Y-119000000D01*
%TO.N,Net-(J1-Pad17)*%
X163300000Y-131540000D02*
X163300000Y-131040000D01*
X163300000Y-131040000D02*
X163500000Y-130840000D01*
X163500000Y-130840000D02*
X163500000Y-129500000D01*
%TO.N,Net-(J1-Pad11)*%
X155800000Y-131540000D02*
X155800000Y-131040000D01*
X155880000Y-130960000D02*
X155880000Y-129500000D01*
X155800000Y-131040000D02*
X155880000Y-130960000D01*
%TO.N,Net-(J1-Pad19)*%
X166040000Y-130780000D02*
X166040000Y-129500000D01*
X166300000Y-131040000D02*
X166040000Y-130780000D01*
X166300000Y-131540000D02*
X166300000Y-131040000D01*
%TO.N,Net-(SW2A-B)*%
X162600000Y-107000000D02*
X166200000Y-107000000D01*
%TD*%
M02*
