%TF.GenerationSoftware,KiCad,Pcbnew,9.0.6-1.fc43*%
%TF.CreationDate,2025-12-20T07:51:11-05:00*%
%TF.ProjectId,electrical,656c6563-7472-4696-9361-6c2e6b696361,rev?*%
%TF.SameCoordinates,Original*%
%TF.FileFunction,Legend,Top*%
%TF.FilePolarity,Positive*%
%FSLAX46Y46*%
G04 Gerber Fmt 4.6, Leading zero omitted, Abs format (unit mm)*
G04 Created by KiCad (PCBNEW 9.0.6-1.fc43) date 2025-12-20 07:51:11*
%MOMM*%
%LPD*%
G01*
G04 APERTURE LIST*
%ADD10C,0.254000*%
%ADD11C,0.150000*%
%ADD12C,0.200000*%
%ADD13C,0.127000*%
%ADD14C,0.100000*%
G04 APERTURE END LIST*
D10*
X131533571Y-81703365D02*
X131473095Y-81763842D01*
X131473095Y-81763842D02*
X131291666Y-81824318D01*
X131291666Y-81824318D02*
X131170714Y-81824318D01*
X131170714Y-81824318D02*
X130989285Y-81763842D01*
X130989285Y-81763842D02*
X130868333Y-81642889D01*
X130868333Y-81642889D02*
X130807856Y-81521937D01*
X130807856Y-81521937D02*
X130747380Y-81280032D01*
X130747380Y-81280032D02*
X130747380Y-81098603D01*
X130747380Y-81098603D02*
X130807856Y-80856699D01*
X130807856Y-80856699D02*
X130868333Y-80735746D01*
X130868333Y-80735746D02*
X130989285Y-80614794D01*
X130989285Y-80614794D02*
X131170714Y-80554318D01*
X131170714Y-80554318D02*
X131291666Y-80554318D01*
X131291666Y-80554318D02*
X131473095Y-80614794D01*
X131473095Y-80614794D02*
X131533571Y-80675270D01*
X132743095Y-81824318D02*
X132017380Y-81824318D01*
X132380237Y-81824318D02*
X132380237Y-80554318D01*
X132380237Y-80554318D02*
X132259285Y-80735746D01*
X132259285Y-80735746D02*
X132138333Y-80856699D01*
X132138333Y-80856699D02*
X132017380Y-80917175D01*
X133831666Y-80977651D02*
X133831666Y-81824318D01*
X133529285Y-80493842D02*
X133226904Y-81400984D01*
X133226904Y-81400984D02*
X134013095Y-81400984D01*
X143062618Y-74824318D02*
X143062618Y-73554318D01*
X143062618Y-73554318D02*
X143364999Y-73554318D01*
X143364999Y-73554318D02*
X143546428Y-73614794D01*
X143546428Y-73614794D02*
X143667380Y-73735746D01*
X143667380Y-73735746D02*
X143727857Y-73856699D01*
X143727857Y-73856699D02*
X143788333Y-74098603D01*
X143788333Y-74098603D02*
X143788333Y-74280032D01*
X143788333Y-74280032D02*
X143727857Y-74521937D01*
X143727857Y-74521937D02*
X143667380Y-74642889D01*
X143667380Y-74642889D02*
X143546428Y-74763842D01*
X143546428Y-74763842D02*
X143364999Y-74824318D01*
X143364999Y-74824318D02*
X143062618Y-74824318D01*
X144876904Y-73977651D02*
X144876904Y-74824318D01*
X144574523Y-73493842D02*
X144272142Y-74400984D01*
X144272142Y-74400984D02*
X145058333Y-74400984D01*
X140129047Y-78445270D02*
X140008095Y-78384794D01*
X140008095Y-78384794D02*
X139887142Y-78263842D01*
X139887142Y-78263842D02*
X139705714Y-78082413D01*
X139705714Y-78082413D02*
X139584761Y-78021937D01*
X139584761Y-78021937D02*
X139463809Y-78021937D01*
X139524285Y-78324318D02*
X139403333Y-78263842D01*
X139403333Y-78263842D02*
X139282380Y-78142889D01*
X139282380Y-78142889D02*
X139221904Y-77900984D01*
X139221904Y-77900984D02*
X139221904Y-77477651D01*
X139221904Y-77477651D02*
X139282380Y-77235746D01*
X139282380Y-77235746D02*
X139403333Y-77114794D01*
X139403333Y-77114794D02*
X139524285Y-77054318D01*
X139524285Y-77054318D02*
X139766190Y-77054318D01*
X139766190Y-77054318D02*
X139887142Y-77114794D01*
X139887142Y-77114794D02*
X140008095Y-77235746D01*
X140008095Y-77235746D02*
X140068571Y-77477651D01*
X140068571Y-77477651D02*
X140068571Y-77900984D01*
X140068571Y-77900984D02*
X140008095Y-78142889D01*
X140008095Y-78142889D02*
X139887142Y-78263842D01*
X139887142Y-78263842D02*
X139766190Y-78324318D01*
X139766190Y-78324318D02*
X139524285Y-78324318D01*
X141278095Y-78324318D02*
X140552380Y-78324318D01*
X140915237Y-78324318D02*
X140915237Y-77054318D01*
X140915237Y-77054318D02*
X140794285Y-77235746D01*
X140794285Y-77235746D02*
X140673333Y-77356699D01*
X140673333Y-77356699D02*
X140552380Y-77417175D01*
X142756667Y-128804318D02*
X142756667Y-129711461D01*
X142756667Y-129711461D02*
X142696190Y-129892889D01*
X142696190Y-129892889D02*
X142575238Y-130013842D01*
X142575238Y-130013842D02*
X142393809Y-130074318D01*
X142393809Y-130074318D02*
X142272857Y-130074318D01*
X144026667Y-130074318D02*
X143300952Y-130074318D01*
X143663809Y-130074318D02*
X143663809Y-128804318D01*
X143663809Y-128804318D02*
X143542857Y-128985746D01*
X143542857Y-128985746D02*
X143421905Y-129106699D01*
X143421905Y-129106699D02*
X143300952Y-129167175D01*
D11*
X126439819Y-72458333D02*
X127154104Y-72458333D01*
X127154104Y-72458333D02*
X127296961Y-72505952D01*
X127296961Y-72505952D02*
X127392200Y-72601190D01*
X127392200Y-72601190D02*
X127439819Y-72744047D01*
X127439819Y-72744047D02*
X127439819Y-72839285D01*
X126535057Y-72029761D02*
X126487438Y-71982142D01*
X126487438Y-71982142D02*
X126439819Y-71886904D01*
X126439819Y-71886904D02*
X126439819Y-71648809D01*
X126439819Y-71648809D02*
X126487438Y-71553571D01*
X126487438Y-71553571D02*
X126535057Y-71505952D01*
X126535057Y-71505952D02*
X126630295Y-71458333D01*
X126630295Y-71458333D02*
X126725533Y-71458333D01*
X126725533Y-71458333D02*
X126868390Y-71505952D01*
X126868390Y-71505952D02*
X127439819Y-72077380D01*
X127439819Y-72077380D02*
X127439819Y-71458333D01*
X126979761Y-120833819D02*
X126646428Y-120357628D01*
X126408333Y-120833819D02*
X126408333Y-119833819D01*
X126408333Y-119833819D02*
X126789285Y-119833819D01*
X126789285Y-119833819D02*
X126884523Y-119881438D01*
X126884523Y-119881438D02*
X126932142Y-119929057D01*
X126932142Y-119929057D02*
X126979761Y-120024295D01*
X126979761Y-120024295D02*
X126979761Y-120167152D01*
X126979761Y-120167152D02*
X126932142Y-120262390D01*
X126932142Y-120262390D02*
X126884523Y-120310009D01*
X126884523Y-120310009D02*
X126789285Y-120357628D01*
X126789285Y-120357628D02*
X126408333Y-120357628D01*
X127265476Y-119833819D02*
X127598809Y-120833819D01*
X127598809Y-120833819D02*
X127932142Y-119833819D01*
X128789285Y-120833819D02*
X128217857Y-120833819D01*
X128503571Y-120833819D02*
X128503571Y-119833819D01*
X128503571Y-119833819D02*
X128408333Y-119976676D01*
X128408333Y-119976676D02*
X128313095Y-120071914D01*
X128313095Y-120071914D02*
X128217857Y-120119533D01*
X175479761Y-120858819D02*
X175146428Y-120382628D01*
X174908333Y-120858819D02*
X174908333Y-119858819D01*
X174908333Y-119858819D02*
X175289285Y-119858819D01*
X175289285Y-119858819D02*
X175384523Y-119906438D01*
X175384523Y-119906438D02*
X175432142Y-119954057D01*
X175432142Y-119954057D02*
X175479761Y-120049295D01*
X175479761Y-120049295D02*
X175479761Y-120192152D01*
X175479761Y-120192152D02*
X175432142Y-120287390D01*
X175432142Y-120287390D02*
X175384523Y-120335009D01*
X175384523Y-120335009D02*
X175289285Y-120382628D01*
X175289285Y-120382628D02*
X174908333Y-120382628D01*
X175765476Y-119858819D02*
X176098809Y-120858819D01*
X176098809Y-120858819D02*
X176432142Y-119858819D01*
X176717857Y-119954057D02*
X176765476Y-119906438D01*
X176765476Y-119906438D02*
X176860714Y-119858819D01*
X176860714Y-119858819D02*
X177098809Y-119858819D01*
X177098809Y-119858819D02*
X177194047Y-119906438D01*
X177194047Y-119906438D02*
X177241666Y-119954057D01*
X177241666Y-119954057D02*
X177289285Y-120049295D01*
X177289285Y-120049295D02*
X177289285Y-120144533D01*
X177289285Y-120144533D02*
X177241666Y-120287390D01*
X177241666Y-120287390D02*
X176670238Y-120858819D01*
X176670238Y-120858819D02*
X177289285Y-120858819D01*
D10*
X131283571Y-87203365D02*
X131223095Y-87263842D01*
X131223095Y-87263842D02*
X131041666Y-87324318D01*
X131041666Y-87324318D02*
X130920714Y-87324318D01*
X130920714Y-87324318D02*
X130739285Y-87263842D01*
X130739285Y-87263842D02*
X130618333Y-87142889D01*
X130618333Y-87142889D02*
X130557856Y-87021937D01*
X130557856Y-87021937D02*
X130497380Y-86780032D01*
X130497380Y-86780032D02*
X130497380Y-86598603D01*
X130497380Y-86598603D02*
X130557856Y-86356699D01*
X130557856Y-86356699D02*
X130618333Y-86235746D01*
X130618333Y-86235746D02*
X130739285Y-86114794D01*
X130739285Y-86114794D02*
X130920714Y-86054318D01*
X130920714Y-86054318D02*
X131041666Y-86054318D01*
X131041666Y-86054318D02*
X131223095Y-86114794D01*
X131223095Y-86114794D02*
X131283571Y-86175270D01*
X132493095Y-87324318D02*
X131767380Y-87324318D01*
X132130237Y-87324318D02*
X132130237Y-86054318D01*
X132130237Y-86054318D02*
X132009285Y-86235746D01*
X132009285Y-86235746D02*
X131888333Y-86356699D01*
X131888333Y-86356699D02*
X131767380Y-86417175D01*
X133642142Y-86054318D02*
X133037380Y-86054318D01*
X133037380Y-86054318D02*
X132976904Y-86659080D01*
X132976904Y-86659080D02*
X133037380Y-86598603D01*
X133037380Y-86598603D02*
X133158333Y-86538127D01*
X133158333Y-86538127D02*
X133460714Y-86538127D01*
X133460714Y-86538127D02*
X133581666Y-86598603D01*
X133581666Y-86598603D02*
X133642142Y-86659080D01*
X133642142Y-86659080D02*
X133702619Y-86780032D01*
X133702619Y-86780032D02*
X133702619Y-87082413D01*
X133702619Y-87082413D02*
X133642142Y-87203365D01*
X133642142Y-87203365D02*
X133581666Y-87263842D01*
X133581666Y-87263842D02*
X133460714Y-87324318D01*
X133460714Y-87324318D02*
X133158333Y-87324318D01*
X133158333Y-87324318D02*
X133037380Y-87263842D01*
X133037380Y-87263842D02*
X132976904Y-87203365D01*
X131133571Y-91703365D02*
X131073095Y-91763842D01*
X131073095Y-91763842D02*
X130891666Y-91824318D01*
X130891666Y-91824318D02*
X130770714Y-91824318D01*
X130770714Y-91824318D02*
X130589285Y-91763842D01*
X130589285Y-91763842D02*
X130468333Y-91642889D01*
X130468333Y-91642889D02*
X130407856Y-91521937D01*
X130407856Y-91521937D02*
X130347380Y-91280032D01*
X130347380Y-91280032D02*
X130347380Y-91098603D01*
X130347380Y-91098603D02*
X130407856Y-90856699D01*
X130407856Y-90856699D02*
X130468333Y-90735746D01*
X130468333Y-90735746D02*
X130589285Y-90614794D01*
X130589285Y-90614794D02*
X130770714Y-90554318D01*
X130770714Y-90554318D02*
X130891666Y-90554318D01*
X130891666Y-90554318D02*
X131073095Y-90614794D01*
X131073095Y-90614794D02*
X131133571Y-90675270D01*
X131617380Y-90675270D02*
X131677856Y-90614794D01*
X131677856Y-90614794D02*
X131798809Y-90554318D01*
X131798809Y-90554318D02*
X132101190Y-90554318D01*
X132101190Y-90554318D02*
X132222142Y-90614794D01*
X132222142Y-90614794D02*
X132282618Y-90675270D01*
X132282618Y-90675270D02*
X132343095Y-90796222D01*
X132343095Y-90796222D02*
X132343095Y-90917175D01*
X132343095Y-90917175D02*
X132282618Y-91098603D01*
X132282618Y-91098603D02*
X131556904Y-91824318D01*
X131556904Y-91824318D02*
X132343095Y-91824318D01*
X133129285Y-90554318D02*
X133250238Y-90554318D01*
X133250238Y-90554318D02*
X133371190Y-90614794D01*
X133371190Y-90614794D02*
X133431666Y-90675270D01*
X133431666Y-90675270D02*
X133492142Y-90796222D01*
X133492142Y-90796222D02*
X133552619Y-91038127D01*
X133552619Y-91038127D02*
X133552619Y-91340508D01*
X133552619Y-91340508D02*
X133492142Y-91582413D01*
X133492142Y-91582413D02*
X133431666Y-91703365D01*
X133431666Y-91703365D02*
X133371190Y-91763842D01*
X133371190Y-91763842D02*
X133250238Y-91824318D01*
X133250238Y-91824318D02*
X133129285Y-91824318D01*
X133129285Y-91824318D02*
X133008333Y-91763842D01*
X133008333Y-91763842D02*
X132947857Y-91703365D01*
X132947857Y-91703365D02*
X132887380Y-91582413D01*
X132887380Y-91582413D02*
X132826904Y-91340508D01*
X132826904Y-91340508D02*
X132826904Y-91038127D01*
X132826904Y-91038127D02*
X132887380Y-90796222D01*
X132887380Y-90796222D02*
X132947857Y-90675270D01*
X132947857Y-90675270D02*
X133008333Y-90614794D01*
X133008333Y-90614794D02*
X133129285Y-90554318D01*
X143074318Y-84461666D02*
X143074318Y-85066428D01*
X143074318Y-85066428D02*
X141804318Y-85066428D01*
X143074318Y-83373094D02*
X143074318Y-84098809D01*
X143074318Y-83735952D02*
X141804318Y-83735952D01*
X141804318Y-83735952D02*
X141985746Y-83856904D01*
X141985746Y-83856904D02*
X142106699Y-83977856D01*
X142106699Y-83977856D02*
X142167175Y-84098809D01*
X133562618Y-75574318D02*
X133562618Y-74304318D01*
X133562618Y-74304318D02*
X133864999Y-74304318D01*
X133864999Y-74304318D02*
X134046428Y-74364794D01*
X134046428Y-74364794D02*
X134167380Y-74485746D01*
X134167380Y-74485746D02*
X134227857Y-74606699D01*
X134227857Y-74606699D02*
X134288333Y-74848603D01*
X134288333Y-74848603D02*
X134288333Y-75030032D01*
X134288333Y-75030032D02*
X134227857Y-75271937D01*
X134227857Y-75271937D02*
X134167380Y-75392889D01*
X134167380Y-75392889D02*
X134046428Y-75513842D01*
X134046428Y-75513842D02*
X133864999Y-75574318D01*
X133864999Y-75574318D02*
X133562618Y-75574318D01*
X134772142Y-74425270D02*
X134832618Y-74364794D01*
X134832618Y-74364794D02*
X134953571Y-74304318D01*
X134953571Y-74304318D02*
X135255952Y-74304318D01*
X135255952Y-74304318D02*
X135376904Y-74364794D01*
X135376904Y-74364794D02*
X135437380Y-74425270D01*
X135437380Y-74425270D02*
X135497857Y-74546222D01*
X135497857Y-74546222D02*
X135497857Y-74667175D01*
X135497857Y-74667175D02*
X135437380Y-74848603D01*
X135437380Y-74848603D02*
X134711666Y-75574318D01*
X134711666Y-75574318D02*
X135497857Y-75574318D01*
D11*
X192738095Y-58804819D02*
X192738095Y-57804819D01*
X192738095Y-58281009D02*
X193309523Y-58281009D01*
X193309523Y-58804819D02*
X193309523Y-57804819D01*
X193690476Y-57804819D02*
X194309523Y-57804819D01*
X194309523Y-57804819D02*
X193976190Y-58185771D01*
X193976190Y-58185771D02*
X194119047Y-58185771D01*
X194119047Y-58185771D02*
X194214285Y-58233390D01*
X194214285Y-58233390D02*
X194261904Y-58281009D01*
X194261904Y-58281009D02*
X194309523Y-58376247D01*
X194309523Y-58376247D02*
X194309523Y-58614342D01*
X194309523Y-58614342D02*
X194261904Y-58709580D01*
X194261904Y-58709580D02*
X194214285Y-58757200D01*
X194214285Y-58757200D02*
X194119047Y-58804819D01*
X194119047Y-58804819D02*
X193833333Y-58804819D01*
X193833333Y-58804819D02*
X193738095Y-58757200D01*
X193738095Y-58757200D02*
X193690476Y-58709580D01*
D10*
X131183571Y-90203365D02*
X131123095Y-90263842D01*
X131123095Y-90263842D02*
X130941666Y-90324318D01*
X130941666Y-90324318D02*
X130820714Y-90324318D01*
X130820714Y-90324318D02*
X130639285Y-90263842D01*
X130639285Y-90263842D02*
X130518333Y-90142889D01*
X130518333Y-90142889D02*
X130457856Y-90021937D01*
X130457856Y-90021937D02*
X130397380Y-89780032D01*
X130397380Y-89780032D02*
X130397380Y-89598603D01*
X130397380Y-89598603D02*
X130457856Y-89356699D01*
X130457856Y-89356699D02*
X130518333Y-89235746D01*
X130518333Y-89235746D02*
X130639285Y-89114794D01*
X130639285Y-89114794D02*
X130820714Y-89054318D01*
X130820714Y-89054318D02*
X130941666Y-89054318D01*
X130941666Y-89054318D02*
X131123095Y-89114794D01*
X131123095Y-89114794D02*
X131183571Y-89175270D01*
X132393095Y-90324318D02*
X131667380Y-90324318D01*
X132030237Y-90324318D02*
X132030237Y-89054318D01*
X132030237Y-89054318D02*
X131909285Y-89235746D01*
X131909285Y-89235746D02*
X131788333Y-89356699D01*
X131788333Y-89356699D02*
X131667380Y-89417175D01*
X132816428Y-89054318D02*
X133663095Y-89054318D01*
X133663095Y-89054318D02*
X133118809Y-90324318D01*
X171306666Y-115513842D02*
X171488095Y-115574318D01*
X171488095Y-115574318D02*
X171790476Y-115574318D01*
X171790476Y-115574318D02*
X171911428Y-115513842D01*
X171911428Y-115513842D02*
X171971904Y-115453365D01*
X171971904Y-115453365D02*
X172032381Y-115332413D01*
X172032381Y-115332413D02*
X172032381Y-115211461D01*
X172032381Y-115211461D02*
X171971904Y-115090508D01*
X171971904Y-115090508D02*
X171911428Y-115030032D01*
X171911428Y-115030032D02*
X171790476Y-114969556D01*
X171790476Y-114969556D02*
X171548571Y-114909080D01*
X171548571Y-114909080D02*
X171427619Y-114848603D01*
X171427619Y-114848603D02*
X171367142Y-114788127D01*
X171367142Y-114788127D02*
X171306666Y-114667175D01*
X171306666Y-114667175D02*
X171306666Y-114546222D01*
X171306666Y-114546222D02*
X171367142Y-114425270D01*
X171367142Y-114425270D02*
X171427619Y-114364794D01*
X171427619Y-114364794D02*
X171548571Y-114304318D01*
X171548571Y-114304318D02*
X171850952Y-114304318D01*
X171850952Y-114304318D02*
X172032381Y-114364794D01*
X172455714Y-114304318D02*
X172758095Y-115574318D01*
X172758095Y-115574318D02*
X173000000Y-114667175D01*
X173000000Y-114667175D02*
X173241905Y-115574318D01*
X173241905Y-115574318D02*
X173544286Y-114304318D01*
X174572381Y-114727651D02*
X174572381Y-115574318D01*
X174270000Y-114243842D02*
X173967619Y-115150984D01*
X173967619Y-115150984D02*
X174753810Y-115150984D01*
X131133571Y-96203365D02*
X131073095Y-96263842D01*
X131073095Y-96263842D02*
X130891666Y-96324318D01*
X130891666Y-96324318D02*
X130770714Y-96324318D01*
X130770714Y-96324318D02*
X130589285Y-96263842D01*
X130589285Y-96263842D02*
X130468333Y-96142889D01*
X130468333Y-96142889D02*
X130407856Y-96021937D01*
X130407856Y-96021937D02*
X130347380Y-95780032D01*
X130347380Y-95780032D02*
X130347380Y-95598603D01*
X130347380Y-95598603D02*
X130407856Y-95356699D01*
X130407856Y-95356699D02*
X130468333Y-95235746D01*
X130468333Y-95235746D02*
X130589285Y-95114794D01*
X130589285Y-95114794D02*
X130770714Y-95054318D01*
X130770714Y-95054318D02*
X130891666Y-95054318D01*
X130891666Y-95054318D02*
X131073095Y-95114794D01*
X131073095Y-95114794D02*
X131133571Y-95175270D01*
X132343095Y-96324318D02*
X131617380Y-96324318D01*
X131980237Y-96324318D02*
X131980237Y-95054318D01*
X131980237Y-95054318D02*
X131859285Y-95235746D01*
X131859285Y-95235746D02*
X131738333Y-95356699D01*
X131738333Y-95356699D02*
X131617380Y-95417175D01*
X132766428Y-95054318D02*
X133552619Y-95054318D01*
X133552619Y-95054318D02*
X133129285Y-95538127D01*
X133129285Y-95538127D02*
X133310714Y-95538127D01*
X133310714Y-95538127D02*
X133431666Y-95598603D01*
X133431666Y-95598603D02*
X133492142Y-95659080D01*
X133492142Y-95659080D02*
X133552619Y-95780032D01*
X133552619Y-95780032D02*
X133552619Y-96082413D01*
X133552619Y-96082413D02*
X133492142Y-96203365D01*
X133492142Y-96203365D02*
X133431666Y-96263842D01*
X133431666Y-96263842D02*
X133310714Y-96324318D01*
X133310714Y-96324318D02*
X132947857Y-96324318D01*
X132947857Y-96324318D02*
X132826904Y-96263842D01*
X132826904Y-96263842D02*
X132766428Y-96203365D01*
X130983571Y-94703365D02*
X130923095Y-94763842D01*
X130923095Y-94763842D02*
X130741666Y-94824318D01*
X130741666Y-94824318D02*
X130620714Y-94824318D01*
X130620714Y-94824318D02*
X130439285Y-94763842D01*
X130439285Y-94763842D02*
X130318333Y-94642889D01*
X130318333Y-94642889D02*
X130257856Y-94521937D01*
X130257856Y-94521937D02*
X130197380Y-94280032D01*
X130197380Y-94280032D02*
X130197380Y-94098603D01*
X130197380Y-94098603D02*
X130257856Y-93856699D01*
X130257856Y-93856699D02*
X130318333Y-93735746D01*
X130318333Y-93735746D02*
X130439285Y-93614794D01*
X130439285Y-93614794D02*
X130620714Y-93554318D01*
X130620714Y-93554318D02*
X130741666Y-93554318D01*
X130741666Y-93554318D02*
X130923095Y-93614794D01*
X130923095Y-93614794D02*
X130983571Y-93675270D01*
X132193095Y-94824318D02*
X131467380Y-94824318D01*
X131830237Y-94824318D02*
X131830237Y-93554318D01*
X131830237Y-93554318D02*
X131709285Y-93735746D01*
X131709285Y-93735746D02*
X131588333Y-93856699D01*
X131588333Y-93856699D02*
X131467380Y-93917175D01*
X132797857Y-94824318D02*
X133039761Y-94824318D01*
X133039761Y-94824318D02*
X133160714Y-94763842D01*
X133160714Y-94763842D02*
X133221190Y-94703365D01*
X133221190Y-94703365D02*
X133342142Y-94521937D01*
X133342142Y-94521937D02*
X133402619Y-94280032D01*
X133402619Y-94280032D02*
X133402619Y-93796222D01*
X133402619Y-93796222D02*
X133342142Y-93675270D01*
X133342142Y-93675270D02*
X133281666Y-93614794D01*
X133281666Y-93614794D02*
X133160714Y-93554318D01*
X133160714Y-93554318D02*
X132918809Y-93554318D01*
X132918809Y-93554318D02*
X132797857Y-93614794D01*
X132797857Y-93614794D02*
X132737380Y-93675270D01*
X132737380Y-93675270D02*
X132676904Y-93796222D01*
X132676904Y-93796222D02*
X132676904Y-94098603D01*
X132676904Y-94098603D02*
X132737380Y-94219556D01*
X132737380Y-94219556D02*
X132797857Y-94280032D01*
X132797857Y-94280032D02*
X132918809Y-94340508D01*
X132918809Y-94340508D02*
X133160714Y-94340508D01*
X133160714Y-94340508D02*
X133281666Y-94280032D01*
X133281666Y-94280032D02*
X133342142Y-94219556D01*
X133342142Y-94219556D02*
X133402619Y-94098603D01*
X131433571Y-80324318D02*
X131010237Y-79719556D01*
X130707856Y-80324318D02*
X130707856Y-79054318D01*
X130707856Y-79054318D02*
X131191666Y-79054318D01*
X131191666Y-79054318D02*
X131312618Y-79114794D01*
X131312618Y-79114794D02*
X131373095Y-79175270D01*
X131373095Y-79175270D02*
X131433571Y-79296222D01*
X131433571Y-79296222D02*
X131433571Y-79477651D01*
X131433571Y-79477651D02*
X131373095Y-79598603D01*
X131373095Y-79598603D02*
X131312618Y-79659080D01*
X131312618Y-79659080D02*
X131191666Y-79719556D01*
X131191666Y-79719556D02*
X130707856Y-79719556D01*
X132643095Y-80324318D02*
X131917380Y-80324318D01*
X132280237Y-80324318D02*
X132280237Y-79054318D01*
X132280237Y-79054318D02*
X132159285Y-79235746D01*
X132159285Y-79235746D02*
X132038333Y-79356699D01*
X132038333Y-79356699D02*
X131917380Y-79417175D01*
X133126904Y-79175270D02*
X133187380Y-79114794D01*
X133187380Y-79114794D02*
X133308333Y-79054318D01*
X133308333Y-79054318D02*
X133610714Y-79054318D01*
X133610714Y-79054318D02*
X133731666Y-79114794D01*
X133731666Y-79114794D02*
X133792142Y-79175270D01*
X133792142Y-79175270D02*
X133852619Y-79296222D01*
X133852619Y-79296222D02*
X133852619Y-79417175D01*
X133852619Y-79417175D02*
X133792142Y-79598603D01*
X133792142Y-79598603D02*
X133066428Y-80324318D01*
X133066428Y-80324318D02*
X133852619Y-80324318D01*
X151574318Y-94711666D02*
X150969556Y-95135000D01*
X151574318Y-95437381D02*
X150304318Y-95437381D01*
X150304318Y-95437381D02*
X150304318Y-94953571D01*
X150304318Y-94953571D02*
X150364794Y-94832619D01*
X150364794Y-94832619D02*
X150425270Y-94772142D01*
X150425270Y-94772142D02*
X150546222Y-94711666D01*
X150546222Y-94711666D02*
X150727651Y-94711666D01*
X150727651Y-94711666D02*
X150848603Y-94772142D01*
X150848603Y-94772142D02*
X150909080Y-94832619D01*
X150909080Y-94832619D02*
X150969556Y-94953571D01*
X150969556Y-94953571D02*
X150969556Y-95437381D01*
X150304318Y-93623095D02*
X150304318Y-93865000D01*
X150304318Y-93865000D02*
X150364794Y-93985952D01*
X150364794Y-93985952D02*
X150425270Y-94046428D01*
X150425270Y-94046428D02*
X150606699Y-94167381D01*
X150606699Y-94167381D02*
X150848603Y-94227857D01*
X150848603Y-94227857D02*
X151332413Y-94227857D01*
X151332413Y-94227857D02*
X151453365Y-94167381D01*
X151453365Y-94167381D02*
X151513842Y-94106904D01*
X151513842Y-94106904D02*
X151574318Y-93985952D01*
X151574318Y-93985952D02*
X151574318Y-93744047D01*
X151574318Y-93744047D02*
X151513842Y-93623095D01*
X151513842Y-93623095D02*
X151453365Y-93562619D01*
X151453365Y-93562619D02*
X151332413Y-93502142D01*
X151332413Y-93502142D02*
X151030032Y-93502142D01*
X151030032Y-93502142D02*
X150909080Y-93562619D01*
X150909080Y-93562619D02*
X150848603Y-93623095D01*
X150848603Y-93623095D02*
X150788127Y-93744047D01*
X150788127Y-93744047D02*
X150788127Y-93985952D01*
X150788127Y-93985952D02*
X150848603Y-94106904D01*
X150848603Y-94106904D02*
X150909080Y-94167381D01*
X150909080Y-94167381D02*
X151030032Y-94227857D01*
D11*
X192738095Y-138804819D02*
X192738095Y-137804819D01*
X192738095Y-138281009D02*
X193309523Y-138281009D01*
X193309523Y-138804819D02*
X193309523Y-137804819D01*
X194214285Y-138138152D02*
X194214285Y-138804819D01*
X193976190Y-137757200D02*
X193738095Y-138471485D01*
X193738095Y-138471485D02*
X194357142Y-138471485D01*
D10*
X153306666Y-115513842D02*
X153488095Y-115574318D01*
X153488095Y-115574318D02*
X153790476Y-115574318D01*
X153790476Y-115574318D02*
X153911428Y-115513842D01*
X153911428Y-115513842D02*
X153971904Y-115453365D01*
X153971904Y-115453365D02*
X154032381Y-115332413D01*
X154032381Y-115332413D02*
X154032381Y-115211461D01*
X154032381Y-115211461D02*
X153971904Y-115090508D01*
X153971904Y-115090508D02*
X153911428Y-115030032D01*
X153911428Y-115030032D02*
X153790476Y-114969556D01*
X153790476Y-114969556D02*
X153548571Y-114909080D01*
X153548571Y-114909080D02*
X153427619Y-114848603D01*
X153427619Y-114848603D02*
X153367142Y-114788127D01*
X153367142Y-114788127D02*
X153306666Y-114667175D01*
X153306666Y-114667175D02*
X153306666Y-114546222D01*
X153306666Y-114546222D02*
X153367142Y-114425270D01*
X153367142Y-114425270D02*
X153427619Y-114364794D01*
X153427619Y-114364794D02*
X153548571Y-114304318D01*
X153548571Y-114304318D02*
X153850952Y-114304318D01*
X153850952Y-114304318D02*
X154032381Y-114364794D01*
X154455714Y-114304318D02*
X154758095Y-115574318D01*
X154758095Y-115574318D02*
X155000000Y-114667175D01*
X155000000Y-114667175D02*
X155241905Y-115574318D01*
X155241905Y-115574318D02*
X155544286Y-114304318D01*
X156693334Y-115574318D02*
X155967619Y-115574318D01*
X156330476Y-115574318D02*
X156330476Y-114304318D01*
X156330476Y-114304318D02*
X156209524Y-114485746D01*
X156209524Y-114485746D02*
X156088572Y-114606699D01*
X156088572Y-114606699D02*
X155967619Y-114667175D01*
D11*
X116738095Y-58304819D02*
X116738095Y-57304819D01*
X116738095Y-57781009D02*
X117309523Y-57781009D01*
X117309523Y-58304819D02*
X117309523Y-57304819D01*
X118309523Y-58304819D02*
X117738095Y-58304819D01*
X118023809Y-58304819D02*
X118023809Y-57304819D01*
X118023809Y-57304819D02*
X117928571Y-57447676D01*
X117928571Y-57447676D02*
X117833333Y-57542914D01*
X117833333Y-57542914D02*
X117738095Y-57590533D01*
D10*
X131233571Y-88703365D02*
X131173095Y-88763842D01*
X131173095Y-88763842D02*
X130991666Y-88824318D01*
X130991666Y-88824318D02*
X130870714Y-88824318D01*
X130870714Y-88824318D02*
X130689285Y-88763842D01*
X130689285Y-88763842D02*
X130568333Y-88642889D01*
X130568333Y-88642889D02*
X130507856Y-88521937D01*
X130507856Y-88521937D02*
X130447380Y-88280032D01*
X130447380Y-88280032D02*
X130447380Y-88098603D01*
X130447380Y-88098603D02*
X130507856Y-87856699D01*
X130507856Y-87856699D02*
X130568333Y-87735746D01*
X130568333Y-87735746D02*
X130689285Y-87614794D01*
X130689285Y-87614794D02*
X130870714Y-87554318D01*
X130870714Y-87554318D02*
X130991666Y-87554318D01*
X130991666Y-87554318D02*
X131173095Y-87614794D01*
X131173095Y-87614794D02*
X131233571Y-87675270D01*
X132443095Y-88824318D02*
X131717380Y-88824318D01*
X132080237Y-88824318D02*
X132080237Y-87554318D01*
X132080237Y-87554318D02*
X131959285Y-87735746D01*
X131959285Y-87735746D02*
X131838333Y-87856699D01*
X131838333Y-87856699D02*
X131717380Y-87917175D01*
X133531666Y-87554318D02*
X133289761Y-87554318D01*
X133289761Y-87554318D02*
X133168809Y-87614794D01*
X133168809Y-87614794D02*
X133108333Y-87675270D01*
X133108333Y-87675270D02*
X132987380Y-87856699D01*
X132987380Y-87856699D02*
X132926904Y-88098603D01*
X132926904Y-88098603D02*
X132926904Y-88582413D01*
X132926904Y-88582413D02*
X132987380Y-88703365D01*
X132987380Y-88703365D02*
X133047857Y-88763842D01*
X133047857Y-88763842D02*
X133168809Y-88824318D01*
X133168809Y-88824318D02*
X133410714Y-88824318D01*
X133410714Y-88824318D02*
X133531666Y-88763842D01*
X133531666Y-88763842D02*
X133592142Y-88703365D01*
X133592142Y-88703365D02*
X133652619Y-88582413D01*
X133652619Y-88582413D02*
X133652619Y-88280032D01*
X133652619Y-88280032D02*
X133592142Y-88159080D01*
X133592142Y-88159080D02*
X133531666Y-88098603D01*
X133531666Y-88098603D02*
X133410714Y-88038127D01*
X133410714Y-88038127D02*
X133168809Y-88038127D01*
X133168809Y-88038127D02*
X133047857Y-88098603D01*
X133047857Y-88098603D02*
X132987380Y-88159080D01*
X132987380Y-88159080D02*
X132926904Y-88280032D01*
X135806666Y-115513842D02*
X135988095Y-115574318D01*
X135988095Y-115574318D02*
X136290476Y-115574318D01*
X136290476Y-115574318D02*
X136411428Y-115513842D01*
X136411428Y-115513842D02*
X136471904Y-115453365D01*
X136471904Y-115453365D02*
X136532381Y-115332413D01*
X136532381Y-115332413D02*
X136532381Y-115211461D01*
X136532381Y-115211461D02*
X136471904Y-115090508D01*
X136471904Y-115090508D02*
X136411428Y-115030032D01*
X136411428Y-115030032D02*
X136290476Y-114969556D01*
X136290476Y-114969556D02*
X136048571Y-114909080D01*
X136048571Y-114909080D02*
X135927619Y-114848603D01*
X135927619Y-114848603D02*
X135867142Y-114788127D01*
X135867142Y-114788127D02*
X135806666Y-114667175D01*
X135806666Y-114667175D02*
X135806666Y-114546222D01*
X135806666Y-114546222D02*
X135867142Y-114425270D01*
X135867142Y-114425270D02*
X135927619Y-114364794D01*
X135927619Y-114364794D02*
X136048571Y-114304318D01*
X136048571Y-114304318D02*
X136350952Y-114304318D01*
X136350952Y-114304318D02*
X136532381Y-114364794D01*
X136955714Y-114304318D02*
X137258095Y-115574318D01*
X137258095Y-115574318D02*
X137500000Y-114667175D01*
X137500000Y-114667175D02*
X137741905Y-115574318D01*
X137741905Y-115574318D02*
X138044286Y-114304318D01*
X138407143Y-114304318D02*
X139193334Y-114304318D01*
X139193334Y-114304318D02*
X138770000Y-114788127D01*
X138770000Y-114788127D02*
X138951429Y-114788127D01*
X138951429Y-114788127D02*
X139072381Y-114848603D01*
X139072381Y-114848603D02*
X139132857Y-114909080D01*
X139132857Y-114909080D02*
X139193334Y-115030032D01*
X139193334Y-115030032D02*
X139193334Y-115332413D01*
X139193334Y-115332413D02*
X139132857Y-115453365D01*
X139132857Y-115453365D02*
X139072381Y-115513842D01*
X139072381Y-115513842D02*
X138951429Y-115574318D01*
X138951429Y-115574318D02*
X138588572Y-115574318D01*
X138588572Y-115574318D02*
X138467619Y-115513842D01*
X138467619Y-115513842D02*
X138407143Y-115453365D01*
X131133571Y-93203365D02*
X131073095Y-93263842D01*
X131073095Y-93263842D02*
X130891666Y-93324318D01*
X130891666Y-93324318D02*
X130770714Y-93324318D01*
X130770714Y-93324318D02*
X130589285Y-93263842D01*
X130589285Y-93263842D02*
X130468333Y-93142889D01*
X130468333Y-93142889D02*
X130407856Y-93021937D01*
X130407856Y-93021937D02*
X130347380Y-92780032D01*
X130347380Y-92780032D02*
X130347380Y-92598603D01*
X130347380Y-92598603D02*
X130407856Y-92356699D01*
X130407856Y-92356699D02*
X130468333Y-92235746D01*
X130468333Y-92235746D02*
X130589285Y-92114794D01*
X130589285Y-92114794D02*
X130770714Y-92054318D01*
X130770714Y-92054318D02*
X130891666Y-92054318D01*
X130891666Y-92054318D02*
X131073095Y-92114794D01*
X131073095Y-92114794D02*
X131133571Y-92175270D01*
X132343095Y-93324318D02*
X131617380Y-93324318D01*
X131980237Y-93324318D02*
X131980237Y-92054318D01*
X131980237Y-92054318D02*
X131859285Y-92235746D01*
X131859285Y-92235746D02*
X131738333Y-92356699D01*
X131738333Y-92356699D02*
X131617380Y-92417175D01*
X132826904Y-92175270D02*
X132887380Y-92114794D01*
X132887380Y-92114794D02*
X133008333Y-92054318D01*
X133008333Y-92054318D02*
X133310714Y-92054318D01*
X133310714Y-92054318D02*
X133431666Y-92114794D01*
X133431666Y-92114794D02*
X133492142Y-92175270D01*
X133492142Y-92175270D02*
X133552619Y-92296222D01*
X133552619Y-92296222D02*
X133552619Y-92417175D01*
X133552619Y-92417175D02*
X133492142Y-92598603D01*
X133492142Y-92598603D02*
X132766428Y-93324318D01*
X132766428Y-93324318D02*
X133552619Y-93324318D01*
X143133571Y-77203365D02*
X143073095Y-77263842D01*
X143073095Y-77263842D02*
X142891666Y-77324318D01*
X142891666Y-77324318D02*
X142770714Y-77324318D01*
X142770714Y-77324318D02*
X142589285Y-77263842D01*
X142589285Y-77263842D02*
X142468333Y-77142889D01*
X142468333Y-77142889D02*
X142407856Y-77021937D01*
X142407856Y-77021937D02*
X142347380Y-76780032D01*
X142347380Y-76780032D02*
X142347380Y-76598603D01*
X142347380Y-76598603D02*
X142407856Y-76356699D01*
X142407856Y-76356699D02*
X142468333Y-76235746D01*
X142468333Y-76235746D02*
X142589285Y-76114794D01*
X142589285Y-76114794D02*
X142770714Y-76054318D01*
X142770714Y-76054318D02*
X142891666Y-76054318D01*
X142891666Y-76054318D02*
X143073095Y-76114794D01*
X143073095Y-76114794D02*
X143133571Y-76175270D01*
X144343095Y-77324318D02*
X143617380Y-77324318D01*
X143980237Y-77324318D02*
X143980237Y-76054318D01*
X143980237Y-76054318D02*
X143859285Y-76235746D01*
X143859285Y-76235746D02*
X143738333Y-76356699D01*
X143738333Y-76356699D02*
X143617380Y-76417175D01*
X145068809Y-76598603D02*
X144947857Y-76538127D01*
X144947857Y-76538127D02*
X144887380Y-76477651D01*
X144887380Y-76477651D02*
X144826904Y-76356699D01*
X144826904Y-76356699D02*
X144826904Y-76296222D01*
X144826904Y-76296222D02*
X144887380Y-76175270D01*
X144887380Y-76175270D02*
X144947857Y-76114794D01*
X144947857Y-76114794D02*
X145068809Y-76054318D01*
X145068809Y-76054318D02*
X145310714Y-76054318D01*
X145310714Y-76054318D02*
X145431666Y-76114794D01*
X145431666Y-76114794D02*
X145492142Y-76175270D01*
X145492142Y-76175270D02*
X145552619Y-76296222D01*
X145552619Y-76296222D02*
X145552619Y-76356699D01*
X145552619Y-76356699D02*
X145492142Y-76477651D01*
X145492142Y-76477651D02*
X145431666Y-76538127D01*
X145431666Y-76538127D02*
X145310714Y-76598603D01*
X145310714Y-76598603D02*
X145068809Y-76598603D01*
X145068809Y-76598603D02*
X144947857Y-76659080D01*
X144947857Y-76659080D02*
X144887380Y-76719556D01*
X144887380Y-76719556D02*
X144826904Y-76840508D01*
X144826904Y-76840508D02*
X144826904Y-77082413D01*
X144826904Y-77082413D02*
X144887380Y-77203365D01*
X144887380Y-77203365D02*
X144947857Y-77263842D01*
X144947857Y-77263842D02*
X145068809Y-77324318D01*
X145068809Y-77324318D02*
X145310714Y-77324318D01*
X145310714Y-77324318D02*
X145431666Y-77263842D01*
X145431666Y-77263842D02*
X145492142Y-77203365D01*
X145492142Y-77203365D02*
X145552619Y-77082413D01*
X145552619Y-77082413D02*
X145552619Y-76840508D01*
X145552619Y-76840508D02*
X145492142Y-76719556D01*
X145492142Y-76719556D02*
X145431666Y-76659080D01*
X145431666Y-76659080D02*
X145310714Y-76598603D01*
X149074318Y-76937381D02*
X147804318Y-76937381D01*
X147804318Y-76937381D02*
X147804318Y-76635000D01*
X147804318Y-76635000D02*
X147864794Y-76453571D01*
X147864794Y-76453571D02*
X147985746Y-76332619D01*
X147985746Y-76332619D02*
X148106699Y-76272142D01*
X148106699Y-76272142D02*
X148348603Y-76211666D01*
X148348603Y-76211666D02*
X148530032Y-76211666D01*
X148530032Y-76211666D02*
X148771937Y-76272142D01*
X148771937Y-76272142D02*
X148892889Y-76332619D01*
X148892889Y-76332619D02*
X149013842Y-76453571D01*
X149013842Y-76453571D02*
X149074318Y-76635000D01*
X149074318Y-76635000D02*
X149074318Y-76937381D01*
X147804318Y-75788333D02*
X147804318Y-75002142D01*
X147804318Y-75002142D02*
X148288127Y-75425476D01*
X148288127Y-75425476D02*
X148288127Y-75244047D01*
X148288127Y-75244047D02*
X148348603Y-75123095D01*
X148348603Y-75123095D02*
X148409080Y-75062619D01*
X148409080Y-75062619D02*
X148530032Y-75002142D01*
X148530032Y-75002142D02*
X148832413Y-75002142D01*
X148832413Y-75002142D02*
X148953365Y-75062619D01*
X148953365Y-75062619D02*
X149013842Y-75123095D01*
X149013842Y-75123095D02*
X149074318Y-75244047D01*
X149074318Y-75244047D02*
X149074318Y-75606904D01*
X149074318Y-75606904D02*
X149013842Y-75727857D01*
X149013842Y-75727857D02*
X148953365Y-75788333D01*
X176588333Y-110574318D02*
X176164999Y-109969556D01*
X175862618Y-110574318D02*
X175862618Y-109304318D01*
X175862618Y-109304318D02*
X176346428Y-109304318D01*
X176346428Y-109304318D02*
X176467380Y-109364794D01*
X176467380Y-109364794D02*
X176527857Y-109425270D01*
X176527857Y-109425270D02*
X176588333Y-109546222D01*
X176588333Y-109546222D02*
X176588333Y-109727651D01*
X176588333Y-109727651D02*
X176527857Y-109848603D01*
X176527857Y-109848603D02*
X176467380Y-109909080D01*
X176467380Y-109909080D02*
X176346428Y-109969556D01*
X176346428Y-109969556D02*
X175862618Y-109969556D01*
X177314047Y-109848603D02*
X177193095Y-109788127D01*
X177193095Y-109788127D02*
X177132618Y-109727651D01*
X177132618Y-109727651D02*
X177072142Y-109606699D01*
X177072142Y-109606699D02*
X177072142Y-109546222D01*
X177072142Y-109546222D02*
X177132618Y-109425270D01*
X177132618Y-109425270D02*
X177193095Y-109364794D01*
X177193095Y-109364794D02*
X177314047Y-109304318D01*
X177314047Y-109304318D02*
X177555952Y-109304318D01*
X177555952Y-109304318D02*
X177676904Y-109364794D01*
X177676904Y-109364794D02*
X177737380Y-109425270D01*
X177737380Y-109425270D02*
X177797857Y-109546222D01*
X177797857Y-109546222D02*
X177797857Y-109606699D01*
X177797857Y-109606699D02*
X177737380Y-109727651D01*
X177737380Y-109727651D02*
X177676904Y-109788127D01*
X177676904Y-109788127D02*
X177555952Y-109848603D01*
X177555952Y-109848603D02*
X177314047Y-109848603D01*
X177314047Y-109848603D02*
X177193095Y-109909080D01*
X177193095Y-109909080D02*
X177132618Y-109969556D01*
X177132618Y-109969556D02*
X177072142Y-110090508D01*
X177072142Y-110090508D02*
X177072142Y-110332413D01*
X177072142Y-110332413D02*
X177132618Y-110453365D01*
X177132618Y-110453365D02*
X177193095Y-110513842D01*
X177193095Y-110513842D02*
X177314047Y-110574318D01*
X177314047Y-110574318D02*
X177555952Y-110574318D01*
X177555952Y-110574318D02*
X177676904Y-110513842D01*
X177676904Y-110513842D02*
X177737380Y-110453365D01*
X177737380Y-110453365D02*
X177797857Y-110332413D01*
X177797857Y-110332413D02*
X177797857Y-110090508D01*
X177797857Y-110090508D02*
X177737380Y-109969556D01*
X177737380Y-109969556D02*
X177676904Y-109909080D01*
X177676904Y-109909080D02*
X177555952Y-109848603D01*
D11*
X116238095Y-139304819D02*
X116238095Y-138304819D01*
X116238095Y-138781009D02*
X116809523Y-138781009D01*
X116809523Y-139304819D02*
X116809523Y-138304819D01*
X117238095Y-138400057D02*
X117285714Y-138352438D01*
X117285714Y-138352438D02*
X117380952Y-138304819D01*
X117380952Y-138304819D02*
X117619047Y-138304819D01*
X117619047Y-138304819D02*
X117714285Y-138352438D01*
X117714285Y-138352438D02*
X117761904Y-138400057D01*
X117761904Y-138400057D02*
X117809523Y-138495295D01*
X117809523Y-138495295D02*
X117809523Y-138590533D01*
X117809523Y-138590533D02*
X117761904Y-138733390D01*
X117761904Y-138733390D02*
X117190476Y-139304819D01*
X117190476Y-139304819D02*
X117809523Y-139304819D01*
D12*
%TO.C,D4*%
X145345000Y-73450000D02*
X142655000Y-73450000D01*
X146325000Y-75050000D02*
X142655000Y-75050000D01*
%TO.C,Q1*%
X138800000Y-76525000D02*
X139800000Y-76525000D01*
X140150000Y-76750000D02*
X140350000Y-76750000D01*
X140150000Y-78750000D02*
X140150000Y-76750000D01*
X140350000Y-76750000D02*
X140350000Y-78750000D01*
X140350000Y-78750000D02*
X140150000Y-78750000D01*
%TO.C,J1*%
X138100000Y-123658000D02*
X138100000Y-129500000D01*
X143180000Y-132802000D02*
X171120000Y-132802000D01*
X171120000Y-123658000D02*
X138100000Y-123658000D01*
X171120000Y-132802000D02*
X171120000Y-123658000D01*
%TO.C,J2*%
X121750000Y-76850000D02*
X121750000Y-93150000D01*
X121750000Y-93150000D02*
X124050000Y-93150000D01*
X124050000Y-76850000D02*
X121750000Y-76850000D01*
X127750000Y-76850000D02*
X126600000Y-76850000D01*
X127750000Y-78750000D02*
X127750000Y-76850000D01*
X127750000Y-91250000D02*
X127750000Y-93150000D01*
X127750000Y-93150000D02*
X126600000Y-93150000D01*
X127250000Y-78650000D02*
G75*
G02*
X127050000Y-78650000I-100000J0D01*
G01*
X127050000Y-78650000D02*
G75*
G02*
X127250000Y-78650000I100000J0D01*
G01*
D13*
%TO.C,RV1*%
X124700000Y-121625000D02*
X136800000Y-121625000D01*
X124700000Y-125075000D02*
X124700000Y-121625000D01*
X124700000Y-132975000D02*
X124700000Y-127875000D01*
X127000000Y-132975000D02*
X124700000Y-132975000D01*
X136800000Y-121625000D02*
X136800000Y-125075000D01*
X136800000Y-127875000D02*
X136800000Y-132975000D01*
X136800000Y-132975000D02*
X134500000Y-132975000D01*
D12*
X126550000Y-133975000D02*
G75*
G02*
X126350000Y-133975000I-100000J0D01*
G01*
X126350000Y-133975000D02*
G75*
G02*
X126550000Y-133975000I100000J0D01*
G01*
D13*
%TO.C,RV2*%
X173200000Y-121650000D02*
X185300000Y-121650000D01*
X173200000Y-125100000D02*
X173200000Y-121650000D01*
X173200000Y-133000000D02*
X173200000Y-127900000D01*
X175500000Y-133000000D02*
X173200000Y-133000000D01*
X185300000Y-121650000D02*
X185300000Y-125100000D01*
X185300000Y-127900000D02*
X185300000Y-133000000D01*
X185300000Y-133000000D02*
X183000000Y-133000000D01*
D12*
X175050000Y-134000000D02*
G75*
G02*
X174850000Y-134000000I-100000J0D01*
G01*
X174850000Y-134000000D02*
G75*
G02*
X175050000Y-134000000I100000J0D01*
G01*
%TO.C,L1*%
X142800000Y-84250000D02*
X142200000Y-84250000D01*
%TO.C,D2*%
X132175000Y-74200000D02*
X135845000Y-74200000D01*
X133155000Y-75800000D02*
X135845000Y-75800000D01*
D14*
%TO.C,SW4*%
X166900000Y-117250000D02*
X166900000Y-117250000D01*
X167000000Y-117250000D02*
X167000000Y-117250000D01*
D12*
X170000000Y-112000000D02*
X170000000Y-118000000D01*
X170000000Y-118000000D02*
X176000000Y-118000000D01*
X176000000Y-112000000D02*
X170000000Y-112000000D01*
X176000000Y-118000000D02*
X176000000Y-112000000D01*
D14*
X166900000Y-117250000D02*
G75*
G02*
X167000000Y-117250000I50000J0D01*
G01*
X167000000Y-117250000D02*
G75*
G02*
X166900000Y-117250000I-50000J0D01*
G01*
D12*
%TO.C,R12*%
X132250000Y-79450000D02*
X132250000Y-80050000D01*
%TO.C,R6*%
X150700000Y-94500000D02*
X151300000Y-94500000D01*
D14*
%TO.C,SW1*%
X148900000Y-117250000D02*
X148900000Y-117250000D01*
X149000000Y-117250000D02*
X149000000Y-117250000D01*
D12*
X152000000Y-112000000D02*
X152000000Y-118000000D01*
X152000000Y-118000000D02*
X158000000Y-118000000D01*
X158000000Y-112000000D02*
X152000000Y-112000000D01*
X158000000Y-118000000D02*
X158000000Y-112000000D01*
D14*
X148900000Y-117250000D02*
G75*
G02*
X149000000Y-117250000I50000J0D01*
G01*
X149000000Y-117250000D02*
G75*
G02*
X148900000Y-117250000I-50000J0D01*
G01*
%TO.C,SW3*%
X131400000Y-117250000D02*
X131400000Y-117250000D01*
X131500000Y-117250000D02*
X131500000Y-117250000D01*
D12*
X134500000Y-112000000D02*
X134500000Y-118000000D01*
X134500000Y-118000000D02*
X140500000Y-118000000D01*
X140500000Y-112000000D02*
X134500000Y-112000000D01*
X140500000Y-118000000D02*
X140500000Y-112000000D01*
D14*
X131400000Y-117250000D02*
G75*
G02*
X131500000Y-117250000I50000J0D01*
G01*
X131500000Y-117250000D02*
G75*
G02*
X131400000Y-117250000I-50000J0D01*
G01*
D12*
%TO.C,D3*%
X147700000Y-78325000D02*
X147700000Y-74655000D01*
X149300000Y-77345000D02*
X149300000Y-74655000D01*
%TO.C,R8*%
X176800000Y-110300000D02*
X176800000Y-109700000D01*
%TD*%
M02*
