%TF.GenerationSoftware,KiCad,Pcbnew,9.0.6-1.fc43*%
%TF.CreationDate,2025-12-20T07:51:11-05:00*%
%TF.ProjectId,electrical,656c6563-7472-4696-9361-6c2e6b696361,rev?*%
%TF.SameCoordinates,Original*%
%TF.FileFunction,Copper,L3,Inr*%
%TF.FilePolarity,Positive*%
%FSLAX46Y46*%
G04 Gerber Fmt 4.6, Leading zero omitted, Abs format (unit mm)*
G04 Created by KiCad (PCBNEW 9.0.6-1.fc43) date 2025-12-20 07:51:11*
%MOMM*%
%LPD*%
G01*
G04 APERTURE LIST*
%TA.AperFunction,ComponentPad*%
%ADD10R,1.725000X1.725000*%
%TD*%
%TA.AperFunction,ComponentPad*%
%ADD11C,1.725000*%
%TD*%
%TA.AperFunction,ComponentPad*%
%ADD12R,1.800000X1.800000*%
%TD*%
%TA.AperFunction,ComponentPad*%
%ADD13C,1.800000*%
%TD*%
%TA.AperFunction,ComponentPad*%
%ADD14O,4.200000X2.100000*%
%TD*%
%TA.AperFunction,ComponentPad*%
%ADD15C,1.381000*%
%TD*%
%TA.AperFunction,ComponentPad*%
%ADD16R,1.950000X1.950000*%
%TD*%
%TA.AperFunction,ComponentPad*%
%ADD17C,1.950000*%
%TD*%
%TA.AperFunction,ViaPad*%
%ADD18C,0.600000*%
%TD*%
G04 APERTURE END LIST*
D10*
%TO.N,+3V0*%
%TO.C,J1*%
X143180000Y-129500000D03*
D11*
X143180000Y-126960000D03*
%TO.N,/Processor/TRST*%
X145720000Y-129500000D03*
%TO.N,GND*%
X145720000Y-126960000D03*
%TO.N,/Processor/TDI*%
X148260000Y-129500000D03*
%TO.N,GND*%
X148260000Y-126960000D03*
%TO.N,/Processor/TMS{slash}SWDAT*%
X150800000Y-129500000D03*
%TO.N,GND*%
X150800000Y-126960000D03*
%TO.N,/Processor/TCK{slash}SWCLK*%
X153340000Y-129500000D03*
%TO.N,GND*%
X153340000Y-126960000D03*
%TO.N,Net-(J1-Pad11)*%
X155880000Y-129500000D03*
%TO.N,GND*%
X155880000Y-126960000D03*
%TO.N,/Processor/TDO*%
X158420000Y-129500000D03*
%TO.N,GND*%
X158420000Y-126960000D03*
%TO.N,/Processor/NRST*%
X160960000Y-129500000D03*
%TO.N,GND*%
X160960000Y-126960000D03*
%TO.N,Net-(J1-Pad17)*%
X163500000Y-129500000D03*
%TO.N,GND*%
X163500000Y-126960000D03*
%TO.N,Net-(J1-Pad19)*%
X166040000Y-129500000D03*
%TO.N,GND*%
X166040000Y-126960000D03*
%TD*%
D12*
%TO.N,/Processor/POT_1*%
%TO.C,RV1*%
X128250000Y-133975000D03*
D13*
%TO.N,GND*%
X130750000Y-133975000D03*
%TO.N,+3V0*%
X133250000Y-133975000D03*
D14*
%TO.N,N/C*%
X126000000Y-126475000D03*
X135500000Y-126475000D03*
%TD*%
D12*
%TO.N,/Processor/POT_2*%
%TO.C,RV2*%
X176750000Y-134000000D03*
D13*
%TO.N,GND*%
X179250000Y-134000000D03*
%TO.N,+3V0*%
X181750000Y-134000000D03*
D14*
%TO.N,N/C*%
X174500000Y-126500000D03*
X184000000Y-126500000D03*
%TD*%
D15*
%TO.N,N/C*%
%TO.C,SW2*%
X168800000Y-105500000D03*
X168800000Y-108500000D03*
%TD*%
D16*
%TO.N,+3V0*%
%TO.C,IC2*%
X141520000Y-65530000D03*
D17*
%TO.N,unconnected-(IC2-3V0-Pad2)*%
X144020000Y-65530000D03*
%TO.N,GND*%
X146520000Y-65530000D03*
%TO.N,/Processor/WIFI_SCK*%
X149020000Y-65530000D03*
%TO.N,/Processor/WIFI_MISO*%
X151520000Y-65530000D03*
%TO.N,/Processor/WIFI_MOSI*%
X154020000Y-65530000D03*
%TO.N,/Processor/WIFI_CS*%
X156520000Y-65530000D03*
%TO.N,/Processor/WIFI_BUSY*%
X159020000Y-65530000D03*
%TO.N,/Processor/WIFI_RESET*%
X161520000Y-65530000D03*
%TO.N,unconnected-(IC2-GPIO_0-Pad10)*%
X164020000Y-65530000D03*
%TO.N,unconnected-(IC2-UART_RX-Pad11)*%
X166520000Y-65530000D03*
%TO.N,unconnected-(IC2-UART_TX-Pad12)*%
X169020000Y-65530000D03*
%TD*%
D18*
%TO.N,GND*%
X182750000Y-101750000D03*
X166250000Y-134500000D03*
X133750000Y-91250000D03*
X142000000Y-119000000D03*
X139250000Y-103250000D03*
X133750000Y-88250000D03*
X159500000Y-119000000D03*
X177500000Y-119350000D03*
X168500000Y-119500000D03*
X145500000Y-116750000D03*
X163250000Y-134500000D03*
X148500000Y-79000000D03*
X149250000Y-115500000D03*
X185500000Y-121750000D03*
X126500000Y-86750000D03*
X155750000Y-134500000D03*
X173500000Y-64500000D03*
X164750000Y-109750000D03*
X183000000Y-120500000D03*
X129500000Y-82250000D03*
X182750000Y-121500000D03*
X133500000Y-94250000D03*
X132750000Y-119000000D03*
X134500000Y-81250000D03*
X137750000Y-82750000D03*
X150250000Y-119000000D03*
X149000000Y-99000000D03*
%TO.N,+3V0*%
X147000000Y-116750000D03*
X138750000Y-108000000D03*
X178250000Y-120750000D03*
X144750000Y-117500000D03*
X151000000Y-91500000D03*
X183500000Y-114750000D03*
X187250000Y-119250000D03*
X151250000Y-102750000D03*
X150750000Y-99000000D03*
X140250000Y-115500000D03*
X140500000Y-101500000D03*
X183000000Y-68250000D03*
X137750000Y-84250000D03*
X144000000Y-85000000D03*
X174500000Y-110000000D03*
X180750000Y-114500000D03*
X131500000Y-85750000D03*
X184250000Y-120500000D03*
X181000000Y-65750000D03*
X164500000Y-103750000D03*
%TO.N,/Processor/NRST*%
X161375000Y-114375000D03*
%TO.N,/Screen/1V8*%
X126500000Y-87750000D03*
%TO.N,/Accelerometer/ADXL_SCL*%
X146000000Y-105000000D03*
%TO.N,/Processor/EINK_CS*%
X146092185Y-98440715D03*
%TO.N,/Processor/EINK_D_C*%
X146318500Y-96667027D03*
%TO.N,/Processor/TCK{slash}SWCLK*%
X142543761Y-97934358D03*
%TO.N,/Processor/TMS{slash}SWDAT*%
X142100000Y-98600000D03*
%TO.N,/Processor/WIFI_CS*%
X152250000Y-108500000D03*
%TO.N,/Processor/WIFI_SCK*%
X153050003Y-108500000D03*
%TO.N,/Processor/BUTTON_2*%
X156000000Y-105000000D03*
%TO.N,/Processor/EINK_RST*%
X146500000Y-106500000D03*
%TO.N,/Processor/BUTTON_1*%
X133250000Y-110500000D03*
%TO.N,/Processor/WIFI_BUSY*%
X156250015Y-108500000D03*
%TO.N,/Processor/TRST*%
X144000000Y-98000000D03*
%TO.N,/Accelerometer/ADXL_SDO*%
X184693800Y-107193800D03*
X178250000Y-103500000D03*
%TO.N,/Processor/WIFI_MOSI*%
X154650009Y-108500000D03*
%TO.N,/Processor/TDO*%
X144000000Y-99000000D03*
%TO.N,/Processor/WIFI_RESET*%
X155450012Y-108500000D03*
%TO.N,/Accelerometer/ADXL_SDI*%
X138000000Y-99000000D03*
%TO.N,/Processor/EINK_BUSY*%
X145515627Y-94600000D03*
%TO.N,/Processor/WIFI_MISO*%
X153850006Y-108500000D03*
%TO.N,/Processor/TDI*%
X144000000Y-100000000D03*
%TD*%
%TA.AperFunction,Conductor*%
%TO.N,GND*%
G36*
X147724185Y-127181942D02*
G01*
X147799885Y-127313058D01*
X147906942Y-127420115D01*
X148038058Y-127495815D01*
X148069352Y-127504200D01*
X147489332Y-128084219D01*
X147549836Y-128128178D01*
X147548797Y-128129607D01*
X147590576Y-128175762D01*
X147602015Y-128244689D01*
X147574374Y-128308858D01*
X147549112Y-128330758D01*
X147549574Y-128331394D01*
X147545632Y-128334257D01*
X147545632Y-128334258D01*
X147372065Y-128460362D01*
X147372063Y-128460364D01*
X147372062Y-128460364D01*
X147220364Y-128612062D01*
X147220364Y-128612063D01*
X147220362Y-128612065D01*
X147094259Y-128785631D01*
X147091394Y-128789574D01*
X147089914Y-128788499D01*
X147043891Y-128830120D01*
X146974959Y-128841527D01*
X146910802Y-128813856D01*
X146889315Y-128789058D01*
X146888606Y-128789574D01*
X146885741Y-128785631D01*
X146759638Y-128612065D01*
X146607935Y-128460362D01*
X146434368Y-128334258D01*
X146434367Y-128334257D01*
X146430426Y-128331394D01*
X146431407Y-128330042D01*
X146389407Y-128283615D01*
X146377988Y-128214684D01*
X146405649Y-128150523D01*
X146430660Y-128128858D01*
X146430165Y-128128177D01*
X146490665Y-128084219D01*
X146490666Y-128084219D01*
X145910646Y-127504200D01*
X145941942Y-127495815D01*
X146073058Y-127420115D01*
X146180115Y-127313058D01*
X146255815Y-127181942D01*
X146264200Y-127150647D01*
X146844219Y-127730666D01*
X146844219Y-127730665D01*
X146888177Y-127670165D01*
X146889475Y-127671108D01*
X146936049Y-127628946D01*
X147004975Y-127617503D01*
X147069147Y-127645140D01*
X147091220Y-127670602D01*
X147091822Y-127670165D01*
X147135778Y-127730665D01*
X147135779Y-127730666D01*
X147715799Y-127150646D01*
X147724185Y-127181942D01*
G37*
%TD.AperFunction*%
%TA.AperFunction,Conductor*%
G36*
X150264185Y-127181942D02*
G01*
X150339885Y-127313058D01*
X150446942Y-127420115D01*
X150578058Y-127495815D01*
X150609352Y-127504200D01*
X150029332Y-128084219D01*
X150089836Y-128128178D01*
X150088797Y-128129607D01*
X150130576Y-128175762D01*
X150142015Y-128244689D01*
X150114374Y-128308858D01*
X150089112Y-128330758D01*
X150089574Y-128331394D01*
X150085632Y-128334257D01*
X150085632Y-128334258D01*
X149912065Y-128460362D01*
X149912063Y-128460364D01*
X149912062Y-128460364D01*
X149760364Y-128612062D01*
X149760364Y-128612063D01*
X149760362Y-128612065D01*
X149634259Y-128785631D01*
X149631394Y-128789574D01*
X149629914Y-128788499D01*
X149583891Y-128830120D01*
X149514959Y-128841527D01*
X149450802Y-128813856D01*
X149429315Y-128789058D01*
X149428606Y-128789574D01*
X149425741Y-128785631D01*
X149299638Y-128612065D01*
X149147935Y-128460362D01*
X148974368Y-128334258D01*
X148974367Y-128334257D01*
X148970426Y-128331394D01*
X148971407Y-128330042D01*
X148929407Y-128283615D01*
X148917988Y-128214684D01*
X148945649Y-128150523D01*
X148970660Y-128128858D01*
X148970165Y-128128177D01*
X149030665Y-128084219D01*
X149030666Y-128084219D01*
X148450646Y-127504200D01*
X148481942Y-127495815D01*
X148613058Y-127420115D01*
X148720115Y-127313058D01*
X148795815Y-127181942D01*
X148804200Y-127150647D01*
X149384219Y-127730666D01*
X149384219Y-127730665D01*
X149428177Y-127670165D01*
X149429475Y-127671108D01*
X149476049Y-127628946D01*
X149544975Y-127617503D01*
X149609147Y-127645140D01*
X149631220Y-127670602D01*
X149631822Y-127670165D01*
X149675778Y-127730665D01*
X149675779Y-127730666D01*
X150255799Y-127150646D01*
X150264185Y-127181942D01*
G37*
%TD.AperFunction*%
%TA.AperFunction,Conductor*%
G36*
X152804185Y-127181942D02*
G01*
X152879885Y-127313058D01*
X152986942Y-127420115D01*
X153118058Y-127495815D01*
X153149352Y-127504200D01*
X152569332Y-128084219D01*
X152629836Y-128128178D01*
X152628797Y-128129607D01*
X152670576Y-128175762D01*
X152682015Y-128244689D01*
X152654374Y-128308858D01*
X152629112Y-128330758D01*
X152629574Y-128331394D01*
X152625632Y-128334257D01*
X152625632Y-128334258D01*
X152452065Y-128460362D01*
X152452063Y-128460364D01*
X152452062Y-128460364D01*
X152300364Y-128612062D01*
X152300364Y-128612063D01*
X152300362Y-128612065D01*
X152174259Y-128785631D01*
X152171394Y-128789574D01*
X152169914Y-128788499D01*
X152123891Y-128830120D01*
X152054959Y-128841527D01*
X151990802Y-128813856D01*
X151969315Y-128789058D01*
X151968606Y-128789574D01*
X151965741Y-128785631D01*
X151839638Y-128612065D01*
X151687935Y-128460362D01*
X151514368Y-128334258D01*
X151514367Y-128334257D01*
X151510426Y-128331394D01*
X151511407Y-128330042D01*
X151469407Y-128283615D01*
X151457988Y-128214684D01*
X151485649Y-128150523D01*
X151510660Y-128128858D01*
X151510165Y-128128177D01*
X151570665Y-128084219D01*
X151570666Y-128084219D01*
X150990646Y-127504200D01*
X151021942Y-127495815D01*
X151153058Y-127420115D01*
X151260115Y-127313058D01*
X151335815Y-127181942D01*
X151344200Y-127150647D01*
X151924219Y-127730666D01*
X151924219Y-127730665D01*
X151968177Y-127670165D01*
X151969475Y-127671108D01*
X152016049Y-127628946D01*
X152084975Y-127617503D01*
X152149147Y-127645140D01*
X152171220Y-127670602D01*
X152171822Y-127670165D01*
X152215778Y-127730665D01*
X152215779Y-127730666D01*
X152795799Y-127150646D01*
X152804185Y-127181942D01*
G37*
%TD.AperFunction*%
%TA.AperFunction,Conductor*%
G36*
X155344185Y-127181942D02*
G01*
X155419885Y-127313058D01*
X155526942Y-127420115D01*
X155658058Y-127495815D01*
X155689352Y-127504200D01*
X155109332Y-128084219D01*
X155169836Y-128128178D01*
X155168797Y-128129607D01*
X155210576Y-128175762D01*
X155222015Y-128244689D01*
X155194374Y-128308858D01*
X155169112Y-128330758D01*
X155169574Y-128331394D01*
X155165632Y-128334257D01*
X155165632Y-128334258D01*
X154992065Y-128460362D01*
X154992063Y-128460364D01*
X154992062Y-128460364D01*
X154840364Y-128612062D01*
X154840364Y-128612063D01*
X154840362Y-128612065D01*
X154714259Y-128785631D01*
X154711394Y-128789574D01*
X154709914Y-128788499D01*
X154663891Y-128830120D01*
X154594959Y-128841527D01*
X154530802Y-128813856D01*
X154509315Y-128789058D01*
X154508606Y-128789574D01*
X154505741Y-128785631D01*
X154379638Y-128612065D01*
X154227935Y-128460362D01*
X154054368Y-128334258D01*
X154054367Y-128334257D01*
X154050426Y-128331394D01*
X154051407Y-128330042D01*
X154009407Y-128283615D01*
X153997988Y-128214684D01*
X154025649Y-128150523D01*
X154050660Y-128128858D01*
X154050165Y-128128177D01*
X154110665Y-128084219D01*
X154110666Y-128084219D01*
X153530646Y-127504200D01*
X153561942Y-127495815D01*
X153693058Y-127420115D01*
X153800115Y-127313058D01*
X153875815Y-127181942D01*
X153884200Y-127150647D01*
X154464219Y-127730666D01*
X154464219Y-127730665D01*
X154508177Y-127670165D01*
X154509475Y-127671108D01*
X154556049Y-127628946D01*
X154624975Y-127617503D01*
X154689147Y-127645140D01*
X154711220Y-127670602D01*
X154711822Y-127670165D01*
X154755778Y-127730665D01*
X154755779Y-127730666D01*
X155335799Y-127150646D01*
X155344185Y-127181942D01*
G37*
%TD.AperFunction*%
%TA.AperFunction,Conductor*%
G36*
X157884185Y-127181942D02*
G01*
X157959885Y-127313058D01*
X158066942Y-127420115D01*
X158198058Y-127495815D01*
X158229352Y-127504200D01*
X157649332Y-128084219D01*
X157709836Y-128128178D01*
X157708797Y-128129607D01*
X157750576Y-128175762D01*
X157762015Y-128244689D01*
X157734374Y-128308858D01*
X157709112Y-128330758D01*
X157709574Y-128331394D01*
X157705632Y-128334257D01*
X157705632Y-128334258D01*
X157532065Y-128460362D01*
X157532063Y-128460364D01*
X157532062Y-128460364D01*
X157380364Y-128612062D01*
X157380364Y-128612063D01*
X157380362Y-128612065D01*
X157254259Y-128785631D01*
X157251394Y-128789574D01*
X157249914Y-128788499D01*
X157203891Y-128830120D01*
X157134959Y-128841527D01*
X157070802Y-128813856D01*
X157049315Y-128789058D01*
X157048606Y-128789574D01*
X157045741Y-128785631D01*
X156919638Y-128612065D01*
X156767935Y-128460362D01*
X156594368Y-128334258D01*
X156594367Y-128334257D01*
X156590426Y-128331394D01*
X156591407Y-128330042D01*
X156549407Y-128283615D01*
X156537988Y-128214684D01*
X156565649Y-128150523D01*
X156590660Y-128128858D01*
X156590165Y-128128177D01*
X156650665Y-128084219D01*
X156650666Y-128084219D01*
X156070646Y-127504200D01*
X156101942Y-127495815D01*
X156233058Y-127420115D01*
X156340115Y-127313058D01*
X156415815Y-127181942D01*
X156424200Y-127150647D01*
X157004219Y-127730666D01*
X157004219Y-127730665D01*
X157048177Y-127670165D01*
X157049475Y-127671108D01*
X157096049Y-127628946D01*
X157164975Y-127617503D01*
X157229147Y-127645140D01*
X157251220Y-127670602D01*
X157251822Y-127670165D01*
X157295778Y-127730665D01*
X157295779Y-127730666D01*
X157875799Y-127150646D01*
X157884185Y-127181942D01*
G37*
%TD.AperFunction*%
%TA.AperFunction,Conductor*%
G36*
X160424185Y-127181942D02*
G01*
X160499885Y-127313058D01*
X160606942Y-127420115D01*
X160738058Y-127495815D01*
X160769352Y-127504200D01*
X160189332Y-128084219D01*
X160249836Y-128128178D01*
X160248797Y-128129607D01*
X160290576Y-128175762D01*
X160302015Y-128244689D01*
X160274374Y-128308858D01*
X160249112Y-128330758D01*
X160249574Y-128331394D01*
X160245632Y-128334257D01*
X160245632Y-128334258D01*
X160072065Y-128460362D01*
X160072063Y-128460364D01*
X160072062Y-128460364D01*
X159920364Y-128612062D01*
X159920364Y-128612063D01*
X159920362Y-128612065D01*
X159794259Y-128785631D01*
X159791394Y-128789574D01*
X159789914Y-128788499D01*
X159743891Y-128830120D01*
X159674959Y-128841527D01*
X159610802Y-128813856D01*
X159589315Y-128789058D01*
X159588606Y-128789574D01*
X159585741Y-128785631D01*
X159459638Y-128612065D01*
X159307935Y-128460362D01*
X159134368Y-128334258D01*
X159134367Y-128334257D01*
X159130426Y-128331394D01*
X159131407Y-128330042D01*
X159089407Y-128283615D01*
X159077988Y-128214684D01*
X159105649Y-128150523D01*
X159130660Y-128128858D01*
X159130165Y-128128177D01*
X159190665Y-128084219D01*
X159190666Y-128084219D01*
X158610646Y-127504200D01*
X158641942Y-127495815D01*
X158773058Y-127420115D01*
X158880115Y-127313058D01*
X158955815Y-127181942D01*
X158964200Y-127150647D01*
X159544219Y-127730666D01*
X159544219Y-127730665D01*
X159588177Y-127670165D01*
X159589475Y-127671108D01*
X159636049Y-127628946D01*
X159704975Y-127617503D01*
X159769147Y-127645140D01*
X159791220Y-127670602D01*
X159791822Y-127670165D01*
X159835778Y-127730665D01*
X159835779Y-127730666D01*
X160415799Y-127150646D01*
X160424185Y-127181942D01*
G37*
%TD.AperFunction*%
%TA.AperFunction,Conductor*%
G36*
X162964185Y-127181942D02*
G01*
X163039885Y-127313058D01*
X163146942Y-127420115D01*
X163278058Y-127495815D01*
X163309352Y-127504200D01*
X162729332Y-128084219D01*
X162789836Y-128128178D01*
X162788797Y-128129607D01*
X162830576Y-128175762D01*
X162842015Y-128244689D01*
X162814374Y-128308858D01*
X162789112Y-128330758D01*
X162789574Y-128331394D01*
X162785632Y-128334257D01*
X162785632Y-128334258D01*
X162612065Y-128460362D01*
X162612063Y-128460364D01*
X162612062Y-128460364D01*
X162460364Y-128612062D01*
X162460364Y-128612063D01*
X162460362Y-128612065D01*
X162334259Y-128785631D01*
X162331394Y-128789574D01*
X162329914Y-128788499D01*
X162283891Y-128830120D01*
X162214959Y-128841527D01*
X162150802Y-128813856D01*
X162129315Y-128789058D01*
X162128606Y-128789574D01*
X162125741Y-128785631D01*
X161999638Y-128612065D01*
X161847935Y-128460362D01*
X161674368Y-128334258D01*
X161674367Y-128334257D01*
X161670426Y-128331394D01*
X161671407Y-128330042D01*
X161629407Y-128283615D01*
X161617988Y-128214684D01*
X161645649Y-128150523D01*
X161670660Y-128128858D01*
X161670165Y-128128177D01*
X161730665Y-128084219D01*
X161730666Y-128084219D01*
X161150646Y-127504200D01*
X161181942Y-127495815D01*
X161313058Y-127420115D01*
X161420115Y-127313058D01*
X161495815Y-127181942D01*
X161504200Y-127150646D01*
X162084219Y-127730666D01*
X162084219Y-127730665D01*
X162128177Y-127670165D01*
X162129475Y-127671108D01*
X162176049Y-127628946D01*
X162244975Y-127617503D01*
X162309147Y-127645140D01*
X162331220Y-127670602D01*
X162331822Y-127670165D01*
X162375778Y-127730665D01*
X162375779Y-127730666D01*
X162955799Y-127150646D01*
X162964185Y-127181942D01*
G37*
%TD.AperFunction*%
%TA.AperFunction,Conductor*%
G36*
X165504185Y-127181942D02*
G01*
X165579885Y-127313058D01*
X165686942Y-127420115D01*
X165818058Y-127495815D01*
X165849352Y-127504200D01*
X165269332Y-128084219D01*
X165329836Y-128128178D01*
X165328797Y-128129607D01*
X165370576Y-128175762D01*
X165382015Y-128244689D01*
X165354374Y-128308858D01*
X165329112Y-128330758D01*
X165329574Y-128331394D01*
X165325632Y-128334257D01*
X165325632Y-128334258D01*
X165152065Y-128460362D01*
X165152063Y-128460364D01*
X165152062Y-128460364D01*
X165000364Y-128612062D01*
X165000364Y-128612063D01*
X165000362Y-128612065D01*
X164874259Y-128785631D01*
X164871394Y-128789574D01*
X164869914Y-128788499D01*
X164823891Y-128830120D01*
X164754959Y-128841527D01*
X164690802Y-128813856D01*
X164669315Y-128789058D01*
X164668606Y-128789574D01*
X164665741Y-128785631D01*
X164539638Y-128612065D01*
X164387935Y-128460362D01*
X164214368Y-128334258D01*
X164214367Y-128334257D01*
X164210426Y-128331394D01*
X164211407Y-128330042D01*
X164169407Y-128283615D01*
X164157988Y-128214684D01*
X164185649Y-128150523D01*
X164210660Y-128128858D01*
X164210165Y-128128177D01*
X164270665Y-128084219D01*
X164270666Y-128084219D01*
X163690646Y-127504200D01*
X163721942Y-127495815D01*
X163853058Y-127420115D01*
X163960115Y-127313058D01*
X164035815Y-127181942D01*
X164044200Y-127150647D01*
X164624219Y-127730666D01*
X164624219Y-127730665D01*
X164668177Y-127670165D01*
X164669475Y-127671108D01*
X164716049Y-127628946D01*
X164784975Y-127617503D01*
X164849147Y-127645140D01*
X164871220Y-127670602D01*
X164871822Y-127670165D01*
X164915778Y-127730665D01*
X164915779Y-127730666D01*
X165495799Y-127150646D01*
X165504185Y-127181942D01*
G37*
%TD.AperFunction*%
%TA.AperFunction,Conductor*%
G36*
X145184185Y-127181942D02*
G01*
X145259885Y-127313058D01*
X145366942Y-127420115D01*
X145498058Y-127495815D01*
X145529352Y-127504200D01*
X144949332Y-128084219D01*
X145009836Y-128128178D01*
X145008797Y-128129607D01*
X145050576Y-128175762D01*
X145062015Y-128244689D01*
X145034374Y-128308858D01*
X145009112Y-128330758D01*
X145009574Y-128331394D01*
X144832066Y-128460361D01*
X144734371Y-128558056D01*
X144673047Y-128591540D01*
X144603356Y-128586556D01*
X144547423Y-128544684D01*
X144530508Y-128513707D01*
X144486297Y-128395171D01*
X144486293Y-128395164D01*
X144400047Y-128279955D01*
X144400044Y-128279952D01*
X144284835Y-128193706D01*
X144284828Y-128193702D01*
X144166292Y-128149491D01*
X144110358Y-128107620D01*
X144085941Y-128042155D01*
X144100793Y-127973882D01*
X144121938Y-127945634D01*
X144219638Y-127847935D01*
X144345742Y-127674368D01*
X144345742Y-127674367D01*
X144348606Y-127670426D01*
X144349963Y-127671412D01*
X144396348Y-127629424D01*
X144465275Y-127617983D01*
X144529445Y-127645623D01*
X144551142Y-127670658D01*
X144551822Y-127670165D01*
X144595778Y-127730665D01*
X144595779Y-127730666D01*
X145175799Y-127150646D01*
X145184185Y-127181942D01*
G37*
%TD.AperFunction*%
%TA.AperFunction,Conductor*%
G36*
X196942539Y-57520185D02*
G01*
X196988294Y-57572989D01*
X196999500Y-57624500D01*
X196999500Y-145375500D01*
X196979815Y-145442539D01*
X196927011Y-145488294D01*
X196875500Y-145499500D01*
X114124500Y-145499500D01*
X114057461Y-145479815D01*
X114011706Y-145427011D01*
X114000500Y-145375500D01*
X114000500Y-141893713D01*
X115649500Y-141893713D01*
X115649500Y-142106287D01*
X115682754Y-142316243D01*
X115703402Y-142379792D01*
X115748444Y-142518414D01*
X115844951Y-142707820D01*
X115969890Y-142879786D01*
X116120213Y-143030109D01*
X116292179Y-143155048D01*
X116292181Y-143155049D01*
X116292184Y-143155051D01*
X116481588Y-143251557D01*
X116683757Y-143317246D01*
X116893713Y-143350500D01*
X116893714Y-143350500D01*
X117106286Y-143350500D01*
X117106287Y-143350500D01*
X117316243Y-143317246D01*
X117518412Y-143251557D01*
X117707816Y-143155051D01*
X117729789Y-143139086D01*
X117879786Y-143030109D01*
X117879788Y-143030106D01*
X117879792Y-143030104D01*
X118030104Y-142879792D01*
X118030106Y-142879788D01*
X118030109Y-142879786D01*
X118155048Y-142707820D01*
X118155047Y-142707820D01*
X118155051Y-142707816D01*
X118251557Y-142518412D01*
X118317246Y-142316243D01*
X118350500Y-142106287D01*
X118350500Y-141893713D01*
X118317246Y-141683757D01*
X118251557Y-141481588D01*
X118206783Y-141393713D01*
X192149500Y-141393713D01*
X192149500Y-141606286D01*
X192182753Y-141816239D01*
X192248444Y-142018414D01*
X192344951Y-142207820D01*
X192469890Y-142379786D01*
X192620213Y-142530109D01*
X192792179Y-142655048D01*
X192792181Y-142655049D01*
X192792184Y-142655051D01*
X192981588Y-142751557D01*
X193183757Y-142817246D01*
X193393713Y-142850500D01*
X193393714Y-142850500D01*
X193606286Y-142850500D01*
X193606287Y-142850500D01*
X193816243Y-142817246D01*
X194018412Y-142751557D01*
X194207816Y-142655051D01*
X194229789Y-142639086D01*
X194379786Y-142530109D01*
X194379788Y-142530106D01*
X194379792Y-142530104D01*
X194530104Y-142379792D01*
X194530106Y-142379788D01*
X194530109Y-142379786D01*
X194655048Y-142207820D01*
X194655047Y-142207820D01*
X194655051Y-142207816D01*
X194751557Y-142018412D01*
X194817246Y-141816243D01*
X194850500Y-141606287D01*
X194850500Y-141393713D01*
X194817246Y-141183757D01*
X194751557Y-140981588D01*
X194655051Y-140792184D01*
X194655049Y-140792181D01*
X194655048Y-140792179D01*
X194530109Y-140620213D01*
X194379786Y-140469890D01*
X194207820Y-140344951D01*
X194018414Y-140248444D01*
X194018413Y-140248443D01*
X194018412Y-140248443D01*
X193816243Y-140182754D01*
X193816241Y-140182753D01*
X193816240Y-140182753D01*
X193654957Y-140157208D01*
X193606287Y-140149500D01*
X193393713Y-140149500D01*
X193345042Y-140157208D01*
X193183760Y-140182753D01*
X192981585Y-140248444D01*
X192792179Y-140344951D01*
X192620213Y-140469890D01*
X192469890Y-140620213D01*
X192344951Y-140792179D01*
X192248444Y-140981585D01*
X192182753Y-141183760D01*
X192149500Y-141393713D01*
X118206783Y-141393713D01*
X118155051Y-141292184D01*
X118147023Y-141281134D01*
X118030109Y-141120213D01*
X117879786Y-140969890D01*
X117707820Y-140844951D01*
X117518414Y-140748444D01*
X117518413Y-140748443D01*
X117518412Y-140748443D01*
X117316243Y-140682754D01*
X117316241Y-140682753D01*
X117316240Y-140682753D01*
X117154957Y-140657208D01*
X117106287Y-140649500D01*
X116893713Y-140649500D01*
X116845042Y-140657208D01*
X116683760Y-140682753D01*
X116481585Y-140748444D01*
X116292179Y-140844951D01*
X116120213Y-140969890D01*
X115969890Y-141120213D01*
X115844951Y-141292179D01*
X115748444Y-141481585D01*
X115682753Y-141683760D01*
X115661771Y-141816239D01*
X115649500Y-141893713D01*
X114000500Y-141893713D01*
X114000500Y-133027135D01*
X126849500Y-133027135D01*
X126849500Y-134922870D01*
X126849501Y-134922876D01*
X126855908Y-134982483D01*
X126906202Y-135117328D01*
X126906206Y-135117335D01*
X126992452Y-135232544D01*
X126992455Y-135232547D01*
X127107664Y-135318793D01*
X127107671Y-135318797D01*
X127242517Y-135369091D01*
X127242516Y-135369091D01*
X127249444Y-135369835D01*
X127302127Y-135375500D01*
X129197872Y-135375499D01*
X129257483Y-135369091D01*
X129392331Y-135318796D01*
X129507546Y-135232546D01*
X129593796Y-135117331D01*
X129621429Y-135043243D01*
X129624327Y-135035474D01*
X129634765Y-135007486D01*
X129644091Y-134982483D01*
X129650500Y-134922873D01*
X129650499Y-134772304D01*
X129670183Y-134705268D01*
X129686818Y-134684626D01*
X130185387Y-134186058D01*
X130190889Y-134206591D01*
X130269881Y-134343408D01*
X130381592Y-134455119D01*
X130518409Y-134534111D01*
X130538939Y-134539612D01*
X129952485Y-135126065D01*
X129952485Y-135126066D01*
X130016243Y-135172388D01*
X130212589Y-135272432D01*
X130422164Y-135340526D01*
X130639819Y-135375000D01*
X130860181Y-135375000D01*
X131077835Y-135340526D01*
X131287410Y-135272432D01*
X131483760Y-135172386D01*
X131547513Y-135126066D01*
X131547514Y-135126066D01*
X130961059Y-134539612D01*
X130981591Y-134534111D01*
X131118408Y-134455119D01*
X131230119Y-134343408D01*
X131309111Y-134206591D01*
X131314612Y-134186060D01*
X131901066Y-134772514D01*
X131902547Y-134772397D01*
X131954700Y-134732180D01*
X132024314Y-134726200D01*
X132086109Y-134758806D01*
X132100008Y-134774846D01*
X132181752Y-134887359D01*
X132337636Y-135043243D01*
X132337641Y-135043247D01*
X132486043Y-135151066D01*
X132515978Y-135172815D01*
X132644375Y-135238237D01*
X132712393Y-135272895D01*
X132712396Y-135272896D01*
X132787912Y-135297432D01*
X132922049Y-135341015D01*
X133139778Y-135375500D01*
X133139779Y-135375500D01*
X133360221Y-135375500D01*
X133360222Y-135375500D01*
X133577951Y-135341015D01*
X133787606Y-135272895D01*
X133984022Y-135172815D01*
X134162365Y-135043242D01*
X134318242Y-134887365D01*
X134447815Y-134709022D01*
X134547895Y-134512606D01*
X134616015Y-134302951D01*
X134650500Y-134085222D01*
X134650500Y-133864778D01*
X134616015Y-133647049D01*
X134574696Y-133519881D01*
X134547896Y-133437396D01*
X134547895Y-133437393D01*
X134472982Y-133290371D01*
X134447815Y-133240978D01*
X134318242Y-133062635D01*
X134307742Y-133052135D01*
X175349500Y-133052135D01*
X175349500Y-134947870D01*
X175349501Y-134947876D01*
X175355908Y-135007483D01*
X175406202Y-135142328D01*
X175406206Y-135142335D01*
X175492452Y-135257544D01*
X175492455Y-135257547D01*
X175607664Y-135343793D01*
X175607671Y-135343797D01*
X175742517Y-135394091D01*
X175742516Y-135394091D01*
X175749444Y-135394835D01*
X175802127Y-135400500D01*
X177697872Y-135400499D01*
X177757483Y-135394091D01*
X177892331Y-135343796D01*
X178007546Y-135257546D01*
X178093796Y-135142331D01*
X178121429Y-135068243D01*
X178124327Y-135060474D01*
X178133651Y-135035474D01*
X178144091Y-135007483D01*
X178150500Y-134947873D01*
X178150499Y-134797304D01*
X178170183Y-134730268D01*
X178186818Y-134709626D01*
X178685387Y-134211058D01*
X178690889Y-134231591D01*
X178769881Y-134368408D01*
X178881592Y-134480119D01*
X179018409Y-134559111D01*
X179038939Y-134564612D01*
X178452485Y-135151065D01*
X178452485Y-135151066D01*
X178516243Y-135197388D01*
X178712589Y-135297432D01*
X178922164Y-135365526D01*
X179139819Y-135400000D01*
X179360181Y-135400000D01*
X179577835Y-135365526D01*
X179787410Y-135297432D01*
X179983760Y-135197386D01*
X180047513Y-135151066D01*
X180047514Y-135151066D01*
X179461059Y-134564612D01*
X179481591Y-134559111D01*
X179618408Y-134480119D01*
X179730119Y-134368408D01*
X179809111Y-134231591D01*
X179814612Y-134211060D01*
X180401066Y-134797514D01*
X180402547Y-134797397D01*
X180454700Y-134757180D01*
X180524314Y-134751200D01*
X180586109Y-134783806D01*
X180600008Y-134799846D01*
X180681752Y-134912359D01*
X180837636Y-135068243D01*
X180837641Y-135068247D01*
X180981564Y-135172812D01*
X181015978Y-135197815D01*
X181144375Y-135263237D01*
X181212393Y-135297895D01*
X181212396Y-135297896D01*
X181317221Y-135331955D01*
X181422049Y-135366015D01*
X181639778Y-135400500D01*
X181639779Y-135400500D01*
X181860221Y-135400500D01*
X181860222Y-135400500D01*
X182077951Y-135366015D01*
X182287606Y-135297895D01*
X182484022Y-135197815D01*
X182662365Y-135068242D01*
X182818242Y-134912365D01*
X182947815Y-134734022D01*
X183047895Y-134537606D01*
X183116015Y-134327951D01*
X183150500Y-134110222D01*
X183150500Y-133889778D01*
X183116015Y-133672049D01*
X183081955Y-133567221D01*
X183047896Y-133462396D01*
X183047895Y-133462393D01*
X183003365Y-133375000D01*
X182947815Y-133265978D01*
X182911643Y-133216191D01*
X182818247Y-133087641D01*
X182818243Y-133087636D01*
X182662363Y-132931756D01*
X182662358Y-132931752D01*
X182484025Y-132802187D01*
X182484024Y-132802186D01*
X182484022Y-132802185D01*
X182366791Y-132742452D01*
X182287606Y-132702104D01*
X182287603Y-132702103D01*
X182077952Y-132633985D01*
X181969086Y-132616742D01*
X181860222Y-132599500D01*
X181639778Y-132599500D01*
X181579892Y-132608985D01*
X181422047Y-132633985D01*
X181212396Y-132702103D01*
X181212393Y-132702104D01*
X181015974Y-132802187D01*
X180837641Y-132931752D01*
X180837636Y-132931756D01*
X180681756Y-133087636D01*
X180600008Y-133200153D01*
X180544678Y-133242818D01*
X180475064Y-133248797D01*
X180413269Y-133216191D01*
X180401416Y-133202513D01*
X180401065Y-133202485D01*
X179814612Y-133788939D01*
X179809111Y-133768409D01*
X179730119Y-133631592D01*
X179618408Y-133519881D01*
X179481591Y-133440889D01*
X179461057Y-133435387D01*
X180047513Y-132848932D01*
X179983756Y-132802611D01*
X179787410Y-132702567D01*
X179577835Y-132634473D01*
X179360181Y-132600000D01*
X179139819Y-132600000D01*
X178922164Y-132634473D01*
X178712589Y-132702567D01*
X178516233Y-132802616D01*
X178452485Y-132848931D01*
X178452485Y-132848932D01*
X179038940Y-133435387D01*
X179018409Y-133440889D01*
X178881592Y-133519881D01*
X178769881Y-133631592D01*
X178690889Y-133768409D01*
X178685387Y-133788940D01*
X178186818Y-133290371D01*
X178153333Y-133229048D01*
X178150499Y-133202690D01*
X178150499Y-133052129D01*
X178150498Y-133052123D01*
X178150497Y-133052116D01*
X178144091Y-132992517D01*
X178093796Y-132857669D01*
X178093795Y-132857668D01*
X178093793Y-132857664D01*
X178007547Y-132742455D01*
X178007544Y-132742452D01*
X177892335Y-132656206D01*
X177892328Y-132656202D01*
X177757482Y-132605908D01*
X177757483Y-132605908D01*
X177697883Y-132599501D01*
X177697881Y-132599500D01*
X177697873Y-132599500D01*
X177697864Y-132599500D01*
X175802129Y-132599500D01*
X175802123Y-132599501D01*
X175742516Y-132605908D01*
X175607671Y-132656202D01*
X175607664Y-132656206D01*
X175492455Y-132742452D01*
X175492452Y-132742455D01*
X175406206Y-132857664D01*
X175406202Y-132857671D01*
X175355908Y-132992517D01*
X175352187Y-133027135D01*
X175349501Y-133052123D01*
X175349500Y-133052135D01*
X134307742Y-133052135D01*
X134162365Y-132906758D01*
X134162363Y-132906756D01*
X134162358Y-132906752D01*
X133984025Y-132777187D01*
X133984024Y-132777186D01*
X133984022Y-132777185D01*
X133866791Y-132717452D01*
X133787606Y-132677104D01*
X133787603Y-132677103D01*
X133577952Y-132608985D01*
X133469086Y-132591742D01*
X133360222Y-132574500D01*
X133139778Y-132574500D01*
X133067201Y-132585995D01*
X132922047Y-132608985D01*
X132712396Y-132677103D01*
X132712393Y-132677104D01*
X132515974Y-132777187D01*
X132337641Y-132906752D01*
X132337636Y-132906756D01*
X132181756Y-133062636D01*
X132100008Y-133175153D01*
X132044678Y-133217818D01*
X131975064Y-133223797D01*
X131913269Y-133191191D01*
X131901416Y-133177513D01*
X131901065Y-133177485D01*
X131314612Y-133763939D01*
X131309111Y-133743409D01*
X131230119Y-133606592D01*
X131118408Y-133494881D01*
X130981591Y-133415889D01*
X130961057Y-133410387D01*
X131547513Y-132823932D01*
X131483756Y-132777611D01*
X131287410Y-132677567D01*
X131077835Y-132609473D01*
X130860181Y-132575000D01*
X130639819Y-132575000D01*
X130422164Y-132609473D01*
X130212589Y-132677567D01*
X130016233Y-132777616D01*
X129952485Y-132823931D01*
X129952485Y-132823932D01*
X130538940Y-133410387D01*
X130518409Y-133415889D01*
X130381592Y-133494881D01*
X130269881Y-133606592D01*
X130190889Y-133743409D01*
X130185387Y-133763940D01*
X129686818Y-133265371D01*
X129653333Y-133204048D01*
X129650499Y-133177690D01*
X129650499Y-133027129D01*
X129650498Y-133027123D01*
X129650497Y-133027116D01*
X129644091Y-132967517D01*
X129633650Y-132939524D01*
X129624326Y-132914524D01*
X129593797Y-132832671D01*
X129593793Y-132832664D01*
X129507547Y-132717455D01*
X129507544Y-132717452D01*
X129392335Y-132631206D01*
X129392328Y-132631202D01*
X129257482Y-132580908D01*
X129257483Y-132580908D01*
X129197883Y-132574501D01*
X129197881Y-132574500D01*
X129197873Y-132574500D01*
X129197864Y-132574500D01*
X127302129Y-132574500D01*
X127302123Y-132574501D01*
X127242516Y-132580908D01*
X127107671Y-132631202D01*
X127107664Y-132631206D01*
X126992455Y-132717452D01*
X126992452Y-132717455D01*
X126906206Y-132832664D01*
X126906202Y-132832671D01*
X126855908Y-132967517D01*
X126849501Y-133027116D01*
X126849501Y-133027123D01*
X126849500Y-133027135D01*
X114000500Y-133027135D01*
X114000500Y-126352973D01*
X123399500Y-126352973D01*
X123399500Y-126597027D01*
X123403460Y-126622026D01*
X123436155Y-126828459D01*
X123437679Y-126838076D01*
X123513096Y-127070185D01*
X123619517Y-127279049D01*
X123623896Y-127287642D01*
X123767339Y-127485076D01*
X123767343Y-127485081D01*
X123939918Y-127657656D01*
X123939923Y-127657660D01*
X124040407Y-127730665D01*
X124137361Y-127801106D01*
X124354815Y-127911904D01*
X124586924Y-127987321D01*
X124827973Y-128025500D01*
X124827974Y-128025500D01*
X127172026Y-128025500D01*
X127172027Y-128025500D01*
X127413076Y-127987321D01*
X127645185Y-127911904D01*
X127862639Y-127801106D01*
X128060083Y-127657655D01*
X128232655Y-127485083D01*
X128376106Y-127287639D01*
X128486904Y-127070185D01*
X128562321Y-126838076D01*
X128600500Y-126597027D01*
X128600500Y-126352973D01*
X132899500Y-126352973D01*
X132899500Y-126597027D01*
X132903460Y-126622026D01*
X132936155Y-126828459D01*
X132937679Y-126838076D01*
X133013096Y-127070185D01*
X133119517Y-127279049D01*
X133123896Y-127287642D01*
X133267339Y-127485076D01*
X133267343Y-127485081D01*
X133439918Y-127657656D01*
X133439923Y-127657660D01*
X133540407Y-127730665D01*
X133637361Y-127801106D01*
X133854815Y-127911904D01*
X134086924Y-127987321D01*
X134327973Y-128025500D01*
X134327974Y-128025500D01*
X136672026Y-128025500D01*
X136672027Y-128025500D01*
X136913076Y-127987321D01*
X137145185Y-127911904D01*
X137362639Y-127801106D01*
X137560083Y-127657655D01*
X137732655Y-127485083D01*
X137876106Y-127287639D01*
X137986904Y-127070185D01*
X138057562Y-126852724D01*
X141817000Y-126852724D01*
X141817000Y-127067275D01*
X141850560Y-127279170D01*
X141916859Y-127483215D01*
X142005742Y-127657655D01*
X142014258Y-127674368D01*
X142140362Y-127847935D01*
X142140364Y-127847937D01*
X142238055Y-127945628D01*
X142271540Y-128006951D01*
X142266556Y-128076643D01*
X142224684Y-128132576D01*
X142193708Y-128149491D01*
X142075169Y-128193703D01*
X142075164Y-128193706D01*
X141959955Y-128279952D01*
X141959952Y-128279955D01*
X141873706Y-128395164D01*
X141873702Y-128395171D01*
X141823408Y-128530017D01*
X141817001Y-128589616D01*
X141817000Y-128589635D01*
X141817000Y-130410370D01*
X141817001Y-130410376D01*
X141823408Y-130469983D01*
X141873702Y-130604828D01*
X141873706Y-130604835D01*
X141959952Y-130720044D01*
X141959955Y-130720047D01*
X142075164Y-130806293D01*
X142075171Y-130806297D01*
X142210017Y-130856591D01*
X142210016Y-130856591D01*
X142216944Y-130857335D01*
X142269627Y-130863000D01*
X144090372Y-130862999D01*
X144149983Y-130856591D01*
X144284831Y-130806296D01*
X144400046Y-130720046D01*
X144486296Y-130604831D01*
X144530508Y-130486291D01*
X144572379Y-130430359D01*
X144637843Y-130405941D01*
X144706116Y-130420792D01*
X144734371Y-130441944D01*
X144832065Y-130539638D01*
X145005632Y-130665742D01*
X145095943Y-130711758D01*
X145196784Y-130763140D01*
X145196786Y-130763140D01*
X145196789Y-130763142D01*
X145306160Y-130798678D01*
X145400829Y-130829439D01*
X145612725Y-130863000D01*
X145612730Y-130863000D01*
X145827275Y-130863000D01*
X146039170Y-130829439D01*
X146243211Y-130763142D01*
X146434368Y-130665742D01*
X146607935Y-130539638D01*
X146759638Y-130387935D01*
X146885742Y-130214368D01*
X146885742Y-130214367D01*
X146888606Y-130210426D01*
X146890090Y-130211504D01*
X146936081Y-130169893D01*
X147005010Y-130158468D01*
X147069174Y-130186123D01*
X147090680Y-130210944D01*
X147091394Y-130210426D01*
X147094257Y-130214367D01*
X147094258Y-130214368D01*
X147220362Y-130387935D01*
X147372065Y-130539638D01*
X147545632Y-130665742D01*
X147635943Y-130711758D01*
X147736784Y-130763140D01*
X147736786Y-130763140D01*
X147736789Y-130763142D01*
X147846160Y-130798678D01*
X147940829Y-130829439D01*
X148152725Y-130863000D01*
X148152730Y-130863000D01*
X148367275Y-130863000D01*
X148579170Y-130829439D01*
X148783211Y-130763142D01*
X148974368Y-130665742D01*
X149147935Y-130539638D01*
X149299638Y-130387935D01*
X149425742Y-130214368D01*
X149425742Y-130214367D01*
X149428606Y-130210426D01*
X149430090Y-130211504D01*
X149476081Y-130169893D01*
X149545010Y-130158468D01*
X149609174Y-130186123D01*
X149630680Y-130210944D01*
X149631394Y-130210426D01*
X149634257Y-130214367D01*
X149634258Y-130214368D01*
X149760362Y-130387935D01*
X149912065Y-130539638D01*
X150085632Y-130665742D01*
X150175943Y-130711758D01*
X150276784Y-130763140D01*
X150276786Y-130763140D01*
X150276789Y-130763142D01*
X150386160Y-130798678D01*
X150480829Y-130829439D01*
X150692725Y-130863000D01*
X150692730Y-130863000D01*
X150907275Y-130863000D01*
X151119170Y-130829439D01*
X151323211Y-130763142D01*
X151514368Y-130665742D01*
X151687935Y-130539638D01*
X151839638Y-130387935D01*
X151965742Y-130214368D01*
X151965742Y-130214367D01*
X151968606Y-130210426D01*
X151970090Y-130211504D01*
X152016081Y-130169893D01*
X152085010Y-130158468D01*
X152149174Y-130186123D01*
X152170680Y-130210944D01*
X152171394Y-130210426D01*
X152174257Y-130214367D01*
X152174258Y-130214368D01*
X152300362Y-130387935D01*
X152452065Y-130539638D01*
X152625632Y-130665742D01*
X152715943Y-130711758D01*
X152816784Y-130763140D01*
X152816786Y-130763140D01*
X152816789Y-130763142D01*
X152926160Y-130798678D01*
X153020829Y-130829439D01*
X153232725Y-130863000D01*
X153232730Y-130863000D01*
X153447275Y-130863000D01*
X153659170Y-130829439D01*
X153863211Y-130763142D01*
X154054368Y-130665742D01*
X154227935Y-130539638D01*
X154379638Y-130387935D01*
X154505742Y-130214368D01*
X154505742Y-130214367D01*
X154508606Y-130210426D01*
X154510090Y-130211504D01*
X154556081Y-130169893D01*
X154625010Y-130158468D01*
X154689174Y-130186123D01*
X154710680Y-130210944D01*
X154711394Y-130210426D01*
X154714257Y-130214367D01*
X154714258Y-130214368D01*
X154840362Y-130387935D01*
X154992065Y-130539638D01*
X155165632Y-130665742D01*
X155255943Y-130711758D01*
X155356784Y-130763140D01*
X155356786Y-130763140D01*
X155356789Y-130763142D01*
X155466160Y-130798678D01*
X155560829Y-130829439D01*
X155772725Y-130863000D01*
X155772730Y-130863000D01*
X155987275Y-130863000D01*
X156199170Y-130829439D01*
X156403211Y-130763142D01*
X156594368Y-130665742D01*
X156767935Y-130539638D01*
X156919638Y-130387935D01*
X157045742Y-130214368D01*
X157045742Y-130214367D01*
X157048606Y-130210426D01*
X157050090Y-130211504D01*
X157096081Y-130169893D01*
X157165010Y-130158468D01*
X157229174Y-130186123D01*
X157250680Y-130210944D01*
X157251394Y-130210426D01*
X157254257Y-130214367D01*
X157254258Y-130214368D01*
X157380362Y-130387935D01*
X157532065Y-130539638D01*
X157705632Y-130665742D01*
X157795943Y-130711758D01*
X157896784Y-130763140D01*
X157896786Y-130763140D01*
X157896789Y-130763142D01*
X158006160Y-130798678D01*
X158100829Y-130829439D01*
X158312725Y-130863000D01*
X158312730Y-130863000D01*
X158527275Y-130863000D01*
X158739170Y-130829439D01*
X158943211Y-130763142D01*
X159134368Y-130665742D01*
X159307935Y-130539638D01*
X159459638Y-130387935D01*
X159585742Y-130214368D01*
X159585742Y-130214367D01*
X159588606Y-130210426D01*
X159590090Y-130211504D01*
X159636081Y-130169893D01*
X159705010Y-130158468D01*
X159769174Y-130186123D01*
X159790680Y-130210944D01*
X159791394Y-130210426D01*
X159794257Y-130214367D01*
X159794258Y-130214368D01*
X159920362Y-130387935D01*
X160072065Y-130539638D01*
X160245632Y-130665742D01*
X160335943Y-130711758D01*
X160436784Y-130763140D01*
X160436786Y-130763140D01*
X160436789Y-130763142D01*
X160546160Y-130798678D01*
X160640829Y-130829439D01*
X160852725Y-130863000D01*
X160852730Y-130863000D01*
X161067275Y-130863000D01*
X161279170Y-130829439D01*
X161483211Y-130763142D01*
X161674368Y-130665742D01*
X161847935Y-130539638D01*
X161999638Y-130387935D01*
X162125742Y-130214368D01*
X162125742Y-130214367D01*
X162128606Y-130210426D01*
X162130090Y-130211504D01*
X162176081Y-130169893D01*
X162245010Y-130158468D01*
X162309174Y-130186123D01*
X162330680Y-130210944D01*
X162331394Y-130210426D01*
X162334257Y-130214367D01*
X162334258Y-130214368D01*
X162460362Y-130387935D01*
X162612065Y-130539638D01*
X162785632Y-130665742D01*
X162875943Y-130711758D01*
X162976784Y-130763140D01*
X162976786Y-130763140D01*
X162976789Y-130763142D01*
X163086160Y-130798678D01*
X163180829Y-130829439D01*
X163392725Y-130863000D01*
X163392730Y-130863000D01*
X163607275Y-130863000D01*
X163819170Y-130829439D01*
X164023211Y-130763142D01*
X164214368Y-130665742D01*
X164387935Y-130539638D01*
X164539638Y-130387935D01*
X164665742Y-130214368D01*
X164665742Y-130214367D01*
X164668606Y-130210426D01*
X164670090Y-130211504D01*
X164716081Y-130169893D01*
X164785010Y-130158468D01*
X164849174Y-130186123D01*
X164870680Y-130210944D01*
X164871394Y-130210426D01*
X164874257Y-130214367D01*
X164874258Y-130214368D01*
X165000362Y-130387935D01*
X165152065Y-130539638D01*
X165325632Y-130665742D01*
X165415943Y-130711758D01*
X165516784Y-130763140D01*
X165516786Y-130763140D01*
X165516789Y-130763142D01*
X165626160Y-130798678D01*
X165720829Y-130829439D01*
X165932725Y-130863000D01*
X165932730Y-130863000D01*
X166147275Y-130863000D01*
X166359170Y-130829439D01*
X166563211Y-130763142D01*
X166754368Y-130665742D01*
X166927935Y-130539638D01*
X167079638Y-130387935D01*
X167205742Y-130214368D01*
X167303142Y-130023211D01*
X167369439Y-129819170D01*
X167403000Y-129607275D01*
X167403000Y-129392724D01*
X167369439Y-129180829D01*
X167338678Y-129086160D01*
X167303142Y-128976789D01*
X167303140Y-128976786D01*
X167303140Y-128976784D01*
X167220123Y-128813856D01*
X167205742Y-128785632D01*
X167079638Y-128612065D01*
X166927935Y-128460362D01*
X166754368Y-128334258D01*
X166754367Y-128334257D01*
X166750426Y-128331394D01*
X166751407Y-128330042D01*
X166709407Y-128283615D01*
X166697988Y-128214684D01*
X166725649Y-128150523D01*
X166750660Y-128128858D01*
X166750165Y-128128177D01*
X166810665Y-128084219D01*
X166810666Y-128084219D01*
X166230646Y-127504200D01*
X166261942Y-127495815D01*
X166393058Y-127420115D01*
X166500115Y-127313058D01*
X166575815Y-127181942D01*
X166584200Y-127150647D01*
X167164219Y-127730666D01*
X167164219Y-127730665D01*
X167205314Y-127674105D01*
X167302676Y-127483020D01*
X167368951Y-127279049D01*
X167402500Y-127067236D01*
X167402500Y-126852763D01*
X167368951Y-126640950D01*
X167302675Y-126436976D01*
X167298814Y-126429397D01*
X167298813Y-126429396D01*
X167272612Y-126377973D01*
X171899500Y-126377973D01*
X171899500Y-126622026D01*
X171936045Y-126852763D01*
X171937679Y-126863076D01*
X172013096Y-127095185D01*
X172111157Y-127287642D01*
X172123896Y-127312642D01*
X172267339Y-127510076D01*
X172267343Y-127510081D01*
X172439918Y-127682656D01*
X172439923Y-127682660D01*
X172602947Y-127801103D01*
X172637361Y-127826106D01*
X172854815Y-127936904D01*
X173086924Y-128012321D01*
X173327973Y-128050500D01*
X173327974Y-128050500D01*
X175672026Y-128050500D01*
X175672027Y-128050500D01*
X175913076Y-128012321D01*
X176145185Y-127936904D01*
X176362639Y-127826106D01*
X176560083Y-127682655D01*
X176732655Y-127510083D01*
X176876106Y-127312639D01*
X176986904Y-127095185D01*
X177062321Y-126863076D01*
X177100500Y-126622027D01*
X177100500Y-126377973D01*
X181399500Y-126377973D01*
X181399500Y-126622026D01*
X181436045Y-126852763D01*
X181437679Y-126863076D01*
X181513096Y-127095185D01*
X181611157Y-127287642D01*
X181623896Y-127312642D01*
X181767339Y-127510076D01*
X181767343Y-127510081D01*
X181939918Y-127682656D01*
X181939923Y-127682660D01*
X182102947Y-127801103D01*
X182137361Y-127826106D01*
X182354815Y-127936904D01*
X182586924Y-128012321D01*
X182827973Y-128050500D01*
X182827974Y-128050500D01*
X185172026Y-128050500D01*
X185172027Y-128050500D01*
X185413076Y-128012321D01*
X185645185Y-127936904D01*
X185862639Y-127826106D01*
X186060083Y-127682655D01*
X186232655Y-127510083D01*
X186376106Y-127312639D01*
X186486904Y-127095185D01*
X186562321Y-126863076D01*
X186600500Y-126622027D01*
X186600500Y-126377973D01*
X186562321Y-126136924D01*
X186486904Y-125904815D01*
X186376106Y-125687361D01*
X186334838Y-125630560D01*
X186232660Y-125489923D01*
X186232656Y-125489918D01*
X186060081Y-125317343D01*
X186060076Y-125317339D01*
X185862642Y-125173896D01*
X185862641Y-125173895D01*
X185862639Y-125173894D01*
X185645185Y-125063096D01*
X185413076Y-124987679D01*
X185413074Y-124987678D01*
X185413072Y-124987678D01*
X185244769Y-124961021D01*
X185172027Y-124949500D01*
X182827973Y-124949500D01*
X182772093Y-124958350D01*
X182586927Y-124987678D01*
X182354812Y-125063097D01*
X182137357Y-125173896D01*
X181939923Y-125317339D01*
X181939918Y-125317343D01*
X181767343Y-125489918D01*
X181767339Y-125489923D01*
X181623896Y-125687357D01*
X181513097Y-125904812D01*
X181437678Y-126136927D01*
X181399500Y-126377973D01*
X177100500Y-126377973D01*
X177062321Y-126136924D01*
X176986904Y-125904815D01*
X176876106Y-125687361D01*
X176834838Y-125630560D01*
X176732660Y-125489923D01*
X176732656Y-125489918D01*
X176560081Y-125317343D01*
X176560076Y-125317339D01*
X176362642Y-125173896D01*
X176362641Y-125173895D01*
X176362639Y-125173894D01*
X176145185Y-125063096D01*
X175913076Y-124987679D01*
X175913074Y-124987678D01*
X175913072Y-124987678D01*
X175744769Y-124961021D01*
X175672027Y-124949500D01*
X173327973Y-124949500D01*
X173272093Y-124958350D01*
X173086927Y-124987678D01*
X172854812Y-125063097D01*
X172637357Y-125173896D01*
X172439923Y-125317339D01*
X172439918Y-125317343D01*
X172267343Y-125489918D01*
X172267339Y-125489923D01*
X172123896Y-125687357D01*
X172013097Y-125904812D01*
X171937678Y-126136927D01*
X171899500Y-126377973D01*
X167272612Y-126377973D01*
X167205313Y-126245893D01*
X167164219Y-126189333D01*
X167164219Y-126189332D01*
X166584200Y-126769352D01*
X166575815Y-126738058D01*
X166500115Y-126606942D01*
X166393058Y-126499885D01*
X166261942Y-126424185D01*
X166230646Y-126415799D01*
X166810666Y-125835779D01*
X166810665Y-125835778D01*
X166754110Y-125794688D01*
X166563020Y-125697323D01*
X166359049Y-125631048D01*
X166147236Y-125597500D01*
X165932764Y-125597500D01*
X165720950Y-125631048D01*
X165516979Y-125697323D01*
X165325892Y-125794687D01*
X165269333Y-125835778D01*
X165269333Y-125835779D01*
X165849353Y-126415799D01*
X165818058Y-126424185D01*
X165686942Y-126499885D01*
X165579885Y-126606942D01*
X165504185Y-126738058D01*
X165495799Y-126769352D01*
X164915779Y-126189333D01*
X164915778Y-126189333D01*
X164871823Y-126249835D01*
X164870535Y-126248899D01*
X164823889Y-126291082D01*
X164754957Y-126302488D01*
X164690800Y-126274816D01*
X164668779Y-126249398D01*
X164668178Y-126249836D01*
X164624219Y-126189333D01*
X164624219Y-126189332D01*
X164044200Y-126769352D01*
X164035815Y-126738058D01*
X163960115Y-126606942D01*
X163853058Y-126499885D01*
X163721942Y-126424185D01*
X163690646Y-126415799D01*
X164270666Y-125835779D01*
X164270665Y-125835778D01*
X164214110Y-125794688D01*
X164023020Y-125697323D01*
X163819049Y-125631048D01*
X163607236Y-125597500D01*
X163392764Y-125597500D01*
X163180950Y-125631048D01*
X162976979Y-125697323D01*
X162785892Y-125794687D01*
X162729333Y-125835778D01*
X162729333Y-125835779D01*
X163309353Y-126415799D01*
X163278058Y-126424185D01*
X163146942Y-126499885D01*
X163039885Y-126606942D01*
X162964185Y-126738058D01*
X162955799Y-126769352D01*
X162375779Y-126189333D01*
X162375778Y-126189333D01*
X162331823Y-126249835D01*
X162330535Y-126248899D01*
X162283889Y-126291082D01*
X162214957Y-126302488D01*
X162150800Y-126274816D01*
X162128779Y-126249398D01*
X162128178Y-126249836D01*
X162084219Y-126189333D01*
X162084219Y-126189332D01*
X161504200Y-126769352D01*
X161495815Y-126738058D01*
X161420115Y-126606942D01*
X161313058Y-126499885D01*
X161181942Y-126424185D01*
X161150646Y-126415799D01*
X161730666Y-125835779D01*
X161730665Y-125835778D01*
X161674110Y-125794688D01*
X161483020Y-125697323D01*
X161279049Y-125631048D01*
X161067236Y-125597500D01*
X160852764Y-125597500D01*
X160640950Y-125631048D01*
X160436979Y-125697323D01*
X160245892Y-125794687D01*
X160189333Y-125835778D01*
X160189333Y-125835779D01*
X160769353Y-126415799D01*
X160738058Y-126424185D01*
X160606942Y-126499885D01*
X160499885Y-126606942D01*
X160424185Y-126738058D01*
X160415799Y-126769353D01*
X159835779Y-126189333D01*
X159835778Y-126189333D01*
X159791823Y-126249835D01*
X159790535Y-126248899D01*
X159743889Y-126291082D01*
X159674957Y-126302488D01*
X159610800Y-126274816D01*
X159588779Y-126249398D01*
X159588178Y-126249836D01*
X159544219Y-126189333D01*
X159544219Y-126189332D01*
X158964200Y-126769352D01*
X158955815Y-126738058D01*
X158880115Y-126606942D01*
X158773058Y-126499885D01*
X158641942Y-126424185D01*
X158610646Y-126415799D01*
X159190666Y-125835779D01*
X159190665Y-125835778D01*
X159134110Y-125794688D01*
X158943020Y-125697323D01*
X158739049Y-125631048D01*
X158527236Y-125597500D01*
X158312764Y-125597500D01*
X158100950Y-125631048D01*
X157896979Y-125697323D01*
X157705892Y-125794687D01*
X157649333Y-125835778D01*
X157649333Y-125835779D01*
X158229353Y-126415799D01*
X158198058Y-126424185D01*
X158066942Y-126499885D01*
X157959885Y-126606942D01*
X157884185Y-126738058D01*
X157875799Y-126769353D01*
X157295779Y-126189333D01*
X157295778Y-126189333D01*
X157251823Y-126249835D01*
X157250535Y-126248899D01*
X157203889Y-126291082D01*
X157134957Y-126302488D01*
X157070800Y-126274816D01*
X157048779Y-126249398D01*
X157048178Y-126249836D01*
X157004219Y-126189333D01*
X157004219Y-126189332D01*
X156424200Y-126769352D01*
X156415815Y-126738058D01*
X156340115Y-126606942D01*
X156233058Y-126499885D01*
X156101942Y-126424185D01*
X156070646Y-126415799D01*
X156650666Y-125835779D01*
X156650665Y-125835778D01*
X156594110Y-125794688D01*
X156403020Y-125697323D01*
X156199049Y-125631048D01*
X155987236Y-125597500D01*
X155772764Y-125597500D01*
X155560950Y-125631048D01*
X155356979Y-125697323D01*
X155165892Y-125794687D01*
X155109333Y-125835778D01*
X155109333Y-125835779D01*
X155689353Y-126415799D01*
X155658058Y-126424185D01*
X155526942Y-126499885D01*
X155419885Y-126606942D01*
X155344185Y-126738058D01*
X155335799Y-126769353D01*
X154755779Y-126189333D01*
X154755778Y-126189333D01*
X154711823Y-126249835D01*
X154710535Y-126248899D01*
X154663889Y-126291082D01*
X154594957Y-126302488D01*
X154530800Y-126274816D01*
X154508779Y-126249398D01*
X154508178Y-126249836D01*
X154464219Y-126189333D01*
X154464219Y-126189332D01*
X153884200Y-126769352D01*
X153875815Y-126738058D01*
X153800115Y-126606942D01*
X153693058Y-126499885D01*
X153561942Y-126424185D01*
X153530646Y-126415799D01*
X154110666Y-125835779D01*
X154110665Y-125835778D01*
X154054110Y-125794688D01*
X153863020Y-125697323D01*
X153659049Y-125631048D01*
X153447236Y-125597500D01*
X153232764Y-125597500D01*
X153020950Y-125631048D01*
X152816979Y-125697323D01*
X152625892Y-125794687D01*
X152569333Y-125835778D01*
X152569333Y-125835779D01*
X153149353Y-126415799D01*
X153118058Y-126424185D01*
X152986942Y-126499885D01*
X152879885Y-126606942D01*
X152804185Y-126738058D01*
X152795799Y-126769352D01*
X152215779Y-126189333D01*
X152215778Y-126189333D01*
X152171823Y-126249835D01*
X152170535Y-126248899D01*
X152123889Y-126291082D01*
X152054957Y-126302488D01*
X151990800Y-126274816D01*
X151968779Y-126249398D01*
X151968178Y-126249836D01*
X151924219Y-126189333D01*
X151924219Y-126189332D01*
X151344200Y-126769352D01*
X151335815Y-126738058D01*
X151260115Y-126606942D01*
X151153058Y-126499885D01*
X151021942Y-126424185D01*
X150990646Y-126415799D01*
X151570666Y-125835779D01*
X151570665Y-125835778D01*
X151514110Y-125794688D01*
X151323020Y-125697323D01*
X151119049Y-125631048D01*
X150907236Y-125597500D01*
X150692764Y-125597500D01*
X150480950Y-125631048D01*
X150276979Y-125697323D01*
X150085892Y-125794687D01*
X150029333Y-125835778D01*
X150029333Y-125835779D01*
X150609353Y-126415799D01*
X150578058Y-126424185D01*
X150446942Y-126499885D01*
X150339885Y-126606942D01*
X150264185Y-126738058D01*
X150255799Y-126769353D01*
X149675779Y-126189333D01*
X149675778Y-126189333D01*
X149631823Y-126249835D01*
X149630535Y-126248899D01*
X149583889Y-126291082D01*
X149514957Y-126302488D01*
X149450800Y-126274816D01*
X149428779Y-126249398D01*
X149428178Y-126249836D01*
X149384219Y-126189333D01*
X149384219Y-126189332D01*
X148804200Y-126769352D01*
X148795815Y-126738058D01*
X148720115Y-126606942D01*
X148613058Y-126499885D01*
X148481942Y-126424185D01*
X148450646Y-126415799D01*
X149030666Y-125835779D01*
X149030665Y-125835778D01*
X148974110Y-125794688D01*
X148783020Y-125697323D01*
X148579049Y-125631048D01*
X148367236Y-125597500D01*
X148152764Y-125597500D01*
X147940950Y-125631048D01*
X147736979Y-125697323D01*
X147545892Y-125794687D01*
X147489333Y-125835778D01*
X147489333Y-125835779D01*
X148069353Y-126415799D01*
X148038058Y-126424185D01*
X147906942Y-126499885D01*
X147799885Y-126606942D01*
X147724185Y-126738058D01*
X147715799Y-126769353D01*
X147135779Y-126189333D01*
X147135778Y-126189333D01*
X147091823Y-126249835D01*
X147090535Y-126248899D01*
X147043889Y-126291082D01*
X146974957Y-126302488D01*
X146910800Y-126274816D01*
X146888779Y-126249398D01*
X146888178Y-126249836D01*
X146844219Y-126189333D01*
X146844219Y-126189332D01*
X146264200Y-126769352D01*
X146255815Y-126738058D01*
X146180115Y-126606942D01*
X146073058Y-126499885D01*
X145941942Y-126424185D01*
X145910646Y-126415799D01*
X146490666Y-125835779D01*
X146490665Y-125835778D01*
X146434110Y-125794688D01*
X146243020Y-125697323D01*
X146039049Y-125631048D01*
X145827236Y-125597500D01*
X145612764Y-125597500D01*
X145400950Y-125631048D01*
X145196979Y-125697323D01*
X145005892Y-125794687D01*
X144949333Y-125835778D01*
X144949333Y-125835779D01*
X145529353Y-126415799D01*
X145498058Y-126424185D01*
X145366942Y-126499885D01*
X145259885Y-126606942D01*
X145184185Y-126738058D01*
X145175799Y-126769352D01*
X144595779Y-126189333D01*
X144595778Y-126189333D01*
X144551823Y-126249835D01*
X144550407Y-126248806D01*
X144504171Y-126290608D01*
X144435237Y-126302006D01*
X144371084Y-126274327D01*
X144349243Y-126249110D01*
X144348606Y-126249574D01*
X144304838Y-126189333D01*
X144219638Y-126072065D01*
X144067935Y-125920362D01*
X143894368Y-125794258D01*
X143703215Y-125696859D01*
X143499170Y-125630560D01*
X143287275Y-125597000D01*
X143287270Y-125597000D01*
X143072730Y-125597000D01*
X143072725Y-125597000D01*
X142860829Y-125630560D01*
X142656784Y-125696859D01*
X142465631Y-125794258D01*
X142408483Y-125835779D01*
X142292065Y-125920362D01*
X142292063Y-125920364D01*
X142292062Y-125920364D01*
X142140364Y-126072062D01*
X142140364Y-126072063D01*
X142140362Y-126072065D01*
X142111403Y-126111924D01*
X142014258Y-126245631D01*
X141916859Y-126436784D01*
X141850560Y-126640829D01*
X141817000Y-126852724D01*
X138057562Y-126852724D01*
X138062321Y-126838076D01*
X138100500Y-126597027D01*
X138100500Y-126352973D01*
X138062321Y-126111924D01*
X137986904Y-125879815D01*
X137876106Y-125662361D01*
X137750823Y-125489923D01*
X137732660Y-125464923D01*
X137732656Y-125464918D01*
X137560081Y-125292343D01*
X137560076Y-125292339D01*
X137362642Y-125148896D01*
X137362641Y-125148895D01*
X137362639Y-125148894D01*
X137145185Y-125038096D01*
X136913076Y-124962679D01*
X136913074Y-124962678D01*
X136913072Y-124962678D01*
X136744769Y-124936021D01*
X136672027Y-124924500D01*
X134327973Y-124924500D01*
X134272093Y-124933350D01*
X134086927Y-124962678D01*
X133854812Y-125038097D01*
X133637357Y-125148896D01*
X133439923Y-125292339D01*
X133439918Y-125292343D01*
X133267343Y-125464918D01*
X133267339Y-125464923D01*
X133123896Y-125662357D01*
X133013097Y-125879812D01*
X132937678Y-126111927D01*
X132907496Y-126302488D01*
X132899500Y-126352973D01*
X128600500Y-126352973D01*
X128562321Y-126111924D01*
X128486904Y-125879815D01*
X128376106Y-125662361D01*
X128250823Y-125489923D01*
X128232660Y-125464923D01*
X128232656Y-125464918D01*
X128060081Y-125292343D01*
X128060076Y-125292339D01*
X127862642Y-125148896D01*
X127862641Y-125148895D01*
X127862639Y-125148894D01*
X127645185Y-125038096D01*
X127413076Y-124962679D01*
X127413074Y-124962678D01*
X127413072Y-124962678D01*
X127244769Y-124936021D01*
X127172027Y-124924500D01*
X124827973Y-124924500D01*
X124772093Y-124933350D01*
X124586927Y-124962678D01*
X124354812Y-125038097D01*
X124137357Y-125148896D01*
X123939923Y-125292339D01*
X123939918Y-125292343D01*
X123767343Y-125464918D01*
X123767339Y-125464923D01*
X123623896Y-125662357D01*
X123513097Y-125879812D01*
X123437678Y-126111927D01*
X123407496Y-126302488D01*
X123399500Y-126352973D01*
X114000500Y-126352973D01*
X114000500Y-120671153D01*
X177449500Y-120671153D01*
X177449500Y-120828846D01*
X177480261Y-120983489D01*
X177480264Y-120983501D01*
X177540602Y-121129172D01*
X177540609Y-121129185D01*
X177628210Y-121260288D01*
X177628213Y-121260292D01*
X177739707Y-121371786D01*
X177739711Y-121371789D01*
X177870814Y-121459390D01*
X177870827Y-121459397D01*
X178016498Y-121519735D01*
X178016503Y-121519737D01*
X178171153Y-121550499D01*
X178171156Y-121550500D01*
X178171158Y-121550500D01*
X178328844Y-121550500D01*
X178328845Y-121550499D01*
X178483497Y-121519737D01*
X178629179Y-121459394D01*
X178760289Y-121371789D01*
X178871789Y-121260289D01*
X178959394Y-121129179D01*
X179019737Y-120983497D01*
X179050500Y-120828842D01*
X179050500Y-120671158D01*
X179050500Y-120671155D01*
X179050499Y-120671153D01*
X179019738Y-120516510D01*
X179019737Y-120516503D01*
X178980242Y-120421153D01*
X183449500Y-120421153D01*
X183449500Y-120578846D01*
X183480261Y-120733489D01*
X183480264Y-120733501D01*
X183540602Y-120879172D01*
X183540609Y-120879185D01*
X183628210Y-121010288D01*
X183628213Y-121010292D01*
X183739707Y-121121786D01*
X183739711Y-121121789D01*
X183870814Y-121209390D01*
X183870827Y-121209397D01*
X184016498Y-121269735D01*
X184016503Y-121269737D01*
X184171153Y-121300499D01*
X184171156Y-121300500D01*
X184171158Y-121300500D01*
X184328844Y-121300500D01*
X184328845Y-121300499D01*
X184483497Y-121269737D01*
X184629179Y-121209394D01*
X184760289Y-121121789D01*
X184871789Y-121010289D01*
X184959394Y-120879179D01*
X185019737Y-120733497D01*
X185050500Y-120578842D01*
X185050500Y-120421158D01*
X185050500Y-120421155D01*
X185050499Y-120421153D01*
X185019738Y-120266510D01*
X185019737Y-120266503D01*
X185019735Y-120266498D01*
X184959397Y-120120827D01*
X184959390Y-120120814D01*
X184871789Y-119989711D01*
X184871786Y-119989707D01*
X184760292Y-119878213D01*
X184760288Y-119878210D01*
X184629185Y-119790609D01*
X184629172Y-119790602D01*
X184483501Y-119730264D01*
X184483489Y-119730261D01*
X184328845Y-119699500D01*
X184328842Y-119699500D01*
X184171158Y-119699500D01*
X184171155Y-119699500D01*
X184016510Y-119730261D01*
X184016498Y-119730264D01*
X183870827Y-119790602D01*
X183870814Y-119790609D01*
X183739711Y-119878210D01*
X183739707Y-119878213D01*
X183628213Y-119989707D01*
X183628210Y-119989711D01*
X183540609Y-120120814D01*
X183540602Y-120120827D01*
X183480264Y-120266498D01*
X183480261Y-120266510D01*
X183449500Y-120421153D01*
X178980242Y-120421153D01*
X178979933Y-120420408D01*
X178959397Y-120370827D01*
X178959390Y-120370814D01*
X178871789Y-120239711D01*
X178871786Y-120239707D01*
X178760292Y-120128213D01*
X178760288Y-120128210D01*
X178629185Y-120040609D01*
X178629172Y-120040602D01*
X178483501Y-119980264D01*
X178483489Y-119980261D01*
X178328845Y-119949500D01*
X178328842Y-119949500D01*
X178171158Y-119949500D01*
X178171155Y-119949500D01*
X178016510Y-119980261D01*
X178016498Y-119980264D01*
X177870827Y-120040602D01*
X177870814Y-120040609D01*
X177739711Y-120128210D01*
X177739707Y-120128213D01*
X177628213Y-120239707D01*
X177628210Y-120239711D01*
X177540609Y-120370814D01*
X177540602Y-120370827D01*
X177480264Y-120516498D01*
X177480261Y-120516510D01*
X177449500Y-120671153D01*
X114000500Y-120671153D01*
X114000500Y-119171153D01*
X186449500Y-119171153D01*
X186449500Y-119328846D01*
X186480261Y-119483489D01*
X186480264Y-119483501D01*
X186540602Y-119629172D01*
X186540609Y-119629185D01*
X186628210Y-119760288D01*
X186628213Y-119760292D01*
X186739707Y-119871786D01*
X186739711Y-119871789D01*
X186870814Y-119959390D01*
X186870827Y-119959397D01*
X186944013Y-119989711D01*
X187016503Y-120019737D01*
X187171153Y-120050499D01*
X187171156Y-120050500D01*
X187171158Y-120050500D01*
X187328844Y-120050500D01*
X187328845Y-120050499D01*
X187483497Y-120019737D01*
X187629179Y-119959394D01*
X187760289Y-119871789D01*
X187871789Y-119760289D01*
X187959394Y-119629179D01*
X188019737Y-119483497D01*
X188050500Y-119328842D01*
X188050500Y-119171158D01*
X188050500Y-119171155D01*
X188050499Y-119171153D01*
X188019738Y-119016510D01*
X188019737Y-119016503D01*
X188019735Y-119016498D01*
X187959397Y-118870827D01*
X187959390Y-118870814D01*
X187871789Y-118739711D01*
X187871786Y-118739707D01*
X187760292Y-118628213D01*
X187760288Y-118628210D01*
X187629185Y-118540609D01*
X187629172Y-118540602D01*
X187483501Y-118480264D01*
X187483489Y-118480261D01*
X187328845Y-118449500D01*
X187328842Y-118449500D01*
X187171158Y-118449500D01*
X187171155Y-118449500D01*
X187016510Y-118480261D01*
X187016498Y-118480264D01*
X186870827Y-118540602D01*
X186870814Y-118540609D01*
X186739711Y-118628210D01*
X186739707Y-118628213D01*
X186628213Y-118739707D01*
X186628210Y-118739711D01*
X186540609Y-118870814D01*
X186540602Y-118870827D01*
X186480264Y-119016498D01*
X186480261Y-119016510D01*
X186449500Y-119171153D01*
X114000500Y-119171153D01*
X114000500Y-117421153D01*
X143949500Y-117421153D01*
X143949500Y-117578846D01*
X143980261Y-117733489D01*
X143980264Y-117733501D01*
X144040602Y-117879172D01*
X144040609Y-117879185D01*
X144128210Y-118010288D01*
X144128213Y-118010292D01*
X144239707Y-118121786D01*
X144239711Y-118121789D01*
X144370814Y-118209390D01*
X144370827Y-118209397D01*
X144516498Y-118269735D01*
X144516503Y-118269737D01*
X144671153Y-118300499D01*
X144671156Y-118300500D01*
X144671158Y-118300500D01*
X144828844Y-118300500D01*
X144828845Y-118300499D01*
X144983497Y-118269737D01*
X145129179Y-118209394D01*
X145260289Y-118121789D01*
X145371789Y-118010289D01*
X145459394Y-117879179D01*
X145519737Y-117733497D01*
X145550500Y-117578842D01*
X145550500Y-117421158D01*
X145550500Y-117421155D01*
X145550499Y-117421153D01*
X145519738Y-117266510D01*
X145519737Y-117266503D01*
X145517163Y-117260288D01*
X145459397Y-117120827D01*
X145459390Y-117120814D01*
X145371789Y-116989711D01*
X145371786Y-116989707D01*
X145260292Y-116878213D01*
X145260288Y-116878210D01*
X145129185Y-116790609D01*
X145129173Y-116790602D01*
X145102674Y-116779627D01*
X144983501Y-116730264D01*
X144983489Y-116730261D01*
X144828845Y-116699500D01*
X144828842Y-116699500D01*
X144671158Y-116699500D01*
X144671155Y-116699500D01*
X144516510Y-116730261D01*
X144516498Y-116730264D01*
X144370827Y-116790602D01*
X144370814Y-116790609D01*
X144239711Y-116878210D01*
X144239707Y-116878213D01*
X144128213Y-116989707D01*
X144128210Y-116989711D01*
X144040609Y-117120814D01*
X144040602Y-117120827D01*
X143980264Y-117266498D01*
X143980261Y-117266510D01*
X143949500Y-117421153D01*
X114000500Y-117421153D01*
X114000500Y-116671153D01*
X146199500Y-116671153D01*
X146199500Y-116828846D01*
X146230261Y-116983489D01*
X146230264Y-116983501D01*
X146290602Y-117129172D01*
X146290609Y-117129185D01*
X146378210Y-117260288D01*
X146378213Y-117260292D01*
X146489707Y-117371786D01*
X146489711Y-117371789D01*
X146620814Y-117459390D01*
X146620827Y-117459397D01*
X146766498Y-117519735D01*
X146766503Y-117519737D01*
X146921153Y-117550499D01*
X146921156Y-117550500D01*
X146921158Y-117550500D01*
X147078844Y-117550500D01*
X147078845Y-117550499D01*
X147233497Y-117519737D01*
X147379179Y-117459394D01*
X147510289Y-117371789D01*
X147621789Y-117260289D01*
X147709394Y-117129179D01*
X147712854Y-117120827D01*
X147767163Y-116989711D01*
X147769737Y-116983497D01*
X147800500Y-116828842D01*
X147800500Y-116671158D01*
X147800500Y-116671155D01*
X147800499Y-116671153D01*
X147769738Y-116516510D01*
X147769737Y-116516503D01*
X147769735Y-116516498D01*
X147709397Y-116370827D01*
X147709390Y-116370814D01*
X147621789Y-116239711D01*
X147621786Y-116239707D01*
X147510292Y-116128213D01*
X147510288Y-116128210D01*
X147379185Y-116040609D01*
X147379172Y-116040602D01*
X147233501Y-115980264D01*
X147233489Y-115980261D01*
X147078845Y-115949500D01*
X147078842Y-115949500D01*
X146921158Y-115949500D01*
X146921155Y-115949500D01*
X146766510Y-115980261D01*
X146766498Y-115980264D01*
X146620827Y-116040602D01*
X146620814Y-116040609D01*
X146489711Y-116128210D01*
X146489707Y-116128213D01*
X146378213Y-116239707D01*
X146378210Y-116239711D01*
X146290609Y-116370814D01*
X146290602Y-116370827D01*
X146230264Y-116516498D01*
X146230261Y-116516510D01*
X146199500Y-116671153D01*
X114000500Y-116671153D01*
X114000500Y-115421153D01*
X139449500Y-115421153D01*
X139449500Y-115578846D01*
X139480261Y-115733489D01*
X139480264Y-115733501D01*
X139540602Y-115879172D01*
X139540609Y-115879185D01*
X139628210Y-116010288D01*
X139628213Y-116010292D01*
X139739707Y-116121786D01*
X139739711Y-116121789D01*
X139870814Y-116209390D01*
X139870827Y-116209397D01*
X139944013Y-116239711D01*
X140016503Y-116269737D01*
X140171153Y-116300499D01*
X140171156Y-116300500D01*
X140171158Y-116300500D01*
X140328844Y-116300500D01*
X140328845Y-116300499D01*
X140483497Y-116269737D01*
X140629179Y-116209394D01*
X140760289Y-116121789D01*
X140871789Y-116010289D01*
X140959394Y-115879179D01*
X141019737Y-115733497D01*
X141050500Y-115578842D01*
X141050500Y-115421158D01*
X141050500Y-115421155D01*
X141050499Y-115421153D01*
X141019738Y-115266510D01*
X141019737Y-115266503D01*
X140982043Y-115175500D01*
X140959397Y-115120827D01*
X140959390Y-115120814D01*
X140871789Y-114989711D01*
X140871786Y-114989707D01*
X140760292Y-114878213D01*
X140760288Y-114878210D01*
X140629185Y-114790609D01*
X140629172Y-114790602D01*
X140483501Y-114730264D01*
X140483489Y-114730261D01*
X140328845Y-114699500D01*
X140328842Y-114699500D01*
X140171158Y-114699500D01*
X140171155Y-114699500D01*
X140016510Y-114730261D01*
X140016498Y-114730264D01*
X139870827Y-114790602D01*
X139870814Y-114790609D01*
X139739711Y-114878210D01*
X139739707Y-114878213D01*
X139628213Y-114989707D01*
X139628210Y-114989711D01*
X139540609Y-115120814D01*
X139540602Y-115120827D01*
X139480264Y-115266498D01*
X139480261Y-115266510D01*
X139449500Y-115421153D01*
X114000500Y-115421153D01*
X114000500Y-114296153D01*
X160574500Y-114296153D01*
X160574500Y-114453846D01*
X160605261Y-114608489D01*
X160605264Y-114608501D01*
X160665602Y-114754172D01*
X160665609Y-114754185D01*
X160753210Y-114885288D01*
X160753213Y-114885292D01*
X160864707Y-114996786D01*
X160864711Y-114996789D01*
X160995814Y-115084390D01*
X160995827Y-115084397D01*
X161141498Y-115144735D01*
X161141503Y-115144737D01*
X161296153Y-115175499D01*
X161296156Y-115175500D01*
X161296158Y-115175500D01*
X161453844Y-115175500D01*
X161453845Y-115175499D01*
X161608497Y-115144737D01*
X161754179Y-115084394D01*
X161885289Y-114996789D01*
X161996789Y-114885289D01*
X162084394Y-114754179D01*
X162144737Y-114608497D01*
X162175500Y-114453842D01*
X162175500Y-114421153D01*
X179949500Y-114421153D01*
X179949500Y-114578846D01*
X179980261Y-114733489D01*
X179980264Y-114733501D01*
X180040602Y-114879172D01*
X180040609Y-114879185D01*
X180128210Y-115010288D01*
X180128213Y-115010292D01*
X180239707Y-115121786D01*
X180239711Y-115121789D01*
X180370814Y-115209390D01*
X180370827Y-115209397D01*
X180508683Y-115266498D01*
X180516503Y-115269737D01*
X180671153Y-115300499D01*
X180671156Y-115300500D01*
X180671158Y-115300500D01*
X180828844Y-115300500D01*
X180828845Y-115300499D01*
X180983497Y-115269737D01*
X181129179Y-115209394D01*
X181260289Y-115121789D01*
X181371789Y-115010289D01*
X181459394Y-114879179D01*
X181519737Y-114733497D01*
X181532138Y-114671153D01*
X182699500Y-114671153D01*
X182699500Y-114828846D01*
X182730261Y-114983489D01*
X182730264Y-114983501D01*
X182790602Y-115129172D01*
X182790609Y-115129185D01*
X182878210Y-115260288D01*
X182878213Y-115260292D01*
X182989707Y-115371786D01*
X182989711Y-115371789D01*
X183120814Y-115459390D01*
X183120827Y-115459397D01*
X183266498Y-115519735D01*
X183266503Y-115519737D01*
X183421153Y-115550499D01*
X183421156Y-115550500D01*
X183421158Y-115550500D01*
X183578844Y-115550500D01*
X183578845Y-115550499D01*
X183733497Y-115519737D01*
X183879179Y-115459394D01*
X184010289Y-115371789D01*
X184121789Y-115260289D01*
X184209394Y-115129179D01*
X184212854Y-115120827D01*
X184264231Y-114996789D01*
X184269737Y-114983497D01*
X184300500Y-114828842D01*
X184300500Y-114671158D01*
X184300500Y-114671155D01*
X184300499Y-114671153D01*
X184269738Y-114516510D01*
X184269737Y-114516503D01*
X184230242Y-114421153D01*
X184209397Y-114370827D01*
X184209390Y-114370814D01*
X184121789Y-114239711D01*
X184121786Y-114239707D01*
X184010292Y-114128213D01*
X184010288Y-114128210D01*
X183879185Y-114040609D01*
X183879172Y-114040602D01*
X183733501Y-113980264D01*
X183733489Y-113980261D01*
X183578845Y-113949500D01*
X183578842Y-113949500D01*
X183421158Y-113949500D01*
X183421155Y-113949500D01*
X183266510Y-113980261D01*
X183266498Y-113980264D01*
X183120827Y-114040602D01*
X183120814Y-114040609D01*
X182989711Y-114128210D01*
X182989707Y-114128213D01*
X182878213Y-114239707D01*
X182878210Y-114239711D01*
X182790609Y-114370814D01*
X182790602Y-114370827D01*
X182730264Y-114516498D01*
X182730261Y-114516510D01*
X182699500Y-114671153D01*
X181532138Y-114671153D01*
X181538161Y-114640874D01*
X181550500Y-114578844D01*
X181550500Y-114421155D01*
X181550499Y-114421153D01*
X181540486Y-114370814D01*
X181519737Y-114266503D01*
X181519735Y-114266498D01*
X181459397Y-114120827D01*
X181459390Y-114120814D01*
X181371789Y-113989711D01*
X181371786Y-113989707D01*
X181260292Y-113878213D01*
X181260288Y-113878210D01*
X181129185Y-113790609D01*
X181129172Y-113790602D01*
X180983501Y-113730264D01*
X180983489Y-113730261D01*
X180828845Y-113699500D01*
X180828842Y-113699500D01*
X180671158Y-113699500D01*
X180671155Y-113699500D01*
X180516510Y-113730261D01*
X180516498Y-113730264D01*
X180370827Y-113790602D01*
X180370814Y-113790609D01*
X180239711Y-113878210D01*
X180239707Y-113878213D01*
X180128213Y-113989707D01*
X180128210Y-113989711D01*
X180040609Y-114120814D01*
X180040602Y-114120827D01*
X179980264Y-114266498D01*
X179980261Y-114266510D01*
X179949500Y-114421153D01*
X162175500Y-114421153D01*
X162175500Y-114296158D01*
X162175500Y-114296155D01*
X162175499Y-114296153D01*
X162144738Y-114141510D01*
X162144737Y-114141503D01*
X162136170Y-114120821D01*
X162084397Y-113995827D01*
X162084390Y-113995814D01*
X161996789Y-113864711D01*
X161996786Y-113864707D01*
X161885292Y-113753213D01*
X161885288Y-113753210D01*
X161754185Y-113665609D01*
X161754172Y-113665602D01*
X161608501Y-113605264D01*
X161608489Y-113605261D01*
X161453845Y-113574500D01*
X161453842Y-113574500D01*
X161296158Y-113574500D01*
X161296155Y-113574500D01*
X161141510Y-113605261D01*
X161141498Y-113605264D01*
X160995827Y-113665602D01*
X160995814Y-113665609D01*
X160864711Y-113753210D01*
X160864707Y-113753213D01*
X160753213Y-113864707D01*
X160753210Y-113864711D01*
X160665609Y-113995814D01*
X160665602Y-113995827D01*
X160605264Y-114141498D01*
X160605261Y-114141510D01*
X160574500Y-114296153D01*
X114000500Y-114296153D01*
X114000500Y-110421153D01*
X132449500Y-110421153D01*
X132449500Y-110578846D01*
X132480261Y-110733489D01*
X132480264Y-110733501D01*
X132540602Y-110879172D01*
X132540609Y-110879185D01*
X132628210Y-111010288D01*
X132628213Y-111010292D01*
X132739707Y-111121786D01*
X132739711Y-111121789D01*
X132870814Y-111209390D01*
X132870827Y-111209397D01*
X133016498Y-111269735D01*
X133016503Y-111269737D01*
X133171153Y-111300499D01*
X133171156Y-111300500D01*
X133171158Y-111300500D01*
X133328844Y-111300500D01*
X133328845Y-111300499D01*
X133483497Y-111269737D01*
X133629179Y-111209394D01*
X133760289Y-111121789D01*
X133871789Y-111010289D01*
X133959394Y-110879179D01*
X134019737Y-110733497D01*
X134050500Y-110578842D01*
X134050500Y-110421158D01*
X134050500Y-110421155D01*
X134050499Y-110421153D01*
X134019738Y-110266510D01*
X134019737Y-110266503D01*
X134006062Y-110233489D01*
X133959397Y-110120827D01*
X133959390Y-110120814D01*
X133871790Y-109989712D01*
X133871784Y-109989705D01*
X133803232Y-109921153D01*
X173699500Y-109921153D01*
X173699500Y-110078846D01*
X173730261Y-110233489D01*
X173730264Y-110233501D01*
X173790602Y-110379172D01*
X173790609Y-110379185D01*
X173878210Y-110510288D01*
X173878213Y-110510292D01*
X173989707Y-110621786D01*
X173989711Y-110621789D01*
X174120814Y-110709390D01*
X174120827Y-110709397D01*
X174266498Y-110769735D01*
X174266503Y-110769737D01*
X174421153Y-110800499D01*
X174421156Y-110800500D01*
X174421158Y-110800500D01*
X174578844Y-110800500D01*
X174578845Y-110800499D01*
X174733497Y-110769737D01*
X174879179Y-110709394D01*
X175010289Y-110621789D01*
X175121789Y-110510289D01*
X175209394Y-110379179D01*
X175269737Y-110233497D01*
X175300500Y-110078842D01*
X175300500Y-109921158D01*
X175300500Y-109921155D01*
X175300499Y-109921153D01*
X175274531Y-109790606D01*
X175269737Y-109766503D01*
X175269735Y-109766498D01*
X175209397Y-109620827D01*
X175209390Y-109620814D01*
X175121789Y-109489711D01*
X175121786Y-109489707D01*
X175010292Y-109378213D01*
X175010288Y-109378210D01*
X174879185Y-109290609D01*
X174879172Y-109290602D01*
X174733501Y-109230264D01*
X174733489Y-109230261D01*
X174578845Y-109199500D01*
X174578842Y-109199500D01*
X174421158Y-109199500D01*
X174421155Y-109199500D01*
X174266510Y-109230261D01*
X174266498Y-109230264D01*
X174120827Y-109290602D01*
X174120814Y-109290609D01*
X173989711Y-109378210D01*
X173989707Y-109378213D01*
X173878213Y-109489707D01*
X173878210Y-109489711D01*
X173790609Y-109620814D01*
X173790602Y-109620827D01*
X173730264Y-109766498D01*
X173730261Y-109766510D01*
X173699500Y-109921153D01*
X133803232Y-109921153D01*
X133760292Y-109878213D01*
X133760288Y-109878210D01*
X133629185Y-109790609D01*
X133629172Y-109790602D01*
X133483501Y-109730264D01*
X133483489Y-109730261D01*
X133328845Y-109699500D01*
X133328842Y-109699500D01*
X133171158Y-109699500D01*
X133171155Y-109699500D01*
X133016510Y-109730261D01*
X133016498Y-109730264D01*
X132870827Y-109790602D01*
X132870814Y-109790609D01*
X132739711Y-109878210D01*
X132739707Y-109878213D01*
X132628213Y-109989707D01*
X132628210Y-109989711D01*
X132540609Y-110120814D01*
X132540602Y-110120827D01*
X132480264Y-110266498D01*
X132480261Y-110266510D01*
X132449500Y-110421153D01*
X114000500Y-110421153D01*
X114000500Y-107921153D01*
X137949500Y-107921153D01*
X137949500Y-108078846D01*
X137980261Y-108233489D01*
X137980264Y-108233501D01*
X138040602Y-108379172D01*
X138040609Y-108379185D01*
X138128210Y-108510288D01*
X138128213Y-108510292D01*
X138239707Y-108621786D01*
X138239711Y-108621789D01*
X138370814Y-108709390D01*
X138370827Y-108709397D01*
X138516498Y-108769735D01*
X138516503Y-108769737D01*
X138671153Y-108800499D01*
X138671156Y-108800500D01*
X138671158Y-108800500D01*
X138828844Y-108800500D01*
X138828845Y-108800499D01*
X138983497Y-108769737D01*
X139129179Y-108709394D01*
X139260289Y-108621789D01*
X139371789Y-108510289D01*
X139431348Y-108421153D01*
X151449500Y-108421153D01*
X151449500Y-108578846D01*
X151480261Y-108733489D01*
X151480264Y-108733501D01*
X151540602Y-108879172D01*
X151540609Y-108879185D01*
X151628210Y-109010288D01*
X151628213Y-109010292D01*
X151739707Y-109121786D01*
X151739711Y-109121789D01*
X151870814Y-109209390D01*
X151870827Y-109209397D01*
X152016498Y-109269735D01*
X152016503Y-109269737D01*
X152171153Y-109300499D01*
X152171156Y-109300500D01*
X152171158Y-109300500D01*
X152328844Y-109300500D01*
X152328845Y-109300499D01*
X152483497Y-109269737D01*
X152602550Y-109220423D01*
X152672017Y-109212955D01*
X152697450Y-109220422D01*
X152816506Y-109269737D01*
X152971156Y-109300499D01*
X152971159Y-109300500D01*
X152971161Y-109300500D01*
X153128847Y-109300500D01*
X153128848Y-109300499D01*
X153283500Y-109269737D01*
X153402553Y-109220423D01*
X153472020Y-109212955D01*
X153497453Y-109220422D01*
X153616509Y-109269737D01*
X153771159Y-109300499D01*
X153771162Y-109300500D01*
X153771164Y-109300500D01*
X153928850Y-109300500D01*
X153928851Y-109300499D01*
X154083503Y-109269737D01*
X154202556Y-109220423D01*
X154272023Y-109212955D01*
X154297456Y-109220422D01*
X154416512Y-109269737D01*
X154571162Y-109300499D01*
X154571165Y-109300500D01*
X154571167Y-109300500D01*
X154728853Y-109300500D01*
X154728854Y-109300499D01*
X154883506Y-109269737D01*
X155002559Y-109220423D01*
X155072026Y-109212955D01*
X155097459Y-109220422D01*
X155216515Y-109269737D01*
X155371165Y-109300499D01*
X155371168Y-109300500D01*
X155371170Y-109300500D01*
X155528856Y-109300500D01*
X155528857Y-109300499D01*
X155683509Y-109269737D01*
X155802562Y-109220423D01*
X155872029Y-109212955D01*
X155897462Y-109220422D01*
X156016518Y-109269737D01*
X156171168Y-109300499D01*
X156171171Y-109300500D01*
X156171173Y-109300500D01*
X156328859Y-109300500D01*
X156328860Y-109300499D01*
X156483512Y-109269737D01*
X156629194Y-109209394D01*
X156760304Y-109121789D01*
X156871804Y-109010289D01*
X156959409Y-108879179D01*
X157019752Y-108733497D01*
X157050515Y-108578842D01*
X157050515Y-108421158D01*
X157050515Y-108421155D01*
X157047552Y-108406260D01*
X167609000Y-108406260D01*
X167609000Y-108593739D01*
X167636876Y-108769738D01*
X167638326Y-108778893D01*
X167696257Y-108957185D01*
X167781365Y-109124220D01*
X167891556Y-109275885D01*
X168024115Y-109408444D01*
X168175780Y-109518635D01*
X168342815Y-109603743D01*
X168521107Y-109661674D01*
X168590541Y-109672671D01*
X168706261Y-109691000D01*
X168706266Y-109691000D01*
X168893739Y-109691000D01*
X168996600Y-109674707D01*
X169078893Y-109661674D01*
X169257185Y-109603743D01*
X169424220Y-109518635D01*
X169575885Y-109408444D01*
X169708444Y-109275885D01*
X169818635Y-109124220D01*
X169903743Y-108957185D01*
X169961674Y-108778893D01*
X169986557Y-108621789D01*
X169991000Y-108593739D01*
X169991000Y-108406260D01*
X169961674Y-108221110D01*
X169961674Y-108221107D01*
X169903743Y-108042815D01*
X169818635Y-107875780D01*
X169708444Y-107724115D01*
X169575885Y-107591556D01*
X169424220Y-107481365D01*
X169257185Y-107396257D01*
X169078893Y-107338326D01*
X169078891Y-107338325D01*
X169078889Y-107338325D01*
X168893739Y-107309000D01*
X168893734Y-107309000D01*
X168706266Y-107309000D01*
X168706261Y-107309000D01*
X168521110Y-107338325D01*
X168521107Y-107338326D01*
X168398355Y-107378211D01*
X168342812Y-107396258D01*
X168175779Y-107481365D01*
X168089249Y-107544233D01*
X168024115Y-107591556D01*
X168024113Y-107591558D01*
X168024112Y-107591558D01*
X167891558Y-107724112D01*
X167891558Y-107724113D01*
X167891556Y-107724115D01*
X167860754Y-107766510D01*
X167781365Y-107875779D01*
X167696258Y-108042812D01*
X167638325Y-108221110D01*
X167609000Y-108406260D01*
X157047552Y-108406260D01*
X157019753Y-108266510D01*
X157019752Y-108266503D01*
X157000949Y-108221107D01*
X156959412Y-108120827D01*
X156959405Y-108120814D01*
X156871804Y-107989711D01*
X156871801Y-107989707D01*
X156760307Y-107878213D01*
X156760303Y-107878210D01*
X156629200Y-107790609D01*
X156629187Y-107790602D01*
X156483516Y-107730264D01*
X156483504Y-107730261D01*
X156328860Y-107699500D01*
X156328857Y-107699500D01*
X156171173Y-107699500D01*
X156171170Y-107699500D01*
X156016525Y-107730261D01*
X156016513Y-107730264D01*
X155897465Y-107779575D01*
X155827995Y-107787044D01*
X155802561Y-107779575D01*
X155683513Y-107730264D01*
X155683501Y-107730261D01*
X155528857Y-107699500D01*
X155528854Y-107699500D01*
X155371170Y-107699500D01*
X155371167Y-107699500D01*
X155216522Y-107730261D01*
X155216510Y-107730264D01*
X155097462Y-107779575D01*
X155027992Y-107787044D01*
X155002558Y-107779575D01*
X154883510Y-107730264D01*
X154883498Y-107730261D01*
X154728854Y-107699500D01*
X154728851Y-107699500D01*
X154571167Y-107699500D01*
X154571164Y-107699500D01*
X154416519Y-107730261D01*
X154416507Y-107730264D01*
X154297459Y-107779575D01*
X154227989Y-107787044D01*
X154202555Y-107779575D01*
X154083507Y-107730264D01*
X154083495Y-107730261D01*
X153928851Y-107699500D01*
X153928848Y-107699500D01*
X153771164Y-107699500D01*
X153771161Y-107699500D01*
X153616516Y-107730261D01*
X153616504Y-107730264D01*
X153497456Y-107779575D01*
X153427986Y-107787044D01*
X153402552Y-107779575D01*
X153283504Y-107730264D01*
X153283492Y-107730261D01*
X153128848Y-107699500D01*
X153128845Y-107699500D01*
X152971161Y-107699500D01*
X152971158Y-107699500D01*
X152816513Y-107730261D01*
X152816501Y-107730264D01*
X152697453Y-107779575D01*
X152627983Y-107787044D01*
X152602549Y-107779575D01*
X152483501Y-107730264D01*
X152483489Y-107730261D01*
X152328845Y-107699500D01*
X152328842Y-107699500D01*
X152171158Y-107699500D01*
X152171155Y-107699500D01*
X152016510Y-107730261D01*
X152016498Y-107730264D01*
X151870827Y-107790602D01*
X151870814Y-107790609D01*
X151739711Y-107878210D01*
X151739707Y-107878213D01*
X151628213Y-107989707D01*
X151628210Y-107989711D01*
X151540609Y-108120814D01*
X151540602Y-108120827D01*
X151480264Y-108266498D01*
X151480261Y-108266510D01*
X151449500Y-108421153D01*
X139431348Y-108421153D01*
X139459394Y-108379179D01*
X139519737Y-108233497D01*
X139550500Y-108078842D01*
X139550500Y-107921158D01*
X139550500Y-107921155D01*
X139550499Y-107921153D01*
X139524531Y-107790606D01*
X139519737Y-107766503D01*
X139519735Y-107766498D01*
X139459397Y-107620827D01*
X139459390Y-107620814D01*
X139371789Y-107489711D01*
X139371786Y-107489707D01*
X139260292Y-107378213D01*
X139260288Y-107378210D01*
X139129185Y-107290609D01*
X139129172Y-107290602D01*
X138983501Y-107230264D01*
X138983489Y-107230261D01*
X138828845Y-107199500D01*
X138828842Y-107199500D01*
X138671158Y-107199500D01*
X138671155Y-107199500D01*
X138516510Y-107230261D01*
X138516498Y-107230264D01*
X138370827Y-107290602D01*
X138370814Y-107290609D01*
X138239711Y-107378210D01*
X138239707Y-107378213D01*
X138128213Y-107489707D01*
X138128210Y-107489711D01*
X138040609Y-107620814D01*
X138040602Y-107620827D01*
X137980264Y-107766498D01*
X137980261Y-107766510D01*
X137949500Y-107921153D01*
X114000500Y-107921153D01*
X114000500Y-104921153D01*
X145199500Y-104921153D01*
X145199500Y-105078846D01*
X145230261Y-105233489D01*
X145230264Y-105233501D01*
X145290602Y-105379172D01*
X145290609Y-105379185D01*
X145378210Y-105510288D01*
X145378213Y-105510292D01*
X145489707Y-105621786D01*
X145489711Y-105621789D01*
X145620814Y-105709390D01*
X145620827Y-105709397D01*
X145766498Y-105769735D01*
X145766503Y-105769737D01*
X145793423Y-105775091D01*
X145815624Y-105779508D01*
X145877535Y-105811892D01*
X145912109Y-105872608D01*
X145908370Y-105942377D01*
X145881706Y-105984697D01*
X145882076Y-105985001D01*
X145879661Y-105987942D01*
X145879123Y-105988798D01*
X145878212Y-105989708D01*
X145878210Y-105989711D01*
X145790609Y-106120814D01*
X145790602Y-106120827D01*
X145730264Y-106266498D01*
X145730261Y-106266510D01*
X145699500Y-106421153D01*
X145699500Y-106578846D01*
X145730261Y-106733489D01*
X145730264Y-106733501D01*
X145790602Y-106879172D01*
X145790609Y-106879185D01*
X145878210Y-107010288D01*
X145878213Y-107010292D01*
X145989707Y-107121786D01*
X145989711Y-107121789D01*
X146120814Y-107209390D01*
X146120827Y-107209397D01*
X146266498Y-107269735D01*
X146266503Y-107269737D01*
X146421153Y-107300499D01*
X146421156Y-107300500D01*
X146421158Y-107300500D01*
X146578844Y-107300500D01*
X146578845Y-107300499D01*
X146733497Y-107269737D01*
X146879179Y-107209394D01*
X147010289Y-107121789D01*
X147017125Y-107114953D01*
X183893300Y-107114953D01*
X183893300Y-107272646D01*
X183924061Y-107427289D01*
X183924064Y-107427301D01*
X183984402Y-107572972D01*
X183984409Y-107572985D01*
X184072010Y-107704088D01*
X184072013Y-107704092D01*
X184183507Y-107815586D01*
X184183511Y-107815589D01*
X184314614Y-107903190D01*
X184314627Y-107903197D01*
X184460298Y-107963535D01*
X184460303Y-107963537D01*
X184591868Y-107989707D01*
X184614953Y-107994299D01*
X184614956Y-107994300D01*
X184614958Y-107994300D01*
X184772644Y-107994300D01*
X184772645Y-107994299D01*
X184927297Y-107963537D01*
X185072979Y-107903194D01*
X185204089Y-107815589D01*
X185315589Y-107704089D01*
X185403194Y-107572979D01*
X185463537Y-107427297D01*
X185494300Y-107272642D01*
X185494300Y-107114958D01*
X185494300Y-107114955D01*
X185494299Y-107114953D01*
X185473480Y-107010289D01*
X185463537Y-106960303D01*
X185429932Y-106879172D01*
X185403197Y-106814627D01*
X185403190Y-106814614D01*
X185315589Y-106683511D01*
X185315586Y-106683507D01*
X185204092Y-106572013D01*
X185204088Y-106572010D01*
X185072985Y-106484409D01*
X185072972Y-106484402D01*
X184927301Y-106424064D01*
X184927289Y-106424061D01*
X184772645Y-106393300D01*
X184772642Y-106393300D01*
X184614958Y-106393300D01*
X184614955Y-106393300D01*
X184460310Y-106424061D01*
X184460298Y-106424064D01*
X184314627Y-106484402D01*
X184314614Y-106484409D01*
X184183511Y-106572010D01*
X184183507Y-106572013D01*
X184072013Y-106683507D01*
X184072010Y-106683511D01*
X183984409Y-106814614D01*
X183984402Y-106814627D01*
X183924064Y-106960298D01*
X183924061Y-106960310D01*
X183893300Y-107114953D01*
X147017125Y-107114953D01*
X147110894Y-107021185D01*
X147121786Y-107010292D01*
X147121789Y-107010289D01*
X147209394Y-106879179D01*
X147269737Y-106733497D01*
X147300500Y-106578842D01*
X147300500Y-106421158D01*
X147300500Y-106421155D01*
X147300499Y-106421153D01*
X147294959Y-106393300D01*
X147269737Y-106266503D01*
X147210802Y-106124220D01*
X147209397Y-106120827D01*
X147209390Y-106120814D01*
X147121789Y-105989711D01*
X147121786Y-105989707D01*
X147010292Y-105878213D01*
X147010288Y-105878210D01*
X146879185Y-105790609D01*
X146879172Y-105790602D01*
X146733501Y-105730264D01*
X146733491Y-105730261D01*
X146684374Y-105720491D01*
X146622463Y-105688106D01*
X146587889Y-105627389D01*
X146591630Y-105557620D01*
X146618296Y-105515304D01*
X146617924Y-105514999D01*
X146620357Y-105512033D01*
X146620891Y-105511186D01*
X146621789Y-105510289D01*
X146709394Y-105379179D01*
X146769737Y-105233497D01*
X146800500Y-105078842D01*
X146800500Y-104921158D01*
X146800500Y-104921155D01*
X146800499Y-104921153D01*
X155199500Y-104921153D01*
X155199500Y-105078846D01*
X155230261Y-105233489D01*
X155230264Y-105233501D01*
X155290602Y-105379172D01*
X155290609Y-105379185D01*
X155378210Y-105510288D01*
X155378213Y-105510292D01*
X155489707Y-105621786D01*
X155489711Y-105621789D01*
X155620814Y-105709390D01*
X155620827Y-105709397D01*
X155766498Y-105769735D01*
X155766503Y-105769737D01*
X155882468Y-105792804D01*
X155921153Y-105800499D01*
X155921156Y-105800500D01*
X155921158Y-105800500D01*
X156078844Y-105800500D01*
X156078845Y-105800499D01*
X156233497Y-105769737D01*
X156379179Y-105709394D01*
X156510289Y-105621789D01*
X156621789Y-105510289D01*
X156691299Y-105406260D01*
X167609000Y-105406260D01*
X167609000Y-105593739D01*
X167636876Y-105769738D01*
X167638326Y-105778893D01*
X167696257Y-105957185D01*
X167781365Y-106124220D01*
X167891556Y-106275885D01*
X168024115Y-106408444D01*
X168175780Y-106518635D01*
X168342815Y-106603743D01*
X168521107Y-106661674D01*
X168590541Y-106672671D01*
X168706261Y-106691000D01*
X168706266Y-106691000D01*
X168893739Y-106691000D01*
X168996600Y-106674707D01*
X169078893Y-106661674D01*
X169257185Y-106603743D01*
X169424220Y-106518635D01*
X169575885Y-106408444D01*
X169708444Y-106275885D01*
X169818635Y-106124220D01*
X169903743Y-105957185D01*
X169961674Y-105778893D01*
X169986557Y-105621789D01*
X169991000Y-105593739D01*
X169991000Y-105406260D01*
X169961674Y-105221110D01*
X169961674Y-105221107D01*
X169903743Y-105042815D01*
X169818635Y-104875780D01*
X169708444Y-104724115D01*
X169575885Y-104591556D01*
X169424220Y-104481365D01*
X169257185Y-104396257D01*
X169078893Y-104338326D01*
X169078891Y-104338325D01*
X169078889Y-104338325D01*
X168893739Y-104309000D01*
X168893734Y-104309000D01*
X168706266Y-104309000D01*
X168706261Y-104309000D01*
X168521110Y-104338325D01*
X168521107Y-104338326D01*
X168398355Y-104378211D01*
X168342812Y-104396258D01*
X168175779Y-104481365D01*
X168122968Y-104519735D01*
X168024115Y-104591556D01*
X168024113Y-104591558D01*
X168024112Y-104591558D01*
X167891558Y-104724112D01*
X167891558Y-104724113D01*
X167891556Y-104724115D01*
X167860754Y-104766510D01*
X167781365Y-104875779D01*
X167696258Y-105042812D01*
X167638325Y-105221110D01*
X167609000Y-105406260D01*
X156691299Y-105406260D01*
X156709394Y-105379179D01*
X156709397Y-105379172D01*
X156719848Y-105353942D01*
X156769735Y-105233501D01*
X156769737Y-105233497D01*
X156800500Y-105078842D01*
X156800500Y-104921158D01*
X156800500Y-104921155D01*
X156800499Y-104921153D01*
X156769738Y-104766510D01*
X156769737Y-104766503D01*
X156769735Y-104766498D01*
X156709397Y-104620827D01*
X156709390Y-104620814D01*
X156621789Y-104489711D01*
X156621786Y-104489707D01*
X156510292Y-104378213D01*
X156510288Y-104378210D01*
X156379185Y-104290609D01*
X156379172Y-104290602D01*
X156233501Y-104230264D01*
X156233489Y-104230261D01*
X156078845Y-104199500D01*
X156078842Y-104199500D01*
X155921158Y-104199500D01*
X155921155Y-104199500D01*
X155766510Y-104230261D01*
X155766498Y-104230264D01*
X155620827Y-104290602D01*
X155620814Y-104290609D01*
X155489711Y-104378210D01*
X155489707Y-104378213D01*
X155378213Y-104489707D01*
X155378210Y-104489711D01*
X155290609Y-104620814D01*
X155290602Y-104620827D01*
X155230264Y-104766498D01*
X155230261Y-104766510D01*
X155199500Y-104921153D01*
X146800499Y-104921153D01*
X146769738Y-104766510D01*
X146769737Y-104766503D01*
X146769735Y-104766498D01*
X146709397Y-104620827D01*
X146709390Y-104620814D01*
X146621789Y-104489711D01*
X146621786Y-104489707D01*
X146510292Y-104378213D01*
X146510288Y-104378210D01*
X146379185Y-104290609D01*
X146379172Y-104290602D01*
X146233501Y-104230264D01*
X146233489Y-104230261D01*
X146078845Y-104199500D01*
X146078842Y-104199500D01*
X145921158Y-104199500D01*
X145921155Y-104199500D01*
X145766510Y-104230261D01*
X145766498Y-104230264D01*
X145620827Y-104290602D01*
X145620814Y-104290609D01*
X145489711Y-104378210D01*
X145489707Y-104378213D01*
X145378213Y-104489707D01*
X145378210Y-104489711D01*
X145290609Y-104620814D01*
X145290602Y-104620827D01*
X145230264Y-104766498D01*
X145230261Y-104766510D01*
X145199500Y-104921153D01*
X114000500Y-104921153D01*
X114000500Y-103671153D01*
X163699500Y-103671153D01*
X163699500Y-103828846D01*
X163730261Y-103983489D01*
X163730264Y-103983501D01*
X163790602Y-104129172D01*
X163790609Y-104129185D01*
X163878210Y-104260288D01*
X163878213Y-104260292D01*
X163989707Y-104371786D01*
X163989711Y-104371789D01*
X164120814Y-104459390D01*
X164120827Y-104459397D01*
X164194013Y-104489711D01*
X164266503Y-104519737D01*
X164421153Y-104550499D01*
X164421156Y-104550500D01*
X164421158Y-104550500D01*
X164578844Y-104550500D01*
X164578845Y-104550499D01*
X164733497Y-104519737D01*
X164879179Y-104459394D01*
X165010289Y-104371789D01*
X165121789Y-104260289D01*
X165209394Y-104129179D01*
X165269737Y-103983497D01*
X165300500Y-103828842D01*
X165300500Y-103671158D01*
X165300500Y-103671155D01*
X165300499Y-103671153D01*
X165269738Y-103516510D01*
X165269737Y-103516503D01*
X165230242Y-103421153D01*
X177449500Y-103421153D01*
X177449500Y-103578846D01*
X177480261Y-103733489D01*
X177480264Y-103733501D01*
X177540602Y-103879172D01*
X177540609Y-103879185D01*
X177628210Y-104010288D01*
X177628213Y-104010292D01*
X177739707Y-104121786D01*
X177739711Y-104121789D01*
X177870814Y-104209390D01*
X177870827Y-104209397D01*
X178016498Y-104269735D01*
X178016503Y-104269737D01*
X178171153Y-104300499D01*
X178171156Y-104300500D01*
X178171158Y-104300500D01*
X178328844Y-104300500D01*
X178328845Y-104300499D01*
X178483497Y-104269737D01*
X178629179Y-104209394D01*
X178760289Y-104121789D01*
X178871789Y-104010289D01*
X178959394Y-103879179D01*
X179019737Y-103733497D01*
X179050500Y-103578842D01*
X179050500Y-103421158D01*
X179050500Y-103421155D01*
X179050499Y-103421153D01*
X179019738Y-103266510D01*
X179019737Y-103266503D01*
X179017163Y-103260288D01*
X178959397Y-103120827D01*
X178959390Y-103120814D01*
X178871789Y-102989711D01*
X178871786Y-102989707D01*
X178760292Y-102878213D01*
X178760288Y-102878210D01*
X178629185Y-102790609D01*
X178629172Y-102790602D01*
X178483501Y-102730264D01*
X178483489Y-102730261D01*
X178328845Y-102699500D01*
X178328842Y-102699500D01*
X178171158Y-102699500D01*
X178171155Y-102699500D01*
X178016510Y-102730261D01*
X178016498Y-102730264D01*
X177870827Y-102790602D01*
X177870814Y-102790609D01*
X177739711Y-102878210D01*
X177739707Y-102878213D01*
X177628213Y-102989707D01*
X177628210Y-102989711D01*
X177540609Y-103120814D01*
X177540602Y-103120827D01*
X177480264Y-103266498D01*
X177480261Y-103266510D01*
X177449500Y-103421153D01*
X165230242Y-103421153D01*
X165209794Y-103371786D01*
X165209397Y-103370827D01*
X165209390Y-103370814D01*
X165121789Y-103239711D01*
X165121786Y-103239707D01*
X165010292Y-103128213D01*
X165010288Y-103128210D01*
X164879185Y-103040609D01*
X164879172Y-103040602D01*
X164733501Y-102980264D01*
X164733489Y-102980261D01*
X164578845Y-102949500D01*
X164578842Y-102949500D01*
X164421158Y-102949500D01*
X164421155Y-102949500D01*
X164266510Y-102980261D01*
X164266498Y-102980264D01*
X164120827Y-103040602D01*
X164120814Y-103040609D01*
X163989711Y-103128210D01*
X163989707Y-103128213D01*
X163878213Y-103239707D01*
X163878210Y-103239711D01*
X163790609Y-103370814D01*
X163790602Y-103370827D01*
X163730264Y-103516498D01*
X163730261Y-103516510D01*
X163699500Y-103671153D01*
X114000500Y-103671153D01*
X114000500Y-102671153D01*
X150449500Y-102671153D01*
X150449500Y-102828846D01*
X150480261Y-102983489D01*
X150480264Y-102983501D01*
X150540602Y-103129172D01*
X150540609Y-103129185D01*
X150628210Y-103260288D01*
X150628213Y-103260292D01*
X150739707Y-103371786D01*
X150739711Y-103371789D01*
X150870814Y-103459390D01*
X150870827Y-103459397D01*
X151008683Y-103516498D01*
X151016503Y-103519737D01*
X151171153Y-103550499D01*
X151171156Y-103550500D01*
X151171158Y-103550500D01*
X151328844Y-103550500D01*
X151328845Y-103550499D01*
X151339179Y-103548443D01*
X151364287Y-103543450D01*
X151364292Y-103543449D01*
X151449800Y-103526439D01*
X151483497Y-103519737D01*
X151621635Y-103462519D01*
X151629172Y-103459397D01*
X151629172Y-103459396D01*
X151629179Y-103459394D01*
X151760289Y-103371789D01*
X151871789Y-103260289D01*
X151959394Y-103129179D01*
X151962854Y-103120827D01*
X151973067Y-103096166D01*
X152019737Y-102983497D01*
X152050500Y-102828842D01*
X152050500Y-102671158D01*
X152050500Y-102671155D01*
X152050499Y-102671153D01*
X152019738Y-102516510D01*
X152019737Y-102516503D01*
X152019735Y-102516498D01*
X151959397Y-102370827D01*
X151959390Y-102370814D01*
X151871789Y-102239711D01*
X151871786Y-102239707D01*
X151760292Y-102128213D01*
X151760288Y-102128210D01*
X151629185Y-102040609D01*
X151629172Y-102040602D01*
X151483501Y-101980264D01*
X151483489Y-101980261D01*
X151328845Y-101949500D01*
X151328842Y-101949500D01*
X151171158Y-101949500D01*
X151171155Y-101949500D01*
X151016510Y-101980261D01*
X151016498Y-101980264D01*
X150870827Y-102040602D01*
X150870814Y-102040609D01*
X150739711Y-102128210D01*
X150739707Y-102128213D01*
X150628213Y-102239707D01*
X150628210Y-102239711D01*
X150540609Y-102370814D01*
X150540602Y-102370827D01*
X150480264Y-102516498D01*
X150480261Y-102516510D01*
X150449500Y-102671153D01*
X114000500Y-102671153D01*
X114000500Y-101421153D01*
X139699500Y-101421153D01*
X139699500Y-101578846D01*
X139730261Y-101733489D01*
X139730264Y-101733501D01*
X139790602Y-101879172D01*
X139790609Y-101879185D01*
X139878210Y-102010288D01*
X139878213Y-102010292D01*
X139989707Y-102121786D01*
X139989711Y-102121789D01*
X140120814Y-102209390D01*
X140120827Y-102209397D01*
X140194013Y-102239711D01*
X140266503Y-102269737D01*
X140421153Y-102300499D01*
X140421156Y-102300500D01*
X140421158Y-102300500D01*
X140578844Y-102300500D01*
X140578845Y-102300499D01*
X140733497Y-102269737D01*
X140879179Y-102209394D01*
X141010289Y-102121789D01*
X141121789Y-102010289D01*
X141209394Y-101879179D01*
X141269737Y-101733497D01*
X141300500Y-101578842D01*
X141300500Y-101421158D01*
X141300500Y-101421155D01*
X141300499Y-101421153D01*
X141269738Y-101266510D01*
X141269737Y-101266503D01*
X141269735Y-101266498D01*
X141209397Y-101120827D01*
X141209390Y-101120814D01*
X141121789Y-100989711D01*
X141121786Y-100989707D01*
X141010292Y-100878213D01*
X141010288Y-100878210D01*
X140879185Y-100790609D01*
X140879172Y-100790602D01*
X140733501Y-100730264D01*
X140733489Y-100730261D01*
X140578845Y-100699500D01*
X140578842Y-100699500D01*
X140421158Y-100699500D01*
X140421155Y-100699500D01*
X140266510Y-100730261D01*
X140266498Y-100730264D01*
X140120827Y-100790602D01*
X140120814Y-100790609D01*
X139989711Y-100878210D01*
X139989707Y-100878213D01*
X139878213Y-100989707D01*
X139878210Y-100989711D01*
X139790609Y-101120814D01*
X139790602Y-101120827D01*
X139730264Y-101266498D01*
X139730261Y-101266510D01*
X139699500Y-101421153D01*
X114000500Y-101421153D01*
X114000500Y-98921153D01*
X137199500Y-98921153D01*
X137199500Y-99078846D01*
X137230261Y-99233489D01*
X137230264Y-99233501D01*
X137290602Y-99379172D01*
X137290609Y-99379185D01*
X137378210Y-99510288D01*
X137378213Y-99510292D01*
X137489707Y-99621786D01*
X137489711Y-99621789D01*
X137620814Y-99709390D01*
X137620827Y-99709397D01*
X137758683Y-99766498D01*
X137766503Y-99769737D01*
X137921153Y-99800499D01*
X137921156Y-99800500D01*
X137921158Y-99800500D01*
X138078844Y-99800500D01*
X138078845Y-99800499D01*
X138233497Y-99769737D01*
X138379179Y-99709394D01*
X138510289Y-99621789D01*
X138621789Y-99510289D01*
X138709394Y-99379179D01*
X138769737Y-99233497D01*
X138800500Y-99078842D01*
X138800500Y-98921158D01*
X138800500Y-98921155D01*
X138800499Y-98921153D01*
X138769738Y-98766510D01*
X138769737Y-98766503D01*
X138744693Y-98706041D01*
X138709397Y-98620827D01*
X138709390Y-98620814D01*
X138684763Y-98583957D01*
X138642798Y-98521153D01*
X141299500Y-98521153D01*
X141299500Y-98678846D01*
X141330261Y-98833489D01*
X141330264Y-98833501D01*
X141390602Y-98979172D01*
X141390609Y-98979185D01*
X141478210Y-99110288D01*
X141478213Y-99110292D01*
X141589707Y-99221786D01*
X141589711Y-99221789D01*
X141720814Y-99309390D01*
X141720827Y-99309397D01*
X141866498Y-99369735D01*
X141866503Y-99369737D01*
X142021153Y-99400499D01*
X142021156Y-99400500D01*
X142021158Y-99400500D01*
X142178844Y-99400500D01*
X142178845Y-99400499D01*
X142333497Y-99369737D01*
X142479179Y-99309394D01*
X142610289Y-99221789D01*
X142721789Y-99110289D01*
X142809394Y-98979179D01*
X142869737Y-98833497D01*
X142895090Y-98706041D01*
X142908504Y-98680397D01*
X142919276Y-98653530D01*
X142925634Y-98647648D01*
X142927475Y-98644130D01*
X142944833Y-98629187D01*
X142946304Y-98628140D01*
X143054050Y-98556147D01*
X143070148Y-98540048D01*
X143078611Y-98534029D01*
X143102209Y-98525874D01*
X143124122Y-98513909D01*
X143134660Y-98514662D01*
X143144649Y-98511211D01*
X143168913Y-98517110D01*
X143193814Y-98518891D01*
X143202272Y-98525222D01*
X143212541Y-98527719D01*
X143229763Y-98545800D01*
X143249749Y-98560760D01*
X143253441Y-98570659D01*
X143260730Y-98578311D01*
X143265442Y-98602828D01*
X143274169Y-98626223D01*
X143272233Y-98638167D01*
X143273917Y-98646925D01*
X143268711Y-98659909D01*
X143265047Y-98682525D01*
X143230263Y-98766503D01*
X143230261Y-98766510D01*
X143199500Y-98921153D01*
X143199500Y-99078846D01*
X143230261Y-99233489D01*
X143230264Y-99233501D01*
X143290602Y-99379172D01*
X143290609Y-99379185D01*
X143325304Y-99431109D01*
X143346182Y-99497786D01*
X143327698Y-99565167D01*
X143325304Y-99568891D01*
X143290609Y-99620814D01*
X143290602Y-99620827D01*
X143230264Y-99766498D01*
X143230261Y-99766510D01*
X143199500Y-99921153D01*
X143199500Y-100078846D01*
X143230261Y-100233489D01*
X143230264Y-100233501D01*
X143290602Y-100379172D01*
X143290609Y-100379185D01*
X143378210Y-100510288D01*
X143378213Y-100510292D01*
X143489707Y-100621786D01*
X143489711Y-100621789D01*
X143620814Y-100709390D01*
X143620827Y-100709397D01*
X143766498Y-100769735D01*
X143766503Y-100769737D01*
X143921153Y-100800499D01*
X143921156Y-100800500D01*
X143921158Y-100800500D01*
X144078844Y-100800500D01*
X144078845Y-100800499D01*
X144233497Y-100769737D01*
X144379179Y-100709394D01*
X144510289Y-100621789D01*
X144621789Y-100510289D01*
X144709394Y-100379179D01*
X144769737Y-100233497D01*
X144800500Y-100078842D01*
X144800500Y-99921158D01*
X144800500Y-99921155D01*
X144800499Y-99921153D01*
X144769738Y-99766510D01*
X144769737Y-99766503D01*
X144709794Y-99621786D01*
X144709396Y-99620825D01*
X144709394Y-99620822D01*
X144709394Y-99620821D01*
X144674694Y-99568889D01*
X144653816Y-99502215D01*
X144672300Y-99434835D01*
X144674676Y-99431136D01*
X144709394Y-99379179D01*
X144769737Y-99233497D01*
X144800500Y-99078842D01*
X144800500Y-98921158D01*
X144800500Y-98921155D01*
X144800499Y-98921153D01*
X144769738Y-98766510D01*
X144769737Y-98766503D01*
X144744693Y-98706041D01*
X144709396Y-98620825D01*
X144709394Y-98620822D01*
X144709394Y-98620821D01*
X144674694Y-98568889D01*
X144670663Y-98556017D01*
X144662390Y-98545359D01*
X144660425Y-98523323D01*
X144653816Y-98502215D01*
X144657250Y-98487693D01*
X144656187Y-98475765D01*
X144665231Y-98453941D01*
X144667941Y-98442485D01*
X144671007Y-98436627D01*
X144709394Y-98379179D01*
X144716564Y-98361868D01*
X145291685Y-98361868D01*
X145291685Y-98519561D01*
X145322446Y-98674204D01*
X145322449Y-98674216D01*
X145382787Y-98819887D01*
X145382794Y-98819900D01*
X145470395Y-98951003D01*
X145470398Y-98951007D01*
X145581892Y-99062501D01*
X145581896Y-99062504D01*
X145712999Y-99150105D01*
X145713012Y-99150112D01*
X145858683Y-99210450D01*
X145858688Y-99210452D01*
X146013338Y-99241214D01*
X146013341Y-99241215D01*
X146013343Y-99241215D01*
X146171029Y-99241215D01*
X146171030Y-99241214D01*
X146325682Y-99210452D01*
X146471364Y-99150109D01*
X146602474Y-99062504D01*
X146713974Y-98951004D01*
X146733920Y-98921153D01*
X149949500Y-98921153D01*
X149949500Y-99078846D01*
X149980261Y-99233489D01*
X149980264Y-99233501D01*
X150040602Y-99379172D01*
X150040609Y-99379185D01*
X150128210Y-99510288D01*
X150128213Y-99510292D01*
X150239707Y-99621786D01*
X150239711Y-99621789D01*
X150370814Y-99709390D01*
X150370827Y-99709397D01*
X150508683Y-99766498D01*
X150516503Y-99769737D01*
X150671153Y-99800499D01*
X150671156Y-99800500D01*
X150671158Y-99800500D01*
X150828844Y-99800500D01*
X150828845Y-99800499D01*
X150983497Y-99769737D01*
X151129179Y-99709394D01*
X151260289Y-99621789D01*
X151371789Y-99510289D01*
X151459394Y-99379179D01*
X151519737Y-99233497D01*
X151550500Y-99078842D01*
X151550500Y-98921158D01*
X151550500Y-98921155D01*
X151550499Y-98921153D01*
X151519738Y-98766510D01*
X151519737Y-98766503D01*
X151494693Y-98706041D01*
X151459397Y-98620827D01*
X151459390Y-98620814D01*
X151371789Y-98489711D01*
X151371786Y-98489707D01*
X151260292Y-98378213D01*
X151260288Y-98378210D01*
X151129185Y-98290609D01*
X151129172Y-98290602D01*
X150983501Y-98230264D01*
X150983489Y-98230261D01*
X150828845Y-98199500D01*
X150828842Y-98199500D01*
X150671158Y-98199500D01*
X150671155Y-98199500D01*
X150516510Y-98230261D01*
X150516498Y-98230264D01*
X150370827Y-98290602D01*
X150370814Y-98290609D01*
X150239711Y-98378210D01*
X150239707Y-98378213D01*
X150128213Y-98489707D01*
X150128210Y-98489711D01*
X150040609Y-98620814D01*
X150040602Y-98620827D01*
X149980264Y-98766498D01*
X149980261Y-98766510D01*
X149949500Y-98921153D01*
X146733920Y-98921153D01*
X146801579Y-98819894D01*
X146861922Y-98674212D01*
X146892685Y-98519557D01*
X146892685Y-98361873D01*
X146892685Y-98361870D01*
X146892684Y-98361868D01*
X146880606Y-98301150D01*
X146861922Y-98207218D01*
X146858725Y-98199500D01*
X146801582Y-98061542D01*
X146801575Y-98061529D01*
X146713974Y-97930426D01*
X146713971Y-97930422D01*
X146602477Y-97818928D01*
X146602473Y-97818925D01*
X146471370Y-97731324D01*
X146471360Y-97731319D01*
X146394762Y-97699591D01*
X146340359Y-97655750D01*
X146318294Y-97589456D01*
X146335573Y-97521756D01*
X146386711Y-97474146D01*
X146418024Y-97463413D01*
X146551997Y-97436764D01*
X146697679Y-97376421D01*
X146828789Y-97288816D01*
X146940289Y-97177316D01*
X147027894Y-97046206D01*
X147088237Y-96900524D01*
X147119000Y-96745869D01*
X147119000Y-96588185D01*
X147119000Y-96588182D01*
X147118999Y-96588180D01*
X147088238Y-96433537D01*
X147088237Y-96433530D01*
X147088235Y-96433525D01*
X147027897Y-96287854D01*
X147027890Y-96287841D01*
X146940289Y-96156738D01*
X146940286Y-96156734D01*
X146828792Y-96045240D01*
X146828788Y-96045237D01*
X146697685Y-95957636D01*
X146697672Y-95957629D01*
X146552001Y-95897291D01*
X146551989Y-95897288D01*
X146397345Y-95866527D01*
X146397342Y-95866527D01*
X146239658Y-95866527D01*
X146239655Y-95866527D01*
X146085010Y-95897288D01*
X146084998Y-95897291D01*
X145939327Y-95957629D01*
X145939314Y-95957636D01*
X145808211Y-96045237D01*
X145808207Y-96045240D01*
X145696713Y-96156734D01*
X145696710Y-96156738D01*
X145609109Y-96287841D01*
X145609102Y-96287854D01*
X145548764Y-96433525D01*
X145548761Y-96433537D01*
X145518000Y-96588180D01*
X145518000Y-96745873D01*
X145548761Y-96900516D01*
X145548764Y-96900528D01*
X145609102Y-97046199D01*
X145609109Y-97046212D01*
X145696710Y-97177315D01*
X145696713Y-97177319D01*
X145808207Y-97288813D01*
X145808211Y-97288816D01*
X145939314Y-97376417D01*
X145939327Y-97376424D01*
X146015921Y-97408150D01*
X146070325Y-97451991D01*
X146092390Y-97518285D01*
X146075111Y-97585984D01*
X146023974Y-97633595D01*
X145992661Y-97644328D01*
X145858693Y-97670976D01*
X145858683Y-97670979D01*
X145713012Y-97731317D01*
X145712999Y-97731324D01*
X145581896Y-97818925D01*
X145581892Y-97818928D01*
X145470398Y-97930422D01*
X145470395Y-97930426D01*
X145382794Y-98061529D01*
X145382787Y-98061542D01*
X145322449Y-98207213D01*
X145322446Y-98207225D01*
X145291685Y-98361868D01*
X144716564Y-98361868D01*
X144769737Y-98233497D01*
X144800500Y-98078842D01*
X144800500Y-97921158D01*
X144800500Y-97921155D01*
X144800499Y-97921153D01*
X144787443Y-97855516D01*
X144769737Y-97766503D01*
X144769735Y-97766498D01*
X144709397Y-97620827D01*
X144709390Y-97620814D01*
X144621789Y-97489711D01*
X144621786Y-97489707D01*
X144510292Y-97378213D01*
X144510288Y-97378210D01*
X144379185Y-97290609D01*
X144379172Y-97290602D01*
X144233501Y-97230264D01*
X144233489Y-97230261D01*
X144078845Y-97199500D01*
X144078842Y-97199500D01*
X143921158Y-97199500D01*
X143921155Y-97199500D01*
X143766510Y-97230261D01*
X143766498Y-97230264D01*
X143620827Y-97290602D01*
X143620814Y-97290609D01*
X143489711Y-97378210D01*
X143383862Y-97484059D01*
X143322539Y-97517543D01*
X143252847Y-97512559D01*
X143196914Y-97470687D01*
X143193079Y-97465268D01*
X143165550Y-97424069D01*
X143165547Y-97424065D01*
X143054053Y-97312571D01*
X143054049Y-97312568D01*
X142922946Y-97224967D01*
X142922933Y-97224960D01*
X142777262Y-97164622D01*
X142777250Y-97164619D01*
X142622606Y-97133858D01*
X142622603Y-97133858D01*
X142464919Y-97133858D01*
X142464916Y-97133858D01*
X142310271Y-97164619D01*
X142310259Y-97164622D01*
X142164588Y-97224960D01*
X142164575Y-97224967D01*
X142033472Y-97312568D01*
X142033468Y-97312571D01*
X141921974Y-97424065D01*
X141921971Y-97424069D01*
X141834370Y-97555172D01*
X141834363Y-97555185D01*
X141774025Y-97700856D01*
X141774022Y-97700866D01*
X141748670Y-97828317D01*
X141716285Y-97890228D01*
X141695944Y-97907227D01*
X141589711Y-97978210D01*
X141589707Y-97978213D01*
X141478213Y-98089707D01*
X141478210Y-98089711D01*
X141390609Y-98220814D01*
X141390602Y-98220827D01*
X141330264Y-98366498D01*
X141330261Y-98366510D01*
X141299500Y-98521153D01*
X138642798Y-98521153D01*
X138621789Y-98489711D01*
X138621786Y-98489707D01*
X138510292Y-98378213D01*
X138510288Y-98378210D01*
X138379185Y-98290609D01*
X138379172Y-98290602D01*
X138233501Y-98230264D01*
X138233489Y-98230261D01*
X138078845Y-98199500D01*
X138078842Y-98199500D01*
X137921158Y-98199500D01*
X137921155Y-98199500D01*
X137766510Y-98230261D01*
X137766498Y-98230264D01*
X137620827Y-98290602D01*
X137620814Y-98290609D01*
X137489711Y-98378210D01*
X137489707Y-98378213D01*
X137378213Y-98489707D01*
X137378210Y-98489711D01*
X137290609Y-98620814D01*
X137290602Y-98620827D01*
X137230264Y-98766498D01*
X137230261Y-98766510D01*
X137199500Y-98921153D01*
X114000500Y-98921153D01*
X114000500Y-94521153D01*
X144715127Y-94521153D01*
X144715127Y-94678846D01*
X144745888Y-94833489D01*
X144745891Y-94833501D01*
X144806229Y-94979172D01*
X144806236Y-94979185D01*
X144893837Y-95110288D01*
X144893840Y-95110292D01*
X145005334Y-95221786D01*
X145005338Y-95221789D01*
X145136441Y-95309390D01*
X145136454Y-95309397D01*
X145282125Y-95369735D01*
X145282130Y-95369737D01*
X145436780Y-95400499D01*
X145436783Y-95400500D01*
X145436785Y-95400500D01*
X145594471Y-95400500D01*
X145594472Y-95400499D01*
X145749124Y-95369737D01*
X145894806Y-95309394D01*
X146025916Y-95221789D01*
X146137416Y-95110289D01*
X146225021Y-94979179D01*
X146285364Y-94833497D01*
X146316127Y-94678842D01*
X146316127Y-94521158D01*
X146316127Y-94521155D01*
X146316126Y-94521153D01*
X146285365Y-94366510D01*
X146285364Y-94366503D01*
X146285362Y-94366498D01*
X146225024Y-94220827D01*
X146225017Y-94220814D01*
X146137416Y-94089711D01*
X146137413Y-94089707D01*
X146025919Y-93978213D01*
X146025915Y-93978210D01*
X145894812Y-93890609D01*
X145894799Y-93890602D01*
X145749128Y-93830264D01*
X145749116Y-93830261D01*
X145594472Y-93799500D01*
X145594469Y-93799500D01*
X145436785Y-93799500D01*
X145436782Y-93799500D01*
X145282137Y-93830261D01*
X145282125Y-93830264D01*
X145136454Y-93890602D01*
X145136441Y-93890609D01*
X145005338Y-93978210D01*
X145005334Y-93978213D01*
X144893840Y-94089707D01*
X144893837Y-94089711D01*
X144806236Y-94220814D01*
X144806229Y-94220827D01*
X144745891Y-94366498D01*
X144745888Y-94366510D01*
X144715127Y-94521153D01*
X114000500Y-94521153D01*
X114000500Y-91421153D01*
X150199500Y-91421153D01*
X150199500Y-91578846D01*
X150230261Y-91733489D01*
X150230264Y-91733501D01*
X150290602Y-91879172D01*
X150290609Y-91879185D01*
X150378210Y-92010288D01*
X150378213Y-92010292D01*
X150489707Y-92121786D01*
X150489711Y-92121789D01*
X150620814Y-92209390D01*
X150620827Y-92209397D01*
X150766498Y-92269735D01*
X150766503Y-92269737D01*
X150921153Y-92300499D01*
X150921156Y-92300500D01*
X150921158Y-92300500D01*
X151078844Y-92300500D01*
X151078845Y-92300499D01*
X151233497Y-92269737D01*
X151379179Y-92209394D01*
X151510289Y-92121789D01*
X151621789Y-92010289D01*
X151709394Y-91879179D01*
X151769737Y-91733497D01*
X151800500Y-91578842D01*
X151800500Y-91421158D01*
X151800500Y-91421155D01*
X151800499Y-91421153D01*
X151769738Y-91266510D01*
X151769737Y-91266503D01*
X151769735Y-91266498D01*
X151709397Y-91120827D01*
X151709390Y-91120814D01*
X151621789Y-90989711D01*
X151621786Y-90989707D01*
X151510292Y-90878213D01*
X151510288Y-90878210D01*
X151379185Y-90790609D01*
X151379172Y-90790602D01*
X151233501Y-90730264D01*
X151233489Y-90730261D01*
X151078845Y-90699500D01*
X151078842Y-90699500D01*
X150921158Y-90699500D01*
X150921155Y-90699500D01*
X150766510Y-90730261D01*
X150766498Y-90730264D01*
X150620827Y-90790602D01*
X150620814Y-90790609D01*
X150489711Y-90878210D01*
X150489707Y-90878213D01*
X150378213Y-90989707D01*
X150378210Y-90989711D01*
X150290609Y-91120814D01*
X150290602Y-91120827D01*
X150230264Y-91266498D01*
X150230261Y-91266510D01*
X150199500Y-91421153D01*
X114000500Y-91421153D01*
X114000500Y-87671153D01*
X125699500Y-87671153D01*
X125699500Y-87828846D01*
X125730261Y-87983489D01*
X125730264Y-87983501D01*
X125790602Y-88129172D01*
X125790609Y-88129185D01*
X125878210Y-88260288D01*
X125878213Y-88260292D01*
X125989707Y-88371786D01*
X125989711Y-88371789D01*
X126120814Y-88459390D01*
X126120827Y-88459397D01*
X126266498Y-88519735D01*
X126266503Y-88519737D01*
X126421153Y-88550499D01*
X126421156Y-88550500D01*
X126421158Y-88550500D01*
X126578844Y-88550500D01*
X126578845Y-88550499D01*
X126733497Y-88519737D01*
X126879179Y-88459394D01*
X127010289Y-88371789D01*
X127121789Y-88260289D01*
X127209394Y-88129179D01*
X127269737Y-87983497D01*
X127300500Y-87828842D01*
X127300500Y-87671158D01*
X127300500Y-87671155D01*
X127300499Y-87671153D01*
X127269738Y-87516510D01*
X127269737Y-87516503D01*
X127269735Y-87516498D01*
X127209397Y-87370827D01*
X127209390Y-87370814D01*
X127121789Y-87239711D01*
X127121786Y-87239707D01*
X127010292Y-87128213D01*
X127010288Y-87128210D01*
X126879185Y-87040609D01*
X126879172Y-87040602D01*
X126733501Y-86980264D01*
X126733489Y-86980261D01*
X126578845Y-86949500D01*
X126578842Y-86949500D01*
X126421158Y-86949500D01*
X126421155Y-86949500D01*
X126266510Y-86980261D01*
X126266498Y-86980264D01*
X126120827Y-87040602D01*
X126120814Y-87040609D01*
X125989711Y-87128210D01*
X125989707Y-87128213D01*
X125878213Y-87239707D01*
X125878210Y-87239711D01*
X125790609Y-87370814D01*
X125790602Y-87370827D01*
X125730264Y-87516498D01*
X125730261Y-87516510D01*
X125699500Y-87671153D01*
X114000500Y-87671153D01*
X114000500Y-85671153D01*
X130699500Y-85671153D01*
X130699500Y-85828846D01*
X130730261Y-85983489D01*
X130730264Y-85983501D01*
X130790602Y-86129172D01*
X130790609Y-86129185D01*
X130878210Y-86260288D01*
X130878213Y-86260292D01*
X130989707Y-86371786D01*
X130989711Y-86371789D01*
X131120814Y-86459390D01*
X131120827Y-86459397D01*
X131266498Y-86519735D01*
X131266503Y-86519737D01*
X131421153Y-86550499D01*
X131421156Y-86550500D01*
X131421158Y-86550500D01*
X131578844Y-86550500D01*
X131578845Y-86550499D01*
X131733497Y-86519737D01*
X131879179Y-86459394D01*
X132010289Y-86371789D01*
X132121789Y-86260289D01*
X132209394Y-86129179D01*
X132269737Y-85983497D01*
X132300500Y-85828842D01*
X132300500Y-85671158D01*
X132300500Y-85671155D01*
X132300499Y-85671153D01*
X132269738Y-85516510D01*
X132269737Y-85516503D01*
X132267163Y-85510288D01*
X132209397Y-85370827D01*
X132209390Y-85370814D01*
X132121789Y-85239711D01*
X132121786Y-85239707D01*
X132010292Y-85128213D01*
X132010288Y-85128210D01*
X131879185Y-85040609D01*
X131879172Y-85040602D01*
X131733501Y-84980264D01*
X131733489Y-84980261D01*
X131578845Y-84949500D01*
X131578842Y-84949500D01*
X131421158Y-84949500D01*
X131421155Y-84949500D01*
X131266510Y-84980261D01*
X131266498Y-84980264D01*
X131120827Y-85040602D01*
X131120814Y-85040609D01*
X130989711Y-85128210D01*
X130989707Y-85128213D01*
X130878213Y-85239707D01*
X130878210Y-85239711D01*
X130790609Y-85370814D01*
X130790602Y-85370827D01*
X130730264Y-85516498D01*
X130730261Y-85516510D01*
X130699500Y-85671153D01*
X114000500Y-85671153D01*
X114000500Y-84171153D01*
X136949500Y-84171153D01*
X136949500Y-84328846D01*
X136980261Y-84483489D01*
X136980264Y-84483501D01*
X137040602Y-84629172D01*
X137040609Y-84629185D01*
X137128210Y-84760288D01*
X137128213Y-84760292D01*
X137239707Y-84871786D01*
X137239711Y-84871789D01*
X137370814Y-84959390D01*
X137370827Y-84959397D01*
X137516498Y-85019735D01*
X137516503Y-85019737D01*
X137671153Y-85050499D01*
X137671156Y-85050500D01*
X137671158Y-85050500D01*
X137828844Y-85050500D01*
X137828845Y-85050499D01*
X137983497Y-85019737D01*
X138129179Y-84959394D01*
X138186411Y-84921153D01*
X143199500Y-84921153D01*
X143199500Y-85078846D01*
X143230261Y-85233489D01*
X143230264Y-85233501D01*
X143290602Y-85379172D01*
X143290609Y-85379185D01*
X143378210Y-85510288D01*
X143378213Y-85510292D01*
X143489707Y-85621786D01*
X143489711Y-85621789D01*
X143620814Y-85709390D01*
X143620827Y-85709397D01*
X143766498Y-85769735D01*
X143766503Y-85769737D01*
X143921153Y-85800499D01*
X143921156Y-85800500D01*
X143921158Y-85800500D01*
X144078844Y-85800500D01*
X144078845Y-85800499D01*
X144233497Y-85769737D01*
X144379179Y-85709394D01*
X144510289Y-85621789D01*
X144621789Y-85510289D01*
X144709394Y-85379179D01*
X144712854Y-85370827D01*
X144767163Y-85239711D01*
X144769737Y-85233497D01*
X144800500Y-85078842D01*
X144800500Y-84921158D01*
X144800500Y-84921155D01*
X144800499Y-84921153D01*
X144769738Y-84766510D01*
X144769737Y-84766503D01*
X144767163Y-84760288D01*
X144709397Y-84620827D01*
X144709390Y-84620814D01*
X144621789Y-84489711D01*
X144621786Y-84489707D01*
X144510292Y-84378213D01*
X144510288Y-84378210D01*
X144379185Y-84290609D01*
X144379172Y-84290602D01*
X144233501Y-84230264D01*
X144233489Y-84230261D01*
X144078845Y-84199500D01*
X144078842Y-84199500D01*
X143921158Y-84199500D01*
X143921155Y-84199500D01*
X143766510Y-84230261D01*
X143766498Y-84230264D01*
X143620827Y-84290602D01*
X143620814Y-84290609D01*
X143489711Y-84378210D01*
X143489707Y-84378213D01*
X143378213Y-84489707D01*
X143378210Y-84489711D01*
X143290609Y-84620814D01*
X143290602Y-84620827D01*
X143230264Y-84766498D01*
X143230261Y-84766510D01*
X143199500Y-84921153D01*
X138186411Y-84921153D01*
X138260289Y-84871789D01*
X138260292Y-84871786D01*
X138304694Y-84827385D01*
X138371786Y-84760292D01*
X138371789Y-84760289D01*
X138459394Y-84629179D01*
X138462854Y-84620827D01*
X138517163Y-84489711D01*
X138519737Y-84483497D01*
X138550500Y-84328842D01*
X138550500Y-84171158D01*
X138550500Y-84171155D01*
X138550499Y-84171153D01*
X138519738Y-84016510D01*
X138519737Y-84016503D01*
X138519735Y-84016498D01*
X138459397Y-83870827D01*
X138459390Y-83870814D01*
X138371789Y-83739711D01*
X138371786Y-83739707D01*
X138260292Y-83628213D01*
X138260288Y-83628210D01*
X138129185Y-83540609D01*
X138129172Y-83540602D01*
X137983501Y-83480264D01*
X137983489Y-83480261D01*
X137828845Y-83449500D01*
X137828842Y-83449500D01*
X137671158Y-83449500D01*
X137671155Y-83449500D01*
X137516510Y-83480261D01*
X137516498Y-83480264D01*
X137370827Y-83540602D01*
X137370814Y-83540609D01*
X137239711Y-83628210D01*
X137239707Y-83628213D01*
X137128213Y-83739707D01*
X137128210Y-83739711D01*
X137040609Y-83870814D01*
X137040602Y-83870827D01*
X136980264Y-84016498D01*
X136980261Y-84016510D01*
X136949500Y-84171153D01*
X114000500Y-84171153D01*
X114000500Y-68171153D01*
X182199500Y-68171153D01*
X182199500Y-68328846D01*
X182230261Y-68483489D01*
X182230264Y-68483501D01*
X182290602Y-68629172D01*
X182290609Y-68629185D01*
X182378210Y-68760288D01*
X182378213Y-68760292D01*
X182489707Y-68871786D01*
X182489711Y-68871789D01*
X182620814Y-68959390D01*
X182620827Y-68959397D01*
X182766498Y-69019735D01*
X182766503Y-69019737D01*
X182921153Y-69050499D01*
X182921156Y-69050500D01*
X182921158Y-69050500D01*
X183078844Y-69050500D01*
X183078845Y-69050499D01*
X183233497Y-69019737D01*
X183379179Y-68959394D01*
X183510289Y-68871789D01*
X183621789Y-68760289D01*
X183709394Y-68629179D01*
X183769737Y-68483497D01*
X183800500Y-68328842D01*
X183800500Y-68171158D01*
X183800500Y-68171155D01*
X183800499Y-68171153D01*
X183769738Y-68016510D01*
X183769737Y-68016503D01*
X183769735Y-68016498D01*
X183709397Y-67870827D01*
X183709390Y-67870814D01*
X183621789Y-67739711D01*
X183621786Y-67739707D01*
X183510292Y-67628213D01*
X183510288Y-67628210D01*
X183379185Y-67540609D01*
X183379172Y-67540602D01*
X183233501Y-67480264D01*
X183233489Y-67480261D01*
X183078845Y-67449500D01*
X183078842Y-67449500D01*
X182921158Y-67449500D01*
X182921155Y-67449500D01*
X182766510Y-67480261D01*
X182766498Y-67480264D01*
X182620827Y-67540602D01*
X182620814Y-67540609D01*
X182489711Y-67628210D01*
X182489707Y-67628213D01*
X182378213Y-67739707D01*
X182378210Y-67739711D01*
X182290609Y-67870814D01*
X182290602Y-67870827D01*
X182230264Y-68016498D01*
X182230261Y-68016510D01*
X182199500Y-68171153D01*
X114000500Y-68171153D01*
X114000500Y-64507135D01*
X140044500Y-64507135D01*
X140044500Y-66552870D01*
X140044501Y-66552876D01*
X140050908Y-66612483D01*
X140101202Y-66747328D01*
X140101206Y-66747335D01*
X140187452Y-66862544D01*
X140187455Y-66862547D01*
X140302664Y-66948793D01*
X140302671Y-66948797D01*
X140437517Y-66999091D01*
X140437516Y-66999091D01*
X140444444Y-66999835D01*
X140497127Y-67005500D01*
X142542872Y-67005499D01*
X142602483Y-66999091D01*
X142737331Y-66948796D01*
X142852546Y-66862546D01*
X142938796Y-66747331D01*
X142938797Y-66747326D01*
X142941192Y-66742942D01*
X142990595Y-66693534D01*
X143058868Y-66678680D01*
X143122909Y-66702044D01*
X143246669Y-66791961D01*
X143344436Y-66841776D01*
X143453599Y-66897398D01*
X143453601Y-66897398D01*
X143453604Y-66897400D01*
X143674486Y-66969169D01*
X143792668Y-66987886D01*
X143903871Y-67005500D01*
X143903876Y-67005500D01*
X144136129Y-67005500D01*
X144237502Y-66989443D01*
X144365514Y-66969169D01*
X144586396Y-66897400D01*
X144793331Y-66791961D01*
X144981224Y-66655449D01*
X145145449Y-66491224D01*
X145193204Y-66425494D01*
X145197492Y-66420721D01*
X145221965Y-66405603D01*
X145244750Y-66388033D01*
X145252183Y-66386937D01*
X145256935Y-66384002D01*
X145270454Y-66384243D01*
X145299470Y-66379966D01*
X145315238Y-66381207D01*
X145918958Y-65777487D01*
X145943978Y-65837890D01*
X146015112Y-65944351D01*
X146105649Y-66034888D01*
X146212110Y-66106022D01*
X146272510Y-66131041D01*
X145668791Y-66734759D01*
X145668791Y-66734760D01*
X145746935Y-66791534D01*
X145953794Y-66896934D01*
X146174606Y-66968681D01*
X146403910Y-67005000D01*
X146636090Y-67005000D01*
X146865393Y-66968681D01*
X147086205Y-66896934D01*
X147293071Y-66791530D01*
X147371207Y-66734762D01*
X147371208Y-66734760D01*
X146767488Y-66131041D01*
X146827890Y-66106022D01*
X146934351Y-66034888D01*
X147024888Y-65944351D01*
X147096022Y-65837890D01*
X147121041Y-65777488D01*
X147724760Y-66381207D01*
X147740527Y-66379966D01*
X147808905Y-66394329D01*
X147850576Y-66430699D01*
X147894545Y-66491217D01*
X147894549Y-66491222D01*
X147894551Y-66491224D01*
X148058776Y-66655449D01*
X148246669Y-66791961D01*
X148344436Y-66841776D01*
X148453599Y-66897398D01*
X148453601Y-66897398D01*
X148453604Y-66897400D01*
X148674486Y-66969169D01*
X148792668Y-66987886D01*
X148903871Y-67005500D01*
X148903876Y-67005500D01*
X149136129Y-67005500D01*
X149237502Y-66989443D01*
X149365514Y-66969169D01*
X149586396Y-66897400D01*
X149793331Y-66791961D01*
X149981224Y-66655449D01*
X150145449Y-66491224D01*
X150169681Y-66457871D01*
X150225010Y-66415205D01*
X150294623Y-66409224D01*
X150356418Y-66441829D01*
X150370317Y-66457868D01*
X150371428Y-66459397D01*
X150394549Y-66491222D01*
X150394551Y-66491224D01*
X150558776Y-66655449D01*
X150746669Y-66791961D01*
X150844436Y-66841776D01*
X150953599Y-66897398D01*
X150953601Y-66897398D01*
X150953604Y-66897400D01*
X151174486Y-66969169D01*
X151292668Y-66987886D01*
X151403871Y-67005500D01*
X151403876Y-67005500D01*
X151636129Y-67005500D01*
X151737502Y-66989443D01*
X151865514Y-66969169D01*
X152086396Y-66897400D01*
X152293331Y-66791961D01*
X152481224Y-66655449D01*
X152645449Y-66491224D01*
X152669681Y-66457871D01*
X152725010Y-66415205D01*
X152794623Y-66409224D01*
X152856418Y-66441829D01*
X152870317Y-66457868D01*
X152871428Y-66459397D01*
X152894549Y-66491222D01*
X152894551Y-66491224D01*
X153058776Y-66655449D01*
X153246669Y-66791961D01*
X153344436Y-66841776D01*
X153453599Y-66897398D01*
X153453601Y-66897398D01*
X153453604Y-66897400D01*
X153674486Y-66969169D01*
X153792668Y-66987886D01*
X153903871Y-67005500D01*
X153903876Y-67005500D01*
X154136129Y-67005500D01*
X154237502Y-66989443D01*
X154365514Y-66969169D01*
X154586396Y-66897400D01*
X154793331Y-66791961D01*
X154981224Y-66655449D01*
X155145449Y-66491224D01*
X155169681Y-66457871D01*
X155225010Y-66415205D01*
X155294623Y-66409224D01*
X155356418Y-66441829D01*
X155370317Y-66457868D01*
X155371428Y-66459397D01*
X155394549Y-66491222D01*
X155394551Y-66491224D01*
X155558776Y-66655449D01*
X155746669Y-66791961D01*
X155844436Y-66841776D01*
X155953599Y-66897398D01*
X155953601Y-66897398D01*
X155953604Y-66897400D01*
X156174486Y-66969169D01*
X156292668Y-66987886D01*
X156403871Y-67005500D01*
X156403876Y-67005500D01*
X156636129Y-67005500D01*
X156737502Y-66989443D01*
X156865514Y-66969169D01*
X157086396Y-66897400D01*
X157293331Y-66791961D01*
X157481224Y-66655449D01*
X157645449Y-66491224D01*
X157669681Y-66457871D01*
X157725010Y-66415205D01*
X157794623Y-66409224D01*
X157856418Y-66441829D01*
X157870317Y-66457868D01*
X157871428Y-66459397D01*
X157894549Y-66491222D01*
X157894551Y-66491224D01*
X158058776Y-66655449D01*
X158246669Y-66791961D01*
X158344436Y-66841776D01*
X158453599Y-66897398D01*
X158453601Y-66897398D01*
X158453604Y-66897400D01*
X158674486Y-66969169D01*
X158792668Y-66987886D01*
X158903871Y-67005500D01*
X158903876Y-67005500D01*
X159136129Y-67005500D01*
X159237502Y-66989443D01*
X159365514Y-66969169D01*
X159586396Y-66897400D01*
X159793331Y-66791961D01*
X159981224Y-66655449D01*
X160145449Y-66491224D01*
X160169681Y-66457871D01*
X160225010Y-66415205D01*
X160294623Y-66409224D01*
X160356418Y-66441829D01*
X160370317Y-66457868D01*
X160371428Y-66459397D01*
X160394549Y-66491222D01*
X160394551Y-66491224D01*
X160558776Y-66655449D01*
X160746669Y-66791961D01*
X160844436Y-66841776D01*
X160953599Y-66897398D01*
X160953601Y-66897398D01*
X160953604Y-66897400D01*
X161174486Y-66969169D01*
X161292668Y-66987886D01*
X161403871Y-67005500D01*
X161403876Y-67005500D01*
X161636129Y-67005500D01*
X161737502Y-66989443D01*
X161865514Y-66969169D01*
X162086396Y-66897400D01*
X162293331Y-66791961D01*
X162481224Y-66655449D01*
X162645449Y-66491224D01*
X162669681Y-66457871D01*
X162725010Y-66415205D01*
X162794623Y-66409224D01*
X162856418Y-66441829D01*
X162870317Y-66457868D01*
X162871428Y-66459397D01*
X162894549Y-66491222D01*
X162894551Y-66491224D01*
X163058776Y-66655449D01*
X163246669Y-66791961D01*
X163344436Y-66841776D01*
X163453599Y-66897398D01*
X163453601Y-66897398D01*
X163453604Y-66897400D01*
X163674486Y-66969169D01*
X163792668Y-66987886D01*
X163903871Y-67005500D01*
X163903876Y-67005500D01*
X164136129Y-67005500D01*
X164237502Y-66989443D01*
X164365514Y-66969169D01*
X164586396Y-66897400D01*
X164793331Y-66791961D01*
X164981224Y-66655449D01*
X165145449Y-66491224D01*
X165169681Y-66457871D01*
X165225010Y-66415205D01*
X165294623Y-66409224D01*
X165356418Y-66441829D01*
X165370317Y-66457868D01*
X165371428Y-66459397D01*
X165394549Y-66491222D01*
X165394551Y-66491224D01*
X165558776Y-66655449D01*
X165746669Y-66791961D01*
X165844436Y-66841776D01*
X165953599Y-66897398D01*
X165953601Y-66897398D01*
X165953604Y-66897400D01*
X166174486Y-66969169D01*
X166292668Y-66987886D01*
X166403871Y-67005500D01*
X166403876Y-67005500D01*
X166636129Y-67005500D01*
X166737502Y-66989443D01*
X166865514Y-66969169D01*
X167086396Y-66897400D01*
X167293331Y-66791961D01*
X167481224Y-66655449D01*
X167645449Y-66491224D01*
X167669681Y-66457871D01*
X167725010Y-66415205D01*
X167794623Y-66409224D01*
X167856418Y-66441829D01*
X167870317Y-66457868D01*
X167871428Y-66459397D01*
X167894549Y-66491222D01*
X167894551Y-66491224D01*
X168058776Y-66655449D01*
X168246669Y-66791961D01*
X168344436Y-66841776D01*
X168453599Y-66897398D01*
X168453601Y-66897398D01*
X168453604Y-66897400D01*
X168674486Y-66969169D01*
X168792668Y-66987886D01*
X168903871Y-67005500D01*
X168903876Y-67005500D01*
X169136129Y-67005500D01*
X169237502Y-66989443D01*
X169365514Y-66969169D01*
X169586396Y-66897400D01*
X169793331Y-66791961D01*
X169981224Y-66655449D01*
X170145449Y-66491224D01*
X170281961Y-66303331D01*
X170387400Y-66096396D01*
X170459169Y-65875514D01*
X170483863Y-65719598D01*
X170491536Y-65671153D01*
X180199500Y-65671153D01*
X180199500Y-65828846D01*
X180230261Y-65983489D01*
X180230264Y-65983501D01*
X180290602Y-66129172D01*
X180290609Y-66129185D01*
X180378210Y-66260288D01*
X180378213Y-66260292D01*
X180489707Y-66371786D01*
X180489711Y-66371789D01*
X180620814Y-66459390D01*
X180620827Y-66459397D01*
X180766498Y-66519735D01*
X180766503Y-66519737D01*
X180921153Y-66550499D01*
X180921156Y-66550500D01*
X180921158Y-66550500D01*
X181078844Y-66550500D01*
X181078845Y-66550499D01*
X181233497Y-66519737D01*
X181379179Y-66459394D01*
X181510289Y-66371789D01*
X181621789Y-66260289D01*
X181709394Y-66129179D01*
X181769737Y-65983497D01*
X181800500Y-65828842D01*
X181800500Y-65671158D01*
X181800500Y-65671155D01*
X181800499Y-65671153D01*
X181785156Y-65594019D01*
X181769737Y-65516503D01*
X181727228Y-65413876D01*
X181709397Y-65370827D01*
X181709390Y-65370814D01*
X181621789Y-65239711D01*
X181621786Y-65239707D01*
X181510292Y-65128213D01*
X181510288Y-65128210D01*
X181379185Y-65040609D01*
X181379172Y-65040602D01*
X181233501Y-64980264D01*
X181233489Y-64980261D01*
X181078845Y-64949500D01*
X181078842Y-64949500D01*
X180921158Y-64949500D01*
X180921155Y-64949500D01*
X180766510Y-64980261D01*
X180766498Y-64980264D01*
X180620827Y-65040602D01*
X180620814Y-65040609D01*
X180489711Y-65128210D01*
X180489707Y-65128213D01*
X180378213Y-65239707D01*
X180378210Y-65239711D01*
X180290609Y-65370814D01*
X180290602Y-65370827D01*
X180230264Y-65516498D01*
X180230261Y-65516510D01*
X180199500Y-65671153D01*
X170491536Y-65671153D01*
X170495500Y-65646128D01*
X170495500Y-65413870D01*
X170476232Y-65292222D01*
X170459169Y-65184486D01*
X170387400Y-64963604D01*
X170387398Y-64963601D01*
X170387398Y-64963599D01*
X170281960Y-64756668D01*
X170226281Y-64680032D01*
X170145449Y-64568776D01*
X169981224Y-64404551D01*
X169793331Y-64268039D01*
X169586400Y-64162601D01*
X169365514Y-64090831D01*
X169136129Y-64054500D01*
X169136124Y-64054500D01*
X168903876Y-64054500D01*
X168903871Y-64054500D01*
X168674485Y-64090831D01*
X168453599Y-64162601D01*
X168246668Y-64268039D01*
X168058773Y-64404553D01*
X167894553Y-64568773D01*
X167894546Y-64568782D01*
X167870317Y-64602130D01*
X167814987Y-64644796D01*
X167745374Y-64650774D01*
X167683579Y-64618167D01*
X167669683Y-64602130D01*
X167645453Y-64568782D01*
X167645449Y-64568776D01*
X167481224Y-64404551D01*
X167293331Y-64268039D01*
X167086400Y-64162601D01*
X166865514Y-64090831D01*
X166636129Y-64054500D01*
X166636124Y-64054500D01*
X166403876Y-64054500D01*
X166403871Y-64054500D01*
X166174485Y-64090831D01*
X165953599Y-64162601D01*
X165746668Y-64268039D01*
X165558773Y-64404553D01*
X165394553Y-64568773D01*
X165394546Y-64568782D01*
X165370317Y-64602130D01*
X165314987Y-64644796D01*
X165245374Y-64650774D01*
X165183579Y-64618167D01*
X165169683Y-64602130D01*
X165145453Y-64568782D01*
X165145449Y-64568776D01*
X164981224Y-64404551D01*
X164793331Y-64268039D01*
X164586400Y-64162601D01*
X164365514Y-64090831D01*
X164136129Y-64054500D01*
X164136124Y-64054500D01*
X163903876Y-64054500D01*
X163903871Y-64054500D01*
X163674485Y-64090831D01*
X163453599Y-64162601D01*
X163246668Y-64268039D01*
X163058773Y-64404553D01*
X162894553Y-64568773D01*
X162894546Y-64568782D01*
X162870317Y-64602130D01*
X162814987Y-64644796D01*
X162745374Y-64650774D01*
X162683579Y-64618167D01*
X162669683Y-64602130D01*
X162645453Y-64568782D01*
X162645449Y-64568776D01*
X162481224Y-64404551D01*
X162293331Y-64268039D01*
X162086400Y-64162601D01*
X161865514Y-64090831D01*
X161636129Y-64054500D01*
X161636124Y-64054500D01*
X161403876Y-64054500D01*
X161403871Y-64054500D01*
X161174485Y-64090831D01*
X160953599Y-64162601D01*
X160746668Y-64268039D01*
X160558773Y-64404553D01*
X160394553Y-64568773D01*
X160394546Y-64568782D01*
X160370317Y-64602130D01*
X160314987Y-64644796D01*
X160245374Y-64650774D01*
X160183579Y-64618167D01*
X160169683Y-64602130D01*
X160145453Y-64568782D01*
X160145449Y-64568776D01*
X159981224Y-64404551D01*
X159793331Y-64268039D01*
X159586400Y-64162601D01*
X159365514Y-64090831D01*
X159136129Y-64054500D01*
X159136124Y-64054500D01*
X158903876Y-64054500D01*
X158903871Y-64054500D01*
X158674485Y-64090831D01*
X158453599Y-64162601D01*
X158246668Y-64268039D01*
X158058773Y-64404553D01*
X157894553Y-64568773D01*
X157894546Y-64568782D01*
X157870317Y-64602130D01*
X157814987Y-64644796D01*
X157745374Y-64650774D01*
X157683579Y-64618167D01*
X157669683Y-64602130D01*
X157645453Y-64568782D01*
X157645449Y-64568776D01*
X157481224Y-64404551D01*
X157293331Y-64268039D01*
X157086400Y-64162601D01*
X156865514Y-64090831D01*
X156636129Y-64054500D01*
X156636124Y-64054500D01*
X156403876Y-64054500D01*
X156403871Y-64054500D01*
X156174485Y-64090831D01*
X155953599Y-64162601D01*
X155746668Y-64268039D01*
X155558773Y-64404553D01*
X155394553Y-64568773D01*
X155394546Y-64568782D01*
X155370317Y-64602130D01*
X155314987Y-64644796D01*
X155245374Y-64650774D01*
X155183579Y-64618167D01*
X155169683Y-64602130D01*
X155145453Y-64568782D01*
X155145449Y-64568776D01*
X154981224Y-64404551D01*
X154793331Y-64268039D01*
X154586400Y-64162601D01*
X154365514Y-64090831D01*
X154136129Y-64054500D01*
X154136124Y-64054500D01*
X153903876Y-64054500D01*
X153903871Y-64054500D01*
X153674485Y-64090831D01*
X153453599Y-64162601D01*
X153246668Y-64268039D01*
X153058773Y-64404553D01*
X152894553Y-64568773D01*
X152894546Y-64568782D01*
X152870317Y-64602130D01*
X152814987Y-64644796D01*
X152745374Y-64650774D01*
X152683579Y-64618167D01*
X152669683Y-64602130D01*
X152645453Y-64568782D01*
X152645449Y-64568776D01*
X152481224Y-64404551D01*
X152293331Y-64268039D01*
X152086400Y-64162601D01*
X151865514Y-64090831D01*
X151636129Y-64054500D01*
X151636124Y-64054500D01*
X151403876Y-64054500D01*
X151403871Y-64054500D01*
X151174485Y-64090831D01*
X150953599Y-64162601D01*
X150746668Y-64268039D01*
X150558773Y-64404553D01*
X150394553Y-64568773D01*
X150394546Y-64568782D01*
X150370317Y-64602130D01*
X150314987Y-64644796D01*
X150245374Y-64650774D01*
X150183579Y-64618167D01*
X150169683Y-64602130D01*
X150145453Y-64568782D01*
X150145449Y-64568776D01*
X149981224Y-64404551D01*
X149793331Y-64268039D01*
X149586400Y-64162601D01*
X149365514Y-64090831D01*
X149136129Y-64054500D01*
X149136124Y-64054500D01*
X148903876Y-64054500D01*
X148903871Y-64054500D01*
X148674485Y-64090831D01*
X148453599Y-64162601D01*
X148246668Y-64268039D01*
X148058773Y-64404553D01*
X147894550Y-64568776D01*
X147850576Y-64629301D01*
X147795245Y-64671966D01*
X147740530Y-64680032D01*
X147724761Y-64678790D01*
X147121041Y-65282510D01*
X147096022Y-65222110D01*
X147024888Y-65115649D01*
X146934351Y-65025112D01*
X146827890Y-64953978D01*
X146767487Y-64928957D01*
X147371207Y-64325238D01*
X147293064Y-64268465D01*
X147086205Y-64163065D01*
X146865393Y-64091318D01*
X146636090Y-64055000D01*
X146403910Y-64055000D01*
X146174606Y-64091318D01*
X145953794Y-64163065D01*
X145746925Y-64268470D01*
X145668791Y-64325237D01*
X145668791Y-64325238D01*
X146272511Y-64928958D01*
X146212110Y-64953978D01*
X146105649Y-65025112D01*
X146015112Y-65115649D01*
X145943978Y-65222110D01*
X145918958Y-65282511D01*
X145315237Y-64678790D01*
X145299469Y-64680032D01*
X145295663Y-64679232D01*
X145291955Y-64680394D01*
X145261753Y-64672109D01*
X145231092Y-64665668D01*
X145227237Y-64662640D01*
X145224574Y-64661910D01*
X145215005Y-64653033D01*
X145197492Y-64639278D01*
X145193200Y-64634500D01*
X145145449Y-64568776D01*
X144981224Y-64404551D01*
X144793331Y-64268039D01*
X144586400Y-64162601D01*
X144365514Y-64090831D01*
X144136129Y-64054500D01*
X144136124Y-64054500D01*
X143903876Y-64054500D01*
X143903871Y-64054500D01*
X143674485Y-64090831D01*
X143453599Y-64162601D01*
X143246665Y-64268041D01*
X143122912Y-64357952D01*
X143057105Y-64381432D01*
X142989052Y-64365606D01*
X142941196Y-64317064D01*
X142938793Y-64312664D01*
X142852547Y-64197455D01*
X142852544Y-64197452D01*
X142737335Y-64111206D01*
X142737328Y-64111202D01*
X142602482Y-64060908D01*
X142602483Y-64060908D01*
X142542883Y-64054501D01*
X142542881Y-64054500D01*
X142542873Y-64054500D01*
X142542864Y-64054500D01*
X140497129Y-64054500D01*
X140497123Y-64054501D01*
X140437516Y-64060908D01*
X140302671Y-64111202D01*
X140302664Y-64111206D01*
X140187455Y-64197452D01*
X140187452Y-64197455D01*
X140101206Y-64312664D01*
X140101202Y-64312671D01*
X140050908Y-64447517D01*
X140044501Y-64507116D01*
X140044500Y-64507135D01*
X114000500Y-64507135D01*
X114000500Y-60893713D01*
X116149500Y-60893713D01*
X116149500Y-61106287D01*
X116182754Y-61316243D01*
X116193892Y-61350523D01*
X116248444Y-61518414D01*
X116344951Y-61707820D01*
X116469890Y-61879786D01*
X116620213Y-62030109D01*
X116792179Y-62155048D01*
X116792181Y-62155049D01*
X116792184Y-62155051D01*
X116981588Y-62251557D01*
X117183757Y-62317246D01*
X117393713Y-62350500D01*
X117393714Y-62350500D01*
X117606286Y-62350500D01*
X117606287Y-62350500D01*
X117816243Y-62317246D01*
X118018412Y-62251557D01*
X118207816Y-62155051D01*
X118229789Y-62139086D01*
X118379786Y-62030109D01*
X118379788Y-62030106D01*
X118379792Y-62030104D01*
X118530104Y-61879792D01*
X118530106Y-61879788D01*
X118530109Y-61879786D01*
X118655048Y-61707820D01*
X118655047Y-61707820D01*
X118655051Y-61707816D01*
X118751557Y-61518412D01*
X118792074Y-61393713D01*
X192149500Y-61393713D01*
X192149500Y-61606287D01*
X192182754Y-61816243D01*
X192203402Y-61879792D01*
X192248444Y-62018414D01*
X192344951Y-62207820D01*
X192469890Y-62379786D01*
X192620213Y-62530109D01*
X192792179Y-62655048D01*
X192792181Y-62655049D01*
X192792184Y-62655051D01*
X192981588Y-62751557D01*
X193183757Y-62817246D01*
X193393713Y-62850500D01*
X193393714Y-62850500D01*
X193606286Y-62850500D01*
X193606287Y-62850500D01*
X193816243Y-62817246D01*
X194018412Y-62751557D01*
X194207816Y-62655051D01*
X194229789Y-62639086D01*
X194379786Y-62530109D01*
X194379788Y-62530106D01*
X194379792Y-62530104D01*
X194530104Y-62379792D01*
X194530106Y-62379788D01*
X194530109Y-62379786D01*
X194655048Y-62207820D01*
X194655047Y-62207820D01*
X194655051Y-62207816D01*
X194751557Y-62018412D01*
X194817246Y-61816243D01*
X194850500Y-61606287D01*
X194850500Y-61393713D01*
X194817246Y-61183757D01*
X194751557Y-60981588D01*
X194655051Y-60792184D01*
X194655049Y-60792181D01*
X194655048Y-60792179D01*
X194530109Y-60620213D01*
X194379786Y-60469890D01*
X194207820Y-60344951D01*
X194018414Y-60248444D01*
X194018413Y-60248443D01*
X194018412Y-60248443D01*
X193816243Y-60182754D01*
X193816241Y-60182753D01*
X193816240Y-60182753D01*
X193654957Y-60157208D01*
X193606287Y-60149500D01*
X193393713Y-60149500D01*
X193345042Y-60157208D01*
X193183760Y-60182753D01*
X192981585Y-60248444D01*
X192792179Y-60344951D01*
X192620213Y-60469890D01*
X192469890Y-60620213D01*
X192344951Y-60792179D01*
X192248444Y-60981585D01*
X192182753Y-61183760D01*
X192161771Y-61316237D01*
X192149500Y-61393713D01*
X118792074Y-61393713D01*
X118817246Y-61316243D01*
X118850500Y-61106287D01*
X118850500Y-60893713D01*
X118817246Y-60683757D01*
X118751557Y-60481588D01*
X118655051Y-60292184D01*
X118655049Y-60292181D01*
X118655048Y-60292179D01*
X118530109Y-60120213D01*
X118379786Y-59969890D01*
X118207820Y-59844951D01*
X118018414Y-59748444D01*
X118018413Y-59748443D01*
X118018412Y-59748443D01*
X117816243Y-59682754D01*
X117816241Y-59682753D01*
X117816240Y-59682753D01*
X117654957Y-59657208D01*
X117606287Y-59649500D01*
X117393713Y-59649500D01*
X117345042Y-59657208D01*
X117183760Y-59682753D01*
X116981585Y-59748444D01*
X116792179Y-59844951D01*
X116620213Y-59969890D01*
X116469890Y-60120213D01*
X116344951Y-60292179D01*
X116248444Y-60481585D01*
X116182753Y-60683760D01*
X116149500Y-60893713D01*
X114000500Y-60893713D01*
X114000500Y-57624500D01*
X114020185Y-57557461D01*
X114072989Y-57511706D01*
X114124500Y-57500500D01*
X196875500Y-57500500D01*
X196942539Y-57520185D01*
G37*
%TD.AperFunction*%
%TD*%
M02*
