%TF.GenerationSoftware,KiCad,Pcbnew,9.0.6-1.fc43*%
%TF.CreationDate,2025-12-17T22:37:06-05:00*%
%TF.ProjectId,electrical,656c6563-7472-4696-9361-6c2e6b696361,rev?*%
%TF.SameCoordinates,Original*%
%TF.FileFunction,Paste,Bot*%
%TF.FilePolarity,Positive*%
%FSLAX46Y46*%
G04 Gerber Fmt 4.6, Leading zero omitted, Abs format (unit mm)*
G04 Created by KiCad (PCBNEW 9.0.6-1.fc43) date 2025-12-17 22:37:06*
%MOMM*%
%LPD*%
G01*
G04 APERTURE LIST*
%ADD10R,1.200000X1.000000*%
%ADD11R,0.900000X1.000000*%
%ADD12R,0.780000X0.990000*%
%ADD13R,0.508000X1.117600*%
%ADD14R,1.117600X0.508000*%
%ADD15R,1.000000X0.900000*%
%ADD16R,0.990000X0.780000*%
%ADD17R,3.500000X2.600000*%
%ADD18R,1.475000X0.300000*%
%ADD19R,0.300000X1.475000*%
%ADD20R,0.800000X0.800000*%
G04 APERTURE END LIST*
D10*
%TO.C,SW2*%
X166200000Y-104500000D03*
X166200000Y-107000000D03*
X166200000Y-109500000D03*
%TD*%
D11*
%TO.C,R1*%
X173500000Y-65750000D03*
X175100000Y-65750000D03*
%TD*%
D12*
%TO.C,C7*%
X145650000Y-114012000D03*
X144250000Y-114012000D03*
%TD*%
D13*
%TO.C,IC3*%
X185506600Y-118871600D03*
X184693800Y-118871600D03*
X183906400Y-118871600D03*
X183093600Y-118871600D03*
X182306200Y-118871600D03*
X181493400Y-118871600D03*
D14*
X181620400Y-117500000D03*
D13*
X181493400Y-116128400D03*
X182306200Y-116128400D03*
X183093600Y-116128400D03*
X183906400Y-116128400D03*
X184693800Y-116128400D03*
X185506600Y-116128400D03*
D14*
X185379600Y-117500000D03*
%TD*%
D15*
%TO.C,R2*%
X166300000Y-131540000D03*
X166300000Y-133140000D03*
%TD*%
D12*
%TO.C,C5*%
X148400000Y-114012000D03*
X147000000Y-114012000D03*
%TD*%
D15*
%TO.C,R3*%
X163300000Y-133140000D03*
X163300000Y-131540000D03*
%TD*%
D16*
%TO.C,C2*%
X140500000Y-103750000D03*
X140500000Y-102350000D03*
%TD*%
D17*
%TO.C,BT2*%
X183000000Y-70000000D03*
X183000000Y-99400000D03*
%TD*%
D12*
%TO.C,C3*%
X148550000Y-100012000D03*
X149950000Y-100012000D03*
%TD*%
D16*
%TO.C,C21*%
X136500000Y-84200000D03*
X136500000Y-82800000D03*
%TD*%
D12*
%TO.C,C4*%
X141550000Y-115512000D03*
X142950000Y-115512000D03*
%TD*%
%TO.C,C8*%
X144250000Y-115512000D03*
X145650000Y-115512000D03*
%TD*%
D11*
%TO.C,R5*%
X161000000Y-107000000D03*
X162600000Y-107000000D03*
%TD*%
D15*
%TO.C,R4*%
X155800000Y-133140000D03*
X155800000Y-131540000D03*
%TD*%
%TO.C,R9*%
X179750000Y-115700000D03*
X179750000Y-117300000D03*
%TD*%
D16*
%TO.C,C9*%
X159500000Y-114300000D03*
X159500000Y-115700000D03*
%TD*%
D11*
%TO.C,R10*%
X125850000Y-84250000D03*
X124250000Y-84250000D03*
%TD*%
D12*
%TO.C,C11*%
X187000000Y-120500000D03*
X185600000Y-120500000D03*
%TD*%
%TO.C,C10*%
X181250000Y-120500000D03*
X179850000Y-120500000D03*
%TD*%
D11*
%TO.C,R11*%
X125850000Y-86250000D03*
X124250000Y-86250000D03*
%TD*%
D18*
%TO.C,IC1*%
X150738000Y-103500000D03*
X150738000Y-104000000D03*
X150738000Y-104500000D03*
X150738000Y-105000000D03*
X150738000Y-105500000D03*
X150738000Y-106000000D03*
X150738000Y-106500000D03*
X150738000Y-107000000D03*
X150738000Y-107500000D03*
X150738000Y-108000000D03*
X150738000Y-108500000D03*
X150738000Y-109000000D03*
D19*
X149250000Y-110488000D03*
X148750000Y-110488000D03*
X148250000Y-110488000D03*
X147750000Y-110488000D03*
X147250000Y-110488000D03*
X146750000Y-110488000D03*
X146250000Y-110488000D03*
X145750000Y-110488000D03*
X145250000Y-110488000D03*
X144750000Y-110488000D03*
X144250000Y-110488000D03*
X143750000Y-110488000D03*
D18*
X142262000Y-109000000D03*
X142262000Y-108500000D03*
X142262000Y-108000000D03*
X142262000Y-107500000D03*
X142262000Y-107000000D03*
X142262000Y-106500000D03*
X142262000Y-106000000D03*
X142262000Y-105500000D03*
X142262000Y-105000000D03*
X142262000Y-104500000D03*
X142262000Y-104000000D03*
X142262000Y-103500000D03*
D19*
X143750000Y-102012000D03*
X144250000Y-102012000D03*
X144750000Y-102012000D03*
X145250000Y-102012000D03*
X145750000Y-102012000D03*
X146250000Y-102012000D03*
X146750000Y-102012000D03*
X147250000Y-102012000D03*
X147750000Y-102012000D03*
X148250000Y-102012000D03*
X148750000Y-102012000D03*
X149250000Y-102012000D03*
%TD*%
D12*
%TO.C,C1*%
X142950000Y-114012000D03*
X141550000Y-114012000D03*
%TD*%
D11*
%TO.C,R7*%
X135750000Y-108000000D03*
X137350000Y-108000000D03*
%TD*%
D20*
%TO.C,D1*%
X177550000Y-65750000D03*
X179050000Y-65750000D03*
%TD*%
D12*
%TO.C,C6*%
X147000000Y-115512000D03*
X148400000Y-115512000D03*
%TD*%
M02*
