%TF.GenerationSoftware,KiCad,Pcbnew,9.0.6-1.fc43*%
%TF.CreationDate,2025-12-17T22:37:05-05:00*%
%TF.ProjectId,electrical,656c6563-7472-4696-9361-6c2e6b696361,rev?*%
%TF.SameCoordinates,Original*%
%TF.FileFunction,Copper,L2,Inr*%
%TF.FilePolarity,Positive*%
%FSLAX46Y46*%
G04 Gerber Fmt 4.6, Leading zero omitted, Abs format (unit mm)*
G04 Created by KiCad (PCBNEW 9.0.6-1.fc43) date 2025-12-17 22:37:05*
%MOMM*%
%LPD*%
G01*
G04 APERTURE LIST*
%TA.AperFunction,ComponentPad*%
%ADD10R,1.725000X1.725000*%
%TD*%
%TA.AperFunction,ComponentPad*%
%ADD11C,1.725000*%
%TD*%
%TA.AperFunction,ComponentPad*%
%ADD12R,1.800000X1.800000*%
%TD*%
%TA.AperFunction,ComponentPad*%
%ADD13C,1.800000*%
%TD*%
%TA.AperFunction,ComponentPad*%
%ADD14O,4.200000X2.100000*%
%TD*%
%TA.AperFunction,ComponentPad*%
%ADD15C,1.381000*%
%TD*%
%TA.AperFunction,ComponentPad*%
%ADD16R,1.950000X1.950000*%
%TD*%
%TA.AperFunction,ComponentPad*%
%ADD17C,1.950000*%
%TD*%
%TA.AperFunction,ViaPad*%
%ADD18C,0.600000*%
%TD*%
G04 APERTURE END LIST*
D10*
%TO.N,+3V0*%
%TO.C,J1*%
X143180000Y-129500000D03*
D11*
X143180000Y-126960000D03*
%TO.N,/Processor/TRST*%
X145720000Y-129500000D03*
%TO.N,GND*%
X145720000Y-126960000D03*
%TO.N,/Processor/TDI*%
X148260000Y-129500000D03*
%TO.N,GND*%
X148260000Y-126960000D03*
%TO.N,/Processor/TMS{slash}SWDAT*%
X150800000Y-129500000D03*
%TO.N,GND*%
X150800000Y-126960000D03*
%TO.N,/Processor/TCK{slash}SWCLK*%
X153340000Y-129500000D03*
%TO.N,GND*%
X153340000Y-126960000D03*
%TO.N,Net-(J1-Pad11)*%
X155880000Y-129500000D03*
%TO.N,GND*%
X155880000Y-126960000D03*
%TO.N,/Processor/TDO*%
X158420000Y-129500000D03*
%TO.N,GND*%
X158420000Y-126960000D03*
%TO.N,/Processor/NRST*%
X160960000Y-129500000D03*
%TO.N,GND*%
X160960000Y-126960000D03*
%TO.N,Net-(J1-Pad17)*%
X163500000Y-129500000D03*
%TO.N,GND*%
X163500000Y-126960000D03*
%TO.N,Net-(J1-Pad19)*%
X166040000Y-129500000D03*
%TO.N,GND*%
X166040000Y-126960000D03*
%TD*%
D12*
%TO.N,/Processor/POT_1*%
%TO.C,RV1*%
X128250000Y-133975000D03*
D13*
%TO.N,GND*%
X130750000Y-133975000D03*
%TO.N,+3V0*%
X133250000Y-133975000D03*
D14*
%TO.N,N/C*%
X126000000Y-126475000D03*
X135500000Y-126475000D03*
%TD*%
D12*
%TO.N,/Processor/POT_2*%
%TO.C,RV2*%
X176750000Y-134000000D03*
D13*
%TO.N,GND*%
X179250000Y-134000000D03*
%TO.N,+3V0*%
X181750000Y-134000000D03*
D14*
%TO.N,N/C*%
X174500000Y-126500000D03*
X184000000Y-126500000D03*
%TD*%
D15*
%TO.N,N/C*%
%TO.C,SW2*%
X168800000Y-105500000D03*
X168800000Y-108500000D03*
%TD*%
D16*
%TO.N,+3V0*%
%TO.C,IC2*%
X141520000Y-65530000D03*
D17*
%TO.N,unconnected-(IC2-3V0-Pad2)*%
X144020000Y-65530000D03*
%TO.N,GND*%
X146520000Y-65530000D03*
%TO.N,/Processor/WIFI_SCK*%
X149020000Y-65530000D03*
%TO.N,/Processor/WIFI_MISO*%
X151520000Y-65530000D03*
%TO.N,/Processor/WIFI_MOSI*%
X154020000Y-65530000D03*
%TO.N,/Processor/WIFI_CS*%
X156520000Y-65530000D03*
%TO.N,/Processor/WIFI_BUSY*%
X159020000Y-65530000D03*
%TO.N,/Processor/WIFI_RESET*%
X161520000Y-65530000D03*
%TO.N,unconnected-(IC2-GPIO_0-Pad10)*%
X164020000Y-65530000D03*
%TO.N,unconnected-(IC2-UART_RX-Pad11)*%
X166520000Y-65530000D03*
%TO.N,unconnected-(IC2-UART_TX-Pad12)*%
X169020000Y-65530000D03*
%TD*%
D18*
%TO.N,GND*%
X182750000Y-101750000D03*
X166250000Y-134500000D03*
X133750000Y-91250000D03*
X142000000Y-119000000D03*
X139250000Y-103250000D03*
X133750000Y-88250000D03*
X159500000Y-119000000D03*
X177500000Y-119350000D03*
X168500000Y-119500000D03*
X145500000Y-116750000D03*
X163250000Y-134500000D03*
X148500000Y-79000000D03*
X149250000Y-115500000D03*
X185500000Y-121750000D03*
X126500000Y-86750000D03*
X155750000Y-134500000D03*
X173500000Y-64500000D03*
X164750000Y-109750000D03*
X183000000Y-120500000D03*
X129500000Y-82250000D03*
X182750000Y-121500000D03*
X133500000Y-94250000D03*
X132750000Y-119000000D03*
X134500000Y-81250000D03*
X137750000Y-82750000D03*
X150250000Y-119000000D03*
X149000000Y-99000000D03*
%TO.N,+3V0*%
X147000000Y-116750000D03*
X138750000Y-108000000D03*
X178250000Y-120750000D03*
X144750000Y-117500000D03*
X151000000Y-91500000D03*
X183500000Y-114750000D03*
X187250000Y-119250000D03*
X151250000Y-102750000D03*
X150750000Y-99000000D03*
X140250000Y-115500000D03*
X140500000Y-101500000D03*
X183000000Y-68250000D03*
X137750000Y-84250000D03*
X144000000Y-85000000D03*
X174500000Y-110000000D03*
X180750000Y-114500000D03*
X131500000Y-85750000D03*
X184250000Y-120500000D03*
X181000000Y-65750000D03*
X164500000Y-103750000D03*
%TO.N,/Processor/NRST*%
X161375000Y-114375000D03*
%TO.N,/Screen/1V8*%
X126500000Y-87750000D03*
%TO.N,/Accelerometer/ADXL_SCL*%
X146000000Y-105000000D03*
%TO.N,/Processor/EINK_CS*%
X146092185Y-98440715D03*
%TO.N,/Processor/EINK_D_C*%
X146318500Y-96667027D03*
%TO.N,/Processor/TCK{slash}SWCLK*%
X142543761Y-97934358D03*
%TO.N,/Processor/TMS{slash}SWDAT*%
X142100000Y-98600000D03*
%TO.N,/Processor/WIFI_CS*%
X152250000Y-108500000D03*
%TO.N,/Processor/WIFI_SCK*%
X153050003Y-108500000D03*
%TO.N,/Processor/BUTTON_2*%
X156000000Y-105000000D03*
%TO.N,/Processor/EINK_RST*%
X146500000Y-106500000D03*
%TO.N,/Processor/BUTTON_1*%
X133250000Y-110500000D03*
%TO.N,/Processor/WIFI_BUSY*%
X156250015Y-108500000D03*
%TO.N,/Processor/TRST*%
X144000000Y-98000000D03*
%TO.N,/Accelerometer/ADXL_SDO*%
X184693800Y-107193800D03*
X178250000Y-103500000D03*
%TO.N,/Processor/WIFI_MOSI*%
X154650009Y-108500000D03*
%TO.N,/Processor/TDO*%
X144000000Y-99000000D03*
%TO.N,/Processor/WIFI_RESET*%
X155450012Y-108500000D03*
%TO.N,/Accelerometer/ADXL_SDI*%
X138000000Y-99000000D03*
%TO.N,/Processor/EINK_BUSY*%
X145515627Y-94600000D03*
%TO.N,/Processor/WIFI_MISO*%
X153850006Y-108500000D03*
%TO.N,/Processor/TDI*%
X144000000Y-100000000D03*
%TD*%
%TA.AperFunction,Conductor*%
%TO.N,+3V0*%
G36*
X144304219Y-127730666D02*
G01*
X144304219Y-127730665D01*
X144348177Y-127670165D01*
X144349607Y-127671204D01*
X144395753Y-127629428D01*
X144464679Y-127617982D01*
X144528851Y-127645618D01*
X144550756Y-127670889D01*
X144551394Y-127670426D01*
X144554257Y-127674367D01*
X144554258Y-127674368D01*
X144680362Y-127847935D01*
X144832065Y-127999638D01*
X144986452Y-128111807D01*
X145009574Y-128128606D01*
X145008499Y-128130085D01*
X145050120Y-128176109D01*
X145061527Y-128245041D01*
X145033856Y-128309198D01*
X145009058Y-128330684D01*
X145009574Y-128331394D01*
X144832066Y-128460361D01*
X144733983Y-128558444D01*
X144672659Y-128591928D01*
X144602968Y-128586944D01*
X144547035Y-128545072D01*
X144530120Y-128514095D01*
X144485854Y-128395413D01*
X144485850Y-128395406D01*
X144399690Y-128280312D01*
X144399687Y-128280309D01*
X144284593Y-128194149D01*
X144284586Y-128194145D01*
X144149877Y-128143902D01*
X144149869Y-128143900D01*
X144110990Y-128139720D01*
X144107186Y-128141063D01*
X144037416Y-128144802D01*
X143978254Y-128111807D01*
X143370646Y-127504200D01*
X143401942Y-127495815D01*
X143533058Y-127420115D01*
X143640115Y-127313058D01*
X143715815Y-127181942D01*
X143724200Y-127150647D01*
X144304219Y-127730666D01*
G37*
%TD.AperFunction*%
%TA.AperFunction,Conductor*%
G36*
X196942539Y-57520185D02*
G01*
X196988294Y-57572989D01*
X196999500Y-57624500D01*
X196999500Y-145375500D01*
X196979815Y-145442539D01*
X196927011Y-145488294D01*
X196875500Y-145499500D01*
X114124500Y-145499500D01*
X114057461Y-145479815D01*
X114011706Y-145427011D01*
X114000500Y-145375500D01*
X114000500Y-141893713D01*
X115649500Y-141893713D01*
X115649500Y-142106287D01*
X115682754Y-142316243D01*
X115703402Y-142379792D01*
X115748444Y-142518414D01*
X115844951Y-142707820D01*
X115969890Y-142879786D01*
X116120213Y-143030109D01*
X116292179Y-143155048D01*
X116292181Y-143155049D01*
X116292184Y-143155051D01*
X116481588Y-143251557D01*
X116683757Y-143317246D01*
X116893713Y-143350500D01*
X116893714Y-143350500D01*
X117106286Y-143350500D01*
X117106287Y-143350500D01*
X117316243Y-143317246D01*
X117518412Y-143251557D01*
X117707816Y-143155051D01*
X117729789Y-143139086D01*
X117879786Y-143030109D01*
X117879788Y-143030106D01*
X117879792Y-143030104D01*
X118030104Y-142879792D01*
X118030106Y-142879788D01*
X118030109Y-142879786D01*
X118155048Y-142707820D01*
X118155047Y-142707820D01*
X118155051Y-142707816D01*
X118251557Y-142518412D01*
X118317246Y-142316243D01*
X118350500Y-142106287D01*
X118350500Y-141893713D01*
X118317246Y-141683757D01*
X118251557Y-141481588D01*
X118206783Y-141393713D01*
X192149500Y-141393713D01*
X192149500Y-141606286D01*
X192182753Y-141816239D01*
X192248444Y-142018414D01*
X192344951Y-142207820D01*
X192469890Y-142379786D01*
X192620213Y-142530109D01*
X192792179Y-142655048D01*
X192792181Y-142655049D01*
X192792184Y-142655051D01*
X192981588Y-142751557D01*
X193183757Y-142817246D01*
X193393713Y-142850500D01*
X193393714Y-142850500D01*
X193606286Y-142850500D01*
X193606287Y-142850500D01*
X193816243Y-142817246D01*
X194018412Y-142751557D01*
X194207816Y-142655051D01*
X194229789Y-142639086D01*
X194379786Y-142530109D01*
X194379788Y-142530106D01*
X194379792Y-142530104D01*
X194530104Y-142379792D01*
X194530106Y-142379788D01*
X194530109Y-142379786D01*
X194655048Y-142207820D01*
X194655047Y-142207820D01*
X194655051Y-142207816D01*
X194751557Y-142018412D01*
X194817246Y-141816243D01*
X194850500Y-141606287D01*
X194850500Y-141393713D01*
X194817246Y-141183757D01*
X194751557Y-140981588D01*
X194655051Y-140792184D01*
X194655049Y-140792181D01*
X194655048Y-140792179D01*
X194530109Y-140620213D01*
X194379786Y-140469890D01*
X194207820Y-140344951D01*
X194018414Y-140248444D01*
X194018413Y-140248443D01*
X194018412Y-140248443D01*
X193816243Y-140182754D01*
X193816241Y-140182753D01*
X193816240Y-140182753D01*
X193654957Y-140157208D01*
X193606287Y-140149500D01*
X193393713Y-140149500D01*
X193345042Y-140157208D01*
X193183760Y-140182753D01*
X192981585Y-140248444D01*
X192792179Y-140344951D01*
X192620213Y-140469890D01*
X192469890Y-140620213D01*
X192344951Y-140792179D01*
X192248444Y-140981585D01*
X192182753Y-141183760D01*
X192149500Y-141393713D01*
X118206783Y-141393713D01*
X118155051Y-141292184D01*
X118147023Y-141281134D01*
X118030109Y-141120213D01*
X117879786Y-140969890D01*
X117707820Y-140844951D01*
X117518414Y-140748444D01*
X117518413Y-140748443D01*
X117518412Y-140748443D01*
X117316243Y-140682754D01*
X117316241Y-140682753D01*
X117316240Y-140682753D01*
X117154957Y-140657208D01*
X117106287Y-140649500D01*
X116893713Y-140649500D01*
X116845042Y-140657208D01*
X116683760Y-140682753D01*
X116481585Y-140748444D01*
X116292179Y-140844951D01*
X116120213Y-140969890D01*
X115969890Y-141120213D01*
X115844951Y-141292179D01*
X115748444Y-141481585D01*
X115682753Y-141683760D01*
X115661771Y-141816239D01*
X115649500Y-141893713D01*
X114000500Y-141893713D01*
X114000500Y-133027135D01*
X126849500Y-133027135D01*
X126849500Y-134922870D01*
X126849501Y-134922876D01*
X126855908Y-134982483D01*
X126906202Y-135117328D01*
X126906206Y-135117335D01*
X126992452Y-135232544D01*
X126992455Y-135232547D01*
X127107664Y-135318793D01*
X127107671Y-135318797D01*
X127242517Y-135369091D01*
X127242516Y-135369091D01*
X127249444Y-135369835D01*
X127302127Y-135375500D01*
X129197872Y-135375499D01*
X129257483Y-135369091D01*
X129392331Y-135318796D01*
X129507546Y-135232546D01*
X129593796Y-135117331D01*
X129603410Y-135091554D01*
X129612735Y-135066554D01*
X129654606Y-135010620D01*
X129720070Y-134986202D01*
X129788343Y-135001053D01*
X129816598Y-135022205D01*
X129837636Y-135043243D01*
X129837641Y-135043247D01*
X129986043Y-135151066D01*
X130015978Y-135172815D01*
X130144375Y-135238237D01*
X130212393Y-135272895D01*
X130212396Y-135272896D01*
X130297355Y-135300500D01*
X130422049Y-135341015D01*
X130639778Y-135375500D01*
X130639779Y-135375500D01*
X130860221Y-135375500D01*
X130860222Y-135375500D01*
X131077951Y-135341015D01*
X131287606Y-135272895D01*
X131484022Y-135172815D01*
X131662365Y-135043242D01*
X131818242Y-134887365D01*
X131899991Y-134774845D01*
X131955320Y-134732180D01*
X132024933Y-134726201D01*
X132086728Y-134758806D01*
X132098582Y-134772485D01*
X132098932Y-134772513D01*
X132685387Y-134186058D01*
X132690889Y-134206591D01*
X132769881Y-134343408D01*
X132881592Y-134455119D01*
X133018409Y-134534111D01*
X133038939Y-134539612D01*
X132452485Y-135126065D01*
X132452485Y-135126066D01*
X132516243Y-135172388D01*
X132712589Y-135272432D01*
X132922164Y-135340526D01*
X133139819Y-135375000D01*
X133360181Y-135375000D01*
X133577835Y-135340526D01*
X133787410Y-135272432D01*
X133983760Y-135172386D01*
X134047513Y-135126066D01*
X134047514Y-135126066D01*
X133461059Y-134539612D01*
X133481591Y-134534111D01*
X133618408Y-134455119D01*
X133730119Y-134343408D01*
X133809111Y-134206591D01*
X133814612Y-134186060D01*
X134401066Y-134772514D01*
X134401066Y-134772513D01*
X134447386Y-134708760D01*
X134547433Y-134512408D01*
X134577083Y-134421153D01*
X154949500Y-134421153D01*
X154949500Y-134578846D01*
X154980261Y-134733489D01*
X154980264Y-134733501D01*
X155040602Y-134879172D01*
X155040609Y-134879185D01*
X155128210Y-135010288D01*
X155128213Y-135010292D01*
X155239707Y-135121786D01*
X155239711Y-135121789D01*
X155370814Y-135209390D01*
X155370827Y-135209397D01*
X155516498Y-135269735D01*
X155516503Y-135269737D01*
X155655734Y-135297432D01*
X155671153Y-135300499D01*
X155671156Y-135300500D01*
X155671158Y-135300500D01*
X155828844Y-135300500D01*
X155828845Y-135300499D01*
X155983497Y-135269737D01*
X156129179Y-135209394D01*
X156260289Y-135121789D01*
X156371789Y-135010289D01*
X156459394Y-134879179D01*
X156519737Y-134733497D01*
X156550500Y-134578842D01*
X156550500Y-134421158D01*
X156550500Y-134421155D01*
X156550499Y-134421153D01*
X162449500Y-134421153D01*
X162449500Y-134578846D01*
X162480261Y-134733489D01*
X162480264Y-134733501D01*
X162540602Y-134879172D01*
X162540609Y-134879185D01*
X162628210Y-135010288D01*
X162628213Y-135010292D01*
X162739707Y-135121786D01*
X162739711Y-135121789D01*
X162870814Y-135209390D01*
X162870827Y-135209397D01*
X163016498Y-135269735D01*
X163016503Y-135269737D01*
X163155734Y-135297432D01*
X163171153Y-135300499D01*
X163171156Y-135300500D01*
X163171158Y-135300500D01*
X163328844Y-135300500D01*
X163328845Y-135300499D01*
X163483497Y-135269737D01*
X163629179Y-135209394D01*
X163760289Y-135121789D01*
X163871789Y-135010289D01*
X163959394Y-134879179D01*
X164019737Y-134733497D01*
X164050500Y-134578842D01*
X164050500Y-134421158D01*
X164050500Y-134421155D01*
X164050499Y-134421153D01*
X165449500Y-134421153D01*
X165449500Y-134578846D01*
X165480261Y-134733489D01*
X165480264Y-134733501D01*
X165540602Y-134879172D01*
X165540609Y-134879185D01*
X165628210Y-135010288D01*
X165628213Y-135010292D01*
X165739707Y-135121786D01*
X165739711Y-135121789D01*
X165870814Y-135209390D01*
X165870827Y-135209397D01*
X166016498Y-135269735D01*
X166016503Y-135269737D01*
X166155734Y-135297432D01*
X166171153Y-135300499D01*
X166171156Y-135300500D01*
X166171158Y-135300500D01*
X166328844Y-135300500D01*
X166328845Y-135300499D01*
X166483497Y-135269737D01*
X166629179Y-135209394D01*
X166760289Y-135121789D01*
X166871789Y-135010289D01*
X166959394Y-134879179D01*
X167019737Y-134733497D01*
X167050500Y-134578842D01*
X167050500Y-134421158D01*
X167050500Y-134421155D01*
X167050499Y-134421153D01*
X167035034Y-134343408D01*
X167019737Y-134266503D01*
X166994921Y-134206591D01*
X166959397Y-134120827D01*
X166959390Y-134120814D01*
X166871789Y-133989711D01*
X166871786Y-133989707D01*
X166760292Y-133878213D01*
X166760288Y-133878210D01*
X166629185Y-133790609D01*
X166629172Y-133790602D01*
X166483501Y-133730264D01*
X166483489Y-133730261D01*
X166328845Y-133699500D01*
X166328842Y-133699500D01*
X166171158Y-133699500D01*
X166171155Y-133699500D01*
X166016510Y-133730261D01*
X166016498Y-133730264D01*
X165870827Y-133790602D01*
X165870814Y-133790609D01*
X165739711Y-133878210D01*
X165739707Y-133878213D01*
X165628213Y-133989707D01*
X165628210Y-133989711D01*
X165540609Y-134120814D01*
X165540602Y-134120827D01*
X165480264Y-134266498D01*
X165480261Y-134266510D01*
X165449500Y-134421153D01*
X164050499Y-134421153D01*
X164035034Y-134343408D01*
X164019737Y-134266503D01*
X163994921Y-134206591D01*
X163959397Y-134120827D01*
X163959390Y-134120814D01*
X163871789Y-133989711D01*
X163871786Y-133989707D01*
X163760292Y-133878213D01*
X163760288Y-133878210D01*
X163629185Y-133790609D01*
X163629172Y-133790602D01*
X163483501Y-133730264D01*
X163483489Y-133730261D01*
X163328845Y-133699500D01*
X163328842Y-133699500D01*
X163171158Y-133699500D01*
X163171155Y-133699500D01*
X163016510Y-133730261D01*
X163016498Y-133730264D01*
X162870827Y-133790602D01*
X162870814Y-133790609D01*
X162739711Y-133878210D01*
X162739707Y-133878213D01*
X162628213Y-133989707D01*
X162628210Y-133989711D01*
X162540609Y-134120814D01*
X162540602Y-134120827D01*
X162480264Y-134266498D01*
X162480261Y-134266510D01*
X162449500Y-134421153D01*
X156550499Y-134421153D01*
X156535034Y-134343408D01*
X156519737Y-134266503D01*
X156494921Y-134206591D01*
X156459397Y-134120827D01*
X156459390Y-134120814D01*
X156371789Y-133989711D01*
X156371786Y-133989707D01*
X156260292Y-133878213D01*
X156260288Y-133878210D01*
X156129185Y-133790609D01*
X156129172Y-133790602D01*
X155983501Y-133730264D01*
X155983489Y-133730261D01*
X155828845Y-133699500D01*
X155828842Y-133699500D01*
X155671158Y-133699500D01*
X155671155Y-133699500D01*
X155516510Y-133730261D01*
X155516498Y-133730264D01*
X155370827Y-133790602D01*
X155370814Y-133790609D01*
X155239711Y-133878210D01*
X155239707Y-133878213D01*
X155128213Y-133989707D01*
X155128210Y-133989711D01*
X155040609Y-134120814D01*
X155040602Y-134120827D01*
X154980264Y-134266498D01*
X154980261Y-134266510D01*
X154949500Y-134421153D01*
X134577083Y-134421153D01*
X134591511Y-134376749D01*
X134591511Y-134376748D01*
X134615526Y-134302834D01*
X134650000Y-134085181D01*
X134650000Y-133864818D01*
X134615526Y-133647164D01*
X134547432Y-133437589D01*
X134447388Y-133241243D01*
X134401066Y-133177485D01*
X134401065Y-133177485D01*
X133814612Y-133763939D01*
X133809111Y-133743409D01*
X133730119Y-133606592D01*
X133618408Y-133494881D01*
X133481591Y-133415889D01*
X133461058Y-133410387D01*
X133819311Y-133052135D01*
X175349500Y-133052135D01*
X175349500Y-134947870D01*
X175349501Y-134947876D01*
X175355908Y-135007483D01*
X175406202Y-135142328D01*
X175406206Y-135142335D01*
X175492452Y-135257544D01*
X175492455Y-135257547D01*
X175607664Y-135343793D01*
X175607671Y-135343797D01*
X175742517Y-135394091D01*
X175742516Y-135394091D01*
X175749444Y-135394835D01*
X175802127Y-135400500D01*
X177697872Y-135400499D01*
X177757483Y-135394091D01*
X177892331Y-135343796D01*
X178007546Y-135257546D01*
X178093796Y-135142331D01*
X178093798Y-135142326D01*
X178112735Y-135091554D01*
X178154606Y-135035620D01*
X178220070Y-135011202D01*
X178288343Y-135026053D01*
X178316598Y-135047205D01*
X178337636Y-135068243D01*
X178337641Y-135068247D01*
X178481564Y-135172812D01*
X178515978Y-135197815D01*
X178644375Y-135263237D01*
X178712393Y-135297895D01*
X178712396Y-135297896D01*
X178817221Y-135331955D01*
X178922049Y-135366015D01*
X179139778Y-135400500D01*
X179139779Y-135400500D01*
X179360221Y-135400500D01*
X179360222Y-135400500D01*
X179577951Y-135366015D01*
X179787606Y-135297895D01*
X179984022Y-135197815D01*
X180162365Y-135068242D01*
X180318242Y-134912365D01*
X180399991Y-134799845D01*
X180455320Y-134757180D01*
X180524933Y-134751201D01*
X180586728Y-134783806D01*
X180598582Y-134797485D01*
X180598932Y-134797513D01*
X181185387Y-134211058D01*
X181190889Y-134231591D01*
X181269881Y-134368408D01*
X181381592Y-134480119D01*
X181518409Y-134559111D01*
X181538939Y-134564612D01*
X180952485Y-135151065D01*
X180952485Y-135151066D01*
X181016243Y-135197388D01*
X181212589Y-135297432D01*
X181422164Y-135365526D01*
X181639819Y-135400000D01*
X181860181Y-135400000D01*
X182077835Y-135365526D01*
X182287410Y-135297432D01*
X182483760Y-135197386D01*
X182547513Y-135151066D01*
X182547514Y-135151066D01*
X181961059Y-134564612D01*
X181981591Y-134559111D01*
X182118408Y-134480119D01*
X182230119Y-134368408D01*
X182309111Y-134231591D01*
X182314612Y-134211059D01*
X182901066Y-134797514D01*
X182901066Y-134797513D01*
X182947386Y-134733760D01*
X183047432Y-134537410D01*
X183115526Y-134327835D01*
X183150000Y-134110181D01*
X183150000Y-133889818D01*
X183115526Y-133672164D01*
X183047432Y-133462589D01*
X182947388Y-133266243D01*
X182901066Y-133202485D01*
X182901065Y-133202485D01*
X182314612Y-133788939D01*
X182309111Y-133768409D01*
X182230119Y-133631592D01*
X182118408Y-133519881D01*
X181981591Y-133440889D01*
X181961057Y-133435387D01*
X182547513Y-132848932D01*
X182483756Y-132802611D01*
X182287410Y-132702567D01*
X182077835Y-132634473D01*
X181860181Y-132600000D01*
X181639819Y-132600000D01*
X181422164Y-132634473D01*
X181212589Y-132702567D01*
X181016233Y-132802616D01*
X180952485Y-132848931D01*
X180952485Y-132848932D01*
X181538940Y-133435387D01*
X181518409Y-133440889D01*
X181381592Y-133519881D01*
X181269881Y-133631592D01*
X181190889Y-133768409D01*
X181185387Y-133788940D01*
X180598932Y-133202485D01*
X180597448Y-133202602D01*
X180545296Y-133242817D01*
X180475682Y-133248796D01*
X180413887Y-133216190D01*
X180399990Y-133200151D01*
X180318247Y-133087641D01*
X180318243Y-133087636D01*
X180162363Y-132931756D01*
X180162358Y-132931752D01*
X179984025Y-132802187D01*
X179984024Y-132802186D01*
X179984022Y-132802185D01*
X179866791Y-132742452D01*
X179787606Y-132702104D01*
X179787603Y-132702103D01*
X179577952Y-132633985D01*
X179469086Y-132616742D01*
X179360222Y-132599500D01*
X179139778Y-132599500D01*
X179079892Y-132608985D01*
X178922047Y-132633985D01*
X178712396Y-132702103D01*
X178712393Y-132702104D01*
X178515974Y-132802187D01*
X178337641Y-132931752D01*
X178337635Y-132931757D01*
X178316596Y-132952796D01*
X178255273Y-132986280D01*
X178185581Y-132981294D01*
X178129648Y-132939421D01*
X178112735Y-132908446D01*
X178093797Y-132857671D01*
X178093793Y-132857664D01*
X178007547Y-132742455D01*
X178007544Y-132742452D01*
X177892335Y-132656206D01*
X177892328Y-132656202D01*
X177757482Y-132605908D01*
X177757483Y-132605908D01*
X177697883Y-132599501D01*
X177697881Y-132599500D01*
X177697873Y-132599500D01*
X177697864Y-132599500D01*
X175802129Y-132599500D01*
X175802123Y-132599501D01*
X175742516Y-132605908D01*
X175607671Y-132656202D01*
X175607664Y-132656206D01*
X175492455Y-132742452D01*
X175492452Y-132742455D01*
X175406206Y-132857664D01*
X175406202Y-132857671D01*
X175355908Y-132992517D01*
X175349501Y-133052116D01*
X175349500Y-133052135D01*
X133819311Y-133052135D01*
X133910321Y-132961125D01*
X134047513Y-132823932D01*
X133983756Y-132777611D01*
X133787410Y-132677567D01*
X133577835Y-132609473D01*
X133360181Y-132575000D01*
X133139819Y-132575000D01*
X132922164Y-132609473D01*
X132712589Y-132677567D01*
X132516233Y-132777616D01*
X132452485Y-132823931D01*
X132452485Y-132823932D01*
X133038940Y-133410387D01*
X133018409Y-133415889D01*
X132881592Y-133494881D01*
X132769881Y-133606592D01*
X132690889Y-133743409D01*
X132685387Y-133763940D01*
X132098932Y-133177485D01*
X132097448Y-133177602D01*
X132045296Y-133217817D01*
X131975682Y-133223796D01*
X131913887Y-133191190D01*
X131899990Y-133175151D01*
X131818247Y-133062641D01*
X131818243Y-133062636D01*
X131662363Y-132906756D01*
X131662358Y-132906752D01*
X131484025Y-132777187D01*
X131484024Y-132777186D01*
X131484022Y-132777185D01*
X131366791Y-132717452D01*
X131287606Y-132677104D01*
X131287603Y-132677103D01*
X131077952Y-132608985D01*
X130969086Y-132591742D01*
X130860222Y-132574500D01*
X130639778Y-132574500D01*
X130567201Y-132585995D01*
X130422047Y-132608985D01*
X130212396Y-132677103D01*
X130212393Y-132677104D01*
X130015974Y-132777187D01*
X129837641Y-132906752D01*
X129837635Y-132906757D01*
X129816596Y-132927796D01*
X129755273Y-132961280D01*
X129685581Y-132956294D01*
X129629648Y-132914421D01*
X129612735Y-132883446D01*
X129593797Y-132832671D01*
X129593793Y-132832664D01*
X129507547Y-132717455D01*
X129507544Y-132717452D01*
X129392335Y-132631206D01*
X129392328Y-132631202D01*
X129257482Y-132580908D01*
X129257483Y-132580908D01*
X129197883Y-132574501D01*
X129197881Y-132574500D01*
X129197873Y-132574500D01*
X129197864Y-132574500D01*
X127302129Y-132574500D01*
X127302123Y-132574501D01*
X127242516Y-132580908D01*
X127107671Y-132631202D01*
X127107664Y-132631206D01*
X126992455Y-132717452D01*
X126992452Y-132717455D01*
X126906206Y-132832664D01*
X126906202Y-132832671D01*
X126855908Y-132967517D01*
X126849501Y-133027116D01*
X126849500Y-133027135D01*
X114000500Y-133027135D01*
X114000500Y-126352973D01*
X123399500Y-126352973D01*
X123399500Y-126597027D01*
X123437679Y-126838076D01*
X123513096Y-127070185D01*
X123619517Y-127279049D01*
X123623896Y-127287642D01*
X123767339Y-127485076D01*
X123767343Y-127485081D01*
X123939918Y-127657656D01*
X123939923Y-127657660D01*
X124040407Y-127730665D01*
X124137361Y-127801106D01*
X124354815Y-127911904D01*
X124586924Y-127987321D01*
X124827973Y-128025500D01*
X124827974Y-128025500D01*
X127172026Y-128025500D01*
X127172027Y-128025500D01*
X127413076Y-127987321D01*
X127645185Y-127911904D01*
X127862639Y-127801106D01*
X128060083Y-127657655D01*
X128232655Y-127485083D01*
X128376106Y-127287639D01*
X128486904Y-127070185D01*
X128562321Y-126838076D01*
X128600500Y-126597027D01*
X128600500Y-126352973D01*
X132899500Y-126352973D01*
X132899500Y-126597027D01*
X132937679Y-126838076D01*
X133013096Y-127070185D01*
X133119517Y-127279049D01*
X133123896Y-127287642D01*
X133267339Y-127485076D01*
X133267343Y-127485081D01*
X133439918Y-127657656D01*
X133439923Y-127657660D01*
X133540407Y-127730665D01*
X133637361Y-127801106D01*
X133854815Y-127911904D01*
X134086924Y-127987321D01*
X134327973Y-128025500D01*
X134327974Y-128025500D01*
X136672026Y-128025500D01*
X136672027Y-128025500D01*
X136913076Y-127987321D01*
X137145185Y-127911904D01*
X137362639Y-127801106D01*
X137560083Y-127657655D01*
X137732655Y-127485083D01*
X137876106Y-127287639D01*
X137986904Y-127070185D01*
X138057549Y-126852763D01*
X141817500Y-126852763D01*
X141817500Y-127067236D01*
X141851048Y-127279049D01*
X141917323Y-127483020D01*
X142014688Y-127674110D01*
X142055778Y-127730665D01*
X142055779Y-127730666D01*
X142635799Y-127150646D01*
X142644185Y-127181942D01*
X142719885Y-127313058D01*
X142826942Y-127420115D01*
X142958058Y-127495815D01*
X142989352Y-127504200D01*
X142381744Y-128111807D01*
X142320421Y-128145292D01*
X142252812Y-128141063D01*
X142249007Y-128139720D01*
X142210131Y-128143900D01*
X142210122Y-128143902D01*
X142075413Y-128194145D01*
X142075406Y-128194149D01*
X141960312Y-128280309D01*
X141960309Y-128280312D01*
X141874149Y-128395406D01*
X141874145Y-128395413D01*
X141823903Y-128530120D01*
X141823901Y-128530127D01*
X141817500Y-128589655D01*
X141817500Y-129250000D01*
X142660384Y-129250000D01*
X142644185Y-129278058D01*
X142605000Y-129424300D01*
X142605000Y-129575700D01*
X142644185Y-129721942D01*
X142660384Y-129750000D01*
X141817500Y-129750000D01*
X141817500Y-130410344D01*
X141823901Y-130469872D01*
X141823903Y-130469879D01*
X141874145Y-130604586D01*
X141874149Y-130604593D01*
X141960309Y-130719687D01*
X141960312Y-130719690D01*
X142075406Y-130805850D01*
X142075413Y-130805854D01*
X142210120Y-130856096D01*
X142210127Y-130856098D01*
X142269655Y-130862499D01*
X142269672Y-130862500D01*
X142930000Y-130862500D01*
X142930000Y-130019615D01*
X142958058Y-130035815D01*
X143104300Y-130075000D01*
X143255700Y-130075000D01*
X143401942Y-130035815D01*
X143430000Y-130019615D01*
X143430000Y-130862500D01*
X144090328Y-130862500D01*
X144090344Y-130862499D01*
X144149872Y-130856098D01*
X144149879Y-130856096D01*
X144284586Y-130805854D01*
X144284593Y-130805850D01*
X144399687Y-130719690D01*
X144399690Y-130719687D01*
X144485850Y-130604593D01*
X144485854Y-130604586D01*
X144530120Y-130485904D01*
X144571991Y-130429970D01*
X144637455Y-130405553D01*
X144705728Y-130420405D01*
X144733983Y-130441556D01*
X144832065Y-130539638D01*
X145005632Y-130665742D01*
X145095943Y-130711758D01*
X145196784Y-130763140D01*
X145196786Y-130763140D01*
X145196789Y-130763142D01*
X145306160Y-130798678D01*
X145400829Y-130829439D01*
X145612725Y-130863000D01*
X145612730Y-130863000D01*
X145827275Y-130863000D01*
X146039170Y-130829439D01*
X146243211Y-130763142D01*
X146434368Y-130665742D01*
X146607935Y-130539638D01*
X146759638Y-130387935D01*
X146885742Y-130214368D01*
X146885742Y-130214367D01*
X146888606Y-130210426D01*
X146890090Y-130211504D01*
X146936081Y-130169893D01*
X147005010Y-130158468D01*
X147069174Y-130186123D01*
X147090680Y-130210944D01*
X147091394Y-130210426D01*
X147094257Y-130214367D01*
X147094258Y-130214368D01*
X147220362Y-130387935D01*
X147372065Y-130539638D01*
X147545632Y-130665742D01*
X147635943Y-130711758D01*
X147736784Y-130763140D01*
X147736786Y-130763140D01*
X147736789Y-130763142D01*
X147846160Y-130798678D01*
X147940829Y-130829439D01*
X148152725Y-130863000D01*
X148152730Y-130863000D01*
X148367275Y-130863000D01*
X148579170Y-130829439D01*
X148783211Y-130763142D01*
X148974368Y-130665742D01*
X149147935Y-130539638D01*
X149299638Y-130387935D01*
X149425742Y-130214368D01*
X149425742Y-130214367D01*
X149428606Y-130210426D01*
X149430090Y-130211504D01*
X149476081Y-130169893D01*
X149545010Y-130158468D01*
X149609174Y-130186123D01*
X149630680Y-130210944D01*
X149631394Y-130210426D01*
X149634257Y-130214367D01*
X149634258Y-130214368D01*
X149760362Y-130387935D01*
X149912065Y-130539638D01*
X150085632Y-130665742D01*
X150175943Y-130711758D01*
X150276784Y-130763140D01*
X150276786Y-130763140D01*
X150276789Y-130763142D01*
X150386160Y-130798678D01*
X150480829Y-130829439D01*
X150692725Y-130863000D01*
X150692730Y-130863000D01*
X150907275Y-130863000D01*
X151119170Y-130829439D01*
X151323211Y-130763142D01*
X151514368Y-130665742D01*
X151687935Y-130539638D01*
X151839638Y-130387935D01*
X151965742Y-130214368D01*
X151965742Y-130214367D01*
X151968606Y-130210426D01*
X151970090Y-130211504D01*
X152016081Y-130169893D01*
X152085010Y-130158468D01*
X152149174Y-130186123D01*
X152170680Y-130210944D01*
X152171394Y-130210426D01*
X152174257Y-130214367D01*
X152174258Y-130214368D01*
X152300362Y-130387935D01*
X152452065Y-130539638D01*
X152625632Y-130665742D01*
X152715943Y-130711758D01*
X152816784Y-130763140D01*
X152816786Y-130763140D01*
X152816789Y-130763142D01*
X152926160Y-130798678D01*
X153020829Y-130829439D01*
X153232725Y-130863000D01*
X153232730Y-130863000D01*
X153447275Y-130863000D01*
X153659170Y-130829439D01*
X153863211Y-130763142D01*
X154054368Y-130665742D01*
X154227935Y-130539638D01*
X154379638Y-130387935D01*
X154505742Y-130214368D01*
X154505742Y-130214367D01*
X154508606Y-130210426D01*
X154510090Y-130211504D01*
X154556081Y-130169893D01*
X154625010Y-130158468D01*
X154689174Y-130186123D01*
X154710680Y-130210944D01*
X154711394Y-130210426D01*
X154714257Y-130214367D01*
X154714258Y-130214368D01*
X154840362Y-130387935D01*
X154992065Y-130539638D01*
X155165632Y-130665742D01*
X155255943Y-130711758D01*
X155356784Y-130763140D01*
X155356786Y-130763140D01*
X155356789Y-130763142D01*
X155466160Y-130798678D01*
X155560829Y-130829439D01*
X155772725Y-130863000D01*
X155772730Y-130863000D01*
X155987275Y-130863000D01*
X156199170Y-130829439D01*
X156403211Y-130763142D01*
X156594368Y-130665742D01*
X156767935Y-130539638D01*
X156919638Y-130387935D01*
X157045742Y-130214368D01*
X157045742Y-130214367D01*
X157048606Y-130210426D01*
X157050090Y-130211504D01*
X157096081Y-130169893D01*
X157165010Y-130158468D01*
X157229174Y-130186123D01*
X157250680Y-130210944D01*
X157251394Y-130210426D01*
X157254257Y-130214367D01*
X157254258Y-130214368D01*
X157380362Y-130387935D01*
X157532065Y-130539638D01*
X157705632Y-130665742D01*
X157795943Y-130711758D01*
X157896784Y-130763140D01*
X157896786Y-130763140D01*
X157896789Y-130763142D01*
X158006160Y-130798678D01*
X158100829Y-130829439D01*
X158312725Y-130863000D01*
X158312730Y-130863000D01*
X158527275Y-130863000D01*
X158739170Y-130829439D01*
X158943211Y-130763142D01*
X159134368Y-130665742D01*
X159307935Y-130539638D01*
X159459638Y-130387935D01*
X159585742Y-130214368D01*
X159585742Y-130214367D01*
X159588606Y-130210426D01*
X159590090Y-130211504D01*
X159636081Y-130169893D01*
X159705010Y-130158468D01*
X159769174Y-130186123D01*
X159790680Y-130210944D01*
X159791394Y-130210426D01*
X159794257Y-130214367D01*
X159794258Y-130214368D01*
X159920362Y-130387935D01*
X160072065Y-130539638D01*
X160245632Y-130665742D01*
X160335943Y-130711758D01*
X160436784Y-130763140D01*
X160436786Y-130763140D01*
X160436789Y-130763142D01*
X160546160Y-130798678D01*
X160640829Y-130829439D01*
X160852725Y-130863000D01*
X160852730Y-130863000D01*
X161067275Y-130863000D01*
X161279170Y-130829439D01*
X161483211Y-130763142D01*
X161674368Y-130665742D01*
X161847935Y-130539638D01*
X161999638Y-130387935D01*
X162125742Y-130214368D01*
X162125742Y-130214367D01*
X162128606Y-130210426D01*
X162130090Y-130211504D01*
X162176081Y-130169893D01*
X162245010Y-130158468D01*
X162309174Y-130186123D01*
X162330680Y-130210944D01*
X162331394Y-130210426D01*
X162334257Y-130214367D01*
X162334258Y-130214368D01*
X162460362Y-130387935D01*
X162612065Y-130539638D01*
X162785632Y-130665742D01*
X162875943Y-130711758D01*
X162976784Y-130763140D01*
X162976786Y-130763140D01*
X162976789Y-130763142D01*
X163086160Y-130798678D01*
X163180829Y-130829439D01*
X163392725Y-130863000D01*
X163392730Y-130863000D01*
X163607275Y-130863000D01*
X163819170Y-130829439D01*
X164023211Y-130763142D01*
X164214368Y-130665742D01*
X164387935Y-130539638D01*
X164539638Y-130387935D01*
X164665742Y-130214368D01*
X164665742Y-130214367D01*
X164668606Y-130210426D01*
X164670090Y-130211504D01*
X164716081Y-130169893D01*
X164785010Y-130158468D01*
X164849174Y-130186123D01*
X164870680Y-130210944D01*
X164871394Y-130210426D01*
X164874257Y-130214367D01*
X164874258Y-130214368D01*
X165000362Y-130387935D01*
X165152065Y-130539638D01*
X165325632Y-130665742D01*
X165415943Y-130711758D01*
X165516784Y-130763140D01*
X165516786Y-130763140D01*
X165516789Y-130763142D01*
X165626160Y-130798678D01*
X165720829Y-130829439D01*
X165932725Y-130863000D01*
X165932730Y-130863000D01*
X166147275Y-130863000D01*
X166359170Y-130829439D01*
X166563211Y-130763142D01*
X166754368Y-130665742D01*
X166927935Y-130539638D01*
X167079638Y-130387935D01*
X167205742Y-130214368D01*
X167303142Y-130023211D01*
X167369439Y-129819170D01*
X167384838Y-129721942D01*
X167403000Y-129607275D01*
X167403000Y-129392724D01*
X167369439Y-129180829D01*
X167323643Y-129039885D01*
X167303142Y-128976789D01*
X167303140Y-128976786D01*
X167303140Y-128976784D01*
X167220123Y-128813856D01*
X167205742Y-128785632D01*
X167079638Y-128612065D01*
X166927935Y-128460362D01*
X166754368Y-128334258D01*
X166754367Y-128334257D01*
X166750426Y-128331394D01*
X166751504Y-128329909D01*
X166709893Y-128283919D01*
X166698468Y-128214990D01*
X166726123Y-128150826D01*
X166750944Y-128129319D01*
X166750426Y-128128606D01*
X166754368Y-128125742D01*
X166927935Y-127999638D01*
X167079638Y-127847935D01*
X167205742Y-127674368D01*
X167303142Y-127483211D01*
X167369439Y-127279170D01*
X167384838Y-127181942D01*
X167403000Y-127067275D01*
X167403000Y-126852724D01*
X167369439Y-126640829D01*
X167323643Y-126499885D01*
X167303142Y-126436789D01*
X167273174Y-126377973D01*
X171899500Y-126377973D01*
X171899500Y-126622026D01*
X171936045Y-126852763D01*
X171937679Y-126863076D01*
X172013096Y-127095185D01*
X172111157Y-127287642D01*
X172123896Y-127312642D01*
X172267339Y-127510076D01*
X172267343Y-127510081D01*
X172439918Y-127682656D01*
X172439923Y-127682660D01*
X172602947Y-127801103D01*
X172637361Y-127826106D01*
X172854815Y-127936904D01*
X173086924Y-128012321D01*
X173327973Y-128050500D01*
X173327974Y-128050500D01*
X175672026Y-128050500D01*
X175672027Y-128050500D01*
X175913076Y-128012321D01*
X176145185Y-127936904D01*
X176362639Y-127826106D01*
X176560083Y-127682655D01*
X176732655Y-127510083D01*
X176876106Y-127312639D01*
X176986904Y-127095185D01*
X177062321Y-126863076D01*
X177100500Y-126622027D01*
X177100500Y-126377973D01*
X181399500Y-126377973D01*
X181399500Y-126622026D01*
X181436045Y-126852763D01*
X181437679Y-126863076D01*
X181513096Y-127095185D01*
X181611157Y-127287642D01*
X181623896Y-127312642D01*
X181767339Y-127510076D01*
X181767343Y-127510081D01*
X181939918Y-127682656D01*
X181939923Y-127682660D01*
X182102947Y-127801103D01*
X182137361Y-127826106D01*
X182354815Y-127936904D01*
X182586924Y-128012321D01*
X182827973Y-128050500D01*
X182827974Y-128050500D01*
X185172026Y-128050500D01*
X185172027Y-128050500D01*
X185413076Y-128012321D01*
X185645185Y-127936904D01*
X185862639Y-127826106D01*
X186060083Y-127682655D01*
X186232655Y-127510083D01*
X186376106Y-127312639D01*
X186486904Y-127095185D01*
X186562321Y-126863076D01*
X186600500Y-126622027D01*
X186600500Y-126377973D01*
X186562321Y-126136924D01*
X186486904Y-125904815D01*
X186376106Y-125687361D01*
X186334838Y-125630560D01*
X186232660Y-125489923D01*
X186232656Y-125489918D01*
X186060081Y-125317343D01*
X186060076Y-125317339D01*
X185862642Y-125173896D01*
X185862641Y-125173895D01*
X185862639Y-125173894D01*
X185645185Y-125063096D01*
X185413076Y-124987679D01*
X185413074Y-124987678D01*
X185413072Y-124987678D01*
X185244769Y-124961021D01*
X185172027Y-124949500D01*
X182827973Y-124949500D01*
X182772093Y-124958350D01*
X182586927Y-124987678D01*
X182354812Y-125063097D01*
X182137357Y-125173896D01*
X181939923Y-125317339D01*
X181939918Y-125317343D01*
X181767343Y-125489918D01*
X181767339Y-125489923D01*
X181623896Y-125687357D01*
X181513097Y-125904812D01*
X181513096Y-125904814D01*
X181513096Y-125904815D01*
X181475387Y-126020869D01*
X181437678Y-126136927D01*
X181399500Y-126377973D01*
X177100500Y-126377973D01*
X177062321Y-126136924D01*
X176986904Y-125904815D01*
X176876106Y-125687361D01*
X176834838Y-125630560D01*
X176732660Y-125489923D01*
X176732656Y-125489918D01*
X176560081Y-125317343D01*
X176560076Y-125317339D01*
X176362642Y-125173896D01*
X176362641Y-125173895D01*
X176362639Y-125173894D01*
X176145185Y-125063096D01*
X175913076Y-124987679D01*
X175913074Y-124987678D01*
X175913072Y-124987678D01*
X175744769Y-124961021D01*
X175672027Y-124949500D01*
X173327973Y-124949500D01*
X173272093Y-124958350D01*
X173086927Y-124987678D01*
X172854812Y-125063097D01*
X172637357Y-125173896D01*
X172439923Y-125317339D01*
X172439918Y-125317343D01*
X172267343Y-125489918D01*
X172267339Y-125489923D01*
X172123896Y-125687357D01*
X172013097Y-125904812D01*
X172013096Y-125904814D01*
X172013096Y-125904815D01*
X171975387Y-126020869D01*
X171937678Y-126136927D01*
X171899500Y-126377973D01*
X167273174Y-126377973D01*
X167205742Y-126245632D01*
X167079638Y-126072065D01*
X166927935Y-125920362D01*
X166754368Y-125794258D01*
X166563215Y-125696859D01*
X166359170Y-125630560D01*
X166147275Y-125597000D01*
X166147270Y-125597000D01*
X165932730Y-125597000D01*
X165932725Y-125597000D01*
X165720829Y-125630560D01*
X165516784Y-125696859D01*
X165325631Y-125794258D01*
X165268483Y-125835779D01*
X165152065Y-125920362D01*
X165152063Y-125920364D01*
X165152062Y-125920364D01*
X165000364Y-126072062D01*
X165000364Y-126072063D01*
X165000362Y-126072065D01*
X164915162Y-126189333D01*
X164871394Y-126249574D01*
X164869914Y-126248499D01*
X164823891Y-126290120D01*
X164754959Y-126301527D01*
X164690802Y-126273856D01*
X164669315Y-126249058D01*
X164668606Y-126249574D01*
X164624838Y-126189333D01*
X164539638Y-126072065D01*
X164387935Y-125920362D01*
X164214368Y-125794258D01*
X164023215Y-125696859D01*
X163819170Y-125630560D01*
X163607275Y-125597000D01*
X163607270Y-125597000D01*
X163392730Y-125597000D01*
X163392725Y-125597000D01*
X163180829Y-125630560D01*
X162976784Y-125696859D01*
X162785631Y-125794258D01*
X162728483Y-125835779D01*
X162612065Y-125920362D01*
X162612063Y-125920364D01*
X162612062Y-125920364D01*
X162460364Y-126072062D01*
X162460364Y-126072063D01*
X162460362Y-126072065D01*
X162375162Y-126189333D01*
X162331394Y-126249574D01*
X162329914Y-126248499D01*
X162283891Y-126290120D01*
X162214959Y-126301527D01*
X162150802Y-126273856D01*
X162129315Y-126249058D01*
X162128606Y-126249574D01*
X162084838Y-126189333D01*
X161999638Y-126072065D01*
X161847935Y-125920362D01*
X161674368Y-125794258D01*
X161483215Y-125696859D01*
X161279170Y-125630560D01*
X161067275Y-125597000D01*
X161067270Y-125597000D01*
X160852730Y-125597000D01*
X160852725Y-125597000D01*
X160640829Y-125630560D01*
X160436784Y-125696859D01*
X160245631Y-125794258D01*
X160188483Y-125835779D01*
X160072065Y-125920362D01*
X160072063Y-125920364D01*
X160072062Y-125920364D01*
X159920364Y-126072062D01*
X159920364Y-126072063D01*
X159920362Y-126072065D01*
X159835162Y-126189333D01*
X159791394Y-126249574D01*
X159789914Y-126248499D01*
X159743891Y-126290120D01*
X159674959Y-126301527D01*
X159610802Y-126273856D01*
X159589315Y-126249058D01*
X159588606Y-126249574D01*
X159544838Y-126189333D01*
X159459638Y-126072065D01*
X159307935Y-125920362D01*
X159134368Y-125794258D01*
X158943215Y-125696859D01*
X158739170Y-125630560D01*
X158527275Y-125597000D01*
X158527270Y-125597000D01*
X158312730Y-125597000D01*
X158312725Y-125597000D01*
X158100829Y-125630560D01*
X157896784Y-125696859D01*
X157705631Y-125794258D01*
X157648483Y-125835779D01*
X157532065Y-125920362D01*
X157532063Y-125920364D01*
X157532062Y-125920364D01*
X157380364Y-126072062D01*
X157380364Y-126072063D01*
X157380362Y-126072065D01*
X157295162Y-126189333D01*
X157251394Y-126249574D01*
X157249914Y-126248499D01*
X157203891Y-126290120D01*
X157134959Y-126301527D01*
X157070802Y-126273856D01*
X157049315Y-126249058D01*
X157048606Y-126249574D01*
X157004838Y-126189333D01*
X156919638Y-126072065D01*
X156767935Y-125920362D01*
X156594368Y-125794258D01*
X156403215Y-125696859D01*
X156199170Y-125630560D01*
X155987275Y-125597000D01*
X155987270Y-125597000D01*
X155772730Y-125597000D01*
X155772725Y-125597000D01*
X155560829Y-125630560D01*
X155356784Y-125696859D01*
X155165631Y-125794258D01*
X155108483Y-125835779D01*
X154992065Y-125920362D01*
X154992063Y-125920364D01*
X154992062Y-125920364D01*
X154840364Y-126072062D01*
X154840364Y-126072063D01*
X154840362Y-126072065D01*
X154755162Y-126189333D01*
X154711394Y-126249574D01*
X154709914Y-126248499D01*
X154663891Y-126290120D01*
X154594959Y-126301527D01*
X154530802Y-126273856D01*
X154509315Y-126249058D01*
X154508606Y-126249574D01*
X154464838Y-126189333D01*
X154379638Y-126072065D01*
X154227935Y-125920362D01*
X154054368Y-125794258D01*
X153863215Y-125696859D01*
X153659170Y-125630560D01*
X153447275Y-125597000D01*
X153447270Y-125597000D01*
X153232730Y-125597000D01*
X153232725Y-125597000D01*
X153020829Y-125630560D01*
X152816784Y-125696859D01*
X152625631Y-125794258D01*
X152568483Y-125835779D01*
X152452065Y-125920362D01*
X152452063Y-125920364D01*
X152452062Y-125920364D01*
X152300364Y-126072062D01*
X152300364Y-126072063D01*
X152300362Y-126072065D01*
X152215162Y-126189333D01*
X152171394Y-126249574D01*
X152169914Y-126248499D01*
X152123891Y-126290120D01*
X152054959Y-126301527D01*
X151990802Y-126273856D01*
X151969315Y-126249058D01*
X151968606Y-126249574D01*
X151924838Y-126189333D01*
X151839638Y-126072065D01*
X151687935Y-125920362D01*
X151514368Y-125794258D01*
X151323215Y-125696859D01*
X151119170Y-125630560D01*
X150907275Y-125597000D01*
X150907270Y-125597000D01*
X150692730Y-125597000D01*
X150692725Y-125597000D01*
X150480829Y-125630560D01*
X150276784Y-125696859D01*
X150085631Y-125794258D01*
X150028483Y-125835779D01*
X149912065Y-125920362D01*
X149912063Y-125920364D01*
X149912062Y-125920364D01*
X149760364Y-126072062D01*
X149760364Y-126072063D01*
X149760362Y-126072065D01*
X149675162Y-126189333D01*
X149631394Y-126249574D01*
X149629914Y-126248499D01*
X149583891Y-126290120D01*
X149514959Y-126301527D01*
X149450802Y-126273856D01*
X149429315Y-126249058D01*
X149428606Y-126249574D01*
X149384838Y-126189333D01*
X149299638Y-126072065D01*
X149147935Y-125920362D01*
X148974368Y-125794258D01*
X148783215Y-125696859D01*
X148579170Y-125630560D01*
X148367275Y-125597000D01*
X148367270Y-125597000D01*
X148152730Y-125597000D01*
X148152725Y-125597000D01*
X147940829Y-125630560D01*
X147736784Y-125696859D01*
X147545631Y-125794258D01*
X147488483Y-125835779D01*
X147372065Y-125920362D01*
X147372063Y-125920364D01*
X147372062Y-125920364D01*
X147220364Y-126072062D01*
X147220364Y-126072063D01*
X147220362Y-126072065D01*
X147135162Y-126189333D01*
X147091394Y-126249574D01*
X147089914Y-126248499D01*
X147043891Y-126290120D01*
X146974959Y-126301527D01*
X146910802Y-126273856D01*
X146889315Y-126249058D01*
X146888606Y-126249574D01*
X146844838Y-126189333D01*
X146759638Y-126072065D01*
X146607935Y-125920362D01*
X146434368Y-125794258D01*
X146243215Y-125696859D01*
X146039170Y-125630560D01*
X145827275Y-125597000D01*
X145827270Y-125597000D01*
X145612730Y-125597000D01*
X145612725Y-125597000D01*
X145400829Y-125630560D01*
X145196784Y-125696859D01*
X145005631Y-125794258D01*
X144948483Y-125835779D01*
X144832065Y-125920362D01*
X144832063Y-125920364D01*
X144832062Y-125920364D01*
X144680364Y-126072062D01*
X144680364Y-126072063D01*
X144680362Y-126072065D01*
X144595162Y-126189333D01*
X144551394Y-126249574D01*
X144550047Y-126248595D01*
X144503592Y-126290603D01*
X144434660Y-126302008D01*
X144370504Y-126274335D01*
X144348858Y-126249341D01*
X144348178Y-126249836D01*
X144304219Y-126189333D01*
X144304219Y-126189332D01*
X143724200Y-126769352D01*
X143715815Y-126738058D01*
X143640115Y-126606942D01*
X143533058Y-126499885D01*
X143401942Y-126424185D01*
X143370646Y-126415799D01*
X143950666Y-125835779D01*
X143950665Y-125835778D01*
X143894110Y-125794688D01*
X143703020Y-125697323D01*
X143499049Y-125631048D01*
X143287236Y-125597500D01*
X143072764Y-125597500D01*
X142860950Y-125631048D01*
X142656979Y-125697323D01*
X142465892Y-125794687D01*
X142409333Y-125835778D01*
X142409333Y-125835779D01*
X142989353Y-126415799D01*
X142958058Y-126424185D01*
X142826942Y-126499885D01*
X142719885Y-126606942D01*
X142644185Y-126738058D01*
X142635799Y-126769352D01*
X142055779Y-126189333D01*
X142055778Y-126189333D01*
X142014687Y-126245892D01*
X141917323Y-126436979D01*
X141851048Y-126640950D01*
X141817500Y-126852763D01*
X138057549Y-126852763D01*
X138062321Y-126838076D01*
X138100500Y-126597027D01*
X138100500Y-126352973D01*
X138062321Y-126111924D01*
X137986904Y-125879815D01*
X137876106Y-125662361D01*
X137750823Y-125489923D01*
X137732660Y-125464923D01*
X137732656Y-125464918D01*
X137560081Y-125292343D01*
X137560076Y-125292339D01*
X137362642Y-125148896D01*
X137362641Y-125148895D01*
X137362639Y-125148894D01*
X137145185Y-125038096D01*
X136913076Y-124962679D01*
X136913074Y-124962678D01*
X136913072Y-124962678D01*
X136744769Y-124936021D01*
X136672027Y-124924500D01*
X134327973Y-124924500D01*
X134272093Y-124933350D01*
X134086927Y-124962678D01*
X133854812Y-125038097D01*
X133637357Y-125148896D01*
X133439923Y-125292339D01*
X133439918Y-125292343D01*
X133267343Y-125464918D01*
X133267339Y-125464923D01*
X133123896Y-125662357D01*
X133013097Y-125879812D01*
X132937678Y-126111927D01*
X132907648Y-126301527D01*
X132899500Y-126352973D01*
X128600500Y-126352973D01*
X128562321Y-126111924D01*
X128486904Y-125879815D01*
X128376106Y-125662361D01*
X128250823Y-125489923D01*
X128232660Y-125464923D01*
X128232656Y-125464918D01*
X128060081Y-125292343D01*
X128060076Y-125292339D01*
X127862642Y-125148896D01*
X127862641Y-125148895D01*
X127862639Y-125148894D01*
X127645185Y-125038096D01*
X127413076Y-124962679D01*
X127413074Y-124962678D01*
X127413072Y-124962678D01*
X127244769Y-124936021D01*
X127172027Y-124924500D01*
X124827973Y-124924500D01*
X124772093Y-124933350D01*
X124586927Y-124962678D01*
X124354812Y-125038097D01*
X124137357Y-125148896D01*
X123939923Y-125292339D01*
X123939918Y-125292343D01*
X123767343Y-125464918D01*
X123767339Y-125464923D01*
X123623896Y-125662357D01*
X123513097Y-125879812D01*
X123437678Y-126111927D01*
X123407648Y-126301527D01*
X123399500Y-126352973D01*
X114000500Y-126352973D01*
X114000500Y-121421153D01*
X181949500Y-121421153D01*
X181949500Y-121578846D01*
X181980261Y-121733489D01*
X181980264Y-121733501D01*
X182040602Y-121879172D01*
X182040609Y-121879185D01*
X182128210Y-122010288D01*
X182128213Y-122010292D01*
X182239707Y-122121786D01*
X182239711Y-122121789D01*
X182370814Y-122209390D01*
X182370827Y-122209397D01*
X182516498Y-122269735D01*
X182516503Y-122269737D01*
X182671153Y-122300499D01*
X182671156Y-122300500D01*
X182671158Y-122300500D01*
X182828844Y-122300500D01*
X182828845Y-122300499D01*
X182983497Y-122269737D01*
X183129179Y-122209394D01*
X183260289Y-122121789D01*
X183371789Y-122010289D01*
X183459394Y-121879179D01*
X183519737Y-121733497D01*
X183532138Y-121671153D01*
X184699500Y-121671153D01*
X184699500Y-121828846D01*
X184730261Y-121983489D01*
X184730264Y-121983501D01*
X184790602Y-122129172D01*
X184790609Y-122129185D01*
X184878210Y-122260288D01*
X184878213Y-122260292D01*
X184989707Y-122371786D01*
X184989711Y-122371789D01*
X185120814Y-122459390D01*
X185120827Y-122459397D01*
X185266498Y-122519735D01*
X185266503Y-122519737D01*
X185421153Y-122550499D01*
X185421156Y-122550500D01*
X185421158Y-122550500D01*
X185578844Y-122550500D01*
X185578845Y-122550499D01*
X185733497Y-122519737D01*
X185879179Y-122459394D01*
X186010289Y-122371789D01*
X186121789Y-122260289D01*
X186209394Y-122129179D01*
X186269737Y-121983497D01*
X186300500Y-121828842D01*
X186300500Y-121671158D01*
X186300500Y-121671155D01*
X186300499Y-121671153D01*
X186269738Y-121516510D01*
X186269737Y-121516503D01*
X186230242Y-121421153D01*
X186209397Y-121370827D01*
X186209390Y-121370814D01*
X186121789Y-121239711D01*
X186121786Y-121239707D01*
X186010292Y-121128213D01*
X186010288Y-121128210D01*
X185879185Y-121040609D01*
X185879172Y-121040602D01*
X185733501Y-120980264D01*
X185733489Y-120980261D01*
X185578845Y-120949500D01*
X185578842Y-120949500D01*
X185421158Y-120949500D01*
X185421155Y-120949500D01*
X185266510Y-120980261D01*
X185266498Y-120980264D01*
X185120827Y-121040602D01*
X185120814Y-121040609D01*
X184989711Y-121128210D01*
X184989707Y-121128213D01*
X184878213Y-121239707D01*
X184878210Y-121239711D01*
X184790609Y-121370814D01*
X184790602Y-121370827D01*
X184730264Y-121516498D01*
X184730261Y-121516510D01*
X184699500Y-121671153D01*
X183532138Y-121671153D01*
X183538161Y-121640874D01*
X183550500Y-121578844D01*
X183550500Y-121421155D01*
X183550499Y-121421153D01*
X183519738Y-121266510D01*
X183519737Y-121266503D01*
X183506290Y-121234041D01*
X183498821Y-121164573D01*
X183530095Y-121102093D01*
X183533143Y-121098934D01*
X183621789Y-121010289D01*
X183709394Y-120879179D01*
X183769737Y-120733497D01*
X183800500Y-120578842D01*
X183800500Y-120421158D01*
X183800500Y-120421155D01*
X183800499Y-120421153D01*
X183769738Y-120266510D01*
X183769737Y-120266503D01*
X183746080Y-120209390D01*
X183709397Y-120120827D01*
X183709390Y-120120814D01*
X183621789Y-119989711D01*
X183621786Y-119989707D01*
X183510292Y-119878213D01*
X183510288Y-119878210D01*
X183379185Y-119790609D01*
X183379172Y-119790602D01*
X183233501Y-119730264D01*
X183233489Y-119730261D01*
X183078845Y-119699500D01*
X183078842Y-119699500D01*
X182921158Y-119699500D01*
X182921155Y-119699500D01*
X182766510Y-119730261D01*
X182766498Y-119730264D01*
X182620827Y-119790602D01*
X182620814Y-119790609D01*
X182489711Y-119878210D01*
X182489707Y-119878213D01*
X182378213Y-119989707D01*
X182378210Y-119989711D01*
X182290609Y-120120814D01*
X182290602Y-120120827D01*
X182230264Y-120266498D01*
X182230261Y-120266510D01*
X182199500Y-120421153D01*
X182199500Y-120578846D01*
X182230260Y-120733488D01*
X182230263Y-120733498D01*
X182243709Y-120765959D01*
X182251178Y-120835429D01*
X182219902Y-120897908D01*
X182216829Y-120901092D01*
X182128213Y-120989707D01*
X182128210Y-120989711D01*
X182040609Y-121120814D01*
X182040602Y-121120827D01*
X181980264Y-121266498D01*
X181980261Y-121266510D01*
X181949500Y-121421153D01*
X114000500Y-121421153D01*
X114000500Y-118921153D01*
X131949500Y-118921153D01*
X131949500Y-119078846D01*
X131980261Y-119233489D01*
X131980264Y-119233501D01*
X132040602Y-119379172D01*
X132040609Y-119379185D01*
X132128210Y-119510288D01*
X132128213Y-119510292D01*
X132239707Y-119621786D01*
X132239711Y-119621789D01*
X132370814Y-119709390D01*
X132370827Y-119709397D01*
X132516498Y-119769735D01*
X132516503Y-119769737D01*
X132671153Y-119800499D01*
X132671156Y-119800500D01*
X132671158Y-119800500D01*
X132828844Y-119800500D01*
X132828845Y-119800499D01*
X132983497Y-119769737D01*
X133129179Y-119709394D01*
X133260289Y-119621789D01*
X133371789Y-119510289D01*
X133459394Y-119379179D01*
X133519737Y-119233497D01*
X133550500Y-119078842D01*
X133550500Y-118921158D01*
X133550500Y-118921155D01*
X133550499Y-118921153D01*
X141199500Y-118921153D01*
X141199500Y-119078846D01*
X141230261Y-119233489D01*
X141230264Y-119233501D01*
X141290602Y-119379172D01*
X141290609Y-119379185D01*
X141378210Y-119510288D01*
X141378213Y-119510292D01*
X141489707Y-119621786D01*
X141489711Y-119621789D01*
X141620814Y-119709390D01*
X141620827Y-119709397D01*
X141766498Y-119769735D01*
X141766503Y-119769737D01*
X141921153Y-119800499D01*
X141921156Y-119800500D01*
X141921158Y-119800500D01*
X142078844Y-119800500D01*
X142078845Y-119800499D01*
X142233497Y-119769737D01*
X142379179Y-119709394D01*
X142510289Y-119621789D01*
X142621789Y-119510289D01*
X142709394Y-119379179D01*
X142769737Y-119233497D01*
X142800500Y-119078842D01*
X142800500Y-118921158D01*
X142800500Y-118921155D01*
X142800499Y-118921153D01*
X149449500Y-118921153D01*
X149449500Y-119078846D01*
X149480261Y-119233489D01*
X149480264Y-119233501D01*
X149540602Y-119379172D01*
X149540609Y-119379185D01*
X149628210Y-119510288D01*
X149628213Y-119510292D01*
X149739707Y-119621786D01*
X149739711Y-119621789D01*
X149870814Y-119709390D01*
X149870827Y-119709397D01*
X150016498Y-119769735D01*
X150016503Y-119769737D01*
X150171153Y-119800499D01*
X150171156Y-119800500D01*
X150171158Y-119800500D01*
X150328844Y-119800500D01*
X150328845Y-119800499D01*
X150483497Y-119769737D01*
X150629179Y-119709394D01*
X150760289Y-119621789D01*
X150871789Y-119510289D01*
X150959394Y-119379179D01*
X151019737Y-119233497D01*
X151050500Y-119078842D01*
X151050500Y-118921158D01*
X151050500Y-118921155D01*
X151050499Y-118921153D01*
X158699500Y-118921153D01*
X158699500Y-119078846D01*
X158730261Y-119233489D01*
X158730264Y-119233501D01*
X158790602Y-119379172D01*
X158790609Y-119379185D01*
X158878210Y-119510288D01*
X158878213Y-119510292D01*
X158989707Y-119621786D01*
X158989711Y-119621789D01*
X159120814Y-119709390D01*
X159120827Y-119709397D01*
X159266498Y-119769735D01*
X159266503Y-119769737D01*
X159421153Y-119800499D01*
X159421156Y-119800500D01*
X159421158Y-119800500D01*
X159578844Y-119800500D01*
X159578845Y-119800499D01*
X159733497Y-119769737D01*
X159879179Y-119709394D01*
X160010289Y-119621789D01*
X160121789Y-119510289D01*
X160181348Y-119421153D01*
X167699500Y-119421153D01*
X167699500Y-119578846D01*
X167730261Y-119733489D01*
X167730264Y-119733501D01*
X167790602Y-119879172D01*
X167790609Y-119879185D01*
X167878210Y-120010288D01*
X167878213Y-120010292D01*
X167989707Y-120121786D01*
X167989711Y-120121789D01*
X168120814Y-120209390D01*
X168120827Y-120209397D01*
X168258683Y-120266498D01*
X168266503Y-120269737D01*
X168421153Y-120300499D01*
X168421156Y-120300500D01*
X168421158Y-120300500D01*
X168578844Y-120300500D01*
X168578845Y-120300499D01*
X168733497Y-120269737D01*
X168879179Y-120209394D01*
X169010289Y-120121789D01*
X169121789Y-120010289D01*
X169209394Y-119879179D01*
X169269737Y-119733497D01*
X169300500Y-119578842D01*
X169300500Y-119421158D01*
X169300500Y-119421155D01*
X169300499Y-119421153D01*
X169274264Y-119289257D01*
X169270662Y-119271153D01*
X176699500Y-119271153D01*
X176699500Y-119428846D01*
X176730261Y-119583489D01*
X176730264Y-119583501D01*
X176790602Y-119729172D01*
X176790609Y-119729185D01*
X176878210Y-119860288D01*
X176878213Y-119860292D01*
X176989707Y-119971786D01*
X176989711Y-119971789D01*
X177120814Y-120059390D01*
X177120827Y-120059397D01*
X177266498Y-120119735D01*
X177266503Y-120119737D01*
X177421153Y-120150499D01*
X177421156Y-120150500D01*
X177421158Y-120150500D01*
X177578844Y-120150500D01*
X177578845Y-120150499D01*
X177733497Y-120119737D01*
X177879179Y-120059394D01*
X178010289Y-119971789D01*
X178121789Y-119860289D01*
X178209394Y-119729179D01*
X178269737Y-119583497D01*
X178300500Y-119428842D01*
X178300500Y-119271158D01*
X178300500Y-119271155D01*
X178300499Y-119271153D01*
X178299573Y-119266498D01*
X178269737Y-119116503D01*
X178254138Y-119078844D01*
X178209397Y-118970827D01*
X178209390Y-118970814D01*
X178121789Y-118839711D01*
X178121786Y-118839707D01*
X178010292Y-118728213D01*
X178010288Y-118728210D01*
X177879185Y-118640609D01*
X177879172Y-118640602D01*
X177733501Y-118580264D01*
X177733489Y-118580261D01*
X177578845Y-118549500D01*
X177578842Y-118549500D01*
X177421158Y-118549500D01*
X177421155Y-118549500D01*
X177266510Y-118580261D01*
X177266498Y-118580264D01*
X177120827Y-118640602D01*
X177120814Y-118640609D01*
X176989711Y-118728210D01*
X176989707Y-118728213D01*
X176878213Y-118839707D01*
X176878210Y-118839711D01*
X176790609Y-118970814D01*
X176790602Y-118970827D01*
X176730264Y-119116498D01*
X176730261Y-119116510D01*
X176699500Y-119271153D01*
X169270662Y-119271153D01*
X169269738Y-119266507D01*
X169269735Y-119266498D01*
X169209397Y-119120827D01*
X169209390Y-119120814D01*
X169121789Y-118989711D01*
X169121786Y-118989707D01*
X169010292Y-118878213D01*
X169010288Y-118878210D01*
X168879185Y-118790609D01*
X168879172Y-118790602D01*
X168733501Y-118730264D01*
X168733489Y-118730261D01*
X168578845Y-118699500D01*
X168578842Y-118699500D01*
X168421158Y-118699500D01*
X168421155Y-118699500D01*
X168266510Y-118730261D01*
X168266498Y-118730264D01*
X168120827Y-118790602D01*
X168120814Y-118790609D01*
X167989711Y-118878210D01*
X167989707Y-118878213D01*
X167878213Y-118989707D01*
X167878210Y-118989711D01*
X167790609Y-119120814D01*
X167790602Y-119120827D01*
X167730264Y-119266498D01*
X167730261Y-119266510D01*
X167699500Y-119421153D01*
X160181348Y-119421153D01*
X160209394Y-119379179D01*
X160269737Y-119233497D01*
X160300500Y-119078842D01*
X160300500Y-118921158D01*
X160300500Y-118921155D01*
X160300499Y-118921153D01*
X160274531Y-118790606D01*
X160269737Y-118766503D01*
X160269735Y-118766498D01*
X160209397Y-118620827D01*
X160209390Y-118620814D01*
X160121789Y-118489711D01*
X160121786Y-118489707D01*
X160010292Y-118378213D01*
X160010288Y-118378210D01*
X159879185Y-118290609D01*
X159879172Y-118290602D01*
X159733501Y-118230264D01*
X159733489Y-118230261D01*
X159578845Y-118199500D01*
X159578842Y-118199500D01*
X159421158Y-118199500D01*
X159421155Y-118199500D01*
X159266510Y-118230261D01*
X159266498Y-118230264D01*
X159120827Y-118290602D01*
X159120814Y-118290609D01*
X158989711Y-118378210D01*
X158989707Y-118378213D01*
X158878213Y-118489707D01*
X158878210Y-118489711D01*
X158790609Y-118620814D01*
X158790602Y-118620827D01*
X158730264Y-118766498D01*
X158730261Y-118766510D01*
X158699500Y-118921153D01*
X151050499Y-118921153D01*
X151024531Y-118790606D01*
X151019737Y-118766503D01*
X151019735Y-118766498D01*
X150959397Y-118620827D01*
X150959390Y-118620814D01*
X150871789Y-118489711D01*
X150871786Y-118489707D01*
X150760292Y-118378213D01*
X150760288Y-118378210D01*
X150629185Y-118290609D01*
X150629172Y-118290602D01*
X150483501Y-118230264D01*
X150483489Y-118230261D01*
X150328845Y-118199500D01*
X150328842Y-118199500D01*
X150171158Y-118199500D01*
X150171155Y-118199500D01*
X150016510Y-118230261D01*
X150016498Y-118230264D01*
X149870827Y-118290602D01*
X149870814Y-118290609D01*
X149739711Y-118378210D01*
X149739707Y-118378213D01*
X149628213Y-118489707D01*
X149628210Y-118489711D01*
X149540609Y-118620814D01*
X149540602Y-118620827D01*
X149480264Y-118766498D01*
X149480261Y-118766510D01*
X149449500Y-118921153D01*
X142800499Y-118921153D01*
X142774531Y-118790606D01*
X142769737Y-118766503D01*
X142769735Y-118766498D01*
X142709397Y-118620827D01*
X142709390Y-118620814D01*
X142621789Y-118489711D01*
X142621786Y-118489707D01*
X142510292Y-118378213D01*
X142510288Y-118378210D01*
X142379185Y-118290609D01*
X142379172Y-118290602D01*
X142233501Y-118230264D01*
X142233489Y-118230261D01*
X142078845Y-118199500D01*
X142078842Y-118199500D01*
X141921158Y-118199500D01*
X141921155Y-118199500D01*
X141766510Y-118230261D01*
X141766498Y-118230264D01*
X141620827Y-118290602D01*
X141620814Y-118290609D01*
X141489711Y-118378210D01*
X141489707Y-118378213D01*
X141378213Y-118489707D01*
X141378210Y-118489711D01*
X141290609Y-118620814D01*
X141290602Y-118620827D01*
X141230264Y-118766498D01*
X141230261Y-118766510D01*
X141199500Y-118921153D01*
X133550499Y-118921153D01*
X133524531Y-118790606D01*
X133519737Y-118766503D01*
X133519735Y-118766498D01*
X133459397Y-118620827D01*
X133459390Y-118620814D01*
X133371789Y-118489711D01*
X133371786Y-118489707D01*
X133260292Y-118378213D01*
X133260288Y-118378210D01*
X133129185Y-118290609D01*
X133129172Y-118290602D01*
X132983501Y-118230264D01*
X132983489Y-118230261D01*
X132828845Y-118199500D01*
X132828842Y-118199500D01*
X132671158Y-118199500D01*
X132671155Y-118199500D01*
X132516510Y-118230261D01*
X132516498Y-118230264D01*
X132370827Y-118290602D01*
X132370814Y-118290609D01*
X132239711Y-118378210D01*
X132239707Y-118378213D01*
X132128213Y-118489707D01*
X132128210Y-118489711D01*
X132040609Y-118620814D01*
X132040602Y-118620827D01*
X131980264Y-118766498D01*
X131980261Y-118766510D01*
X131949500Y-118921153D01*
X114000500Y-118921153D01*
X114000500Y-116671153D01*
X144699500Y-116671153D01*
X144699500Y-116828846D01*
X144730261Y-116983489D01*
X144730264Y-116983501D01*
X144790602Y-117129172D01*
X144790609Y-117129185D01*
X144878210Y-117260288D01*
X144878213Y-117260292D01*
X144989707Y-117371786D01*
X144989711Y-117371789D01*
X145120814Y-117459390D01*
X145120827Y-117459397D01*
X145266498Y-117519735D01*
X145266503Y-117519737D01*
X145421153Y-117550499D01*
X145421156Y-117550500D01*
X145421158Y-117550500D01*
X145578844Y-117550500D01*
X145578845Y-117550499D01*
X145733497Y-117519737D01*
X145879179Y-117459394D01*
X146010289Y-117371789D01*
X146121789Y-117260289D01*
X146209394Y-117129179D01*
X146269737Y-116983497D01*
X146300500Y-116828842D01*
X146300500Y-116671158D01*
X146300500Y-116671155D01*
X146300499Y-116671153D01*
X146269738Y-116516510D01*
X146269737Y-116516503D01*
X146269735Y-116516498D01*
X146209397Y-116370827D01*
X146209390Y-116370814D01*
X146121789Y-116239711D01*
X146121786Y-116239707D01*
X146010292Y-116128213D01*
X146010288Y-116128210D01*
X145879185Y-116040609D01*
X145879172Y-116040602D01*
X145733501Y-115980264D01*
X145733489Y-115980261D01*
X145578845Y-115949500D01*
X145578842Y-115949500D01*
X145421158Y-115949500D01*
X145421155Y-115949500D01*
X145266510Y-115980261D01*
X145266498Y-115980264D01*
X145120827Y-116040602D01*
X145120814Y-116040609D01*
X144989711Y-116128210D01*
X144989707Y-116128213D01*
X144878213Y-116239707D01*
X144878210Y-116239711D01*
X144790609Y-116370814D01*
X144790602Y-116370827D01*
X144730264Y-116516498D01*
X144730261Y-116516510D01*
X144699500Y-116671153D01*
X114000500Y-116671153D01*
X114000500Y-115421153D01*
X148449500Y-115421153D01*
X148449500Y-115578846D01*
X148480261Y-115733489D01*
X148480264Y-115733501D01*
X148540602Y-115879172D01*
X148540609Y-115879185D01*
X148628210Y-116010288D01*
X148628213Y-116010292D01*
X148739707Y-116121786D01*
X148739711Y-116121789D01*
X148870814Y-116209390D01*
X148870827Y-116209397D01*
X148944013Y-116239711D01*
X149016503Y-116269737D01*
X149171153Y-116300499D01*
X149171156Y-116300500D01*
X149171158Y-116300500D01*
X149328844Y-116300500D01*
X149328845Y-116300499D01*
X149483497Y-116269737D01*
X149629179Y-116209394D01*
X149760289Y-116121789D01*
X149871789Y-116010289D01*
X149959394Y-115879179D01*
X150019737Y-115733497D01*
X150050500Y-115578842D01*
X150050500Y-115421158D01*
X150050500Y-115421155D01*
X150050499Y-115421153D01*
X150019738Y-115266510D01*
X150019737Y-115266503D01*
X149982043Y-115175500D01*
X149959397Y-115120827D01*
X149959390Y-115120814D01*
X149871789Y-114989711D01*
X149871786Y-114989707D01*
X149760292Y-114878213D01*
X149760288Y-114878210D01*
X149629185Y-114790609D01*
X149629172Y-114790602D01*
X149483501Y-114730264D01*
X149483489Y-114730261D01*
X149328845Y-114699500D01*
X149328842Y-114699500D01*
X149171158Y-114699500D01*
X149171155Y-114699500D01*
X149016510Y-114730261D01*
X149016498Y-114730264D01*
X148870827Y-114790602D01*
X148870814Y-114790609D01*
X148739711Y-114878210D01*
X148739707Y-114878213D01*
X148628213Y-114989707D01*
X148628210Y-114989711D01*
X148540609Y-115120814D01*
X148540602Y-115120827D01*
X148480264Y-115266498D01*
X148480261Y-115266510D01*
X148449500Y-115421153D01*
X114000500Y-115421153D01*
X114000500Y-114296153D01*
X160574500Y-114296153D01*
X160574500Y-114453846D01*
X160605261Y-114608489D01*
X160605264Y-114608501D01*
X160665602Y-114754172D01*
X160665609Y-114754185D01*
X160753210Y-114885288D01*
X160753213Y-114885292D01*
X160864707Y-114996786D01*
X160864711Y-114996789D01*
X160995814Y-115084390D01*
X160995827Y-115084397D01*
X161141498Y-115144735D01*
X161141503Y-115144737D01*
X161296153Y-115175499D01*
X161296156Y-115175500D01*
X161296158Y-115175500D01*
X161453844Y-115175500D01*
X161453845Y-115175499D01*
X161608497Y-115144737D01*
X161754179Y-115084394D01*
X161885289Y-114996789D01*
X161996789Y-114885289D01*
X162084394Y-114754179D01*
X162144737Y-114608497D01*
X162175500Y-114453842D01*
X162175500Y-114296158D01*
X162175500Y-114296155D01*
X162175499Y-114296153D01*
X162144738Y-114141510D01*
X162144737Y-114141503D01*
X162144735Y-114141498D01*
X162084397Y-113995827D01*
X162084390Y-113995814D01*
X161996789Y-113864711D01*
X161996786Y-113864707D01*
X161885292Y-113753213D01*
X161885288Y-113753210D01*
X161754185Y-113665609D01*
X161754172Y-113665602D01*
X161608501Y-113605264D01*
X161608489Y-113605261D01*
X161453845Y-113574500D01*
X161453842Y-113574500D01*
X161296158Y-113574500D01*
X161296155Y-113574500D01*
X161141510Y-113605261D01*
X161141498Y-113605264D01*
X160995827Y-113665602D01*
X160995814Y-113665609D01*
X160864711Y-113753210D01*
X160864707Y-113753213D01*
X160753213Y-113864707D01*
X160753210Y-113864711D01*
X160665609Y-113995814D01*
X160665602Y-113995827D01*
X160605264Y-114141498D01*
X160605261Y-114141510D01*
X160574500Y-114296153D01*
X114000500Y-114296153D01*
X114000500Y-110421153D01*
X132449500Y-110421153D01*
X132449500Y-110578846D01*
X132480261Y-110733489D01*
X132480264Y-110733501D01*
X132540602Y-110879172D01*
X132540609Y-110879185D01*
X132628210Y-111010288D01*
X132628213Y-111010292D01*
X132739707Y-111121786D01*
X132739711Y-111121789D01*
X132870814Y-111209390D01*
X132870827Y-111209397D01*
X133016498Y-111269735D01*
X133016503Y-111269737D01*
X133171153Y-111300499D01*
X133171156Y-111300500D01*
X133171158Y-111300500D01*
X133328844Y-111300500D01*
X133328845Y-111300499D01*
X133483497Y-111269737D01*
X133629179Y-111209394D01*
X133760289Y-111121789D01*
X133871789Y-111010289D01*
X133959394Y-110879179D01*
X134019737Y-110733497D01*
X134050500Y-110578842D01*
X134050500Y-110421158D01*
X134050500Y-110421155D01*
X134050499Y-110421153D01*
X134019738Y-110266510D01*
X134019737Y-110266503D01*
X134017163Y-110260288D01*
X133959397Y-110120827D01*
X133959390Y-110120814D01*
X133871789Y-109989711D01*
X133871786Y-109989707D01*
X133760292Y-109878213D01*
X133760288Y-109878210D01*
X133629185Y-109790609D01*
X133629173Y-109790602D01*
X133602674Y-109779627D01*
X133483501Y-109730264D01*
X133483489Y-109730261D01*
X133328845Y-109699500D01*
X133328842Y-109699500D01*
X133171158Y-109699500D01*
X133171155Y-109699500D01*
X133016510Y-109730261D01*
X133016498Y-109730264D01*
X132870827Y-109790602D01*
X132870814Y-109790609D01*
X132739711Y-109878210D01*
X132739707Y-109878213D01*
X132628213Y-109989707D01*
X132628210Y-109989711D01*
X132540609Y-110120814D01*
X132540602Y-110120827D01*
X132480264Y-110266498D01*
X132480261Y-110266510D01*
X132449500Y-110421153D01*
X114000500Y-110421153D01*
X114000500Y-109671153D01*
X163949500Y-109671153D01*
X163949500Y-109828846D01*
X163980261Y-109983489D01*
X163980264Y-109983501D01*
X164040602Y-110129172D01*
X164040609Y-110129185D01*
X164128210Y-110260288D01*
X164128213Y-110260292D01*
X164239707Y-110371786D01*
X164239711Y-110371789D01*
X164370814Y-110459390D01*
X164370827Y-110459397D01*
X164516498Y-110519735D01*
X164516503Y-110519737D01*
X164671153Y-110550499D01*
X164671156Y-110550500D01*
X164671158Y-110550500D01*
X164828844Y-110550500D01*
X164828845Y-110550499D01*
X164983497Y-110519737D01*
X165129179Y-110459394D01*
X165260289Y-110371789D01*
X165371789Y-110260289D01*
X165459394Y-110129179D01*
X165462854Y-110120827D01*
X165517163Y-109989711D01*
X165519737Y-109983497D01*
X165550500Y-109828842D01*
X165550500Y-109671158D01*
X165550500Y-109671155D01*
X165550499Y-109671153D01*
X165519737Y-109516503D01*
X165474977Y-109408441D01*
X165459397Y-109370827D01*
X165459390Y-109370814D01*
X165371789Y-109239711D01*
X165371786Y-109239707D01*
X165260292Y-109128213D01*
X165260288Y-109128210D01*
X165129185Y-109040609D01*
X165129172Y-109040602D01*
X164983501Y-108980264D01*
X164983489Y-108980261D01*
X164828845Y-108949500D01*
X164828842Y-108949500D01*
X164671158Y-108949500D01*
X164671155Y-108949500D01*
X164516510Y-108980261D01*
X164516498Y-108980264D01*
X164370827Y-109040602D01*
X164370814Y-109040609D01*
X164239711Y-109128210D01*
X164239707Y-109128213D01*
X164128213Y-109239707D01*
X164128210Y-109239711D01*
X164040609Y-109370814D01*
X164040602Y-109370827D01*
X163980264Y-109516498D01*
X163980261Y-109516510D01*
X163949500Y-109671153D01*
X114000500Y-109671153D01*
X114000500Y-108421153D01*
X151449500Y-108421153D01*
X151449500Y-108578846D01*
X151480261Y-108733489D01*
X151480264Y-108733501D01*
X151540602Y-108879172D01*
X151540609Y-108879185D01*
X151628210Y-109010288D01*
X151628213Y-109010292D01*
X151739707Y-109121786D01*
X151739711Y-109121789D01*
X151870814Y-109209390D01*
X151870827Y-109209397D01*
X151944013Y-109239711D01*
X152016503Y-109269737D01*
X152171153Y-109300499D01*
X152171156Y-109300500D01*
X152171158Y-109300500D01*
X152328844Y-109300500D01*
X152328845Y-109300499D01*
X152483497Y-109269737D01*
X152602550Y-109220423D01*
X152672017Y-109212955D01*
X152697450Y-109220422D01*
X152816506Y-109269737D01*
X152971156Y-109300499D01*
X152971159Y-109300500D01*
X152971161Y-109300500D01*
X153128847Y-109300500D01*
X153128848Y-109300499D01*
X153283500Y-109269737D01*
X153402553Y-109220423D01*
X153472020Y-109212955D01*
X153497453Y-109220422D01*
X153616509Y-109269737D01*
X153771159Y-109300499D01*
X153771162Y-109300500D01*
X153771164Y-109300500D01*
X153928850Y-109300500D01*
X153928851Y-109300499D01*
X154083503Y-109269737D01*
X154202556Y-109220423D01*
X154272023Y-109212955D01*
X154297456Y-109220422D01*
X154416512Y-109269737D01*
X154571162Y-109300499D01*
X154571165Y-109300500D01*
X154571167Y-109300500D01*
X154728853Y-109300500D01*
X154728854Y-109300499D01*
X154883506Y-109269737D01*
X155002559Y-109220423D01*
X155072026Y-109212955D01*
X155097459Y-109220422D01*
X155216515Y-109269737D01*
X155371165Y-109300499D01*
X155371168Y-109300500D01*
X155371170Y-109300500D01*
X155528856Y-109300500D01*
X155528857Y-109300499D01*
X155683509Y-109269737D01*
X155802562Y-109220423D01*
X155872029Y-109212955D01*
X155897462Y-109220422D01*
X156016518Y-109269737D01*
X156171168Y-109300499D01*
X156171171Y-109300500D01*
X156171173Y-109300500D01*
X156328859Y-109300500D01*
X156328860Y-109300499D01*
X156483512Y-109269737D01*
X156629194Y-109209394D01*
X156760304Y-109121789D01*
X156871804Y-109010289D01*
X156959409Y-108879179D01*
X157019752Y-108733497D01*
X157050515Y-108578842D01*
X157050515Y-108421158D01*
X157050515Y-108421155D01*
X157047552Y-108406260D01*
X167609000Y-108406260D01*
X167609000Y-108593739D01*
X167638325Y-108778889D01*
X167638326Y-108778893D01*
X167696257Y-108957185D01*
X167781365Y-109124220D01*
X167891556Y-109275885D01*
X168024115Y-109408444D01*
X168175780Y-109518635D01*
X168342815Y-109603743D01*
X168521107Y-109661674D01*
X168590541Y-109672671D01*
X168706261Y-109691000D01*
X168706266Y-109691000D01*
X168893739Y-109691000D01*
X168996600Y-109674707D01*
X169078893Y-109661674D01*
X169257185Y-109603743D01*
X169424220Y-109518635D01*
X169575885Y-109408444D01*
X169708444Y-109275885D01*
X169818635Y-109124220D01*
X169903743Y-108957185D01*
X169961674Y-108778893D01*
X169974707Y-108696600D01*
X169991000Y-108593739D01*
X169991000Y-108406260D01*
X169961674Y-108221110D01*
X169961674Y-108221107D01*
X169903743Y-108042815D01*
X169818635Y-107875780D01*
X169708444Y-107724115D01*
X169575885Y-107591556D01*
X169424220Y-107481365D01*
X169257185Y-107396257D01*
X169078893Y-107338326D01*
X169078891Y-107338325D01*
X169078889Y-107338325D01*
X168893739Y-107309000D01*
X168893734Y-107309000D01*
X168706266Y-107309000D01*
X168706261Y-107309000D01*
X168521110Y-107338325D01*
X168342812Y-107396258D01*
X168175779Y-107481365D01*
X168089249Y-107544233D01*
X168024115Y-107591556D01*
X168024113Y-107591558D01*
X168024112Y-107591558D01*
X167891558Y-107724112D01*
X167891558Y-107724113D01*
X167891556Y-107724115D01*
X167851262Y-107779575D01*
X167781365Y-107875779D01*
X167696258Y-108042812D01*
X167638325Y-108221110D01*
X167609000Y-108406260D01*
X157047552Y-108406260D01*
X157019753Y-108266510D01*
X157019752Y-108266503D01*
X157000949Y-108221107D01*
X156959412Y-108120827D01*
X156959405Y-108120814D01*
X156871804Y-107989711D01*
X156871801Y-107989707D01*
X156760307Y-107878213D01*
X156760303Y-107878210D01*
X156629200Y-107790609D01*
X156629187Y-107790602D01*
X156483516Y-107730264D01*
X156483504Y-107730261D01*
X156328860Y-107699500D01*
X156328857Y-107699500D01*
X156171173Y-107699500D01*
X156171170Y-107699500D01*
X156016525Y-107730261D01*
X156016513Y-107730264D01*
X155897465Y-107779575D01*
X155827995Y-107787044D01*
X155802561Y-107779575D01*
X155683513Y-107730264D01*
X155683501Y-107730261D01*
X155528857Y-107699500D01*
X155528854Y-107699500D01*
X155371170Y-107699500D01*
X155371167Y-107699500D01*
X155216522Y-107730261D01*
X155216510Y-107730264D01*
X155097462Y-107779575D01*
X155027992Y-107787044D01*
X155002558Y-107779575D01*
X154883510Y-107730264D01*
X154883498Y-107730261D01*
X154728854Y-107699500D01*
X154728851Y-107699500D01*
X154571167Y-107699500D01*
X154571164Y-107699500D01*
X154416519Y-107730261D01*
X154416507Y-107730264D01*
X154297459Y-107779575D01*
X154227989Y-107787044D01*
X154202555Y-107779575D01*
X154083507Y-107730264D01*
X154083495Y-107730261D01*
X153928851Y-107699500D01*
X153928848Y-107699500D01*
X153771164Y-107699500D01*
X153771161Y-107699500D01*
X153616516Y-107730261D01*
X153616504Y-107730264D01*
X153497456Y-107779575D01*
X153427986Y-107787044D01*
X153402552Y-107779575D01*
X153283504Y-107730264D01*
X153283492Y-107730261D01*
X153128848Y-107699500D01*
X153128845Y-107699500D01*
X152971161Y-107699500D01*
X152971158Y-107699500D01*
X152816513Y-107730261D01*
X152816501Y-107730264D01*
X152697453Y-107779575D01*
X152627983Y-107787044D01*
X152602549Y-107779575D01*
X152483501Y-107730264D01*
X152483489Y-107730261D01*
X152328845Y-107699500D01*
X152328842Y-107699500D01*
X152171158Y-107699500D01*
X152171155Y-107699500D01*
X152016510Y-107730261D01*
X152016498Y-107730264D01*
X151870827Y-107790602D01*
X151870814Y-107790609D01*
X151739711Y-107878210D01*
X151739707Y-107878213D01*
X151628213Y-107989707D01*
X151628210Y-107989711D01*
X151540609Y-108120814D01*
X151540602Y-108120827D01*
X151480264Y-108266498D01*
X151480261Y-108266510D01*
X151449500Y-108421153D01*
X114000500Y-108421153D01*
X114000500Y-104921153D01*
X145199500Y-104921153D01*
X145199500Y-105078846D01*
X145230261Y-105233489D01*
X145230264Y-105233501D01*
X145290602Y-105379172D01*
X145290609Y-105379185D01*
X145378210Y-105510288D01*
X145378213Y-105510292D01*
X145489707Y-105621786D01*
X145489711Y-105621789D01*
X145620814Y-105709390D01*
X145620827Y-105709397D01*
X145766498Y-105769735D01*
X145766503Y-105769737D01*
X145793423Y-105775091D01*
X145815624Y-105779508D01*
X145877535Y-105811892D01*
X145912109Y-105872608D01*
X145908370Y-105942377D01*
X145881706Y-105984697D01*
X145882076Y-105985001D01*
X145879661Y-105987942D01*
X145879123Y-105988798D01*
X145878212Y-105989708D01*
X145878210Y-105989711D01*
X145790609Y-106120814D01*
X145790602Y-106120827D01*
X145730264Y-106266498D01*
X145730261Y-106266510D01*
X145699500Y-106421153D01*
X145699500Y-106578846D01*
X145730261Y-106733489D01*
X145730264Y-106733501D01*
X145790602Y-106879172D01*
X145790609Y-106879185D01*
X145878210Y-107010288D01*
X145878213Y-107010292D01*
X145989707Y-107121786D01*
X145989711Y-107121789D01*
X146120814Y-107209390D01*
X146120827Y-107209397D01*
X146266498Y-107269735D01*
X146266503Y-107269737D01*
X146421153Y-107300499D01*
X146421156Y-107300500D01*
X146421158Y-107300500D01*
X146578844Y-107300500D01*
X146578845Y-107300499D01*
X146733497Y-107269737D01*
X146879179Y-107209394D01*
X147010289Y-107121789D01*
X147017125Y-107114953D01*
X183893300Y-107114953D01*
X183893300Y-107272646D01*
X183924061Y-107427289D01*
X183924064Y-107427301D01*
X183984402Y-107572972D01*
X183984409Y-107572985D01*
X184072010Y-107704088D01*
X184072013Y-107704092D01*
X184183507Y-107815586D01*
X184183511Y-107815589D01*
X184314614Y-107903190D01*
X184314627Y-107903197D01*
X184460298Y-107963535D01*
X184460303Y-107963537D01*
X184591868Y-107989707D01*
X184614953Y-107994299D01*
X184614956Y-107994300D01*
X184614958Y-107994300D01*
X184772644Y-107994300D01*
X184772645Y-107994299D01*
X184927297Y-107963537D01*
X185072979Y-107903194D01*
X185204089Y-107815589D01*
X185315589Y-107704089D01*
X185403194Y-107572979D01*
X185463537Y-107427297D01*
X185494300Y-107272642D01*
X185494300Y-107114958D01*
X185494300Y-107114955D01*
X185494299Y-107114953D01*
X185473480Y-107010289D01*
X185463537Y-106960303D01*
X185429932Y-106879172D01*
X185403197Y-106814627D01*
X185403190Y-106814614D01*
X185315589Y-106683511D01*
X185315586Y-106683507D01*
X185204092Y-106572013D01*
X185204088Y-106572010D01*
X185072985Y-106484409D01*
X185072972Y-106484402D01*
X184927301Y-106424064D01*
X184927289Y-106424061D01*
X184772645Y-106393300D01*
X184772642Y-106393300D01*
X184614958Y-106393300D01*
X184614955Y-106393300D01*
X184460310Y-106424061D01*
X184460298Y-106424064D01*
X184314627Y-106484402D01*
X184314614Y-106484409D01*
X184183511Y-106572010D01*
X184183507Y-106572013D01*
X184072013Y-106683507D01*
X184072010Y-106683511D01*
X183984409Y-106814614D01*
X183984402Y-106814627D01*
X183924064Y-106960298D01*
X183924061Y-106960310D01*
X183893300Y-107114953D01*
X147017125Y-107114953D01*
X147110894Y-107021185D01*
X147121786Y-107010292D01*
X147121789Y-107010289D01*
X147209394Y-106879179D01*
X147269737Y-106733497D01*
X147300500Y-106578842D01*
X147300500Y-106421158D01*
X147300500Y-106421155D01*
X147300499Y-106421153D01*
X147294959Y-106393300D01*
X147269737Y-106266503D01*
X147210802Y-106124220D01*
X147209397Y-106120827D01*
X147209390Y-106120814D01*
X147121789Y-105989711D01*
X147121786Y-105989707D01*
X147010292Y-105878213D01*
X147010288Y-105878210D01*
X146879185Y-105790609D01*
X146879172Y-105790602D01*
X146733501Y-105730264D01*
X146733491Y-105730261D01*
X146684374Y-105720491D01*
X146622463Y-105688106D01*
X146587889Y-105627389D01*
X146591630Y-105557620D01*
X146618296Y-105515304D01*
X146617924Y-105514999D01*
X146620357Y-105512033D01*
X146620891Y-105511186D01*
X146621789Y-105510289D01*
X146709394Y-105379179D01*
X146769737Y-105233497D01*
X146800500Y-105078842D01*
X146800500Y-104921158D01*
X146800500Y-104921155D01*
X146800499Y-104921153D01*
X155199500Y-104921153D01*
X155199500Y-105078846D01*
X155230261Y-105233489D01*
X155230264Y-105233501D01*
X155290602Y-105379172D01*
X155290609Y-105379185D01*
X155378210Y-105510288D01*
X155378213Y-105510292D01*
X155489707Y-105621786D01*
X155489711Y-105621789D01*
X155620814Y-105709390D01*
X155620827Y-105709397D01*
X155766498Y-105769735D01*
X155766503Y-105769737D01*
X155882468Y-105792804D01*
X155921153Y-105800499D01*
X155921156Y-105800500D01*
X155921158Y-105800500D01*
X156078844Y-105800500D01*
X156078845Y-105800499D01*
X156233497Y-105769737D01*
X156379179Y-105709394D01*
X156510289Y-105621789D01*
X156621789Y-105510289D01*
X156691299Y-105406260D01*
X167609000Y-105406260D01*
X167609000Y-105593739D01*
X167636876Y-105769738D01*
X167638326Y-105778893D01*
X167696257Y-105957185D01*
X167781365Y-106124220D01*
X167891556Y-106275885D01*
X168024115Y-106408444D01*
X168175780Y-106518635D01*
X168342815Y-106603743D01*
X168521107Y-106661674D01*
X168590541Y-106672671D01*
X168706261Y-106691000D01*
X168706266Y-106691000D01*
X168893739Y-106691000D01*
X168996600Y-106674707D01*
X169078893Y-106661674D01*
X169257185Y-106603743D01*
X169424220Y-106518635D01*
X169575885Y-106408444D01*
X169708444Y-106275885D01*
X169818635Y-106124220D01*
X169903743Y-105957185D01*
X169961674Y-105778893D01*
X169986557Y-105621789D01*
X169991000Y-105593739D01*
X169991000Y-105406260D01*
X169961674Y-105221110D01*
X169961674Y-105221107D01*
X169903743Y-105042815D01*
X169818635Y-104875780D01*
X169708444Y-104724115D01*
X169575885Y-104591556D01*
X169424220Y-104481365D01*
X169257185Y-104396257D01*
X169078893Y-104338326D01*
X169078891Y-104338325D01*
X169078889Y-104338325D01*
X168893739Y-104309000D01*
X168893734Y-104309000D01*
X168706266Y-104309000D01*
X168706261Y-104309000D01*
X168521110Y-104338325D01*
X168521107Y-104338326D01*
X168398355Y-104378211D01*
X168342812Y-104396258D01*
X168175779Y-104481365D01*
X168089249Y-104544233D01*
X168024115Y-104591556D01*
X168024113Y-104591558D01*
X168024112Y-104591558D01*
X167891558Y-104724112D01*
X167891558Y-104724113D01*
X167891556Y-104724115D01*
X167860754Y-104766510D01*
X167781365Y-104875779D01*
X167696258Y-105042812D01*
X167638325Y-105221110D01*
X167609000Y-105406260D01*
X156691299Y-105406260D01*
X156709394Y-105379179D01*
X156709397Y-105379172D01*
X156719848Y-105353942D01*
X156769735Y-105233501D01*
X156769737Y-105233497D01*
X156800500Y-105078842D01*
X156800500Y-104921158D01*
X156800500Y-104921155D01*
X156800499Y-104921153D01*
X156769738Y-104766510D01*
X156769737Y-104766503D01*
X156769735Y-104766498D01*
X156709397Y-104620827D01*
X156709390Y-104620814D01*
X156621789Y-104489711D01*
X156621786Y-104489707D01*
X156510292Y-104378213D01*
X156510288Y-104378210D01*
X156379185Y-104290609D01*
X156379172Y-104290602D01*
X156233501Y-104230264D01*
X156233489Y-104230261D01*
X156078845Y-104199500D01*
X156078842Y-104199500D01*
X155921158Y-104199500D01*
X155921155Y-104199500D01*
X155766510Y-104230261D01*
X155766498Y-104230264D01*
X155620827Y-104290602D01*
X155620814Y-104290609D01*
X155489711Y-104378210D01*
X155489707Y-104378213D01*
X155378213Y-104489707D01*
X155378210Y-104489711D01*
X155290609Y-104620814D01*
X155290602Y-104620827D01*
X155230264Y-104766498D01*
X155230261Y-104766510D01*
X155199500Y-104921153D01*
X146800499Y-104921153D01*
X146769738Y-104766510D01*
X146769737Y-104766503D01*
X146769735Y-104766498D01*
X146709397Y-104620827D01*
X146709390Y-104620814D01*
X146621789Y-104489711D01*
X146621786Y-104489707D01*
X146510292Y-104378213D01*
X146510288Y-104378210D01*
X146379185Y-104290609D01*
X146379172Y-104290602D01*
X146233501Y-104230264D01*
X146233489Y-104230261D01*
X146078845Y-104199500D01*
X146078842Y-104199500D01*
X145921158Y-104199500D01*
X145921155Y-104199500D01*
X145766510Y-104230261D01*
X145766498Y-104230264D01*
X145620827Y-104290602D01*
X145620814Y-104290609D01*
X145489711Y-104378210D01*
X145489707Y-104378213D01*
X145378213Y-104489707D01*
X145378210Y-104489711D01*
X145290609Y-104620814D01*
X145290602Y-104620827D01*
X145230264Y-104766498D01*
X145230261Y-104766510D01*
X145199500Y-104921153D01*
X114000500Y-104921153D01*
X114000500Y-103171153D01*
X138449500Y-103171153D01*
X138449500Y-103328846D01*
X138480261Y-103483489D01*
X138480264Y-103483501D01*
X138540602Y-103629172D01*
X138540609Y-103629185D01*
X138628210Y-103760288D01*
X138628213Y-103760292D01*
X138739707Y-103871786D01*
X138739711Y-103871789D01*
X138870814Y-103959390D01*
X138870827Y-103959397D01*
X139016498Y-104019735D01*
X139016503Y-104019737D01*
X139171153Y-104050499D01*
X139171156Y-104050500D01*
X139171158Y-104050500D01*
X139328844Y-104050500D01*
X139328845Y-104050499D01*
X139483497Y-104019737D01*
X139629179Y-103959394D01*
X139760289Y-103871789D01*
X139871789Y-103760289D01*
X139959394Y-103629179D01*
X140019737Y-103483497D01*
X140032138Y-103421153D01*
X177449500Y-103421153D01*
X177449500Y-103578846D01*
X177480261Y-103733489D01*
X177480264Y-103733501D01*
X177540602Y-103879172D01*
X177540609Y-103879185D01*
X177628210Y-104010288D01*
X177628213Y-104010292D01*
X177739707Y-104121786D01*
X177739711Y-104121789D01*
X177870814Y-104209390D01*
X177870827Y-104209397D01*
X178016498Y-104269735D01*
X178016503Y-104269737D01*
X178171153Y-104300499D01*
X178171156Y-104300500D01*
X178171158Y-104300500D01*
X178328844Y-104300500D01*
X178328845Y-104300499D01*
X178483497Y-104269737D01*
X178629179Y-104209394D01*
X178760289Y-104121789D01*
X178871789Y-104010289D01*
X178959394Y-103879179D01*
X179019737Y-103733497D01*
X179050500Y-103578842D01*
X179050500Y-103421158D01*
X179050500Y-103421155D01*
X179050499Y-103421153D01*
X179019738Y-103266510D01*
X179019737Y-103266503D01*
X178980242Y-103171153D01*
X178959397Y-103120827D01*
X178959390Y-103120814D01*
X178871789Y-102989711D01*
X178871786Y-102989707D01*
X178760292Y-102878213D01*
X178760288Y-102878210D01*
X178629185Y-102790609D01*
X178629172Y-102790602D01*
X178483501Y-102730264D01*
X178483489Y-102730261D01*
X178328845Y-102699500D01*
X178328842Y-102699500D01*
X178171158Y-102699500D01*
X178171155Y-102699500D01*
X178016510Y-102730261D01*
X178016498Y-102730264D01*
X177870827Y-102790602D01*
X177870814Y-102790609D01*
X177739711Y-102878210D01*
X177739707Y-102878213D01*
X177628213Y-102989707D01*
X177628210Y-102989711D01*
X177540609Y-103120814D01*
X177540602Y-103120827D01*
X177480264Y-103266498D01*
X177480261Y-103266510D01*
X177449500Y-103421153D01*
X140032138Y-103421153D01*
X140038161Y-103390874D01*
X140050500Y-103328844D01*
X140050500Y-103171155D01*
X140050499Y-103171153D01*
X140019738Y-103016510D01*
X140019737Y-103016503D01*
X140019735Y-103016498D01*
X139959397Y-102870827D01*
X139959390Y-102870814D01*
X139871789Y-102739711D01*
X139871786Y-102739707D01*
X139760292Y-102628213D01*
X139760288Y-102628210D01*
X139629185Y-102540609D01*
X139629172Y-102540602D01*
X139483501Y-102480264D01*
X139483489Y-102480261D01*
X139328845Y-102449500D01*
X139328842Y-102449500D01*
X139171158Y-102449500D01*
X139171155Y-102449500D01*
X139016510Y-102480261D01*
X139016498Y-102480264D01*
X138870827Y-102540602D01*
X138870814Y-102540609D01*
X138739711Y-102628210D01*
X138739707Y-102628213D01*
X138628213Y-102739707D01*
X138628210Y-102739711D01*
X138540609Y-102870814D01*
X138540602Y-102870827D01*
X138480264Y-103016498D01*
X138480261Y-103016510D01*
X138449500Y-103171153D01*
X114000500Y-103171153D01*
X114000500Y-101671153D01*
X181949500Y-101671153D01*
X181949500Y-101828846D01*
X181980261Y-101983489D01*
X181980264Y-101983501D01*
X182040602Y-102129172D01*
X182040609Y-102129185D01*
X182128210Y-102260288D01*
X182128213Y-102260292D01*
X182239707Y-102371786D01*
X182239711Y-102371789D01*
X182370814Y-102459390D01*
X182370827Y-102459397D01*
X182516498Y-102519735D01*
X182516503Y-102519737D01*
X182671153Y-102550499D01*
X182671156Y-102550500D01*
X182671158Y-102550500D01*
X182828844Y-102550500D01*
X182828845Y-102550499D01*
X182983497Y-102519737D01*
X183129179Y-102459394D01*
X183260289Y-102371789D01*
X183371789Y-102260289D01*
X183459394Y-102129179D01*
X183519737Y-101983497D01*
X183550500Y-101828842D01*
X183550500Y-101671158D01*
X183550500Y-101671155D01*
X183550499Y-101671153D01*
X183519738Y-101516510D01*
X183519737Y-101516503D01*
X183519735Y-101516498D01*
X183459397Y-101370827D01*
X183459390Y-101370814D01*
X183371789Y-101239711D01*
X183371786Y-101239707D01*
X183260292Y-101128213D01*
X183260288Y-101128210D01*
X183129185Y-101040609D01*
X183129172Y-101040602D01*
X182983501Y-100980264D01*
X182983489Y-100980261D01*
X182828845Y-100949500D01*
X182828842Y-100949500D01*
X182671158Y-100949500D01*
X182671155Y-100949500D01*
X182516510Y-100980261D01*
X182516498Y-100980264D01*
X182370827Y-101040602D01*
X182370814Y-101040609D01*
X182239711Y-101128210D01*
X182239707Y-101128213D01*
X182128213Y-101239707D01*
X182128210Y-101239711D01*
X182040609Y-101370814D01*
X182040602Y-101370827D01*
X181980264Y-101516498D01*
X181980261Y-101516510D01*
X181949500Y-101671153D01*
X114000500Y-101671153D01*
X114000500Y-98921153D01*
X137199500Y-98921153D01*
X137199500Y-99078846D01*
X137230261Y-99233489D01*
X137230264Y-99233501D01*
X137290602Y-99379172D01*
X137290609Y-99379185D01*
X137378210Y-99510288D01*
X137378213Y-99510292D01*
X137489707Y-99621786D01*
X137489711Y-99621789D01*
X137620814Y-99709390D01*
X137620827Y-99709397D01*
X137758683Y-99766498D01*
X137766503Y-99769737D01*
X137921153Y-99800499D01*
X137921156Y-99800500D01*
X137921158Y-99800500D01*
X138078844Y-99800500D01*
X138078845Y-99800499D01*
X138233497Y-99769737D01*
X138379179Y-99709394D01*
X138510289Y-99621789D01*
X138621789Y-99510289D01*
X138709394Y-99379179D01*
X138769737Y-99233497D01*
X138800500Y-99078842D01*
X138800500Y-98921158D01*
X138800500Y-98921155D01*
X138800499Y-98921153D01*
X138769738Y-98766510D01*
X138769737Y-98766503D01*
X138744693Y-98706041D01*
X138709397Y-98620827D01*
X138709390Y-98620814D01*
X138684763Y-98583957D01*
X138642798Y-98521153D01*
X141299500Y-98521153D01*
X141299500Y-98678846D01*
X141330261Y-98833489D01*
X141330264Y-98833501D01*
X141390602Y-98979172D01*
X141390609Y-98979185D01*
X141478210Y-99110288D01*
X141478213Y-99110292D01*
X141589707Y-99221786D01*
X141589711Y-99221789D01*
X141720814Y-99309390D01*
X141720827Y-99309397D01*
X141866498Y-99369735D01*
X141866503Y-99369737D01*
X142021153Y-99400499D01*
X142021156Y-99400500D01*
X142021158Y-99400500D01*
X142178844Y-99400500D01*
X142178845Y-99400499D01*
X142333497Y-99369737D01*
X142479179Y-99309394D01*
X142610289Y-99221789D01*
X142721789Y-99110289D01*
X142809394Y-98979179D01*
X142869737Y-98833497D01*
X142895090Y-98706041D01*
X142908504Y-98680397D01*
X142919276Y-98653530D01*
X142925634Y-98647648D01*
X142927475Y-98644130D01*
X142944833Y-98629187D01*
X142946304Y-98628140D01*
X143054050Y-98556147D01*
X143070148Y-98540048D01*
X143078611Y-98534029D01*
X143102209Y-98525874D01*
X143124122Y-98513909D01*
X143134660Y-98514662D01*
X143144649Y-98511211D01*
X143168913Y-98517110D01*
X143193814Y-98518891D01*
X143202272Y-98525222D01*
X143212541Y-98527719D01*
X143229763Y-98545800D01*
X143249749Y-98560760D01*
X143253441Y-98570659D01*
X143260730Y-98578311D01*
X143265442Y-98602828D01*
X143274169Y-98626223D01*
X143272233Y-98638167D01*
X143273917Y-98646925D01*
X143268711Y-98659909D01*
X143265047Y-98682525D01*
X143230263Y-98766503D01*
X143230261Y-98766510D01*
X143199500Y-98921153D01*
X143199500Y-99078846D01*
X143230261Y-99233489D01*
X143230264Y-99233501D01*
X143290602Y-99379172D01*
X143290609Y-99379185D01*
X143325304Y-99431109D01*
X143346182Y-99497786D01*
X143327698Y-99565167D01*
X143325304Y-99568891D01*
X143290609Y-99620814D01*
X143290602Y-99620827D01*
X143230264Y-99766498D01*
X143230261Y-99766510D01*
X143199500Y-99921153D01*
X143199500Y-100078846D01*
X143230261Y-100233489D01*
X143230264Y-100233501D01*
X143290602Y-100379172D01*
X143290609Y-100379185D01*
X143378210Y-100510288D01*
X143378213Y-100510292D01*
X143489707Y-100621786D01*
X143489711Y-100621789D01*
X143620814Y-100709390D01*
X143620827Y-100709397D01*
X143766498Y-100769735D01*
X143766503Y-100769737D01*
X143921153Y-100800499D01*
X143921156Y-100800500D01*
X143921158Y-100800500D01*
X144078844Y-100800500D01*
X144078845Y-100800499D01*
X144233497Y-100769737D01*
X144379179Y-100709394D01*
X144510289Y-100621789D01*
X144621789Y-100510289D01*
X144709394Y-100379179D01*
X144769737Y-100233497D01*
X144800500Y-100078842D01*
X144800500Y-99921158D01*
X144800500Y-99921155D01*
X144800499Y-99921153D01*
X144769738Y-99766510D01*
X144769737Y-99766503D01*
X144709794Y-99621786D01*
X144709396Y-99620825D01*
X144709394Y-99620822D01*
X144709394Y-99620821D01*
X144674694Y-99568889D01*
X144653816Y-99502215D01*
X144672300Y-99434835D01*
X144674676Y-99431136D01*
X144709394Y-99379179D01*
X144769737Y-99233497D01*
X144800500Y-99078842D01*
X144800500Y-98921158D01*
X144800500Y-98921155D01*
X144800499Y-98921153D01*
X144769738Y-98766510D01*
X144769737Y-98766503D01*
X144744693Y-98706041D01*
X144709396Y-98620825D01*
X144709394Y-98620822D01*
X144709394Y-98620821D01*
X144674694Y-98568889D01*
X144670663Y-98556017D01*
X144662390Y-98545359D01*
X144660425Y-98523323D01*
X144653816Y-98502215D01*
X144657250Y-98487693D01*
X144656187Y-98475765D01*
X144665231Y-98453941D01*
X144667941Y-98442485D01*
X144671007Y-98436627D01*
X144709394Y-98379179D01*
X144716564Y-98361868D01*
X145291685Y-98361868D01*
X145291685Y-98519561D01*
X145322446Y-98674204D01*
X145322449Y-98674216D01*
X145382787Y-98819887D01*
X145382794Y-98819900D01*
X145470395Y-98951003D01*
X145470398Y-98951007D01*
X145581892Y-99062501D01*
X145581896Y-99062504D01*
X145712999Y-99150105D01*
X145713012Y-99150112D01*
X145858683Y-99210450D01*
X145858688Y-99210452D01*
X146013338Y-99241214D01*
X146013341Y-99241215D01*
X146013343Y-99241215D01*
X146171029Y-99241215D01*
X146171030Y-99241214D01*
X146325682Y-99210452D01*
X146471364Y-99150109D01*
X146602474Y-99062504D01*
X146713974Y-98951004D01*
X146733920Y-98921153D01*
X148199500Y-98921153D01*
X148199500Y-99078846D01*
X148230261Y-99233489D01*
X148230264Y-99233501D01*
X148290602Y-99379172D01*
X148290609Y-99379185D01*
X148378210Y-99510288D01*
X148378213Y-99510292D01*
X148489707Y-99621786D01*
X148489711Y-99621789D01*
X148620814Y-99709390D01*
X148620827Y-99709397D01*
X148758683Y-99766498D01*
X148766503Y-99769737D01*
X148921153Y-99800499D01*
X148921156Y-99800500D01*
X148921158Y-99800500D01*
X149078844Y-99800500D01*
X149078845Y-99800499D01*
X149233497Y-99769737D01*
X149379179Y-99709394D01*
X149510289Y-99621789D01*
X149621789Y-99510289D01*
X149709394Y-99379179D01*
X149769737Y-99233497D01*
X149800500Y-99078842D01*
X149800500Y-98921158D01*
X149800500Y-98921155D01*
X149800499Y-98921153D01*
X149769738Y-98766510D01*
X149769737Y-98766503D01*
X149744693Y-98706041D01*
X149709397Y-98620827D01*
X149709390Y-98620814D01*
X149621789Y-98489711D01*
X149621786Y-98489707D01*
X149510292Y-98378213D01*
X149510288Y-98378210D01*
X149379185Y-98290609D01*
X149379172Y-98290602D01*
X149233501Y-98230264D01*
X149233489Y-98230261D01*
X149078845Y-98199500D01*
X149078842Y-98199500D01*
X148921158Y-98199500D01*
X148921155Y-98199500D01*
X148766510Y-98230261D01*
X148766498Y-98230264D01*
X148620827Y-98290602D01*
X148620814Y-98290609D01*
X148489711Y-98378210D01*
X148489707Y-98378213D01*
X148378213Y-98489707D01*
X148378210Y-98489711D01*
X148290609Y-98620814D01*
X148290602Y-98620827D01*
X148230264Y-98766498D01*
X148230261Y-98766510D01*
X148199500Y-98921153D01*
X146733920Y-98921153D01*
X146801579Y-98819894D01*
X146861922Y-98674212D01*
X146892685Y-98519557D01*
X146892685Y-98361873D01*
X146892685Y-98361870D01*
X146892684Y-98361868D01*
X146880606Y-98301150D01*
X146861922Y-98207218D01*
X146858725Y-98199500D01*
X146801582Y-98061542D01*
X146801575Y-98061529D01*
X146713974Y-97930426D01*
X146713971Y-97930422D01*
X146602477Y-97818928D01*
X146602473Y-97818925D01*
X146471370Y-97731324D01*
X146471360Y-97731319D01*
X146394762Y-97699591D01*
X146340359Y-97655750D01*
X146318294Y-97589456D01*
X146335573Y-97521756D01*
X146386711Y-97474146D01*
X146418024Y-97463413D01*
X146551997Y-97436764D01*
X146697679Y-97376421D01*
X146828789Y-97288816D01*
X146940289Y-97177316D01*
X147027894Y-97046206D01*
X147088237Y-96900524D01*
X147119000Y-96745869D01*
X147119000Y-96588185D01*
X147119000Y-96588182D01*
X147118999Y-96588180D01*
X147088238Y-96433537D01*
X147088237Y-96433530D01*
X147088235Y-96433525D01*
X147027897Y-96287854D01*
X147027890Y-96287841D01*
X146940289Y-96156738D01*
X146940286Y-96156734D01*
X146828792Y-96045240D01*
X146828788Y-96045237D01*
X146697685Y-95957636D01*
X146697672Y-95957629D01*
X146552001Y-95897291D01*
X146551989Y-95897288D01*
X146397345Y-95866527D01*
X146397342Y-95866527D01*
X146239658Y-95866527D01*
X146239655Y-95866527D01*
X146085010Y-95897288D01*
X146084998Y-95897291D01*
X145939327Y-95957629D01*
X145939314Y-95957636D01*
X145808211Y-96045237D01*
X145808207Y-96045240D01*
X145696713Y-96156734D01*
X145696710Y-96156738D01*
X145609109Y-96287841D01*
X145609102Y-96287854D01*
X145548764Y-96433525D01*
X145548761Y-96433537D01*
X145518000Y-96588180D01*
X145518000Y-96745873D01*
X145548761Y-96900516D01*
X145548764Y-96900528D01*
X145609102Y-97046199D01*
X145609109Y-97046212D01*
X145696710Y-97177315D01*
X145696713Y-97177319D01*
X145808207Y-97288813D01*
X145808211Y-97288816D01*
X145939314Y-97376417D01*
X145939327Y-97376424D01*
X146015921Y-97408150D01*
X146070325Y-97451991D01*
X146092390Y-97518285D01*
X146075111Y-97585984D01*
X146023974Y-97633595D01*
X145992661Y-97644328D01*
X145858693Y-97670976D01*
X145858683Y-97670979D01*
X145713012Y-97731317D01*
X145712999Y-97731324D01*
X145581896Y-97818925D01*
X145581892Y-97818928D01*
X145470398Y-97930422D01*
X145470395Y-97930426D01*
X145382794Y-98061529D01*
X145382787Y-98061542D01*
X145322449Y-98207213D01*
X145322446Y-98207225D01*
X145291685Y-98361868D01*
X144716564Y-98361868D01*
X144769737Y-98233497D01*
X144800500Y-98078842D01*
X144800500Y-97921158D01*
X144800500Y-97921155D01*
X144800499Y-97921153D01*
X144787443Y-97855516D01*
X144769737Y-97766503D01*
X144769735Y-97766498D01*
X144709397Y-97620827D01*
X144709390Y-97620814D01*
X144621789Y-97489711D01*
X144621786Y-97489707D01*
X144510292Y-97378213D01*
X144510288Y-97378210D01*
X144379185Y-97290609D01*
X144379172Y-97290602D01*
X144233501Y-97230264D01*
X144233489Y-97230261D01*
X144078845Y-97199500D01*
X144078842Y-97199500D01*
X143921158Y-97199500D01*
X143921155Y-97199500D01*
X143766510Y-97230261D01*
X143766498Y-97230264D01*
X143620827Y-97290602D01*
X143620814Y-97290609D01*
X143489711Y-97378210D01*
X143383862Y-97484059D01*
X143322539Y-97517543D01*
X143252847Y-97512559D01*
X143196914Y-97470687D01*
X143193079Y-97465268D01*
X143165550Y-97424069D01*
X143165547Y-97424065D01*
X143054053Y-97312571D01*
X143054049Y-97312568D01*
X142922946Y-97224967D01*
X142922933Y-97224960D01*
X142777262Y-97164622D01*
X142777250Y-97164619D01*
X142622606Y-97133858D01*
X142622603Y-97133858D01*
X142464919Y-97133858D01*
X142464916Y-97133858D01*
X142310271Y-97164619D01*
X142310259Y-97164622D01*
X142164588Y-97224960D01*
X142164575Y-97224967D01*
X142033472Y-97312568D01*
X142033468Y-97312571D01*
X141921974Y-97424065D01*
X141921971Y-97424069D01*
X141834370Y-97555172D01*
X141834363Y-97555185D01*
X141774025Y-97700856D01*
X141774022Y-97700866D01*
X141748670Y-97828317D01*
X141716285Y-97890228D01*
X141695944Y-97907227D01*
X141589711Y-97978210D01*
X141589707Y-97978213D01*
X141478213Y-98089707D01*
X141478210Y-98089711D01*
X141390609Y-98220814D01*
X141390602Y-98220827D01*
X141330264Y-98366498D01*
X141330261Y-98366510D01*
X141299500Y-98521153D01*
X138642798Y-98521153D01*
X138621789Y-98489711D01*
X138621786Y-98489707D01*
X138510292Y-98378213D01*
X138510288Y-98378210D01*
X138379185Y-98290609D01*
X138379172Y-98290602D01*
X138233501Y-98230264D01*
X138233489Y-98230261D01*
X138078845Y-98199500D01*
X138078842Y-98199500D01*
X137921158Y-98199500D01*
X137921155Y-98199500D01*
X137766510Y-98230261D01*
X137766498Y-98230264D01*
X137620827Y-98290602D01*
X137620814Y-98290609D01*
X137489711Y-98378210D01*
X137489707Y-98378213D01*
X137378213Y-98489707D01*
X137378210Y-98489711D01*
X137290609Y-98620814D01*
X137290602Y-98620827D01*
X137230264Y-98766498D01*
X137230261Y-98766510D01*
X137199500Y-98921153D01*
X114000500Y-98921153D01*
X114000500Y-94171153D01*
X132699500Y-94171153D01*
X132699500Y-94328846D01*
X132730261Y-94483489D01*
X132730264Y-94483501D01*
X132790602Y-94629172D01*
X132790609Y-94629185D01*
X132878210Y-94760288D01*
X132878213Y-94760292D01*
X132989707Y-94871786D01*
X132989711Y-94871789D01*
X133120814Y-94959390D01*
X133120827Y-94959397D01*
X133266498Y-95019735D01*
X133266503Y-95019737D01*
X133421153Y-95050499D01*
X133421156Y-95050500D01*
X133421158Y-95050500D01*
X133578844Y-95050500D01*
X133578845Y-95050499D01*
X133733497Y-95019737D01*
X133879179Y-94959394D01*
X134010289Y-94871789D01*
X134121789Y-94760289D01*
X134209394Y-94629179D01*
X134254139Y-94521153D01*
X144715127Y-94521153D01*
X144715127Y-94678846D01*
X144745888Y-94833489D01*
X144745891Y-94833501D01*
X144806229Y-94979172D01*
X144806236Y-94979185D01*
X144893837Y-95110288D01*
X144893840Y-95110292D01*
X145005334Y-95221786D01*
X145005338Y-95221789D01*
X145136441Y-95309390D01*
X145136454Y-95309397D01*
X145282125Y-95369735D01*
X145282130Y-95369737D01*
X145436780Y-95400499D01*
X145436783Y-95400500D01*
X145436785Y-95400500D01*
X145594471Y-95400500D01*
X145594472Y-95400499D01*
X145749124Y-95369737D01*
X145894806Y-95309394D01*
X146025916Y-95221789D01*
X146137416Y-95110289D01*
X146225021Y-94979179D01*
X146285364Y-94833497D01*
X146316127Y-94678842D01*
X146316127Y-94521158D01*
X146316127Y-94521155D01*
X146316126Y-94521153D01*
X146285364Y-94366503D01*
X146269765Y-94328844D01*
X146225024Y-94220827D01*
X146225017Y-94220814D01*
X146137416Y-94089711D01*
X146137413Y-94089707D01*
X146025919Y-93978213D01*
X146025915Y-93978210D01*
X145894812Y-93890609D01*
X145894799Y-93890602D01*
X145749128Y-93830264D01*
X145749116Y-93830261D01*
X145594472Y-93799500D01*
X145594469Y-93799500D01*
X145436785Y-93799500D01*
X145436782Y-93799500D01*
X145282137Y-93830261D01*
X145282125Y-93830264D01*
X145136454Y-93890602D01*
X145136441Y-93890609D01*
X145005338Y-93978210D01*
X145005334Y-93978213D01*
X144893840Y-94089707D01*
X144893837Y-94089711D01*
X144806236Y-94220814D01*
X144806229Y-94220827D01*
X144745891Y-94366498D01*
X144745888Y-94366510D01*
X144715127Y-94521153D01*
X134254139Y-94521153D01*
X134269737Y-94483497D01*
X134300500Y-94328842D01*
X134300500Y-94171158D01*
X134300500Y-94171155D01*
X134300499Y-94171153D01*
X134269738Y-94016510D01*
X134269737Y-94016503D01*
X134253876Y-93978210D01*
X134209397Y-93870827D01*
X134209390Y-93870814D01*
X134121789Y-93739711D01*
X134121786Y-93739707D01*
X134010292Y-93628213D01*
X134010288Y-93628210D01*
X133879185Y-93540609D01*
X133879172Y-93540602D01*
X133733501Y-93480264D01*
X133733489Y-93480261D01*
X133578845Y-93449500D01*
X133578842Y-93449500D01*
X133421158Y-93449500D01*
X133421155Y-93449500D01*
X133266510Y-93480261D01*
X133266498Y-93480264D01*
X133120827Y-93540602D01*
X133120814Y-93540609D01*
X132989711Y-93628210D01*
X132989707Y-93628213D01*
X132878213Y-93739707D01*
X132878210Y-93739711D01*
X132790609Y-93870814D01*
X132790602Y-93870827D01*
X132730264Y-94016498D01*
X132730261Y-94016510D01*
X132699500Y-94171153D01*
X114000500Y-94171153D01*
X114000500Y-91171153D01*
X132949500Y-91171153D01*
X132949500Y-91328846D01*
X132980261Y-91483489D01*
X132980264Y-91483501D01*
X133040602Y-91629172D01*
X133040609Y-91629185D01*
X133128210Y-91760288D01*
X133128213Y-91760292D01*
X133239707Y-91871786D01*
X133239711Y-91871789D01*
X133370814Y-91959390D01*
X133370827Y-91959397D01*
X133516498Y-92019735D01*
X133516503Y-92019737D01*
X133671153Y-92050499D01*
X133671156Y-92050500D01*
X133671158Y-92050500D01*
X133828844Y-92050500D01*
X133828845Y-92050499D01*
X133983497Y-92019737D01*
X134129179Y-91959394D01*
X134260289Y-91871789D01*
X134371789Y-91760289D01*
X134459394Y-91629179D01*
X134519737Y-91483497D01*
X134550500Y-91328842D01*
X134550500Y-91171158D01*
X134550500Y-91171155D01*
X134550499Y-91171153D01*
X134519738Y-91016510D01*
X134519737Y-91016503D01*
X134519735Y-91016498D01*
X134459397Y-90870827D01*
X134459390Y-90870814D01*
X134371789Y-90739711D01*
X134371786Y-90739707D01*
X134260292Y-90628213D01*
X134260288Y-90628210D01*
X134129185Y-90540609D01*
X134129172Y-90540602D01*
X133983501Y-90480264D01*
X133983489Y-90480261D01*
X133828845Y-90449500D01*
X133828842Y-90449500D01*
X133671158Y-90449500D01*
X133671155Y-90449500D01*
X133516510Y-90480261D01*
X133516498Y-90480264D01*
X133370827Y-90540602D01*
X133370814Y-90540609D01*
X133239711Y-90628210D01*
X133239707Y-90628213D01*
X133128213Y-90739707D01*
X133128210Y-90739711D01*
X133040609Y-90870814D01*
X133040602Y-90870827D01*
X132980264Y-91016498D01*
X132980261Y-91016510D01*
X132949500Y-91171153D01*
X114000500Y-91171153D01*
X114000500Y-86671153D01*
X125699500Y-86671153D01*
X125699500Y-86828846D01*
X125730261Y-86983489D01*
X125730264Y-86983501D01*
X125790602Y-87129172D01*
X125790609Y-87129185D01*
X125825304Y-87181109D01*
X125846182Y-87247786D01*
X125827698Y-87315167D01*
X125825304Y-87318891D01*
X125790609Y-87370814D01*
X125790602Y-87370827D01*
X125730264Y-87516498D01*
X125730261Y-87516510D01*
X125699500Y-87671153D01*
X125699500Y-87828846D01*
X125730261Y-87983489D01*
X125730264Y-87983501D01*
X125790602Y-88129172D01*
X125790609Y-88129185D01*
X125878210Y-88260288D01*
X125878213Y-88260292D01*
X125989707Y-88371786D01*
X125989711Y-88371789D01*
X126120814Y-88459390D01*
X126120827Y-88459397D01*
X126266498Y-88519735D01*
X126266503Y-88519737D01*
X126421153Y-88550499D01*
X126421156Y-88550500D01*
X126421158Y-88550500D01*
X126578844Y-88550500D01*
X126578845Y-88550499D01*
X126733497Y-88519737D01*
X126879179Y-88459394D01*
X127010289Y-88371789D01*
X127121789Y-88260289D01*
X127181348Y-88171153D01*
X132949500Y-88171153D01*
X132949500Y-88328846D01*
X132980261Y-88483489D01*
X132980264Y-88483501D01*
X133040602Y-88629172D01*
X133040609Y-88629185D01*
X133128210Y-88760288D01*
X133128213Y-88760292D01*
X133239707Y-88871786D01*
X133239711Y-88871789D01*
X133370814Y-88959390D01*
X133370827Y-88959397D01*
X133516498Y-89019735D01*
X133516503Y-89019737D01*
X133671153Y-89050499D01*
X133671156Y-89050500D01*
X133671158Y-89050500D01*
X133828844Y-89050500D01*
X133828845Y-89050499D01*
X133983497Y-89019737D01*
X134129179Y-88959394D01*
X134260289Y-88871789D01*
X134371789Y-88760289D01*
X134459394Y-88629179D01*
X134519737Y-88483497D01*
X134550500Y-88328842D01*
X134550500Y-88171158D01*
X134550500Y-88171155D01*
X134550499Y-88171153D01*
X134519738Y-88016510D01*
X134519737Y-88016503D01*
X134506062Y-87983489D01*
X134459397Y-87870827D01*
X134459390Y-87870814D01*
X134371789Y-87739711D01*
X134371786Y-87739707D01*
X134260292Y-87628213D01*
X134260288Y-87628210D01*
X134129185Y-87540609D01*
X134129172Y-87540602D01*
X133983501Y-87480264D01*
X133983489Y-87480261D01*
X133828845Y-87449500D01*
X133828842Y-87449500D01*
X133671158Y-87449500D01*
X133671155Y-87449500D01*
X133516510Y-87480261D01*
X133516498Y-87480264D01*
X133370827Y-87540602D01*
X133370814Y-87540609D01*
X133239711Y-87628210D01*
X133239707Y-87628213D01*
X133128213Y-87739707D01*
X133128210Y-87739711D01*
X133040609Y-87870814D01*
X133040602Y-87870827D01*
X132980264Y-88016498D01*
X132980261Y-88016510D01*
X132949500Y-88171153D01*
X127181348Y-88171153D01*
X127209394Y-88129179D01*
X127269737Y-87983497D01*
X127300500Y-87828842D01*
X127300500Y-87671158D01*
X127300500Y-87671155D01*
X127300499Y-87671153D01*
X127274531Y-87540606D01*
X127269737Y-87516503D01*
X127269735Y-87516498D01*
X127209396Y-87370825D01*
X127209394Y-87370822D01*
X127209394Y-87370821D01*
X127174694Y-87318889D01*
X127153816Y-87252215D01*
X127172300Y-87184835D01*
X127174676Y-87181136D01*
X127209394Y-87129179D01*
X127269737Y-86983497D01*
X127300500Y-86828842D01*
X127300500Y-86671158D01*
X127300500Y-86671155D01*
X127300499Y-86671153D01*
X127269738Y-86516510D01*
X127269737Y-86516503D01*
X127269735Y-86516498D01*
X127209397Y-86370827D01*
X127209390Y-86370814D01*
X127121789Y-86239711D01*
X127121786Y-86239707D01*
X127010292Y-86128213D01*
X127010288Y-86128210D01*
X126879185Y-86040609D01*
X126879172Y-86040602D01*
X126733501Y-85980264D01*
X126733489Y-85980261D01*
X126578845Y-85949500D01*
X126578842Y-85949500D01*
X126421158Y-85949500D01*
X126421155Y-85949500D01*
X126266510Y-85980261D01*
X126266498Y-85980264D01*
X126120827Y-86040602D01*
X126120814Y-86040609D01*
X125989711Y-86128210D01*
X125989707Y-86128213D01*
X125878213Y-86239707D01*
X125878210Y-86239711D01*
X125790609Y-86370814D01*
X125790602Y-86370827D01*
X125730264Y-86516498D01*
X125730261Y-86516510D01*
X125699500Y-86671153D01*
X114000500Y-86671153D01*
X114000500Y-82171153D01*
X128699500Y-82171153D01*
X128699500Y-82328846D01*
X128730261Y-82483489D01*
X128730264Y-82483501D01*
X128790602Y-82629172D01*
X128790609Y-82629185D01*
X128878210Y-82760288D01*
X128878213Y-82760292D01*
X128989707Y-82871786D01*
X128989711Y-82871789D01*
X129120814Y-82959390D01*
X129120827Y-82959397D01*
X129266498Y-83019735D01*
X129266503Y-83019737D01*
X129421153Y-83050499D01*
X129421156Y-83050500D01*
X129421158Y-83050500D01*
X129578844Y-83050500D01*
X129578845Y-83050499D01*
X129733497Y-83019737D01*
X129879179Y-82959394D01*
X130010289Y-82871789D01*
X130121789Y-82760289D01*
X130181348Y-82671153D01*
X136949500Y-82671153D01*
X136949500Y-82828846D01*
X136980261Y-82983489D01*
X136980264Y-82983501D01*
X137040602Y-83129172D01*
X137040609Y-83129185D01*
X137128210Y-83260288D01*
X137128213Y-83260292D01*
X137239707Y-83371786D01*
X137239711Y-83371789D01*
X137370814Y-83459390D01*
X137370827Y-83459397D01*
X137516498Y-83519735D01*
X137516503Y-83519737D01*
X137671153Y-83550499D01*
X137671156Y-83550500D01*
X137671158Y-83550500D01*
X137828844Y-83550500D01*
X137828845Y-83550499D01*
X137983497Y-83519737D01*
X138129179Y-83459394D01*
X138260289Y-83371789D01*
X138371789Y-83260289D01*
X138459394Y-83129179D01*
X138519737Y-82983497D01*
X138550500Y-82828842D01*
X138550500Y-82671158D01*
X138550500Y-82671155D01*
X138550499Y-82671153D01*
X138519738Y-82516510D01*
X138519737Y-82516503D01*
X138506062Y-82483489D01*
X138459397Y-82370827D01*
X138459390Y-82370814D01*
X138371789Y-82239711D01*
X138371786Y-82239707D01*
X138260292Y-82128213D01*
X138260288Y-82128210D01*
X138129185Y-82040609D01*
X138129172Y-82040602D01*
X137983501Y-81980264D01*
X137983489Y-81980261D01*
X137828845Y-81949500D01*
X137828842Y-81949500D01*
X137671158Y-81949500D01*
X137671155Y-81949500D01*
X137516510Y-81980261D01*
X137516498Y-81980264D01*
X137370827Y-82040602D01*
X137370814Y-82040609D01*
X137239711Y-82128210D01*
X137239707Y-82128213D01*
X137128213Y-82239707D01*
X137128210Y-82239711D01*
X137040609Y-82370814D01*
X137040602Y-82370827D01*
X136980264Y-82516498D01*
X136980261Y-82516510D01*
X136949500Y-82671153D01*
X130181348Y-82671153D01*
X130209394Y-82629179D01*
X130269737Y-82483497D01*
X130300500Y-82328842D01*
X130300500Y-82171158D01*
X130300500Y-82171155D01*
X130300499Y-82171153D01*
X130274531Y-82040606D01*
X130269737Y-82016503D01*
X130269735Y-82016498D01*
X130209397Y-81870827D01*
X130209390Y-81870814D01*
X130121789Y-81739711D01*
X130121786Y-81739707D01*
X130010292Y-81628213D01*
X130010288Y-81628210D01*
X129879185Y-81540609D01*
X129879172Y-81540602D01*
X129733501Y-81480264D01*
X129733489Y-81480261D01*
X129578845Y-81449500D01*
X129578842Y-81449500D01*
X129421158Y-81449500D01*
X129421155Y-81449500D01*
X129266510Y-81480261D01*
X129266498Y-81480264D01*
X129120827Y-81540602D01*
X129120814Y-81540609D01*
X128989711Y-81628210D01*
X128989707Y-81628213D01*
X128878213Y-81739707D01*
X128878210Y-81739711D01*
X128790609Y-81870814D01*
X128790602Y-81870827D01*
X128730264Y-82016498D01*
X128730261Y-82016510D01*
X128699500Y-82171153D01*
X114000500Y-82171153D01*
X114000500Y-81171153D01*
X133699500Y-81171153D01*
X133699500Y-81328846D01*
X133730261Y-81483489D01*
X133730264Y-81483501D01*
X133790602Y-81629172D01*
X133790609Y-81629185D01*
X133878210Y-81760288D01*
X133878213Y-81760292D01*
X133989707Y-81871786D01*
X133989711Y-81871789D01*
X134120814Y-81959390D01*
X134120827Y-81959397D01*
X134258683Y-82016498D01*
X134266503Y-82019737D01*
X134421153Y-82050499D01*
X134421156Y-82050500D01*
X134421158Y-82050500D01*
X134578844Y-82050500D01*
X134578845Y-82050499D01*
X134733497Y-82019737D01*
X134879179Y-81959394D01*
X135010289Y-81871789D01*
X135121789Y-81760289D01*
X135209394Y-81629179D01*
X135269737Y-81483497D01*
X135300500Y-81328842D01*
X135300500Y-81171158D01*
X135300500Y-81171155D01*
X135300499Y-81171153D01*
X135269738Y-81016510D01*
X135269737Y-81016503D01*
X135269735Y-81016498D01*
X135209397Y-80870827D01*
X135209390Y-80870814D01*
X135121789Y-80739711D01*
X135121786Y-80739707D01*
X135010292Y-80628213D01*
X135010288Y-80628210D01*
X134879185Y-80540609D01*
X134879172Y-80540602D01*
X134733501Y-80480264D01*
X134733489Y-80480261D01*
X134578845Y-80449500D01*
X134578842Y-80449500D01*
X134421158Y-80449500D01*
X134421155Y-80449500D01*
X134266510Y-80480261D01*
X134266498Y-80480264D01*
X134120827Y-80540602D01*
X134120814Y-80540609D01*
X133989711Y-80628210D01*
X133989707Y-80628213D01*
X133878213Y-80739707D01*
X133878210Y-80739711D01*
X133790609Y-80870814D01*
X133790602Y-80870827D01*
X133730264Y-81016498D01*
X133730261Y-81016510D01*
X133699500Y-81171153D01*
X114000500Y-81171153D01*
X114000500Y-78921153D01*
X147699500Y-78921153D01*
X147699500Y-79078846D01*
X147730261Y-79233489D01*
X147730264Y-79233501D01*
X147790602Y-79379172D01*
X147790609Y-79379185D01*
X147878210Y-79510288D01*
X147878213Y-79510292D01*
X147989707Y-79621786D01*
X147989711Y-79621789D01*
X148120814Y-79709390D01*
X148120827Y-79709397D01*
X148266498Y-79769735D01*
X148266503Y-79769737D01*
X148421153Y-79800499D01*
X148421156Y-79800500D01*
X148421158Y-79800500D01*
X148578844Y-79800500D01*
X148578845Y-79800499D01*
X148733497Y-79769737D01*
X148879179Y-79709394D01*
X149010289Y-79621789D01*
X149121789Y-79510289D01*
X149209394Y-79379179D01*
X149269737Y-79233497D01*
X149300500Y-79078842D01*
X149300500Y-78921158D01*
X149300500Y-78921155D01*
X149300499Y-78921153D01*
X149269738Y-78766510D01*
X149269737Y-78766503D01*
X149269735Y-78766498D01*
X149209397Y-78620827D01*
X149209390Y-78620814D01*
X149121789Y-78489711D01*
X149121786Y-78489707D01*
X149010292Y-78378213D01*
X149010288Y-78378210D01*
X148879185Y-78290609D01*
X148879172Y-78290602D01*
X148733501Y-78230264D01*
X148733489Y-78230261D01*
X148578845Y-78199500D01*
X148578842Y-78199500D01*
X148421158Y-78199500D01*
X148421155Y-78199500D01*
X148266510Y-78230261D01*
X148266498Y-78230264D01*
X148120827Y-78290602D01*
X148120814Y-78290609D01*
X147989711Y-78378210D01*
X147989707Y-78378213D01*
X147878213Y-78489707D01*
X147878210Y-78489711D01*
X147790609Y-78620814D01*
X147790602Y-78620827D01*
X147730264Y-78766498D01*
X147730261Y-78766510D01*
X147699500Y-78921153D01*
X114000500Y-78921153D01*
X114000500Y-64507155D01*
X140045000Y-64507155D01*
X140045000Y-65280000D01*
X140919999Y-65280000D01*
X140894979Y-65340402D01*
X140870000Y-65465981D01*
X140870000Y-65594019D01*
X140894979Y-65719598D01*
X140919999Y-65780000D01*
X140045000Y-65780000D01*
X140045000Y-66552844D01*
X140051401Y-66612372D01*
X140051403Y-66612379D01*
X140101645Y-66747086D01*
X140101649Y-66747093D01*
X140187809Y-66862187D01*
X140187812Y-66862190D01*
X140302906Y-66948350D01*
X140302913Y-66948354D01*
X140437620Y-66998596D01*
X140437627Y-66998598D01*
X140497155Y-67004999D01*
X140497172Y-67005000D01*
X141270000Y-67005000D01*
X141270000Y-66130001D01*
X141330402Y-66155021D01*
X141455981Y-66180000D01*
X141584019Y-66180000D01*
X141709598Y-66155021D01*
X141770000Y-66130001D01*
X141770000Y-67005000D01*
X142542828Y-67005000D01*
X142542844Y-67004999D01*
X142602372Y-66998598D01*
X142602379Y-66998596D01*
X142737086Y-66948354D01*
X142737093Y-66948350D01*
X142852187Y-66862190D01*
X142852190Y-66862187D01*
X142938351Y-66747092D01*
X142940780Y-66742644D01*
X142990183Y-66693236D01*
X143058455Y-66678380D01*
X143122498Y-66701746D01*
X143246669Y-66791961D01*
X143344436Y-66841776D01*
X143453599Y-66897398D01*
X143453601Y-66897398D01*
X143453604Y-66897400D01*
X143674486Y-66969169D01*
X143792668Y-66987886D01*
X143903871Y-67005500D01*
X143903876Y-67005500D01*
X144136129Y-67005500D01*
X144237502Y-66989443D01*
X144365514Y-66969169D01*
X144586396Y-66897400D01*
X144793331Y-66791961D01*
X144981224Y-66655449D01*
X145145449Y-66491224D01*
X145169681Y-66457871D01*
X145225010Y-66415205D01*
X145294623Y-66409224D01*
X145356418Y-66441829D01*
X145370320Y-66457872D01*
X145394549Y-66491222D01*
X145394551Y-66491224D01*
X145558776Y-66655449D01*
X145746669Y-66791961D01*
X145844436Y-66841776D01*
X145953599Y-66897398D01*
X145953601Y-66897398D01*
X145953604Y-66897400D01*
X146174486Y-66969169D01*
X146292668Y-66987886D01*
X146403871Y-67005500D01*
X146403876Y-67005500D01*
X146636129Y-67005500D01*
X146737502Y-66989443D01*
X146865514Y-66969169D01*
X147086396Y-66897400D01*
X147293331Y-66791961D01*
X147481224Y-66655449D01*
X147645449Y-66491224D01*
X147669681Y-66457871D01*
X147725010Y-66415205D01*
X147794623Y-66409224D01*
X147856418Y-66441829D01*
X147870320Y-66457872D01*
X147894549Y-66491222D01*
X147894551Y-66491224D01*
X148058776Y-66655449D01*
X148246669Y-66791961D01*
X148344436Y-66841776D01*
X148453599Y-66897398D01*
X148453601Y-66897398D01*
X148453604Y-66897400D01*
X148674486Y-66969169D01*
X148792668Y-66987886D01*
X148903871Y-67005500D01*
X148903876Y-67005500D01*
X149136129Y-67005500D01*
X149237502Y-66989443D01*
X149365514Y-66969169D01*
X149586396Y-66897400D01*
X149793331Y-66791961D01*
X149981224Y-66655449D01*
X150145449Y-66491224D01*
X150169681Y-66457871D01*
X150225010Y-66415205D01*
X150294623Y-66409224D01*
X150356418Y-66441829D01*
X150370320Y-66457872D01*
X150394549Y-66491222D01*
X150394551Y-66491224D01*
X150558776Y-66655449D01*
X150746669Y-66791961D01*
X150844436Y-66841776D01*
X150953599Y-66897398D01*
X150953601Y-66897398D01*
X150953604Y-66897400D01*
X151174486Y-66969169D01*
X151292668Y-66987886D01*
X151403871Y-67005500D01*
X151403876Y-67005500D01*
X151636129Y-67005500D01*
X151737502Y-66989443D01*
X151865514Y-66969169D01*
X152086396Y-66897400D01*
X152293331Y-66791961D01*
X152481224Y-66655449D01*
X152645449Y-66491224D01*
X152669681Y-66457871D01*
X152725010Y-66415205D01*
X152794623Y-66409224D01*
X152856418Y-66441829D01*
X152870320Y-66457872D01*
X152894549Y-66491222D01*
X152894551Y-66491224D01*
X153058776Y-66655449D01*
X153246669Y-66791961D01*
X153344436Y-66841776D01*
X153453599Y-66897398D01*
X153453601Y-66897398D01*
X153453604Y-66897400D01*
X153674486Y-66969169D01*
X153792668Y-66987886D01*
X153903871Y-67005500D01*
X153903876Y-67005500D01*
X154136129Y-67005500D01*
X154237502Y-66989443D01*
X154365514Y-66969169D01*
X154586396Y-66897400D01*
X154793331Y-66791961D01*
X154981224Y-66655449D01*
X155145449Y-66491224D01*
X155169681Y-66457871D01*
X155225010Y-66415205D01*
X155294623Y-66409224D01*
X155356418Y-66441829D01*
X155370320Y-66457872D01*
X155394549Y-66491222D01*
X155394551Y-66491224D01*
X155558776Y-66655449D01*
X155746669Y-66791961D01*
X155844436Y-66841776D01*
X155953599Y-66897398D01*
X155953601Y-66897398D01*
X155953604Y-66897400D01*
X156174486Y-66969169D01*
X156292668Y-66987886D01*
X156403871Y-67005500D01*
X156403876Y-67005500D01*
X156636129Y-67005500D01*
X156737502Y-66989443D01*
X156865514Y-66969169D01*
X157086396Y-66897400D01*
X157293331Y-66791961D01*
X157481224Y-66655449D01*
X157645449Y-66491224D01*
X157669681Y-66457871D01*
X157725010Y-66415205D01*
X157794623Y-66409224D01*
X157856418Y-66441829D01*
X157870320Y-66457872D01*
X157894549Y-66491222D01*
X157894551Y-66491224D01*
X158058776Y-66655449D01*
X158246669Y-66791961D01*
X158344436Y-66841776D01*
X158453599Y-66897398D01*
X158453601Y-66897398D01*
X158453604Y-66897400D01*
X158674486Y-66969169D01*
X158792668Y-66987886D01*
X158903871Y-67005500D01*
X158903876Y-67005500D01*
X159136129Y-67005500D01*
X159237502Y-66989443D01*
X159365514Y-66969169D01*
X159586396Y-66897400D01*
X159793331Y-66791961D01*
X159981224Y-66655449D01*
X160145449Y-66491224D01*
X160169681Y-66457871D01*
X160225010Y-66415205D01*
X160294623Y-66409224D01*
X160356418Y-66441829D01*
X160370320Y-66457872D01*
X160394549Y-66491222D01*
X160394551Y-66491224D01*
X160558776Y-66655449D01*
X160746669Y-66791961D01*
X160844436Y-66841776D01*
X160953599Y-66897398D01*
X160953601Y-66897398D01*
X160953604Y-66897400D01*
X161174486Y-66969169D01*
X161292668Y-66987886D01*
X161403871Y-67005500D01*
X161403876Y-67005500D01*
X161636129Y-67005500D01*
X161737502Y-66989443D01*
X161865514Y-66969169D01*
X162086396Y-66897400D01*
X162293331Y-66791961D01*
X162481224Y-66655449D01*
X162645449Y-66491224D01*
X162669681Y-66457871D01*
X162725010Y-66415205D01*
X162794623Y-66409224D01*
X162856418Y-66441829D01*
X162870320Y-66457872D01*
X162894549Y-66491222D01*
X162894551Y-66491224D01*
X163058776Y-66655449D01*
X163246669Y-66791961D01*
X163344436Y-66841776D01*
X163453599Y-66897398D01*
X163453601Y-66897398D01*
X163453604Y-66897400D01*
X163674486Y-66969169D01*
X163792668Y-66987886D01*
X163903871Y-67005500D01*
X163903876Y-67005500D01*
X164136129Y-67005500D01*
X164237502Y-66989443D01*
X164365514Y-66969169D01*
X164586396Y-66897400D01*
X164793331Y-66791961D01*
X164981224Y-66655449D01*
X165145449Y-66491224D01*
X165169681Y-66457871D01*
X165225010Y-66415205D01*
X165294623Y-66409224D01*
X165356418Y-66441829D01*
X165370320Y-66457872D01*
X165394549Y-66491222D01*
X165394551Y-66491224D01*
X165558776Y-66655449D01*
X165746669Y-66791961D01*
X165844436Y-66841776D01*
X165953599Y-66897398D01*
X165953601Y-66897398D01*
X165953604Y-66897400D01*
X166174486Y-66969169D01*
X166292668Y-66987886D01*
X166403871Y-67005500D01*
X166403876Y-67005500D01*
X166636129Y-67005500D01*
X166737502Y-66989443D01*
X166865514Y-66969169D01*
X167086396Y-66897400D01*
X167293331Y-66791961D01*
X167481224Y-66655449D01*
X167645449Y-66491224D01*
X167669681Y-66457871D01*
X167725010Y-66415205D01*
X167794623Y-66409224D01*
X167856418Y-66441829D01*
X167870320Y-66457872D01*
X167894549Y-66491222D01*
X167894551Y-66491224D01*
X168058776Y-66655449D01*
X168246669Y-66791961D01*
X168344436Y-66841776D01*
X168453599Y-66897398D01*
X168453601Y-66897398D01*
X168453604Y-66897400D01*
X168674486Y-66969169D01*
X168792668Y-66987886D01*
X168903871Y-67005500D01*
X168903876Y-67005500D01*
X169136129Y-67005500D01*
X169237502Y-66989443D01*
X169365514Y-66969169D01*
X169586396Y-66897400D01*
X169793331Y-66791961D01*
X169981224Y-66655449D01*
X170145449Y-66491224D01*
X170281961Y-66303331D01*
X170387400Y-66096396D01*
X170459169Y-65875514D01*
X170483863Y-65719598D01*
X170495500Y-65646129D01*
X170495500Y-65413870D01*
X170472671Y-65269735D01*
X170459169Y-65184486D01*
X170387400Y-64963604D01*
X170387398Y-64963601D01*
X170387398Y-64963599D01*
X170281960Y-64756668D01*
X170265128Y-64733501D01*
X170145449Y-64568776D01*
X169997826Y-64421153D01*
X172699500Y-64421153D01*
X172699500Y-64578846D01*
X172730261Y-64733489D01*
X172730264Y-64733501D01*
X172790602Y-64879172D01*
X172790609Y-64879185D01*
X172878210Y-65010288D01*
X172878213Y-65010292D01*
X172989707Y-65121786D01*
X172989711Y-65121789D01*
X173120814Y-65209390D01*
X173120827Y-65209397D01*
X173266498Y-65269735D01*
X173266503Y-65269737D01*
X173421153Y-65300499D01*
X173421156Y-65300500D01*
X173421158Y-65300500D01*
X173578844Y-65300500D01*
X173578845Y-65300499D01*
X173733497Y-65269737D01*
X173879179Y-65209394D01*
X174010289Y-65121789D01*
X174121789Y-65010289D01*
X174209394Y-64879179D01*
X174269737Y-64733497D01*
X174300500Y-64578842D01*
X174300500Y-64421158D01*
X174300500Y-64421155D01*
X174300499Y-64421153D01*
X174287987Y-64358252D01*
X174269737Y-64266503D01*
X174269735Y-64266498D01*
X174209397Y-64120827D01*
X174209390Y-64120814D01*
X174121789Y-63989711D01*
X174121786Y-63989707D01*
X174010292Y-63878213D01*
X174010288Y-63878210D01*
X173879185Y-63790609D01*
X173879172Y-63790602D01*
X173733501Y-63730264D01*
X173733489Y-63730261D01*
X173578845Y-63699500D01*
X173578842Y-63699500D01*
X173421158Y-63699500D01*
X173421155Y-63699500D01*
X173266510Y-63730261D01*
X173266498Y-63730264D01*
X173120827Y-63790602D01*
X173120814Y-63790609D01*
X172989711Y-63878210D01*
X172989707Y-63878213D01*
X172878213Y-63989707D01*
X172878210Y-63989711D01*
X172790609Y-64120814D01*
X172790602Y-64120827D01*
X172730264Y-64266498D01*
X172730261Y-64266510D01*
X172699500Y-64421153D01*
X169997826Y-64421153D01*
X169981224Y-64404551D01*
X169793331Y-64268039D01*
X169790307Y-64266498D01*
X169586400Y-64162601D01*
X169365514Y-64090831D01*
X169136129Y-64054500D01*
X169136124Y-64054500D01*
X168903876Y-64054500D01*
X168903871Y-64054500D01*
X168674485Y-64090831D01*
X168453599Y-64162601D01*
X168246668Y-64268039D01*
X168058773Y-64404553D01*
X167894553Y-64568773D01*
X167894546Y-64568782D01*
X167870317Y-64602130D01*
X167814987Y-64644796D01*
X167745374Y-64650774D01*
X167683579Y-64618167D01*
X167669683Y-64602130D01*
X167645453Y-64568782D01*
X167645449Y-64568776D01*
X167481224Y-64404551D01*
X167293331Y-64268039D01*
X167290307Y-64266498D01*
X167086400Y-64162601D01*
X166865514Y-64090831D01*
X166636129Y-64054500D01*
X166636124Y-64054500D01*
X166403876Y-64054500D01*
X166403871Y-64054500D01*
X166174485Y-64090831D01*
X165953599Y-64162601D01*
X165746668Y-64268039D01*
X165558773Y-64404553D01*
X165394553Y-64568773D01*
X165394546Y-64568782D01*
X165370317Y-64602130D01*
X165314987Y-64644796D01*
X165245374Y-64650774D01*
X165183579Y-64618167D01*
X165169683Y-64602130D01*
X165145453Y-64568782D01*
X165145449Y-64568776D01*
X164981224Y-64404551D01*
X164793331Y-64268039D01*
X164790307Y-64266498D01*
X164586400Y-64162601D01*
X164365514Y-64090831D01*
X164136129Y-64054500D01*
X164136124Y-64054500D01*
X163903876Y-64054500D01*
X163903871Y-64054500D01*
X163674485Y-64090831D01*
X163453599Y-64162601D01*
X163246668Y-64268039D01*
X163058773Y-64404553D01*
X162894553Y-64568773D01*
X162894546Y-64568782D01*
X162870317Y-64602130D01*
X162814987Y-64644796D01*
X162745374Y-64650774D01*
X162683579Y-64618167D01*
X162669683Y-64602130D01*
X162645453Y-64568782D01*
X162645449Y-64568776D01*
X162481224Y-64404551D01*
X162293331Y-64268039D01*
X162290307Y-64266498D01*
X162086400Y-64162601D01*
X161865514Y-64090831D01*
X161636129Y-64054500D01*
X161636124Y-64054500D01*
X161403876Y-64054500D01*
X161403871Y-64054500D01*
X161174485Y-64090831D01*
X160953599Y-64162601D01*
X160746668Y-64268039D01*
X160558773Y-64404553D01*
X160394553Y-64568773D01*
X160394546Y-64568782D01*
X160370317Y-64602130D01*
X160314987Y-64644796D01*
X160245374Y-64650774D01*
X160183579Y-64618167D01*
X160169683Y-64602130D01*
X160145453Y-64568782D01*
X160145449Y-64568776D01*
X159981224Y-64404551D01*
X159793331Y-64268039D01*
X159790307Y-64266498D01*
X159586400Y-64162601D01*
X159365514Y-64090831D01*
X159136129Y-64054500D01*
X159136124Y-64054500D01*
X158903876Y-64054500D01*
X158903871Y-64054500D01*
X158674485Y-64090831D01*
X158453599Y-64162601D01*
X158246668Y-64268039D01*
X158058773Y-64404553D01*
X157894553Y-64568773D01*
X157894546Y-64568782D01*
X157870317Y-64602130D01*
X157814987Y-64644796D01*
X157745374Y-64650774D01*
X157683579Y-64618167D01*
X157669683Y-64602130D01*
X157645453Y-64568782D01*
X157645449Y-64568776D01*
X157481224Y-64404551D01*
X157293331Y-64268039D01*
X157290307Y-64266498D01*
X157086400Y-64162601D01*
X156865514Y-64090831D01*
X156636129Y-64054500D01*
X156636124Y-64054500D01*
X156403876Y-64054500D01*
X156403871Y-64054500D01*
X156174485Y-64090831D01*
X155953599Y-64162601D01*
X155746668Y-64268039D01*
X155558773Y-64404553D01*
X155394553Y-64568773D01*
X155394546Y-64568782D01*
X155370317Y-64602130D01*
X155314987Y-64644796D01*
X155245374Y-64650774D01*
X155183579Y-64618167D01*
X155169683Y-64602130D01*
X155145453Y-64568782D01*
X155145449Y-64568776D01*
X154981224Y-64404551D01*
X154793331Y-64268039D01*
X154790307Y-64266498D01*
X154586400Y-64162601D01*
X154365514Y-64090831D01*
X154136129Y-64054500D01*
X154136124Y-64054500D01*
X153903876Y-64054500D01*
X153903871Y-64054500D01*
X153674485Y-64090831D01*
X153453599Y-64162601D01*
X153246668Y-64268039D01*
X153058773Y-64404553D01*
X152894553Y-64568773D01*
X152894546Y-64568782D01*
X152870317Y-64602130D01*
X152814987Y-64644796D01*
X152745374Y-64650774D01*
X152683579Y-64618167D01*
X152669683Y-64602130D01*
X152645453Y-64568782D01*
X152645449Y-64568776D01*
X152481224Y-64404551D01*
X152293331Y-64268039D01*
X152290307Y-64266498D01*
X152086400Y-64162601D01*
X151865514Y-64090831D01*
X151636129Y-64054500D01*
X151636124Y-64054500D01*
X151403876Y-64054500D01*
X151403871Y-64054500D01*
X151174485Y-64090831D01*
X150953599Y-64162601D01*
X150746668Y-64268039D01*
X150558773Y-64404553D01*
X150394553Y-64568773D01*
X150394546Y-64568782D01*
X150370317Y-64602130D01*
X150314987Y-64644796D01*
X150245374Y-64650774D01*
X150183579Y-64618167D01*
X150169683Y-64602130D01*
X150145453Y-64568782D01*
X150145449Y-64568776D01*
X149981224Y-64404551D01*
X149793331Y-64268039D01*
X149790307Y-64266498D01*
X149586400Y-64162601D01*
X149365514Y-64090831D01*
X149136129Y-64054500D01*
X149136124Y-64054500D01*
X148903876Y-64054500D01*
X148903871Y-64054500D01*
X148674485Y-64090831D01*
X148453599Y-64162601D01*
X148246668Y-64268039D01*
X148058773Y-64404553D01*
X147894553Y-64568773D01*
X147894546Y-64568782D01*
X147870317Y-64602130D01*
X147814987Y-64644796D01*
X147745374Y-64650774D01*
X147683579Y-64618167D01*
X147669683Y-64602130D01*
X147645453Y-64568782D01*
X147645449Y-64568776D01*
X147481224Y-64404551D01*
X147293331Y-64268039D01*
X147290307Y-64266498D01*
X147086400Y-64162601D01*
X146865514Y-64090831D01*
X146636129Y-64054500D01*
X146636124Y-64054500D01*
X146403876Y-64054500D01*
X146403871Y-64054500D01*
X146174485Y-64090831D01*
X145953599Y-64162601D01*
X145746668Y-64268039D01*
X145558773Y-64404553D01*
X145394553Y-64568773D01*
X145394546Y-64568782D01*
X145370317Y-64602130D01*
X145314987Y-64644796D01*
X145245374Y-64650774D01*
X145183579Y-64618167D01*
X145169683Y-64602130D01*
X145145453Y-64568782D01*
X145145449Y-64568776D01*
X144981224Y-64404551D01*
X144793331Y-64268039D01*
X144790307Y-64266498D01*
X144586400Y-64162601D01*
X144365514Y-64090831D01*
X144136129Y-64054500D01*
X144136124Y-64054500D01*
X143903876Y-64054500D01*
X143903871Y-64054500D01*
X143674485Y-64090831D01*
X143453599Y-64162601D01*
X143246669Y-64268038D01*
X143122500Y-64358252D01*
X143056693Y-64381731D01*
X142988639Y-64365905D01*
X142940784Y-64317362D01*
X142938352Y-64312908D01*
X142852190Y-64197812D01*
X142852187Y-64197809D01*
X142737093Y-64111649D01*
X142737086Y-64111645D01*
X142602379Y-64061403D01*
X142602372Y-64061401D01*
X142542844Y-64055000D01*
X141770000Y-64055000D01*
X141770000Y-64929998D01*
X141709598Y-64904979D01*
X141584019Y-64880000D01*
X141455981Y-64880000D01*
X141330402Y-64904979D01*
X141270000Y-64929998D01*
X141270000Y-64055000D01*
X140497155Y-64055000D01*
X140437627Y-64061401D01*
X140437620Y-64061403D01*
X140302913Y-64111645D01*
X140302906Y-64111649D01*
X140187812Y-64197809D01*
X140187809Y-64197812D01*
X140101649Y-64312906D01*
X140101645Y-64312913D01*
X140051403Y-64447620D01*
X140051401Y-64447627D01*
X140045000Y-64507155D01*
X114000500Y-64507155D01*
X114000500Y-60893713D01*
X116149500Y-60893713D01*
X116149500Y-61106287D01*
X116182754Y-61316243D01*
X116193892Y-61350523D01*
X116248444Y-61518414D01*
X116344951Y-61707820D01*
X116469890Y-61879786D01*
X116620213Y-62030109D01*
X116792179Y-62155048D01*
X116792181Y-62155049D01*
X116792184Y-62155051D01*
X116981588Y-62251557D01*
X117183757Y-62317246D01*
X117393713Y-62350500D01*
X117393714Y-62350500D01*
X117606286Y-62350500D01*
X117606287Y-62350500D01*
X117816243Y-62317246D01*
X118018412Y-62251557D01*
X118207816Y-62155051D01*
X118229789Y-62139086D01*
X118379786Y-62030109D01*
X118379788Y-62030106D01*
X118379792Y-62030104D01*
X118530104Y-61879792D01*
X118530106Y-61879788D01*
X118530109Y-61879786D01*
X118655048Y-61707820D01*
X118655047Y-61707820D01*
X118655051Y-61707816D01*
X118751557Y-61518412D01*
X118792074Y-61393713D01*
X192149500Y-61393713D01*
X192149500Y-61606287D01*
X192182754Y-61816243D01*
X192203402Y-61879792D01*
X192248444Y-62018414D01*
X192344951Y-62207820D01*
X192469890Y-62379786D01*
X192620213Y-62530109D01*
X192792179Y-62655048D01*
X192792181Y-62655049D01*
X192792184Y-62655051D01*
X192981588Y-62751557D01*
X193183757Y-62817246D01*
X193393713Y-62850500D01*
X193393714Y-62850500D01*
X193606286Y-62850500D01*
X193606287Y-62850500D01*
X193816243Y-62817246D01*
X194018412Y-62751557D01*
X194207816Y-62655051D01*
X194229789Y-62639086D01*
X194379786Y-62530109D01*
X194379788Y-62530106D01*
X194379792Y-62530104D01*
X194530104Y-62379792D01*
X194530106Y-62379788D01*
X194530109Y-62379786D01*
X194655048Y-62207820D01*
X194655047Y-62207820D01*
X194655051Y-62207816D01*
X194751557Y-62018412D01*
X194817246Y-61816243D01*
X194850500Y-61606287D01*
X194850500Y-61393713D01*
X194817246Y-61183757D01*
X194751557Y-60981588D01*
X194655051Y-60792184D01*
X194655049Y-60792181D01*
X194655048Y-60792179D01*
X194530109Y-60620213D01*
X194379786Y-60469890D01*
X194207820Y-60344951D01*
X194018414Y-60248444D01*
X194018413Y-60248443D01*
X194018412Y-60248443D01*
X193816243Y-60182754D01*
X193816241Y-60182753D01*
X193816240Y-60182753D01*
X193654957Y-60157208D01*
X193606287Y-60149500D01*
X193393713Y-60149500D01*
X193345042Y-60157208D01*
X193183760Y-60182753D01*
X192981585Y-60248444D01*
X192792179Y-60344951D01*
X192620213Y-60469890D01*
X192469890Y-60620213D01*
X192344951Y-60792179D01*
X192248444Y-60981585D01*
X192182753Y-61183760D01*
X192161771Y-61316237D01*
X192149500Y-61393713D01*
X118792074Y-61393713D01*
X118817246Y-61316243D01*
X118850500Y-61106287D01*
X118850500Y-60893713D01*
X118817246Y-60683757D01*
X118751557Y-60481588D01*
X118655051Y-60292184D01*
X118655049Y-60292181D01*
X118655048Y-60292179D01*
X118530109Y-60120213D01*
X118379786Y-59969890D01*
X118207820Y-59844951D01*
X118018414Y-59748444D01*
X118018413Y-59748443D01*
X118018412Y-59748443D01*
X117816243Y-59682754D01*
X117816241Y-59682753D01*
X117816240Y-59682753D01*
X117654957Y-59657208D01*
X117606287Y-59649500D01*
X117393713Y-59649500D01*
X117345042Y-59657208D01*
X117183760Y-59682753D01*
X116981585Y-59748444D01*
X116792179Y-59844951D01*
X116620213Y-59969890D01*
X116469890Y-60120213D01*
X116344951Y-60292179D01*
X116248444Y-60481585D01*
X116182753Y-60683760D01*
X116149500Y-60893713D01*
X114000500Y-60893713D01*
X114000500Y-57624500D01*
X114020185Y-57557461D01*
X114072989Y-57511706D01*
X114124500Y-57500500D01*
X196875500Y-57500500D01*
X196942539Y-57520185D01*
G37*
%TD.AperFunction*%
%TD*%
M02*
