%TF.GenerationSoftware,KiCad,Pcbnew,9.0.6-1.fc43*%
%TF.CreationDate,2025-12-17T22:37:06-05:00*%
%TF.ProjectId,electrical,656c6563-7472-4696-9361-6c2e6b696361,rev?*%
%TF.SameCoordinates,Original*%
%TF.FileFunction,Legend,Bot*%
%TF.FilePolarity,Positive*%
%FSLAX46Y46*%
G04 Gerber Fmt 4.6, Leading zero omitted, Abs format (unit mm)*
G04 Created by KiCad (PCBNEW 9.0.6-1.fc43) date 2025-12-17 22:37:06*
%MOMM*%
%LPD*%
G01*
G04 APERTURE LIST*
%ADD10C,0.254000*%
%ADD11C,0.100000*%
%ADD12C,0.200000*%
%ADD13C,0.250000*%
G04 APERTURE END LIST*
D10*
X168763842Y-105306666D02*
X168824318Y-105488095D01*
X168824318Y-105488095D02*
X168824318Y-105790476D01*
X168824318Y-105790476D02*
X168763842Y-105911428D01*
X168763842Y-105911428D02*
X168703365Y-105971904D01*
X168703365Y-105971904D02*
X168582413Y-106032381D01*
X168582413Y-106032381D02*
X168461461Y-106032381D01*
X168461461Y-106032381D02*
X168340508Y-105971904D01*
X168340508Y-105971904D02*
X168280032Y-105911428D01*
X168280032Y-105911428D02*
X168219556Y-105790476D01*
X168219556Y-105790476D02*
X168159080Y-105548571D01*
X168159080Y-105548571D02*
X168098603Y-105427619D01*
X168098603Y-105427619D02*
X168038127Y-105367142D01*
X168038127Y-105367142D02*
X167917175Y-105306666D01*
X167917175Y-105306666D02*
X167796222Y-105306666D01*
X167796222Y-105306666D02*
X167675270Y-105367142D01*
X167675270Y-105367142D02*
X167614794Y-105427619D01*
X167614794Y-105427619D02*
X167554318Y-105548571D01*
X167554318Y-105548571D02*
X167554318Y-105850952D01*
X167554318Y-105850952D02*
X167614794Y-106032381D01*
X167554318Y-106455714D02*
X168824318Y-106758095D01*
X168824318Y-106758095D02*
X167917175Y-107000000D01*
X167917175Y-107000000D02*
X168824318Y-107241905D01*
X168824318Y-107241905D02*
X167554318Y-107544286D01*
X167675270Y-107967619D02*
X167614794Y-108028095D01*
X167614794Y-108028095D02*
X167554318Y-108149048D01*
X167554318Y-108149048D02*
X167554318Y-108451429D01*
X167554318Y-108451429D02*
X167614794Y-108572381D01*
X167614794Y-108572381D02*
X167675270Y-108632857D01*
X167675270Y-108632857D02*
X167796222Y-108693334D01*
X167796222Y-108693334D02*
X167917175Y-108693334D01*
X167917175Y-108693334D02*
X168098603Y-108632857D01*
X168098603Y-108632857D02*
X168824318Y-107907143D01*
X168824318Y-107907143D02*
X168824318Y-108693334D01*
X174511666Y-66324318D02*
X174935000Y-65719556D01*
X175237381Y-66324318D02*
X175237381Y-65054318D01*
X175237381Y-65054318D02*
X174753571Y-65054318D01*
X174753571Y-65054318D02*
X174632619Y-65114794D01*
X174632619Y-65114794D02*
X174572142Y-65175270D01*
X174572142Y-65175270D02*
X174511666Y-65296222D01*
X174511666Y-65296222D02*
X174511666Y-65477651D01*
X174511666Y-65477651D02*
X174572142Y-65598603D01*
X174572142Y-65598603D02*
X174632619Y-65659080D01*
X174632619Y-65659080D02*
X174753571Y-65719556D01*
X174753571Y-65719556D02*
X175237381Y-65719556D01*
X173302142Y-66324318D02*
X174027857Y-66324318D01*
X173665000Y-66324318D02*
X173665000Y-65054318D01*
X173665000Y-65054318D02*
X173785952Y-65235746D01*
X173785952Y-65235746D02*
X173906904Y-65356699D01*
X173906904Y-65356699D02*
X174027857Y-65417175D01*
X145161666Y-114465365D02*
X145222142Y-114525842D01*
X145222142Y-114525842D02*
X145403571Y-114586318D01*
X145403571Y-114586318D02*
X145524523Y-114586318D01*
X145524523Y-114586318D02*
X145705952Y-114525842D01*
X145705952Y-114525842D02*
X145826904Y-114404889D01*
X145826904Y-114404889D02*
X145887381Y-114283937D01*
X145887381Y-114283937D02*
X145947857Y-114042032D01*
X145947857Y-114042032D02*
X145947857Y-113860603D01*
X145947857Y-113860603D02*
X145887381Y-113618699D01*
X145887381Y-113618699D02*
X145826904Y-113497746D01*
X145826904Y-113497746D02*
X145705952Y-113376794D01*
X145705952Y-113376794D02*
X145524523Y-113316318D01*
X145524523Y-113316318D02*
X145403571Y-113316318D01*
X145403571Y-113316318D02*
X145222142Y-113376794D01*
X145222142Y-113376794D02*
X145161666Y-113437270D01*
X144738333Y-113316318D02*
X143891666Y-113316318D01*
X143891666Y-113316318D02*
X144435952Y-114586318D01*
X191694318Y-119130437D02*
X190424318Y-119130437D01*
X191573365Y-120460914D02*
X191633842Y-120400438D01*
X191633842Y-120400438D02*
X191694318Y-120219009D01*
X191694318Y-120219009D02*
X191694318Y-120098057D01*
X191694318Y-120098057D02*
X191633842Y-119916628D01*
X191633842Y-119916628D02*
X191512889Y-119795676D01*
X191512889Y-119795676D02*
X191391937Y-119735199D01*
X191391937Y-119735199D02*
X191150032Y-119674723D01*
X191150032Y-119674723D02*
X190968603Y-119674723D01*
X190968603Y-119674723D02*
X190726699Y-119735199D01*
X190726699Y-119735199D02*
X190605746Y-119795676D01*
X190605746Y-119795676D02*
X190484794Y-119916628D01*
X190484794Y-119916628D02*
X190424318Y-120098057D01*
X190424318Y-120098057D02*
X190424318Y-120219009D01*
X190424318Y-120219009D02*
X190484794Y-120400438D01*
X190484794Y-120400438D02*
X190545270Y-120460914D01*
X190424318Y-120884247D02*
X190424318Y-121670438D01*
X190424318Y-121670438D02*
X190908127Y-121247104D01*
X190908127Y-121247104D02*
X190908127Y-121428533D01*
X190908127Y-121428533D02*
X190968603Y-121549485D01*
X190968603Y-121549485D02*
X191029080Y-121609961D01*
X191029080Y-121609961D02*
X191150032Y-121670438D01*
X191150032Y-121670438D02*
X191452413Y-121670438D01*
X191452413Y-121670438D02*
X191573365Y-121609961D01*
X191573365Y-121609961D02*
X191633842Y-121549485D01*
X191633842Y-121549485D02*
X191694318Y-121428533D01*
X191694318Y-121428533D02*
X191694318Y-121065676D01*
X191694318Y-121065676D02*
X191633842Y-120944723D01*
X191633842Y-120944723D02*
X191573365Y-120884247D01*
X166874318Y-132128333D02*
X166269556Y-131704999D01*
X166874318Y-131402618D02*
X165604318Y-131402618D01*
X165604318Y-131402618D02*
X165604318Y-131886428D01*
X165604318Y-131886428D02*
X165664794Y-132007380D01*
X165664794Y-132007380D02*
X165725270Y-132067857D01*
X165725270Y-132067857D02*
X165846222Y-132128333D01*
X165846222Y-132128333D02*
X166027651Y-132128333D01*
X166027651Y-132128333D02*
X166148603Y-132067857D01*
X166148603Y-132067857D02*
X166209080Y-132007380D01*
X166209080Y-132007380D02*
X166269556Y-131886428D01*
X166269556Y-131886428D02*
X166269556Y-131402618D01*
X165725270Y-132612142D02*
X165664794Y-132672618D01*
X165664794Y-132672618D02*
X165604318Y-132793571D01*
X165604318Y-132793571D02*
X165604318Y-133095952D01*
X165604318Y-133095952D02*
X165664794Y-133216904D01*
X165664794Y-133216904D02*
X165725270Y-133277380D01*
X165725270Y-133277380D02*
X165846222Y-133337857D01*
X165846222Y-133337857D02*
X165967175Y-133337857D01*
X165967175Y-133337857D02*
X166148603Y-133277380D01*
X166148603Y-133277380D02*
X166874318Y-132551666D01*
X166874318Y-132551666D02*
X166874318Y-133337857D01*
X147911666Y-114465365D02*
X147972142Y-114525842D01*
X147972142Y-114525842D02*
X148153571Y-114586318D01*
X148153571Y-114586318D02*
X148274523Y-114586318D01*
X148274523Y-114586318D02*
X148455952Y-114525842D01*
X148455952Y-114525842D02*
X148576904Y-114404889D01*
X148576904Y-114404889D02*
X148637381Y-114283937D01*
X148637381Y-114283937D02*
X148697857Y-114042032D01*
X148697857Y-114042032D02*
X148697857Y-113860603D01*
X148697857Y-113860603D02*
X148637381Y-113618699D01*
X148637381Y-113618699D02*
X148576904Y-113497746D01*
X148576904Y-113497746D02*
X148455952Y-113376794D01*
X148455952Y-113376794D02*
X148274523Y-113316318D01*
X148274523Y-113316318D02*
X148153571Y-113316318D01*
X148153571Y-113316318D02*
X147972142Y-113376794D01*
X147972142Y-113376794D02*
X147911666Y-113437270D01*
X146762619Y-113316318D02*
X147367381Y-113316318D01*
X147367381Y-113316318D02*
X147427857Y-113921080D01*
X147427857Y-113921080D02*
X147367381Y-113860603D01*
X147367381Y-113860603D02*
X147246428Y-113800127D01*
X147246428Y-113800127D02*
X146944047Y-113800127D01*
X146944047Y-113800127D02*
X146823095Y-113860603D01*
X146823095Y-113860603D02*
X146762619Y-113921080D01*
X146762619Y-113921080D02*
X146702142Y-114042032D01*
X146702142Y-114042032D02*
X146702142Y-114344413D01*
X146702142Y-114344413D02*
X146762619Y-114465365D01*
X146762619Y-114465365D02*
X146823095Y-114525842D01*
X146823095Y-114525842D02*
X146944047Y-114586318D01*
X146944047Y-114586318D02*
X147246428Y-114586318D01*
X147246428Y-114586318D02*
X147367381Y-114525842D01*
X147367381Y-114525842D02*
X147427857Y-114465365D01*
X163874318Y-132128333D02*
X163269556Y-131704999D01*
X163874318Y-131402618D02*
X162604318Y-131402618D01*
X162604318Y-131402618D02*
X162604318Y-131886428D01*
X162604318Y-131886428D02*
X162664794Y-132007380D01*
X162664794Y-132007380D02*
X162725270Y-132067857D01*
X162725270Y-132067857D02*
X162846222Y-132128333D01*
X162846222Y-132128333D02*
X163027651Y-132128333D01*
X163027651Y-132128333D02*
X163148603Y-132067857D01*
X163148603Y-132067857D02*
X163209080Y-132007380D01*
X163209080Y-132007380D02*
X163269556Y-131886428D01*
X163269556Y-131886428D02*
X163269556Y-131402618D01*
X162604318Y-132551666D02*
X162604318Y-133337857D01*
X162604318Y-133337857D02*
X163088127Y-132914523D01*
X163088127Y-132914523D02*
X163088127Y-133095952D01*
X163088127Y-133095952D02*
X163148603Y-133216904D01*
X163148603Y-133216904D02*
X163209080Y-133277380D01*
X163209080Y-133277380D02*
X163330032Y-133337857D01*
X163330032Y-133337857D02*
X163632413Y-133337857D01*
X163632413Y-133337857D02*
X163753365Y-133277380D01*
X163753365Y-133277380D02*
X163813842Y-133216904D01*
X163813842Y-133216904D02*
X163874318Y-133095952D01*
X163874318Y-133095952D02*
X163874318Y-132733095D01*
X163874318Y-132733095D02*
X163813842Y-132612142D01*
X163813842Y-132612142D02*
X163753365Y-132551666D01*
X140953365Y-102838333D02*
X141013842Y-102777857D01*
X141013842Y-102777857D02*
X141074318Y-102596428D01*
X141074318Y-102596428D02*
X141074318Y-102475476D01*
X141074318Y-102475476D02*
X141013842Y-102294047D01*
X141013842Y-102294047D02*
X140892889Y-102173095D01*
X140892889Y-102173095D02*
X140771937Y-102112618D01*
X140771937Y-102112618D02*
X140530032Y-102052142D01*
X140530032Y-102052142D02*
X140348603Y-102052142D01*
X140348603Y-102052142D02*
X140106699Y-102112618D01*
X140106699Y-102112618D02*
X139985746Y-102173095D01*
X139985746Y-102173095D02*
X139864794Y-102294047D01*
X139864794Y-102294047D02*
X139804318Y-102475476D01*
X139804318Y-102475476D02*
X139804318Y-102596428D01*
X139804318Y-102596428D02*
X139864794Y-102777857D01*
X139864794Y-102777857D02*
X139925270Y-102838333D01*
X139925270Y-103322142D02*
X139864794Y-103382618D01*
X139864794Y-103382618D02*
X139804318Y-103503571D01*
X139804318Y-103503571D02*
X139804318Y-103805952D01*
X139804318Y-103805952D02*
X139864794Y-103926904D01*
X139864794Y-103926904D02*
X139925270Y-103987380D01*
X139925270Y-103987380D02*
X140046222Y-104047857D01*
X140046222Y-104047857D02*
X140167175Y-104047857D01*
X140167175Y-104047857D02*
X140348603Y-103987380D01*
X140348603Y-103987380D02*
X141074318Y-103261666D01*
X141074318Y-103261666D02*
X141074318Y-104047857D01*
X182909080Y-83702143D02*
X182969556Y-83883571D01*
X182969556Y-83883571D02*
X183030032Y-83944048D01*
X183030032Y-83944048D02*
X183150984Y-84004524D01*
X183150984Y-84004524D02*
X183332413Y-84004524D01*
X183332413Y-84004524D02*
X183453365Y-83944048D01*
X183453365Y-83944048D02*
X183513842Y-83883571D01*
X183513842Y-83883571D02*
X183574318Y-83762619D01*
X183574318Y-83762619D02*
X183574318Y-83278809D01*
X183574318Y-83278809D02*
X182304318Y-83278809D01*
X182304318Y-83278809D02*
X182304318Y-83702143D01*
X182304318Y-83702143D02*
X182364794Y-83823095D01*
X182364794Y-83823095D02*
X182425270Y-83883571D01*
X182425270Y-83883571D02*
X182546222Y-83944048D01*
X182546222Y-83944048D02*
X182667175Y-83944048D01*
X182667175Y-83944048D02*
X182788127Y-83883571D01*
X182788127Y-83883571D02*
X182848603Y-83823095D01*
X182848603Y-83823095D02*
X182909080Y-83702143D01*
X182909080Y-83702143D02*
X182909080Y-83278809D01*
X182304318Y-84367381D02*
X182304318Y-85093095D01*
X183574318Y-84730238D02*
X182304318Y-84730238D01*
X182425270Y-85455952D02*
X182364794Y-85516428D01*
X182364794Y-85516428D02*
X182304318Y-85637381D01*
X182304318Y-85637381D02*
X182304318Y-85939762D01*
X182304318Y-85939762D02*
X182364794Y-86060714D01*
X182364794Y-86060714D02*
X182425270Y-86121190D01*
X182425270Y-86121190D02*
X182546222Y-86181667D01*
X182546222Y-86181667D02*
X182667175Y-86181667D01*
X182667175Y-86181667D02*
X182848603Y-86121190D01*
X182848603Y-86121190D02*
X183574318Y-85395476D01*
X183574318Y-85395476D02*
X183574318Y-86181667D01*
X149461666Y-100465365D02*
X149522142Y-100525842D01*
X149522142Y-100525842D02*
X149703571Y-100586318D01*
X149703571Y-100586318D02*
X149824523Y-100586318D01*
X149824523Y-100586318D02*
X150005952Y-100525842D01*
X150005952Y-100525842D02*
X150126904Y-100404889D01*
X150126904Y-100404889D02*
X150187381Y-100283937D01*
X150187381Y-100283937D02*
X150247857Y-100042032D01*
X150247857Y-100042032D02*
X150247857Y-99860603D01*
X150247857Y-99860603D02*
X150187381Y-99618699D01*
X150187381Y-99618699D02*
X150126904Y-99497746D01*
X150126904Y-99497746D02*
X150005952Y-99376794D01*
X150005952Y-99376794D02*
X149824523Y-99316318D01*
X149824523Y-99316318D02*
X149703571Y-99316318D01*
X149703571Y-99316318D02*
X149522142Y-99376794D01*
X149522142Y-99376794D02*
X149461666Y-99437270D01*
X149038333Y-99316318D02*
X148252142Y-99316318D01*
X148252142Y-99316318D02*
X148675476Y-99800127D01*
X148675476Y-99800127D02*
X148494047Y-99800127D01*
X148494047Y-99800127D02*
X148373095Y-99860603D01*
X148373095Y-99860603D02*
X148312619Y-99921080D01*
X148312619Y-99921080D02*
X148252142Y-100042032D01*
X148252142Y-100042032D02*
X148252142Y-100344413D01*
X148252142Y-100344413D02*
X148312619Y-100465365D01*
X148312619Y-100465365D02*
X148373095Y-100525842D01*
X148373095Y-100525842D02*
X148494047Y-100586318D01*
X148494047Y-100586318D02*
X148856904Y-100586318D01*
X148856904Y-100586318D02*
X148977857Y-100525842D01*
X148977857Y-100525842D02*
X149038333Y-100465365D01*
X136953365Y-82683571D02*
X137013842Y-82623095D01*
X137013842Y-82623095D02*
X137074318Y-82441666D01*
X137074318Y-82441666D02*
X137074318Y-82320714D01*
X137074318Y-82320714D02*
X137013842Y-82139285D01*
X137013842Y-82139285D02*
X136892889Y-82018333D01*
X136892889Y-82018333D02*
X136771937Y-81957856D01*
X136771937Y-81957856D02*
X136530032Y-81897380D01*
X136530032Y-81897380D02*
X136348603Y-81897380D01*
X136348603Y-81897380D02*
X136106699Y-81957856D01*
X136106699Y-81957856D02*
X135985746Y-82018333D01*
X135985746Y-82018333D02*
X135864794Y-82139285D01*
X135864794Y-82139285D02*
X135804318Y-82320714D01*
X135804318Y-82320714D02*
X135804318Y-82441666D01*
X135804318Y-82441666D02*
X135864794Y-82623095D01*
X135864794Y-82623095D02*
X135925270Y-82683571D01*
X135925270Y-83167380D02*
X135864794Y-83227856D01*
X135864794Y-83227856D02*
X135804318Y-83348809D01*
X135804318Y-83348809D02*
X135804318Y-83651190D01*
X135804318Y-83651190D02*
X135864794Y-83772142D01*
X135864794Y-83772142D02*
X135925270Y-83832618D01*
X135925270Y-83832618D02*
X136046222Y-83893095D01*
X136046222Y-83893095D02*
X136167175Y-83893095D01*
X136167175Y-83893095D02*
X136348603Y-83832618D01*
X136348603Y-83832618D02*
X137074318Y-83106904D01*
X137074318Y-83106904D02*
X137074318Y-83893095D01*
X137074318Y-85102619D02*
X137074318Y-84376904D01*
X137074318Y-84739761D02*
X135804318Y-84739761D01*
X135804318Y-84739761D02*
X135985746Y-84618809D01*
X135985746Y-84618809D02*
X136106699Y-84497857D01*
X136106699Y-84497857D02*
X136167175Y-84376904D01*
X142461666Y-115965365D02*
X142522142Y-116025842D01*
X142522142Y-116025842D02*
X142703571Y-116086318D01*
X142703571Y-116086318D02*
X142824523Y-116086318D01*
X142824523Y-116086318D02*
X143005952Y-116025842D01*
X143005952Y-116025842D02*
X143126904Y-115904889D01*
X143126904Y-115904889D02*
X143187381Y-115783937D01*
X143187381Y-115783937D02*
X143247857Y-115542032D01*
X143247857Y-115542032D02*
X143247857Y-115360603D01*
X143247857Y-115360603D02*
X143187381Y-115118699D01*
X143187381Y-115118699D02*
X143126904Y-114997746D01*
X143126904Y-114997746D02*
X143005952Y-114876794D01*
X143005952Y-114876794D02*
X142824523Y-114816318D01*
X142824523Y-114816318D02*
X142703571Y-114816318D01*
X142703571Y-114816318D02*
X142522142Y-114876794D01*
X142522142Y-114876794D02*
X142461666Y-114937270D01*
X141373095Y-115239651D02*
X141373095Y-116086318D01*
X141675476Y-114755842D02*
X141977857Y-115662984D01*
X141977857Y-115662984D02*
X141191666Y-115662984D01*
X145161666Y-115965365D02*
X145222142Y-116025842D01*
X145222142Y-116025842D02*
X145403571Y-116086318D01*
X145403571Y-116086318D02*
X145524523Y-116086318D01*
X145524523Y-116086318D02*
X145705952Y-116025842D01*
X145705952Y-116025842D02*
X145826904Y-115904889D01*
X145826904Y-115904889D02*
X145887381Y-115783937D01*
X145887381Y-115783937D02*
X145947857Y-115542032D01*
X145947857Y-115542032D02*
X145947857Y-115360603D01*
X145947857Y-115360603D02*
X145887381Y-115118699D01*
X145887381Y-115118699D02*
X145826904Y-114997746D01*
X145826904Y-114997746D02*
X145705952Y-114876794D01*
X145705952Y-114876794D02*
X145524523Y-114816318D01*
X145524523Y-114816318D02*
X145403571Y-114816318D01*
X145403571Y-114816318D02*
X145222142Y-114876794D01*
X145222142Y-114876794D02*
X145161666Y-114937270D01*
X144435952Y-115360603D02*
X144556904Y-115300127D01*
X144556904Y-115300127D02*
X144617381Y-115239651D01*
X144617381Y-115239651D02*
X144677857Y-115118699D01*
X144677857Y-115118699D02*
X144677857Y-115058222D01*
X144677857Y-115058222D02*
X144617381Y-114937270D01*
X144617381Y-114937270D02*
X144556904Y-114876794D01*
X144556904Y-114876794D02*
X144435952Y-114816318D01*
X144435952Y-114816318D02*
X144194047Y-114816318D01*
X144194047Y-114816318D02*
X144073095Y-114876794D01*
X144073095Y-114876794D02*
X144012619Y-114937270D01*
X144012619Y-114937270D02*
X143952142Y-115058222D01*
X143952142Y-115058222D02*
X143952142Y-115118699D01*
X143952142Y-115118699D02*
X144012619Y-115239651D01*
X144012619Y-115239651D02*
X144073095Y-115300127D01*
X144073095Y-115300127D02*
X144194047Y-115360603D01*
X144194047Y-115360603D02*
X144435952Y-115360603D01*
X144435952Y-115360603D02*
X144556904Y-115421080D01*
X144556904Y-115421080D02*
X144617381Y-115481556D01*
X144617381Y-115481556D02*
X144677857Y-115602508D01*
X144677857Y-115602508D02*
X144677857Y-115844413D01*
X144677857Y-115844413D02*
X144617381Y-115965365D01*
X144617381Y-115965365D02*
X144556904Y-116025842D01*
X144556904Y-116025842D02*
X144435952Y-116086318D01*
X144435952Y-116086318D02*
X144194047Y-116086318D01*
X144194047Y-116086318D02*
X144073095Y-116025842D01*
X144073095Y-116025842D02*
X144012619Y-115965365D01*
X144012619Y-115965365D02*
X143952142Y-115844413D01*
X143952142Y-115844413D02*
X143952142Y-115602508D01*
X143952142Y-115602508D02*
X144012619Y-115481556D01*
X144012619Y-115481556D02*
X144073095Y-115421080D01*
X144073095Y-115421080D02*
X144194047Y-115360603D01*
X162011666Y-107574318D02*
X162435000Y-106969556D01*
X162737381Y-107574318D02*
X162737381Y-106304318D01*
X162737381Y-106304318D02*
X162253571Y-106304318D01*
X162253571Y-106304318D02*
X162132619Y-106364794D01*
X162132619Y-106364794D02*
X162072142Y-106425270D01*
X162072142Y-106425270D02*
X162011666Y-106546222D01*
X162011666Y-106546222D02*
X162011666Y-106727651D01*
X162011666Y-106727651D02*
X162072142Y-106848603D01*
X162072142Y-106848603D02*
X162132619Y-106909080D01*
X162132619Y-106909080D02*
X162253571Y-106969556D01*
X162253571Y-106969556D02*
X162737381Y-106969556D01*
X160862619Y-106304318D02*
X161467381Y-106304318D01*
X161467381Y-106304318D02*
X161527857Y-106909080D01*
X161527857Y-106909080D02*
X161467381Y-106848603D01*
X161467381Y-106848603D02*
X161346428Y-106788127D01*
X161346428Y-106788127D02*
X161044047Y-106788127D01*
X161044047Y-106788127D02*
X160923095Y-106848603D01*
X160923095Y-106848603D02*
X160862619Y-106909080D01*
X160862619Y-106909080D02*
X160802142Y-107030032D01*
X160802142Y-107030032D02*
X160802142Y-107332413D01*
X160802142Y-107332413D02*
X160862619Y-107453365D01*
X160862619Y-107453365D02*
X160923095Y-107513842D01*
X160923095Y-107513842D02*
X161044047Y-107574318D01*
X161044047Y-107574318D02*
X161346428Y-107574318D01*
X161346428Y-107574318D02*
X161467381Y-107513842D01*
X161467381Y-107513842D02*
X161527857Y-107453365D01*
X156374318Y-132128333D02*
X155769556Y-131704999D01*
X156374318Y-131402618D02*
X155104318Y-131402618D01*
X155104318Y-131402618D02*
X155104318Y-131886428D01*
X155104318Y-131886428D02*
X155164794Y-132007380D01*
X155164794Y-132007380D02*
X155225270Y-132067857D01*
X155225270Y-132067857D02*
X155346222Y-132128333D01*
X155346222Y-132128333D02*
X155527651Y-132128333D01*
X155527651Y-132128333D02*
X155648603Y-132067857D01*
X155648603Y-132067857D02*
X155709080Y-132007380D01*
X155709080Y-132007380D02*
X155769556Y-131886428D01*
X155769556Y-131886428D02*
X155769556Y-131402618D01*
X155527651Y-133216904D02*
X156374318Y-133216904D01*
X155043842Y-132914523D02*
X155950984Y-132612142D01*
X155950984Y-132612142D02*
X155950984Y-133398333D01*
X180324318Y-116288333D02*
X179719556Y-115864999D01*
X180324318Y-115562618D02*
X179054318Y-115562618D01*
X179054318Y-115562618D02*
X179054318Y-116046428D01*
X179054318Y-116046428D02*
X179114794Y-116167380D01*
X179114794Y-116167380D02*
X179175270Y-116227857D01*
X179175270Y-116227857D02*
X179296222Y-116288333D01*
X179296222Y-116288333D02*
X179477651Y-116288333D01*
X179477651Y-116288333D02*
X179598603Y-116227857D01*
X179598603Y-116227857D02*
X179659080Y-116167380D01*
X179659080Y-116167380D02*
X179719556Y-116046428D01*
X179719556Y-116046428D02*
X179719556Y-115562618D01*
X180324318Y-116893095D02*
X180324318Y-117134999D01*
X180324318Y-117134999D02*
X180263842Y-117255952D01*
X180263842Y-117255952D02*
X180203365Y-117316428D01*
X180203365Y-117316428D02*
X180021937Y-117437380D01*
X180021937Y-117437380D02*
X179780032Y-117497857D01*
X179780032Y-117497857D02*
X179296222Y-117497857D01*
X179296222Y-117497857D02*
X179175270Y-117437380D01*
X179175270Y-117437380D02*
X179114794Y-117376904D01*
X179114794Y-117376904D02*
X179054318Y-117255952D01*
X179054318Y-117255952D02*
X179054318Y-117014047D01*
X179054318Y-117014047D02*
X179114794Y-116893095D01*
X179114794Y-116893095D02*
X179175270Y-116832618D01*
X179175270Y-116832618D02*
X179296222Y-116772142D01*
X179296222Y-116772142D02*
X179598603Y-116772142D01*
X179598603Y-116772142D02*
X179719556Y-116832618D01*
X179719556Y-116832618D02*
X179780032Y-116893095D01*
X179780032Y-116893095D02*
X179840508Y-117014047D01*
X179840508Y-117014047D02*
X179840508Y-117255952D01*
X179840508Y-117255952D02*
X179780032Y-117376904D01*
X179780032Y-117376904D02*
X179719556Y-117437380D01*
X179719556Y-117437380D02*
X179598603Y-117497857D01*
X159953365Y-114788333D02*
X160013842Y-114727857D01*
X160013842Y-114727857D02*
X160074318Y-114546428D01*
X160074318Y-114546428D02*
X160074318Y-114425476D01*
X160074318Y-114425476D02*
X160013842Y-114244047D01*
X160013842Y-114244047D02*
X159892889Y-114123095D01*
X159892889Y-114123095D02*
X159771937Y-114062618D01*
X159771937Y-114062618D02*
X159530032Y-114002142D01*
X159530032Y-114002142D02*
X159348603Y-114002142D01*
X159348603Y-114002142D02*
X159106699Y-114062618D01*
X159106699Y-114062618D02*
X158985746Y-114123095D01*
X158985746Y-114123095D02*
X158864794Y-114244047D01*
X158864794Y-114244047D02*
X158804318Y-114425476D01*
X158804318Y-114425476D02*
X158804318Y-114546428D01*
X158804318Y-114546428D02*
X158864794Y-114727857D01*
X158864794Y-114727857D02*
X158925270Y-114788333D01*
X160074318Y-115393095D02*
X160074318Y-115634999D01*
X160074318Y-115634999D02*
X160013842Y-115755952D01*
X160013842Y-115755952D02*
X159953365Y-115816428D01*
X159953365Y-115816428D02*
X159771937Y-115937380D01*
X159771937Y-115937380D02*
X159530032Y-115997857D01*
X159530032Y-115997857D02*
X159046222Y-115997857D01*
X159046222Y-115997857D02*
X158925270Y-115937380D01*
X158925270Y-115937380D02*
X158864794Y-115876904D01*
X158864794Y-115876904D02*
X158804318Y-115755952D01*
X158804318Y-115755952D02*
X158804318Y-115514047D01*
X158804318Y-115514047D02*
X158864794Y-115393095D01*
X158864794Y-115393095D02*
X158925270Y-115332618D01*
X158925270Y-115332618D02*
X159046222Y-115272142D01*
X159046222Y-115272142D02*
X159348603Y-115272142D01*
X159348603Y-115272142D02*
X159469556Y-115332618D01*
X159469556Y-115332618D02*
X159530032Y-115393095D01*
X159530032Y-115393095D02*
X159590508Y-115514047D01*
X159590508Y-115514047D02*
X159590508Y-115755952D01*
X159590508Y-115755952D02*
X159530032Y-115876904D01*
X159530032Y-115876904D02*
X159469556Y-115937380D01*
X159469556Y-115937380D02*
X159348603Y-115997857D01*
X125866428Y-84824318D02*
X126289762Y-84219556D01*
X126592143Y-84824318D02*
X126592143Y-83554318D01*
X126592143Y-83554318D02*
X126108333Y-83554318D01*
X126108333Y-83554318D02*
X125987381Y-83614794D01*
X125987381Y-83614794D02*
X125926904Y-83675270D01*
X125926904Y-83675270D02*
X125866428Y-83796222D01*
X125866428Y-83796222D02*
X125866428Y-83977651D01*
X125866428Y-83977651D02*
X125926904Y-84098603D01*
X125926904Y-84098603D02*
X125987381Y-84159080D01*
X125987381Y-84159080D02*
X126108333Y-84219556D01*
X126108333Y-84219556D02*
X126592143Y-84219556D01*
X124656904Y-84824318D02*
X125382619Y-84824318D01*
X125019762Y-84824318D02*
X125019762Y-83554318D01*
X125019762Y-83554318D02*
X125140714Y-83735746D01*
X125140714Y-83735746D02*
X125261666Y-83856699D01*
X125261666Y-83856699D02*
X125382619Y-83917175D01*
X123870714Y-83554318D02*
X123749761Y-83554318D01*
X123749761Y-83554318D02*
X123628809Y-83614794D01*
X123628809Y-83614794D02*
X123568333Y-83675270D01*
X123568333Y-83675270D02*
X123507857Y-83796222D01*
X123507857Y-83796222D02*
X123447380Y-84038127D01*
X123447380Y-84038127D02*
X123447380Y-84340508D01*
X123447380Y-84340508D02*
X123507857Y-84582413D01*
X123507857Y-84582413D02*
X123568333Y-84703365D01*
X123568333Y-84703365D02*
X123628809Y-84763842D01*
X123628809Y-84763842D02*
X123749761Y-84824318D01*
X123749761Y-84824318D02*
X123870714Y-84824318D01*
X123870714Y-84824318D02*
X123991666Y-84763842D01*
X123991666Y-84763842D02*
X124052142Y-84703365D01*
X124052142Y-84703365D02*
X124112619Y-84582413D01*
X124112619Y-84582413D02*
X124173095Y-84340508D01*
X124173095Y-84340508D02*
X124173095Y-84038127D01*
X124173095Y-84038127D02*
X124112619Y-83796222D01*
X124112619Y-83796222D02*
X124052142Y-83675270D01*
X124052142Y-83675270D02*
X123991666Y-83614794D01*
X123991666Y-83614794D02*
X123870714Y-83554318D01*
X187116428Y-120953365D02*
X187176904Y-121013842D01*
X187176904Y-121013842D02*
X187358333Y-121074318D01*
X187358333Y-121074318D02*
X187479285Y-121074318D01*
X187479285Y-121074318D02*
X187660714Y-121013842D01*
X187660714Y-121013842D02*
X187781666Y-120892889D01*
X187781666Y-120892889D02*
X187842143Y-120771937D01*
X187842143Y-120771937D02*
X187902619Y-120530032D01*
X187902619Y-120530032D02*
X187902619Y-120348603D01*
X187902619Y-120348603D02*
X187842143Y-120106699D01*
X187842143Y-120106699D02*
X187781666Y-119985746D01*
X187781666Y-119985746D02*
X187660714Y-119864794D01*
X187660714Y-119864794D02*
X187479285Y-119804318D01*
X187479285Y-119804318D02*
X187358333Y-119804318D01*
X187358333Y-119804318D02*
X187176904Y-119864794D01*
X187176904Y-119864794D02*
X187116428Y-119925270D01*
X185906904Y-121074318D02*
X186632619Y-121074318D01*
X186269762Y-121074318D02*
X186269762Y-119804318D01*
X186269762Y-119804318D02*
X186390714Y-119985746D01*
X186390714Y-119985746D02*
X186511666Y-120106699D01*
X186511666Y-120106699D02*
X186632619Y-120167175D01*
X184697380Y-121074318D02*
X185423095Y-121074318D01*
X185060238Y-121074318D02*
X185060238Y-119804318D01*
X185060238Y-119804318D02*
X185181190Y-119985746D01*
X185181190Y-119985746D02*
X185302142Y-120106699D01*
X185302142Y-120106699D02*
X185423095Y-120167175D01*
X181366428Y-120953365D02*
X181426904Y-121013842D01*
X181426904Y-121013842D02*
X181608333Y-121074318D01*
X181608333Y-121074318D02*
X181729285Y-121074318D01*
X181729285Y-121074318D02*
X181910714Y-121013842D01*
X181910714Y-121013842D02*
X182031666Y-120892889D01*
X182031666Y-120892889D02*
X182092143Y-120771937D01*
X182092143Y-120771937D02*
X182152619Y-120530032D01*
X182152619Y-120530032D02*
X182152619Y-120348603D01*
X182152619Y-120348603D02*
X182092143Y-120106699D01*
X182092143Y-120106699D02*
X182031666Y-119985746D01*
X182031666Y-119985746D02*
X181910714Y-119864794D01*
X181910714Y-119864794D02*
X181729285Y-119804318D01*
X181729285Y-119804318D02*
X181608333Y-119804318D01*
X181608333Y-119804318D02*
X181426904Y-119864794D01*
X181426904Y-119864794D02*
X181366428Y-119925270D01*
X180156904Y-121074318D02*
X180882619Y-121074318D01*
X180519762Y-121074318D02*
X180519762Y-119804318D01*
X180519762Y-119804318D02*
X180640714Y-119985746D01*
X180640714Y-119985746D02*
X180761666Y-120106699D01*
X180761666Y-120106699D02*
X180882619Y-120167175D01*
X179370714Y-119804318D02*
X179249761Y-119804318D01*
X179249761Y-119804318D02*
X179128809Y-119864794D01*
X179128809Y-119864794D02*
X179068333Y-119925270D01*
X179068333Y-119925270D02*
X179007857Y-120046222D01*
X179007857Y-120046222D02*
X178947380Y-120288127D01*
X178947380Y-120288127D02*
X178947380Y-120590508D01*
X178947380Y-120590508D02*
X179007857Y-120832413D01*
X179007857Y-120832413D02*
X179068333Y-120953365D01*
X179068333Y-120953365D02*
X179128809Y-121013842D01*
X179128809Y-121013842D02*
X179249761Y-121074318D01*
X179249761Y-121074318D02*
X179370714Y-121074318D01*
X179370714Y-121074318D02*
X179491666Y-121013842D01*
X179491666Y-121013842D02*
X179552142Y-120953365D01*
X179552142Y-120953365D02*
X179612619Y-120832413D01*
X179612619Y-120832413D02*
X179673095Y-120590508D01*
X179673095Y-120590508D02*
X179673095Y-120288127D01*
X179673095Y-120288127D02*
X179612619Y-120046222D01*
X179612619Y-120046222D02*
X179552142Y-119925270D01*
X179552142Y-119925270D02*
X179491666Y-119864794D01*
X179491666Y-119864794D02*
X179370714Y-119804318D01*
D11*
X154273810Y-79542580D02*
X154273810Y-80542580D01*
X155321428Y-79637819D02*
X155273809Y-79590200D01*
X155273809Y-79590200D02*
X155130952Y-79542580D01*
X155130952Y-79542580D02*
X155035714Y-79542580D01*
X155035714Y-79542580D02*
X154892857Y-79590200D01*
X154892857Y-79590200D02*
X154797619Y-79685438D01*
X154797619Y-79685438D02*
X154750000Y-79780676D01*
X154750000Y-79780676D02*
X154702381Y-79971152D01*
X154702381Y-79971152D02*
X154702381Y-80114009D01*
X154702381Y-80114009D02*
X154750000Y-80304485D01*
X154750000Y-80304485D02*
X154797619Y-80399723D01*
X154797619Y-80399723D02*
X154892857Y-80494961D01*
X154892857Y-80494961D02*
X155035714Y-80542580D01*
X155035714Y-80542580D02*
X155130952Y-80542580D01*
X155130952Y-80542580D02*
X155273809Y-80494961D01*
X155273809Y-80494961D02*
X155321428Y-80447342D01*
X155702381Y-80447342D02*
X155750000Y-80494961D01*
X155750000Y-80494961D02*
X155845238Y-80542580D01*
X155845238Y-80542580D02*
X156083333Y-80542580D01*
X156083333Y-80542580D02*
X156178571Y-80494961D01*
X156178571Y-80494961D02*
X156226190Y-80447342D01*
X156226190Y-80447342D02*
X156273809Y-80352104D01*
X156273809Y-80352104D02*
X156273809Y-80256866D01*
X156273809Y-80256866D02*
X156226190Y-80114009D01*
X156226190Y-80114009D02*
X155654762Y-79542580D01*
X155654762Y-79542580D02*
X156273809Y-79542580D01*
X156932180Y-67675312D02*
X156979800Y-67627693D01*
X156979800Y-67627693D02*
X157027419Y-67484836D01*
X157027419Y-67484836D02*
X157027419Y-67389598D01*
X157027419Y-67389598D02*
X156979800Y-67246741D01*
X156979800Y-67246741D02*
X156884561Y-67151503D01*
X156884561Y-67151503D02*
X156789323Y-67103884D01*
X156789323Y-67103884D02*
X156598847Y-67056265D01*
X156598847Y-67056265D02*
X156455990Y-67056265D01*
X156455990Y-67056265D02*
X156265514Y-67103884D01*
X156265514Y-67103884D02*
X156170276Y-67151503D01*
X156170276Y-67151503D02*
X156075038Y-67246741D01*
X156075038Y-67246741D02*
X156027419Y-67389598D01*
X156027419Y-67389598D02*
X156027419Y-67484836D01*
X156027419Y-67484836D02*
X156075038Y-67627693D01*
X156075038Y-67627693D02*
X156122657Y-67675312D01*
X156979800Y-68056265D02*
X157027419Y-68199122D01*
X157027419Y-68199122D02*
X157027419Y-68437217D01*
X157027419Y-68437217D02*
X156979800Y-68532455D01*
X156979800Y-68532455D02*
X156932180Y-68580074D01*
X156932180Y-68580074D02*
X156836942Y-68627693D01*
X156836942Y-68627693D02*
X156741704Y-68627693D01*
X156741704Y-68627693D02*
X156646466Y-68580074D01*
X156646466Y-68580074D02*
X156598847Y-68532455D01*
X156598847Y-68532455D02*
X156551228Y-68437217D01*
X156551228Y-68437217D02*
X156503609Y-68246741D01*
X156503609Y-68246741D02*
X156455990Y-68151503D01*
X156455990Y-68151503D02*
X156408371Y-68103884D01*
X156408371Y-68103884D02*
X156313133Y-68056265D01*
X156313133Y-68056265D02*
X156217895Y-68056265D01*
X156217895Y-68056265D02*
X156122657Y-68103884D01*
X156122657Y-68103884D02*
X156075038Y-68151503D01*
X156075038Y-68151503D02*
X156027419Y-68246741D01*
X156027419Y-68246741D02*
X156027419Y-68484836D01*
X156027419Y-68484836D02*
X156075038Y-68627693D01*
X149359800Y-67056265D02*
X149407419Y-67199122D01*
X149407419Y-67199122D02*
X149407419Y-67437217D01*
X149407419Y-67437217D02*
X149359800Y-67532455D01*
X149359800Y-67532455D02*
X149312180Y-67580074D01*
X149312180Y-67580074D02*
X149216942Y-67627693D01*
X149216942Y-67627693D02*
X149121704Y-67627693D01*
X149121704Y-67627693D02*
X149026466Y-67580074D01*
X149026466Y-67580074D02*
X148978847Y-67532455D01*
X148978847Y-67532455D02*
X148931228Y-67437217D01*
X148931228Y-67437217D02*
X148883609Y-67246741D01*
X148883609Y-67246741D02*
X148835990Y-67151503D01*
X148835990Y-67151503D02*
X148788371Y-67103884D01*
X148788371Y-67103884D02*
X148693133Y-67056265D01*
X148693133Y-67056265D02*
X148597895Y-67056265D01*
X148597895Y-67056265D02*
X148502657Y-67103884D01*
X148502657Y-67103884D02*
X148455038Y-67151503D01*
X148455038Y-67151503D02*
X148407419Y-67246741D01*
X148407419Y-67246741D02*
X148407419Y-67484836D01*
X148407419Y-67484836D02*
X148455038Y-67627693D01*
X149312180Y-68627693D02*
X149359800Y-68580074D01*
X149359800Y-68580074D02*
X149407419Y-68437217D01*
X149407419Y-68437217D02*
X149407419Y-68341979D01*
X149407419Y-68341979D02*
X149359800Y-68199122D01*
X149359800Y-68199122D02*
X149264561Y-68103884D01*
X149264561Y-68103884D02*
X149169323Y-68056265D01*
X149169323Y-68056265D02*
X148978847Y-68008646D01*
X148978847Y-68008646D02*
X148835990Y-68008646D01*
X148835990Y-68008646D02*
X148645514Y-68056265D01*
X148645514Y-68056265D02*
X148550276Y-68103884D01*
X148550276Y-68103884D02*
X148455038Y-68199122D01*
X148455038Y-68199122D02*
X148407419Y-68341979D01*
X148407419Y-68341979D02*
X148407419Y-68437217D01*
X148407419Y-68437217D02*
X148455038Y-68580074D01*
X148455038Y-68580074D02*
X148502657Y-68627693D01*
X149407419Y-69056265D02*
X148407419Y-69056265D01*
X149407419Y-69627693D02*
X148835990Y-69199122D01*
X148407419Y-69627693D02*
X148978847Y-69056265D01*
X166187419Y-67103884D02*
X166996942Y-67103884D01*
X166996942Y-67103884D02*
X167092180Y-67151503D01*
X167092180Y-67151503D02*
X167139800Y-67199122D01*
X167139800Y-67199122D02*
X167187419Y-67294360D01*
X167187419Y-67294360D02*
X167187419Y-67484836D01*
X167187419Y-67484836D02*
X167139800Y-67580074D01*
X167139800Y-67580074D02*
X167092180Y-67627693D01*
X167092180Y-67627693D02*
X166996942Y-67675312D01*
X166996942Y-67675312D02*
X166187419Y-67675312D01*
X166901704Y-68103884D02*
X166901704Y-68580074D01*
X167187419Y-68008646D02*
X166187419Y-68341979D01*
X166187419Y-68341979D02*
X167187419Y-68675312D01*
X167187419Y-69580074D02*
X166711228Y-69246741D01*
X167187419Y-69008646D02*
X166187419Y-69008646D01*
X166187419Y-69008646D02*
X166187419Y-69389598D01*
X166187419Y-69389598D02*
X166235038Y-69484836D01*
X166235038Y-69484836D02*
X166282657Y-69532455D01*
X166282657Y-69532455D02*
X166377895Y-69580074D01*
X166377895Y-69580074D02*
X166520752Y-69580074D01*
X166520752Y-69580074D02*
X166615990Y-69532455D01*
X166615990Y-69532455D02*
X166663609Y-69484836D01*
X166663609Y-69484836D02*
X166711228Y-69389598D01*
X166711228Y-69389598D02*
X166711228Y-69008646D01*
X166187419Y-69865789D02*
X166187419Y-70437217D01*
X167187419Y-70151503D02*
X166187419Y-70151503D01*
X167282657Y-70532456D02*
X167282657Y-71294360D01*
X167187419Y-72103884D02*
X166711228Y-71770551D01*
X167187419Y-71532456D02*
X166187419Y-71532456D01*
X166187419Y-71532456D02*
X166187419Y-71913408D01*
X166187419Y-71913408D02*
X166235038Y-72008646D01*
X166235038Y-72008646D02*
X166282657Y-72056265D01*
X166282657Y-72056265D02*
X166377895Y-72103884D01*
X166377895Y-72103884D02*
X166520752Y-72103884D01*
X166520752Y-72103884D02*
X166615990Y-72056265D01*
X166615990Y-72056265D02*
X166663609Y-72008646D01*
X166663609Y-72008646D02*
X166711228Y-71913408D01*
X166711228Y-71913408D02*
X166711228Y-71532456D01*
X166187419Y-72437218D02*
X167187419Y-73103884D01*
X166187419Y-73103884D02*
X167187419Y-72437218D01*
X162107419Y-67675312D02*
X161631228Y-67341979D01*
X162107419Y-67103884D02*
X161107419Y-67103884D01*
X161107419Y-67103884D02*
X161107419Y-67484836D01*
X161107419Y-67484836D02*
X161155038Y-67580074D01*
X161155038Y-67580074D02*
X161202657Y-67627693D01*
X161202657Y-67627693D02*
X161297895Y-67675312D01*
X161297895Y-67675312D02*
X161440752Y-67675312D01*
X161440752Y-67675312D02*
X161535990Y-67627693D01*
X161535990Y-67627693D02*
X161583609Y-67580074D01*
X161583609Y-67580074D02*
X161631228Y-67484836D01*
X161631228Y-67484836D02*
X161631228Y-67103884D01*
X161583609Y-68103884D02*
X161583609Y-68437217D01*
X162107419Y-68580074D02*
X162107419Y-68103884D01*
X162107419Y-68103884D02*
X161107419Y-68103884D01*
X161107419Y-68103884D02*
X161107419Y-68580074D01*
X162059800Y-68961027D02*
X162107419Y-69103884D01*
X162107419Y-69103884D02*
X162107419Y-69341979D01*
X162107419Y-69341979D02*
X162059800Y-69437217D01*
X162059800Y-69437217D02*
X162012180Y-69484836D01*
X162012180Y-69484836D02*
X161916942Y-69532455D01*
X161916942Y-69532455D02*
X161821704Y-69532455D01*
X161821704Y-69532455D02*
X161726466Y-69484836D01*
X161726466Y-69484836D02*
X161678847Y-69437217D01*
X161678847Y-69437217D02*
X161631228Y-69341979D01*
X161631228Y-69341979D02*
X161583609Y-69151503D01*
X161583609Y-69151503D02*
X161535990Y-69056265D01*
X161535990Y-69056265D02*
X161488371Y-69008646D01*
X161488371Y-69008646D02*
X161393133Y-68961027D01*
X161393133Y-68961027D02*
X161297895Y-68961027D01*
X161297895Y-68961027D02*
X161202657Y-69008646D01*
X161202657Y-69008646D02*
X161155038Y-69056265D01*
X161155038Y-69056265D02*
X161107419Y-69151503D01*
X161107419Y-69151503D02*
X161107419Y-69389598D01*
X161107419Y-69389598D02*
X161155038Y-69532455D01*
X161583609Y-69961027D02*
X161583609Y-70294360D01*
X162107419Y-70437217D02*
X162107419Y-69961027D01*
X162107419Y-69961027D02*
X161107419Y-69961027D01*
X161107419Y-69961027D02*
X161107419Y-70437217D01*
X161107419Y-70722932D02*
X161107419Y-71294360D01*
X162107419Y-71008646D02*
X161107419Y-71008646D01*
X140787419Y-66961027D02*
X141787419Y-67294360D01*
X141787419Y-67294360D02*
X140787419Y-67627693D01*
X141787419Y-67961027D02*
X140787419Y-67961027D01*
X141787419Y-68437217D02*
X140787419Y-68437217D01*
X140787419Y-68437217D02*
X141787419Y-69008645D01*
X141787419Y-69008645D02*
X140787419Y-69008645D01*
X145915038Y-67627693D02*
X145867419Y-67532455D01*
X145867419Y-67532455D02*
X145867419Y-67389598D01*
X145867419Y-67389598D02*
X145915038Y-67246741D01*
X145915038Y-67246741D02*
X146010276Y-67151503D01*
X146010276Y-67151503D02*
X146105514Y-67103884D01*
X146105514Y-67103884D02*
X146295990Y-67056265D01*
X146295990Y-67056265D02*
X146438847Y-67056265D01*
X146438847Y-67056265D02*
X146629323Y-67103884D01*
X146629323Y-67103884D02*
X146724561Y-67151503D01*
X146724561Y-67151503D02*
X146819800Y-67246741D01*
X146819800Y-67246741D02*
X146867419Y-67389598D01*
X146867419Y-67389598D02*
X146867419Y-67484836D01*
X146867419Y-67484836D02*
X146819800Y-67627693D01*
X146819800Y-67627693D02*
X146772180Y-67675312D01*
X146772180Y-67675312D02*
X146438847Y-67675312D01*
X146438847Y-67675312D02*
X146438847Y-67484836D01*
X146867419Y-68103884D02*
X145867419Y-68103884D01*
X145867419Y-68103884D02*
X146867419Y-68675312D01*
X146867419Y-68675312D02*
X145867419Y-68675312D01*
X146867419Y-69151503D02*
X145867419Y-69151503D01*
X145867419Y-69151503D02*
X145867419Y-69389598D01*
X145867419Y-69389598D02*
X145915038Y-69532455D01*
X145915038Y-69532455D02*
X146010276Y-69627693D01*
X146010276Y-69627693D02*
X146105514Y-69675312D01*
X146105514Y-69675312D02*
X146295990Y-69722931D01*
X146295990Y-69722931D02*
X146438847Y-69722931D01*
X146438847Y-69722931D02*
X146629323Y-69675312D01*
X146629323Y-69675312D02*
X146724561Y-69627693D01*
X146724561Y-69627693D02*
X146819800Y-69532455D01*
X146819800Y-69532455D02*
X146867419Y-69389598D01*
X146867419Y-69389598D02*
X146867419Y-69151503D01*
X168727419Y-67103884D02*
X169536942Y-67103884D01*
X169536942Y-67103884D02*
X169632180Y-67151503D01*
X169632180Y-67151503D02*
X169679800Y-67199122D01*
X169679800Y-67199122D02*
X169727419Y-67294360D01*
X169727419Y-67294360D02*
X169727419Y-67484836D01*
X169727419Y-67484836D02*
X169679800Y-67580074D01*
X169679800Y-67580074D02*
X169632180Y-67627693D01*
X169632180Y-67627693D02*
X169536942Y-67675312D01*
X169536942Y-67675312D02*
X168727419Y-67675312D01*
X169441704Y-68103884D02*
X169441704Y-68580074D01*
X169727419Y-68008646D02*
X168727419Y-68341979D01*
X168727419Y-68341979D02*
X169727419Y-68675312D01*
X169727419Y-69580074D02*
X169251228Y-69246741D01*
X169727419Y-69008646D02*
X168727419Y-69008646D01*
X168727419Y-69008646D02*
X168727419Y-69389598D01*
X168727419Y-69389598D02*
X168775038Y-69484836D01*
X168775038Y-69484836D02*
X168822657Y-69532455D01*
X168822657Y-69532455D02*
X168917895Y-69580074D01*
X168917895Y-69580074D02*
X169060752Y-69580074D01*
X169060752Y-69580074D02*
X169155990Y-69532455D01*
X169155990Y-69532455D02*
X169203609Y-69484836D01*
X169203609Y-69484836D02*
X169251228Y-69389598D01*
X169251228Y-69389598D02*
X169251228Y-69008646D01*
X168727419Y-69865789D02*
X168727419Y-70437217D01*
X169727419Y-70151503D02*
X168727419Y-70151503D01*
X169822657Y-70532456D02*
X169822657Y-71294360D01*
X168727419Y-71389599D02*
X168727419Y-71961027D01*
X169727419Y-71675313D02*
X168727419Y-71675313D01*
X168727419Y-72199123D02*
X169727419Y-72865789D01*
X168727419Y-72865789D02*
X169727419Y-72199123D01*
X143327419Y-67008646D02*
X143327419Y-67627693D01*
X143327419Y-67627693D02*
X143708371Y-67294360D01*
X143708371Y-67294360D02*
X143708371Y-67437217D01*
X143708371Y-67437217D02*
X143755990Y-67532455D01*
X143755990Y-67532455D02*
X143803609Y-67580074D01*
X143803609Y-67580074D02*
X143898847Y-67627693D01*
X143898847Y-67627693D02*
X144136942Y-67627693D01*
X144136942Y-67627693D02*
X144232180Y-67580074D01*
X144232180Y-67580074D02*
X144279800Y-67532455D01*
X144279800Y-67532455D02*
X144327419Y-67437217D01*
X144327419Y-67437217D02*
X144327419Y-67151503D01*
X144327419Y-67151503D02*
X144279800Y-67056265D01*
X144279800Y-67056265D02*
X144232180Y-67008646D01*
X143327419Y-67913408D02*
X144327419Y-68246741D01*
X144327419Y-68246741D02*
X143327419Y-68580074D01*
X143327419Y-69103884D02*
X143327419Y-69199122D01*
X143327419Y-69199122D02*
X143375038Y-69294360D01*
X143375038Y-69294360D02*
X143422657Y-69341979D01*
X143422657Y-69341979D02*
X143517895Y-69389598D01*
X143517895Y-69389598D02*
X143708371Y-69437217D01*
X143708371Y-69437217D02*
X143946466Y-69437217D01*
X143946466Y-69437217D02*
X144136942Y-69389598D01*
X144136942Y-69389598D02*
X144232180Y-69341979D01*
X144232180Y-69341979D02*
X144279800Y-69294360D01*
X144279800Y-69294360D02*
X144327419Y-69199122D01*
X144327419Y-69199122D02*
X144327419Y-69103884D01*
X144327419Y-69103884D02*
X144279800Y-69008646D01*
X144279800Y-69008646D02*
X144232180Y-68961027D01*
X144232180Y-68961027D02*
X144136942Y-68913408D01*
X144136942Y-68913408D02*
X143946466Y-68865789D01*
X143946466Y-68865789D02*
X143708371Y-68865789D01*
X143708371Y-68865789D02*
X143517895Y-68913408D01*
X143517895Y-68913408D02*
X143422657Y-68961027D01*
X143422657Y-68961027D02*
X143375038Y-69008646D01*
X143375038Y-69008646D02*
X143327419Y-69103884D01*
X154487419Y-67103884D02*
X153487419Y-67103884D01*
X153487419Y-67103884D02*
X154201704Y-67437217D01*
X154201704Y-67437217D02*
X153487419Y-67770550D01*
X153487419Y-67770550D02*
X154487419Y-67770550D01*
X153487419Y-68437217D02*
X153487419Y-68627693D01*
X153487419Y-68627693D02*
X153535038Y-68722931D01*
X153535038Y-68722931D02*
X153630276Y-68818169D01*
X153630276Y-68818169D02*
X153820752Y-68865788D01*
X153820752Y-68865788D02*
X154154085Y-68865788D01*
X154154085Y-68865788D02*
X154344561Y-68818169D01*
X154344561Y-68818169D02*
X154439800Y-68722931D01*
X154439800Y-68722931D02*
X154487419Y-68627693D01*
X154487419Y-68627693D02*
X154487419Y-68437217D01*
X154487419Y-68437217D02*
X154439800Y-68341979D01*
X154439800Y-68341979D02*
X154344561Y-68246741D01*
X154344561Y-68246741D02*
X154154085Y-68199122D01*
X154154085Y-68199122D02*
X153820752Y-68199122D01*
X153820752Y-68199122D02*
X153630276Y-68246741D01*
X153630276Y-68246741D02*
X153535038Y-68341979D01*
X153535038Y-68341979D02*
X153487419Y-68437217D01*
X154439800Y-69246741D02*
X154487419Y-69389598D01*
X154487419Y-69389598D02*
X154487419Y-69627693D01*
X154487419Y-69627693D02*
X154439800Y-69722931D01*
X154439800Y-69722931D02*
X154392180Y-69770550D01*
X154392180Y-69770550D02*
X154296942Y-69818169D01*
X154296942Y-69818169D02*
X154201704Y-69818169D01*
X154201704Y-69818169D02*
X154106466Y-69770550D01*
X154106466Y-69770550D02*
X154058847Y-69722931D01*
X154058847Y-69722931D02*
X154011228Y-69627693D01*
X154011228Y-69627693D02*
X153963609Y-69437217D01*
X153963609Y-69437217D02*
X153915990Y-69341979D01*
X153915990Y-69341979D02*
X153868371Y-69294360D01*
X153868371Y-69294360D02*
X153773133Y-69246741D01*
X153773133Y-69246741D02*
X153677895Y-69246741D01*
X153677895Y-69246741D02*
X153582657Y-69294360D01*
X153582657Y-69294360D02*
X153535038Y-69341979D01*
X153535038Y-69341979D02*
X153487419Y-69437217D01*
X153487419Y-69437217D02*
X153487419Y-69675312D01*
X153487419Y-69675312D02*
X153535038Y-69818169D01*
X154487419Y-70246741D02*
X153487419Y-70246741D01*
X159043609Y-67437217D02*
X159091228Y-67580074D01*
X159091228Y-67580074D02*
X159138847Y-67627693D01*
X159138847Y-67627693D02*
X159234085Y-67675312D01*
X159234085Y-67675312D02*
X159376942Y-67675312D01*
X159376942Y-67675312D02*
X159472180Y-67627693D01*
X159472180Y-67627693D02*
X159519800Y-67580074D01*
X159519800Y-67580074D02*
X159567419Y-67484836D01*
X159567419Y-67484836D02*
X159567419Y-67103884D01*
X159567419Y-67103884D02*
X158567419Y-67103884D01*
X158567419Y-67103884D02*
X158567419Y-67437217D01*
X158567419Y-67437217D02*
X158615038Y-67532455D01*
X158615038Y-67532455D02*
X158662657Y-67580074D01*
X158662657Y-67580074D02*
X158757895Y-67627693D01*
X158757895Y-67627693D02*
X158853133Y-67627693D01*
X158853133Y-67627693D02*
X158948371Y-67580074D01*
X158948371Y-67580074D02*
X158995990Y-67532455D01*
X158995990Y-67532455D02*
X159043609Y-67437217D01*
X159043609Y-67437217D02*
X159043609Y-67103884D01*
X158567419Y-68103884D02*
X159376942Y-68103884D01*
X159376942Y-68103884D02*
X159472180Y-68151503D01*
X159472180Y-68151503D02*
X159519800Y-68199122D01*
X159519800Y-68199122D02*
X159567419Y-68294360D01*
X159567419Y-68294360D02*
X159567419Y-68484836D01*
X159567419Y-68484836D02*
X159519800Y-68580074D01*
X159519800Y-68580074D02*
X159472180Y-68627693D01*
X159472180Y-68627693D02*
X159376942Y-68675312D01*
X159376942Y-68675312D02*
X158567419Y-68675312D01*
X159519800Y-69103884D02*
X159567419Y-69246741D01*
X159567419Y-69246741D02*
X159567419Y-69484836D01*
X159567419Y-69484836D02*
X159519800Y-69580074D01*
X159519800Y-69580074D02*
X159472180Y-69627693D01*
X159472180Y-69627693D02*
X159376942Y-69675312D01*
X159376942Y-69675312D02*
X159281704Y-69675312D01*
X159281704Y-69675312D02*
X159186466Y-69627693D01*
X159186466Y-69627693D02*
X159138847Y-69580074D01*
X159138847Y-69580074D02*
X159091228Y-69484836D01*
X159091228Y-69484836D02*
X159043609Y-69294360D01*
X159043609Y-69294360D02*
X158995990Y-69199122D01*
X158995990Y-69199122D02*
X158948371Y-69151503D01*
X158948371Y-69151503D02*
X158853133Y-69103884D01*
X158853133Y-69103884D02*
X158757895Y-69103884D01*
X158757895Y-69103884D02*
X158662657Y-69151503D01*
X158662657Y-69151503D02*
X158615038Y-69199122D01*
X158615038Y-69199122D02*
X158567419Y-69294360D01*
X158567419Y-69294360D02*
X158567419Y-69532455D01*
X158567419Y-69532455D02*
X158615038Y-69675312D01*
X159091228Y-70294360D02*
X159567419Y-70294360D01*
X158567419Y-69961027D02*
X159091228Y-70294360D01*
X159091228Y-70294360D02*
X158567419Y-70627693D01*
X163695038Y-67627693D02*
X163647419Y-67532455D01*
X163647419Y-67532455D02*
X163647419Y-67389598D01*
X163647419Y-67389598D02*
X163695038Y-67246741D01*
X163695038Y-67246741D02*
X163790276Y-67151503D01*
X163790276Y-67151503D02*
X163885514Y-67103884D01*
X163885514Y-67103884D02*
X164075990Y-67056265D01*
X164075990Y-67056265D02*
X164218847Y-67056265D01*
X164218847Y-67056265D02*
X164409323Y-67103884D01*
X164409323Y-67103884D02*
X164504561Y-67151503D01*
X164504561Y-67151503D02*
X164599800Y-67246741D01*
X164599800Y-67246741D02*
X164647419Y-67389598D01*
X164647419Y-67389598D02*
X164647419Y-67484836D01*
X164647419Y-67484836D02*
X164599800Y-67627693D01*
X164599800Y-67627693D02*
X164552180Y-67675312D01*
X164552180Y-67675312D02*
X164218847Y-67675312D01*
X164218847Y-67675312D02*
X164218847Y-67484836D01*
X164647419Y-68103884D02*
X163647419Y-68103884D01*
X163647419Y-68103884D02*
X163647419Y-68484836D01*
X163647419Y-68484836D02*
X163695038Y-68580074D01*
X163695038Y-68580074D02*
X163742657Y-68627693D01*
X163742657Y-68627693D02*
X163837895Y-68675312D01*
X163837895Y-68675312D02*
X163980752Y-68675312D01*
X163980752Y-68675312D02*
X164075990Y-68627693D01*
X164075990Y-68627693D02*
X164123609Y-68580074D01*
X164123609Y-68580074D02*
X164171228Y-68484836D01*
X164171228Y-68484836D02*
X164171228Y-68103884D01*
X164647419Y-69103884D02*
X163647419Y-69103884D01*
X163647419Y-69770550D02*
X163647419Y-69961026D01*
X163647419Y-69961026D02*
X163695038Y-70056264D01*
X163695038Y-70056264D02*
X163790276Y-70151502D01*
X163790276Y-70151502D02*
X163980752Y-70199121D01*
X163980752Y-70199121D02*
X164314085Y-70199121D01*
X164314085Y-70199121D02*
X164504561Y-70151502D01*
X164504561Y-70151502D02*
X164599800Y-70056264D01*
X164599800Y-70056264D02*
X164647419Y-69961026D01*
X164647419Y-69961026D02*
X164647419Y-69770550D01*
X164647419Y-69770550D02*
X164599800Y-69675312D01*
X164599800Y-69675312D02*
X164504561Y-69580074D01*
X164504561Y-69580074D02*
X164314085Y-69532455D01*
X164314085Y-69532455D02*
X163980752Y-69532455D01*
X163980752Y-69532455D02*
X163790276Y-69580074D01*
X163790276Y-69580074D02*
X163695038Y-69675312D01*
X163695038Y-69675312D02*
X163647419Y-69770550D01*
X164742657Y-70389598D02*
X164742657Y-71151502D01*
X163647419Y-71580074D02*
X163647419Y-71675312D01*
X163647419Y-71675312D02*
X163695038Y-71770550D01*
X163695038Y-71770550D02*
X163742657Y-71818169D01*
X163742657Y-71818169D02*
X163837895Y-71865788D01*
X163837895Y-71865788D02*
X164028371Y-71913407D01*
X164028371Y-71913407D02*
X164266466Y-71913407D01*
X164266466Y-71913407D02*
X164456942Y-71865788D01*
X164456942Y-71865788D02*
X164552180Y-71818169D01*
X164552180Y-71818169D02*
X164599800Y-71770550D01*
X164599800Y-71770550D02*
X164647419Y-71675312D01*
X164647419Y-71675312D02*
X164647419Y-71580074D01*
X164647419Y-71580074D02*
X164599800Y-71484836D01*
X164599800Y-71484836D02*
X164552180Y-71437217D01*
X164552180Y-71437217D02*
X164456942Y-71389598D01*
X164456942Y-71389598D02*
X164266466Y-71341979D01*
X164266466Y-71341979D02*
X164028371Y-71341979D01*
X164028371Y-71341979D02*
X163837895Y-71389598D01*
X163837895Y-71389598D02*
X163742657Y-71437217D01*
X163742657Y-71437217D02*
X163695038Y-71484836D01*
X163695038Y-71484836D02*
X163647419Y-71580074D01*
X151947419Y-67103884D02*
X150947419Y-67103884D01*
X150947419Y-67103884D02*
X151661704Y-67437217D01*
X151661704Y-67437217D02*
X150947419Y-67770550D01*
X150947419Y-67770550D02*
X151947419Y-67770550D01*
X151947419Y-68246741D02*
X150947419Y-68246741D01*
X151899800Y-68675312D02*
X151947419Y-68818169D01*
X151947419Y-68818169D02*
X151947419Y-69056264D01*
X151947419Y-69056264D02*
X151899800Y-69151502D01*
X151899800Y-69151502D02*
X151852180Y-69199121D01*
X151852180Y-69199121D02*
X151756942Y-69246740D01*
X151756942Y-69246740D02*
X151661704Y-69246740D01*
X151661704Y-69246740D02*
X151566466Y-69199121D01*
X151566466Y-69199121D02*
X151518847Y-69151502D01*
X151518847Y-69151502D02*
X151471228Y-69056264D01*
X151471228Y-69056264D02*
X151423609Y-68865788D01*
X151423609Y-68865788D02*
X151375990Y-68770550D01*
X151375990Y-68770550D02*
X151328371Y-68722931D01*
X151328371Y-68722931D02*
X151233133Y-68675312D01*
X151233133Y-68675312D02*
X151137895Y-68675312D01*
X151137895Y-68675312D02*
X151042657Y-68722931D01*
X151042657Y-68722931D02*
X150995038Y-68770550D01*
X150995038Y-68770550D02*
X150947419Y-68865788D01*
X150947419Y-68865788D02*
X150947419Y-69103883D01*
X150947419Y-69103883D02*
X150995038Y-69246740D01*
X150947419Y-69865788D02*
X150947419Y-70056264D01*
X150947419Y-70056264D02*
X150995038Y-70151502D01*
X150995038Y-70151502D02*
X151090276Y-70246740D01*
X151090276Y-70246740D02*
X151280752Y-70294359D01*
X151280752Y-70294359D02*
X151614085Y-70294359D01*
X151614085Y-70294359D02*
X151804561Y-70246740D01*
X151804561Y-70246740D02*
X151899800Y-70151502D01*
X151899800Y-70151502D02*
X151947419Y-70056264D01*
X151947419Y-70056264D02*
X151947419Y-69865788D01*
X151947419Y-69865788D02*
X151899800Y-69770550D01*
X151899800Y-69770550D02*
X151804561Y-69675312D01*
X151804561Y-69675312D02*
X151614085Y-69627693D01*
X151614085Y-69627693D02*
X151280752Y-69627693D01*
X151280752Y-69627693D02*
X151090276Y-69675312D01*
X151090276Y-69675312D02*
X150995038Y-69770550D01*
X150995038Y-69770550D02*
X150947419Y-69865788D01*
D10*
X125866428Y-86824318D02*
X126289762Y-86219556D01*
X126592143Y-86824318D02*
X126592143Y-85554318D01*
X126592143Y-85554318D02*
X126108333Y-85554318D01*
X126108333Y-85554318D02*
X125987381Y-85614794D01*
X125987381Y-85614794D02*
X125926904Y-85675270D01*
X125926904Y-85675270D02*
X125866428Y-85796222D01*
X125866428Y-85796222D02*
X125866428Y-85977651D01*
X125866428Y-85977651D02*
X125926904Y-86098603D01*
X125926904Y-86098603D02*
X125987381Y-86159080D01*
X125987381Y-86159080D02*
X126108333Y-86219556D01*
X126108333Y-86219556D02*
X126592143Y-86219556D01*
X124656904Y-86824318D02*
X125382619Y-86824318D01*
X125019762Y-86824318D02*
X125019762Y-85554318D01*
X125019762Y-85554318D02*
X125140714Y-85735746D01*
X125140714Y-85735746D02*
X125261666Y-85856699D01*
X125261666Y-85856699D02*
X125382619Y-85917175D01*
X123447380Y-86824318D02*
X124173095Y-86824318D01*
X123810238Y-86824318D02*
X123810238Y-85554318D01*
X123810238Y-85554318D02*
X123931190Y-85735746D01*
X123931190Y-85735746D02*
X124052142Y-85856699D01*
X124052142Y-85856699D02*
X124173095Y-85917175D01*
X147739762Y-106824318D02*
X147739762Y-105554318D01*
X146409285Y-106703365D02*
X146469761Y-106763842D01*
X146469761Y-106763842D02*
X146651190Y-106824318D01*
X146651190Y-106824318D02*
X146772142Y-106824318D01*
X146772142Y-106824318D02*
X146953571Y-106763842D01*
X146953571Y-106763842D02*
X147074523Y-106642889D01*
X147074523Y-106642889D02*
X147135000Y-106521937D01*
X147135000Y-106521937D02*
X147195476Y-106280032D01*
X147195476Y-106280032D02*
X147195476Y-106098603D01*
X147195476Y-106098603D02*
X147135000Y-105856699D01*
X147135000Y-105856699D02*
X147074523Y-105735746D01*
X147074523Y-105735746D02*
X146953571Y-105614794D01*
X146953571Y-105614794D02*
X146772142Y-105554318D01*
X146772142Y-105554318D02*
X146651190Y-105554318D01*
X146651190Y-105554318D02*
X146469761Y-105614794D01*
X146469761Y-105614794D02*
X146409285Y-105675270D01*
X145199761Y-106824318D02*
X145925476Y-106824318D01*
X145562619Y-106824318D02*
X145562619Y-105554318D01*
X145562619Y-105554318D02*
X145683571Y-105735746D01*
X145683571Y-105735746D02*
X145804523Y-105856699D01*
X145804523Y-105856699D02*
X145925476Y-105917175D01*
X142461666Y-114465365D02*
X142522142Y-114525842D01*
X142522142Y-114525842D02*
X142703571Y-114586318D01*
X142703571Y-114586318D02*
X142824523Y-114586318D01*
X142824523Y-114586318D02*
X143005952Y-114525842D01*
X143005952Y-114525842D02*
X143126904Y-114404889D01*
X143126904Y-114404889D02*
X143187381Y-114283937D01*
X143187381Y-114283937D02*
X143247857Y-114042032D01*
X143247857Y-114042032D02*
X143247857Y-113860603D01*
X143247857Y-113860603D02*
X143187381Y-113618699D01*
X143187381Y-113618699D02*
X143126904Y-113497746D01*
X143126904Y-113497746D02*
X143005952Y-113376794D01*
X143005952Y-113376794D02*
X142824523Y-113316318D01*
X142824523Y-113316318D02*
X142703571Y-113316318D01*
X142703571Y-113316318D02*
X142522142Y-113376794D01*
X142522142Y-113376794D02*
X142461666Y-113437270D01*
X141252142Y-114586318D02*
X141977857Y-114586318D01*
X141615000Y-114586318D02*
X141615000Y-113316318D01*
X141615000Y-113316318D02*
X141735952Y-113497746D01*
X141735952Y-113497746D02*
X141856904Y-113618699D01*
X141856904Y-113618699D02*
X141977857Y-113679175D01*
X136761666Y-108574318D02*
X137185000Y-107969556D01*
X137487381Y-108574318D02*
X137487381Y-107304318D01*
X137487381Y-107304318D02*
X137003571Y-107304318D01*
X137003571Y-107304318D02*
X136882619Y-107364794D01*
X136882619Y-107364794D02*
X136822142Y-107425270D01*
X136822142Y-107425270D02*
X136761666Y-107546222D01*
X136761666Y-107546222D02*
X136761666Y-107727651D01*
X136761666Y-107727651D02*
X136822142Y-107848603D01*
X136822142Y-107848603D02*
X136882619Y-107909080D01*
X136882619Y-107909080D02*
X137003571Y-107969556D01*
X137003571Y-107969556D02*
X137487381Y-107969556D01*
X136338333Y-107304318D02*
X135491666Y-107304318D01*
X135491666Y-107304318D02*
X136035952Y-108574318D01*
X179237381Y-66324318D02*
X179237381Y-65054318D01*
X179237381Y-65054318D02*
X178935000Y-65054318D01*
X178935000Y-65054318D02*
X178753571Y-65114794D01*
X178753571Y-65114794D02*
X178632619Y-65235746D01*
X178632619Y-65235746D02*
X178572142Y-65356699D01*
X178572142Y-65356699D02*
X178511666Y-65598603D01*
X178511666Y-65598603D02*
X178511666Y-65780032D01*
X178511666Y-65780032D02*
X178572142Y-66021937D01*
X178572142Y-66021937D02*
X178632619Y-66142889D01*
X178632619Y-66142889D02*
X178753571Y-66263842D01*
X178753571Y-66263842D02*
X178935000Y-66324318D01*
X178935000Y-66324318D02*
X179237381Y-66324318D01*
X177302142Y-66324318D02*
X178027857Y-66324318D01*
X177665000Y-66324318D02*
X177665000Y-65054318D01*
X177665000Y-65054318D02*
X177785952Y-65235746D01*
X177785952Y-65235746D02*
X177906904Y-65356699D01*
X177906904Y-65356699D02*
X178027857Y-65417175D01*
X147911666Y-115965365D02*
X147972142Y-116025842D01*
X147972142Y-116025842D02*
X148153571Y-116086318D01*
X148153571Y-116086318D02*
X148274523Y-116086318D01*
X148274523Y-116086318D02*
X148455952Y-116025842D01*
X148455952Y-116025842D02*
X148576904Y-115904889D01*
X148576904Y-115904889D02*
X148637381Y-115783937D01*
X148637381Y-115783937D02*
X148697857Y-115542032D01*
X148697857Y-115542032D02*
X148697857Y-115360603D01*
X148697857Y-115360603D02*
X148637381Y-115118699D01*
X148637381Y-115118699D02*
X148576904Y-114997746D01*
X148576904Y-114997746D02*
X148455952Y-114876794D01*
X148455952Y-114876794D02*
X148274523Y-114816318D01*
X148274523Y-114816318D02*
X148153571Y-114816318D01*
X148153571Y-114816318D02*
X147972142Y-114876794D01*
X147972142Y-114876794D02*
X147911666Y-114937270D01*
X146823095Y-114816318D02*
X147065000Y-114816318D01*
X147065000Y-114816318D02*
X147185952Y-114876794D01*
X147185952Y-114876794D02*
X147246428Y-114937270D01*
X147246428Y-114937270D02*
X147367381Y-115118699D01*
X147367381Y-115118699D02*
X147427857Y-115360603D01*
X147427857Y-115360603D02*
X147427857Y-115844413D01*
X147427857Y-115844413D02*
X147367381Y-115965365D01*
X147367381Y-115965365D02*
X147306904Y-116025842D01*
X147306904Y-116025842D02*
X147185952Y-116086318D01*
X147185952Y-116086318D02*
X146944047Y-116086318D01*
X146944047Y-116086318D02*
X146823095Y-116025842D01*
X146823095Y-116025842D02*
X146762619Y-115965365D01*
X146762619Y-115965365D02*
X146702142Y-115844413D01*
X146702142Y-115844413D02*
X146702142Y-115542032D01*
X146702142Y-115542032D02*
X146762619Y-115421080D01*
X146762619Y-115421080D02*
X146823095Y-115360603D01*
X146823095Y-115360603D02*
X146944047Y-115300127D01*
X146944047Y-115300127D02*
X147185952Y-115300127D01*
X147185952Y-115300127D02*
X147306904Y-115360603D01*
X147306904Y-115360603D02*
X147367381Y-115421080D01*
X147367381Y-115421080D02*
X147427857Y-115542032D01*
D12*
%TO.C,SW2*%
X165300000Y-104400000D02*
X165300000Y-104400000D01*
X165300000Y-104600000D02*
X165300000Y-104600000D01*
D11*
X167300000Y-103400000D02*
X167300000Y-110600000D01*
X167300000Y-110600000D02*
X170300000Y-110600000D01*
X170300000Y-103400000D02*
X167300000Y-103400000D01*
X170300000Y-105500000D02*
X171300000Y-105500000D01*
X170300000Y-110600000D02*
X170300000Y-103400000D01*
X171300000Y-105500000D02*
X171300000Y-107000000D01*
X171300000Y-107000000D02*
X170300000Y-107000000D01*
D12*
X165300000Y-104400000D02*
G75*
G02*
X165300000Y-104600000I0J-100000D01*
G01*
X165300000Y-104600000D02*
G75*
G02*
X165300000Y-104400000I0J100000D01*
G01*
%TO.C,R1*%
X174300000Y-66050000D02*
X174300000Y-65450000D01*
%TO.C,R2*%
X166000000Y-132340000D02*
X166600000Y-132340000D01*
%TO.C,R3*%
X163600000Y-132340000D02*
X163000000Y-132340000D01*
%TO.C,BT2*%
X173000000Y-68700000D02*
X173000000Y-100700000D01*
X173000000Y-100700000D02*
X180460000Y-100700000D01*
X180460000Y-68700000D02*
X173000000Y-68700000D01*
D11*
X183000000Y-68100000D02*
X183000000Y-68100000D01*
X183000000Y-68200000D02*
X183000000Y-68200000D01*
D12*
X185540000Y-100700000D02*
X193000000Y-100700000D01*
X193000000Y-68700000D02*
X185540000Y-68700000D01*
X193000000Y-100700000D02*
X193000000Y-68700000D01*
D11*
X183000000Y-68100000D02*
G75*
G02*
X183000000Y-68200000I0J-50000D01*
G01*
X183000000Y-68200000D02*
G75*
G02*
X183000000Y-68100000I0J50000D01*
G01*
D12*
%TO.C,R5*%
X161800000Y-107300000D02*
X161800000Y-106700000D01*
%TO.C,R4*%
X156100000Y-132340000D02*
X155500000Y-132340000D01*
%TO.C,R9*%
X179450000Y-116500000D02*
X180050000Y-116500000D01*
%TO.C,R10*%
X125050000Y-83950000D02*
X125050000Y-84550000D01*
%TO.C,IC2*%
D11*
X139250000Y-96000000D02*
X171250000Y-96000000D01*
X171250000Y-63000000D01*
X139250000Y-63000000D01*
X139250000Y-96000000D01*
D12*
%TO.C,R11*%
X125050000Y-85950000D02*
X125050000Y-86550000D01*
%TO.C,IC1*%
X143350000Y-103100000D02*
X143350000Y-109400000D01*
X143350000Y-109400000D02*
X149650000Y-109400000D01*
X149650000Y-103100000D02*
X143350000Y-103100000D01*
X149650000Y-109400000D02*
X149650000Y-103100000D01*
D13*
X151350000Y-102750000D02*
G75*
G02*
X151100000Y-102750000I-125000J0D01*
G01*
X151100000Y-102750000D02*
G75*
G02*
X151350000Y-102750000I125000J0D01*
G01*
D12*
%TO.C,R7*%
X136550000Y-108300000D02*
X136550000Y-107700000D01*
D11*
%TO.C,D1*%
X176600000Y-65750000D02*
X176600000Y-65750000D01*
X176700000Y-65750000D02*
X176700000Y-65750000D01*
X176600000Y-65750000D02*
G75*
G02*
X176700000Y-65750000I50000J0D01*
G01*
X176700000Y-65750000D02*
G75*
G02*
X176600000Y-65750000I-50000J0D01*
G01*
%TD*%
M02*
