M48
; DRILL file {KiCad 9.0.6-1.fc43} date 2025-12-17T22:37:08-0500
; FORMAT={-:-/ absolute / metric / decimal}
; #@! TF.CreationDate,2025-12-17T22:37:08-05:00
; #@! TF.GenerationSoftware,Kicad,Pcbnew,9.0.6-1.fc43
; #@! TF.FileFunction,Plated,1,4,PTH
FMAT,2
METRIC
; #@! TA.AperFunction,Plated,PTH,ViaDrill
T1C0.300
; #@! TA.AperFunction,Plated,PTH,ComponentDrill
T2C0.850
; #@! TA.AperFunction,Plated,PTH,ComponentDrill
T3C1.150
; #@! TA.AperFunction,Plated,PTH,ComponentDrill
T4C1.200
; #@! TA.AperFunction,Plated,PTH,ComponentDrill
T5C1.300
; #@! TA.AperFunction,Plated,PTH,ComponentDrill
T6C1.400
%
G90
G05
T1
X126.5Y-86.75
X126.5Y-87.75
X129.5Y-82.25
X131.5Y-85.75
X132.75Y-119.0
X133.25Y-110.5
X133.5Y-94.25
X133.75Y-88.25
X133.75Y-91.25
X134.5Y-81.25
X137.75Y-82.75
X137.75Y-84.25
X138.0Y-99.0
X138.75Y-108.0
X139.25Y-103.25
X140.25Y-115.5
X140.5Y-101.5
X142.0Y-119.0
X142.1Y-98.6
X142.544Y-97.934
X144.0Y-85.0
X144.0Y-98.0
X144.0Y-99.0
X144.0Y-100.0
X144.75Y-117.5
X145.5Y-116.75
X145.516Y-94.6
X146.0Y-105.0
X146.092Y-98.441
X146.319Y-96.667
X146.5Y-106.5
X147.0Y-116.75
X148.5Y-79.0
X149.0Y-99.0
X149.25Y-115.5
X150.25Y-119.0
X150.75Y-99.0
X151.0Y-91.5
X151.25Y-102.75
X152.25Y-108.5
X153.05Y-108.5
X153.85Y-108.5
X154.65Y-108.5
X155.45Y-108.5
X155.75Y-134.5
X156.0Y-105.0
X156.25Y-108.5
X159.5Y-119.0
X161.375Y-114.375
X163.25Y-134.5
X164.5Y-103.75
X164.75Y-109.75
X166.25Y-134.5
X168.5Y-119.5
X173.5Y-64.5
X174.5Y-110.0
X177.5Y-119.35
X178.25Y-103.5
X178.25Y-120.75
X180.75Y-114.5
X181.0Y-65.75
X182.75Y-101.75
X182.75Y-121.5
X183.0Y-68.25
X183.0Y-120.5
X183.5Y-114.75
X184.25Y-120.5
X184.694Y-107.194
X185.5Y-121.75
X187.25Y-119.25
T2
X168.8Y-105.5
X168.8Y-108.5
T3
X143.18Y-126.96
X143.18Y-129.5
X145.72Y-126.96
X145.72Y-129.5
X148.26Y-126.96
X148.26Y-129.5
X150.8Y-126.96
X150.8Y-129.5
X153.34Y-126.96
X153.34Y-129.5
X155.88Y-126.96
X155.88Y-129.5
X158.42Y-126.96
X158.42Y-129.5
X160.96Y-126.96
X160.96Y-129.5
X163.5Y-126.96
X163.5Y-129.5
X166.04Y-126.96
X166.04Y-129.5
T4
X128.25Y-133.975
X130.75Y-133.975
X133.25Y-133.975
X176.75Y-134.0
X179.25Y-134.0
X181.75Y-134.0
T5
X141.52Y-65.53
X144.02Y-65.53
X146.52Y-65.53
X149.02Y-65.53
X151.52Y-65.53
X154.02Y-65.53
X156.52Y-65.53
X159.02Y-65.53
X161.52Y-65.53
X164.02Y-65.53
X166.52Y-65.53
X169.02Y-65.53
T6
G00X125.7Y-126.475
M15
G01X126.3Y-126.475
M16
G05
G00X135.2Y-126.475
M15
G01X135.8Y-126.475
M16
G05
G00X174.2Y-126.5
M15
G01X174.8Y-126.5
M16
G05
G00X183.7Y-126.5
M15
G01X184.3Y-126.5
M16
G05
M30
