%TF.GenerationSoftware,KiCad,Pcbnew,9.0.6*%
%TF.CreationDate,2025-12-08T21:47:25-05:00*%
%TF.ProjectId,electrical,656c6563-7472-4696-9361-6c2e6b696361,rev?*%
%TF.SameCoordinates,Original*%
%TF.FileFunction,Copper,L2,Inr*%
%TF.FilePolarity,Positive*%
%FSLAX46Y46*%
G04 Gerber Fmt 4.6, Leading zero omitted, Abs format (unit mm)*
G04 Created by KiCad (PCBNEW 9.0.6) date 2025-12-08 21:47:25*
%MOMM*%
%LPD*%
G01*
G04 APERTURE LIST*
%TA.AperFunction,ComponentPad*%
%ADD10C,2.200000*%
%TD*%
%TA.AperFunction,ComponentPad*%
%ADD11C,1.300000*%
%TD*%
%TA.AperFunction,ComponentPad*%
%ADD12R,1.950000X1.950000*%
%TD*%
%TA.AperFunction,ComponentPad*%
%ADD13C,1.950000*%
%TD*%
%TA.AperFunction,ViaPad*%
%ADD14C,0.600000*%
%TD*%
%TA.AperFunction,Conductor*%
%ADD15C,0.200000*%
%TD*%
G04 APERTURE END LIST*
D10*
%TO.N,/Controls/POT_1*%
%TO.C,RV1*%
X141100000Y-125000000D03*
%TO.N,/Connectivity/GND*%
X136100000Y-125000000D03*
%TO.N,/Connectivity/3V0*%
X131100000Y-125000000D03*
%TD*%
%TO.N,/Controls/POT_2*%
%TO.C,RV2*%
X186100000Y-125000000D03*
%TO.N,/Connectivity/GND*%
X181100000Y-125000000D03*
%TO.N,/Connectivity/3V0*%
X176100000Y-125000000D03*
%TD*%
D11*
%TO.N,unconnected-(S1-NC_1-PadA1)*%
%TO.C,S1*%
X161030000Y-119430000D03*
%TO.N,Net-(S1-COM_1)*%
X158530000Y-119430000D03*
%TO.N,/Connectivity/3V0*%
X156030000Y-119430000D03*
%TO.N,unconnected-(S1-NC_2-PadB1)*%
X161030000Y-116230000D03*
%TO.N,Net-(S1-COM_1)*%
X158530000Y-116230000D03*
%TO.N,/Connectivity/GND*%
X156030000Y-116230000D03*
%TD*%
D12*
%TO.N,/Connectivity/3V0*%
%TO.C,U1*%
X144870000Y-66030000D03*
D13*
%TO.N,unconnected-(U1-3V0_OUT-Pad2)*%
X147370000Y-66030000D03*
%TO.N,/Connectivity/GND*%
X149870000Y-66030000D03*
%TO.N,/Connectivity/WIFI_SCK*%
X152370000Y-66030000D03*
%TO.N,/Connectivity/WIFI_MISO*%
X154870000Y-66030000D03*
%TO.N,/Connectivity/WIFI_MOSI*%
X157370000Y-66030000D03*
%TO.N,/Connectivity/WIFI_CS*%
X159870000Y-66030000D03*
%TO.N,/Connectivity/WIFI_BUSY*%
X162370000Y-66030000D03*
%TO.N,/Connectivity/WIFI_RESET*%
X164870000Y-66030000D03*
%TO.N,unconnected-(U1-GPIO_0-Pad10)*%
X167370000Y-66030000D03*
%TO.N,unconnected-(U1-UART_RX-Pad11)*%
X169870000Y-66030000D03*
%TO.N,unconnected-(U1-UART_TX-Pad12)*%
X172370000Y-66030000D03*
%TD*%
D14*
%TO.N,/Display/SCREEN_CS*%
X173130000Y-72330000D03*
X134730000Y-64330000D03*
%TO.N,/Display/SCREEN_D_C*%
X173130000Y-73230000D03*
X133430000Y-64930000D03*
%TO.N,/Display/SCREEN_RST*%
X173130000Y-69030000D03*
X139430000Y-65630000D03*
%TO.N,/Display/SCREEN_BUSY*%
X137630000Y-66230000D03*
X173130000Y-71130000D03*
%TO.N,/Display/1V8*%
X138180000Y-92730000D03*
X132830000Y-77030000D03*
%TO.N,/Display/VSH1*%
X125930000Y-81630000D03*
%TO.N,/Display/VSL*%
X131830000Y-84730000D03*
%TO.N,/Display/VCOM*%
X130330000Y-87230000D03*
%TO.N,/Display/VSH2*%
X131330000Y-71730000D03*
%TO.N,/Display/VGH*%
X125930000Y-85330000D03*
%TO.N,/Display/VGL*%
X131830000Y-85730000D03*
%TO.N,/Display/SCREEN_SCL*%
X135430000Y-63730000D03*
X173130000Y-70030000D03*
%TO.N,/Processor/BOOT0*%
X179830000Y-70130000D03*
%TO.N,/Connectivity/GND*%
X180000000Y-94200000D03*
X185000000Y-75700000D03*
X131500000Y-77600000D03*
X137100000Y-73300000D03*
X184800000Y-136500000D03*
X176900000Y-111800000D03*
X167600000Y-105000000D03*
X137300000Y-85300000D03*
X142500000Y-97900000D03*
X165300000Y-78700000D03*
X178700000Y-97400000D03*
X166900000Y-82700000D03*
X193500000Y-83200000D03*
X162400000Y-82400000D03*
X169200000Y-81100000D03*
X191500000Y-94300000D03*
X126700000Y-111800000D03*
X177900000Y-80000000D03*
X188700000Y-96800000D03*
X170000000Y-130000000D03*
X170200000Y-76000000D03*
X152600000Y-82400000D03*
X178700000Y-75600000D03*
X167200000Y-86600000D03*
X188400000Y-94300000D03*
X196600000Y-81700000D03*
X136100000Y-89400000D03*
X137700000Y-135700000D03*
X136800000Y-93100000D03*
X137200000Y-82300000D03*
X189500000Y-91100000D03*
X196600000Y-75400000D03*
X172400000Y-87400000D03*
X136900000Y-75700000D03*
X184600000Y-94500000D03*
X181100000Y-90900000D03*
X132700000Y-96500000D03*
X193400000Y-76700000D03*
X166400000Y-88600000D03*
X177100000Y-69500000D03*
X138500000Y-128800000D03*
X141100000Y-112100000D03*
X136200000Y-71500000D03*
X190800000Y-111700000D03*
X166200000Y-85000000D03*
X183600000Y-70100000D03*
X183800000Y-134300000D03*
X149600000Y-105000000D03*
X128600000Y-82500000D03*
X137100000Y-79200000D03*
%TO.N,/Controls/ADXL_SDO*%
X189500000Y-86000000D03*
%TO.N,/Controls/ADXL_CS*%
X193950000Y-95150000D03*
%TO.N,/Controls/ADXL_INT2*%
X195600000Y-86500000D03*
%TO.N,/Controls/ADXL_SDI*%
X194000000Y-93050000D03*
%TO.N,/Controls/ADXL_SCL*%
X194300000Y-88300000D03*
%TO.N,/Controls/ADXL_INT1*%
X194800000Y-86500000D03*
%TO.N,/Connectivity/3V0*%
X180100000Y-92200000D03*
X171400000Y-76100000D03*
X186800000Y-96900000D03*
X122600000Y-106400000D03*
X188400000Y-91300000D03*
X193400000Y-75500000D03*
X131930000Y-75230000D03*
X173800000Y-87300000D03*
X152600000Y-79700000D03*
X193500000Y-81700000D03*
X185400000Y-92200000D03*
X172200000Y-81200000D03*
X173900000Y-107600000D03*
X183600000Y-72200000D03*
X181600000Y-97400000D03*
X185000000Y-134300000D03*
X177000000Y-71900000D03*
X181500000Y-130100000D03*
X187500000Y-135300000D03*
X191500000Y-91100000D03*
X181200000Y-134400000D03*
X145000000Y-130000000D03*
X127030000Y-82630000D03*
X185000000Y-129300000D03*
%TO.N,/Display/SCREEN_SDA*%
X130630000Y-63130000D03*
X173130000Y-74230000D03*
%TO.N,/Display/GDR*%
X126130000Y-74430000D03*
%TO.N,/Display/RESE*%
X124530000Y-76430000D03*
%TO.N,/Connectivity/WIFI_CS*%
X185830000Y-65530000D03*
%TD*%
D15*
%TO.N,/Connectivity/GND*%
X180100000Y-120000000D02*
X180000000Y-120000000D01*
X181100000Y-119000000D02*
X180100000Y-120000000D01*
%TD*%
%TA.AperFunction,Conductor*%
%TO.N,/Connectivity/GND*%
G36*
X200542539Y-55520185D02*
G01*
X200588294Y-55572989D01*
X200599500Y-55624500D01*
X200599500Y-144375500D01*
X200579815Y-144442539D01*
X200527011Y-144488294D01*
X200475500Y-144499500D01*
X116724500Y-144499500D01*
X116657461Y-144479815D01*
X116611706Y-144427011D01*
X116600500Y-144375500D01*
X116600500Y-139323713D01*
X119749500Y-139323713D01*
X119749500Y-139536286D01*
X119782753Y-139746239D01*
X119848444Y-139948414D01*
X119944951Y-140137820D01*
X120069890Y-140309786D01*
X120220213Y-140460109D01*
X120392179Y-140585048D01*
X120392181Y-140585049D01*
X120392184Y-140585051D01*
X120581588Y-140681557D01*
X120783757Y-140747246D01*
X120993713Y-140780500D01*
X120993714Y-140780500D01*
X121206286Y-140780500D01*
X121206287Y-140780500D01*
X121416243Y-140747246D01*
X121618412Y-140681557D01*
X121807816Y-140585051D01*
X121829789Y-140569086D01*
X121979786Y-140460109D01*
X121979788Y-140460106D01*
X121979792Y-140460104D01*
X122130104Y-140309792D01*
X122130106Y-140309788D01*
X122130109Y-140309786D01*
X122255048Y-140137820D01*
X122255047Y-140137820D01*
X122255051Y-140137816D01*
X122351557Y-139948412D01*
X122417246Y-139746243D01*
X122450500Y-139536287D01*
X122450500Y-139323713D01*
X194749500Y-139323713D01*
X194749500Y-139536286D01*
X194782753Y-139746239D01*
X194848444Y-139948414D01*
X194944951Y-140137820D01*
X195069890Y-140309786D01*
X195220213Y-140460109D01*
X195392179Y-140585048D01*
X195392181Y-140585049D01*
X195392184Y-140585051D01*
X195581588Y-140681557D01*
X195783757Y-140747246D01*
X195993713Y-140780500D01*
X195993714Y-140780500D01*
X196206286Y-140780500D01*
X196206287Y-140780500D01*
X196416243Y-140747246D01*
X196618412Y-140681557D01*
X196807816Y-140585051D01*
X196829789Y-140569086D01*
X196979786Y-140460109D01*
X196979788Y-140460106D01*
X196979792Y-140460104D01*
X197130104Y-140309792D01*
X197130106Y-140309788D01*
X197130109Y-140309786D01*
X197255048Y-140137820D01*
X197255047Y-140137820D01*
X197255051Y-140137816D01*
X197351557Y-139948412D01*
X197417246Y-139746243D01*
X197450500Y-139536287D01*
X197450500Y-139323713D01*
X197417246Y-139113757D01*
X197351557Y-138911588D01*
X197255051Y-138722184D01*
X197255049Y-138722181D01*
X197255048Y-138722179D01*
X197130109Y-138550213D01*
X196979786Y-138399890D01*
X196807820Y-138274951D01*
X196618414Y-138178444D01*
X196618413Y-138178443D01*
X196618412Y-138178443D01*
X196416243Y-138112754D01*
X196416241Y-138112753D01*
X196416240Y-138112753D01*
X196254957Y-138087208D01*
X196206287Y-138079500D01*
X195993713Y-138079500D01*
X195945042Y-138087208D01*
X195783760Y-138112753D01*
X195581585Y-138178444D01*
X195392179Y-138274951D01*
X195220213Y-138399890D01*
X195069890Y-138550213D01*
X194944951Y-138722179D01*
X194848444Y-138911585D01*
X194782753Y-139113760D01*
X194749500Y-139323713D01*
X122450500Y-139323713D01*
X122417246Y-139113757D01*
X122351557Y-138911588D01*
X122255051Y-138722184D01*
X122255049Y-138722181D01*
X122255048Y-138722179D01*
X122130109Y-138550213D01*
X121979786Y-138399890D01*
X121807820Y-138274951D01*
X121618414Y-138178444D01*
X121618413Y-138178443D01*
X121618412Y-138178443D01*
X121416243Y-138112754D01*
X121416241Y-138112753D01*
X121416240Y-138112753D01*
X121254957Y-138087208D01*
X121206287Y-138079500D01*
X120993713Y-138079500D01*
X120945042Y-138087208D01*
X120783760Y-138112753D01*
X120581585Y-138178444D01*
X120392179Y-138274951D01*
X120220213Y-138399890D01*
X120069890Y-138550213D01*
X119944951Y-138722179D01*
X119848444Y-138911585D01*
X119782753Y-139113760D01*
X119749500Y-139323713D01*
X116600500Y-139323713D01*
X116600500Y-135221153D01*
X186699500Y-135221153D01*
X186699500Y-135378846D01*
X186730261Y-135533489D01*
X186730264Y-135533501D01*
X186790602Y-135679172D01*
X186790609Y-135679185D01*
X186878210Y-135810288D01*
X186878213Y-135810292D01*
X186989707Y-135921786D01*
X186989711Y-135921789D01*
X187120814Y-136009390D01*
X187120827Y-136009397D01*
X187266498Y-136069735D01*
X187266503Y-136069737D01*
X187421153Y-136100499D01*
X187421156Y-136100500D01*
X187421158Y-136100500D01*
X187578844Y-136100500D01*
X187578845Y-136100499D01*
X187733497Y-136069737D01*
X187879179Y-136009394D01*
X188010289Y-135921789D01*
X188121789Y-135810289D01*
X188209394Y-135679179D01*
X188269737Y-135533497D01*
X188300500Y-135378842D01*
X188300500Y-135221158D01*
X188300500Y-135221155D01*
X188300499Y-135221153D01*
X188278269Y-135109397D01*
X188269737Y-135066503D01*
X188209794Y-134921786D01*
X188209397Y-134920827D01*
X188209390Y-134920814D01*
X188121789Y-134789711D01*
X188121786Y-134789707D01*
X188010292Y-134678213D01*
X188010288Y-134678210D01*
X187879185Y-134590609D01*
X187879172Y-134590602D01*
X187733501Y-134530264D01*
X187733489Y-134530261D01*
X187578845Y-134499500D01*
X187578842Y-134499500D01*
X187421158Y-134499500D01*
X187421155Y-134499500D01*
X187266510Y-134530261D01*
X187266498Y-134530264D01*
X187120827Y-134590602D01*
X187120814Y-134590609D01*
X186989711Y-134678210D01*
X186989707Y-134678213D01*
X186878213Y-134789707D01*
X186878210Y-134789711D01*
X186790609Y-134920814D01*
X186790602Y-134920827D01*
X186730264Y-135066498D01*
X186730261Y-135066510D01*
X186699500Y-135221153D01*
X116600500Y-135221153D01*
X116600500Y-134321153D01*
X180399500Y-134321153D01*
X180399500Y-134478846D01*
X180430261Y-134633489D01*
X180430264Y-134633501D01*
X180490602Y-134779172D01*
X180490609Y-134779185D01*
X180578210Y-134910288D01*
X180578213Y-134910292D01*
X180689707Y-135021786D01*
X180689711Y-135021789D01*
X180820814Y-135109390D01*
X180820827Y-135109397D01*
X180966498Y-135169735D01*
X180966503Y-135169737D01*
X181121153Y-135200499D01*
X181121156Y-135200500D01*
X181121158Y-135200500D01*
X181278844Y-135200500D01*
X181278845Y-135200499D01*
X181433497Y-135169737D01*
X181579179Y-135109394D01*
X181710289Y-135021789D01*
X181821789Y-134910289D01*
X181909394Y-134779179D01*
X181969737Y-134633497D01*
X182000500Y-134478842D01*
X182000500Y-134321158D01*
X182000500Y-134321155D01*
X181984209Y-134239258D01*
X181984209Y-134239257D01*
X181980608Y-134221153D01*
X184199500Y-134221153D01*
X184199500Y-134378846D01*
X184230261Y-134533489D01*
X184230264Y-134533501D01*
X184290602Y-134679172D01*
X184290609Y-134679185D01*
X184378210Y-134810288D01*
X184378213Y-134810292D01*
X184489707Y-134921786D01*
X184489711Y-134921789D01*
X184620814Y-135009390D01*
X184620827Y-135009397D01*
X184758683Y-135066498D01*
X184766503Y-135069737D01*
X184921153Y-135100499D01*
X184921156Y-135100500D01*
X184921158Y-135100500D01*
X185078844Y-135100500D01*
X185078845Y-135100499D01*
X185089179Y-135098443D01*
X185114287Y-135093450D01*
X185114292Y-135093449D01*
X185199800Y-135076439D01*
X185233497Y-135069737D01*
X185379179Y-135009394D01*
X185510289Y-134921789D01*
X185621789Y-134810289D01*
X185709394Y-134679179D01*
X185769737Y-134533497D01*
X185800500Y-134378842D01*
X185800500Y-134221158D01*
X185800500Y-134221155D01*
X185800499Y-134221153D01*
X185769738Y-134066510D01*
X185769737Y-134066503D01*
X185750812Y-134020814D01*
X185709397Y-133920827D01*
X185709390Y-133920814D01*
X185621789Y-133789711D01*
X185621786Y-133789707D01*
X185510292Y-133678213D01*
X185510288Y-133678210D01*
X185379185Y-133590609D01*
X185379172Y-133590602D01*
X185233501Y-133530264D01*
X185233489Y-133530261D01*
X185078845Y-133499500D01*
X185078842Y-133499500D01*
X184921158Y-133499500D01*
X184921155Y-133499500D01*
X184766510Y-133530261D01*
X184766498Y-133530264D01*
X184620827Y-133590602D01*
X184620814Y-133590609D01*
X184489711Y-133678210D01*
X184489707Y-133678213D01*
X184378213Y-133789707D01*
X184378210Y-133789711D01*
X184290609Y-133920814D01*
X184290602Y-133920827D01*
X184230264Y-134066498D01*
X184230261Y-134066510D01*
X184199500Y-134221153D01*
X181980608Y-134221153D01*
X181969738Y-134166510D01*
X181969737Y-134166503D01*
X181928314Y-134066498D01*
X181909397Y-134020827D01*
X181909390Y-134020814D01*
X181821789Y-133889711D01*
X181821786Y-133889707D01*
X181710292Y-133778213D01*
X181710288Y-133778210D01*
X181579185Y-133690609D01*
X181579172Y-133690602D01*
X181433501Y-133630264D01*
X181433489Y-133630261D01*
X181278845Y-133599500D01*
X181278842Y-133599500D01*
X181121158Y-133599500D01*
X181121155Y-133599500D01*
X180966510Y-133630261D01*
X180966498Y-133630264D01*
X180820827Y-133690602D01*
X180820814Y-133690609D01*
X180689711Y-133778210D01*
X180689707Y-133778213D01*
X180578213Y-133889707D01*
X180578210Y-133889711D01*
X180490609Y-134020814D01*
X180490602Y-134020827D01*
X180430264Y-134166498D01*
X180430261Y-134166510D01*
X180399500Y-134321153D01*
X116600500Y-134321153D01*
X116600500Y-129921153D01*
X144199500Y-129921153D01*
X144199500Y-130078846D01*
X144230261Y-130233489D01*
X144230264Y-130233501D01*
X144290602Y-130379172D01*
X144290609Y-130379185D01*
X144378210Y-130510288D01*
X144378213Y-130510292D01*
X144489707Y-130621786D01*
X144489711Y-130621789D01*
X144620814Y-130709390D01*
X144620827Y-130709397D01*
X144766498Y-130769735D01*
X144766503Y-130769737D01*
X144921153Y-130800499D01*
X144921156Y-130800500D01*
X144921158Y-130800500D01*
X145078844Y-130800500D01*
X145078845Y-130800499D01*
X145233497Y-130769737D01*
X145379179Y-130709394D01*
X145510289Y-130621789D01*
X145621789Y-130510289D01*
X145709394Y-130379179D01*
X145769737Y-130233497D01*
X145800500Y-130078842D01*
X145800500Y-130021153D01*
X180699500Y-130021153D01*
X180699500Y-130178846D01*
X180730261Y-130333489D01*
X180730264Y-130333501D01*
X180790602Y-130479172D01*
X180790609Y-130479185D01*
X180878210Y-130610288D01*
X180878213Y-130610292D01*
X180989707Y-130721786D01*
X180989711Y-130721789D01*
X181120814Y-130809390D01*
X181120827Y-130809397D01*
X181266498Y-130869735D01*
X181266503Y-130869737D01*
X181421153Y-130900499D01*
X181421156Y-130900500D01*
X181421158Y-130900500D01*
X181578844Y-130900500D01*
X181578845Y-130900499D01*
X181733497Y-130869737D01*
X181879179Y-130809394D01*
X182010289Y-130721789D01*
X182121789Y-130610289D01*
X182209394Y-130479179D01*
X182269737Y-130333497D01*
X182300500Y-130178842D01*
X182300500Y-130021158D01*
X182300500Y-130021155D01*
X182300499Y-130021153D01*
X182280734Y-129921789D01*
X182269737Y-129866503D01*
X182228314Y-129766498D01*
X182209397Y-129720827D01*
X182209390Y-129720814D01*
X182121789Y-129589711D01*
X182121786Y-129589707D01*
X182010292Y-129478213D01*
X182010288Y-129478210D01*
X181879185Y-129390609D01*
X181879172Y-129390602D01*
X181733501Y-129330264D01*
X181733489Y-129330261D01*
X181578845Y-129299500D01*
X181578842Y-129299500D01*
X181421158Y-129299500D01*
X181421155Y-129299500D01*
X181266510Y-129330261D01*
X181266498Y-129330264D01*
X181120827Y-129390602D01*
X181120814Y-129390609D01*
X180989711Y-129478210D01*
X180989707Y-129478213D01*
X180878213Y-129589707D01*
X180878210Y-129589711D01*
X180790609Y-129720814D01*
X180790602Y-129720827D01*
X180730264Y-129866498D01*
X180730261Y-129866510D01*
X180699500Y-130021153D01*
X145800500Y-130021153D01*
X145800500Y-129921158D01*
X145800500Y-129921155D01*
X145800499Y-129921153D01*
X145778447Y-129810292D01*
X145769737Y-129766503D01*
X145733569Y-129679185D01*
X145709397Y-129620827D01*
X145709390Y-129620814D01*
X145621789Y-129489711D01*
X145621786Y-129489707D01*
X145510292Y-129378213D01*
X145510288Y-129378210D01*
X145379185Y-129290609D01*
X145379172Y-129290602D01*
X145233501Y-129230264D01*
X145233489Y-129230261D01*
X145187701Y-129221153D01*
X184199500Y-129221153D01*
X184199500Y-129378846D01*
X184230261Y-129533489D01*
X184230264Y-129533501D01*
X184290602Y-129679172D01*
X184290609Y-129679185D01*
X184378210Y-129810288D01*
X184378213Y-129810292D01*
X184489707Y-129921786D01*
X184489711Y-129921789D01*
X184620814Y-130009390D01*
X184620827Y-130009397D01*
X184766498Y-130069735D01*
X184766503Y-130069737D01*
X184921153Y-130100499D01*
X184921156Y-130100500D01*
X184921158Y-130100500D01*
X185078844Y-130100500D01*
X185078845Y-130100499D01*
X185233497Y-130069737D01*
X185379179Y-130009394D01*
X185510289Y-129921789D01*
X185621789Y-129810289D01*
X185709394Y-129679179D01*
X185769737Y-129533497D01*
X185800500Y-129378842D01*
X185800500Y-129221158D01*
X185800500Y-129221155D01*
X185800499Y-129221153D01*
X185769738Y-129066510D01*
X185769737Y-129066503D01*
X185769735Y-129066498D01*
X185709397Y-128920827D01*
X185709390Y-128920814D01*
X185621789Y-128789711D01*
X185621786Y-128789707D01*
X185510292Y-128678213D01*
X185510288Y-128678210D01*
X185379185Y-128590609D01*
X185379172Y-128590602D01*
X185233501Y-128530264D01*
X185233489Y-128530261D01*
X185078845Y-128499500D01*
X185078842Y-128499500D01*
X184921158Y-128499500D01*
X184921155Y-128499500D01*
X184766510Y-128530261D01*
X184766498Y-128530264D01*
X184620827Y-128590602D01*
X184620814Y-128590609D01*
X184489711Y-128678210D01*
X184489707Y-128678213D01*
X184378213Y-128789707D01*
X184378210Y-128789711D01*
X184290609Y-128920814D01*
X184290602Y-128920827D01*
X184230264Y-129066498D01*
X184230261Y-129066510D01*
X184199500Y-129221153D01*
X145187701Y-129221153D01*
X145078845Y-129199500D01*
X145078842Y-129199500D01*
X144921158Y-129199500D01*
X144921155Y-129199500D01*
X144766510Y-129230261D01*
X144766498Y-129230264D01*
X144620827Y-129290602D01*
X144620814Y-129290609D01*
X144489711Y-129378210D01*
X144489707Y-129378213D01*
X144378213Y-129489707D01*
X144378210Y-129489711D01*
X144290609Y-129620814D01*
X144290602Y-129620827D01*
X144230264Y-129766498D01*
X144230261Y-129766510D01*
X144199500Y-129921153D01*
X116600500Y-129921153D01*
X116600500Y-124874038D01*
X129499500Y-124874038D01*
X129499500Y-125125961D01*
X129538910Y-125374785D01*
X129616760Y-125614383D01*
X129695413Y-125768747D01*
X129730995Y-125838581D01*
X129731132Y-125838848D01*
X129879201Y-126042649D01*
X129879205Y-126042654D01*
X130057345Y-126220794D01*
X130057350Y-126220798D01*
X130158449Y-126294250D01*
X130261155Y-126368870D01*
X130404184Y-126441747D01*
X130485616Y-126483239D01*
X130485618Y-126483239D01*
X130485621Y-126483241D01*
X130725215Y-126561090D01*
X130974038Y-126600500D01*
X130974039Y-126600500D01*
X131225961Y-126600500D01*
X131225962Y-126600500D01*
X131474785Y-126561090D01*
X131714379Y-126483241D01*
X131938845Y-126368870D01*
X132142656Y-126220793D01*
X132320793Y-126042656D01*
X132468870Y-125838845D01*
X132583241Y-125614379D01*
X132661090Y-125374785D01*
X132700500Y-125125962D01*
X132700500Y-124874071D01*
X134500000Y-124874071D01*
X134500000Y-125125928D01*
X134539397Y-125374669D01*
X134617219Y-125614184D01*
X134731557Y-125838583D01*
X134805748Y-125940697D01*
X134805748Y-125940698D01*
X135617037Y-125129409D01*
X135634075Y-125192993D01*
X135699901Y-125307007D01*
X135792993Y-125400099D01*
X135907007Y-125465925D01*
X135970590Y-125482962D01*
X135159300Y-126294250D01*
X135261416Y-126368442D01*
X135485815Y-126482780D01*
X135725330Y-126560602D01*
X135974072Y-126600000D01*
X136225928Y-126600000D01*
X136474669Y-126560602D01*
X136714184Y-126482780D01*
X136938575Y-126368446D01*
X136938581Y-126368442D01*
X137040697Y-126294250D01*
X137040698Y-126294250D01*
X136229409Y-125482962D01*
X136292993Y-125465925D01*
X136407007Y-125400099D01*
X136500099Y-125307007D01*
X136565925Y-125192993D01*
X136582962Y-125129409D01*
X137394250Y-125940698D01*
X137394250Y-125940697D01*
X137468442Y-125838581D01*
X137468446Y-125838575D01*
X137582780Y-125614184D01*
X137660602Y-125374669D01*
X137700000Y-125125928D01*
X137700000Y-124874071D01*
X137699995Y-124874038D01*
X139499500Y-124874038D01*
X139499500Y-125125961D01*
X139538910Y-125374785D01*
X139616760Y-125614383D01*
X139695413Y-125768747D01*
X139730995Y-125838581D01*
X139731132Y-125838848D01*
X139879201Y-126042649D01*
X139879205Y-126042654D01*
X140057345Y-126220794D01*
X140057350Y-126220798D01*
X140158449Y-126294250D01*
X140261155Y-126368870D01*
X140404184Y-126441747D01*
X140485616Y-126483239D01*
X140485618Y-126483239D01*
X140485621Y-126483241D01*
X140725215Y-126561090D01*
X140974038Y-126600500D01*
X140974039Y-126600500D01*
X141225961Y-126600500D01*
X141225962Y-126600500D01*
X141474785Y-126561090D01*
X141714379Y-126483241D01*
X141938845Y-126368870D01*
X142142656Y-126220793D01*
X142320793Y-126042656D01*
X142468870Y-125838845D01*
X142583241Y-125614379D01*
X142661090Y-125374785D01*
X142700500Y-125125962D01*
X142700500Y-124874038D01*
X174499500Y-124874038D01*
X174499500Y-125125961D01*
X174538910Y-125374785D01*
X174616760Y-125614383D01*
X174695413Y-125768747D01*
X174730995Y-125838581D01*
X174731132Y-125838848D01*
X174879201Y-126042649D01*
X174879205Y-126042654D01*
X175057345Y-126220794D01*
X175057350Y-126220798D01*
X175158449Y-126294250D01*
X175261155Y-126368870D01*
X175404184Y-126441747D01*
X175485616Y-126483239D01*
X175485618Y-126483239D01*
X175485621Y-126483241D01*
X175725215Y-126561090D01*
X175974038Y-126600500D01*
X175974039Y-126600500D01*
X176225961Y-126600500D01*
X176225962Y-126600500D01*
X176474785Y-126561090D01*
X176714379Y-126483241D01*
X176938845Y-126368870D01*
X177142656Y-126220793D01*
X177320793Y-126042656D01*
X177468870Y-125838845D01*
X177583241Y-125614379D01*
X177661090Y-125374785D01*
X177700500Y-125125962D01*
X177700500Y-124874071D01*
X179500000Y-124874071D01*
X179500000Y-125125928D01*
X179539397Y-125374669D01*
X179617219Y-125614184D01*
X179731557Y-125838583D01*
X179805748Y-125940697D01*
X179805748Y-125940698D01*
X180617037Y-125129409D01*
X180634075Y-125192993D01*
X180699901Y-125307007D01*
X180792993Y-125400099D01*
X180907007Y-125465925D01*
X180970590Y-125482962D01*
X180159300Y-126294250D01*
X180261416Y-126368442D01*
X180485815Y-126482780D01*
X180725330Y-126560602D01*
X180974072Y-126600000D01*
X181225928Y-126600000D01*
X181474669Y-126560602D01*
X181714184Y-126482780D01*
X181938575Y-126368446D01*
X181938581Y-126368442D01*
X182040697Y-126294250D01*
X182040698Y-126294250D01*
X181229409Y-125482962D01*
X181292993Y-125465925D01*
X181407007Y-125400099D01*
X181500099Y-125307007D01*
X181565925Y-125192993D01*
X181582962Y-125129409D01*
X182394250Y-125940698D01*
X182394250Y-125940697D01*
X182468442Y-125838581D01*
X182468446Y-125838575D01*
X182582780Y-125614184D01*
X182660602Y-125374669D01*
X182700000Y-125125928D01*
X182700000Y-124874071D01*
X182699995Y-124874038D01*
X184499500Y-124874038D01*
X184499500Y-125125961D01*
X184538910Y-125374785D01*
X184616760Y-125614383D01*
X184695413Y-125768747D01*
X184730995Y-125838581D01*
X184731132Y-125838848D01*
X184879201Y-126042649D01*
X184879205Y-126042654D01*
X185057345Y-126220794D01*
X185057350Y-126220798D01*
X185158449Y-126294250D01*
X185261155Y-126368870D01*
X185404184Y-126441747D01*
X185485616Y-126483239D01*
X185485618Y-126483239D01*
X185485621Y-126483241D01*
X185725215Y-126561090D01*
X185974038Y-126600500D01*
X185974039Y-126600500D01*
X186225961Y-126600500D01*
X186225962Y-126600500D01*
X186474785Y-126561090D01*
X186714379Y-126483241D01*
X186938845Y-126368870D01*
X187142656Y-126220793D01*
X187320793Y-126042656D01*
X187468870Y-125838845D01*
X187583241Y-125614379D01*
X187661090Y-125374785D01*
X187700500Y-125125962D01*
X187700500Y-124874038D01*
X187661090Y-124625215D01*
X187583241Y-124385621D01*
X187583239Y-124385618D01*
X187583239Y-124385616D01*
X187541747Y-124304184D01*
X187468870Y-124161155D01*
X187394868Y-124059300D01*
X187320798Y-123957350D01*
X187320794Y-123957345D01*
X187142654Y-123779205D01*
X187142649Y-123779201D01*
X186938848Y-123631132D01*
X186938847Y-123631131D01*
X186938845Y-123631130D01*
X186868747Y-123595413D01*
X186714383Y-123516760D01*
X186474785Y-123438910D01*
X186225962Y-123399500D01*
X185974038Y-123399500D01*
X185849626Y-123419205D01*
X185725214Y-123438910D01*
X185485616Y-123516760D01*
X185261151Y-123631132D01*
X185057350Y-123779201D01*
X185057345Y-123779205D01*
X184879205Y-123957345D01*
X184879201Y-123957350D01*
X184731132Y-124161151D01*
X184616760Y-124385616D01*
X184538910Y-124625214D01*
X184499500Y-124874038D01*
X182699995Y-124874038D01*
X182660602Y-124625330D01*
X182582780Y-124385815D01*
X182468442Y-124161416D01*
X182394250Y-124059301D01*
X182394250Y-124059300D01*
X181582962Y-124870589D01*
X181565925Y-124807007D01*
X181500099Y-124692993D01*
X181407007Y-124599901D01*
X181292993Y-124534075D01*
X181229408Y-124517037D01*
X182040698Y-123705748D01*
X181938583Y-123631557D01*
X181714184Y-123517219D01*
X181474669Y-123439397D01*
X181225928Y-123400000D01*
X180974072Y-123400000D01*
X180725330Y-123439397D01*
X180485815Y-123517219D01*
X180261413Y-123631559D01*
X180159301Y-123705747D01*
X180159300Y-123705748D01*
X180970590Y-124517037D01*
X180907007Y-124534075D01*
X180792993Y-124599901D01*
X180699901Y-124692993D01*
X180634075Y-124807007D01*
X180617037Y-124870590D01*
X179805748Y-124059300D01*
X179805747Y-124059301D01*
X179731559Y-124161413D01*
X179617219Y-124385815D01*
X179539397Y-124625330D01*
X179500000Y-124874071D01*
X177700500Y-124874071D01*
X177700500Y-124874038D01*
X177661090Y-124625215D01*
X177583241Y-124385621D01*
X177583239Y-124385618D01*
X177583239Y-124385616D01*
X177541747Y-124304184D01*
X177468870Y-124161155D01*
X177394868Y-124059300D01*
X177320798Y-123957350D01*
X177320794Y-123957345D01*
X177142654Y-123779205D01*
X177142649Y-123779201D01*
X176938848Y-123631132D01*
X176938847Y-123631131D01*
X176938845Y-123631130D01*
X176868747Y-123595413D01*
X176714383Y-123516760D01*
X176474785Y-123438910D01*
X176225962Y-123399500D01*
X175974038Y-123399500D01*
X175849626Y-123419205D01*
X175725214Y-123438910D01*
X175485616Y-123516760D01*
X175261151Y-123631132D01*
X175057350Y-123779201D01*
X175057345Y-123779205D01*
X174879205Y-123957345D01*
X174879201Y-123957350D01*
X174731132Y-124161151D01*
X174616760Y-124385616D01*
X174538910Y-124625214D01*
X174499500Y-124874038D01*
X142700500Y-124874038D01*
X142661090Y-124625215D01*
X142583241Y-124385621D01*
X142583239Y-124385618D01*
X142583239Y-124385616D01*
X142541747Y-124304184D01*
X142468870Y-124161155D01*
X142394868Y-124059300D01*
X142320798Y-123957350D01*
X142320794Y-123957345D01*
X142142654Y-123779205D01*
X142142649Y-123779201D01*
X141938848Y-123631132D01*
X141938847Y-123631131D01*
X141938845Y-123631130D01*
X141868747Y-123595413D01*
X141714383Y-123516760D01*
X141474785Y-123438910D01*
X141225962Y-123399500D01*
X140974038Y-123399500D01*
X140849626Y-123419205D01*
X140725214Y-123438910D01*
X140485616Y-123516760D01*
X140261151Y-123631132D01*
X140057350Y-123779201D01*
X140057345Y-123779205D01*
X139879205Y-123957345D01*
X139879201Y-123957350D01*
X139731132Y-124161151D01*
X139616760Y-124385616D01*
X139538910Y-124625214D01*
X139499500Y-124874038D01*
X137699995Y-124874038D01*
X137660602Y-124625330D01*
X137582780Y-124385815D01*
X137468442Y-124161416D01*
X137394250Y-124059301D01*
X137394250Y-124059300D01*
X136582962Y-124870589D01*
X136565925Y-124807007D01*
X136500099Y-124692993D01*
X136407007Y-124599901D01*
X136292993Y-124534075D01*
X136229408Y-124517037D01*
X137040698Y-123705748D01*
X136938583Y-123631557D01*
X136714184Y-123517219D01*
X136474669Y-123439397D01*
X136225928Y-123400000D01*
X135974072Y-123400000D01*
X135725330Y-123439397D01*
X135485815Y-123517219D01*
X135261413Y-123631559D01*
X135159301Y-123705747D01*
X135159300Y-123705748D01*
X135970590Y-124517037D01*
X135907007Y-124534075D01*
X135792993Y-124599901D01*
X135699901Y-124692993D01*
X135634075Y-124807007D01*
X135617037Y-124870590D01*
X134805748Y-124059300D01*
X134805747Y-124059301D01*
X134731559Y-124161413D01*
X134617219Y-124385815D01*
X134539397Y-124625330D01*
X134500000Y-124874071D01*
X132700500Y-124874071D01*
X132700500Y-124874038D01*
X132661090Y-124625215D01*
X132583241Y-124385621D01*
X132583239Y-124385618D01*
X132583239Y-124385616D01*
X132541747Y-124304184D01*
X132468870Y-124161155D01*
X132394868Y-124059300D01*
X132320798Y-123957350D01*
X132320794Y-123957345D01*
X132142654Y-123779205D01*
X132142649Y-123779201D01*
X131938848Y-123631132D01*
X131938847Y-123631131D01*
X131938845Y-123631130D01*
X131868747Y-123595413D01*
X131714383Y-123516760D01*
X131474785Y-123438910D01*
X131225962Y-123399500D01*
X130974038Y-123399500D01*
X130849626Y-123419205D01*
X130725214Y-123438910D01*
X130485616Y-123516760D01*
X130261151Y-123631132D01*
X130057350Y-123779201D01*
X130057345Y-123779205D01*
X129879205Y-123957345D01*
X129879201Y-123957350D01*
X129731132Y-124161151D01*
X129616760Y-124385616D01*
X129538910Y-124625214D01*
X129499500Y-124874038D01*
X116600500Y-124874038D01*
X116600500Y-119339448D01*
X154879500Y-119339448D01*
X154879500Y-119520551D01*
X154907829Y-119699410D01*
X154963787Y-119871636D01*
X154963788Y-119871639D01*
X155046006Y-120032997D01*
X155152441Y-120179494D01*
X155152445Y-120179499D01*
X155280500Y-120307554D01*
X155280505Y-120307558D01*
X155408287Y-120400396D01*
X155427006Y-120413996D01*
X155532484Y-120467740D01*
X155588360Y-120496211D01*
X155588363Y-120496212D01*
X155674476Y-120524191D01*
X155760591Y-120552171D01*
X155843429Y-120565291D01*
X155939449Y-120580500D01*
X155939454Y-120580500D01*
X156120551Y-120580500D01*
X156207259Y-120566765D01*
X156299409Y-120552171D01*
X156471639Y-120496211D01*
X156632994Y-120413996D01*
X156779501Y-120307553D01*
X156907553Y-120179501D01*
X157013996Y-120032994D01*
X157096211Y-119871639D01*
X157152171Y-119699409D01*
X157157527Y-119665594D01*
X157187456Y-119602459D01*
X157246768Y-119565528D01*
X157316630Y-119566526D01*
X157374863Y-119605136D01*
X157402473Y-119665594D01*
X157407829Y-119699410D01*
X157463787Y-119871636D01*
X157463788Y-119871639D01*
X157546006Y-120032997D01*
X157652441Y-120179494D01*
X157652445Y-120179499D01*
X157780500Y-120307554D01*
X157780505Y-120307558D01*
X157908287Y-120400396D01*
X157927006Y-120413996D01*
X158032484Y-120467740D01*
X158088360Y-120496211D01*
X158088363Y-120496212D01*
X158174476Y-120524191D01*
X158260591Y-120552171D01*
X158343429Y-120565291D01*
X158439449Y-120580500D01*
X158439454Y-120580500D01*
X158620551Y-120580500D01*
X158707259Y-120566765D01*
X158799409Y-120552171D01*
X158971639Y-120496211D01*
X159132994Y-120413996D01*
X159279501Y-120307553D01*
X159407553Y-120179501D01*
X159513996Y-120032994D01*
X159596211Y-119871639D01*
X159652171Y-119699409D01*
X159657527Y-119665594D01*
X159687456Y-119602459D01*
X159746768Y-119565528D01*
X159816630Y-119566526D01*
X159874863Y-119605136D01*
X159902473Y-119665594D01*
X159907829Y-119699410D01*
X159963787Y-119871636D01*
X159963788Y-119871639D01*
X160046006Y-120032997D01*
X160152441Y-120179494D01*
X160152445Y-120179499D01*
X160280500Y-120307554D01*
X160280505Y-120307558D01*
X160408287Y-120400396D01*
X160427006Y-120413996D01*
X160532484Y-120467740D01*
X160588360Y-120496211D01*
X160588363Y-120496212D01*
X160674476Y-120524191D01*
X160760591Y-120552171D01*
X160843429Y-120565291D01*
X160939449Y-120580500D01*
X160939454Y-120580500D01*
X161120551Y-120580500D01*
X161207259Y-120566765D01*
X161299409Y-120552171D01*
X161471639Y-120496211D01*
X161632994Y-120413996D01*
X161779501Y-120307553D01*
X161907553Y-120179501D01*
X162013996Y-120032994D01*
X162096211Y-119871639D01*
X162152171Y-119699409D01*
X162173376Y-119565528D01*
X162180500Y-119520551D01*
X162180500Y-119339448D01*
X162164019Y-119235397D01*
X162152171Y-119160591D01*
X162096211Y-118988361D01*
X162096211Y-118988360D01*
X162067740Y-118932484D01*
X162013996Y-118827006D01*
X162000396Y-118808287D01*
X161907558Y-118680505D01*
X161907554Y-118680500D01*
X161779499Y-118552445D01*
X161779494Y-118552441D01*
X161632997Y-118446006D01*
X161632996Y-118446005D01*
X161632994Y-118446004D01*
X161581300Y-118419664D01*
X161471639Y-118363788D01*
X161471636Y-118363787D01*
X161299410Y-118307829D01*
X161120551Y-118279500D01*
X161120546Y-118279500D01*
X160939454Y-118279500D01*
X160939449Y-118279500D01*
X160760589Y-118307829D01*
X160588363Y-118363787D01*
X160588360Y-118363788D01*
X160427002Y-118446006D01*
X160280505Y-118552441D01*
X160280500Y-118552445D01*
X160152445Y-118680500D01*
X160152441Y-118680505D01*
X160046006Y-118827002D01*
X159963788Y-118988360D01*
X159963787Y-118988363D01*
X159907829Y-119160589D01*
X159902473Y-119194406D01*
X159872543Y-119257540D01*
X159813232Y-119294471D01*
X159743369Y-119293473D01*
X159685137Y-119254863D01*
X159657527Y-119194406D01*
X159656083Y-119185291D01*
X159652171Y-119160591D01*
X159596211Y-118988361D01*
X159596211Y-118988360D01*
X159567740Y-118932484D01*
X159513996Y-118827006D01*
X159500396Y-118808287D01*
X159407558Y-118680505D01*
X159407554Y-118680500D01*
X159279499Y-118552445D01*
X159279494Y-118552441D01*
X159132997Y-118446006D01*
X159132996Y-118446005D01*
X159132994Y-118446004D01*
X159081300Y-118419664D01*
X158971639Y-118363788D01*
X158971636Y-118363787D01*
X158799410Y-118307829D01*
X158620551Y-118279500D01*
X158620546Y-118279500D01*
X158439454Y-118279500D01*
X158439449Y-118279500D01*
X158260589Y-118307829D01*
X158088363Y-118363787D01*
X158088360Y-118363788D01*
X157927002Y-118446006D01*
X157780505Y-118552441D01*
X157780500Y-118552445D01*
X157652445Y-118680500D01*
X157652441Y-118680505D01*
X157546006Y-118827002D01*
X157463788Y-118988360D01*
X157463787Y-118988363D01*
X157407829Y-119160589D01*
X157402473Y-119194406D01*
X157372543Y-119257540D01*
X157313232Y-119294471D01*
X157243369Y-119293473D01*
X157185137Y-119254863D01*
X157157527Y-119194406D01*
X157156083Y-119185291D01*
X157152171Y-119160591D01*
X157096211Y-118988361D01*
X157096211Y-118988360D01*
X157067740Y-118932484D01*
X157013996Y-118827006D01*
X157000396Y-118808287D01*
X156907558Y-118680505D01*
X156907554Y-118680500D01*
X156779499Y-118552445D01*
X156779494Y-118552441D01*
X156632997Y-118446006D01*
X156632996Y-118446005D01*
X156632994Y-118446004D01*
X156581300Y-118419664D01*
X156471639Y-118363788D01*
X156471636Y-118363787D01*
X156299410Y-118307829D01*
X156120551Y-118279500D01*
X156120546Y-118279500D01*
X155939454Y-118279500D01*
X155939449Y-118279500D01*
X155760589Y-118307829D01*
X155588363Y-118363787D01*
X155588360Y-118363788D01*
X155427002Y-118446006D01*
X155280505Y-118552441D01*
X155280500Y-118552445D01*
X155152445Y-118680500D01*
X155152441Y-118680505D01*
X155046006Y-118827002D01*
X154963788Y-118988360D01*
X154963787Y-118988363D01*
X154907829Y-119160589D01*
X154879500Y-119339448D01*
X116600500Y-119339448D01*
X116600500Y-116139493D01*
X154880000Y-116139493D01*
X154880000Y-116320506D01*
X154908317Y-116499293D01*
X154964251Y-116671444D01*
X154964252Y-116671447D01*
X155046431Y-116832730D01*
X155057913Y-116848532D01*
X155057913Y-116848533D01*
X155630000Y-116276446D01*
X155630000Y-116282661D01*
X155657259Y-116384394D01*
X155709920Y-116475606D01*
X155784394Y-116550080D01*
X155875606Y-116602741D01*
X155977339Y-116630000D01*
X155983553Y-116630000D01*
X155411466Y-117202085D01*
X155411466Y-117202086D01*
X155427267Y-117213566D01*
X155427275Y-117213571D01*
X155588552Y-117295747D01*
X155588555Y-117295748D01*
X155760706Y-117351682D01*
X155939494Y-117380000D01*
X156120506Y-117380000D01*
X156299293Y-117351682D01*
X156471444Y-117295748D01*
X156471452Y-117295745D01*
X156632730Y-117213568D01*
X156648532Y-117202085D01*
X156648533Y-117202085D01*
X156076448Y-116630000D01*
X156082661Y-116630000D01*
X156184394Y-116602741D01*
X156275606Y-116550080D01*
X156350080Y-116475606D01*
X156402741Y-116384394D01*
X156430000Y-116282661D01*
X156430000Y-116276448D01*
X157002085Y-116848533D01*
X157002085Y-116848532D01*
X157013568Y-116832730D01*
X157095745Y-116671452D01*
X157095748Y-116671444D01*
X157151681Y-116499296D01*
X157157272Y-116463997D01*
X157187201Y-116400861D01*
X157246511Y-116363929D01*
X157316374Y-116364925D01*
X157374607Y-116403534D01*
X157402219Y-116463992D01*
X157407829Y-116499411D01*
X157463787Y-116671636D01*
X157463788Y-116671639D01*
X157519664Y-116781300D01*
X157545869Y-116832730D01*
X157546006Y-116832997D01*
X157652441Y-116979494D01*
X157652445Y-116979499D01*
X157780500Y-117107554D01*
X157780505Y-117107558D01*
X157908287Y-117200396D01*
X157927006Y-117213996D01*
X158032484Y-117267740D01*
X158088360Y-117296211D01*
X158088363Y-117296212D01*
X158174476Y-117324191D01*
X158260591Y-117352171D01*
X158343429Y-117365291D01*
X158439449Y-117380500D01*
X158439454Y-117380500D01*
X158620551Y-117380500D01*
X158707259Y-117366765D01*
X158799409Y-117352171D01*
X158971639Y-117296211D01*
X159132994Y-117213996D01*
X159279501Y-117107553D01*
X159407553Y-116979501D01*
X159513996Y-116832994D01*
X159596211Y-116671639D01*
X159652171Y-116499409D01*
X159657527Y-116465594D01*
X159687456Y-116402459D01*
X159746768Y-116365528D01*
X159816630Y-116366526D01*
X159874863Y-116405136D01*
X159902473Y-116465594D01*
X159907829Y-116499410D01*
X159963787Y-116671636D01*
X159963788Y-116671639D01*
X160019664Y-116781300D01*
X160045869Y-116832730D01*
X160046006Y-116832997D01*
X160152441Y-116979494D01*
X160152445Y-116979499D01*
X160280500Y-117107554D01*
X160280505Y-117107558D01*
X160408287Y-117200396D01*
X160427006Y-117213996D01*
X160532484Y-117267740D01*
X160588360Y-117296211D01*
X160588363Y-117296212D01*
X160674476Y-117324191D01*
X160760591Y-117352171D01*
X160843429Y-117365291D01*
X160939449Y-117380500D01*
X160939454Y-117380500D01*
X161120551Y-117380500D01*
X161207259Y-117366765D01*
X161299409Y-117352171D01*
X161471639Y-117296211D01*
X161632994Y-117213996D01*
X161779501Y-117107553D01*
X161907553Y-116979501D01*
X162013996Y-116832994D01*
X162096211Y-116671639D01*
X162152171Y-116499409D01*
X162173629Y-116363929D01*
X162180500Y-116320551D01*
X162180500Y-116139448D01*
X162157780Y-115996007D01*
X162152171Y-115960591D01*
X162096273Y-115788552D01*
X162096212Y-115788363D01*
X162096211Y-115788360D01*
X162067740Y-115732484D01*
X162013996Y-115627006D01*
X162000396Y-115608287D01*
X161907558Y-115480505D01*
X161907554Y-115480500D01*
X161779499Y-115352445D01*
X161779494Y-115352441D01*
X161632997Y-115246006D01*
X161632996Y-115246005D01*
X161632994Y-115246004D01*
X161581300Y-115219664D01*
X161471639Y-115163788D01*
X161471636Y-115163787D01*
X161299410Y-115107829D01*
X161120551Y-115079500D01*
X161120546Y-115079500D01*
X160939454Y-115079500D01*
X160939449Y-115079500D01*
X160760589Y-115107829D01*
X160588363Y-115163787D01*
X160588360Y-115163788D01*
X160427002Y-115246006D01*
X160280505Y-115352441D01*
X160280500Y-115352445D01*
X160152445Y-115480500D01*
X160152441Y-115480505D01*
X160046006Y-115627002D01*
X159963788Y-115788360D01*
X159963787Y-115788363D01*
X159907829Y-115960589D01*
X159902473Y-115994406D01*
X159872543Y-116057540D01*
X159813232Y-116094471D01*
X159743369Y-116093473D01*
X159685137Y-116054863D01*
X159657527Y-115994406D01*
X159652189Y-115960706D01*
X159652171Y-115960591D01*
X159596273Y-115788552D01*
X159596212Y-115788363D01*
X159596211Y-115788360D01*
X159567740Y-115732484D01*
X159513996Y-115627006D01*
X159500396Y-115608287D01*
X159407558Y-115480505D01*
X159407554Y-115480500D01*
X159279499Y-115352445D01*
X159279494Y-115352441D01*
X159132997Y-115246006D01*
X159132996Y-115246005D01*
X159132994Y-115246004D01*
X159081300Y-115219664D01*
X158971639Y-115163788D01*
X158971636Y-115163787D01*
X158799410Y-115107829D01*
X158620551Y-115079500D01*
X158620546Y-115079500D01*
X158439454Y-115079500D01*
X158439449Y-115079500D01*
X158260589Y-115107829D01*
X158088363Y-115163787D01*
X158088360Y-115163788D01*
X157927002Y-115246006D01*
X157780505Y-115352441D01*
X157780500Y-115352445D01*
X157652445Y-115480500D01*
X157652441Y-115480505D01*
X157546006Y-115627002D01*
X157463788Y-115788360D01*
X157463787Y-115788363D01*
X157407829Y-115960588D01*
X157402219Y-115996007D01*
X157372288Y-116059141D01*
X157312976Y-116096072D01*
X157243113Y-116095072D01*
X157184881Y-116056461D01*
X157157272Y-115996003D01*
X157151681Y-115960702D01*
X157095748Y-115788555D01*
X157095747Y-115788552D01*
X157013571Y-115627275D01*
X157013566Y-115627267D01*
X157002085Y-115611466D01*
X156430000Y-116183551D01*
X156430000Y-116177339D01*
X156402741Y-116075606D01*
X156350080Y-115984394D01*
X156275606Y-115909920D01*
X156184394Y-115857259D01*
X156082661Y-115830000D01*
X156076447Y-115830000D01*
X156648533Y-115257913D01*
X156632730Y-115246431D01*
X156471447Y-115164252D01*
X156471444Y-115164251D01*
X156299293Y-115108317D01*
X156120506Y-115080000D01*
X155939494Y-115080000D01*
X155760706Y-115108317D01*
X155588555Y-115164251D01*
X155588547Y-115164254D01*
X155427269Y-115246432D01*
X155411466Y-115257912D01*
X155411466Y-115257913D01*
X155983554Y-115830000D01*
X155977339Y-115830000D01*
X155875606Y-115857259D01*
X155784394Y-115909920D01*
X155709920Y-115984394D01*
X155657259Y-116075606D01*
X155630000Y-116177339D01*
X155630000Y-116183553D01*
X155057913Y-115611466D01*
X155057912Y-115611466D01*
X155046432Y-115627269D01*
X154964254Y-115788547D01*
X154964251Y-115788555D01*
X154908317Y-115960706D01*
X154880000Y-116139493D01*
X116600500Y-116139493D01*
X116600500Y-107521153D01*
X173099500Y-107521153D01*
X173099500Y-107678846D01*
X173130261Y-107833489D01*
X173130264Y-107833501D01*
X173190602Y-107979172D01*
X173190609Y-107979185D01*
X173278210Y-108110288D01*
X173278213Y-108110292D01*
X173389707Y-108221786D01*
X173389711Y-108221789D01*
X173520814Y-108309390D01*
X173520827Y-108309397D01*
X173666498Y-108369735D01*
X173666503Y-108369737D01*
X173821153Y-108400499D01*
X173821156Y-108400500D01*
X173821158Y-108400500D01*
X173978844Y-108400500D01*
X173978845Y-108400499D01*
X174133497Y-108369737D01*
X174279179Y-108309394D01*
X174410289Y-108221789D01*
X174521789Y-108110289D01*
X174609394Y-107979179D01*
X174669737Y-107833497D01*
X174700500Y-107678842D01*
X174700500Y-107521158D01*
X174700500Y-107521155D01*
X174700499Y-107521153D01*
X174669738Y-107366510D01*
X174669737Y-107366503D01*
X174669735Y-107366498D01*
X174609397Y-107220827D01*
X174609390Y-107220814D01*
X174521789Y-107089711D01*
X174521786Y-107089707D01*
X174410292Y-106978213D01*
X174410288Y-106978210D01*
X174279185Y-106890609D01*
X174279172Y-106890602D01*
X174133501Y-106830264D01*
X174133489Y-106830261D01*
X173978845Y-106799500D01*
X173978842Y-106799500D01*
X173821158Y-106799500D01*
X173821155Y-106799500D01*
X173666510Y-106830261D01*
X173666498Y-106830264D01*
X173520827Y-106890602D01*
X173520814Y-106890609D01*
X173389711Y-106978210D01*
X173389707Y-106978213D01*
X173278213Y-107089707D01*
X173278210Y-107089711D01*
X173190609Y-107220814D01*
X173190602Y-107220827D01*
X173130264Y-107366498D01*
X173130261Y-107366510D01*
X173099500Y-107521153D01*
X116600500Y-107521153D01*
X116600500Y-106321153D01*
X121799500Y-106321153D01*
X121799500Y-106478846D01*
X121830261Y-106633489D01*
X121830264Y-106633501D01*
X121890602Y-106779172D01*
X121890609Y-106779185D01*
X121978210Y-106910288D01*
X121978213Y-106910292D01*
X122089707Y-107021786D01*
X122089711Y-107021789D01*
X122220814Y-107109390D01*
X122220827Y-107109397D01*
X122366498Y-107169735D01*
X122366503Y-107169737D01*
X122521153Y-107200499D01*
X122521156Y-107200500D01*
X122521158Y-107200500D01*
X122678844Y-107200500D01*
X122678845Y-107200499D01*
X122833497Y-107169737D01*
X122979179Y-107109394D01*
X123110289Y-107021789D01*
X123221789Y-106910289D01*
X123309394Y-106779179D01*
X123369737Y-106633497D01*
X123400500Y-106478842D01*
X123400500Y-106321158D01*
X123400500Y-106321155D01*
X123400499Y-106321153D01*
X123369738Y-106166510D01*
X123369737Y-106166503D01*
X123369735Y-106166498D01*
X123309397Y-106020827D01*
X123309390Y-106020814D01*
X123221789Y-105889711D01*
X123221786Y-105889707D01*
X123110292Y-105778213D01*
X123110288Y-105778210D01*
X122979185Y-105690609D01*
X122979172Y-105690602D01*
X122833501Y-105630264D01*
X122833489Y-105630261D01*
X122678845Y-105599500D01*
X122678842Y-105599500D01*
X122521158Y-105599500D01*
X122521155Y-105599500D01*
X122366510Y-105630261D01*
X122366498Y-105630264D01*
X122220827Y-105690602D01*
X122220814Y-105690609D01*
X122089711Y-105778210D01*
X122089707Y-105778213D01*
X121978213Y-105889707D01*
X121978210Y-105889711D01*
X121890609Y-106020814D01*
X121890602Y-106020827D01*
X121830264Y-106166498D01*
X121830261Y-106166510D01*
X121799500Y-106321153D01*
X116600500Y-106321153D01*
X116600500Y-97321153D01*
X180799500Y-97321153D01*
X180799500Y-97478846D01*
X180830261Y-97633489D01*
X180830264Y-97633501D01*
X180890602Y-97779172D01*
X180890609Y-97779185D01*
X180978210Y-97910288D01*
X180978213Y-97910292D01*
X181089707Y-98021786D01*
X181089711Y-98021789D01*
X181220814Y-98109390D01*
X181220827Y-98109397D01*
X181366498Y-98169735D01*
X181366503Y-98169737D01*
X181521153Y-98200499D01*
X181521156Y-98200500D01*
X181521158Y-98200500D01*
X181678844Y-98200500D01*
X181678845Y-98200499D01*
X181833497Y-98169737D01*
X181979179Y-98109394D01*
X182110289Y-98021789D01*
X182221789Y-97910289D01*
X182309394Y-97779179D01*
X182369737Y-97633497D01*
X182400500Y-97478842D01*
X182400500Y-97321158D01*
X182400500Y-97321155D01*
X182400499Y-97321153D01*
X182369738Y-97166510D01*
X182369737Y-97166503D01*
X182356062Y-97133489D01*
X182309397Y-97020827D01*
X182309390Y-97020814D01*
X182221790Y-96889712D01*
X182221784Y-96889705D01*
X182153232Y-96821153D01*
X185999500Y-96821153D01*
X185999500Y-96978846D01*
X186030261Y-97133489D01*
X186030264Y-97133501D01*
X186090602Y-97279172D01*
X186090609Y-97279185D01*
X186178210Y-97410288D01*
X186178213Y-97410292D01*
X186289707Y-97521786D01*
X186289711Y-97521789D01*
X186420814Y-97609390D01*
X186420827Y-97609397D01*
X186566498Y-97669735D01*
X186566503Y-97669737D01*
X186721153Y-97700499D01*
X186721156Y-97700500D01*
X186721158Y-97700500D01*
X186878844Y-97700500D01*
X186878845Y-97700499D01*
X187033497Y-97669737D01*
X187179179Y-97609394D01*
X187310289Y-97521789D01*
X187421789Y-97410289D01*
X187509394Y-97279179D01*
X187569737Y-97133497D01*
X187600500Y-96978842D01*
X187600500Y-96821158D01*
X187600500Y-96821155D01*
X187600499Y-96821153D01*
X187574531Y-96690606D01*
X187569737Y-96666503D01*
X187569735Y-96666498D01*
X187509397Y-96520827D01*
X187509390Y-96520814D01*
X187421789Y-96389711D01*
X187421786Y-96389707D01*
X187310292Y-96278213D01*
X187310288Y-96278210D01*
X187179185Y-96190609D01*
X187179172Y-96190602D01*
X187033501Y-96130264D01*
X187033489Y-96130261D01*
X186878845Y-96099500D01*
X186878842Y-96099500D01*
X186721158Y-96099500D01*
X186721155Y-96099500D01*
X186566510Y-96130261D01*
X186566498Y-96130264D01*
X186420827Y-96190602D01*
X186420814Y-96190609D01*
X186289711Y-96278210D01*
X186289707Y-96278213D01*
X186178213Y-96389707D01*
X186178210Y-96389711D01*
X186090609Y-96520814D01*
X186090602Y-96520827D01*
X186030264Y-96666498D01*
X186030261Y-96666510D01*
X185999500Y-96821153D01*
X182153232Y-96821153D01*
X182110292Y-96778213D01*
X182110288Y-96778210D01*
X181979185Y-96690609D01*
X181979172Y-96690602D01*
X181833501Y-96630264D01*
X181833489Y-96630261D01*
X181678845Y-96599500D01*
X181678842Y-96599500D01*
X181521158Y-96599500D01*
X181521155Y-96599500D01*
X181366510Y-96630261D01*
X181366498Y-96630264D01*
X181220827Y-96690602D01*
X181220814Y-96690609D01*
X181089711Y-96778210D01*
X181089707Y-96778213D01*
X180978213Y-96889707D01*
X180978210Y-96889711D01*
X180890609Y-97020814D01*
X180890602Y-97020827D01*
X180830264Y-97166498D01*
X180830261Y-97166510D01*
X180799500Y-97321153D01*
X116600500Y-97321153D01*
X116600500Y-93723713D01*
X143879500Y-93723713D01*
X143879500Y-93936286D01*
X143912753Y-94146239D01*
X143978444Y-94348414D01*
X144074951Y-94537820D01*
X144199890Y-94709786D01*
X144350213Y-94860109D01*
X144522179Y-94985048D01*
X144522181Y-94985049D01*
X144522184Y-94985051D01*
X144711588Y-95081557D01*
X144913757Y-95147246D01*
X145123713Y-95180500D01*
X145123714Y-95180500D01*
X145336286Y-95180500D01*
X145336287Y-95180500D01*
X145546243Y-95147246D01*
X145748412Y-95081557D01*
X145937816Y-94985051D01*
X145965761Y-94964748D01*
X146109786Y-94860109D01*
X146109788Y-94860106D01*
X146109792Y-94860104D01*
X146260104Y-94709792D01*
X146260106Y-94709788D01*
X146260109Y-94709786D01*
X146385048Y-94537820D01*
X146385047Y-94537820D01*
X146385051Y-94537816D01*
X146481557Y-94348412D01*
X146547246Y-94146243D01*
X146580500Y-93936287D01*
X146580500Y-93723713D01*
X170579500Y-93723713D01*
X170579500Y-93936286D01*
X170612753Y-94146239D01*
X170678444Y-94348414D01*
X170774951Y-94537820D01*
X170899890Y-94709786D01*
X171050213Y-94860109D01*
X171222179Y-94985048D01*
X171222181Y-94985049D01*
X171222184Y-94985051D01*
X171411588Y-95081557D01*
X171613757Y-95147246D01*
X171823713Y-95180500D01*
X171823714Y-95180500D01*
X172036286Y-95180500D01*
X172036287Y-95180500D01*
X172246243Y-95147246D01*
X172448412Y-95081557D01*
X172468831Y-95071153D01*
X193149500Y-95071153D01*
X193149500Y-95228846D01*
X193180261Y-95383489D01*
X193180264Y-95383501D01*
X193240602Y-95529172D01*
X193240609Y-95529185D01*
X193328210Y-95660288D01*
X193328213Y-95660292D01*
X193439707Y-95771786D01*
X193439711Y-95771789D01*
X193570814Y-95859390D01*
X193570827Y-95859397D01*
X193716498Y-95919735D01*
X193716503Y-95919737D01*
X193871153Y-95950499D01*
X193871156Y-95950500D01*
X193871158Y-95950500D01*
X194028844Y-95950500D01*
X194028845Y-95950499D01*
X194183497Y-95919737D01*
X194329179Y-95859394D01*
X194460289Y-95771789D01*
X194571789Y-95660289D01*
X194659394Y-95529179D01*
X194719737Y-95383497D01*
X194750500Y-95228842D01*
X194750500Y-95071158D01*
X194750500Y-95071155D01*
X194750499Y-95071153D01*
X194733372Y-94985051D01*
X194719737Y-94916503D01*
X194696378Y-94860109D01*
X194659397Y-94770827D01*
X194659390Y-94770814D01*
X194571789Y-94639711D01*
X194571786Y-94639707D01*
X194460292Y-94528213D01*
X194460288Y-94528210D01*
X194329185Y-94440609D01*
X194329172Y-94440602D01*
X194183501Y-94380264D01*
X194183489Y-94380261D01*
X194028845Y-94349500D01*
X194028842Y-94349500D01*
X193871158Y-94349500D01*
X193871155Y-94349500D01*
X193716510Y-94380261D01*
X193716498Y-94380264D01*
X193570827Y-94440602D01*
X193570814Y-94440609D01*
X193439711Y-94528210D01*
X193439707Y-94528213D01*
X193328213Y-94639707D01*
X193328210Y-94639711D01*
X193240609Y-94770814D01*
X193240602Y-94770827D01*
X193180264Y-94916498D01*
X193180261Y-94916510D01*
X193149500Y-95071153D01*
X172468831Y-95071153D01*
X172637816Y-94985051D01*
X172640705Y-94982951D01*
X172665762Y-94964748D01*
X172809785Y-94860109D01*
X172809783Y-94860109D01*
X172809792Y-94860104D01*
X172960104Y-94709792D01*
X172960106Y-94709788D01*
X172960109Y-94709786D01*
X173085048Y-94537820D01*
X173085047Y-94537820D01*
X173085051Y-94537816D01*
X173181557Y-94348412D01*
X173247246Y-94146243D01*
X173280500Y-93936287D01*
X173280500Y-93723713D01*
X173247246Y-93513757D01*
X173181557Y-93311588D01*
X173085051Y-93122184D01*
X173085049Y-93122181D01*
X173085048Y-93122179D01*
X172960109Y-92950213D01*
X172809786Y-92799890D01*
X172637820Y-92674951D01*
X172448414Y-92578444D01*
X172448413Y-92578443D01*
X172448412Y-92578443D01*
X172246243Y-92512754D01*
X172246241Y-92512753D01*
X172246240Y-92512753D01*
X172084957Y-92487208D01*
X172036287Y-92479500D01*
X171823713Y-92479500D01*
X171775042Y-92487208D01*
X171613760Y-92512753D01*
X171411585Y-92578444D01*
X171222179Y-92674951D01*
X171050213Y-92799890D01*
X170899890Y-92950213D01*
X170774951Y-93122179D01*
X170678444Y-93311585D01*
X170612753Y-93513760D01*
X170579500Y-93723713D01*
X146580500Y-93723713D01*
X146547246Y-93513757D01*
X146481557Y-93311588D01*
X146385051Y-93122184D01*
X146385049Y-93122181D01*
X146385048Y-93122179D01*
X146260109Y-92950213D01*
X146109786Y-92799890D01*
X145937820Y-92674951D01*
X145748414Y-92578444D01*
X145748413Y-92578443D01*
X145748412Y-92578443D01*
X145546243Y-92512754D01*
X145546241Y-92512753D01*
X145546240Y-92512753D01*
X145384957Y-92487208D01*
X145336287Y-92479500D01*
X145123713Y-92479500D01*
X145075042Y-92487208D01*
X144913760Y-92512753D01*
X144711585Y-92578444D01*
X144522179Y-92674951D01*
X144350213Y-92799890D01*
X144199890Y-92950213D01*
X144074951Y-93122179D01*
X143978444Y-93311585D01*
X143912753Y-93513760D01*
X143879500Y-93723713D01*
X116600500Y-93723713D01*
X116600500Y-92651153D01*
X137379500Y-92651153D01*
X137379500Y-92808846D01*
X137410261Y-92963489D01*
X137410264Y-92963501D01*
X137470602Y-93109172D01*
X137470609Y-93109185D01*
X137558210Y-93240288D01*
X137558213Y-93240292D01*
X137669707Y-93351786D01*
X137669711Y-93351789D01*
X137800814Y-93439390D01*
X137800827Y-93439397D01*
X137946498Y-93499735D01*
X137946503Y-93499737D01*
X138101153Y-93530499D01*
X138101156Y-93530500D01*
X138101158Y-93530500D01*
X138258844Y-93530500D01*
X138258845Y-93530499D01*
X138413497Y-93499737D01*
X138559179Y-93439394D01*
X138690289Y-93351789D01*
X138801789Y-93240289D01*
X138889394Y-93109179D01*
X138949737Y-92963497D01*
X138980500Y-92808842D01*
X138980500Y-92651158D01*
X138980500Y-92651155D01*
X138980499Y-92651153D01*
X138949737Y-92496503D01*
X138923641Y-92433501D01*
X138889397Y-92350827D01*
X138889390Y-92350814D01*
X138801789Y-92219711D01*
X138801786Y-92219707D01*
X138703232Y-92121153D01*
X179299500Y-92121153D01*
X179299500Y-92278846D01*
X179330261Y-92433489D01*
X179330264Y-92433501D01*
X179390602Y-92579172D01*
X179390609Y-92579185D01*
X179478210Y-92710288D01*
X179478213Y-92710292D01*
X179589707Y-92821786D01*
X179589711Y-92821789D01*
X179720814Y-92909390D01*
X179720827Y-92909397D01*
X179851419Y-92963489D01*
X179866503Y-92969737D01*
X180021153Y-93000499D01*
X180021156Y-93000500D01*
X180021158Y-93000500D01*
X180178844Y-93000500D01*
X180178845Y-93000499D01*
X180333497Y-92969737D01*
X180479179Y-92909394D01*
X180610289Y-92821789D01*
X180721789Y-92710289D01*
X180809394Y-92579179D01*
X180809699Y-92578444D01*
X180869735Y-92433501D01*
X180869737Y-92433497D01*
X180900500Y-92278842D01*
X180900500Y-92121158D01*
X180900500Y-92121155D01*
X180900499Y-92121153D01*
X184599500Y-92121153D01*
X184599500Y-92278846D01*
X184630261Y-92433489D01*
X184630264Y-92433501D01*
X184690602Y-92579172D01*
X184690609Y-92579185D01*
X184778210Y-92710288D01*
X184778213Y-92710292D01*
X184889707Y-92821786D01*
X184889711Y-92821789D01*
X185020814Y-92909390D01*
X185020827Y-92909397D01*
X185151419Y-92963489D01*
X185166503Y-92969737D01*
X185321153Y-93000499D01*
X185321156Y-93000500D01*
X185321158Y-93000500D01*
X185478844Y-93000500D01*
X185478845Y-93000499D01*
X185626378Y-92971153D01*
X193199500Y-92971153D01*
X193199500Y-93128846D01*
X193230261Y-93283489D01*
X193230264Y-93283501D01*
X193290602Y-93429172D01*
X193290609Y-93429185D01*
X193378210Y-93560288D01*
X193378213Y-93560292D01*
X193489707Y-93671786D01*
X193489711Y-93671789D01*
X193620814Y-93759390D01*
X193620827Y-93759397D01*
X193766498Y-93819735D01*
X193766503Y-93819737D01*
X193921153Y-93850499D01*
X193921156Y-93850500D01*
X193921158Y-93850500D01*
X194078844Y-93850500D01*
X194078845Y-93850499D01*
X194233497Y-93819737D01*
X194379179Y-93759394D01*
X194510289Y-93671789D01*
X194621789Y-93560289D01*
X194709394Y-93429179D01*
X194769737Y-93283497D01*
X194800500Y-93128842D01*
X194800500Y-92971158D01*
X194800500Y-92971155D01*
X194800499Y-92971153D01*
X194770788Y-92821789D01*
X194769737Y-92816503D01*
X194762856Y-92799890D01*
X194709397Y-92670827D01*
X194709390Y-92670814D01*
X194621789Y-92539711D01*
X194621786Y-92539707D01*
X194510292Y-92428213D01*
X194510288Y-92428210D01*
X194379185Y-92340609D01*
X194379172Y-92340602D01*
X194233501Y-92280264D01*
X194233489Y-92280261D01*
X194078845Y-92249500D01*
X194078842Y-92249500D01*
X193921158Y-92249500D01*
X193921155Y-92249500D01*
X193766510Y-92280261D01*
X193766498Y-92280264D01*
X193620827Y-92340602D01*
X193620814Y-92340609D01*
X193489711Y-92428210D01*
X193489707Y-92428213D01*
X193378213Y-92539707D01*
X193378210Y-92539711D01*
X193290609Y-92670814D01*
X193290602Y-92670827D01*
X193230264Y-92816498D01*
X193230261Y-92816510D01*
X193199500Y-92971153D01*
X185626378Y-92971153D01*
X185633497Y-92969737D01*
X185779179Y-92909394D01*
X185779185Y-92909390D01*
X185850164Y-92861964D01*
X185881224Y-92841209D01*
X185910289Y-92821789D01*
X186021789Y-92710289D01*
X186109394Y-92579179D01*
X186109699Y-92578444D01*
X186169735Y-92433501D01*
X186169737Y-92433497D01*
X186200500Y-92278842D01*
X186200500Y-92121158D01*
X186200500Y-92121155D01*
X186200499Y-92121153D01*
X186178269Y-92009397D01*
X186169737Y-91966503D01*
X186167152Y-91960263D01*
X186109397Y-91820827D01*
X186109390Y-91820814D01*
X186021789Y-91689711D01*
X186021786Y-91689707D01*
X185910292Y-91578213D01*
X185910288Y-91578210D01*
X185779185Y-91490609D01*
X185779172Y-91490602D01*
X185633501Y-91430264D01*
X185633489Y-91430261D01*
X185478845Y-91399500D01*
X185478842Y-91399500D01*
X185321158Y-91399500D01*
X185321155Y-91399500D01*
X185166510Y-91430261D01*
X185166498Y-91430264D01*
X185020827Y-91490602D01*
X185020814Y-91490609D01*
X184889711Y-91578210D01*
X184889707Y-91578213D01*
X184778213Y-91689707D01*
X184778210Y-91689711D01*
X184690609Y-91820814D01*
X184690602Y-91820827D01*
X184630264Y-91966498D01*
X184630261Y-91966510D01*
X184599500Y-92121153D01*
X180900499Y-92121153D01*
X180878269Y-92009397D01*
X180869737Y-91966503D01*
X180867152Y-91960263D01*
X180809397Y-91820827D01*
X180809390Y-91820814D01*
X180721789Y-91689711D01*
X180721786Y-91689707D01*
X180610292Y-91578213D01*
X180610288Y-91578210D01*
X180479185Y-91490609D01*
X180479172Y-91490602D01*
X180333501Y-91430264D01*
X180333489Y-91430261D01*
X180178845Y-91399500D01*
X180178842Y-91399500D01*
X180021158Y-91399500D01*
X180021155Y-91399500D01*
X179866510Y-91430261D01*
X179866498Y-91430264D01*
X179720827Y-91490602D01*
X179720814Y-91490609D01*
X179589711Y-91578210D01*
X179589707Y-91578213D01*
X179478213Y-91689707D01*
X179478210Y-91689711D01*
X179390609Y-91820814D01*
X179390602Y-91820827D01*
X179330264Y-91966498D01*
X179330261Y-91966510D01*
X179299500Y-92121153D01*
X138703232Y-92121153D01*
X138690292Y-92108213D01*
X138690288Y-92108210D01*
X138559185Y-92020609D01*
X138559172Y-92020602D01*
X138413501Y-91960264D01*
X138413489Y-91960261D01*
X138258845Y-91929500D01*
X138258842Y-91929500D01*
X138101158Y-91929500D01*
X138101155Y-91929500D01*
X137946510Y-91960261D01*
X137946498Y-91960264D01*
X137800827Y-92020602D01*
X137800814Y-92020609D01*
X137669711Y-92108210D01*
X137669707Y-92108213D01*
X137558213Y-92219707D01*
X137558210Y-92219711D01*
X137470609Y-92350814D01*
X137470602Y-92350827D01*
X137410264Y-92496498D01*
X137410261Y-92496510D01*
X137379500Y-92651153D01*
X116600500Y-92651153D01*
X116600500Y-91221153D01*
X187599500Y-91221153D01*
X187599500Y-91378846D01*
X187630261Y-91533489D01*
X187630264Y-91533501D01*
X187690602Y-91679172D01*
X187690609Y-91679185D01*
X187778210Y-91810288D01*
X187778213Y-91810292D01*
X187889707Y-91921786D01*
X187889711Y-91921789D01*
X188020814Y-92009390D01*
X188020827Y-92009397D01*
X188166498Y-92069735D01*
X188166503Y-92069737D01*
X188321153Y-92100499D01*
X188321156Y-92100500D01*
X188321158Y-92100500D01*
X188478844Y-92100500D01*
X188478845Y-92100499D01*
X188633497Y-92069737D01*
X188779179Y-92009394D01*
X188910289Y-91921789D01*
X189021789Y-91810289D01*
X189109394Y-91679179D01*
X189169737Y-91533497D01*
X189200500Y-91378842D01*
X189200500Y-91221158D01*
X189200500Y-91221155D01*
X189200499Y-91221153D01*
X189169737Y-91066503D01*
X189150955Y-91021158D01*
X189150953Y-91021153D01*
X190699500Y-91021153D01*
X190699500Y-91178846D01*
X190730261Y-91333489D01*
X190730264Y-91333501D01*
X190790602Y-91479172D01*
X190790609Y-91479185D01*
X190878210Y-91610288D01*
X190878213Y-91610292D01*
X190989707Y-91721786D01*
X190989711Y-91721789D01*
X191120814Y-91809390D01*
X191120827Y-91809397D01*
X191266498Y-91869735D01*
X191266503Y-91869737D01*
X191421153Y-91900499D01*
X191421156Y-91900500D01*
X191421158Y-91900500D01*
X191578844Y-91900500D01*
X191578845Y-91900499D01*
X191733497Y-91869737D01*
X191851592Y-91820821D01*
X191879172Y-91809397D01*
X191879172Y-91809396D01*
X191879179Y-91809394D01*
X192010289Y-91721789D01*
X192121789Y-91610289D01*
X192209394Y-91479179D01*
X192269737Y-91333497D01*
X192300500Y-91178842D01*
X192300500Y-91021158D01*
X192300500Y-91021155D01*
X192300499Y-91021153D01*
X192280543Y-90920827D01*
X192269737Y-90866503D01*
X192237929Y-90789711D01*
X192209397Y-90720827D01*
X192209390Y-90720814D01*
X192121789Y-90589711D01*
X192121786Y-90589707D01*
X192010292Y-90478213D01*
X192010288Y-90478210D01*
X191879185Y-90390609D01*
X191879172Y-90390602D01*
X191733501Y-90330264D01*
X191733489Y-90330261D01*
X191578845Y-90299500D01*
X191578842Y-90299500D01*
X191421158Y-90299500D01*
X191421155Y-90299500D01*
X191266510Y-90330261D01*
X191266498Y-90330264D01*
X191120827Y-90390602D01*
X191120814Y-90390609D01*
X190989711Y-90478210D01*
X190989707Y-90478213D01*
X190878213Y-90589707D01*
X190878210Y-90589711D01*
X190790609Y-90720814D01*
X190790602Y-90720827D01*
X190730264Y-90866498D01*
X190730261Y-90866510D01*
X190699500Y-91021153D01*
X189150953Y-91021153D01*
X189109397Y-90920827D01*
X189109390Y-90920814D01*
X189021789Y-90789711D01*
X189021786Y-90789707D01*
X188910292Y-90678213D01*
X188910288Y-90678210D01*
X188779185Y-90590609D01*
X188779172Y-90590602D01*
X188633501Y-90530264D01*
X188633489Y-90530261D01*
X188478845Y-90499500D01*
X188478842Y-90499500D01*
X188321158Y-90499500D01*
X188321155Y-90499500D01*
X188166510Y-90530261D01*
X188166498Y-90530264D01*
X188020827Y-90590602D01*
X188020814Y-90590609D01*
X187889711Y-90678210D01*
X187889707Y-90678213D01*
X187778213Y-90789707D01*
X187778210Y-90789711D01*
X187690609Y-90920814D01*
X187690602Y-90920827D01*
X187630264Y-91066498D01*
X187630261Y-91066510D01*
X187599500Y-91221153D01*
X116600500Y-91221153D01*
X116600500Y-88221153D01*
X193499500Y-88221153D01*
X193499500Y-88378846D01*
X193530261Y-88533489D01*
X193530264Y-88533501D01*
X193590602Y-88679172D01*
X193590609Y-88679185D01*
X193678210Y-88810288D01*
X193678213Y-88810292D01*
X193789707Y-88921786D01*
X193789711Y-88921789D01*
X193920814Y-89009390D01*
X193920827Y-89009397D01*
X194066498Y-89069735D01*
X194066503Y-89069737D01*
X194221153Y-89100499D01*
X194221156Y-89100500D01*
X194221158Y-89100500D01*
X194378844Y-89100500D01*
X194378845Y-89100499D01*
X194533497Y-89069737D01*
X194679179Y-89009394D01*
X194810289Y-88921789D01*
X194921789Y-88810289D01*
X195009394Y-88679179D01*
X195069737Y-88533497D01*
X195100500Y-88378842D01*
X195100500Y-88221158D01*
X195100500Y-88221155D01*
X195100499Y-88221153D01*
X195069738Y-88066510D01*
X195069737Y-88066503D01*
X195046080Y-88009390D01*
X195009397Y-87920827D01*
X195009390Y-87920814D01*
X194921789Y-87789711D01*
X194921786Y-87789707D01*
X194810292Y-87678213D01*
X194810288Y-87678210D01*
X194679185Y-87590609D01*
X194679172Y-87590602D01*
X194533501Y-87530264D01*
X194533489Y-87530261D01*
X194378845Y-87499500D01*
X194378842Y-87499500D01*
X194221158Y-87499500D01*
X194221155Y-87499500D01*
X194066510Y-87530261D01*
X194066498Y-87530264D01*
X193920827Y-87590602D01*
X193920814Y-87590609D01*
X193789711Y-87678210D01*
X193789707Y-87678213D01*
X193678213Y-87789707D01*
X193678210Y-87789711D01*
X193590609Y-87920814D01*
X193590602Y-87920827D01*
X193530264Y-88066498D01*
X193530261Y-88066510D01*
X193499500Y-88221153D01*
X116600500Y-88221153D01*
X116600500Y-87151153D01*
X129529500Y-87151153D01*
X129529500Y-87308846D01*
X129560261Y-87463489D01*
X129560264Y-87463501D01*
X129620602Y-87609172D01*
X129620609Y-87609185D01*
X129708210Y-87740288D01*
X129708213Y-87740292D01*
X129819707Y-87851786D01*
X129819711Y-87851789D01*
X129950814Y-87939390D01*
X129950827Y-87939397D01*
X130096498Y-87999735D01*
X130096503Y-87999737D01*
X130251153Y-88030499D01*
X130251156Y-88030500D01*
X130251158Y-88030500D01*
X130408844Y-88030500D01*
X130408845Y-88030499D01*
X130563497Y-87999737D01*
X130709179Y-87939394D01*
X130840289Y-87851789D01*
X130951789Y-87740289D01*
X131039394Y-87609179D01*
X131099737Y-87463497D01*
X131130500Y-87308842D01*
X131130500Y-87221153D01*
X172999500Y-87221153D01*
X172999500Y-87378846D01*
X173030261Y-87533489D01*
X173030264Y-87533501D01*
X173090602Y-87679172D01*
X173090609Y-87679185D01*
X173178210Y-87810288D01*
X173178213Y-87810292D01*
X173289707Y-87921786D01*
X173289711Y-87921789D01*
X173420814Y-88009390D01*
X173420827Y-88009397D01*
X173558683Y-88066498D01*
X173566503Y-88069737D01*
X173721153Y-88100499D01*
X173721156Y-88100500D01*
X173721158Y-88100500D01*
X173878844Y-88100500D01*
X173878845Y-88100499D01*
X173889179Y-88098443D01*
X173914287Y-88093450D01*
X173914292Y-88093449D01*
X173999800Y-88076439D01*
X174033497Y-88069737D01*
X174179179Y-88009394D01*
X174310289Y-87921789D01*
X174421789Y-87810289D01*
X174509394Y-87679179D01*
X174569737Y-87533497D01*
X174600500Y-87378842D01*
X174600500Y-87221158D01*
X174600500Y-87221155D01*
X174600499Y-87221153D01*
X174600354Y-87220425D01*
X174569737Y-87066503D01*
X174540745Y-86996510D01*
X174509397Y-86920827D01*
X174509390Y-86920814D01*
X174421789Y-86789711D01*
X174421786Y-86789707D01*
X174310292Y-86678213D01*
X174310288Y-86678210D01*
X174179185Y-86590609D01*
X174179172Y-86590602D01*
X174033501Y-86530264D01*
X174033489Y-86530261D01*
X173878845Y-86499500D01*
X173878842Y-86499500D01*
X173721158Y-86499500D01*
X173721155Y-86499500D01*
X173566510Y-86530261D01*
X173566498Y-86530264D01*
X173420827Y-86590602D01*
X173420814Y-86590609D01*
X173289711Y-86678210D01*
X173289707Y-86678213D01*
X173178213Y-86789707D01*
X173178210Y-86789711D01*
X173090609Y-86920814D01*
X173090602Y-86920827D01*
X173030264Y-87066498D01*
X173030261Y-87066510D01*
X172999500Y-87221153D01*
X131130500Y-87221153D01*
X131130500Y-87151158D01*
X131130500Y-87151155D01*
X131130499Y-87151153D01*
X131124658Y-87121789D01*
X131099737Y-86996503D01*
X131099735Y-86996498D01*
X131039397Y-86850827D01*
X131039390Y-86850814D01*
X130951789Y-86719711D01*
X130951786Y-86719707D01*
X130840292Y-86608213D01*
X130840288Y-86608210D01*
X130709185Y-86520609D01*
X130709172Y-86520602D01*
X130563501Y-86460264D01*
X130563489Y-86460261D01*
X130408845Y-86429500D01*
X130408842Y-86429500D01*
X130251158Y-86429500D01*
X130251155Y-86429500D01*
X130096510Y-86460261D01*
X130096498Y-86460264D01*
X129950827Y-86520602D01*
X129950814Y-86520609D01*
X129819711Y-86608210D01*
X129819707Y-86608213D01*
X129708213Y-86719707D01*
X129708210Y-86719711D01*
X129620609Y-86850814D01*
X129620602Y-86850827D01*
X129560264Y-86996498D01*
X129560261Y-86996510D01*
X129529500Y-87151153D01*
X116600500Y-87151153D01*
X116600500Y-85251153D01*
X125129500Y-85251153D01*
X125129500Y-85408846D01*
X125160261Y-85563489D01*
X125160264Y-85563501D01*
X125220602Y-85709172D01*
X125220609Y-85709185D01*
X125308210Y-85840288D01*
X125308213Y-85840292D01*
X125419707Y-85951786D01*
X125419711Y-85951789D01*
X125550814Y-86039390D01*
X125550827Y-86039397D01*
X125646062Y-86078844D01*
X125696503Y-86099737D01*
X125851153Y-86130499D01*
X125851156Y-86130500D01*
X125851158Y-86130500D01*
X126008844Y-86130500D01*
X126008845Y-86130499D01*
X126163497Y-86099737D01*
X126309179Y-86039394D01*
X126440289Y-85951789D01*
X126551789Y-85840289D01*
X126639394Y-85709179D01*
X126699737Y-85563497D01*
X126730500Y-85408842D01*
X126730500Y-85251158D01*
X126730500Y-85251155D01*
X126730499Y-85251153D01*
X126725851Y-85227786D01*
X126699737Y-85096503D01*
X126699735Y-85096498D01*
X126639397Y-84950827D01*
X126639390Y-84950814D01*
X126551789Y-84819711D01*
X126551786Y-84819707D01*
X126440292Y-84708213D01*
X126440288Y-84708210D01*
X126354897Y-84651153D01*
X131029500Y-84651153D01*
X131029500Y-84808846D01*
X131060261Y-84963489D01*
X131060264Y-84963501D01*
X131120602Y-85109172D01*
X131120609Y-85109185D01*
X131155304Y-85161109D01*
X131176182Y-85227786D01*
X131157698Y-85295167D01*
X131155304Y-85298891D01*
X131120609Y-85350814D01*
X131120602Y-85350827D01*
X131060264Y-85496498D01*
X131060261Y-85496510D01*
X131029500Y-85651153D01*
X131029500Y-85808846D01*
X131060261Y-85963489D01*
X131060264Y-85963501D01*
X131120602Y-86109172D01*
X131120609Y-86109185D01*
X131208210Y-86240288D01*
X131208213Y-86240292D01*
X131319707Y-86351786D01*
X131319711Y-86351789D01*
X131450814Y-86439390D01*
X131450827Y-86439397D01*
X131595931Y-86499500D01*
X131596503Y-86499737D01*
X131749967Y-86530263D01*
X131751153Y-86530499D01*
X131751156Y-86530500D01*
X131751158Y-86530500D01*
X131908844Y-86530500D01*
X131908845Y-86530499D01*
X132063497Y-86499737D01*
X132209179Y-86439394D01*
X132340289Y-86351789D01*
X132451789Y-86240289D01*
X132539394Y-86109179D01*
X132599737Y-85963497D01*
X132608160Y-85921153D01*
X188699500Y-85921153D01*
X188699500Y-86078846D01*
X188730261Y-86233489D01*
X188730264Y-86233501D01*
X188790602Y-86379172D01*
X188790609Y-86379185D01*
X188878210Y-86510288D01*
X188878213Y-86510292D01*
X188989707Y-86621786D01*
X188989711Y-86621789D01*
X189120814Y-86709390D01*
X189120827Y-86709397D01*
X189266498Y-86769735D01*
X189266503Y-86769737D01*
X189421153Y-86800499D01*
X189421156Y-86800500D01*
X189421158Y-86800500D01*
X189578844Y-86800500D01*
X189578845Y-86800499D01*
X189733497Y-86769737D01*
X189879179Y-86709394D01*
X190010289Y-86621789D01*
X190121789Y-86510289D01*
X190181348Y-86421153D01*
X193999500Y-86421153D01*
X193999500Y-86578846D01*
X194030261Y-86733489D01*
X194030264Y-86733501D01*
X194090602Y-86879172D01*
X194090609Y-86879185D01*
X194178210Y-87010288D01*
X194178213Y-87010292D01*
X194289707Y-87121786D01*
X194289711Y-87121789D01*
X194420814Y-87209390D01*
X194420827Y-87209397D01*
X194566498Y-87269735D01*
X194566503Y-87269737D01*
X194721153Y-87300499D01*
X194721156Y-87300500D01*
X194721158Y-87300500D01*
X194878844Y-87300500D01*
X194878845Y-87300499D01*
X195033497Y-87269737D01*
X195150778Y-87221158D01*
X195152548Y-87220425D01*
X195222017Y-87212956D01*
X195247452Y-87220425D01*
X195249222Y-87221158D01*
X195366503Y-87269737D01*
X195521153Y-87300499D01*
X195521156Y-87300500D01*
X195521158Y-87300500D01*
X195678844Y-87300500D01*
X195678845Y-87300499D01*
X195833497Y-87269737D01*
X195979179Y-87209394D01*
X196110289Y-87121789D01*
X196221789Y-87010289D01*
X196309394Y-86879179D01*
X196369737Y-86733497D01*
X196400500Y-86578842D01*
X196400500Y-86421158D01*
X196400500Y-86421155D01*
X196400499Y-86421153D01*
X196389849Y-86367611D01*
X196369737Y-86266503D01*
X196358879Y-86240289D01*
X196309397Y-86120827D01*
X196309390Y-86120814D01*
X196221789Y-85989711D01*
X196221786Y-85989707D01*
X196110292Y-85878213D01*
X196110288Y-85878210D01*
X195979185Y-85790609D01*
X195979172Y-85790602D01*
X195833501Y-85730264D01*
X195833489Y-85730261D01*
X195678845Y-85699500D01*
X195678842Y-85699500D01*
X195521158Y-85699500D01*
X195521155Y-85699500D01*
X195366510Y-85730261D01*
X195366498Y-85730264D01*
X195247452Y-85779574D01*
X195177982Y-85787043D01*
X195152548Y-85779574D01*
X195033501Y-85730264D01*
X195033489Y-85730261D01*
X194878845Y-85699500D01*
X194878842Y-85699500D01*
X194721158Y-85699500D01*
X194721155Y-85699500D01*
X194566510Y-85730261D01*
X194566498Y-85730264D01*
X194420827Y-85790602D01*
X194420814Y-85790609D01*
X194289711Y-85878210D01*
X194289707Y-85878213D01*
X194178213Y-85989707D01*
X194178210Y-85989711D01*
X194090609Y-86120814D01*
X194090602Y-86120827D01*
X194030264Y-86266498D01*
X194030261Y-86266510D01*
X193999500Y-86421153D01*
X190181348Y-86421153D01*
X190209394Y-86379179D01*
X190269737Y-86233497D01*
X190300500Y-86078842D01*
X190300500Y-85921158D01*
X190300500Y-85921155D01*
X190300499Y-85921153D01*
X190291957Y-85878210D01*
X190269737Y-85766503D01*
X190269735Y-85766498D01*
X190209397Y-85620827D01*
X190209390Y-85620814D01*
X190121789Y-85489711D01*
X190121786Y-85489707D01*
X190010292Y-85378213D01*
X190010288Y-85378210D01*
X189879185Y-85290609D01*
X189879172Y-85290602D01*
X189733501Y-85230264D01*
X189733489Y-85230261D01*
X189578845Y-85199500D01*
X189578842Y-85199500D01*
X189421158Y-85199500D01*
X189421155Y-85199500D01*
X189266510Y-85230261D01*
X189266498Y-85230264D01*
X189120827Y-85290602D01*
X189120814Y-85290609D01*
X188989711Y-85378210D01*
X188989707Y-85378213D01*
X188878213Y-85489707D01*
X188878210Y-85489711D01*
X188790609Y-85620814D01*
X188790602Y-85620827D01*
X188730264Y-85766498D01*
X188730261Y-85766510D01*
X188699500Y-85921153D01*
X132608160Y-85921153D01*
X132616702Y-85878210D01*
X132630500Y-85808844D01*
X132630500Y-85651155D01*
X132630499Y-85651153D01*
X132624467Y-85620827D01*
X132599737Y-85496503D01*
X132550740Y-85378213D01*
X132539396Y-85350825D01*
X132539394Y-85350822D01*
X132539394Y-85350821D01*
X132504694Y-85298889D01*
X132483816Y-85232215D01*
X132502300Y-85164835D01*
X132504676Y-85161136D01*
X132539394Y-85109179D01*
X132599737Y-84963497D01*
X132630500Y-84808842D01*
X132630500Y-84651158D01*
X132630500Y-84651155D01*
X132630499Y-84651153D01*
X132612419Y-84560261D01*
X132599737Y-84496503D01*
X132599735Y-84496498D01*
X132539397Y-84350827D01*
X132539390Y-84350814D01*
X132451789Y-84219711D01*
X132451786Y-84219707D01*
X132340292Y-84108213D01*
X132340288Y-84108210D01*
X132209185Y-84020609D01*
X132209172Y-84020602D01*
X132063501Y-83960264D01*
X132063489Y-83960261D01*
X131908845Y-83929500D01*
X131908842Y-83929500D01*
X131751158Y-83929500D01*
X131751155Y-83929500D01*
X131596510Y-83960261D01*
X131596498Y-83960264D01*
X131450827Y-84020602D01*
X131450814Y-84020609D01*
X131319711Y-84108210D01*
X131319707Y-84108213D01*
X131208213Y-84219707D01*
X131208210Y-84219711D01*
X131120609Y-84350814D01*
X131120602Y-84350827D01*
X131060264Y-84496498D01*
X131060261Y-84496510D01*
X131029500Y-84651153D01*
X126354897Y-84651153D01*
X126309185Y-84620609D01*
X126309172Y-84620602D01*
X126163501Y-84560264D01*
X126163489Y-84560261D01*
X126008845Y-84529500D01*
X126008842Y-84529500D01*
X125851158Y-84529500D01*
X125851155Y-84529500D01*
X125696510Y-84560261D01*
X125696498Y-84560264D01*
X125550827Y-84620602D01*
X125550814Y-84620609D01*
X125419711Y-84708210D01*
X125419707Y-84708213D01*
X125308213Y-84819707D01*
X125308210Y-84819711D01*
X125220609Y-84950814D01*
X125220602Y-84950827D01*
X125160264Y-85096498D01*
X125160261Y-85096510D01*
X125129500Y-85251153D01*
X116600500Y-85251153D01*
X116600500Y-81551153D01*
X125129500Y-81551153D01*
X125129500Y-81708846D01*
X125160261Y-81863489D01*
X125160264Y-81863501D01*
X125220602Y-82009172D01*
X125220609Y-82009185D01*
X125308210Y-82140288D01*
X125308213Y-82140292D01*
X125419707Y-82251786D01*
X125419711Y-82251789D01*
X125550814Y-82339390D01*
X125550827Y-82339397D01*
X125688683Y-82396498D01*
X125696503Y-82399737D01*
X125851153Y-82430499D01*
X125851156Y-82430500D01*
X125851158Y-82430500D01*
X126008843Y-82430500D01*
X126024677Y-82427350D01*
X126082048Y-82415938D01*
X126151638Y-82422165D01*
X126206816Y-82465027D01*
X126230061Y-82530916D01*
X126229643Y-82549697D01*
X126229500Y-82551150D01*
X126229500Y-82708846D01*
X126260261Y-82863489D01*
X126260264Y-82863501D01*
X126320602Y-83009172D01*
X126320609Y-83009185D01*
X126408210Y-83140288D01*
X126408213Y-83140292D01*
X126519707Y-83251786D01*
X126519711Y-83251789D01*
X126650814Y-83339390D01*
X126650827Y-83339397D01*
X126796498Y-83399735D01*
X126796503Y-83399737D01*
X126951153Y-83430499D01*
X126951156Y-83430500D01*
X126951158Y-83430500D01*
X127108844Y-83430500D01*
X127108845Y-83430499D01*
X127263497Y-83399737D01*
X127409179Y-83339394D01*
X127540289Y-83251789D01*
X127651789Y-83140289D01*
X127739394Y-83009179D01*
X127799737Y-82863497D01*
X127830500Y-82708842D01*
X127830500Y-82551158D01*
X127830500Y-82551155D01*
X127830499Y-82551153D01*
X127806499Y-82430499D01*
X127799737Y-82396503D01*
X127799735Y-82396498D01*
X127739397Y-82250827D01*
X127739390Y-82250814D01*
X127651789Y-82119711D01*
X127651786Y-82119707D01*
X127540292Y-82008213D01*
X127540288Y-82008210D01*
X127409185Y-81920609D01*
X127409172Y-81920602D01*
X127263501Y-81860264D01*
X127263489Y-81860261D01*
X127108845Y-81829500D01*
X127108842Y-81829500D01*
X126951158Y-81829500D01*
X126951153Y-81829500D01*
X126877951Y-81844061D01*
X126808360Y-81837834D01*
X126753182Y-81794971D01*
X126729938Y-81729081D01*
X126730358Y-81710285D01*
X126730500Y-81708843D01*
X126730500Y-81551155D01*
X126730499Y-81551153D01*
X126707096Y-81433501D01*
X126699737Y-81396503D01*
X126699735Y-81396498D01*
X126639397Y-81250827D01*
X126639395Y-81250823D01*
X126639394Y-81250821D01*
X126594717Y-81183957D01*
X126552753Y-81121153D01*
X171399500Y-81121153D01*
X171399500Y-81278846D01*
X171430261Y-81433489D01*
X171430264Y-81433501D01*
X171490602Y-81579172D01*
X171490609Y-81579185D01*
X171578210Y-81710288D01*
X171578213Y-81710292D01*
X171689707Y-81821786D01*
X171689711Y-81821789D01*
X171820814Y-81909390D01*
X171820827Y-81909397D01*
X171966498Y-81969735D01*
X171966503Y-81969737D01*
X172121153Y-82000499D01*
X172121156Y-82000500D01*
X172121158Y-82000500D01*
X172278844Y-82000500D01*
X172278845Y-82000499D01*
X172433497Y-81969737D01*
X172579179Y-81909394D01*
X172710289Y-81821789D01*
X172821789Y-81710289D01*
X172881348Y-81621153D01*
X192699500Y-81621153D01*
X192699500Y-81778846D01*
X192730261Y-81933489D01*
X192730264Y-81933501D01*
X192790602Y-82079172D01*
X192790609Y-82079185D01*
X192878210Y-82210288D01*
X192878213Y-82210292D01*
X192989707Y-82321786D01*
X192989711Y-82321789D01*
X193120814Y-82409390D01*
X193120827Y-82409397D01*
X193255132Y-82465027D01*
X193266503Y-82469737D01*
X193421153Y-82500499D01*
X193421156Y-82500500D01*
X193421158Y-82500500D01*
X193578844Y-82500500D01*
X193578845Y-82500499D01*
X193733497Y-82469737D01*
X193879179Y-82409394D01*
X194010289Y-82321789D01*
X194121789Y-82210289D01*
X194209394Y-82079179D01*
X194269737Y-81933497D01*
X194300500Y-81778842D01*
X194300500Y-81621158D01*
X194300500Y-81621155D01*
X194300499Y-81621153D01*
X194269738Y-81466510D01*
X194269737Y-81466503D01*
X194240745Y-81396510D01*
X194209397Y-81320827D01*
X194209390Y-81320814D01*
X194121789Y-81189711D01*
X194121786Y-81189707D01*
X194010292Y-81078213D01*
X194010288Y-81078210D01*
X193879185Y-80990609D01*
X193879172Y-80990602D01*
X193733501Y-80930264D01*
X193733489Y-80930261D01*
X193578845Y-80899500D01*
X193578842Y-80899500D01*
X193421158Y-80899500D01*
X193421155Y-80899500D01*
X193266510Y-80930261D01*
X193266498Y-80930264D01*
X193120827Y-80990602D01*
X193120814Y-80990609D01*
X192989711Y-81078210D01*
X192989707Y-81078213D01*
X192878213Y-81189707D01*
X192878210Y-81189711D01*
X192790609Y-81320814D01*
X192790602Y-81320827D01*
X192730264Y-81466498D01*
X192730261Y-81466510D01*
X192699500Y-81621153D01*
X172881348Y-81621153D01*
X172909394Y-81579179D01*
X172969737Y-81433497D01*
X173000500Y-81278842D01*
X173000500Y-81121158D01*
X173000500Y-81121155D01*
X173000499Y-81121153D01*
X172991957Y-81078210D01*
X172969737Y-80966503D01*
X172969735Y-80966498D01*
X172909397Y-80820827D01*
X172909390Y-80820814D01*
X172821789Y-80689711D01*
X172821786Y-80689707D01*
X172710292Y-80578213D01*
X172710288Y-80578210D01*
X172579185Y-80490609D01*
X172579172Y-80490602D01*
X172433501Y-80430264D01*
X172433489Y-80430261D01*
X172278845Y-80399500D01*
X172278842Y-80399500D01*
X172121158Y-80399500D01*
X172121155Y-80399500D01*
X171966510Y-80430261D01*
X171966498Y-80430264D01*
X171820827Y-80490602D01*
X171820814Y-80490609D01*
X171689711Y-80578210D01*
X171689707Y-80578213D01*
X171578213Y-80689707D01*
X171578210Y-80689711D01*
X171490609Y-80820814D01*
X171490602Y-80820827D01*
X171430264Y-80966498D01*
X171430261Y-80966510D01*
X171399500Y-81121153D01*
X126552753Y-81121153D01*
X126551789Y-81119710D01*
X126440292Y-81008213D01*
X126440288Y-81008210D01*
X126309185Y-80920609D01*
X126309172Y-80920602D01*
X126163501Y-80860264D01*
X126163489Y-80860261D01*
X126008845Y-80829500D01*
X126008842Y-80829500D01*
X125851158Y-80829500D01*
X125851155Y-80829500D01*
X125696510Y-80860261D01*
X125696498Y-80860264D01*
X125550827Y-80920602D01*
X125550814Y-80920609D01*
X125419711Y-81008210D01*
X125419707Y-81008213D01*
X125308213Y-81119707D01*
X125308210Y-81119711D01*
X125220609Y-81250814D01*
X125220602Y-81250827D01*
X125160264Y-81396498D01*
X125160261Y-81396510D01*
X125129500Y-81551153D01*
X116600500Y-81551153D01*
X116600500Y-79621153D01*
X151799500Y-79621153D01*
X151799500Y-79778846D01*
X151830261Y-79933489D01*
X151830264Y-79933501D01*
X151890602Y-80079172D01*
X151890609Y-80079185D01*
X151978210Y-80210288D01*
X151978213Y-80210292D01*
X152089707Y-80321786D01*
X152089711Y-80321789D01*
X152220814Y-80409390D01*
X152220827Y-80409397D01*
X152366498Y-80469735D01*
X152366503Y-80469737D01*
X152521153Y-80500499D01*
X152521156Y-80500500D01*
X152521158Y-80500500D01*
X152678844Y-80500500D01*
X152678845Y-80500499D01*
X152833497Y-80469737D01*
X152979179Y-80409394D01*
X153110289Y-80321789D01*
X153221789Y-80210289D01*
X153309394Y-80079179D01*
X153369737Y-79933497D01*
X153400500Y-79778842D01*
X153400500Y-79621158D01*
X153400500Y-79621155D01*
X153400499Y-79621153D01*
X153369738Y-79466510D01*
X153369737Y-79466503D01*
X153369735Y-79466498D01*
X153309397Y-79320827D01*
X153309390Y-79320814D01*
X153221789Y-79189711D01*
X153221786Y-79189707D01*
X153110292Y-79078213D01*
X153110288Y-79078210D01*
X152979185Y-78990609D01*
X152979172Y-78990602D01*
X152833501Y-78930264D01*
X152833489Y-78930261D01*
X152678845Y-78899500D01*
X152678842Y-78899500D01*
X152521158Y-78899500D01*
X152521155Y-78899500D01*
X152366510Y-78930261D01*
X152366498Y-78930264D01*
X152220827Y-78990602D01*
X152220814Y-78990609D01*
X152089711Y-79078210D01*
X152089707Y-79078213D01*
X151978213Y-79189707D01*
X151978210Y-79189711D01*
X151890609Y-79320814D01*
X151890602Y-79320827D01*
X151830264Y-79466498D01*
X151830261Y-79466510D01*
X151799500Y-79621153D01*
X116600500Y-79621153D01*
X116600500Y-76351153D01*
X123729500Y-76351153D01*
X123729500Y-76508846D01*
X123760261Y-76663489D01*
X123760264Y-76663501D01*
X123820602Y-76809172D01*
X123820609Y-76809185D01*
X123908210Y-76940288D01*
X123908213Y-76940292D01*
X124019707Y-77051786D01*
X124019711Y-77051789D01*
X124150814Y-77139390D01*
X124150827Y-77139397D01*
X124296498Y-77199735D01*
X124296503Y-77199737D01*
X124451153Y-77230499D01*
X124451156Y-77230500D01*
X124451158Y-77230500D01*
X124608844Y-77230500D01*
X124608845Y-77230499D01*
X124763497Y-77199737D01*
X124909179Y-77139394D01*
X125040289Y-77051789D01*
X125140925Y-76951153D01*
X132029500Y-76951153D01*
X132029500Y-77108846D01*
X132060261Y-77263489D01*
X132060264Y-77263501D01*
X132120602Y-77409172D01*
X132120609Y-77409185D01*
X132208210Y-77540288D01*
X132208213Y-77540292D01*
X132319707Y-77651786D01*
X132319711Y-77651789D01*
X132450814Y-77739390D01*
X132450827Y-77739397D01*
X132596498Y-77799735D01*
X132596503Y-77799737D01*
X132751153Y-77830499D01*
X132751156Y-77830500D01*
X132751158Y-77830500D01*
X132908844Y-77830500D01*
X132908845Y-77830499D01*
X133063497Y-77799737D01*
X133209179Y-77739394D01*
X133340289Y-77651789D01*
X133451789Y-77540289D01*
X133539394Y-77409179D01*
X133599737Y-77263497D01*
X133630500Y-77108842D01*
X133630500Y-76951158D01*
X133630500Y-76951155D01*
X133630499Y-76951153D01*
X133614304Y-76869735D01*
X133599737Y-76796503D01*
X133568790Y-76721789D01*
X133539397Y-76650827D01*
X133539390Y-76650814D01*
X133451789Y-76519711D01*
X133451786Y-76519707D01*
X133340292Y-76408213D01*
X133340288Y-76408210D01*
X133209185Y-76320609D01*
X133209172Y-76320602D01*
X133063501Y-76260264D01*
X133063489Y-76260261D01*
X132908845Y-76229500D01*
X132908842Y-76229500D01*
X132751158Y-76229500D01*
X132751155Y-76229500D01*
X132596510Y-76260261D01*
X132596498Y-76260264D01*
X132450827Y-76320602D01*
X132450814Y-76320609D01*
X132319711Y-76408210D01*
X132319707Y-76408213D01*
X132208213Y-76519707D01*
X132208210Y-76519711D01*
X132120609Y-76650814D01*
X132120602Y-76650827D01*
X132060264Y-76796498D01*
X132060261Y-76796510D01*
X132029500Y-76951153D01*
X125140925Y-76951153D01*
X125151789Y-76940289D01*
X125198931Y-76869737D01*
X125239390Y-76809185D01*
X125239390Y-76809184D01*
X125239394Y-76809179D01*
X125299737Y-76663497D01*
X125330500Y-76508842D01*
X125330500Y-76351158D01*
X125330500Y-76351155D01*
X125330499Y-76351153D01*
X125312419Y-76260261D01*
X125299737Y-76196503D01*
X125292423Y-76178846D01*
X125239397Y-76050827D01*
X125239390Y-76050814D01*
X125151789Y-75919711D01*
X125151786Y-75919707D01*
X125040292Y-75808213D01*
X125040288Y-75808210D01*
X124909185Y-75720609D01*
X124909172Y-75720602D01*
X124763501Y-75660264D01*
X124763489Y-75660261D01*
X124608845Y-75629500D01*
X124608842Y-75629500D01*
X124451158Y-75629500D01*
X124451155Y-75629500D01*
X124296510Y-75660261D01*
X124296498Y-75660264D01*
X124150827Y-75720602D01*
X124150814Y-75720609D01*
X124019711Y-75808210D01*
X124019707Y-75808213D01*
X123908213Y-75919707D01*
X123908210Y-75919711D01*
X123820609Y-76050814D01*
X123820602Y-76050827D01*
X123760264Y-76196498D01*
X123760261Y-76196510D01*
X123729500Y-76351153D01*
X116600500Y-76351153D01*
X116600500Y-74351153D01*
X125329500Y-74351153D01*
X125329500Y-74508846D01*
X125360261Y-74663489D01*
X125360264Y-74663501D01*
X125420602Y-74809172D01*
X125420609Y-74809185D01*
X125508210Y-74940288D01*
X125508213Y-74940292D01*
X125619707Y-75051786D01*
X125619711Y-75051789D01*
X125750814Y-75139390D01*
X125750827Y-75139397D01*
X125896498Y-75199735D01*
X125896503Y-75199737D01*
X126051153Y-75230499D01*
X126051156Y-75230500D01*
X126051158Y-75230500D01*
X126208844Y-75230500D01*
X126208845Y-75230499D01*
X126363497Y-75199737D01*
X126480790Y-75151153D01*
X131129500Y-75151153D01*
X131129500Y-75308846D01*
X131160261Y-75463489D01*
X131160264Y-75463501D01*
X131220602Y-75609172D01*
X131220609Y-75609185D01*
X131308210Y-75740288D01*
X131308213Y-75740292D01*
X131419707Y-75851786D01*
X131419711Y-75851789D01*
X131550814Y-75939390D01*
X131550827Y-75939397D01*
X131696498Y-75999735D01*
X131696503Y-75999737D01*
X131851153Y-76030499D01*
X131851156Y-76030500D01*
X131851158Y-76030500D01*
X132008844Y-76030500D01*
X132008845Y-76030499D01*
X132055831Y-76021153D01*
X170599500Y-76021153D01*
X170599500Y-76178846D01*
X170630261Y-76333489D01*
X170630264Y-76333501D01*
X170690602Y-76479172D01*
X170690609Y-76479185D01*
X170778210Y-76610288D01*
X170778213Y-76610292D01*
X170889707Y-76721786D01*
X170889711Y-76721789D01*
X171020814Y-76809390D01*
X171020827Y-76809397D01*
X171166498Y-76869735D01*
X171166503Y-76869737D01*
X171321153Y-76900499D01*
X171321156Y-76900500D01*
X171321158Y-76900500D01*
X171478844Y-76900500D01*
X171478845Y-76900499D01*
X171633497Y-76869737D01*
X171779179Y-76809394D01*
X171910289Y-76721789D01*
X172021789Y-76610289D01*
X172109394Y-76479179D01*
X172169737Y-76333497D01*
X172200500Y-76178842D01*
X172200500Y-76021158D01*
X172200500Y-76021155D01*
X172200499Y-76021153D01*
X172196239Y-75999735D01*
X172169737Y-75866503D01*
X172145592Y-75808211D01*
X172109397Y-75720827D01*
X172109390Y-75720814D01*
X172021789Y-75589711D01*
X172021786Y-75589707D01*
X171910292Y-75478213D01*
X171910288Y-75478210D01*
X171824897Y-75421153D01*
X192599500Y-75421153D01*
X192599500Y-75578846D01*
X192630261Y-75733489D01*
X192630264Y-75733501D01*
X192690602Y-75879172D01*
X192690609Y-75879185D01*
X192778210Y-76010288D01*
X192778213Y-76010292D01*
X192889707Y-76121786D01*
X192889711Y-76121789D01*
X193020814Y-76209390D01*
X193020827Y-76209397D01*
X193143633Y-76260264D01*
X193166503Y-76269737D01*
X193321153Y-76300499D01*
X193321156Y-76300500D01*
X193321158Y-76300500D01*
X193478844Y-76300500D01*
X193478845Y-76300499D01*
X193633497Y-76269737D01*
X193779179Y-76209394D01*
X193910289Y-76121789D01*
X194021789Y-76010289D01*
X194109394Y-75879179D01*
X194169737Y-75733497D01*
X194200500Y-75578842D01*
X194200500Y-75421158D01*
X194200500Y-75421155D01*
X194200499Y-75421153D01*
X194182419Y-75330261D01*
X194169737Y-75266503D01*
X194154824Y-75230499D01*
X194109397Y-75120827D01*
X194109390Y-75120814D01*
X194021789Y-74989711D01*
X194021786Y-74989707D01*
X193910292Y-74878213D01*
X193910288Y-74878210D01*
X193779185Y-74790609D01*
X193779172Y-74790602D01*
X193633501Y-74730264D01*
X193633489Y-74730261D01*
X193478845Y-74699500D01*
X193478842Y-74699500D01*
X193321158Y-74699500D01*
X193321155Y-74699500D01*
X193166510Y-74730261D01*
X193166498Y-74730264D01*
X193020827Y-74790602D01*
X193020814Y-74790609D01*
X192889711Y-74878210D01*
X192889707Y-74878213D01*
X192778213Y-74989707D01*
X192778210Y-74989711D01*
X192690609Y-75120814D01*
X192690602Y-75120827D01*
X192630264Y-75266498D01*
X192630261Y-75266510D01*
X192599500Y-75421153D01*
X171824897Y-75421153D01*
X171779185Y-75390609D01*
X171779172Y-75390602D01*
X171633501Y-75330264D01*
X171633489Y-75330261D01*
X171478845Y-75299500D01*
X171478842Y-75299500D01*
X171321158Y-75299500D01*
X171321155Y-75299500D01*
X171166510Y-75330261D01*
X171166498Y-75330264D01*
X171020827Y-75390602D01*
X171020814Y-75390609D01*
X170889711Y-75478210D01*
X170889707Y-75478213D01*
X170778213Y-75589707D01*
X170778210Y-75589711D01*
X170690609Y-75720814D01*
X170690602Y-75720827D01*
X170630264Y-75866498D01*
X170630261Y-75866510D01*
X170599500Y-76021153D01*
X132055831Y-76021153D01*
X132163497Y-75999737D01*
X132309179Y-75939394D01*
X132338643Y-75919707D01*
X132350232Y-75911964D01*
X132418257Y-75866510D01*
X132440289Y-75851789D01*
X132551789Y-75740289D01*
X132639394Y-75609179D01*
X132699737Y-75463497D01*
X132730500Y-75308842D01*
X132730500Y-75151158D01*
X132730500Y-75151155D01*
X132730499Y-75151153D01*
X132724467Y-75120827D01*
X132699737Y-74996503D01*
X132650740Y-74878213D01*
X132639397Y-74850827D01*
X132639390Y-74850814D01*
X132551789Y-74719711D01*
X132551786Y-74719707D01*
X132440292Y-74608213D01*
X132440288Y-74608210D01*
X132309185Y-74520609D01*
X132309172Y-74520602D01*
X132163501Y-74460264D01*
X132163489Y-74460261D01*
X132008845Y-74429500D01*
X132008842Y-74429500D01*
X131851158Y-74429500D01*
X131851155Y-74429500D01*
X131696510Y-74460261D01*
X131696498Y-74460264D01*
X131550827Y-74520602D01*
X131550814Y-74520609D01*
X131419711Y-74608210D01*
X131419707Y-74608213D01*
X131308213Y-74719707D01*
X131308210Y-74719711D01*
X131220609Y-74850814D01*
X131220602Y-74850827D01*
X131160264Y-74996498D01*
X131160261Y-74996510D01*
X131129500Y-75151153D01*
X126480790Y-75151153D01*
X126509179Y-75139394D01*
X126640289Y-75051789D01*
X126751789Y-74940289D01*
X126839394Y-74809179D01*
X126899737Y-74663497D01*
X126930500Y-74508842D01*
X126930500Y-74351158D01*
X126930500Y-74351155D01*
X126930499Y-74351153D01*
X126899737Y-74196503D01*
X126880955Y-74151158D01*
X126839397Y-74050827D01*
X126839390Y-74050814D01*
X126751789Y-73919711D01*
X126751786Y-73919707D01*
X126640292Y-73808213D01*
X126640288Y-73808210D01*
X126509185Y-73720609D01*
X126509172Y-73720602D01*
X126363501Y-73660264D01*
X126363489Y-73660261D01*
X126208845Y-73629500D01*
X126208842Y-73629500D01*
X126051158Y-73629500D01*
X126051155Y-73629500D01*
X125896510Y-73660261D01*
X125896498Y-73660264D01*
X125750827Y-73720602D01*
X125750814Y-73720609D01*
X125619711Y-73808210D01*
X125619707Y-73808213D01*
X125508213Y-73919707D01*
X125508210Y-73919711D01*
X125420609Y-74050814D01*
X125420602Y-74050827D01*
X125360264Y-74196498D01*
X125360261Y-74196510D01*
X125329500Y-74351153D01*
X116600500Y-74351153D01*
X116600500Y-71651153D01*
X130529500Y-71651153D01*
X130529500Y-71808846D01*
X130560261Y-71963489D01*
X130560264Y-71963501D01*
X130620602Y-72109172D01*
X130620609Y-72109185D01*
X130708210Y-72240288D01*
X130708213Y-72240292D01*
X130819707Y-72351786D01*
X130819711Y-72351789D01*
X130950814Y-72439390D01*
X130950827Y-72439397D01*
X131096498Y-72499735D01*
X131096503Y-72499737D01*
X131251153Y-72530499D01*
X131251156Y-72530500D01*
X131251158Y-72530500D01*
X131408844Y-72530500D01*
X131408845Y-72530499D01*
X131563497Y-72499737D01*
X131709179Y-72439394D01*
X131840289Y-72351789D01*
X131951789Y-72240289D01*
X132039394Y-72109179D01*
X132099737Y-71963497D01*
X132130500Y-71808842D01*
X132130500Y-71651158D01*
X132130500Y-71651155D01*
X132130499Y-71651153D01*
X132115990Y-71578211D01*
X132099737Y-71496503D01*
X132072299Y-71430261D01*
X132039397Y-71350827D01*
X132039390Y-71350814D01*
X131951789Y-71219711D01*
X131951786Y-71219707D01*
X131840292Y-71108213D01*
X131840288Y-71108210D01*
X131709185Y-71020609D01*
X131709172Y-71020602D01*
X131563501Y-70960264D01*
X131563489Y-70960261D01*
X131408845Y-70929500D01*
X131408842Y-70929500D01*
X131251158Y-70929500D01*
X131251155Y-70929500D01*
X131096510Y-70960261D01*
X131096498Y-70960264D01*
X130950827Y-71020602D01*
X130950814Y-71020609D01*
X130819711Y-71108210D01*
X130819707Y-71108213D01*
X130708213Y-71219707D01*
X130708210Y-71219711D01*
X130620609Y-71350814D01*
X130620602Y-71350827D01*
X130560264Y-71496498D01*
X130560261Y-71496510D01*
X130529500Y-71651153D01*
X116600500Y-71651153D01*
X116600500Y-68951153D01*
X172329500Y-68951153D01*
X172329500Y-69108846D01*
X172360261Y-69263489D01*
X172360264Y-69263501D01*
X172420602Y-69409172D01*
X172420609Y-69409185D01*
X172455304Y-69461109D01*
X172476182Y-69527786D01*
X172457698Y-69595167D01*
X172455304Y-69598891D01*
X172420609Y-69650814D01*
X172420602Y-69650827D01*
X172360264Y-69796498D01*
X172360261Y-69796510D01*
X172329500Y-69951153D01*
X172329500Y-70108846D01*
X172360261Y-70263489D01*
X172360264Y-70263501D01*
X172420602Y-70409172D01*
X172420609Y-70409185D01*
X172488713Y-70511109D01*
X172509591Y-70577787D01*
X172491107Y-70645167D01*
X172488713Y-70648891D01*
X172420609Y-70750814D01*
X172420602Y-70750827D01*
X172360264Y-70896498D01*
X172360261Y-70896510D01*
X172329500Y-71051153D01*
X172329500Y-71208846D01*
X172360261Y-71363489D01*
X172360264Y-71363501D01*
X172420602Y-71509172D01*
X172420609Y-71509185D01*
X172508210Y-71640288D01*
X172508213Y-71640292D01*
X172510240Y-71642319D01*
X172510962Y-71643642D01*
X172512076Y-71644999D01*
X172511818Y-71645210D01*
X172543725Y-71703642D01*
X172538741Y-71773334D01*
X172512001Y-71814939D01*
X172512076Y-71815001D01*
X172511552Y-71815639D01*
X172510240Y-71817681D01*
X172508213Y-71819707D01*
X172508210Y-71819711D01*
X172420609Y-71950814D01*
X172420602Y-71950827D01*
X172360264Y-72096498D01*
X172360261Y-72096510D01*
X172329500Y-72251153D01*
X172329500Y-72408846D01*
X172360261Y-72563489D01*
X172360264Y-72563501D01*
X172420604Y-72709177D01*
X172420605Y-72709179D01*
X172421899Y-72711115D01*
X172422264Y-72712282D01*
X172423476Y-72714549D01*
X172423045Y-72714778D01*
X172442773Y-72777794D01*
X172424285Y-72845173D01*
X172421899Y-72848885D01*
X172420605Y-72850820D01*
X172420604Y-72850822D01*
X172360264Y-72996498D01*
X172360261Y-72996510D01*
X172329500Y-73151153D01*
X172329500Y-73308846D01*
X172360261Y-73463489D01*
X172360264Y-73463501D01*
X172420602Y-73609172D01*
X172420609Y-73609185D01*
X172455304Y-73661109D01*
X172476182Y-73727786D01*
X172457698Y-73795167D01*
X172455304Y-73798891D01*
X172420609Y-73850814D01*
X172420602Y-73850827D01*
X172360264Y-73996498D01*
X172360261Y-73996510D01*
X172329500Y-74151153D01*
X172329500Y-74308846D01*
X172360261Y-74463489D01*
X172360264Y-74463501D01*
X172420602Y-74609172D01*
X172420609Y-74609185D01*
X172508210Y-74740288D01*
X172508213Y-74740292D01*
X172619707Y-74851786D01*
X172619711Y-74851789D01*
X172750814Y-74939390D01*
X172750827Y-74939397D01*
X172872288Y-74989707D01*
X172896503Y-74999737D01*
X173051153Y-75030499D01*
X173051156Y-75030500D01*
X173051158Y-75030500D01*
X173208844Y-75030500D01*
X173208845Y-75030499D01*
X173363497Y-74999737D01*
X173509179Y-74939394D01*
X173640289Y-74851789D01*
X173751789Y-74740289D01*
X173839394Y-74609179D01*
X173899737Y-74463497D01*
X173930500Y-74308842D01*
X173930500Y-74151158D01*
X173930500Y-74151155D01*
X173930499Y-74151153D01*
X173910543Y-74050827D01*
X173899737Y-73996503D01*
X173867929Y-73919711D01*
X173839396Y-73850825D01*
X173839394Y-73850822D01*
X173839394Y-73850821D01*
X173804694Y-73798889D01*
X173783816Y-73732215D01*
X173802300Y-73664835D01*
X173804676Y-73661136D01*
X173839394Y-73609179D01*
X173899737Y-73463497D01*
X173930500Y-73308842D01*
X173930500Y-73151158D01*
X173930500Y-73151155D01*
X173930499Y-73151153D01*
X173900532Y-73000500D01*
X173899737Y-72996503D01*
X173888650Y-72969737D01*
X173839397Y-72850827D01*
X173839394Y-72850822D01*
X173839394Y-72850821D01*
X173838103Y-72848889D01*
X173837737Y-72847723D01*
X173836525Y-72845454D01*
X173836955Y-72845223D01*
X173817226Y-72782214D01*
X173835710Y-72714834D01*
X173838100Y-72711115D01*
X173839394Y-72709179D01*
X173899737Y-72563497D01*
X173930500Y-72408842D01*
X173930500Y-72251158D01*
X173930500Y-72251155D01*
X173930499Y-72251153D01*
X173907096Y-72133501D01*
X173899737Y-72096503D01*
X173897405Y-72090873D01*
X173839397Y-71950827D01*
X173839395Y-71950823D01*
X173839394Y-71950821D01*
X173839389Y-71950814D01*
X173795695Y-71885420D01*
X173795684Y-71885405D01*
X173752753Y-71821153D01*
X176199500Y-71821153D01*
X176199500Y-71978846D01*
X176230261Y-72133489D01*
X176230264Y-72133501D01*
X176290602Y-72279172D01*
X176290609Y-72279185D01*
X176378210Y-72410288D01*
X176378213Y-72410292D01*
X176489707Y-72521786D01*
X176489711Y-72521789D01*
X176620814Y-72609390D01*
X176620827Y-72609397D01*
X176766498Y-72669735D01*
X176766503Y-72669737D01*
X176921153Y-72700499D01*
X176921156Y-72700500D01*
X176921158Y-72700500D01*
X177078844Y-72700500D01*
X177078845Y-72700499D01*
X177233497Y-72669737D01*
X177379179Y-72609394D01*
X177510289Y-72521789D01*
X177621789Y-72410289D01*
X177709394Y-72279179D01*
X177769737Y-72133497D01*
X177772192Y-72121153D01*
X182799500Y-72121153D01*
X182799500Y-72278846D01*
X182830261Y-72433489D01*
X182830264Y-72433501D01*
X182890602Y-72579172D01*
X182890609Y-72579185D01*
X182978210Y-72710288D01*
X182978213Y-72710292D01*
X183089707Y-72821786D01*
X183089711Y-72821789D01*
X183220814Y-72909390D01*
X183220827Y-72909397D01*
X183366498Y-72969735D01*
X183366503Y-72969737D01*
X183501039Y-72996498D01*
X183521153Y-73000499D01*
X183521156Y-73000500D01*
X183521158Y-73000500D01*
X183678844Y-73000500D01*
X183678845Y-73000499D01*
X183833497Y-72969737D01*
X183979179Y-72909394D01*
X184110289Y-72821789D01*
X184221789Y-72710289D01*
X184309394Y-72579179D01*
X184369737Y-72433497D01*
X184400500Y-72278842D01*
X184400500Y-72121158D01*
X184400500Y-72121155D01*
X184400499Y-72121153D01*
X184372192Y-71978846D01*
X184369737Y-71966503D01*
X184363239Y-71950815D01*
X184309397Y-71820827D01*
X184309390Y-71820814D01*
X184221789Y-71689711D01*
X184221786Y-71689707D01*
X184110292Y-71578213D01*
X184110288Y-71578210D01*
X183979185Y-71490609D01*
X183979172Y-71490602D01*
X183833501Y-71430264D01*
X183833489Y-71430261D01*
X183678845Y-71399500D01*
X183678842Y-71399500D01*
X183521158Y-71399500D01*
X183521155Y-71399500D01*
X183366510Y-71430261D01*
X183366498Y-71430264D01*
X183220827Y-71490602D01*
X183220814Y-71490609D01*
X183089711Y-71578210D01*
X183089707Y-71578213D01*
X182978213Y-71689707D01*
X182978210Y-71689711D01*
X182890609Y-71820814D01*
X182890602Y-71820827D01*
X182830264Y-71966498D01*
X182830261Y-71966510D01*
X182799500Y-72121153D01*
X177772192Y-72121153D01*
X177774573Y-72109185D01*
X177778216Y-72090874D01*
X177778216Y-72090873D01*
X177800499Y-71978846D01*
X177800500Y-71978844D01*
X177800500Y-71821155D01*
X177800499Y-71821153D01*
X177774353Y-71689711D01*
X177769737Y-71666503D01*
X177760830Y-71644999D01*
X177709397Y-71520827D01*
X177709390Y-71520814D01*
X177621789Y-71389711D01*
X177621786Y-71389707D01*
X177510292Y-71278213D01*
X177510288Y-71278210D01*
X177379185Y-71190609D01*
X177379172Y-71190602D01*
X177233501Y-71130264D01*
X177233489Y-71130261D01*
X177078845Y-71099500D01*
X177078842Y-71099500D01*
X176921158Y-71099500D01*
X176921155Y-71099500D01*
X176766510Y-71130261D01*
X176766498Y-71130264D01*
X176620827Y-71190602D01*
X176620814Y-71190609D01*
X176489711Y-71278210D01*
X176489707Y-71278213D01*
X176378213Y-71389707D01*
X176378210Y-71389711D01*
X176290609Y-71520814D01*
X176290602Y-71520827D01*
X176230264Y-71666498D01*
X176230261Y-71666510D01*
X176199500Y-71821153D01*
X173752753Y-71821153D01*
X173751789Y-71819711D01*
X173742368Y-71810290D01*
X173736322Y-71801772D01*
X173728212Y-71778224D01*
X173716276Y-71756368D01*
X173717033Y-71745762D01*
X173713572Y-71735710D01*
X173719480Y-71711517D01*
X173721255Y-71686676D01*
X173728177Y-71675904D01*
X173730148Y-71667836D01*
X173738410Y-71659982D01*
X173747999Y-71645060D01*
X173747924Y-71644999D01*
X173748454Y-71644351D01*
X173749766Y-71642312D01*
X173751789Y-71640289D01*
X173839394Y-71509179D01*
X173899737Y-71363497D01*
X173930500Y-71208842D01*
X173930500Y-71051158D01*
X173930500Y-71051155D01*
X173930499Y-71051153D01*
X173906499Y-70930499D01*
X173899737Y-70896503D01*
X173839794Y-70751786D01*
X173839397Y-70750827D01*
X173839393Y-70750820D01*
X173839389Y-70750814D01*
X173771284Y-70648888D01*
X173750408Y-70582214D01*
X173768892Y-70514834D01*
X173771257Y-70511152D01*
X173839394Y-70409179D01*
X173899737Y-70263497D01*
X173930500Y-70108842D01*
X173930500Y-70051153D01*
X179029500Y-70051153D01*
X179029500Y-70208846D01*
X179060261Y-70363489D01*
X179060264Y-70363501D01*
X179120602Y-70509172D01*
X179120609Y-70509185D01*
X179208210Y-70640288D01*
X179208213Y-70640292D01*
X179319707Y-70751786D01*
X179319711Y-70751789D01*
X179450814Y-70839390D01*
X179450827Y-70839397D01*
X179588683Y-70896498D01*
X179596503Y-70899737D01*
X179746131Y-70929500D01*
X179751153Y-70930499D01*
X179751156Y-70930500D01*
X179751158Y-70930500D01*
X179908844Y-70930500D01*
X179908845Y-70930499D01*
X180063497Y-70899737D01*
X180209179Y-70839394D01*
X180340289Y-70751789D01*
X180451789Y-70640289D01*
X180539394Y-70509179D01*
X180599737Y-70363497D01*
X180630500Y-70208842D01*
X180630500Y-70051158D01*
X180630500Y-70051155D01*
X180630499Y-70051153D01*
X180599737Y-69896503D01*
X180558314Y-69796498D01*
X180539397Y-69750827D01*
X180539390Y-69750814D01*
X180451789Y-69619711D01*
X180451786Y-69619707D01*
X180340292Y-69508213D01*
X180340288Y-69508210D01*
X180209185Y-69420609D01*
X180209172Y-69420602D01*
X180063501Y-69360264D01*
X180063489Y-69360261D01*
X179908845Y-69329500D01*
X179908842Y-69329500D01*
X179751158Y-69329500D01*
X179751155Y-69329500D01*
X179596510Y-69360261D01*
X179596498Y-69360264D01*
X179450827Y-69420602D01*
X179450814Y-69420609D01*
X179319711Y-69508210D01*
X179319707Y-69508213D01*
X179208213Y-69619707D01*
X179208210Y-69619711D01*
X179120609Y-69750814D01*
X179120602Y-69750827D01*
X179060264Y-69896498D01*
X179060261Y-69896510D01*
X179029500Y-70051153D01*
X173930500Y-70051153D01*
X173930500Y-69951158D01*
X173930500Y-69951155D01*
X173930499Y-69951153D01*
X173899738Y-69796510D01*
X173899737Y-69796503D01*
X173880812Y-69750814D01*
X173839396Y-69650825D01*
X173839394Y-69650822D01*
X173839394Y-69650821D01*
X173804694Y-69598889D01*
X173783816Y-69532215D01*
X173802300Y-69464835D01*
X173804676Y-69461136D01*
X173839394Y-69409179D01*
X173899737Y-69263497D01*
X173930500Y-69108842D01*
X173930500Y-68951158D01*
X173930500Y-68951155D01*
X173930499Y-68951153D01*
X173899738Y-68796510D01*
X173899737Y-68796503D01*
X173899735Y-68796498D01*
X173839397Y-68650827D01*
X173839390Y-68650814D01*
X173751789Y-68519711D01*
X173751786Y-68519707D01*
X173640292Y-68408213D01*
X173640288Y-68408210D01*
X173509185Y-68320609D01*
X173509172Y-68320602D01*
X173363501Y-68260264D01*
X173363489Y-68260261D01*
X173208845Y-68229500D01*
X173208842Y-68229500D01*
X173051158Y-68229500D01*
X173051155Y-68229500D01*
X172896510Y-68260261D01*
X172896498Y-68260264D01*
X172750827Y-68320602D01*
X172750814Y-68320609D01*
X172619711Y-68408210D01*
X172619707Y-68408213D01*
X172508213Y-68519707D01*
X172508210Y-68519711D01*
X172420609Y-68650814D01*
X172420602Y-68650827D01*
X172360264Y-68796498D01*
X172360261Y-68796510D01*
X172329500Y-68951153D01*
X116600500Y-68951153D01*
X116600500Y-66151153D01*
X136829500Y-66151153D01*
X136829500Y-66308846D01*
X136860261Y-66463489D01*
X136860264Y-66463501D01*
X136920602Y-66609172D01*
X136920609Y-66609185D01*
X137008210Y-66740288D01*
X137008213Y-66740292D01*
X137119707Y-66851786D01*
X137119711Y-66851789D01*
X137250814Y-66939390D01*
X137250827Y-66939397D01*
X137375955Y-66991226D01*
X137396503Y-66999737D01*
X137551153Y-67030499D01*
X137551156Y-67030500D01*
X137551158Y-67030500D01*
X137708844Y-67030500D01*
X137708845Y-67030499D01*
X137863497Y-66999737D01*
X137976166Y-66953067D01*
X138009172Y-66939397D01*
X138009172Y-66939396D01*
X138009179Y-66939394D01*
X138140289Y-66851789D01*
X138251789Y-66740289D01*
X138339394Y-66609179D01*
X138399737Y-66463497D01*
X138430500Y-66308842D01*
X138430500Y-66151158D01*
X138430500Y-66151155D01*
X138430499Y-66151153D01*
X138408447Y-66040292D01*
X138399737Y-65996503D01*
X138399735Y-65996498D01*
X138339397Y-65850827D01*
X138339390Y-65850814D01*
X138251789Y-65719711D01*
X138251786Y-65719707D01*
X138140292Y-65608213D01*
X138140288Y-65608210D01*
X138054897Y-65551153D01*
X138629500Y-65551153D01*
X138629500Y-65708846D01*
X138660261Y-65863489D01*
X138660264Y-65863501D01*
X138720602Y-66009172D01*
X138720609Y-66009185D01*
X138808210Y-66140288D01*
X138808213Y-66140292D01*
X138919707Y-66251786D01*
X138919711Y-66251789D01*
X139050814Y-66339390D01*
X139050827Y-66339397D01*
X139157431Y-66383553D01*
X139196503Y-66399737D01*
X139351153Y-66430499D01*
X139351156Y-66430500D01*
X139351158Y-66430500D01*
X139508844Y-66430500D01*
X139508845Y-66430499D01*
X139663497Y-66399737D01*
X139809179Y-66339394D01*
X139940289Y-66251789D01*
X140051789Y-66140289D01*
X140139394Y-66009179D01*
X140199737Y-65863497D01*
X140230500Y-65708842D01*
X140230500Y-65551158D01*
X140230500Y-65551155D01*
X140230499Y-65551153D01*
X140212419Y-65460261D01*
X140199737Y-65396503D01*
X140163569Y-65309185D01*
X140139397Y-65250827D01*
X140139390Y-65250814D01*
X140051789Y-65119711D01*
X140051786Y-65119707D01*
X139940292Y-65008213D01*
X139940288Y-65008210D01*
X139938679Y-65007135D01*
X143394500Y-65007135D01*
X143394500Y-67052870D01*
X143394501Y-67052876D01*
X143400908Y-67112483D01*
X143451202Y-67247328D01*
X143451206Y-67247335D01*
X143537452Y-67362544D01*
X143537455Y-67362547D01*
X143652664Y-67448793D01*
X143652671Y-67448797D01*
X143787517Y-67499091D01*
X143787516Y-67499091D01*
X143794444Y-67499835D01*
X143847127Y-67505500D01*
X145892872Y-67505499D01*
X145952483Y-67499091D01*
X146087331Y-67448796D01*
X146202546Y-67362546D01*
X146288796Y-67247331D01*
X146288797Y-67247326D01*
X146291192Y-67242942D01*
X146340595Y-67193534D01*
X146408868Y-67178680D01*
X146472909Y-67202044D01*
X146596669Y-67291961D01*
X146694436Y-67341776D01*
X146803599Y-67397398D01*
X146803601Y-67397398D01*
X146803604Y-67397400D01*
X147024486Y-67469169D01*
X147142668Y-67487886D01*
X147253871Y-67505500D01*
X147253876Y-67505500D01*
X147486129Y-67505500D01*
X147587502Y-67489443D01*
X147715514Y-67469169D01*
X147936396Y-67397400D01*
X148143331Y-67291961D01*
X148331224Y-67155449D01*
X148495449Y-66991224D01*
X148543204Y-66925494D01*
X148547492Y-66920721D01*
X148571965Y-66905603D01*
X148594750Y-66888033D01*
X148602183Y-66886937D01*
X148606935Y-66884002D01*
X148620454Y-66884243D01*
X148649470Y-66879966D01*
X148665238Y-66881207D01*
X149268958Y-66277487D01*
X149293978Y-66337890D01*
X149365112Y-66444351D01*
X149455649Y-66534888D01*
X149562110Y-66606022D01*
X149622510Y-66631041D01*
X149018791Y-67234759D01*
X149018791Y-67234760D01*
X149096935Y-67291534D01*
X149303794Y-67396934D01*
X149524606Y-67468681D01*
X149753910Y-67505000D01*
X149986090Y-67505000D01*
X150215393Y-67468681D01*
X150436205Y-67396934D01*
X150643071Y-67291530D01*
X150721207Y-67234762D01*
X150721208Y-67234760D01*
X150117488Y-66631041D01*
X150177890Y-66606022D01*
X150284351Y-66534888D01*
X150374888Y-66444351D01*
X150446022Y-66337890D01*
X150471041Y-66277488D01*
X151074760Y-66881207D01*
X151090527Y-66879966D01*
X151158905Y-66894329D01*
X151200576Y-66930699D01*
X151244545Y-66991217D01*
X151244549Y-66991222D01*
X151244551Y-66991224D01*
X151408776Y-67155449D01*
X151596669Y-67291961D01*
X151694436Y-67341776D01*
X151803599Y-67397398D01*
X151803601Y-67397398D01*
X151803604Y-67397400D01*
X152024486Y-67469169D01*
X152142668Y-67487886D01*
X152253871Y-67505500D01*
X152253876Y-67505500D01*
X152486129Y-67505500D01*
X152587502Y-67489443D01*
X152715514Y-67469169D01*
X152936396Y-67397400D01*
X153143331Y-67291961D01*
X153331224Y-67155449D01*
X153495449Y-66991224D01*
X153519681Y-66957871D01*
X153575010Y-66915205D01*
X153644623Y-66909224D01*
X153706418Y-66941829D01*
X153720320Y-66957872D01*
X153744549Y-66991222D01*
X153744551Y-66991224D01*
X153908776Y-67155449D01*
X154096669Y-67291961D01*
X154194436Y-67341776D01*
X154303599Y-67397398D01*
X154303601Y-67397398D01*
X154303604Y-67397400D01*
X154524486Y-67469169D01*
X154642668Y-67487886D01*
X154753871Y-67505500D01*
X154753876Y-67505500D01*
X154986129Y-67505500D01*
X155087502Y-67489443D01*
X155215514Y-67469169D01*
X155436396Y-67397400D01*
X155643331Y-67291961D01*
X155831224Y-67155449D01*
X155995449Y-66991224D01*
X156019681Y-66957871D01*
X156075010Y-66915205D01*
X156144623Y-66909224D01*
X156206418Y-66941829D01*
X156220320Y-66957872D01*
X156244549Y-66991222D01*
X156244551Y-66991224D01*
X156408776Y-67155449D01*
X156596669Y-67291961D01*
X156694436Y-67341776D01*
X156803599Y-67397398D01*
X156803601Y-67397398D01*
X156803604Y-67397400D01*
X157024486Y-67469169D01*
X157142668Y-67487886D01*
X157253871Y-67505500D01*
X157253876Y-67505500D01*
X157486129Y-67505500D01*
X157587502Y-67489443D01*
X157715514Y-67469169D01*
X157936396Y-67397400D01*
X158143331Y-67291961D01*
X158331224Y-67155449D01*
X158495449Y-66991224D01*
X158519681Y-66957871D01*
X158575010Y-66915205D01*
X158644623Y-66909224D01*
X158706418Y-66941829D01*
X158720320Y-66957872D01*
X158744549Y-66991222D01*
X158744551Y-66991224D01*
X158908776Y-67155449D01*
X159096669Y-67291961D01*
X159194436Y-67341776D01*
X159303599Y-67397398D01*
X159303601Y-67397398D01*
X159303604Y-67397400D01*
X159524486Y-67469169D01*
X159642668Y-67487886D01*
X159753871Y-67505500D01*
X159753876Y-67505500D01*
X159986129Y-67505500D01*
X160087502Y-67489443D01*
X160215514Y-67469169D01*
X160436396Y-67397400D01*
X160643331Y-67291961D01*
X160831224Y-67155449D01*
X160995449Y-66991224D01*
X161019681Y-66957871D01*
X161075010Y-66915205D01*
X161144623Y-66909224D01*
X161206418Y-66941829D01*
X161220320Y-66957872D01*
X161244549Y-66991222D01*
X161244551Y-66991224D01*
X161408776Y-67155449D01*
X161596669Y-67291961D01*
X161694436Y-67341776D01*
X161803599Y-67397398D01*
X161803601Y-67397398D01*
X161803604Y-67397400D01*
X162024486Y-67469169D01*
X162142668Y-67487886D01*
X162253871Y-67505500D01*
X162253876Y-67505500D01*
X162486129Y-67505500D01*
X162587502Y-67489443D01*
X162715514Y-67469169D01*
X162936396Y-67397400D01*
X163143331Y-67291961D01*
X163331224Y-67155449D01*
X163495449Y-66991224D01*
X163519681Y-66957871D01*
X163575010Y-66915205D01*
X163644623Y-66909224D01*
X163706418Y-66941829D01*
X163720320Y-66957872D01*
X163744549Y-66991222D01*
X163744551Y-66991224D01*
X163908776Y-67155449D01*
X164096669Y-67291961D01*
X164194436Y-67341776D01*
X164303599Y-67397398D01*
X164303601Y-67397398D01*
X164303604Y-67397400D01*
X164524486Y-67469169D01*
X164642668Y-67487886D01*
X164753871Y-67505500D01*
X164753876Y-67505500D01*
X164986129Y-67505500D01*
X165087502Y-67489443D01*
X165215514Y-67469169D01*
X165436396Y-67397400D01*
X165643331Y-67291961D01*
X165831224Y-67155449D01*
X165995449Y-66991224D01*
X166019681Y-66957871D01*
X166075010Y-66915205D01*
X166144623Y-66909224D01*
X166206418Y-66941829D01*
X166220320Y-66957872D01*
X166244549Y-66991222D01*
X166244551Y-66991224D01*
X166408776Y-67155449D01*
X166596669Y-67291961D01*
X166694436Y-67341776D01*
X166803599Y-67397398D01*
X166803601Y-67397398D01*
X166803604Y-67397400D01*
X167024486Y-67469169D01*
X167142668Y-67487886D01*
X167253871Y-67505500D01*
X167253876Y-67505500D01*
X167486129Y-67505500D01*
X167587502Y-67489443D01*
X167715514Y-67469169D01*
X167936396Y-67397400D01*
X168143331Y-67291961D01*
X168331224Y-67155449D01*
X168495449Y-66991224D01*
X168519681Y-66957871D01*
X168575010Y-66915205D01*
X168644623Y-66909224D01*
X168706418Y-66941829D01*
X168720320Y-66957872D01*
X168744549Y-66991222D01*
X168744551Y-66991224D01*
X168908776Y-67155449D01*
X169096669Y-67291961D01*
X169194436Y-67341776D01*
X169303599Y-67397398D01*
X169303601Y-67397398D01*
X169303604Y-67397400D01*
X169524486Y-67469169D01*
X169642668Y-67487886D01*
X169753871Y-67505500D01*
X169753876Y-67505500D01*
X169986129Y-67505500D01*
X170087502Y-67489443D01*
X170215514Y-67469169D01*
X170436396Y-67397400D01*
X170643331Y-67291961D01*
X170831224Y-67155449D01*
X170995449Y-66991224D01*
X171019681Y-66957871D01*
X171075010Y-66915205D01*
X171144623Y-66909224D01*
X171206418Y-66941829D01*
X171220320Y-66957872D01*
X171244549Y-66991222D01*
X171244551Y-66991224D01*
X171408776Y-67155449D01*
X171596669Y-67291961D01*
X171694436Y-67341776D01*
X171803599Y-67397398D01*
X171803601Y-67397398D01*
X171803604Y-67397400D01*
X172024486Y-67469169D01*
X172142668Y-67487886D01*
X172253871Y-67505500D01*
X172253876Y-67505500D01*
X172486129Y-67505500D01*
X172587502Y-67489443D01*
X172715514Y-67469169D01*
X172936396Y-67397400D01*
X173143331Y-67291961D01*
X173331224Y-67155449D01*
X173495449Y-66991224D01*
X173631961Y-66803331D01*
X173737400Y-66596396D01*
X173809169Y-66375514D01*
X173830728Y-66239394D01*
X173845500Y-66146129D01*
X173845500Y-65913870D01*
X173821683Y-65763497D01*
X173809169Y-65684486D01*
X173809168Y-65684482D01*
X173809168Y-65684481D01*
X173743827Y-65483384D01*
X173743826Y-65483382D01*
X173737400Y-65463603D01*
X173731056Y-65451153D01*
X185029500Y-65451153D01*
X185029500Y-65608846D01*
X185060261Y-65763489D01*
X185060264Y-65763501D01*
X185120602Y-65909172D01*
X185120609Y-65909185D01*
X185208210Y-66040288D01*
X185208213Y-66040292D01*
X185319707Y-66151786D01*
X185319711Y-66151789D01*
X185450814Y-66239390D01*
X185450827Y-66239397D01*
X185596498Y-66299735D01*
X185596503Y-66299737D01*
X185751153Y-66330499D01*
X185751156Y-66330500D01*
X185751158Y-66330500D01*
X185908844Y-66330500D01*
X185908845Y-66330499D01*
X186063497Y-66299737D01*
X186209179Y-66239394D01*
X186340289Y-66151789D01*
X186451789Y-66040289D01*
X186539394Y-65909179D01*
X186599737Y-65763497D01*
X186630500Y-65608842D01*
X186630500Y-65451158D01*
X186630500Y-65451155D01*
X186630499Y-65451153D01*
X186616346Y-65380000D01*
X186599737Y-65296503D01*
X186599735Y-65296498D01*
X186539397Y-65150827D01*
X186539390Y-65150814D01*
X186451789Y-65019711D01*
X186451786Y-65019707D01*
X186340292Y-64908213D01*
X186340288Y-64908210D01*
X186209185Y-64820609D01*
X186209172Y-64820602D01*
X186063501Y-64760264D01*
X186063489Y-64760261D01*
X185908845Y-64729500D01*
X185908842Y-64729500D01*
X185751158Y-64729500D01*
X185751155Y-64729500D01*
X185596510Y-64760261D01*
X185596498Y-64760264D01*
X185450827Y-64820602D01*
X185450814Y-64820609D01*
X185319711Y-64908210D01*
X185319707Y-64908213D01*
X185208213Y-65019707D01*
X185208210Y-65019711D01*
X185120609Y-65150814D01*
X185120602Y-65150827D01*
X185060264Y-65296498D01*
X185060261Y-65296510D01*
X185029500Y-65451153D01*
X173731056Y-65451153D01*
X173658716Y-65309179D01*
X173631961Y-65256669D01*
X173495449Y-65068776D01*
X173331224Y-64904551D01*
X173143331Y-64768039D01*
X173128066Y-64760261D01*
X172936400Y-64662601D01*
X172715514Y-64590831D01*
X172486129Y-64554500D01*
X172486124Y-64554500D01*
X172253876Y-64554500D01*
X172253871Y-64554500D01*
X172024485Y-64590831D01*
X171803599Y-64662601D01*
X171596668Y-64768039D01*
X171408773Y-64904553D01*
X171244553Y-65068773D01*
X171244546Y-65068782D01*
X171220317Y-65102130D01*
X171164987Y-65144796D01*
X171095374Y-65150774D01*
X171033579Y-65118167D01*
X171019683Y-65102130D01*
X170995453Y-65068782D01*
X170995449Y-65068776D01*
X170831224Y-64904551D01*
X170643331Y-64768039D01*
X170628066Y-64760261D01*
X170436400Y-64662601D01*
X170215514Y-64590831D01*
X169986129Y-64554500D01*
X169986124Y-64554500D01*
X169753876Y-64554500D01*
X169753871Y-64554500D01*
X169524485Y-64590831D01*
X169303599Y-64662601D01*
X169096668Y-64768039D01*
X168908773Y-64904553D01*
X168744553Y-65068773D01*
X168744546Y-65068782D01*
X168720317Y-65102130D01*
X168664987Y-65144796D01*
X168595374Y-65150774D01*
X168533579Y-65118167D01*
X168519683Y-65102130D01*
X168495453Y-65068782D01*
X168495449Y-65068776D01*
X168331224Y-64904551D01*
X168143331Y-64768039D01*
X168128066Y-64760261D01*
X167936400Y-64662601D01*
X167715514Y-64590831D01*
X167486129Y-64554500D01*
X167486124Y-64554500D01*
X167253876Y-64554500D01*
X167253871Y-64554500D01*
X167024485Y-64590831D01*
X166803599Y-64662601D01*
X166596668Y-64768039D01*
X166408773Y-64904553D01*
X166244553Y-65068773D01*
X166244546Y-65068782D01*
X166220317Y-65102130D01*
X166164987Y-65144796D01*
X166095374Y-65150774D01*
X166033579Y-65118167D01*
X166019683Y-65102130D01*
X165995453Y-65068782D01*
X165995449Y-65068776D01*
X165831224Y-64904551D01*
X165643331Y-64768039D01*
X165628066Y-64760261D01*
X165436400Y-64662601D01*
X165215514Y-64590831D01*
X164986129Y-64554500D01*
X164986124Y-64554500D01*
X164753876Y-64554500D01*
X164753871Y-64554500D01*
X164524485Y-64590831D01*
X164303599Y-64662601D01*
X164096668Y-64768039D01*
X163908773Y-64904553D01*
X163744553Y-65068773D01*
X163744546Y-65068782D01*
X163720317Y-65102130D01*
X163664987Y-65144796D01*
X163595374Y-65150774D01*
X163533579Y-65118167D01*
X163519683Y-65102130D01*
X163495453Y-65068782D01*
X163495449Y-65068776D01*
X163331224Y-64904551D01*
X163143331Y-64768039D01*
X163128066Y-64760261D01*
X162936400Y-64662601D01*
X162715514Y-64590831D01*
X162486129Y-64554500D01*
X162486124Y-64554500D01*
X162253876Y-64554500D01*
X162253871Y-64554500D01*
X162024485Y-64590831D01*
X161803599Y-64662601D01*
X161596668Y-64768039D01*
X161408773Y-64904553D01*
X161244553Y-65068773D01*
X161244546Y-65068782D01*
X161220317Y-65102130D01*
X161164987Y-65144796D01*
X161095374Y-65150774D01*
X161033579Y-65118167D01*
X161019683Y-65102130D01*
X160995453Y-65068782D01*
X160995449Y-65068776D01*
X160831224Y-64904551D01*
X160643331Y-64768039D01*
X160628066Y-64760261D01*
X160436400Y-64662601D01*
X160215514Y-64590831D01*
X159986129Y-64554500D01*
X159986124Y-64554500D01*
X159753876Y-64554500D01*
X159753871Y-64554500D01*
X159524485Y-64590831D01*
X159303599Y-64662601D01*
X159096668Y-64768039D01*
X158908773Y-64904553D01*
X158744553Y-65068773D01*
X158744546Y-65068782D01*
X158720317Y-65102130D01*
X158664987Y-65144796D01*
X158595374Y-65150774D01*
X158533579Y-65118167D01*
X158519683Y-65102130D01*
X158495453Y-65068782D01*
X158495449Y-65068776D01*
X158331224Y-64904551D01*
X158143331Y-64768039D01*
X158128066Y-64760261D01*
X157936400Y-64662601D01*
X157715514Y-64590831D01*
X157486129Y-64554500D01*
X157486124Y-64554500D01*
X157253876Y-64554500D01*
X157253871Y-64554500D01*
X157024485Y-64590831D01*
X156803599Y-64662601D01*
X156596668Y-64768039D01*
X156408773Y-64904553D01*
X156244553Y-65068773D01*
X156244546Y-65068782D01*
X156220317Y-65102130D01*
X156164987Y-65144796D01*
X156095374Y-65150774D01*
X156033579Y-65118167D01*
X156019683Y-65102130D01*
X155995453Y-65068782D01*
X155995449Y-65068776D01*
X155831224Y-64904551D01*
X155643331Y-64768039D01*
X155628066Y-64760261D01*
X155436400Y-64662601D01*
X155215514Y-64590831D01*
X154986129Y-64554500D01*
X154986124Y-64554500D01*
X154753876Y-64554500D01*
X154753871Y-64554500D01*
X154524485Y-64590831D01*
X154303599Y-64662601D01*
X154096668Y-64768039D01*
X153908773Y-64904553D01*
X153744553Y-65068773D01*
X153744546Y-65068782D01*
X153720317Y-65102130D01*
X153664987Y-65144796D01*
X153595374Y-65150774D01*
X153533579Y-65118167D01*
X153519683Y-65102130D01*
X153495453Y-65068782D01*
X153495449Y-65068776D01*
X153331224Y-64904551D01*
X153143331Y-64768039D01*
X153128066Y-64760261D01*
X152936400Y-64662601D01*
X152715514Y-64590831D01*
X152486129Y-64554500D01*
X152486124Y-64554500D01*
X152253876Y-64554500D01*
X152253871Y-64554500D01*
X152024485Y-64590831D01*
X151803599Y-64662601D01*
X151596668Y-64768039D01*
X151408773Y-64904553D01*
X151244550Y-65068776D01*
X151200576Y-65129301D01*
X151145245Y-65171966D01*
X151090530Y-65180032D01*
X151074761Y-65178790D01*
X150471041Y-65782510D01*
X150446022Y-65722110D01*
X150374888Y-65615649D01*
X150284351Y-65525112D01*
X150177890Y-65453978D01*
X150117487Y-65428957D01*
X150721207Y-64825238D01*
X150643064Y-64768465D01*
X150436205Y-64663065D01*
X150215393Y-64591318D01*
X149986090Y-64555000D01*
X149753910Y-64555000D01*
X149524606Y-64591318D01*
X149303794Y-64663065D01*
X149096925Y-64768470D01*
X149018791Y-64825237D01*
X149018791Y-64825238D01*
X149622511Y-65428958D01*
X149562110Y-65453978D01*
X149455649Y-65525112D01*
X149365112Y-65615649D01*
X149293978Y-65722110D01*
X149268958Y-65782511D01*
X148665237Y-65178790D01*
X148649469Y-65180032D01*
X148645663Y-65179232D01*
X148641955Y-65180394D01*
X148611753Y-65172109D01*
X148581092Y-65165668D01*
X148577237Y-65162640D01*
X148574574Y-65161910D01*
X148565005Y-65153033D01*
X148547492Y-65139278D01*
X148543200Y-65134500D01*
X148495449Y-65068776D01*
X148331224Y-64904551D01*
X148143331Y-64768039D01*
X148128066Y-64760261D01*
X147936400Y-64662601D01*
X147715514Y-64590831D01*
X147486129Y-64554500D01*
X147486124Y-64554500D01*
X147253876Y-64554500D01*
X147253871Y-64554500D01*
X147024485Y-64590831D01*
X146803599Y-64662601D01*
X146596665Y-64768041D01*
X146472912Y-64857952D01*
X146407105Y-64881432D01*
X146339052Y-64865606D01*
X146291196Y-64817064D01*
X146288793Y-64812664D01*
X146202547Y-64697455D01*
X146202544Y-64697452D01*
X146087335Y-64611206D01*
X146087328Y-64611202D01*
X145952482Y-64560908D01*
X145952483Y-64560908D01*
X145892883Y-64554501D01*
X145892881Y-64554500D01*
X145892873Y-64554500D01*
X145892864Y-64554500D01*
X143847129Y-64554500D01*
X143847123Y-64554501D01*
X143787516Y-64560908D01*
X143652671Y-64611202D01*
X143652664Y-64611206D01*
X143537455Y-64697452D01*
X143537452Y-64697455D01*
X143451206Y-64812664D01*
X143451202Y-64812671D01*
X143400908Y-64947517D01*
X143394501Y-65007116D01*
X143394500Y-65007135D01*
X139938679Y-65007135D01*
X139809185Y-64920609D01*
X139809172Y-64920602D01*
X139663501Y-64860264D01*
X139663489Y-64860261D01*
X139508845Y-64829500D01*
X139508842Y-64829500D01*
X139351158Y-64829500D01*
X139351155Y-64829500D01*
X139196510Y-64860261D01*
X139196498Y-64860264D01*
X139050827Y-64920602D01*
X139050814Y-64920609D01*
X138919711Y-65008210D01*
X138919707Y-65008213D01*
X138808213Y-65119707D01*
X138808210Y-65119711D01*
X138720609Y-65250814D01*
X138720602Y-65250827D01*
X138660264Y-65396498D01*
X138660261Y-65396510D01*
X138629500Y-65551153D01*
X138054897Y-65551153D01*
X138009185Y-65520609D01*
X138009172Y-65520602D01*
X137863501Y-65460264D01*
X137863489Y-65460261D01*
X137708845Y-65429500D01*
X137708842Y-65429500D01*
X137551158Y-65429500D01*
X137551155Y-65429500D01*
X137396510Y-65460261D01*
X137396498Y-65460264D01*
X137250827Y-65520602D01*
X137250814Y-65520609D01*
X137119711Y-65608210D01*
X137119707Y-65608213D01*
X137008213Y-65719707D01*
X137008210Y-65719711D01*
X136920609Y-65850814D01*
X136920602Y-65850827D01*
X136860264Y-65996498D01*
X136860261Y-65996510D01*
X136829500Y-66151153D01*
X116600500Y-66151153D01*
X116600500Y-64851153D01*
X132629500Y-64851153D01*
X132629500Y-65008846D01*
X132660261Y-65163489D01*
X132660264Y-65163501D01*
X132720602Y-65309172D01*
X132720609Y-65309185D01*
X132808210Y-65440288D01*
X132808213Y-65440292D01*
X132919707Y-65551786D01*
X132919711Y-65551789D01*
X133050814Y-65639390D01*
X133050827Y-65639397D01*
X133196498Y-65699735D01*
X133196503Y-65699737D01*
X133308979Y-65722110D01*
X133351153Y-65730499D01*
X133351156Y-65730500D01*
X133351158Y-65730500D01*
X133508844Y-65730500D01*
X133508845Y-65730499D01*
X133663497Y-65699737D01*
X133809179Y-65639394D01*
X133940289Y-65551789D01*
X134051789Y-65440289D01*
X134139394Y-65309179D01*
X134199737Y-65163497D01*
X134204567Y-65139213D01*
X134236950Y-65077305D01*
X134297665Y-65042729D01*
X134367434Y-65046467D01*
X134373616Y-65048836D01*
X134496503Y-65099737D01*
X134645130Y-65129301D01*
X134651153Y-65130499D01*
X134651156Y-65130500D01*
X134651158Y-65130500D01*
X134808844Y-65130500D01*
X134808845Y-65130499D01*
X134963497Y-65099737D01*
X135109179Y-65039394D01*
X135240289Y-64951789D01*
X135351789Y-64840289D01*
X135439394Y-64709179D01*
X135488452Y-64590740D01*
X135532290Y-64536342D01*
X135578815Y-64516581D01*
X135663497Y-64499737D01*
X135809179Y-64439394D01*
X135940289Y-64351789D01*
X136051789Y-64240289D01*
X136139394Y-64109179D01*
X136199737Y-63963497D01*
X136230500Y-63808842D01*
X136230500Y-63651158D01*
X136230500Y-63651155D01*
X136230499Y-63651153D01*
X136209069Y-63543419D01*
X136199737Y-63496503D01*
X136188451Y-63469255D01*
X136139397Y-63350827D01*
X136139390Y-63350814D01*
X136051789Y-63219711D01*
X136051786Y-63219707D01*
X135940292Y-63108213D01*
X135940288Y-63108210D01*
X135809185Y-63020609D01*
X135809172Y-63020602D01*
X135663501Y-62960264D01*
X135663489Y-62960261D01*
X135508845Y-62929500D01*
X135508842Y-62929500D01*
X135351158Y-62929500D01*
X135351155Y-62929500D01*
X135196510Y-62960261D01*
X135196498Y-62960264D01*
X135050827Y-63020602D01*
X135050814Y-63020609D01*
X134919711Y-63108210D01*
X134919707Y-63108213D01*
X134808213Y-63219707D01*
X134808210Y-63219711D01*
X134720609Y-63350814D01*
X134720604Y-63350823D01*
X134671549Y-63469255D01*
X134627708Y-63523658D01*
X134581180Y-63543419D01*
X134496508Y-63560261D01*
X134496498Y-63560264D01*
X134350827Y-63620602D01*
X134350814Y-63620609D01*
X134219711Y-63708210D01*
X134219707Y-63708213D01*
X134108213Y-63819707D01*
X134108210Y-63819711D01*
X134020609Y-63950814D01*
X134020602Y-63950827D01*
X133960264Y-64096498D01*
X133960261Y-64096507D01*
X133955432Y-64120787D01*
X133923046Y-64182698D01*
X133862330Y-64217271D01*
X133792560Y-64213530D01*
X133786363Y-64211155D01*
X133663501Y-64160264D01*
X133663489Y-64160261D01*
X133508845Y-64129500D01*
X133508842Y-64129500D01*
X133351158Y-64129500D01*
X133351155Y-64129500D01*
X133196510Y-64160261D01*
X133196498Y-64160264D01*
X133050827Y-64220602D01*
X133050814Y-64220609D01*
X132919711Y-64308210D01*
X132919707Y-64308213D01*
X132808213Y-64419707D01*
X132808210Y-64419711D01*
X132720609Y-64550814D01*
X132720602Y-64550827D01*
X132660264Y-64696498D01*
X132660261Y-64696510D01*
X132629500Y-64851153D01*
X116600500Y-64851153D01*
X116600500Y-63051153D01*
X129829500Y-63051153D01*
X129829500Y-63208846D01*
X129860261Y-63363489D01*
X129860264Y-63363501D01*
X129920602Y-63509172D01*
X129920609Y-63509185D01*
X130008210Y-63640288D01*
X130008213Y-63640292D01*
X130119707Y-63751786D01*
X130119711Y-63751789D01*
X130250814Y-63839390D01*
X130250827Y-63839397D01*
X130396498Y-63899735D01*
X130396503Y-63899737D01*
X130551153Y-63930499D01*
X130551156Y-63930500D01*
X130551158Y-63930500D01*
X130708844Y-63930500D01*
X130708845Y-63930499D01*
X130863497Y-63899737D01*
X131009179Y-63839394D01*
X131140289Y-63751789D01*
X131251789Y-63640289D01*
X131339394Y-63509179D01*
X131399737Y-63363497D01*
X131430500Y-63208842D01*
X131430500Y-63051158D01*
X131430500Y-63051155D01*
X131430499Y-63051153D01*
X131412419Y-62960261D01*
X131399737Y-62896503D01*
X131399735Y-62896498D01*
X131339397Y-62750827D01*
X131339390Y-62750814D01*
X131251789Y-62619711D01*
X131251786Y-62619707D01*
X131140292Y-62508213D01*
X131140288Y-62508210D01*
X131009185Y-62420609D01*
X131009172Y-62420602D01*
X130863501Y-62360264D01*
X130863489Y-62360261D01*
X130708845Y-62329500D01*
X130708842Y-62329500D01*
X130551158Y-62329500D01*
X130551155Y-62329500D01*
X130396510Y-62360261D01*
X130396498Y-62360264D01*
X130250827Y-62420602D01*
X130250814Y-62420609D01*
X130119711Y-62508210D01*
X130119707Y-62508213D01*
X130008213Y-62619707D01*
X130008210Y-62619711D01*
X129920609Y-62750814D01*
X129920602Y-62750827D01*
X129860264Y-62896498D01*
X129860261Y-62896510D01*
X129829500Y-63051153D01*
X116600500Y-63051153D01*
X116600500Y-59893713D01*
X119749500Y-59893713D01*
X119749500Y-60106286D01*
X119782753Y-60316239D01*
X119848444Y-60518414D01*
X119944951Y-60707820D01*
X120069890Y-60879786D01*
X120220213Y-61030109D01*
X120392179Y-61155048D01*
X120392181Y-61155049D01*
X120392184Y-61155051D01*
X120581588Y-61251557D01*
X120783757Y-61317246D01*
X120993713Y-61350500D01*
X120993714Y-61350500D01*
X121206286Y-61350500D01*
X121206287Y-61350500D01*
X121416243Y-61317246D01*
X121618412Y-61251557D01*
X121807816Y-61155051D01*
X121829789Y-61139086D01*
X121979786Y-61030109D01*
X121979788Y-61030106D01*
X121979792Y-61030104D01*
X122130104Y-60879792D01*
X122130106Y-60879788D01*
X122130109Y-60879786D01*
X122255048Y-60707820D01*
X122255047Y-60707820D01*
X122255051Y-60707816D01*
X122351557Y-60518412D01*
X122417246Y-60316243D01*
X122450500Y-60106287D01*
X122450500Y-59893713D01*
X194749500Y-59893713D01*
X194749500Y-60106286D01*
X194782753Y-60316239D01*
X194848444Y-60518414D01*
X194944951Y-60707820D01*
X195069890Y-60879786D01*
X195220213Y-61030109D01*
X195392179Y-61155048D01*
X195392181Y-61155049D01*
X195392184Y-61155051D01*
X195581588Y-61251557D01*
X195783757Y-61317246D01*
X195993713Y-61350500D01*
X195993714Y-61350500D01*
X196206286Y-61350500D01*
X196206287Y-61350500D01*
X196416243Y-61317246D01*
X196618412Y-61251557D01*
X196807816Y-61155051D01*
X196829789Y-61139086D01*
X196979786Y-61030109D01*
X196979788Y-61030106D01*
X196979792Y-61030104D01*
X197130104Y-60879792D01*
X197130106Y-60879788D01*
X197130109Y-60879786D01*
X197255048Y-60707820D01*
X197255047Y-60707820D01*
X197255051Y-60707816D01*
X197351557Y-60518412D01*
X197417246Y-60316243D01*
X197450500Y-60106287D01*
X197450500Y-59893713D01*
X197417246Y-59683757D01*
X197351557Y-59481588D01*
X197255051Y-59292184D01*
X197255049Y-59292181D01*
X197255048Y-59292179D01*
X197130109Y-59120213D01*
X196979786Y-58969890D01*
X196807820Y-58844951D01*
X196618414Y-58748444D01*
X196618413Y-58748443D01*
X196618412Y-58748443D01*
X196416243Y-58682754D01*
X196416241Y-58682753D01*
X196416240Y-58682753D01*
X196254957Y-58657208D01*
X196206287Y-58649500D01*
X195993713Y-58649500D01*
X195945042Y-58657208D01*
X195783760Y-58682753D01*
X195581585Y-58748444D01*
X195392179Y-58844951D01*
X195220213Y-58969890D01*
X195069890Y-59120213D01*
X194944951Y-59292179D01*
X194848444Y-59481585D01*
X194782753Y-59683760D01*
X194749500Y-59893713D01*
X122450500Y-59893713D01*
X122417246Y-59683757D01*
X122351557Y-59481588D01*
X122255051Y-59292184D01*
X122255049Y-59292181D01*
X122255048Y-59292179D01*
X122130109Y-59120213D01*
X121979786Y-58969890D01*
X121807820Y-58844951D01*
X121618414Y-58748444D01*
X121618413Y-58748443D01*
X121618412Y-58748443D01*
X121416243Y-58682754D01*
X121416241Y-58682753D01*
X121416240Y-58682753D01*
X121254957Y-58657208D01*
X121206287Y-58649500D01*
X120993713Y-58649500D01*
X120945042Y-58657208D01*
X120783760Y-58682753D01*
X120581585Y-58748444D01*
X120392179Y-58844951D01*
X120220213Y-58969890D01*
X120069890Y-59120213D01*
X119944951Y-59292179D01*
X119848444Y-59481585D01*
X119782753Y-59683760D01*
X119749500Y-59893713D01*
X116600500Y-59893713D01*
X116600500Y-55624500D01*
X116620185Y-55557461D01*
X116672989Y-55511706D01*
X116724500Y-55500500D01*
X200475500Y-55500500D01*
X200542539Y-55520185D01*
G37*
%TD.AperFunction*%
%TD*%
M02*
