%TF.GenerationSoftware,KiCad,Pcbnew,9.0.6*%
%TF.CreationDate,2025-12-08T21:47:25-05:00*%
%TF.ProjectId,electrical,656c6563-7472-4696-9361-6c2e6b696361,rev?*%
%TF.SameCoordinates,Original*%
%TF.FileFunction,Copper,L3,Inr*%
%TF.FilePolarity,Positive*%
%FSLAX46Y46*%
G04 Gerber Fmt 4.6, Leading zero omitted, Abs format (unit mm)*
G04 Created by KiCad (PCBNEW 9.0.6) date 2025-12-08 21:47:25*
%MOMM*%
%LPD*%
G01*
G04 APERTURE LIST*
%TA.AperFunction,ComponentPad*%
%ADD10C,2.200000*%
%TD*%
%TA.AperFunction,ComponentPad*%
%ADD11C,1.300000*%
%TD*%
%TA.AperFunction,ComponentPad*%
%ADD12R,1.950000X1.950000*%
%TD*%
%TA.AperFunction,ComponentPad*%
%ADD13C,1.950000*%
%TD*%
%TA.AperFunction,ViaPad*%
%ADD14C,0.600000*%
%TD*%
G04 APERTURE END LIST*
D10*
%TO.N,/Controls/POT_1*%
%TO.C,RV1*%
X141100000Y-125000000D03*
%TO.N,/Connectivity/GND*%
X136100000Y-125000000D03*
%TO.N,/Connectivity/3V0*%
X131100000Y-125000000D03*
%TD*%
%TO.N,/Controls/POT_2*%
%TO.C,RV2*%
X186100000Y-125000000D03*
%TO.N,/Connectivity/GND*%
X181100000Y-125000000D03*
%TO.N,/Connectivity/3V0*%
X176100000Y-125000000D03*
%TD*%
D11*
%TO.N,unconnected-(S1-NC_1-PadA1)*%
%TO.C,S1*%
X161030000Y-119430000D03*
%TO.N,Net-(S1-COM_1)*%
X158530000Y-119430000D03*
%TO.N,/Connectivity/3V0*%
X156030000Y-119430000D03*
%TO.N,unconnected-(S1-NC_2-PadB1)*%
X161030000Y-116230000D03*
%TO.N,Net-(S1-COM_1)*%
X158530000Y-116230000D03*
%TO.N,/Connectivity/GND*%
X156030000Y-116230000D03*
%TD*%
D12*
%TO.N,/Connectivity/3V0*%
%TO.C,U1*%
X144870000Y-66030000D03*
D13*
%TO.N,unconnected-(U1-3V0_OUT-Pad2)*%
X147370000Y-66030000D03*
%TO.N,/Connectivity/GND*%
X149870000Y-66030000D03*
%TO.N,/Connectivity/WIFI_SCK*%
X152370000Y-66030000D03*
%TO.N,/Connectivity/WIFI_MISO*%
X154870000Y-66030000D03*
%TO.N,/Connectivity/WIFI_MOSI*%
X157370000Y-66030000D03*
%TO.N,/Connectivity/WIFI_CS*%
X159870000Y-66030000D03*
%TO.N,/Connectivity/WIFI_BUSY*%
X162370000Y-66030000D03*
%TO.N,/Connectivity/WIFI_RESET*%
X164870000Y-66030000D03*
%TO.N,unconnected-(U1-GPIO_0-Pad10)*%
X167370000Y-66030000D03*
%TO.N,unconnected-(U1-UART_RX-Pad11)*%
X169870000Y-66030000D03*
%TO.N,unconnected-(U1-UART_TX-Pad12)*%
X172370000Y-66030000D03*
%TD*%
D14*
%TO.N,/Display/SCREEN_CS*%
X173130000Y-72330000D03*
X134730000Y-64330000D03*
%TO.N,/Display/SCREEN_D_C*%
X173130000Y-73230000D03*
X133430000Y-64930000D03*
%TO.N,/Display/SCREEN_RST*%
X173130000Y-69030000D03*
X139430000Y-65630000D03*
%TO.N,/Display/SCREEN_BUSY*%
X137630000Y-66230000D03*
X173130000Y-71130000D03*
%TO.N,/Display/1V8*%
X138180000Y-92730000D03*
X132830000Y-77030000D03*
%TO.N,/Display/VSH1*%
X125930000Y-81630000D03*
%TO.N,/Display/VSL*%
X131830000Y-84730000D03*
%TO.N,/Display/VCOM*%
X130330000Y-87230000D03*
%TO.N,/Display/VSH2*%
X131330000Y-71730000D03*
%TO.N,/Display/VGH*%
X125930000Y-85330000D03*
%TO.N,/Display/VGL*%
X131830000Y-85730000D03*
%TO.N,/Display/SCREEN_SCL*%
X135430000Y-63730000D03*
X173130000Y-70030000D03*
%TO.N,/Processor/BOOT0*%
X179830000Y-70130000D03*
%TO.N,/Connectivity/GND*%
X180000000Y-94200000D03*
X185000000Y-75700000D03*
X131500000Y-77600000D03*
X137100000Y-73300000D03*
X184800000Y-136500000D03*
X176900000Y-111800000D03*
X167600000Y-105000000D03*
X137300000Y-85300000D03*
X142500000Y-97900000D03*
X165300000Y-78700000D03*
X178700000Y-97400000D03*
X166900000Y-82700000D03*
X193500000Y-83200000D03*
X162400000Y-82400000D03*
X169200000Y-81100000D03*
X191500000Y-94300000D03*
X126700000Y-111800000D03*
X177900000Y-80000000D03*
X188700000Y-96800000D03*
X170000000Y-130000000D03*
X170200000Y-76000000D03*
X152600000Y-82400000D03*
X178700000Y-75600000D03*
X167200000Y-86600000D03*
X188400000Y-94300000D03*
X196600000Y-81700000D03*
X136100000Y-89400000D03*
X137700000Y-135700000D03*
X136800000Y-93100000D03*
X137200000Y-82300000D03*
X189500000Y-91100000D03*
X196600000Y-75400000D03*
X172400000Y-87400000D03*
X136900000Y-75700000D03*
X184600000Y-94500000D03*
X181100000Y-90900000D03*
X132700000Y-96500000D03*
X193400000Y-76700000D03*
X166400000Y-88600000D03*
X177100000Y-69500000D03*
X138500000Y-128800000D03*
X141100000Y-112100000D03*
X136200000Y-71500000D03*
X190800000Y-111700000D03*
X166200000Y-85000000D03*
X183600000Y-70100000D03*
X183800000Y-134300000D03*
X149600000Y-105000000D03*
X128600000Y-82500000D03*
X137100000Y-79200000D03*
%TO.N,/Controls/ADXL_SDO*%
X189500000Y-86000000D03*
%TO.N,/Controls/ADXL_CS*%
X193950000Y-95150000D03*
%TO.N,/Controls/ADXL_INT2*%
X195600000Y-86500000D03*
%TO.N,/Controls/ADXL_SDI*%
X194000000Y-93050000D03*
%TO.N,/Controls/ADXL_SCL*%
X194300000Y-88300000D03*
%TO.N,/Controls/ADXL_INT1*%
X194800000Y-86500000D03*
%TO.N,/Connectivity/3V0*%
X180100000Y-92200000D03*
X171400000Y-76100000D03*
X186800000Y-96900000D03*
X122600000Y-106400000D03*
X188400000Y-91300000D03*
X193400000Y-75500000D03*
X131930000Y-75230000D03*
X173800000Y-87300000D03*
X152600000Y-79700000D03*
X193500000Y-81700000D03*
X185400000Y-92200000D03*
X172200000Y-81200000D03*
X173900000Y-107600000D03*
X183600000Y-72200000D03*
X181600000Y-97400000D03*
X185000000Y-134300000D03*
X177000000Y-71900000D03*
X181500000Y-130100000D03*
X187500000Y-135300000D03*
X191500000Y-91100000D03*
X181200000Y-134400000D03*
X145000000Y-130000000D03*
X127030000Y-82630000D03*
X185000000Y-129300000D03*
%TO.N,/Display/SCREEN_SDA*%
X130630000Y-63130000D03*
X173130000Y-74230000D03*
%TO.N,/Display/GDR*%
X126130000Y-74430000D03*
%TO.N,/Display/RESE*%
X124530000Y-76430000D03*
%TO.N,/Connectivity/WIFI_CS*%
X185830000Y-65530000D03*
%TD*%
%TA.AperFunction,Conductor*%
%TO.N,/Connectivity/3V0*%
G36*
X200542539Y-55520185D02*
G01*
X200588294Y-55572989D01*
X200599500Y-55624500D01*
X200599500Y-144375500D01*
X200579815Y-144442539D01*
X200527011Y-144488294D01*
X200475500Y-144499500D01*
X116724500Y-144499500D01*
X116657461Y-144479815D01*
X116611706Y-144427011D01*
X116600500Y-144375500D01*
X116600500Y-139323713D01*
X119749500Y-139323713D01*
X119749500Y-139536286D01*
X119782753Y-139746239D01*
X119848444Y-139948414D01*
X119944951Y-140137820D01*
X120069890Y-140309786D01*
X120220213Y-140460109D01*
X120392179Y-140585048D01*
X120392181Y-140585049D01*
X120392184Y-140585051D01*
X120581588Y-140681557D01*
X120783757Y-140747246D01*
X120993713Y-140780500D01*
X120993714Y-140780500D01*
X121206286Y-140780500D01*
X121206287Y-140780500D01*
X121416243Y-140747246D01*
X121618412Y-140681557D01*
X121807816Y-140585051D01*
X121829789Y-140569086D01*
X121979786Y-140460109D01*
X121979788Y-140460106D01*
X121979792Y-140460104D01*
X122130104Y-140309792D01*
X122130106Y-140309788D01*
X122130109Y-140309786D01*
X122255048Y-140137820D01*
X122255047Y-140137820D01*
X122255051Y-140137816D01*
X122351557Y-139948412D01*
X122417246Y-139746243D01*
X122450500Y-139536287D01*
X122450500Y-139323713D01*
X194749500Y-139323713D01*
X194749500Y-139536286D01*
X194782753Y-139746239D01*
X194848444Y-139948414D01*
X194944951Y-140137820D01*
X195069890Y-140309786D01*
X195220213Y-140460109D01*
X195392179Y-140585048D01*
X195392181Y-140585049D01*
X195392184Y-140585051D01*
X195581588Y-140681557D01*
X195783757Y-140747246D01*
X195993713Y-140780500D01*
X195993714Y-140780500D01*
X196206286Y-140780500D01*
X196206287Y-140780500D01*
X196416243Y-140747246D01*
X196618412Y-140681557D01*
X196807816Y-140585051D01*
X196829789Y-140569086D01*
X196979786Y-140460109D01*
X196979788Y-140460106D01*
X196979792Y-140460104D01*
X197130104Y-140309792D01*
X197130106Y-140309788D01*
X197130109Y-140309786D01*
X197255048Y-140137820D01*
X197255047Y-140137820D01*
X197255051Y-140137816D01*
X197351557Y-139948412D01*
X197417246Y-139746243D01*
X197450500Y-139536287D01*
X197450500Y-139323713D01*
X197417246Y-139113757D01*
X197351557Y-138911588D01*
X197255051Y-138722184D01*
X197255049Y-138722181D01*
X197255048Y-138722179D01*
X197130109Y-138550213D01*
X196979786Y-138399890D01*
X196807820Y-138274951D01*
X196618414Y-138178444D01*
X196618413Y-138178443D01*
X196618412Y-138178443D01*
X196416243Y-138112754D01*
X196416241Y-138112753D01*
X196416240Y-138112753D01*
X196254957Y-138087208D01*
X196206287Y-138079500D01*
X195993713Y-138079500D01*
X195945042Y-138087208D01*
X195783760Y-138112753D01*
X195581585Y-138178444D01*
X195392179Y-138274951D01*
X195220213Y-138399890D01*
X195069890Y-138550213D01*
X194944951Y-138722179D01*
X194848444Y-138911585D01*
X194782753Y-139113760D01*
X194749500Y-139323713D01*
X122450500Y-139323713D01*
X122417246Y-139113757D01*
X122351557Y-138911588D01*
X122255051Y-138722184D01*
X122255049Y-138722181D01*
X122255048Y-138722179D01*
X122130109Y-138550213D01*
X121979786Y-138399890D01*
X121807820Y-138274951D01*
X121618414Y-138178444D01*
X121618413Y-138178443D01*
X121618412Y-138178443D01*
X121416243Y-138112754D01*
X121416241Y-138112753D01*
X121416240Y-138112753D01*
X121254957Y-138087208D01*
X121206287Y-138079500D01*
X120993713Y-138079500D01*
X120945042Y-138087208D01*
X120783760Y-138112753D01*
X120581585Y-138178444D01*
X120392179Y-138274951D01*
X120220213Y-138399890D01*
X120069890Y-138550213D01*
X119944951Y-138722179D01*
X119848444Y-138911585D01*
X119782753Y-139113760D01*
X119749500Y-139323713D01*
X116600500Y-139323713D01*
X116600500Y-135621153D01*
X136899500Y-135621153D01*
X136899500Y-135778846D01*
X136930261Y-135933489D01*
X136930264Y-135933501D01*
X136990602Y-136079172D01*
X136990609Y-136079185D01*
X137078210Y-136210288D01*
X137078213Y-136210292D01*
X137189707Y-136321786D01*
X137189711Y-136321789D01*
X137320814Y-136409390D01*
X137320827Y-136409397D01*
X137466498Y-136469735D01*
X137466503Y-136469737D01*
X137621153Y-136500499D01*
X137621156Y-136500500D01*
X137621158Y-136500500D01*
X137778844Y-136500500D01*
X137778845Y-136500499D01*
X137933497Y-136469737D01*
X138050790Y-136421153D01*
X183999500Y-136421153D01*
X183999500Y-136578846D01*
X184030261Y-136733489D01*
X184030264Y-136733501D01*
X184090602Y-136879172D01*
X184090609Y-136879185D01*
X184178210Y-137010288D01*
X184178213Y-137010292D01*
X184289707Y-137121786D01*
X184289711Y-137121789D01*
X184420814Y-137209390D01*
X184420827Y-137209397D01*
X184566498Y-137269735D01*
X184566503Y-137269737D01*
X184721153Y-137300499D01*
X184721156Y-137300500D01*
X184721158Y-137300500D01*
X184878844Y-137300500D01*
X184878845Y-137300499D01*
X185033497Y-137269737D01*
X185179179Y-137209394D01*
X185310289Y-137121789D01*
X185421789Y-137010289D01*
X185509394Y-136879179D01*
X185569737Y-136733497D01*
X185600500Y-136578842D01*
X185600500Y-136421158D01*
X185600500Y-136421155D01*
X185600499Y-136421153D01*
X185580734Y-136321788D01*
X185569737Y-136266503D01*
X185546452Y-136210288D01*
X185509397Y-136120827D01*
X185509390Y-136120814D01*
X185421789Y-135989711D01*
X185421786Y-135989707D01*
X185310292Y-135878213D01*
X185310288Y-135878210D01*
X185179185Y-135790609D01*
X185179172Y-135790602D01*
X185033501Y-135730264D01*
X185033489Y-135730261D01*
X184878845Y-135699500D01*
X184878842Y-135699500D01*
X184721158Y-135699500D01*
X184721155Y-135699500D01*
X184566510Y-135730261D01*
X184566498Y-135730264D01*
X184420827Y-135790602D01*
X184420814Y-135790609D01*
X184289711Y-135878210D01*
X184289707Y-135878213D01*
X184178213Y-135989707D01*
X184178210Y-135989711D01*
X184090609Y-136120814D01*
X184090602Y-136120827D01*
X184030264Y-136266498D01*
X184030261Y-136266510D01*
X183999500Y-136421153D01*
X138050790Y-136421153D01*
X138079179Y-136409394D01*
X138210289Y-136321789D01*
X138321789Y-136210289D01*
X138409394Y-136079179D01*
X138469737Y-135933497D01*
X138500500Y-135778842D01*
X138500500Y-135621158D01*
X138500500Y-135621155D01*
X138500499Y-135621153D01*
X138469738Y-135466510D01*
X138469737Y-135466503D01*
X138469735Y-135466498D01*
X138409397Y-135320827D01*
X138409390Y-135320814D01*
X138321789Y-135189711D01*
X138321786Y-135189707D01*
X138210292Y-135078213D01*
X138210288Y-135078210D01*
X138079185Y-134990609D01*
X138079172Y-134990602D01*
X137933501Y-134930264D01*
X137933489Y-134930261D01*
X137778845Y-134899500D01*
X137778842Y-134899500D01*
X137621158Y-134899500D01*
X137621155Y-134899500D01*
X137466510Y-134930261D01*
X137466498Y-134930264D01*
X137320827Y-134990602D01*
X137320814Y-134990609D01*
X137189711Y-135078210D01*
X137189707Y-135078213D01*
X137078213Y-135189707D01*
X137078210Y-135189711D01*
X136990609Y-135320814D01*
X136990602Y-135320827D01*
X136930264Y-135466498D01*
X136930261Y-135466510D01*
X136899500Y-135621153D01*
X116600500Y-135621153D01*
X116600500Y-134221153D01*
X182999500Y-134221153D01*
X182999500Y-134378846D01*
X183030261Y-134533489D01*
X183030264Y-134533501D01*
X183090602Y-134679172D01*
X183090609Y-134679185D01*
X183178210Y-134810288D01*
X183178213Y-134810292D01*
X183289707Y-134921786D01*
X183289711Y-134921789D01*
X183420814Y-135009390D01*
X183420827Y-135009397D01*
X183566498Y-135069735D01*
X183566503Y-135069737D01*
X183721153Y-135100499D01*
X183721156Y-135100500D01*
X183721158Y-135100500D01*
X183878844Y-135100500D01*
X183878845Y-135100499D01*
X184033497Y-135069737D01*
X184179179Y-135009394D01*
X184310289Y-134921789D01*
X184421789Y-134810289D01*
X184509394Y-134679179D01*
X184569737Y-134533497D01*
X184600500Y-134378842D01*
X184600500Y-134221158D01*
X184600500Y-134221155D01*
X184600499Y-134221153D01*
X184569738Y-134066510D01*
X184569737Y-134066503D01*
X184569735Y-134066498D01*
X184509397Y-133920827D01*
X184509390Y-133920814D01*
X184421789Y-133789711D01*
X184421786Y-133789707D01*
X184310292Y-133678213D01*
X184310288Y-133678210D01*
X184179185Y-133590609D01*
X184179172Y-133590602D01*
X184033501Y-133530264D01*
X184033489Y-133530261D01*
X183878845Y-133499500D01*
X183878842Y-133499500D01*
X183721158Y-133499500D01*
X183721155Y-133499500D01*
X183566510Y-133530261D01*
X183566498Y-133530264D01*
X183420827Y-133590602D01*
X183420814Y-133590609D01*
X183289711Y-133678210D01*
X183289707Y-133678213D01*
X183178213Y-133789707D01*
X183178210Y-133789711D01*
X183090609Y-133920814D01*
X183090602Y-133920827D01*
X183030264Y-134066498D01*
X183030261Y-134066510D01*
X182999500Y-134221153D01*
X116600500Y-134221153D01*
X116600500Y-129921153D01*
X169199500Y-129921153D01*
X169199500Y-130078846D01*
X169230261Y-130233489D01*
X169230264Y-130233501D01*
X169290602Y-130379172D01*
X169290609Y-130379185D01*
X169378210Y-130510288D01*
X169378213Y-130510292D01*
X169489707Y-130621786D01*
X169489711Y-130621789D01*
X169620814Y-130709390D01*
X169620827Y-130709397D01*
X169766498Y-130769735D01*
X169766503Y-130769737D01*
X169921153Y-130800499D01*
X169921156Y-130800500D01*
X169921158Y-130800500D01*
X170078844Y-130800500D01*
X170078845Y-130800499D01*
X170233497Y-130769737D01*
X170379179Y-130709394D01*
X170510289Y-130621789D01*
X170621789Y-130510289D01*
X170709394Y-130379179D01*
X170769737Y-130233497D01*
X170800500Y-130078842D01*
X170800500Y-129921158D01*
X170800500Y-129921155D01*
X170800499Y-129921153D01*
X170769738Y-129766510D01*
X170769737Y-129766503D01*
X170769735Y-129766498D01*
X170709397Y-129620827D01*
X170709390Y-129620814D01*
X170621789Y-129489711D01*
X170621786Y-129489707D01*
X170510292Y-129378213D01*
X170510288Y-129378210D01*
X170379185Y-129290609D01*
X170379172Y-129290602D01*
X170233501Y-129230264D01*
X170233489Y-129230261D01*
X170078845Y-129199500D01*
X170078842Y-129199500D01*
X169921158Y-129199500D01*
X169921155Y-129199500D01*
X169766510Y-129230261D01*
X169766498Y-129230264D01*
X169620827Y-129290602D01*
X169620814Y-129290609D01*
X169489711Y-129378210D01*
X169489707Y-129378213D01*
X169378213Y-129489707D01*
X169378210Y-129489711D01*
X169290609Y-129620814D01*
X169290602Y-129620827D01*
X169230264Y-129766498D01*
X169230261Y-129766510D01*
X169199500Y-129921153D01*
X116600500Y-129921153D01*
X116600500Y-128721153D01*
X137699500Y-128721153D01*
X137699500Y-128878846D01*
X137730261Y-129033489D01*
X137730264Y-129033501D01*
X137790602Y-129179172D01*
X137790609Y-129179185D01*
X137878210Y-129310288D01*
X137878213Y-129310292D01*
X137989707Y-129421786D01*
X137989711Y-129421789D01*
X138120814Y-129509390D01*
X138120827Y-129509397D01*
X138266498Y-129569735D01*
X138266503Y-129569737D01*
X138421153Y-129600499D01*
X138421156Y-129600500D01*
X138421158Y-129600500D01*
X138578844Y-129600500D01*
X138578845Y-129600499D01*
X138733497Y-129569737D01*
X138879179Y-129509394D01*
X139010289Y-129421789D01*
X139121789Y-129310289D01*
X139209394Y-129179179D01*
X139269737Y-129033497D01*
X139300500Y-128878842D01*
X139300500Y-128721158D01*
X139300500Y-128721155D01*
X139300499Y-128721153D01*
X139269738Y-128566510D01*
X139269737Y-128566503D01*
X139269735Y-128566498D01*
X139209397Y-128420827D01*
X139209390Y-128420814D01*
X139121789Y-128289711D01*
X139121786Y-128289707D01*
X139010292Y-128178213D01*
X139010288Y-128178210D01*
X138879185Y-128090609D01*
X138879172Y-128090602D01*
X138733501Y-128030264D01*
X138733489Y-128030261D01*
X138578845Y-127999500D01*
X138578842Y-127999500D01*
X138421158Y-127999500D01*
X138421155Y-127999500D01*
X138266510Y-128030261D01*
X138266498Y-128030264D01*
X138120827Y-128090602D01*
X138120814Y-128090609D01*
X137989711Y-128178210D01*
X137989707Y-128178213D01*
X137878213Y-128289707D01*
X137878210Y-128289711D01*
X137790609Y-128420814D01*
X137790602Y-128420827D01*
X137730264Y-128566498D01*
X137730261Y-128566510D01*
X137699500Y-128721153D01*
X116600500Y-128721153D01*
X116600500Y-124874071D01*
X129500000Y-124874071D01*
X129500000Y-125125928D01*
X129539397Y-125374669D01*
X129617219Y-125614184D01*
X129731557Y-125838583D01*
X129805748Y-125940697D01*
X129805748Y-125940698D01*
X130617037Y-125129409D01*
X130634075Y-125192993D01*
X130699901Y-125307007D01*
X130792993Y-125400099D01*
X130907007Y-125465925D01*
X130970590Y-125482962D01*
X130159300Y-126294250D01*
X130261416Y-126368442D01*
X130485815Y-126482780D01*
X130725330Y-126560602D01*
X130974072Y-126600000D01*
X131225928Y-126600000D01*
X131474669Y-126560602D01*
X131714184Y-126482780D01*
X131938575Y-126368446D01*
X131938581Y-126368442D01*
X132040697Y-126294250D01*
X132040698Y-126294250D01*
X131229409Y-125482962D01*
X131292993Y-125465925D01*
X131407007Y-125400099D01*
X131500099Y-125307007D01*
X131565925Y-125192993D01*
X131582962Y-125129410D01*
X132394250Y-125940698D01*
X132394250Y-125940697D01*
X132468442Y-125838581D01*
X132468446Y-125838575D01*
X132582780Y-125614184D01*
X132660602Y-125374669D01*
X132700000Y-125125928D01*
X132700000Y-124874071D01*
X132699995Y-124874038D01*
X134499500Y-124874038D01*
X134499500Y-125125961D01*
X134538910Y-125374785D01*
X134616760Y-125614383D01*
X134695413Y-125768747D01*
X134730995Y-125838581D01*
X134731132Y-125838848D01*
X134879201Y-126042649D01*
X134879205Y-126042654D01*
X135057345Y-126220794D01*
X135057350Y-126220798D01*
X135158449Y-126294250D01*
X135261155Y-126368870D01*
X135404184Y-126441747D01*
X135485616Y-126483239D01*
X135485618Y-126483239D01*
X135485621Y-126483241D01*
X135725215Y-126561090D01*
X135974038Y-126600500D01*
X135974039Y-126600500D01*
X136225961Y-126600500D01*
X136225962Y-126600500D01*
X136474785Y-126561090D01*
X136714379Y-126483241D01*
X136938845Y-126368870D01*
X137142656Y-126220793D01*
X137320793Y-126042656D01*
X137468870Y-125838845D01*
X137583241Y-125614379D01*
X137661090Y-125374785D01*
X137700500Y-125125962D01*
X137700500Y-124874038D01*
X139499500Y-124874038D01*
X139499500Y-125125961D01*
X139538910Y-125374785D01*
X139616760Y-125614383D01*
X139695413Y-125768747D01*
X139730995Y-125838581D01*
X139731132Y-125838848D01*
X139879201Y-126042649D01*
X139879205Y-126042654D01*
X140057345Y-126220794D01*
X140057350Y-126220798D01*
X140158449Y-126294250D01*
X140261155Y-126368870D01*
X140404184Y-126441747D01*
X140485616Y-126483239D01*
X140485618Y-126483239D01*
X140485621Y-126483241D01*
X140725215Y-126561090D01*
X140974038Y-126600500D01*
X140974039Y-126600500D01*
X141225961Y-126600500D01*
X141225962Y-126600500D01*
X141474785Y-126561090D01*
X141714379Y-126483241D01*
X141938845Y-126368870D01*
X142142656Y-126220793D01*
X142320793Y-126042656D01*
X142468870Y-125838845D01*
X142583241Y-125614379D01*
X142661090Y-125374785D01*
X142700500Y-125125962D01*
X142700500Y-124874071D01*
X174500000Y-124874071D01*
X174500000Y-125125928D01*
X174539397Y-125374669D01*
X174617219Y-125614184D01*
X174731557Y-125838583D01*
X174805748Y-125940697D01*
X174805748Y-125940698D01*
X175617037Y-125129409D01*
X175634075Y-125192993D01*
X175699901Y-125307007D01*
X175792993Y-125400099D01*
X175907007Y-125465925D01*
X175970590Y-125482962D01*
X175159300Y-126294250D01*
X175261416Y-126368442D01*
X175485815Y-126482780D01*
X175725330Y-126560602D01*
X175974072Y-126600000D01*
X176225928Y-126600000D01*
X176474669Y-126560602D01*
X176714184Y-126482780D01*
X176938575Y-126368446D01*
X176938581Y-126368442D01*
X177040697Y-126294250D01*
X177040698Y-126294250D01*
X176229409Y-125482962D01*
X176292993Y-125465925D01*
X176407007Y-125400099D01*
X176500099Y-125307007D01*
X176565925Y-125192993D01*
X176582962Y-125129410D01*
X177394250Y-125940698D01*
X177394250Y-125940697D01*
X177468442Y-125838581D01*
X177468446Y-125838575D01*
X177582780Y-125614184D01*
X177660602Y-125374669D01*
X177700000Y-125125928D01*
X177700000Y-124874071D01*
X177699995Y-124874038D01*
X179499500Y-124874038D01*
X179499500Y-125125961D01*
X179538910Y-125374785D01*
X179616760Y-125614383D01*
X179695413Y-125768747D01*
X179730995Y-125838581D01*
X179731132Y-125838848D01*
X179879201Y-126042649D01*
X179879205Y-126042654D01*
X180057345Y-126220794D01*
X180057350Y-126220798D01*
X180158449Y-126294250D01*
X180261155Y-126368870D01*
X180404184Y-126441747D01*
X180485616Y-126483239D01*
X180485618Y-126483239D01*
X180485621Y-126483241D01*
X180725215Y-126561090D01*
X180974038Y-126600500D01*
X180974039Y-126600500D01*
X181225961Y-126600500D01*
X181225962Y-126600500D01*
X181474785Y-126561090D01*
X181714379Y-126483241D01*
X181938845Y-126368870D01*
X182142656Y-126220793D01*
X182320793Y-126042656D01*
X182468870Y-125838845D01*
X182583241Y-125614379D01*
X182661090Y-125374785D01*
X182700500Y-125125962D01*
X182700500Y-124874038D01*
X184499500Y-124874038D01*
X184499500Y-125125961D01*
X184538910Y-125374785D01*
X184616760Y-125614383D01*
X184695413Y-125768747D01*
X184730995Y-125838581D01*
X184731132Y-125838848D01*
X184879201Y-126042649D01*
X184879205Y-126042654D01*
X185057345Y-126220794D01*
X185057350Y-126220798D01*
X185158449Y-126294250D01*
X185261155Y-126368870D01*
X185404184Y-126441747D01*
X185485616Y-126483239D01*
X185485618Y-126483239D01*
X185485621Y-126483241D01*
X185725215Y-126561090D01*
X185974038Y-126600500D01*
X185974039Y-126600500D01*
X186225961Y-126600500D01*
X186225962Y-126600500D01*
X186474785Y-126561090D01*
X186714379Y-126483241D01*
X186938845Y-126368870D01*
X187142656Y-126220793D01*
X187320793Y-126042656D01*
X187468870Y-125838845D01*
X187583241Y-125614379D01*
X187661090Y-125374785D01*
X187700500Y-125125962D01*
X187700500Y-124874038D01*
X187661090Y-124625215D01*
X187583241Y-124385621D01*
X187583239Y-124385618D01*
X187583239Y-124385616D01*
X187541747Y-124304184D01*
X187468870Y-124161155D01*
X187394868Y-124059300D01*
X187320798Y-123957350D01*
X187320794Y-123957345D01*
X187142654Y-123779205D01*
X187142649Y-123779201D01*
X186938848Y-123631132D01*
X186938847Y-123631131D01*
X186938845Y-123631130D01*
X186868747Y-123595413D01*
X186714383Y-123516760D01*
X186474785Y-123438910D01*
X186225962Y-123399500D01*
X185974038Y-123399500D01*
X185849626Y-123419205D01*
X185725214Y-123438910D01*
X185485616Y-123516760D01*
X185261151Y-123631132D01*
X185057350Y-123779201D01*
X185057345Y-123779205D01*
X184879205Y-123957345D01*
X184879201Y-123957350D01*
X184731132Y-124161151D01*
X184616760Y-124385616D01*
X184538910Y-124625214D01*
X184499500Y-124874038D01*
X182700500Y-124874038D01*
X182661090Y-124625215D01*
X182583241Y-124385621D01*
X182583239Y-124385618D01*
X182583239Y-124385616D01*
X182541747Y-124304184D01*
X182468870Y-124161155D01*
X182394868Y-124059300D01*
X182320798Y-123957350D01*
X182320794Y-123957345D01*
X182142654Y-123779205D01*
X182142649Y-123779201D01*
X181938848Y-123631132D01*
X181938847Y-123631131D01*
X181938845Y-123631130D01*
X181868747Y-123595413D01*
X181714383Y-123516760D01*
X181474785Y-123438910D01*
X181225962Y-123399500D01*
X180974038Y-123399500D01*
X180849626Y-123419205D01*
X180725214Y-123438910D01*
X180485616Y-123516760D01*
X180261151Y-123631132D01*
X180057350Y-123779201D01*
X180057345Y-123779205D01*
X179879205Y-123957345D01*
X179879201Y-123957350D01*
X179731132Y-124161151D01*
X179616760Y-124385616D01*
X179538910Y-124625214D01*
X179499500Y-124874038D01*
X177699995Y-124874038D01*
X177660602Y-124625330D01*
X177582780Y-124385815D01*
X177468442Y-124161416D01*
X177394250Y-124059301D01*
X177394250Y-124059300D01*
X176582962Y-124870589D01*
X176565925Y-124807007D01*
X176500099Y-124692993D01*
X176407007Y-124599901D01*
X176292993Y-124534075D01*
X176229408Y-124517037D01*
X177040698Y-123705748D01*
X176938583Y-123631557D01*
X176714184Y-123517219D01*
X176474669Y-123439397D01*
X176225928Y-123400000D01*
X175974072Y-123400000D01*
X175725330Y-123439397D01*
X175485815Y-123517219D01*
X175261413Y-123631559D01*
X175159301Y-123705747D01*
X175159300Y-123705748D01*
X175970590Y-124517037D01*
X175907007Y-124534075D01*
X175792993Y-124599901D01*
X175699901Y-124692993D01*
X175634075Y-124807007D01*
X175617037Y-124870590D01*
X174805748Y-124059300D01*
X174805747Y-124059301D01*
X174731559Y-124161413D01*
X174617219Y-124385815D01*
X174539397Y-124625330D01*
X174500000Y-124874071D01*
X142700500Y-124874071D01*
X142700500Y-124874038D01*
X142661090Y-124625215D01*
X142583241Y-124385621D01*
X142583239Y-124385618D01*
X142583239Y-124385616D01*
X142541747Y-124304184D01*
X142468870Y-124161155D01*
X142394868Y-124059300D01*
X142320798Y-123957350D01*
X142320794Y-123957345D01*
X142142654Y-123779205D01*
X142142649Y-123779201D01*
X141938848Y-123631132D01*
X141938847Y-123631131D01*
X141938845Y-123631130D01*
X141868747Y-123595413D01*
X141714383Y-123516760D01*
X141474785Y-123438910D01*
X141225962Y-123399500D01*
X140974038Y-123399500D01*
X140849626Y-123419205D01*
X140725214Y-123438910D01*
X140485616Y-123516760D01*
X140261151Y-123631132D01*
X140057350Y-123779201D01*
X140057345Y-123779205D01*
X139879205Y-123957345D01*
X139879201Y-123957350D01*
X139731132Y-124161151D01*
X139616760Y-124385616D01*
X139538910Y-124625214D01*
X139499500Y-124874038D01*
X137700500Y-124874038D01*
X137661090Y-124625215D01*
X137583241Y-124385621D01*
X137583239Y-124385618D01*
X137583239Y-124385616D01*
X137541747Y-124304184D01*
X137468870Y-124161155D01*
X137394868Y-124059300D01*
X137320798Y-123957350D01*
X137320794Y-123957345D01*
X137142654Y-123779205D01*
X137142649Y-123779201D01*
X136938848Y-123631132D01*
X136938847Y-123631131D01*
X136938845Y-123631130D01*
X136868747Y-123595413D01*
X136714383Y-123516760D01*
X136474785Y-123438910D01*
X136225962Y-123399500D01*
X135974038Y-123399500D01*
X135849626Y-123419205D01*
X135725214Y-123438910D01*
X135485616Y-123516760D01*
X135261151Y-123631132D01*
X135057350Y-123779201D01*
X135057345Y-123779205D01*
X134879205Y-123957345D01*
X134879201Y-123957350D01*
X134731132Y-124161151D01*
X134616760Y-124385616D01*
X134538910Y-124625214D01*
X134499500Y-124874038D01*
X132699995Y-124874038D01*
X132660602Y-124625330D01*
X132582780Y-124385815D01*
X132468442Y-124161416D01*
X132394250Y-124059301D01*
X132394250Y-124059300D01*
X131582962Y-124870589D01*
X131565925Y-124807007D01*
X131500099Y-124692993D01*
X131407007Y-124599901D01*
X131292993Y-124534075D01*
X131229408Y-124517037D01*
X132040698Y-123705748D01*
X131938583Y-123631557D01*
X131714184Y-123517219D01*
X131474669Y-123439397D01*
X131225928Y-123400000D01*
X130974072Y-123400000D01*
X130725330Y-123439397D01*
X130485815Y-123517219D01*
X130261413Y-123631559D01*
X130159301Y-123705747D01*
X130159300Y-123705748D01*
X130970590Y-124517037D01*
X130907007Y-124534075D01*
X130792993Y-124599901D01*
X130699901Y-124692993D01*
X130634075Y-124807007D01*
X130617037Y-124870590D01*
X129805748Y-124059300D01*
X129805747Y-124059301D01*
X129731559Y-124161413D01*
X129617219Y-124385815D01*
X129539397Y-124625330D01*
X129500000Y-124874071D01*
X116600500Y-124874071D01*
X116600500Y-119339493D01*
X154880000Y-119339493D01*
X154880000Y-119520506D01*
X154908317Y-119699293D01*
X154964251Y-119871444D01*
X154964252Y-119871447D01*
X155046431Y-120032730D01*
X155057913Y-120048532D01*
X155057913Y-120048533D01*
X155630000Y-119476446D01*
X155630000Y-119482661D01*
X155657259Y-119584394D01*
X155709920Y-119675606D01*
X155784394Y-119750080D01*
X155875606Y-119802741D01*
X155977339Y-119830000D01*
X155983553Y-119830000D01*
X155411466Y-120402085D01*
X155411466Y-120402086D01*
X155427267Y-120413566D01*
X155427275Y-120413571D01*
X155588552Y-120495747D01*
X155588555Y-120495748D01*
X155760706Y-120551682D01*
X155939494Y-120580000D01*
X156120506Y-120580000D01*
X156299293Y-120551682D01*
X156471444Y-120495748D01*
X156471452Y-120495745D01*
X156632730Y-120413568D01*
X156648532Y-120402085D01*
X156648533Y-120402085D01*
X156076448Y-119830000D01*
X156082661Y-119830000D01*
X156184394Y-119802741D01*
X156275606Y-119750080D01*
X156350080Y-119675606D01*
X156402741Y-119584394D01*
X156430000Y-119482661D01*
X156430000Y-119476448D01*
X157002085Y-120048533D01*
X157002085Y-120048532D01*
X157013568Y-120032730D01*
X157095745Y-119871452D01*
X157095748Y-119871444D01*
X157151681Y-119699296D01*
X157157272Y-119663997D01*
X157187201Y-119600861D01*
X157246511Y-119563929D01*
X157316374Y-119564925D01*
X157374607Y-119603534D01*
X157402219Y-119663992D01*
X157407829Y-119699411D01*
X157463787Y-119871636D01*
X157463788Y-119871639D01*
X157519664Y-119981300D01*
X157545869Y-120032730D01*
X157546006Y-120032997D01*
X157652441Y-120179494D01*
X157652445Y-120179499D01*
X157780500Y-120307554D01*
X157780505Y-120307558D01*
X157908287Y-120400396D01*
X157927006Y-120413996D01*
X158032484Y-120467740D01*
X158088360Y-120496211D01*
X158088363Y-120496212D01*
X158174476Y-120524191D01*
X158260591Y-120552171D01*
X158343429Y-120565291D01*
X158439449Y-120580500D01*
X158439454Y-120580500D01*
X158620551Y-120580500D01*
X158707259Y-120566765D01*
X158799409Y-120552171D01*
X158971639Y-120496211D01*
X159132994Y-120413996D01*
X159279501Y-120307553D01*
X159407553Y-120179501D01*
X159513996Y-120032994D01*
X159596211Y-119871639D01*
X159652171Y-119699409D01*
X159657527Y-119665594D01*
X159687456Y-119602459D01*
X159746768Y-119565528D01*
X159816630Y-119566526D01*
X159874863Y-119605136D01*
X159902473Y-119665594D01*
X159907829Y-119699410D01*
X159963787Y-119871636D01*
X159963788Y-119871639D01*
X160019664Y-119981300D01*
X160045869Y-120032730D01*
X160046006Y-120032997D01*
X160152441Y-120179494D01*
X160152445Y-120179499D01*
X160280500Y-120307554D01*
X160280505Y-120307558D01*
X160408287Y-120400396D01*
X160427006Y-120413996D01*
X160532484Y-120467740D01*
X160588360Y-120496211D01*
X160588363Y-120496212D01*
X160674476Y-120524191D01*
X160760591Y-120552171D01*
X160843429Y-120565291D01*
X160939449Y-120580500D01*
X160939454Y-120580500D01*
X161120551Y-120580500D01*
X161207259Y-120566765D01*
X161299409Y-120552171D01*
X161471639Y-120496211D01*
X161632994Y-120413996D01*
X161779501Y-120307553D01*
X161907553Y-120179501D01*
X162013996Y-120032994D01*
X162096211Y-119871639D01*
X162152171Y-119699409D01*
X162173629Y-119563929D01*
X162180500Y-119520551D01*
X162180500Y-119339448D01*
X162157780Y-119196007D01*
X162152171Y-119160591D01*
X162096273Y-118988552D01*
X162096212Y-118988363D01*
X162096211Y-118988360D01*
X162067740Y-118932484D01*
X162013996Y-118827006D01*
X162000396Y-118808287D01*
X161907558Y-118680505D01*
X161907554Y-118680500D01*
X161779499Y-118552445D01*
X161779494Y-118552441D01*
X161632997Y-118446006D01*
X161632996Y-118446005D01*
X161632994Y-118446004D01*
X161581300Y-118419664D01*
X161471639Y-118363788D01*
X161471636Y-118363787D01*
X161299410Y-118307829D01*
X161120551Y-118279500D01*
X161120546Y-118279500D01*
X160939454Y-118279500D01*
X160939449Y-118279500D01*
X160760589Y-118307829D01*
X160588363Y-118363787D01*
X160588360Y-118363788D01*
X160427002Y-118446006D01*
X160280505Y-118552441D01*
X160280500Y-118552445D01*
X160152445Y-118680500D01*
X160152441Y-118680505D01*
X160046006Y-118827002D01*
X159963788Y-118988360D01*
X159963787Y-118988363D01*
X159907829Y-119160589D01*
X159902473Y-119194406D01*
X159872543Y-119257540D01*
X159813232Y-119294471D01*
X159743369Y-119293473D01*
X159685137Y-119254863D01*
X159657527Y-119194406D01*
X159652189Y-119160706D01*
X159652171Y-119160591D01*
X159596273Y-118988552D01*
X159596212Y-118988363D01*
X159596211Y-118988360D01*
X159567740Y-118932484D01*
X159513996Y-118827006D01*
X159500396Y-118808287D01*
X159407558Y-118680505D01*
X159407554Y-118680500D01*
X159279499Y-118552445D01*
X159279494Y-118552441D01*
X159132997Y-118446006D01*
X159132996Y-118446005D01*
X159132994Y-118446004D01*
X159081300Y-118419664D01*
X158971639Y-118363788D01*
X158971636Y-118363787D01*
X158799410Y-118307829D01*
X158620551Y-118279500D01*
X158620546Y-118279500D01*
X158439454Y-118279500D01*
X158439449Y-118279500D01*
X158260589Y-118307829D01*
X158088363Y-118363787D01*
X158088360Y-118363788D01*
X157927002Y-118446006D01*
X157780505Y-118552441D01*
X157780500Y-118552445D01*
X157652445Y-118680500D01*
X157652441Y-118680505D01*
X157546006Y-118827002D01*
X157463788Y-118988360D01*
X157463787Y-118988363D01*
X157407829Y-119160588D01*
X157402219Y-119196007D01*
X157372288Y-119259141D01*
X157312976Y-119296072D01*
X157243113Y-119295072D01*
X157184881Y-119256461D01*
X157157272Y-119196003D01*
X157151681Y-119160702D01*
X157095748Y-118988555D01*
X157095747Y-118988552D01*
X157013571Y-118827275D01*
X157013566Y-118827267D01*
X157002085Y-118811466D01*
X156430000Y-119383551D01*
X156430000Y-119377339D01*
X156402741Y-119275606D01*
X156350080Y-119184394D01*
X156275606Y-119109920D01*
X156184394Y-119057259D01*
X156082661Y-119030000D01*
X156076447Y-119030000D01*
X156648533Y-118457913D01*
X156632730Y-118446431D01*
X156471447Y-118364252D01*
X156471444Y-118364251D01*
X156299293Y-118308317D01*
X156120506Y-118280000D01*
X155939494Y-118280000D01*
X155760706Y-118308317D01*
X155588555Y-118364251D01*
X155588547Y-118364254D01*
X155427269Y-118446432D01*
X155411466Y-118457912D01*
X155411466Y-118457913D01*
X155983554Y-119030000D01*
X155977339Y-119030000D01*
X155875606Y-119057259D01*
X155784394Y-119109920D01*
X155709920Y-119184394D01*
X155657259Y-119275606D01*
X155630000Y-119377339D01*
X155630000Y-119383553D01*
X155057913Y-118811466D01*
X155057912Y-118811466D01*
X155046432Y-118827269D01*
X154964254Y-118988547D01*
X154964251Y-118988555D01*
X154908317Y-119160706D01*
X154880000Y-119339493D01*
X116600500Y-119339493D01*
X116600500Y-116139448D01*
X154879500Y-116139448D01*
X154879500Y-116320551D01*
X154907829Y-116499410D01*
X154963787Y-116671636D01*
X154963788Y-116671639D01*
X155046006Y-116832997D01*
X155152441Y-116979494D01*
X155152445Y-116979499D01*
X155280500Y-117107554D01*
X155280505Y-117107558D01*
X155408287Y-117200396D01*
X155427006Y-117213996D01*
X155532484Y-117267740D01*
X155588360Y-117296211D01*
X155588363Y-117296212D01*
X155674476Y-117324191D01*
X155760591Y-117352171D01*
X155843429Y-117365291D01*
X155939449Y-117380500D01*
X155939454Y-117380500D01*
X156120551Y-117380500D01*
X156207259Y-117366765D01*
X156299409Y-117352171D01*
X156471639Y-117296211D01*
X156632994Y-117213996D01*
X156779501Y-117107553D01*
X156907553Y-116979501D01*
X157013996Y-116832994D01*
X157096211Y-116671639D01*
X157152171Y-116499409D01*
X157157527Y-116465594D01*
X157187456Y-116402459D01*
X157246768Y-116365528D01*
X157316630Y-116366526D01*
X157374863Y-116405136D01*
X157402473Y-116465594D01*
X157407829Y-116499410D01*
X157463787Y-116671636D01*
X157463788Y-116671639D01*
X157546006Y-116832997D01*
X157652441Y-116979494D01*
X157652445Y-116979499D01*
X157780500Y-117107554D01*
X157780505Y-117107558D01*
X157908287Y-117200396D01*
X157927006Y-117213996D01*
X158032484Y-117267740D01*
X158088360Y-117296211D01*
X158088363Y-117296212D01*
X158174476Y-117324191D01*
X158260591Y-117352171D01*
X158343429Y-117365291D01*
X158439449Y-117380500D01*
X158439454Y-117380500D01*
X158620551Y-117380500D01*
X158707259Y-117366765D01*
X158799409Y-117352171D01*
X158971639Y-117296211D01*
X159132994Y-117213996D01*
X159279501Y-117107553D01*
X159407553Y-116979501D01*
X159513996Y-116832994D01*
X159596211Y-116671639D01*
X159652171Y-116499409D01*
X159657527Y-116465594D01*
X159687456Y-116402459D01*
X159746768Y-116365528D01*
X159816630Y-116366526D01*
X159874863Y-116405136D01*
X159902473Y-116465594D01*
X159907829Y-116499410D01*
X159963787Y-116671636D01*
X159963788Y-116671639D01*
X160046006Y-116832997D01*
X160152441Y-116979494D01*
X160152445Y-116979499D01*
X160280500Y-117107554D01*
X160280505Y-117107558D01*
X160408287Y-117200396D01*
X160427006Y-117213996D01*
X160532484Y-117267740D01*
X160588360Y-117296211D01*
X160588363Y-117296212D01*
X160674476Y-117324191D01*
X160760591Y-117352171D01*
X160843429Y-117365291D01*
X160939449Y-117380500D01*
X160939454Y-117380500D01*
X161120551Y-117380500D01*
X161207259Y-117366765D01*
X161299409Y-117352171D01*
X161471639Y-117296211D01*
X161632994Y-117213996D01*
X161779501Y-117107553D01*
X161907553Y-116979501D01*
X162013996Y-116832994D01*
X162096211Y-116671639D01*
X162152171Y-116499409D01*
X162173376Y-116365528D01*
X162180500Y-116320551D01*
X162180500Y-116139448D01*
X162164019Y-116035397D01*
X162152171Y-115960591D01*
X162096211Y-115788361D01*
X162096211Y-115788360D01*
X162067740Y-115732484D01*
X162013996Y-115627006D01*
X162000396Y-115608287D01*
X161907558Y-115480505D01*
X161907554Y-115480500D01*
X161779499Y-115352445D01*
X161779494Y-115352441D01*
X161632997Y-115246006D01*
X161632996Y-115246005D01*
X161632994Y-115246004D01*
X161581300Y-115219664D01*
X161471639Y-115163788D01*
X161471636Y-115163787D01*
X161299410Y-115107829D01*
X161120551Y-115079500D01*
X161120546Y-115079500D01*
X160939454Y-115079500D01*
X160939449Y-115079500D01*
X160760589Y-115107829D01*
X160588363Y-115163787D01*
X160588360Y-115163788D01*
X160427002Y-115246006D01*
X160280505Y-115352441D01*
X160280500Y-115352445D01*
X160152445Y-115480500D01*
X160152441Y-115480505D01*
X160046006Y-115627002D01*
X159963788Y-115788360D01*
X159963787Y-115788363D01*
X159907829Y-115960589D01*
X159902473Y-115994406D01*
X159872543Y-116057540D01*
X159813232Y-116094471D01*
X159743369Y-116093473D01*
X159685137Y-116054863D01*
X159657527Y-115994406D01*
X159656083Y-115985291D01*
X159652171Y-115960591D01*
X159596211Y-115788361D01*
X159596211Y-115788360D01*
X159567740Y-115732484D01*
X159513996Y-115627006D01*
X159500396Y-115608287D01*
X159407558Y-115480505D01*
X159407554Y-115480500D01*
X159279499Y-115352445D01*
X159279494Y-115352441D01*
X159132997Y-115246006D01*
X159132996Y-115246005D01*
X159132994Y-115246004D01*
X159081300Y-115219664D01*
X158971639Y-115163788D01*
X158971636Y-115163787D01*
X158799410Y-115107829D01*
X158620551Y-115079500D01*
X158620546Y-115079500D01*
X158439454Y-115079500D01*
X158439449Y-115079500D01*
X158260589Y-115107829D01*
X158088363Y-115163787D01*
X158088360Y-115163788D01*
X157927002Y-115246006D01*
X157780505Y-115352441D01*
X157780500Y-115352445D01*
X157652445Y-115480500D01*
X157652441Y-115480505D01*
X157546006Y-115627002D01*
X157463788Y-115788360D01*
X157463787Y-115788363D01*
X157407829Y-115960589D01*
X157402473Y-115994406D01*
X157372543Y-116057540D01*
X157313232Y-116094471D01*
X157243369Y-116093473D01*
X157185137Y-116054863D01*
X157157527Y-115994406D01*
X157156083Y-115985291D01*
X157152171Y-115960591D01*
X157096211Y-115788361D01*
X157096211Y-115788360D01*
X157067740Y-115732484D01*
X157013996Y-115627006D01*
X157000396Y-115608287D01*
X156907558Y-115480505D01*
X156907554Y-115480500D01*
X156779499Y-115352445D01*
X156779494Y-115352441D01*
X156632997Y-115246006D01*
X156632996Y-115246005D01*
X156632994Y-115246004D01*
X156581300Y-115219664D01*
X156471639Y-115163788D01*
X156471636Y-115163787D01*
X156299410Y-115107829D01*
X156120551Y-115079500D01*
X156120546Y-115079500D01*
X155939454Y-115079500D01*
X155939449Y-115079500D01*
X155760589Y-115107829D01*
X155588363Y-115163787D01*
X155588360Y-115163788D01*
X155427002Y-115246006D01*
X155280505Y-115352441D01*
X155280500Y-115352445D01*
X155152445Y-115480500D01*
X155152441Y-115480505D01*
X155046006Y-115627002D01*
X154963788Y-115788360D01*
X154963787Y-115788363D01*
X154907829Y-115960589D01*
X154879500Y-116139448D01*
X116600500Y-116139448D01*
X116600500Y-111721153D01*
X125899500Y-111721153D01*
X125899500Y-111878846D01*
X125930261Y-112033489D01*
X125930264Y-112033501D01*
X125990602Y-112179172D01*
X125990609Y-112179185D01*
X126078210Y-112310288D01*
X126078213Y-112310292D01*
X126189707Y-112421786D01*
X126189711Y-112421789D01*
X126320814Y-112509390D01*
X126320827Y-112509397D01*
X126466498Y-112569735D01*
X126466503Y-112569737D01*
X126621153Y-112600499D01*
X126621156Y-112600500D01*
X126621158Y-112600500D01*
X126778844Y-112600500D01*
X126778845Y-112600499D01*
X126933497Y-112569737D01*
X127079179Y-112509394D01*
X127210289Y-112421789D01*
X127321789Y-112310289D01*
X127409394Y-112179179D01*
X127469737Y-112033497D01*
X127472192Y-112021153D01*
X140299500Y-112021153D01*
X140299500Y-112178846D01*
X140330261Y-112333489D01*
X140330264Y-112333501D01*
X140390602Y-112479172D01*
X140390609Y-112479185D01*
X140478210Y-112610288D01*
X140478213Y-112610292D01*
X140589707Y-112721786D01*
X140589711Y-112721789D01*
X140720814Y-112809390D01*
X140720827Y-112809397D01*
X140866498Y-112869735D01*
X140866503Y-112869737D01*
X141021153Y-112900499D01*
X141021156Y-112900500D01*
X141021158Y-112900500D01*
X141178844Y-112900500D01*
X141178845Y-112900499D01*
X141333497Y-112869737D01*
X141479179Y-112809394D01*
X141610289Y-112721789D01*
X141721789Y-112610289D01*
X141809394Y-112479179D01*
X141869737Y-112333497D01*
X141900500Y-112178842D01*
X141900500Y-112021158D01*
X141900500Y-112021155D01*
X141900499Y-112021153D01*
X141872192Y-111878846D01*
X141869737Y-111866503D01*
X141833427Y-111778842D01*
X141826666Y-111762518D01*
X141809532Y-111721153D01*
X176099500Y-111721153D01*
X176099500Y-111878846D01*
X176130261Y-112033489D01*
X176130264Y-112033501D01*
X176190602Y-112179172D01*
X176190609Y-112179185D01*
X176278210Y-112310288D01*
X176278213Y-112310292D01*
X176389707Y-112421786D01*
X176389711Y-112421789D01*
X176520814Y-112509390D01*
X176520827Y-112509397D01*
X176666498Y-112569735D01*
X176666503Y-112569737D01*
X176821153Y-112600499D01*
X176821156Y-112600500D01*
X176821158Y-112600500D01*
X176978844Y-112600500D01*
X176978845Y-112600499D01*
X177133497Y-112569737D01*
X177279179Y-112509394D01*
X177410289Y-112421789D01*
X177521789Y-112310289D01*
X177609394Y-112179179D01*
X177669737Y-112033497D01*
X177700500Y-111878842D01*
X177700500Y-111721158D01*
X177700500Y-111721155D01*
X177684209Y-111639258D01*
X177684209Y-111639257D01*
X177680608Y-111621153D01*
X189999500Y-111621153D01*
X189999500Y-111778846D01*
X190030261Y-111933489D01*
X190030264Y-111933501D01*
X190090602Y-112079172D01*
X190090609Y-112079185D01*
X190178210Y-112210288D01*
X190178213Y-112210292D01*
X190289707Y-112321786D01*
X190289711Y-112321789D01*
X190420814Y-112409390D01*
X190420827Y-112409397D01*
X190566498Y-112469735D01*
X190566503Y-112469737D01*
X190721153Y-112500499D01*
X190721156Y-112500500D01*
X190721158Y-112500500D01*
X190878844Y-112500500D01*
X190878845Y-112500499D01*
X191033497Y-112469737D01*
X191179179Y-112409394D01*
X191310289Y-112321789D01*
X191421789Y-112210289D01*
X191509394Y-112079179D01*
X191569737Y-111933497D01*
X191600500Y-111778842D01*
X191600500Y-111621158D01*
X191600500Y-111621155D01*
X191600499Y-111621153D01*
X191572066Y-111478211D01*
X191569737Y-111466503D01*
X191538298Y-111390602D01*
X191509397Y-111320827D01*
X191509390Y-111320814D01*
X191421789Y-111189711D01*
X191421786Y-111189707D01*
X191310292Y-111078213D01*
X191310288Y-111078210D01*
X191179185Y-110990609D01*
X191179172Y-110990602D01*
X191033501Y-110930264D01*
X191033489Y-110930261D01*
X190878845Y-110899500D01*
X190878842Y-110899500D01*
X190721158Y-110899500D01*
X190721155Y-110899500D01*
X190566510Y-110930261D01*
X190566498Y-110930264D01*
X190420827Y-110990602D01*
X190420814Y-110990609D01*
X190289711Y-111078210D01*
X190289707Y-111078213D01*
X190178213Y-111189707D01*
X190178210Y-111189711D01*
X190090609Y-111320814D01*
X190090602Y-111320827D01*
X190030264Y-111466498D01*
X190030261Y-111466510D01*
X189999500Y-111621153D01*
X177680608Y-111621153D01*
X177674353Y-111589711D01*
X177669737Y-111566503D01*
X177669735Y-111566498D01*
X177609397Y-111420827D01*
X177609390Y-111420814D01*
X177521789Y-111289711D01*
X177521786Y-111289707D01*
X177410292Y-111178213D01*
X177410288Y-111178210D01*
X177279185Y-111090609D01*
X177279172Y-111090602D01*
X177133501Y-111030264D01*
X177133489Y-111030261D01*
X176978845Y-110999500D01*
X176978842Y-110999500D01*
X176821158Y-110999500D01*
X176821155Y-110999500D01*
X176666510Y-111030261D01*
X176666498Y-111030264D01*
X176520827Y-111090602D01*
X176520814Y-111090609D01*
X176389711Y-111178210D01*
X176389707Y-111178213D01*
X176278213Y-111289707D01*
X176278210Y-111289711D01*
X176190609Y-111420814D01*
X176190602Y-111420827D01*
X176130264Y-111566498D01*
X176130261Y-111566510D01*
X176099500Y-111721153D01*
X141809532Y-111721153D01*
X141809395Y-111720823D01*
X141809390Y-111720814D01*
X141721789Y-111589711D01*
X141721786Y-111589707D01*
X141610292Y-111478213D01*
X141610288Y-111478210D01*
X141479185Y-111390609D01*
X141479172Y-111390602D01*
X141333501Y-111330264D01*
X141333489Y-111330261D01*
X141178845Y-111299500D01*
X141178842Y-111299500D01*
X141021158Y-111299500D01*
X141021155Y-111299500D01*
X140866510Y-111330261D01*
X140866498Y-111330264D01*
X140720827Y-111390602D01*
X140720814Y-111390609D01*
X140589711Y-111478210D01*
X140589707Y-111478213D01*
X140478213Y-111589707D01*
X140478210Y-111589711D01*
X140390609Y-111720814D01*
X140390602Y-111720827D01*
X140330264Y-111866498D01*
X140330261Y-111866510D01*
X140299500Y-112021153D01*
X127472192Y-112021153D01*
X127478216Y-111990874D01*
X127478216Y-111990873D01*
X127500499Y-111878846D01*
X127500500Y-111878844D01*
X127500500Y-111721155D01*
X127500499Y-111721153D01*
X127484209Y-111639257D01*
X127469737Y-111566503D01*
X127469735Y-111566498D01*
X127409397Y-111420827D01*
X127409390Y-111420814D01*
X127321789Y-111289711D01*
X127321786Y-111289707D01*
X127210292Y-111178213D01*
X127210288Y-111178210D01*
X127079185Y-111090609D01*
X127079172Y-111090602D01*
X126933501Y-111030264D01*
X126933489Y-111030261D01*
X126778845Y-110999500D01*
X126778842Y-110999500D01*
X126621158Y-110999500D01*
X126621155Y-110999500D01*
X126466510Y-111030261D01*
X126466498Y-111030264D01*
X126320827Y-111090602D01*
X126320814Y-111090609D01*
X126189711Y-111178210D01*
X126189707Y-111178213D01*
X126078213Y-111289707D01*
X126078210Y-111289711D01*
X125990609Y-111420814D01*
X125990602Y-111420827D01*
X125930264Y-111566498D01*
X125930261Y-111566510D01*
X125899500Y-111721153D01*
X116600500Y-111721153D01*
X116600500Y-104921153D01*
X148799500Y-104921153D01*
X148799500Y-105078846D01*
X148830261Y-105233489D01*
X148830264Y-105233501D01*
X148890602Y-105379172D01*
X148890609Y-105379185D01*
X148978210Y-105510288D01*
X148978213Y-105510292D01*
X149089707Y-105621786D01*
X149089711Y-105621789D01*
X149220814Y-105709390D01*
X149220827Y-105709397D01*
X149366498Y-105769735D01*
X149366503Y-105769737D01*
X149521153Y-105800499D01*
X149521156Y-105800500D01*
X149521158Y-105800500D01*
X149678844Y-105800500D01*
X149678845Y-105800499D01*
X149833497Y-105769737D01*
X149979179Y-105709394D01*
X150110289Y-105621789D01*
X150221789Y-105510289D01*
X150309394Y-105379179D01*
X150369737Y-105233497D01*
X150400500Y-105078842D01*
X150400500Y-104921158D01*
X150400500Y-104921155D01*
X150400499Y-104921153D01*
X166799500Y-104921153D01*
X166799500Y-105078846D01*
X166830261Y-105233489D01*
X166830264Y-105233501D01*
X166890602Y-105379172D01*
X166890609Y-105379185D01*
X166978210Y-105510288D01*
X166978213Y-105510292D01*
X167089707Y-105621786D01*
X167089711Y-105621789D01*
X167220814Y-105709390D01*
X167220827Y-105709397D01*
X167366498Y-105769735D01*
X167366503Y-105769737D01*
X167521153Y-105800499D01*
X167521156Y-105800500D01*
X167521158Y-105800500D01*
X167678844Y-105800500D01*
X167678845Y-105800499D01*
X167833497Y-105769737D01*
X167979179Y-105709394D01*
X168110289Y-105621789D01*
X168221789Y-105510289D01*
X168309394Y-105379179D01*
X168369737Y-105233497D01*
X168400500Y-105078842D01*
X168400500Y-104921158D01*
X168400500Y-104921155D01*
X168400499Y-104921153D01*
X168369738Y-104766510D01*
X168369737Y-104766503D01*
X168369735Y-104766498D01*
X168309397Y-104620827D01*
X168309390Y-104620814D01*
X168221789Y-104489711D01*
X168221786Y-104489707D01*
X168110292Y-104378213D01*
X168110288Y-104378210D01*
X167979185Y-104290609D01*
X167979172Y-104290602D01*
X167833501Y-104230264D01*
X167833489Y-104230261D01*
X167678845Y-104199500D01*
X167678842Y-104199500D01*
X167521158Y-104199500D01*
X167521155Y-104199500D01*
X167366510Y-104230261D01*
X167366498Y-104230264D01*
X167220827Y-104290602D01*
X167220814Y-104290609D01*
X167089711Y-104378210D01*
X167089707Y-104378213D01*
X166978213Y-104489707D01*
X166978210Y-104489711D01*
X166890609Y-104620814D01*
X166890602Y-104620827D01*
X166830264Y-104766498D01*
X166830261Y-104766510D01*
X166799500Y-104921153D01*
X150400499Y-104921153D01*
X150369738Y-104766510D01*
X150369737Y-104766503D01*
X150369735Y-104766498D01*
X150309397Y-104620827D01*
X150309390Y-104620814D01*
X150221789Y-104489711D01*
X150221786Y-104489707D01*
X150110292Y-104378213D01*
X150110288Y-104378210D01*
X149979185Y-104290609D01*
X149979172Y-104290602D01*
X149833501Y-104230264D01*
X149833489Y-104230261D01*
X149678845Y-104199500D01*
X149678842Y-104199500D01*
X149521158Y-104199500D01*
X149521155Y-104199500D01*
X149366510Y-104230261D01*
X149366498Y-104230264D01*
X149220827Y-104290602D01*
X149220814Y-104290609D01*
X149089711Y-104378210D01*
X149089707Y-104378213D01*
X148978213Y-104489707D01*
X148978210Y-104489711D01*
X148890609Y-104620814D01*
X148890602Y-104620827D01*
X148830264Y-104766498D01*
X148830261Y-104766510D01*
X148799500Y-104921153D01*
X116600500Y-104921153D01*
X116600500Y-97821153D01*
X141699500Y-97821153D01*
X141699500Y-97978846D01*
X141730261Y-98133489D01*
X141730264Y-98133501D01*
X141790602Y-98279172D01*
X141790609Y-98279185D01*
X141878210Y-98410288D01*
X141878213Y-98410292D01*
X141989707Y-98521786D01*
X141989711Y-98521789D01*
X142120814Y-98609390D01*
X142120827Y-98609397D01*
X142266498Y-98669735D01*
X142266503Y-98669737D01*
X142421153Y-98700499D01*
X142421156Y-98700500D01*
X142421158Y-98700500D01*
X142578844Y-98700500D01*
X142578845Y-98700499D01*
X142733497Y-98669737D01*
X142879179Y-98609394D01*
X143010289Y-98521789D01*
X143121789Y-98410289D01*
X143209394Y-98279179D01*
X143269737Y-98133497D01*
X143300500Y-97978842D01*
X143300500Y-97821158D01*
X143300500Y-97821155D01*
X143300499Y-97821153D01*
X143269738Y-97666510D01*
X143269737Y-97666503D01*
X143242398Y-97600500D01*
X143209397Y-97520827D01*
X143209390Y-97520814D01*
X143121790Y-97389712D01*
X143121784Y-97389705D01*
X143053232Y-97321153D01*
X177899500Y-97321153D01*
X177899500Y-97478846D01*
X177930261Y-97633489D01*
X177930264Y-97633501D01*
X177990602Y-97779172D01*
X177990609Y-97779185D01*
X178078210Y-97910288D01*
X178078213Y-97910292D01*
X178189707Y-98021786D01*
X178189711Y-98021789D01*
X178320814Y-98109390D01*
X178320827Y-98109397D01*
X178466498Y-98169735D01*
X178466503Y-98169737D01*
X178621153Y-98200499D01*
X178621156Y-98200500D01*
X178621158Y-98200500D01*
X178778844Y-98200500D01*
X178778845Y-98200499D01*
X178933497Y-98169737D01*
X179079179Y-98109394D01*
X179210289Y-98021789D01*
X179321789Y-97910289D01*
X179409394Y-97779179D01*
X179469737Y-97633497D01*
X179500500Y-97478842D01*
X179500500Y-97321158D01*
X179500500Y-97321155D01*
X179500499Y-97321153D01*
X179478269Y-97209397D01*
X179469737Y-97166503D01*
X179469735Y-97166498D01*
X179409397Y-97020827D01*
X179409390Y-97020814D01*
X179321789Y-96889711D01*
X179321786Y-96889707D01*
X179210292Y-96778213D01*
X179210288Y-96778210D01*
X179124897Y-96721153D01*
X187899500Y-96721153D01*
X187899500Y-96878846D01*
X187930261Y-97033489D01*
X187930264Y-97033501D01*
X187990602Y-97179172D01*
X187990609Y-97179185D01*
X188078210Y-97310288D01*
X188078213Y-97310292D01*
X188189707Y-97421786D01*
X188189711Y-97421789D01*
X188320814Y-97509390D01*
X188320827Y-97509397D01*
X188466498Y-97569735D01*
X188466503Y-97569737D01*
X188621153Y-97600499D01*
X188621156Y-97600500D01*
X188621158Y-97600500D01*
X188778844Y-97600500D01*
X188778845Y-97600499D01*
X188933497Y-97569737D01*
X189051592Y-97520821D01*
X189079172Y-97509397D01*
X189079172Y-97509396D01*
X189079179Y-97509394D01*
X189210289Y-97421789D01*
X189321789Y-97310289D01*
X189409394Y-97179179D01*
X189469737Y-97033497D01*
X189500500Y-96878842D01*
X189500500Y-96721158D01*
X189500500Y-96721155D01*
X189500499Y-96721153D01*
X189482419Y-96630261D01*
X189469737Y-96566503D01*
X189409534Y-96421158D01*
X189409397Y-96420827D01*
X189409390Y-96420814D01*
X189321789Y-96289711D01*
X189321786Y-96289707D01*
X189210292Y-96178213D01*
X189210288Y-96178210D01*
X189079185Y-96090609D01*
X189079172Y-96090602D01*
X188933501Y-96030264D01*
X188933489Y-96030261D01*
X188778845Y-95999500D01*
X188778842Y-95999500D01*
X188621158Y-95999500D01*
X188621155Y-95999500D01*
X188466510Y-96030261D01*
X188466498Y-96030264D01*
X188320827Y-96090602D01*
X188320814Y-96090609D01*
X188189711Y-96178210D01*
X188189707Y-96178213D01*
X188078213Y-96289707D01*
X188078210Y-96289711D01*
X187990609Y-96420814D01*
X187990602Y-96420827D01*
X187930264Y-96566498D01*
X187930261Y-96566510D01*
X187899500Y-96721153D01*
X179124897Y-96721153D01*
X179079185Y-96690609D01*
X179079172Y-96690602D01*
X178933501Y-96630264D01*
X178933489Y-96630261D01*
X178778845Y-96599500D01*
X178778842Y-96599500D01*
X178621158Y-96599500D01*
X178621155Y-96599500D01*
X178466510Y-96630261D01*
X178466498Y-96630264D01*
X178320827Y-96690602D01*
X178320814Y-96690609D01*
X178189711Y-96778210D01*
X178189707Y-96778213D01*
X178078213Y-96889707D01*
X178078210Y-96889711D01*
X177990609Y-97020814D01*
X177990602Y-97020827D01*
X177930264Y-97166498D01*
X177930261Y-97166510D01*
X177899500Y-97321153D01*
X143053232Y-97321153D01*
X143010292Y-97278213D01*
X143010288Y-97278210D01*
X142879185Y-97190609D01*
X142879172Y-97190602D01*
X142733501Y-97130264D01*
X142733489Y-97130261D01*
X142578845Y-97099500D01*
X142578842Y-97099500D01*
X142421158Y-97099500D01*
X142421155Y-97099500D01*
X142266510Y-97130261D01*
X142266498Y-97130264D01*
X142120827Y-97190602D01*
X142120814Y-97190609D01*
X141989711Y-97278210D01*
X141989707Y-97278213D01*
X141878213Y-97389707D01*
X141878210Y-97389711D01*
X141790609Y-97520814D01*
X141790602Y-97520827D01*
X141730264Y-97666498D01*
X141730261Y-97666510D01*
X141699500Y-97821153D01*
X116600500Y-97821153D01*
X116600500Y-96421153D01*
X131899500Y-96421153D01*
X131899500Y-96578846D01*
X131930261Y-96733489D01*
X131930264Y-96733501D01*
X131990602Y-96879172D01*
X131990609Y-96879185D01*
X132078210Y-97010288D01*
X132078213Y-97010292D01*
X132189707Y-97121786D01*
X132189711Y-97121789D01*
X132320814Y-97209390D01*
X132320827Y-97209397D01*
X132466498Y-97269735D01*
X132466503Y-97269737D01*
X132621153Y-97300499D01*
X132621156Y-97300500D01*
X132621158Y-97300500D01*
X132778844Y-97300500D01*
X132778845Y-97300499D01*
X132933497Y-97269737D01*
X133079179Y-97209394D01*
X133210289Y-97121789D01*
X133321789Y-97010289D01*
X133409394Y-96879179D01*
X133469737Y-96733497D01*
X133500500Y-96578842D01*
X133500500Y-96421158D01*
X133500500Y-96421155D01*
X133500499Y-96421153D01*
X133474353Y-96289711D01*
X133469737Y-96266503D01*
X133469735Y-96266498D01*
X133409397Y-96120827D01*
X133409390Y-96120814D01*
X133321789Y-95989711D01*
X133321786Y-95989707D01*
X133210292Y-95878213D01*
X133210288Y-95878210D01*
X133079185Y-95790609D01*
X133079172Y-95790602D01*
X132933501Y-95730264D01*
X132933489Y-95730261D01*
X132778845Y-95699500D01*
X132778842Y-95699500D01*
X132621158Y-95699500D01*
X132621155Y-95699500D01*
X132466510Y-95730261D01*
X132466498Y-95730264D01*
X132320827Y-95790602D01*
X132320814Y-95790609D01*
X132189711Y-95878210D01*
X132189707Y-95878213D01*
X132078213Y-95989707D01*
X132078210Y-95989711D01*
X131990609Y-96120814D01*
X131990602Y-96120827D01*
X131930264Y-96266498D01*
X131930261Y-96266510D01*
X131899500Y-96421153D01*
X116600500Y-96421153D01*
X116600500Y-93021153D01*
X135999500Y-93021153D01*
X135999500Y-93178846D01*
X136030261Y-93333489D01*
X136030264Y-93333501D01*
X136090602Y-93479172D01*
X136090609Y-93479185D01*
X136178210Y-93610288D01*
X136178213Y-93610292D01*
X136289707Y-93721786D01*
X136289711Y-93721789D01*
X136420814Y-93809390D01*
X136420827Y-93809397D01*
X136520060Y-93850500D01*
X136566503Y-93869737D01*
X136721153Y-93900499D01*
X136721156Y-93900500D01*
X136721158Y-93900500D01*
X136878844Y-93900500D01*
X136878845Y-93900499D01*
X137033497Y-93869737D01*
X137151592Y-93820821D01*
X137179172Y-93809397D01*
X137179172Y-93809396D01*
X137179179Y-93809394D01*
X137307410Y-93723713D01*
X143879500Y-93723713D01*
X143879500Y-93936286D01*
X143908727Y-94120821D01*
X143912754Y-94146243D01*
X143955838Y-94278842D01*
X143978444Y-94348414D01*
X144074951Y-94537820D01*
X144199890Y-94709786D01*
X144350213Y-94860109D01*
X144522179Y-94985048D01*
X144522181Y-94985049D01*
X144522184Y-94985051D01*
X144711588Y-95081557D01*
X144913757Y-95147246D01*
X145123713Y-95180500D01*
X145123714Y-95180500D01*
X145336286Y-95180500D01*
X145336287Y-95180500D01*
X145546243Y-95147246D01*
X145748412Y-95081557D01*
X145937816Y-94985051D01*
X145969593Y-94961964D01*
X146109786Y-94860109D01*
X146109788Y-94860106D01*
X146109792Y-94860104D01*
X146260104Y-94709792D01*
X146260106Y-94709788D01*
X146260109Y-94709786D01*
X146385048Y-94537820D01*
X146385047Y-94537820D01*
X146385051Y-94537816D01*
X146481557Y-94348412D01*
X146547246Y-94146243D01*
X146580500Y-93936287D01*
X146580500Y-93723713D01*
X170579500Y-93723713D01*
X170579500Y-93936286D01*
X170608727Y-94120821D01*
X170612754Y-94146243D01*
X170655838Y-94278842D01*
X170678444Y-94348414D01*
X170774951Y-94537820D01*
X170899890Y-94709786D01*
X171050213Y-94860109D01*
X171222179Y-94985048D01*
X171222181Y-94985049D01*
X171222184Y-94985051D01*
X171411588Y-95081557D01*
X171613757Y-95147246D01*
X171823713Y-95180500D01*
X171823714Y-95180500D01*
X172036286Y-95180500D01*
X172036287Y-95180500D01*
X172246243Y-95147246D01*
X172448412Y-95081557D01*
X172637816Y-94985051D01*
X172669593Y-94961964D01*
X172809786Y-94860109D01*
X172809788Y-94860106D01*
X172809792Y-94860104D01*
X172960104Y-94709792D01*
X172960106Y-94709788D01*
X172960109Y-94709786D01*
X173085048Y-94537820D01*
X173085047Y-94537820D01*
X173085051Y-94537816D01*
X173181557Y-94348412D01*
X173247246Y-94146243D01*
X173251220Y-94121153D01*
X179199500Y-94121153D01*
X179199500Y-94278846D01*
X179230261Y-94433489D01*
X179230264Y-94433501D01*
X179290602Y-94579172D01*
X179290609Y-94579185D01*
X179378210Y-94710288D01*
X179378213Y-94710292D01*
X179489707Y-94821786D01*
X179489711Y-94821789D01*
X179620814Y-94909390D01*
X179620827Y-94909397D01*
X179747737Y-94961964D01*
X179766503Y-94969737D01*
X179921153Y-95000499D01*
X179921156Y-95000500D01*
X179921158Y-95000500D01*
X180078844Y-95000500D01*
X180078845Y-95000499D01*
X180233497Y-94969737D01*
X180379179Y-94909394D01*
X180510289Y-94821789D01*
X180621789Y-94710289D01*
X180709394Y-94579179D01*
X180769737Y-94433497D01*
X180772192Y-94421153D01*
X183799500Y-94421153D01*
X183799500Y-94578846D01*
X183830261Y-94733489D01*
X183830264Y-94733501D01*
X183890602Y-94879172D01*
X183890609Y-94879185D01*
X183978210Y-95010288D01*
X183978213Y-95010292D01*
X184089707Y-95121786D01*
X184089711Y-95121789D01*
X184220814Y-95209390D01*
X184220827Y-95209397D01*
X184366498Y-95269735D01*
X184366503Y-95269737D01*
X184521153Y-95300499D01*
X184521156Y-95300500D01*
X184521158Y-95300500D01*
X184678844Y-95300500D01*
X184678845Y-95300499D01*
X184833497Y-95269737D01*
X184979179Y-95209394D01*
X185110289Y-95121789D01*
X185221789Y-95010289D01*
X185309394Y-94879179D01*
X185369737Y-94733497D01*
X185400500Y-94578842D01*
X185400500Y-94421158D01*
X185400500Y-94421155D01*
X185400499Y-94421153D01*
X185392365Y-94380261D01*
X185369737Y-94266503D01*
X185350955Y-94221158D01*
X185350953Y-94221153D01*
X187599500Y-94221153D01*
X187599500Y-94378846D01*
X187630261Y-94533489D01*
X187630264Y-94533501D01*
X187690602Y-94679172D01*
X187690609Y-94679185D01*
X187778210Y-94810288D01*
X187778213Y-94810292D01*
X187889707Y-94921786D01*
X187889711Y-94921789D01*
X188020814Y-95009390D01*
X188020827Y-95009397D01*
X188166498Y-95069735D01*
X188166503Y-95069737D01*
X188321153Y-95100499D01*
X188321156Y-95100500D01*
X188321158Y-95100500D01*
X188478844Y-95100500D01*
X188478845Y-95100499D01*
X188633497Y-95069737D01*
X188779179Y-95009394D01*
X188910289Y-94921789D01*
X189021789Y-94810289D01*
X189109394Y-94679179D01*
X189169737Y-94533497D01*
X189200500Y-94378842D01*
X189200500Y-94221158D01*
X189200500Y-94221155D01*
X189200499Y-94221153D01*
X190699500Y-94221153D01*
X190699500Y-94378846D01*
X190730261Y-94533489D01*
X190730264Y-94533501D01*
X190790602Y-94679172D01*
X190790609Y-94679185D01*
X190878210Y-94810288D01*
X190878213Y-94810292D01*
X190989707Y-94921786D01*
X190989711Y-94921789D01*
X191120814Y-95009390D01*
X191120827Y-95009397D01*
X191266498Y-95069735D01*
X191266503Y-95069737D01*
X191421153Y-95100499D01*
X191421156Y-95100500D01*
X191421158Y-95100500D01*
X191578844Y-95100500D01*
X191578845Y-95100499D01*
X191726378Y-95071153D01*
X193149500Y-95071153D01*
X193149500Y-95228846D01*
X193180261Y-95383489D01*
X193180264Y-95383501D01*
X193240602Y-95529172D01*
X193240609Y-95529185D01*
X193328210Y-95660288D01*
X193328213Y-95660292D01*
X193439707Y-95771786D01*
X193439711Y-95771789D01*
X193570814Y-95859390D01*
X193570827Y-95859397D01*
X193616254Y-95878213D01*
X193716503Y-95919737D01*
X193871153Y-95950499D01*
X193871156Y-95950500D01*
X193871158Y-95950500D01*
X194028844Y-95950500D01*
X194028845Y-95950499D01*
X194183497Y-95919737D01*
X194329179Y-95859394D01*
X194460289Y-95771789D01*
X194571789Y-95660289D01*
X194659394Y-95529179D01*
X194719737Y-95383497D01*
X194750500Y-95228842D01*
X194750500Y-95071158D01*
X194750500Y-95071155D01*
X194750499Y-95071153D01*
X194733372Y-94985051D01*
X194719737Y-94916503D01*
X194716791Y-94909390D01*
X194659397Y-94770827D01*
X194659390Y-94770814D01*
X194571789Y-94639711D01*
X194571786Y-94639707D01*
X194460292Y-94528213D01*
X194460288Y-94528210D01*
X194329185Y-94440609D01*
X194329172Y-94440602D01*
X194183501Y-94380264D01*
X194183489Y-94380261D01*
X194028845Y-94349500D01*
X194028842Y-94349500D01*
X193871158Y-94349500D01*
X193871155Y-94349500D01*
X193716510Y-94380261D01*
X193716498Y-94380264D01*
X193570827Y-94440602D01*
X193570814Y-94440609D01*
X193439711Y-94528210D01*
X193439707Y-94528213D01*
X193328213Y-94639707D01*
X193328210Y-94639711D01*
X193240609Y-94770814D01*
X193240602Y-94770827D01*
X193180264Y-94916498D01*
X193180261Y-94916510D01*
X193149500Y-95071153D01*
X191726378Y-95071153D01*
X191733497Y-95069737D01*
X191879179Y-95009394D01*
X191892490Y-95000500D01*
X191950164Y-94961964D01*
X191981224Y-94941209D01*
X192010289Y-94921789D01*
X192121789Y-94810289D01*
X192209394Y-94679179D01*
X192269737Y-94533497D01*
X192300500Y-94378842D01*
X192300500Y-94221158D01*
X192300500Y-94221155D01*
X192300499Y-94221153D01*
X192285598Y-94146243D01*
X192269737Y-94066503D01*
X192237929Y-93989711D01*
X192209397Y-93920827D01*
X192209390Y-93920814D01*
X192121789Y-93789711D01*
X192121786Y-93789707D01*
X192010292Y-93678213D01*
X192010288Y-93678210D01*
X191879185Y-93590609D01*
X191879172Y-93590602D01*
X191733501Y-93530264D01*
X191733489Y-93530261D01*
X191578845Y-93499500D01*
X191578842Y-93499500D01*
X191421158Y-93499500D01*
X191421155Y-93499500D01*
X191266510Y-93530261D01*
X191266498Y-93530264D01*
X191120827Y-93590602D01*
X191120814Y-93590609D01*
X190989711Y-93678210D01*
X190989707Y-93678213D01*
X190878213Y-93789707D01*
X190878210Y-93789711D01*
X190790609Y-93920814D01*
X190790602Y-93920827D01*
X190730264Y-94066498D01*
X190730261Y-94066510D01*
X190699500Y-94221153D01*
X189200499Y-94221153D01*
X189185598Y-94146243D01*
X189169737Y-94066503D01*
X189137929Y-93989711D01*
X189109397Y-93920827D01*
X189109390Y-93920814D01*
X189021789Y-93789711D01*
X189021786Y-93789707D01*
X188910292Y-93678213D01*
X188910288Y-93678210D01*
X188779185Y-93590609D01*
X188779172Y-93590602D01*
X188633501Y-93530264D01*
X188633489Y-93530261D01*
X188478845Y-93499500D01*
X188478842Y-93499500D01*
X188321158Y-93499500D01*
X188321155Y-93499500D01*
X188166510Y-93530261D01*
X188166498Y-93530264D01*
X188020827Y-93590602D01*
X188020814Y-93590609D01*
X187889711Y-93678210D01*
X187889707Y-93678213D01*
X187778213Y-93789707D01*
X187778210Y-93789711D01*
X187690609Y-93920814D01*
X187690602Y-93920827D01*
X187630264Y-94066498D01*
X187630261Y-94066510D01*
X187599500Y-94221153D01*
X185350953Y-94221153D01*
X185309397Y-94120827D01*
X185309390Y-94120814D01*
X185221789Y-93989711D01*
X185221786Y-93989707D01*
X185110292Y-93878213D01*
X185110288Y-93878210D01*
X184979185Y-93790609D01*
X184979172Y-93790602D01*
X184833501Y-93730264D01*
X184833489Y-93730261D01*
X184678845Y-93699500D01*
X184678842Y-93699500D01*
X184521158Y-93699500D01*
X184521155Y-93699500D01*
X184366510Y-93730261D01*
X184366498Y-93730264D01*
X184220827Y-93790602D01*
X184220814Y-93790609D01*
X184089711Y-93878210D01*
X184089707Y-93878213D01*
X183978213Y-93989707D01*
X183978210Y-93989711D01*
X183890609Y-94120814D01*
X183890602Y-94120827D01*
X183830264Y-94266498D01*
X183830261Y-94266510D01*
X183799500Y-94421153D01*
X180772192Y-94421153D01*
X180778216Y-94390874D01*
X180778216Y-94390873D01*
X180800499Y-94278846D01*
X180800500Y-94278844D01*
X180800500Y-94121155D01*
X180800499Y-94121153D01*
X180774353Y-93989711D01*
X180769737Y-93966503D01*
X180742398Y-93900500D01*
X180709397Y-93820827D01*
X180709390Y-93820814D01*
X180621789Y-93689711D01*
X180621786Y-93689707D01*
X180510292Y-93578213D01*
X180510288Y-93578210D01*
X180379185Y-93490609D01*
X180379172Y-93490602D01*
X180233501Y-93430264D01*
X180233489Y-93430261D01*
X180078845Y-93399500D01*
X180078842Y-93399500D01*
X179921158Y-93399500D01*
X179921155Y-93399500D01*
X179766510Y-93430261D01*
X179766498Y-93430264D01*
X179620827Y-93490602D01*
X179620814Y-93490609D01*
X179489711Y-93578210D01*
X179489707Y-93578213D01*
X179378213Y-93689707D01*
X179378210Y-93689711D01*
X179290609Y-93820814D01*
X179290602Y-93820827D01*
X179230264Y-93966498D01*
X179230261Y-93966510D01*
X179199500Y-94121153D01*
X173251220Y-94121153D01*
X173280500Y-93936287D01*
X173280500Y-93723713D01*
X173247246Y-93513757D01*
X173181557Y-93311588D01*
X173085051Y-93122184D01*
X172975321Y-92971153D01*
X193199500Y-92971153D01*
X193199500Y-93128846D01*
X193230261Y-93283489D01*
X193230264Y-93283501D01*
X193290602Y-93429172D01*
X193290609Y-93429185D01*
X193378210Y-93560288D01*
X193378213Y-93560292D01*
X193489707Y-93671786D01*
X193489711Y-93671789D01*
X193620814Y-93759390D01*
X193620827Y-93759397D01*
X193766498Y-93819735D01*
X193766503Y-93819737D01*
X193921153Y-93850499D01*
X193921156Y-93850500D01*
X193921158Y-93850500D01*
X194078844Y-93850500D01*
X194078845Y-93850499D01*
X194233497Y-93819737D01*
X194379179Y-93759394D01*
X194510289Y-93671789D01*
X194621789Y-93560289D01*
X194709394Y-93429179D01*
X194769737Y-93283497D01*
X194800500Y-93128842D01*
X194800500Y-92971158D01*
X194800500Y-92971155D01*
X194800499Y-92971153D01*
X194779684Y-92866510D01*
X194769737Y-92816503D01*
X194711104Y-92674949D01*
X194709397Y-92670827D01*
X194709390Y-92670814D01*
X194621789Y-92539711D01*
X194621786Y-92539707D01*
X194510292Y-92428213D01*
X194510288Y-92428210D01*
X194379185Y-92340609D01*
X194379172Y-92340602D01*
X194233501Y-92280264D01*
X194233489Y-92280261D01*
X194078845Y-92249500D01*
X194078842Y-92249500D01*
X193921158Y-92249500D01*
X193921155Y-92249500D01*
X193766510Y-92280261D01*
X193766498Y-92280264D01*
X193620827Y-92340602D01*
X193620814Y-92340609D01*
X193489711Y-92428210D01*
X193489707Y-92428213D01*
X193378213Y-92539707D01*
X193378210Y-92539711D01*
X193290609Y-92670814D01*
X193290602Y-92670827D01*
X193230264Y-92816498D01*
X193230261Y-92816510D01*
X193199500Y-92971153D01*
X172975321Y-92971153D01*
X172960104Y-92950208D01*
X172809792Y-92799896D01*
X172809786Y-92799890D01*
X172637820Y-92674951D01*
X172448414Y-92578444D01*
X172448413Y-92578443D01*
X172448412Y-92578443D01*
X172246243Y-92512754D01*
X172246241Y-92512753D01*
X172246240Y-92512753D01*
X172084957Y-92487208D01*
X172036287Y-92479500D01*
X171823713Y-92479500D01*
X171775042Y-92487208D01*
X171613760Y-92512753D01*
X171411585Y-92578444D01*
X171222179Y-92674951D01*
X171050213Y-92799890D01*
X170899890Y-92950213D01*
X170774951Y-93122179D01*
X170678444Y-93311585D01*
X170612753Y-93513760D01*
X170579500Y-93723713D01*
X146580500Y-93723713D01*
X146547246Y-93513757D01*
X146481557Y-93311588D01*
X146385051Y-93122184D01*
X146385049Y-93122181D01*
X146385048Y-93122179D01*
X146260109Y-92950213D01*
X146109786Y-92799890D01*
X145937820Y-92674951D01*
X145748414Y-92578444D01*
X145748413Y-92578443D01*
X145748412Y-92578443D01*
X145546243Y-92512754D01*
X145546241Y-92512753D01*
X145546240Y-92512753D01*
X145384957Y-92487208D01*
X145336287Y-92479500D01*
X145123713Y-92479500D01*
X145075042Y-92487208D01*
X144913760Y-92512753D01*
X144711585Y-92578444D01*
X144522179Y-92674951D01*
X144350213Y-92799890D01*
X144199890Y-92950213D01*
X144074951Y-93122179D01*
X143978444Y-93311585D01*
X143912753Y-93513760D01*
X143879500Y-93723713D01*
X137307410Y-93723713D01*
X137310289Y-93721789D01*
X137353868Y-93678210D01*
X137400919Y-93631160D01*
X137421786Y-93610292D01*
X137421789Y-93610289D01*
X137509394Y-93479179D01*
X137527653Y-93435095D01*
X137571493Y-93380694D01*
X137637787Y-93358629D01*
X137705486Y-93375908D01*
X137711105Y-93379448D01*
X137800814Y-93439390D01*
X137800827Y-93439397D01*
X137924466Y-93490609D01*
X137946503Y-93499737D01*
X138099967Y-93530263D01*
X138101153Y-93530499D01*
X138101156Y-93530500D01*
X138101158Y-93530500D01*
X138258844Y-93530500D01*
X138258845Y-93530499D01*
X138413497Y-93499737D01*
X138559179Y-93439394D01*
X138690289Y-93351789D01*
X138801789Y-93240289D01*
X138889394Y-93109179D01*
X138949737Y-92963497D01*
X138980500Y-92808842D01*
X138980500Y-92651158D01*
X138980500Y-92651155D01*
X138980499Y-92651153D01*
X138968277Y-92589711D01*
X138949737Y-92496503D01*
X138921450Y-92428211D01*
X138889397Y-92350827D01*
X138889390Y-92350814D01*
X138801789Y-92219711D01*
X138801786Y-92219707D01*
X138690292Y-92108213D01*
X138690288Y-92108210D01*
X138559185Y-92020609D01*
X138559172Y-92020602D01*
X138413501Y-91960264D01*
X138413489Y-91960261D01*
X138258845Y-91929500D01*
X138258842Y-91929500D01*
X138101158Y-91929500D01*
X138101155Y-91929500D01*
X137946510Y-91960261D01*
X137946498Y-91960264D01*
X137800827Y-92020602D01*
X137800814Y-92020609D01*
X137669711Y-92108210D01*
X137669707Y-92108213D01*
X137558213Y-92219707D01*
X137558210Y-92219711D01*
X137470609Y-92350814D01*
X137470601Y-92350829D01*
X137452345Y-92394903D01*
X137408504Y-92449306D01*
X137342209Y-92471370D01*
X137274510Y-92454090D01*
X137268894Y-92450551D01*
X137179185Y-92390609D01*
X137179172Y-92390602D01*
X137033501Y-92330264D01*
X137033489Y-92330261D01*
X136878845Y-92299500D01*
X136878842Y-92299500D01*
X136721158Y-92299500D01*
X136721155Y-92299500D01*
X136566510Y-92330261D01*
X136566498Y-92330264D01*
X136420827Y-92390602D01*
X136420814Y-92390609D01*
X136289711Y-92478210D01*
X136289707Y-92478213D01*
X136178213Y-92589707D01*
X136178210Y-92589711D01*
X136090609Y-92720814D01*
X136090602Y-92720827D01*
X136030264Y-92866498D01*
X136030261Y-92866510D01*
X135999500Y-93021153D01*
X116600500Y-93021153D01*
X116600500Y-90821153D01*
X180299500Y-90821153D01*
X180299500Y-90978846D01*
X180330261Y-91133489D01*
X180330264Y-91133501D01*
X180390602Y-91279172D01*
X180390609Y-91279185D01*
X180478210Y-91410288D01*
X180478213Y-91410292D01*
X180589707Y-91521786D01*
X180589711Y-91521789D01*
X180720814Y-91609390D01*
X180720827Y-91609397D01*
X180866498Y-91669735D01*
X180866503Y-91669737D01*
X181021153Y-91700499D01*
X181021156Y-91700500D01*
X181021158Y-91700500D01*
X181178844Y-91700500D01*
X181178845Y-91700499D01*
X181333497Y-91669737D01*
X181479179Y-91609394D01*
X181610289Y-91521789D01*
X181721789Y-91410289D01*
X181809394Y-91279179D01*
X181869737Y-91133497D01*
X181892083Y-91021158D01*
X181892084Y-91021153D01*
X188699500Y-91021153D01*
X188699500Y-91178846D01*
X188730261Y-91333489D01*
X188730264Y-91333501D01*
X188790602Y-91479172D01*
X188790609Y-91479185D01*
X188878210Y-91610288D01*
X188878213Y-91610292D01*
X188989707Y-91721786D01*
X188989711Y-91721789D01*
X189120814Y-91809390D01*
X189120827Y-91809397D01*
X189266498Y-91869735D01*
X189266503Y-91869737D01*
X189421153Y-91900499D01*
X189421156Y-91900500D01*
X189421158Y-91900500D01*
X189578844Y-91900500D01*
X189578845Y-91900499D01*
X189733497Y-91869737D01*
X189879179Y-91809394D01*
X190010289Y-91721789D01*
X190121789Y-91610289D01*
X190209394Y-91479179D01*
X190269737Y-91333497D01*
X190300500Y-91178842D01*
X190300500Y-91021158D01*
X190300500Y-91021155D01*
X190300499Y-91021153D01*
X190294476Y-90990874D01*
X190269737Y-90866503D01*
X190250955Y-90821158D01*
X190209397Y-90720827D01*
X190209390Y-90720814D01*
X190121789Y-90589711D01*
X190121786Y-90589707D01*
X190010292Y-90478213D01*
X190010288Y-90478210D01*
X189879185Y-90390609D01*
X189879172Y-90390602D01*
X189733501Y-90330264D01*
X189733489Y-90330261D01*
X189578845Y-90299500D01*
X189578842Y-90299500D01*
X189421158Y-90299500D01*
X189421155Y-90299500D01*
X189266510Y-90330261D01*
X189266498Y-90330264D01*
X189120827Y-90390602D01*
X189120814Y-90390609D01*
X188989711Y-90478210D01*
X188989707Y-90478213D01*
X188878213Y-90589707D01*
X188878210Y-90589711D01*
X188790609Y-90720814D01*
X188790602Y-90720827D01*
X188730264Y-90866498D01*
X188730261Y-90866510D01*
X188699500Y-91021153D01*
X181892084Y-91021153D01*
X181898107Y-90990875D01*
X181898107Y-90990874D01*
X181900500Y-90978844D01*
X181900500Y-90821155D01*
X181900499Y-90821153D01*
X181880543Y-90720827D01*
X181869737Y-90666503D01*
X181837929Y-90589711D01*
X181809397Y-90520827D01*
X181809390Y-90520814D01*
X181721789Y-90389711D01*
X181721786Y-90389707D01*
X181610292Y-90278213D01*
X181610288Y-90278210D01*
X181479185Y-90190609D01*
X181479172Y-90190602D01*
X181333501Y-90130264D01*
X181333489Y-90130261D01*
X181178845Y-90099500D01*
X181178842Y-90099500D01*
X181021158Y-90099500D01*
X181021155Y-90099500D01*
X180866510Y-90130261D01*
X180866498Y-90130264D01*
X180720827Y-90190602D01*
X180720814Y-90190609D01*
X180589711Y-90278210D01*
X180589707Y-90278213D01*
X180478213Y-90389707D01*
X180478210Y-90389711D01*
X180390609Y-90520814D01*
X180390602Y-90520827D01*
X180330264Y-90666498D01*
X180330261Y-90666510D01*
X180299500Y-90821153D01*
X116600500Y-90821153D01*
X116600500Y-89321153D01*
X135299500Y-89321153D01*
X135299500Y-89478846D01*
X135330261Y-89633489D01*
X135330264Y-89633501D01*
X135390602Y-89779172D01*
X135390609Y-89779185D01*
X135478210Y-89910288D01*
X135478213Y-89910292D01*
X135589707Y-90021786D01*
X135589711Y-90021789D01*
X135720814Y-90109390D01*
X135720827Y-90109397D01*
X135866498Y-90169735D01*
X135866503Y-90169737D01*
X136021153Y-90200499D01*
X136021156Y-90200500D01*
X136021158Y-90200500D01*
X136178844Y-90200500D01*
X136178845Y-90200499D01*
X136333497Y-90169737D01*
X136479179Y-90109394D01*
X136610289Y-90021789D01*
X136721789Y-89910289D01*
X136809394Y-89779179D01*
X136869737Y-89633497D01*
X136900500Y-89478842D01*
X136900500Y-89321158D01*
X136900500Y-89321155D01*
X136900499Y-89321153D01*
X136880734Y-89221789D01*
X136869737Y-89166503D01*
X136842398Y-89100500D01*
X136809397Y-89020827D01*
X136809390Y-89020814D01*
X136721789Y-88889711D01*
X136721786Y-88889707D01*
X136610292Y-88778213D01*
X136610288Y-88778210D01*
X136479185Y-88690609D01*
X136479172Y-88690602D01*
X136333501Y-88630264D01*
X136333489Y-88630261D01*
X136178845Y-88599500D01*
X136178842Y-88599500D01*
X136021158Y-88599500D01*
X136021155Y-88599500D01*
X135866510Y-88630261D01*
X135866498Y-88630264D01*
X135720827Y-88690602D01*
X135720814Y-88690609D01*
X135589711Y-88778210D01*
X135589707Y-88778213D01*
X135478213Y-88889707D01*
X135478210Y-88889711D01*
X135390609Y-89020814D01*
X135390602Y-89020827D01*
X135330264Y-89166498D01*
X135330261Y-89166510D01*
X135299500Y-89321153D01*
X116600500Y-89321153D01*
X116600500Y-88521153D01*
X165599500Y-88521153D01*
X165599500Y-88678846D01*
X165630261Y-88833489D01*
X165630264Y-88833501D01*
X165690602Y-88979172D01*
X165690609Y-88979185D01*
X165778210Y-89110288D01*
X165778213Y-89110292D01*
X165889707Y-89221786D01*
X165889711Y-89221789D01*
X166020814Y-89309390D01*
X166020827Y-89309397D01*
X166166498Y-89369735D01*
X166166503Y-89369737D01*
X166321153Y-89400499D01*
X166321156Y-89400500D01*
X166321158Y-89400500D01*
X166478844Y-89400500D01*
X166478845Y-89400499D01*
X166633497Y-89369737D01*
X166779179Y-89309394D01*
X166910289Y-89221789D01*
X167021789Y-89110289D01*
X167109394Y-88979179D01*
X167169737Y-88833497D01*
X167200500Y-88678842D01*
X167200500Y-88521158D01*
X167200500Y-88521155D01*
X167200499Y-88521153D01*
X167172192Y-88378846D01*
X167169737Y-88366503D01*
X167109534Y-88221158D01*
X167109532Y-88221153D01*
X193499500Y-88221153D01*
X193499500Y-88378846D01*
X193530261Y-88533489D01*
X193530264Y-88533501D01*
X193590602Y-88679172D01*
X193590609Y-88679185D01*
X193678210Y-88810288D01*
X193678213Y-88810292D01*
X193789707Y-88921786D01*
X193789711Y-88921789D01*
X193920814Y-89009390D01*
X193920827Y-89009397D01*
X194066498Y-89069735D01*
X194066503Y-89069737D01*
X194221153Y-89100499D01*
X194221156Y-89100500D01*
X194221158Y-89100500D01*
X194378844Y-89100500D01*
X194378845Y-89100499D01*
X194533497Y-89069737D01*
X194651592Y-89020821D01*
X194679172Y-89009397D01*
X194679172Y-89009396D01*
X194679179Y-89009394D01*
X194810289Y-88921789D01*
X194921789Y-88810289D01*
X195009394Y-88679179D01*
X195069737Y-88533497D01*
X195100500Y-88378842D01*
X195100500Y-88221158D01*
X195100500Y-88221155D01*
X195100499Y-88221153D01*
X195078269Y-88109397D01*
X195069737Y-88066503D01*
X195051215Y-88021786D01*
X195009397Y-87920827D01*
X195009390Y-87920814D01*
X194921789Y-87789711D01*
X194921786Y-87789707D01*
X194810292Y-87678213D01*
X194810288Y-87678210D01*
X194679185Y-87590609D01*
X194679172Y-87590602D01*
X194533501Y-87530264D01*
X194533489Y-87530261D01*
X194378845Y-87499500D01*
X194378842Y-87499500D01*
X194221158Y-87499500D01*
X194221155Y-87499500D01*
X194066510Y-87530261D01*
X194066498Y-87530264D01*
X193920827Y-87590602D01*
X193920814Y-87590609D01*
X193789711Y-87678210D01*
X193789707Y-87678213D01*
X193678213Y-87789707D01*
X193678210Y-87789711D01*
X193590609Y-87920814D01*
X193590602Y-87920827D01*
X193530264Y-88066498D01*
X193530261Y-88066510D01*
X193499500Y-88221153D01*
X167109532Y-88221153D01*
X167109397Y-88220827D01*
X167109390Y-88220814D01*
X167021789Y-88089711D01*
X167021786Y-88089707D01*
X166910292Y-87978213D01*
X166910288Y-87978210D01*
X166779185Y-87890609D01*
X166779172Y-87890602D01*
X166633501Y-87830264D01*
X166633489Y-87830261D01*
X166478845Y-87799500D01*
X166478842Y-87799500D01*
X166321158Y-87799500D01*
X166321155Y-87799500D01*
X166166510Y-87830261D01*
X166166498Y-87830264D01*
X166020827Y-87890602D01*
X166020814Y-87890609D01*
X165889711Y-87978210D01*
X165889707Y-87978213D01*
X165778213Y-88089707D01*
X165778210Y-88089711D01*
X165690609Y-88220814D01*
X165690602Y-88220827D01*
X165630264Y-88366498D01*
X165630261Y-88366510D01*
X165599500Y-88521153D01*
X116600500Y-88521153D01*
X116600500Y-87151153D01*
X129529500Y-87151153D01*
X129529500Y-87308846D01*
X129560261Y-87463489D01*
X129560264Y-87463501D01*
X129620602Y-87609172D01*
X129620609Y-87609185D01*
X129708210Y-87740288D01*
X129708213Y-87740292D01*
X129819707Y-87851786D01*
X129819711Y-87851789D01*
X129950814Y-87939390D01*
X129950827Y-87939397D01*
X130044534Y-87978211D01*
X130096503Y-87999737D01*
X130251153Y-88030499D01*
X130251156Y-88030500D01*
X130251158Y-88030500D01*
X130408844Y-88030500D01*
X130408845Y-88030499D01*
X130563497Y-87999737D01*
X130709179Y-87939394D01*
X130840289Y-87851789D01*
X130951789Y-87740289D01*
X131039394Y-87609179D01*
X131099737Y-87463497D01*
X131130500Y-87308842D01*
X131130500Y-87151158D01*
X131130500Y-87151155D01*
X131130499Y-87151153D01*
X131124658Y-87121789D01*
X131099737Y-86996503D01*
X131051143Y-86879185D01*
X131039397Y-86850827D01*
X131039390Y-86850814D01*
X130951789Y-86719711D01*
X130951786Y-86719707D01*
X130840292Y-86608213D01*
X130840288Y-86608210D01*
X130709185Y-86520609D01*
X130709172Y-86520602D01*
X130563501Y-86460264D01*
X130563489Y-86460261D01*
X130408845Y-86429500D01*
X130408842Y-86429500D01*
X130251158Y-86429500D01*
X130251155Y-86429500D01*
X130096510Y-86460261D01*
X130096498Y-86460264D01*
X129950827Y-86520602D01*
X129950814Y-86520609D01*
X129819711Y-86608210D01*
X129819707Y-86608213D01*
X129708213Y-86719707D01*
X129708210Y-86719711D01*
X129620609Y-86850814D01*
X129620602Y-86850827D01*
X129560264Y-86996498D01*
X129560261Y-86996510D01*
X129529500Y-87151153D01*
X116600500Y-87151153D01*
X116600500Y-85251153D01*
X125129500Y-85251153D01*
X125129500Y-85408846D01*
X125160261Y-85563489D01*
X125160264Y-85563501D01*
X125220602Y-85709172D01*
X125220609Y-85709185D01*
X125308210Y-85840288D01*
X125308213Y-85840292D01*
X125419707Y-85951786D01*
X125419711Y-85951789D01*
X125550814Y-86039390D01*
X125550827Y-86039397D01*
X125646062Y-86078844D01*
X125696503Y-86099737D01*
X125851153Y-86130499D01*
X125851156Y-86130500D01*
X125851158Y-86130500D01*
X126008844Y-86130500D01*
X126008845Y-86130499D01*
X126163497Y-86099737D01*
X126309179Y-86039394D01*
X126440289Y-85951789D01*
X126551789Y-85840289D01*
X126639394Y-85709179D01*
X126699737Y-85563497D01*
X126730500Y-85408842D01*
X126730500Y-85251158D01*
X126730500Y-85251155D01*
X126730499Y-85251153D01*
X126722897Y-85212935D01*
X126699737Y-85096503D01*
X126692423Y-85078846D01*
X126639397Y-84950827D01*
X126639390Y-84950814D01*
X126551789Y-84819711D01*
X126551786Y-84819707D01*
X126440292Y-84708213D01*
X126440288Y-84708210D01*
X126354897Y-84651153D01*
X131029500Y-84651153D01*
X131029500Y-84808846D01*
X131060261Y-84963489D01*
X131060264Y-84963501D01*
X131120602Y-85109172D01*
X131120609Y-85109185D01*
X131155304Y-85161109D01*
X131176182Y-85227786D01*
X131157698Y-85295167D01*
X131155304Y-85298891D01*
X131120609Y-85350814D01*
X131120602Y-85350827D01*
X131060264Y-85496498D01*
X131060261Y-85496510D01*
X131029500Y-85651153D01*
X131029500Y-85808846D01*
X131060261Y-85963489D01*
X131060264Y-85963501D01*
X131120602Y-86109172D01*
X131120609Y-86109185D01*
X131208210Y-86240288D01*
X131208213Y-86240292D01*
X131319707Y-86351786D01*
X131319711Y-86351789D01*
X131450814Y-86439390D01*
X131450827Y-86439397D01*
X131596498Y-86499735D01*
X131596503Y-86499737D01*
X131751153Y-86530499D01*
X131751156Y-86530500D01*
X131751158Y-86530500D01*
X131908844Y-86530500D01*
X131908845Y-86530499D01*
X131955831Y-86521153D01*
X166399500Y-86521153D01*
X166399500Y-86678846D01*
X166430261Y-86833489D01*
X166430264Y-86833501D01*
X166490602Y-86979172D01*
X166490609Y-86979185D01*
X166578210Y-87110288D01*
X166578213Y-87110292D01*
X166689707Y-87221786D01*
X166689711Y-87221789D01*
X166820814Y-87309390D01*
X166820827Y-87309397D01*
X166966498Y-87369735D01*
X166966503Y-87369737D01*
X167121153Y-87400499D01*
X167121156Y-87400500D01*
X167121158Y-87400500D01*
X167278844Y-87400500D01*
X167278845Y-87400499D01*
X167433497Y-87369737D01*
X167550790Y-87321153D01*
X171599500Y-87321153D01*
X171599500Y-87478846D01*
X171630261Y-87633489D01*
X171630264Y-87633501D01*
X171690602Y-87779172D01*
X171690609Y-87779185D01*
X171778210Y-87910288D01*
X171778213Y-87910292D01*
X171889707Y-88021786D01*
X171889711Y-88021789D01*
X172020814Y-88109390D01*
X172020827Y-88109397D01*
X172166498Y-88169735D01*
X172166503Y-88169737D01*
X172321153Y-88200499D01*
X172321156Y-88200500D01*
X172321158Y-88200500D01*
X172478844Y-88200500D01*
X172478845Y-88200499D01*
X172633497Y-88169737D01*
X172779179Y-88109394D01*
X172910289Y-88021789D01*
X173021789Y-87910289D01*
X173109394Y-87779179D01*
X173169737Y-87633497D01*
X173200500Y-87478842D01*
X173200500Y-87321158D01*
X173200500Y-87321155D01*
X173200499Y-87321153D01*
X173180734Y-87221788D01*
X173169737Y-87166503D01*
X173146452Y-87110288D01*
X173109397Y-87020827D01*
X173109390Y-87020814D01*
X173021789Y-86889711D01*
X173021786Y-86889707D01*
X172910292Y-86778213D01*
X172910288Y-86778210D01*
X172779185Y-86690609D01*
X172779172Y-86690602D01*
X172633501Y-86630264D01*
X172633489Y-86630261D01*
X172478845Y-86599500D01*
X172478842Y-86599500D01*
X172321158Y-86599500D01*
X172321155Y-86599500D01*
X172166510Y-86630261D01*
X172166498Y-86630264D01*
X172020827Y-86690602D01*
X172020814Y-86690609D01*
X171889711Y-86778210D01*
X171889707Y-86778213D01*
X171778213Y-86889707D01*
X171778210Y-86889711D01*
X171690609Y-87020814D01*
X171690602Y-87020827D01*
X171630264Y-87166498D01*
X171630261Y-87166510D01*
X171599500Y-87321153D01*
X167550790Y-87321153D01*
X167579179Y-87309394D01*
X167710289Y-87221789D01*
X167821789Y-87110289D01*
X167909394Y-86979179D01*
X167969737Y-86833497D01*
X168000500Y-86678842D01*
X168000500Y-86521158D01*
X168000500Y-86521155D01*
X168000499Y-86521153D01*
X167988387Y-86460261D01*
X167969737Y-86366503D01*
X167928314Y-86266498D01*
X167909397Y-86220827D01*
X167909390Y-86220814D01*
X167821789Y-86089711D01*
X167821786Y-86089707D01*
X167710292Y-85978213D01*
X167710288Y-85978210D01*
X167624897Y-85921153D01*
X188699500Y-85921153D01*
X188699500Y-86078846D01*
X188730261Y-86233489D01*
X188730264Y-86233501D01*
X188790602Y-86379172D01*
X188790609Y-86379185D01*
X188878210Y-86510288D01*
X188878213Y-86510292D01*
X188989707Y-86621786D01*
X188989711Y-86621789D01*
X189120814Y-86709390D01*
X189120827Y-86709397D01*
X189266498Y-86769735D01*
X189266503Y-86769737D01*
X189421153Y-86800499D01*
X189421156Y-86800500D01*
X189421158Y-86800500D01*
X189578844Y-86800500D01*
X189578845Y-86800499D01*
X189733497Y-86769737D01*
X189879179Y-86709394D01*
X190010289Y-86621789D01*
X190121789Y-86510289D01*
X190181348Y-86421153D01*
X193999500Y-86421153D01*
X193999500Y-86578846D01*
X194030261Y-86733489D01*
X194030264Y-86733501D01*
X194090602Y-86879172D01*
X194090609Y-86879185D01*
X194178210Y-87010288D01*
X194178213Y-87010292D01*
X194289707Y-87121786D01*
X194289711Y-87121789D01*
X194420814Y-87209390D01*
X194420827Y-87209397D01*
X194566498Y-87269735D01*
X194566503Y-87269737D01*
X194721153Y-87300499D01*
X194721156Y-87300500D01*
X194721158Y-87300500D01*
X194878844Y-87300500D01*
X194878845Y-87300499D01*
X195033497Y-87269737D01*
X195152548Y-87220425D01*
X195222017Y-87212956D01*
X195247453Y-87220425D01*
X195366503Y-87269737D01*
X195521153Y-87300499D01*
X195521156Y-87300500D01*
X195521158Y-87300500D01*
X195678844Y-87300500D01*
X195678845Y-87300499D01*
X195833497Y-87269737D01*
X195979179Y-87209394D01*
X196110289Y-87121789D01*
X196221789Y-87010289D01*
X196309394Y-86879179D01*
X196369737Y-86733497D01*
X196400500Y-86578842D01*
X196400500Y-86421158D01*
X196400500Y-86421155D01*
X196400499Y-86421153D01*
X196389627Y-86366498D01*
X196369737Y-86266503D01*
X196358879Y-86240289D01*
X196309397Y-86120827D01*
X196309390Y-86120814D01*
X196221789Y-85989711D01*
X196221786Y-85989707D01*
X196110292Y-85878213D01*
X196110288Y-85878210D01*
X195979185Y-85790609D01*
X195979172Y-85790602D01*
X195833501Y-85730264D01*
X195833489Y-85730261D01*
X195678845Y-85699500D01*
X195678842Y-85699500D01*
X195521158Y-85699500D01*
X195521155Y-85699500D01*
X195366510Y-85730261D01*
X195366498Y-85730264D01*
X195247452Y-85779574D01*
X195177982Y-85787043D01*
X195152548Y-85779574D01*
X195033501Y-85730264D01*
X195033489Y-85730261D01*
X194878845Y-85699500D01*
X194878842Y-85699500D01*
X194721158Y-85699500D01*
X194721155Y-85699500D01*
X194566510Y-85730261D01*
X194566498Y-85730264D01*
X194420827Y-85790602D01*
X194420814Y-85790609D01*
X194289711Y-85878210D01*
X194289707Y-85878213D01*
X194178213Y-85989707D01*
X194178210Y-85989711D01*
X194090609Y-86120814D01*
X194090602Y-86120827D01*
X194030264Y-86266498D01*
X194030261Y-86266510D01*
X193999500Y-86421153D01*
X190181348Y-86421153D01*
X190209394Y-86379179D01*
X190269737Y-86233497D01*
X190300500Y-86078842D01*
X190300500Y-85921158D01*
X190300500Y-85921155D01*
X190300499Y-85921153D01*
X190291957Y-85878210D01*
X190269737Y-85766503D01*
X190269735Y-85766498D01*
X190209397Y-85620827D01*
X190209390Y-85620814D01*
X190121789Y-85489711D01*
X190121786Y-85489707D01*
X190010292Y-85378213D01*
X190010288Y-85378210D01*
X189879185Y-85290609D01*
X189879172Y-85290602D01*
X189733501Y-85230264D01*
X189733489Y-85230261D01*
X189578845Y-85199500D01*
X189578842Y-85199500D01*
X189421158Y-85199500D01*
X189421155Y-85199500D01*
X189266510Y-85230261D01*
X189266498Y-85230264D01*
X189120827Y-85290602D01*
X189120814Y-85290609D01*
X188989711Y-85378210D01*
X188989707Y-85378213D01*
X188878213Y-85489707D01*
X188878210Y-85489711D01*
X188790609Y-85620814D01*
X188790602Y-85620827D01*
X188730264Y-85766498D01*
X188730261Y-85766510D01*
X188699500Y-85921153D01*
X167624897Y-85921153D01*
X167579185Y-85890609D01*
X167579172Y-85890602D01*
X167433501Y-85830264D01*
X167433489Y-85830261D01*
X167278845Y-85799500D01*
X167278842Y-85799500D01*
X167121158Y-85799500D01*
X167121155Y-85799500D01*
X166966510Y-85830261D01*
X166966498Y-85830264D01*
X166820827Y-85890602D01*
X166820814Y-85890609D01*
X166689711Y-85978210D01*
X166689707Y-85978213D01*
X166578213Y-86089707D01*
X166578210Y-86089711D01*
X166490609Y-86220814D01*
X166490602Y-86220827D01*
X166430264Y-86366498D01*
X166430261Y-86366510D01*
X166399500Y-86521153D01*
X131955831Y-86521153D01*
X132063497Y-86499737D01*
X132209179Y-86439394D01*
X132209185Y-86439390D01*
X132250232Y-86411964D01*
X132299307Y-86379172D01*
X132340289Y-86351789D01*
X132451789Y-86240289D01*
X132539394Y-86109179D01*
X132599737Y-85963497D01*
X132630500Y-85808842D01*
X132630500Y-85651158D01*
X132630500Y-85651155D01*
X132630499Y-85651153D01*
X132624658Y-85621789D01*
X132599737Y-85496503D01*
X132551140Y-85379179D01*
X132539396Y-85350825D01*
X132539394Y-85350822D01*
X132539394Y-85350821D01*
X132504694Y-85298889D01*
X132498720Y-85279812D01*
X132488214Y-85262803D01*
X132488493Y-85247152D01*
X132483816Y-85232215D01*
X132486850Y-85221153D01*
X136499500Y-85221153D01*
X136499500Y-85378846D01*
X136530261Y-85533489D01*
X136530264Y-85533501D01*
X136590602Y-85679172D01*
X136590609Y-85679185D01*
X136678210Y-85810288D01*
X136678213Y-85810292D01*
X136789707Y-85921786D01*
X136789711Y-85921789D01*
X136920814Y-86009390D01*
X136920827Y-86009397D01*
X137066498Y-86069735D01*
X137066503Y-86069737D01*
X137217312Y-86099735D01*
X137221153Y-86100499D01*
X137221156Y-86100500D01*
X137221158Y-86100500D01*
X137378844Y-86100500D01*
X137378845Y-86100499D01*
X137533497Y-86069737D01*
X137679179Y-86009394D01*
X137810289Y-85921789D01*
X137921789Y-85810289D01*
X138009394Y-85679179D01*
X138069737Y-85533497D01*
X138100500Y-85378842D01*
X138100500Y-85221158D01*
X138100500Y-85221155D01*
X138100499Y-85221153D01*
X138089892Y-85167829D01*
X138069737Y-85066503D01*
X138027073Y-84963501D01*
X138026666Y-84962518D01*
X138009532Y-84921153D01*
X165399500Y-84921153D01*
X165399500Y-85078846D01*
X165430261Y-85233489D01*
X165430264Y-85233501D01*
X165490602Y-85379172D01*
X165490609Y-85379185D01*
X165578210Y-85510288D01*
X165578213Y-85510292D01*
X165689707Y-85621786D01*
X165689711Y-85621789D01*
X165820814Y-85709390D01*
X165820827Y-85709397D01*
X165958683Y-85766498D01*
X165966503Y-85769737D01*
X166116131Y-85799500D01*
X166121153Y-85800499D01*
X166121156Y-85800500D01*
X166121158Y-85800500D01*
X166278844Y-85800500D01*
X166278845Y-85800499D01*
X166433497Y-85769737D01*
X166579179Y-85709394D01*
X166710289Y-85621789D01*
X166821789Y-85510289D01*
X166909394Y-85379179D01*
X166969737Y-85233497D01*
X167000500Y-85078842D01*
X167000500Y-84921158D01*
X167000500Y-84921155D01*
X167000499Y-84921153D01*
X166980320Y-84819707D01*
X166969737Y-84766503D01*
X166945592Y-84708211D01*
X166909397Y-84620827D01*
X166909390Y-84620814D01*
X166821789Y-84489711D01*
X166821786Y-84489707D01*
X166710292Y-84378213D01*
X166710288Y-84378210D01*
X166579185Y-84290609D01*
X166579172Y-84290602D01*
X166433501Y-84230264D01*
X166433489Y-84230261D01*
X166278845Y-84199500D01*
X166278842Y-84199500D01*
X166121158Y-84199500D01*
X166121155Y-84199500D01*
X165966510Y-84230261D01*
X165966498Y-84230264D01*
X165820827Y-84290602D01*
X165820814Y-84290609D01*
X165689711Y-84378210D01*
X165689707Y-84378213D01*
X165578213Y-84489707D01*
X165578210Y-84489711D01*
X165490609Y-84620814D01*
X165490602Y-84620827D01*
X165430264Y-84766498D01*
X165430261Y-84766510D01*
X165399500Y-84921153D01*
X138009532Y-84921153D01*
X138009395Y-84920823D01*
X138009390Y-84920814D01*
X137921789Y-84789711D01*
X137921786Y-84789707D01*
X137810292Y-84678213D01*
X137810288Y-84678210D01*
X137679185Y-84590609D01*
X137679172Y-84590602D01*
X137533501Y-84530264D01*
X137533489Y-84530261D01*
X137378845Y-84499500D01*
X137378842Y-84499500D01*
X137221158Y-84499500D01*
X137221155Y-84499500D01*
X137066510Y-84530261D01*
X137066498Y-84530264D01*
X136920827Y-84590602D01*
X136920814Y-84590609D01*
X136789711Y-84678210D01*
X136789707Y-84678213D01*
X136678213Y-84789707D01*
X136678210Y-84789711D01*
X136590609Y-84920814D01*
X136590602Y-84920827D01*
X136530264Y-85066498D01*
X136530261Y-85066510D01*
X136499500Y-85221153D01*
X132486850Y-85221153D01*
X132489104Y-85212935D01*
X132489462Y-85192945D01*
X132501478Y-85167829D01*
X132502300Y-85164835D01*
X132504660Y-85161161D01*
X132539394Y-85109179D01*
X132599737Y-84963497D01*
X132630500Y-84808842D01*
X132630500Y-84651158D01*
X132630500Y-84651155D01*
X132630499Y-84651153D01*
X132624467Y-84620827D01*
X132599737Y-84496503D01*
X132550740Y-84378213D01*
X132539397Y-84350827D01*
X132539390Y-84350814D01*
X132451789Y-84219711D01*
X132451786Y-84219707D01*
X132340292Y-84108213D01*
X132340288Y-84108210D01*
X132209185Y-84020609D01*
X132209172Y-84020602D01*
X132063501Y-83960264D01*
X132063489Y-83960261D01*
X131908845Y-83929500D01*
X131908842Y-83929500D01*
X131751158Y-83929500D01*
X131751155Y-83929500D01*
X131596510Y-83960261D01*
X131596498Y-83960264D01*
X131450827Y-84020602D01*
X131450814Y-84020609D01*
X131319711Y-84108210D01*
X131319707Y-84108213D01*
X131208213Y-84219707D01*
X131208210Y-84219711D01*
X131120609Y-84350814D01*
X131120602Y-84350827D01*
X131060264Y-84496498D01*
X131060261Y-84496510D01*
X131029500Y-84651153D01*
X126354897Y-84651153D01*
X126309185Y-84620609D01*
X126309172Y-84620602D01*
X126163501Y-84560264D01*
X126163489Y-84560261D01*
X126008845Y-84529500D01*
X126008842Y-84529500D01*
X125851158Y-84529500D01*
X125851155Y-84529500D01*
X125696510Y-84560261D01*
X125696498Y-84560264D01*
X125550827Y-84620602D01*
X125550814Y-84620609D01*
X125419711Y-84708210D01*
X125419707Y-84708213D01*
X125308213Y-84819707D01*
X125308210Y-84819711D01*
X125220609Y-84950814D01*
X125220602Y-84950827D01*
X125160264Y-85096498D01*
X125160261Y-85096510D01*
X125129500Y-85251153D01*
X116600500Y-85251153D01*
X116600500Y-81551153D01*
X125129500Y-81551153D01*
X125129500Y-81708846D01*
X125160261Y-81863489D01*
X125160264Y-81863501D01*
X125220602Y-82009172D01*
X125220609Y-82009185D01*
X125308210Y-82140288D01*
X125308213Y-82140292D01*
X125419707Y-82251786D01*
X125419711Y-82251789D01*
X125550814Y-82339390D01*
X125550827Y-82339397D01*
X125646062Y-82378844D01*
X125696503Y-82399737D01*
X125849967Y-82430263D01*
X125851153Y-82430499D01*
X125851156Y-82430500D01*
X125851158Y-82430500D01*
X126008844Y-82430500D01*
X126008845Y-82430499D01*
X126055831Y-82421153D01*
X127799500Y-82421153D01*
X127799500Y-82578846D01*
X127830261Y-82733489D01*
X127830264Y-82733501D01*
X127890602Y-82879172D01*
X127890609Y-82879185D01*
X127978210Y-83010288D01*
X127978213Y-83010292D01*
X128089707Y-83121786D01*
X128089711Y-83121789D01*
X128220814Y-83209390D01*
X128220827Y-83209397D01*
X128366498Y-83269735D01*
X128366503Y-83269737D01*
X128521153Y-83300499D01*
X128521156Y-83300500D01*
X128521158Y-83300500D01*
X128678844Y-83300500D01*
X128678845Y-83300499D01*
X128833497Y-83269737D01*
X128979179Y-83209394D01*
X129110289Y-83121789D01*
X129221789Y-83010289D01*
X129309394Y-82879179D01*
X129369737Y-82733497D01*
X129400500Y-82578842D01*
X129400500Y-82421158D01*
X129400500Y-82421155D01*
X129400499Y-82421153D01*
X129396192Y-82399500D01*
X129369737Y-82266503D01*
X129350955Y-82221158D01*
X129350953Y-82221153D01*
X136399500Y-82221153D01*
X136399500Y-82378846D01*
X136430261Y-82533489D01*
X136430264Y-82533501D01*
X136490602Y-82679172D01*
X136490609Y-82679185D01*
X136578210Y-82810288D01*
X136578213Y-82810292D01*
X136689707Y-82921786D01*
X136689711Y-82921789D01*
X136820814Y-83009390D01*
X136820827Y-83009397D01*
X136961370Y-83067611D01*
X136966503Y-83069737D01*
X137121153Y-83100499D01*
X137121156Y-83100500D01*
X137121158Y-83100500D01*
X137278844Y-83100500D01*
X137278845Y-83100499D01*
X137433497Y-83069737D01*
X137579179Y-83009394D01*
X137710289Y-82921789D01*
X137821789Y-82810289D01*
X137909394Y-82679179D01*
X137969737Y-82533497D01*
X138000500Y-82378842D01*
X138000500Y-82321153D01*
X151799500Y-82321153D01*
X151799500Y-82478846D01*
X151830261Y-82633489D01*
X151830264Y-82633501D01*
X151890602Y-82779172D01*
X151890609Y-82779185D01*
X151978210Y-82910288D01*
X151978213Y-82910292D01*
X152089707Y-83021786D01*
X152089711Y-83021789D01*
X152220814Y-83109390D01*
X152220827Y-83109397D01*
X152366498Y-83169735D01*
X152366503Y-83169737D01*
X152521153Y-83200499D01*
X152521156Y-83200500D01*
X152521158Y-83200500D01*
X152678844Y-83200500D01*
X152678845Y-83200499D01*
X152833497Y-83169737D01*
X152979179Y-83109394D01*
X153110289Y-83021789D01*
X153221789Y-82910289D01*
X153309394Y-82779179D01*
X153369737Y-82633497D01*
X153400500Y-82478842D01*
X153400500Y-82321158D01*
X153400500Y-82321155D01*
X153400499Y-82321153D01*
X161599500Y-82321153D01*
X161599500Y-82478846D01*
X161630261Y-82633489D01*
X161630264Y-82633501D01*
X161690602Y-82779172D01*
X161690609Y-82779185D01*
X161778210Y-82910288D01*
X161778213Y-82910292D01*
X161889707Y-83021786D01*
X161889711Y-83021789D01*
X162020814Y-83109390D01*
X162020827Y-83109397D01*
X162166498Y-83169735D01*
X162166503Y-83169737D01*
X162321153Y-83200499D01*
X162321156Y-83200500D01*
X162321158Y-83200500D01*
X162478844Y-83200500D01*
X162478845Y-83200499D01*
X162633497Y-83169737D01*
X162779179Y-83109394D01*
X162910289Y-83021789D01*
X163021789Y-82910289D01*
X163109394Y-82779179D01*
X163169737Y-82633497D01*
X163172192Y-82621153D01*
X166099500Y-82621153D01*
X166099500Y-82778846D01*
X166130261Y-82933489D01*
X166130264Y-82933501D01*
X166190602Y-83079172D01*
X166190609Y-83079185D01*
X166278210Y-83210288D01*
X166278213Y-83210292D01*
X166389707Y-83321786D01*
X166389711Y-83321789D01*
X166520814Y-83409390D01*
X166520827Y-83409397D01*
X166666498Y-83469735D01*
X166666503Y-83469737D01*
X166821153Y-83500499D01*
X166821156Y-83500500D01*
X166821158Y-83500500D01*
X166978844Y-83500500D01*
X166978845Y-83500499D01*
X167133497Y-83469737D01*
X167279179Y-83409394D01*
X167410289Y-83321789D01*
X167521789Y-83210289D01*
X167581348Y-83121153D01*
X192699500Y-83121153D01*
X192699500Y-83278846D01*
X192730261Y-83433489D01*
X192730264Y-83433501D01*
X192790602Y-83579172D01*
X192790609Y-83579185D01*
X192878210Y-83710288D01*
X192878213Y-83710292D01*
X192989707Y-83821786D01*
X192989711Y-83821789D01*
X193120814Y-83909390D01*
X193120827Y-83909397D01*
X193243633Y-83960264D01*
X193266503Y-83969737D01*
X193421153Y-84000499D01*
X193421156Y-84000500D01*
X193421158Y-84000500D01*
X193578844Y-84000500D01*
X193578845Y-84000499D01*
X193733497Y-83969737D01*
X193879179Y-83909394D01*
X194010289Y-83821789D01*
X194121789Y-83710289D01*
X194209394Y-83579179D01*
X194269737Y-83433497D01*
X194300500Y-83278842D01*
X194300500Y-83121158D01*
X194300500Y-83121155D01*
X194300499Y-83121153D01*
X194280734Y-83021789D01*
X194269737Y-82966503D01*
X194233569Y-82879185D01*
X194209397Y-82820827D01*
X194209390Y-82820814D01*
X194121789Y-82689711D01*
X194121786Y-82689707D01*
X194010292Y-82578213D01*
X194010288Y-82578210D01*
X193879185Y-82490609D01*
X193879172Y-82490602D01*
X193733501Y-82430264D01*
X193733489Y-82430261D01*
X193578845Y-82399500D01*
X193578842Y-82399500D01*
X193421158Y-82399500D01*
X193421155Y-82399500D01*
X193266510Y-82430261D01*
X193266498Y-82430264D01*
X193120827Y-82490602D01*
X193120814Y-82490609D01*
X192989711Y-82578210D01*
X192989707Y-82578213D01*
X192878213Y-82689707D01*
X192878210Y-82689711D01*
X192790609Y-82820814D01*
X192790602Y-82820827D01*
X192730264Y-82966498D01*
X192730261Y-82966510D01*
X192699500Y-83121153D01*
X167581348Y-83121153D01*
X167609394Y-83079179D01*
X167669737Y-82933497D01*
X167700500Y-82778842D01*
X167700500Y-82621158D01*
X167700500Y-82621155D01*
X167700499Y-82621153D01*
X167694476Y-82590873D01*
X167669737Y-82466503D01*
X167654824Y-82430499D01*
X167609397Y-82320827D01*
X167609390Y-82320814D01*
X167521789Y-82189711D01*
X167521786Y-82189707D01*
X167410292Y-82078213D01*
X167410288Y-82078210D01*
X167279185Y-81990609D01*
X167279172Y-81990602D01*
X167133501Y-81930264D01*
X167133489Y-81930261D01*
X166978845Y-81899500D01*
X166978842Y-81899500D01*
X166821158Y-81899500D01*
X166821155Y-81899500D01*
X166666510Y-81930261D01*
X166666498Y-81930264D01*
X166520827Y-81990602D01*
X166520814Y-81990609D01*
X166389711Y-82078210D01*
X166389707Y-82078213D01*
X166278213Y-82189707D01*
X166278210Y-82189711D01*
X166190609Y-82320814D01*
X166190602Y-82320827D01*
X166130264Y-82466498D01*
X166130261Y-82466510D01*
X166099500Y-82621153D01*
X163172192Y-82621153D01*
X163178216Y-82590874D01*
X163178216Y-82590873D01*
X163200499Y-82478846D01*
X163200500Y-82478844D01*
X163200500Y-82321155D01*
X163200499Y-82321153D01*
X163189628Y-82266503D01*
X163169737Y-82166503D01*
X163158879Y-82140289D01*
X163109397Y-82020827D01*
X163109390Y-82020814D01*
X163021789Y-81889711D01*
X163021786Y-81889707D01*
X162910292Y-81778213D01*
X162910288Y-81778210D01*
X162779185Y-81690609D01*
X162779172Y-81690602D01*
X162633501Y-81630264D01*
X162633489Y-81630261D01*
X162478845Y-81599500D01*
X162478842Y-81599500D01*
X162321158Y-81599500D01*
X162321155Y-81599500D01*
X162166510Y-81630261D01*
X162166498Y-81630264D01*
X162020827Y-81690602D01*
X162020814Y-81690609D01*
X161889711Y-81778210D01*
X161889707Y-81778213D01*
X161778213Y-81889707D01*
X161778210Y-81889711D01*
X161690609Y-82020814D01*
X161690602Y-82020827D01*
X161630264Y-82166498D01*
X161630261Y-82166510D01*
X161599500Y-82321153D01*
X153400499Y-82321153D01*
X153389628Y-82266503D01*
X153369737Y-82166503D01*
X153358879Y-82140289D01*
X153309397Y-82020827D01*
X153309390Y-82020814D01*
X153221789Y-81889711D01*
X153221786Y-81889707D01*
X153110292Y-81778213D01*
X153110288Y-81778210D01*
X152979185Y-81690609D01*
X152979172Y-81690602D01*
X152833501Y-81630264D01*
X152833489Y-81630261D01*
X152678845Y-81599500D01*
X152678842Y-81599500D01*
X152521158Y-81599500D01*
X152521155Y-81599500D01*
X152366510Y-81630261D01*
X152366498Y-81630264D01*
X152220827Y-81690602D01*
X152220814Y-81690609D01*
X152089711Y-81778210D01*
X152089707Y-81778213D01*
X151978213Y-81889707D01*
X151978210Y-81889711D01*
X151890609Y-82020814D01*
X151890602Y-82020827D01*
X151830264Y-82166498D01*
X151830261Y-82166510D01*
X151799500Y-82321153D01*
X138000500Y-82321153D01*
X138000500Y-82221158D01*
X138000500Y-82221155D01*
X138000499Y-82221153D01*
X137989627Y-82166498D01*
X137969737Y-82066503D01*
X137950812Y-82020814D01*
X137909397Y-81920827D01*
X137909390Y-81920814D01*
X137821789Y-81789711D01*
X137821786Y-81789707D01*
X137710292Y-81678213D01*
X137710288Y-81678210D01*
X137579185Y-81590609D01*
X137579172Y-81590602D01*
X137433501Y-81530264D01*
X137433489Y-81530261D01*
X137278845Y-81499500D01*
X137278842Y-81499500D01*
X137121158Y-81499500D01*
X137121155Y-81499500D01*
X136966510Y-81530261D01*
X136966498Y-81530264D01*
X136820827Y-81590602D01*
X136820814Y-81590609D01*
X136689711Y-81678210D01*
X136689707Y-81678213D01*
X136578213Y-81789707D01*
X136578210Y-81789711D01*
X136490609Y-81920814D01*
X136490602Y-81920827D01*
X136430264Y-82066498D01*
X136430261Y-82066510D01*
X136399500Y-82221153D01*
X129350953Y-82221153D01*
X129309397Y-82120827D01*
X129309390Y-82120814D01*
X129221789Y-81989711D01*
X129221786Y-81989707D01*
X129110292Y-81878213D01*
X129110288Y-81878210D01*
X128979185Y-81790609D01*
X128979172Y-81790602D01*
X128833501Y-81730264D01*
X128833489Y-81730261D01*
X128678845Y-81699500D01*
X128678842Y-81699500D01*
X128521158Y-81699500D01*
X128521155Y-81699500D01*
X128366510Y-81730261D01*
X128366498Y-81730264D01*
X128220827Y-81790602D01*
X128220814Y-81790609D01*
X128089711Y-81878210D01*
X128089707Y-81878213D01*
X127978213Y-81989707D01*
X127978210Y-81989711D01*
X127890609Y-82120814D01*
X127890602Y-82120827D01*
X127830264Y-82266498D01*
X127830261Y-82266510D01*
X127799500Y-82421153D01*
X126055831Y-82421153D01*
X126163497Y-82399737D01*
X126309179Y-82339394D01*
X126335527Y-82321789D01*
X126350232Y-82311964D01*
X126418257Y-82266510D01*
X126440289Y-82251789D01*
X126551789Y-82140289D01*
X126639394Y-82009179D01*
X126699737Y-81863497D01*
X126730500Y-81708842D01*
X126730500Y-81551158D01*
X126730500Y-81551155D01*
X126730499Y-81551153D01*
X126726343Y-81530261D01*
X126699737Y-81396503D01*
X126673641Y-81333501D01*
X126639397Y-81250827D01*
X126639390Y-81250814D01*
X126551789Y-81119711D01*
X126551786Y-81119707D01*
X126453232Y-81021153D01*
X168399500Y-81021153D01*
X168399500Y-81178846D01*
X168430261Y-81333489D01*
X168430264Y-81333501D01*
X168490602Y-81479172D01*
X168490609Y-81479185D01*
X168578210Y-81610288D01*
X168578213Y-81610292D01*
X168689707Y-81721786D01*
X168689711Y-81721789D01*
X168820814Y-81809390D01*
X168820827Y-81809397D01*
X168951419Y-81863489D01*
X168966503Y-81869737D01*
X169116131Y-81899500D01*
X169121153Y-81900499D01*
X169121156Y-81900500D01*
X169121158Y-81900500D01*
X169278844Y-81900500D01*
X169278845Y-81900499D01*
X169433497Y-81869737D01*
X169579179Y-81809394D01*
X169710289Y-81721789D01*
X169810925Y-81621153D01*
X195799500Y-81621153D01*
X195799500Y-81778846D01*
X195830261Y-81933489D01*
X195830264Y-81933501D01*
X195890602Y-82079172D01*
X195890609Y-82079185D01*
X195978210Y-82210288D01*
X195978213Y-82210292D01*
X196089707Y-82321786D01*
X196089711Y-82321789D01*
X196220814Y-82409390D01*
X196220827Y-82409397D01*
X196358683Y-82466498D01*
X196366503Y-82469737D01*
X196521153Y-82500499D01*
X196521156Y-82500500D01*
X196521158Y-82500500D01*
X196678844Y-82500500D01*
X196678845Y-82500499D01*
X196833497Y-82469737D01*
X196979179Y-82409394D01*
X197110289Y-82321789D01*
X197221789Y-82210289D01*
X197309394Y-82079179D01*
X197369737Y-81933497D01*
X197400500Y-81778842D01*
X197400500Y-81621158D01*
X197400500Y-81621155D01*
X197400499Y-81621153D01*
X197382419Y-81530261D01*
X197369737Y-81466503D01*
X197340745Y-81396510D01*
X197309397Y-81320827D01*
X197309390Y-81320814D01*
X197221789Y-81189711D01*
X197221786Y-81189707D01*
X197110292Y-81078213D01*
X197110288Y-81078210D01*
X196979185Y-80990609D01*
X196979172Y-80990602D01*
X196833501Y-80930264D01*
X196833489Y-80930261D01*
X196678845Y-80899500D01*
X196678842Y-80899500D01*
X196521158Y-80899500D01*
X196521155Y-80899500D01*
X196366510Y-80930261D01*
X196366498Y-80930264D01*
X196220827Y-80990602D01*
X196220814Y-80990609D01*
X196089711Y-81078210D01*
X196089707Y-81078213D01*
X195978213Y-81189707D01*
X195978210Y-81189711D01*
X195890609Y-81320814D01*
X195890602Y-81320827D01*
X195830264Y-81466498D01*
X195830261Y-81466510D01*
X195799500Y-81621153D01*
X169810925Y-81621153D01*
X169821789Y-81610289D01*
X169861301Y-81551155D01*
X169864629Y-81546175D01*
X169909390Y-81479185D01*
X169909390Y-81479184D01*
X169909394Y-81479179D01*
X169969737Y-81333497D01*
X170000500Y-81178842D01*
X170000500Y-81021158D01*
X170000500Y-81021155D01*
X170000499Y-81021153D01*
X169980498Y-80920602D01*
X169969737Y-80866503D01*
X169967152Y-80860263D01*
X169909397Y-80720827D01*
X169909390Y-80720814D01*
X169821789Y-80589711D01*
X169821786Y-80589707D01*
X169710292Y-80478213D01*
X169710288Y-80478210D01*
X169579185Y-80390609D01*
X169579172Y-80390602D01*
X169433501Y-80330264D01*
X169433489Y-80330261D01*
X169278845Y-80299500D01*
X169278842Y-80299500D01*
X169121158Y-80299500D01*
X169121155Y-80299500D01*
X168966510Y-80330261D01*
X168966498Y-80330264D01*
X168820827Y-80390602D01*
X168820814Y-80390609D01*
X168689711Y-80478210D01*
X168689707Y-80478213D01*
X168578213Y-80589707D01*
X168578210Y-80589711D01*
X168490609Y-80720814D01*
X168490602Y-80720827D01*
X168430264Y-80866498D01*
X168430261Y-80866510D01*
X168399500Y-81021153D01*
X126453232Y-81021153D01*
X126440292Y-81008213D01*
X126440288Y-81008210D01*
X126309185Y-80920609D01*
X126309172Y-80920602D01*
X126163501Y-80860264D01*
X126163489Y-80860261D01*
X126008845Y-80829500D01*
X126008842Y-80829500D01*
X125851158Y-80829500D01*
X125851155Y-80829500D01*
X125696510Y-80860261D01*
X125696498Y-80860264D01*
X125550827Y-80920602D01*
X125550814Y-80920609D01*
X125419711Y-81008210D01*
X125419707Y-81008213D01*
X125308213Y-81119707D01*
X125308210Y-81119711D01*
X125220609Y-81250814D01*
X125220602Y-81250827D01*
X125160264Y-81396498D01*
X125160261Y-81396510D01*
X125129500Y-81551153D01*
X116600500Y-81551153D01*
X116600500Y-79121153D01*
X136299500Y-79121153D01*
X136299500Y-79278846D01*
X136330261Y-79433489D01*
X136330264Y-79433501D01*
X136390602Y-79579172D01*
X136390609Y-79579185D01*
X136478210Y-79710288D01*
X136478213Y-79710292D01*
X136589707Y-79821786D01*
X136589711Y-79821789D01*
X136720814Y-79909390D01*
X136720827Y-79909397D01*
X136866498Y-79969735D01*
X136866503Y-79969737D01*
X137021153Y-80000499D01*
X137021156Y-80000500D01*
X137021158Y-80000500D01*
X137178844Y-80000500D01*
X137178845Y-80000499D01*
X137333497Y-79969737D01*
X137450790Y-79921153D01*
X177099500Y-79921153D01*
X177099500Y-80078846D01*
X177130261Y-80233489D01*
X177130264Y-80233501D01*
X177190602Y-80379172D01*
X177190609Y-80379185D01*
X177278210Y-80510288D01*
X177278213Y-80510292D01*
X177389707Y-80621786D01*
X177389711Y-80621789D01*
X177520814Y-80709390D01*
X177520827Y-80709397D01*
X177666498Y-80769735D01*
X177666503Y-80769737D01*
X177821153Y-80800499D01*
X177821156Y-80800500D01*
X177821158Y-80800500D01*
X177978844Y-80800500D01*
X177978845Y-80800499D01*
X178133497Y-80769737D01*
X178251592Y-80720821D01*
X178279172Y-80709397D01*
X178279172Y-80709396D01*
X178279179Y-80709394D01*
X178410289Y-80621789D01*
X178521789Y-80510289D01*
X178609394Y-80379179D01*
X178669737Y-80233497D01*
X178700500Y-80078842D01*
X178700500Y-79921158D01*
X178700500Y-79921155D01*
X178700499Y-79921153D01*
X178680734Y-79821788D01*
X178669737Y-79766503D01*
X178646452Y-79710288D01*
X178609397Y-79620827D01*
X178609390Y-79620814D01*
X178521789Y-79489711D01*
X178521786Y-79489707D01*
X178410292Y-79378213D01*
X178410288Y-79378210D01*
X178279185Y-79290609D01*
X178279172Y-79290602D01*
X178133501Y-79230264D01*
X178133489Y-79230261D01*
X177978845Y-79199500D01*
X177978842Y-79199500D01*
X177821158Y-79199500D01*
X177821155Y-79199500D01*
X177666510Y-79230261D01*
X177666498Y-79230264D01*
X177520827Y-79290602D01*
X177520814Y-79290609D01*
X177389711Y-79378210D01*
X177389707Y-79378213D01*
X177278213Y-79489707D01*
X177278210Y-79489711D01*
X177190609Y-79620814D01*
X177190602Y-79620827D01*
X177130264Y-79766498D01*
X177130261Y-79766510D01*
X177099500Y-79921153D01*
X137450790Y-79921153D01*
X137479179Y-79909394D01*
X137610289Y-79821789D01*
X137721789Y-79710289D01*
X137809394Y-79579179D01*
X137869737Y-79433497D01*
X137900500Y-79278842D01*
X137900500Y-79121158D01*
X137900500Y-79121155D01*
X137900499Y-79121153D01*
X137869738Y-78966510D01*
X137869737Y-78966503D01*
X137856062Y-78933489D01*
X137809397Y-78820827D01*
X137809390Y-78820814D01*
X137721790Y-78689712D01*
X137721784Y-78689705D01*
X137653232Y-78621153D01*
X164499500Y-78621153D01*
X164499500Y-78778846D01*
X164530261Y-78933489D01*
X164530264Y-78933501D01*
X164590602Y-79079172D01*
X164590609Y-79079185D01*
X164678210Y-79210288D01*
X164678213Y-79210292D01*
X164789707Y-79321786D01*
X164789711Y-79321789D01*
X164920814Y-79409390D01*
X164920827Y-79409397D01*
X165066498Y-79469735D01*
X165066503Y-79469737D01*
X165221153Y-79500499D01*
X165221156Y-79500500D01*
X165221158Y-79500500D01*
X165378844Y-79500500D01*
X165378845Y-79500499D01*
X165533497Y-79469737D01*
X165679179Y-79409394D01*
X165810289Y-79321789D01*
X165921789Y-79210289D01*
X166009394Y-79079179D01*
X166069737Y-78933497D01*
X166100500Y-78778842D01*
X166100500Y-78621158D01*
X166100500Y-78621155D01*
X166100499Y-78621153D01*
X166074531Y-78490606D01*
X166069737Y-78466503D01*
X166069735Y-78466498D01*
X166009397Y-78320827D01*
X166009390Y-78320814D01*
X165921789Y-78189711D01*
X165921786Y-78189707D01*
X165810292Y-78078213D01*
X165810288Y-78078210D01*
X165679185Y-77990609D01*
X165679172Y-77990602D01*
X165533501Y-77930264D01*
X165533489Y-77930261D01*
X165378845Y-77899500D01*
X165378842Y-77899500D01*
X165221158Y-77899500D01*
X165221155Y-77899500D01*
X165066510Y-77930261D01*
X165066498Y-77930264D01*
X164920827Y-77990602D01*
X164920814Y-77990609D01*
X164789711Y-78078210D01*
X164789707Y-78078213D01*
X164678213Y-78189707D01*
X164678210Y-78189711D01*
X164590609Y-78320814D01*
X164590602Y-78320827D01*
X164530264Y-78466498D01*
X164530261Y-78466510D01*
X164499500Y-78621153D01*
X137653232Y-78621153D01*
X137610292Y-78578213D01*
X137610288Y-78578210D01*
X137479185Y-78490609D01*
X137479172Y-78490602D01*
X137333501Y-78430264D01*
X137333489Y-78430261D01*
X137178845Y-78399500D01*
X137178842Y-78399500D01*
X137021158Y-78399500D01*
X137021155Y-78399500D01*
X136866510Y-78430261D01*
X136866498Y-78430264D01*
X136720827Y-78490602D01*
X136720814Y-78490609D01*
X136589711Y-78578210D01*
X136589707Y-78578213D01*
X136478213Y-78689707D01*
X136478210Y-78689711D01*
X136390609Y-78820814D01*
X136390602Y-78820827D01*
X136330264Y-78966498D01*
X136330261Y-78966510D01*
X136299500Y-79121153D01*
X116600500Y-79121153D01*
X116600500Y-77521153D01*
X130699500Y-77521153D01*
X130699500Y-77678846D01*
X130730261Y-77833489D01*
X130730264Y-77833501D01*
X130790602Y-77979172D01*
X130790609Y-77979185D01*
X130878210Y-78110288D01*
X130878213Y-78110292D01*
X130989707Y-78221786D01*
X130989711Y-78221789D01*
X131120814Y-78309390D01*
X131120827Y-78309397D01*
X131266498Y-78369735D01*
X131266503Y-78369737D01*
X131416131Y-78399500D01*
X131421153Y-78400499D01*
X131421156Y-78400500D01*
X131421158Y-78400500D01*
X131578844Y-78400500D01*
X131578845Y-78400499D01*
X131733497Y-78369737D01*
X131851592Y-78320821D01*
X131879172Y-78309397D01*
X131879172Y-78309396D01*
X131879179Y-78309394D01*
X132010289Y-78221789D01*
X132121789Y-78110289D01*
X132209394Y-77979179D01*
X132269737Y-77833497D01*
X132271440Y-77824933D01*
X132303822Y-77763022D01*
X132364537Y-77728446D01*
X132434306Y-77732183D01*
X132448362Y-77738376D01*
X132507864Y-77763022D01*
X132596503Y-77799737D01*
X132723176Y-77824934D01*
X132751153Y-77830499D01*
X132751156Y-77830500D01*
X132751158Y-77830500D01*
X132908844Y-77830500D01*
X132908845Y-77830499D01*
X133063497Y-77799737D01*
X133209179Y-77739394D01*
X133340289Y-77651789D01*
X133451789Y-77540289D01*
X133539394Y-77409179D01*
X133599737Y-77263497D01*
X133630500Y-77108842D01*
X133630500Y-76951158D01*
X133630500Y-76951155D01*
X133630499Y-76951153D01*
X133618455Y-76890606D01*
X133599737Y-76796503D01*
X133592423Y-76778846D01*
X133539397Y-76650827D01*
X133539390Y-76650814D01*
X133451789Y-76519711D01*
X133451786Y-76519707D01*
X133340292Y-76408213D01*
X133340288Y-76408210D01*
X133209185Y-76320609D01*
X133209172Y-76320602D01*
X133063501Y-76260264D01*
X133063489Y-76260261D01*
X132908845Y-76229500D01*
X132908842Y-76229500D01*
X132751158Y-76229500D01*
X132751155Y-76229500D01*
X132596510Y-76260261D01*
X132596498Y-76260264D01*
X132450827Y-76320602D01*
X132450814Y-76320609D01*
X132319711Y-76408210D01*
X132319707Y-76408213D01*
X132208213Y-76519707D01*
X132208210Y-76519711D01*
X132120609Y-76650814D01*
X132120602Y-76650827D01*
X132060264Y-76796498D01*
X132060260Y-76796512D01*
X132058557Y-76805074D01*
X132026170Y-76866984D01*
X131965453Y-76901556D01*
X131895683Y-76897813D01*
X131881617Y-76891615D01*
X131733501Y-76830264D01*
X131733489Y-76830261D01*
X131578845Y-76799500D01*
X131578842Y-76799500D01*
X131421158Y-76799500D01*
X131421155Y-76799500D01*
X131266510Y-76830261D01*
X131266498Y-76830264D01*
X131120827Y-76890602D01*
X131120814Y-76890609D01*
X130989711Y-76978210D01*
X130989707Y-76978213D01*
X130878213Y-77089707D01*
X130878210Y-77089711D01*
X130790609Y-77220814D01*
X130790602Y-77220827D01*
X130730264Y-77366498D01*
X130730261Y-77366510D01*
X130699500Y-77521153D01*
X116600500Y-77521153D01*
X116600500Y-76351153D01*
X123729500Y-76351153D01*
X123729500Y-76508846D01*
X123760261Y-76663489D01*
X123760264Y-76663501D01*
X123820602Y-76809172D01*
X123820609Y-76809185D01*
X123908210Y-76940288D01*
X123908213Y-76940292D01*
X124019707Y-77051786D01*
X124019711Y-77051789D01*
X124150814Y-77139390D01*
X124150827Y-77139397D01*
X124296498Y-77199735D01*
X124296503Y-77199737D01*
X124451153Y-77230499D01*
X124451156Y-77230500D01*
X124451158Y-77230500D01*
X124608844Y-77230500D01*
X124608845Y-77230499D01*
X124763497Y-77199737D01*
X124909179Y-77139394D01*
X125040289Y-77051789D01*
X125151789Y-76940289D01*
X125239394Y-76809179D01*
X125299737Y-76663497D01*
X125330500Y-76508842D01*
X125330500Y-76351158D01*
X125330500Y-76351155D01*
X125330499Y-76351153D01*
X125324658Y-76321789D01*
X125299737Y-76196503D01*
X125288650Y-76169737D01*
X125239397Y-76050827D01*
X125239390Y-76050814D01*
X125151789Y-75919711D01*
X125151786Y-75919707D01*
X125040292Y-75808213D01*
X125040288Y-75808210D01*
X124909183Y-75720608D01*
X124909172Y-75720602D01*
X124763501Y-75660264D01*
X124763489Y-75660261D01*
X124608845Y-75629500D01*
X124608842Y-75629500D01*
X124451158Y-75629500D01*
X124451155Y-75629500D01*
X124296510Y-75660261D01*
X124296498Y-75660264D01*
X124150827Y-75720602D01*
X124150814Y-75720609D01*
X124019711Y-75808210D01*
X124019707Y-75808213D01*
X123908213Y-75919707D01*
X123908210Y-75919711D01*
X123820609Y-76050814D01*
X123820602Y-76050827D01*
X123760264Y-76196498D01*
X123760261Y-76196510D01*
X123729500Y-76351153D01*
X116600500Y-76351153D01*
X116600500Y-75621153D01*
X136099500Y-75621153D01*
X136099500Y-75778846D01*
X136130261Y-75933489D01*
X136130264Y-75933501D01*
X136190602Y-76079172D01*
X136190609Y-76079185D01*
X136278210Y-76210288D01*
X136278213Y-76210292D01*
X136389707Y-76321786D01*
X136389711Y-76321789D01*
X136520814Y-76409390D01*
X136520827Y-76409397D01*
X136658683Y-76466498D01*
X136666503Y-76469737D01*
X136821153Y-76500499D01*
X136821156Y-76500500D01*
X136821158Y-76500500D01*
X136978844Y-76500500D01*
X136978845Y-76500499D01*
X137133497Y-76469737D01*
X137279179Y-76409394D01*
X137410289Y-76321789D01*
X137521789Y-76210289D01*
X137609394Y-76079179D01*
X137669737Y-75933497D01*
X137672193Y-75921153D01*
X169399500Y-75921153D01*
X169399500Y-76078846D01*
X169430261Y-76233489D01*
X169430264Y-76233501D01*
X169490602Y-76379172D01*
X169490609Y-76379185D01*
X169578210Y-76510288D01*
X169578213Y-76510292D01*
X169689707Y-76621786D01*
X169689711Y-76621789D01*
X169820814Y-76709390D01*
X169820827Y-76709397D01*
X169966498Y-76769735D01*
X169966503Y-76769737D01*
X170101039Y-76796498D01*
X170121153Y-76800499D01*
X170121156Y-76800500D01*
X170121158Y-76800500D01*
X170278844Y-76800500D01*
X170278845Y-76800499D01*
X170433497Y-76769737D01*
X170579179Y-76709394D01*
X170710289Y-76621789D01*
X170710925Y-76621153D01*
X192599500Y-76621153D01*
X192599500Y-76778846D01*
X192630261Y-76933489D01*
X192630264Y-76933501D01*
X192690602Y-77079172D01*
X192690609Y-77079185D01*
X192778210Y-77210288D01*
X192778213Y-77210292D01*
X192889707Y-77321786D01*
X192889711Y-77321789D01*
X193020814Y-77409390D01*
X193020827Y-77409397D01*
X193166498Y-77469735D01*
X193166503Y-77469737D01*
X193321153Y-77500499D01*
X193321156Y-77500500D01*
X193321158Y-77500500D01*
X193478844Y-77500500D01*
X193478845Y-77500499D01*
X193633497Y-77469737D01*
X193779179Y-77409394D01*
X193910289Y-77321789D01*
X194021789Y-77210289D01*
X194109394Y-77079179D01*
X194169737Y-76933497D01*
X194200500Y-76778842D01*
X194200500Y-76621158D01*
X194200500Y-76621155D01*
X194200499Y-76621153D01*
X194178447Y-76510292D01*
X194169737Y-76466503D01*
X194145592Y-76408211D01*
X194109397Y-76320827D01*
X194109390Y-76320814D01*
X194021789Y-76189711D01*
X194021786Y-76189707D01*
X193910292Y-76078213D01*
X193910288Y-76078210D01*
X193779185Y-75990609D01*
X193779172Y-75990602D01*
X193633501Y-75930264D01*
X193633489Y-75930261D01*
X193478845Y-75899500D01*
X193478842Y-75899500D01*
X193321158Y-75899500D01*
X193321155Y-75899500D01*
X193166510Y-75930261D01*
X193166498Y-75930264D01*
X193020827Y-75990602D01*
X193020814Y-75990609D01*
X192889711Y-76078210D01*
X192889707Y-76078213D01*
X192778213Y-76189707D01*
X192778210Y-76189711D01*
X192690609Y-76320814D01*
X192690602Y-76320827D01*
X192630264Y-76466498D01*
X192630261Y-76466510D01*
X192599500Y-76621153D01*
X170710925Y-76621153D01*
X170821789Y-76510289D01*
X170909394Y-76379179D01*
X170969737Y-76233497D01*
X171000500Y-76078842D01*
X171000500Y-75921158D01*
X171000500Y-75921155D01*
X171000499Y-75921153D01*
X170983061Y-75833489D01*
X170969737Y-75766503D01*
X170950726Y-75720606D01*
X170909397Y-75620827D01*
X170909390Y-75620814D01*
X170884763Y-75583957D01*
X170842798Y-75521153D01*
X177899500Y-75521153D01*
X177899500Y-75678846D01*
X177930261Y-75833489D01*
X177930264Y-75833501D01*
X177990602Y-75979172D01*
X177990609Y-75979185D01*
X178078210Y-76110288D01*
X178078213Y-76110292D01*
X178189707Y-76221786D01*
X178189711Y-76221789D01*
X178320814Y-76309390D01*
X178320827Y-76309397D01*
X178466498Y-76369735D01*
X178466503Y-76369737D01*
X178621153Y-76400499D01*
X178621156Y-76400500D01*
X178621158Y-76400500D01*
X178778844Y-76400500D01*
X178778845Y-76400499D01*
X178933497Y-76369737D01*
X179051592Y-76320821D01*
X179079172Y-76309397D01*
X179079172Y-76309396D01*
X179079179Y-76309394D01*
X179210289Y-76221789D01*
X179321789Y-76110289D01*
X179409394Y-75979179D01*
X179469737Y-75833497D01*
X179500500Y-75678842D01*
X179500500Y-75621153D01*
X184199500Y-75621153D01*
X184199500Y-75778846D01*
X184230261Y-75933489D01*
X184230264Y-75933501D01*
X184290602Y-76079172D01*
X184290609Y-76079185D01*
X184378210Y-76210288D01*
X184378213Y-76210292D01*
X184489707Y-76321786D01*
X184489711Y-76321789D01*
X184620814Y-76409390D01*
X184620827Y-76409397D01*
X184758683Y-76466498D01*
X184766503Y-76469737D01*
X184921153Y-76500499D01*
X184921156Y-76500500D01*
X184921158Y-76500500D01*
X185078844Y-76500500D01*
X185078845Y-76500499D01*
X185089179Y-76498443D01*
X185114287Y-76493450D01*
X185114292Y-76493449D01*
X185199800Y-76476439D01*
X185233497Y-76469737D01*
X185379179Y-76409394D01*
X185510289Y-76321789D01*
X185621789Y-76210289D01*
X185709394Y-76079179D01*
X185769737Y-75933497D01*
X185800500Y-75778842D01*
X185800500Y-75621158D01*
X185800500Y-75621155D01*
X185800499Y-75621153D01*
X185793100Y-75583957D01*
X185769737Y-75466503D01*
X185769735Y-75466498D01*
X185726666Y-75362518D01*
X185709532Y-75321153D01*
X195799500Y-75321153D01*
X195799500Y-75478846D01*
X195830261Y-75633489D01*
X195830264Y-75633501D01*
X195890602Y-75779172D01*
X195890609Y-75779185D01*
X195978210Y-75910288D01*
X195978213Y-75910292D01*
X196089707Y-76021786D01*
X196089711Y-76021789D01*
X196220814Y-76109390D01*
X196220827Y-76109397D01*
X196366498Y-76169735D01*
X196366503Y-76169737D01*
X196501039Y-76196498D01*
X196521153Y-76200499D01*
X196521156Y-76200500D01*
X196521158Y-76200500D01*
X196678844Y-76200500D01*
X196678845Y-76200499D01*
X196833497Y-76169737D01*
X196979179Y-76109394D01*
X197110289Y-76021789D01*
X197221789Y-75910289D01*
X197309394Y-75779179D01*
X197369737Y-75633497D01*
X197400500Y-75478842D01*
X197400500Y-75321158D01*
X197400500Y-75321155D01*
X197400499Y-75321153D01*
X197382467Y-75230500D01*
X197369737Y-75166503D01*
X197369735Y-75166498D01*
X197309397Y-75020827D01*
X197309390Y-75020814D01*
X197221789Y-74889711D01*
X197221786Y-74889707D01*
X197110292Y-74778213D01*
X197110288Y-74778210D01*
X196979185Y-74690609D01*
X196979172Y-74690602D01*
X196833501Y-74630264D01*
X196833489Y-74630261D01*
X196678845Y-74599500D01*
X196678842Y-74599500D01*
X196521158Y-74599500D01*
X196521155Y-74599500D01*
X196366510Y-74630261D01*
X196366498Y-74630264D01*
X196220827Y-74690602D01*
X196220814Y-74690609D01*
X196089711Y-74778210D01*
X196089707Y-74778213D01*
X195978213Y-74889707D01*
X195978210Y-74889711D01*
X195890609Y-75020814D01*
X195890602Y-75020827D01*
X195830264Y-75166498D01*
X195830261Y-75166510D01*
X195799500Y-75321153D01*
X185709532Y-75321153D01*
X185709395Y-75320823D01*
X185709390Y-75320814D01*
X185621789Y-75189711D01*
X185621786Y-75189707D01*
X185510292Y-75078213D01*
X185510288Y-75078210D01*
X185379185Y-74990609D01*
X185379172Y-74990602D01*
X185233501Y-74930264D01*
X185233489Y-74930261D01*
X185078845Y-74899500D01*
X185078842Y-74899500D01*
X184921158Y-74899500D01*
X184921155Y-74899500D01*
X184766510Y-74930261D01*
X184766498Y-74930264D01*
X184620827Y-74990602D01*
X184620814Y-74990609D01*
X184489711Y-75078210D01*
X184489707Y-75078213D01*
X184378213Y-75189707D01*
X184378210Y-75189711D01*
X184290609Y-75320814D01*
X184290602Y-75320827D01*
X184230264Y-75466498D01*
X184230261Y-75466510D01*
X184199500Y-75621153D01*
X179500500Y-75621153D01*
X179500500Y-75521158D01*
X179500500Y-75521155D01*
X179500499Y-75521153D01*
X179494244Y-75489707D01*
X179469737Y-75366503D01*
X179450955Y-75321158D01*
X179409397Y-75220827D01*
X179409390Y-75220814D01*
X179321789Y-75089711D01*
X179321786Y-75089707D01*
X179210292Y-74978213D01*
X179210288Y-74978210D01*
X179079185Y-74890609D01*
X179079172Y-74890602D01*
X178933501Y-74830264D01*
X178933489Y-74830261D01*
X178778845Y-74799500D01*
X178778842Y-74799500D01*
X178621158Y-74799500D01*
X178621155Y-74799500D01*
X178466510Y-74830261D01*
X178466498Y-74830264D01*
X178320827Y-74890602D01*
X178320814Y-74890609D01*
X178189711Y-74978210D01*
X178189707Y-74978213D01*
X178078213Y-75089707D01*
X178078210Y-75089711D01*
X177990609Y-75220814D01*
X177990602Y-75220827D01*
X177930264Y-75366498D01*
X177930261Y-75366510D01*
X177899500Y-75521153D01*
X170842798Y-75521153D01*
X170821789Y-75489711D01*
X170821786Y-75489707D01*
X170710292Y-75378213D01*
X170710288Y-75378210D01*
X170579185Y-75290609D01*
X170579172Y-75290602D01*
X170433501Y-75230264D01*
X170433489Y-75230261D01*
X170278845Y-75199500D01*
X170278842Y-75199500D01*
X170121158Y-75199500D01*
X170121155Y-75199500D01*
X169966510Y-75230261D01*
X169966498Y-75230264D01*
X169820827Y-75290602D01*
X169820814Y-75290609D01*
X169689711Y-75378210D01*
X169689707Y-75378213D01*
X169578213Y-75489707D01*
X169578210Y-75489711D01*
X169490609Y-75620814D01*
X169490602Y-75620827D01*
X169430264Y-75766498D01*
X169430261Y-75766510D01*
X169399500Y-75921153D01*
X137672193Y-75921153D01*
X137674353Y-75910292D01*
X137678216Y-75890874D01*
X137678216Y-75890873D01*
X137700499Y-75778846D01*
X137700500Y-75778844D01*
X137700500Y-75621155D01*
X137700499Y-75621153D01*
X137693100Y-75583957D01*
X137669737Y-75466503D01*
X137669735Y-75466498D01*
X137609397Y-75320827D01*
X137609390Y-75320814D01*
X137521789Y-75189711D01*
X137521786Y-75189707D01*
X137410292Y-75078213D01*
X137410288Y-75078210D01*
X137279185Y-74990609D01*
X137279172Y-74990602D01*
X137133501Y-74930264D01*
X137133489Y-74930261D01*
X136978845Y-74899500D01*
X136978842Y-74899500D01*
X136821158Y-74899500D01*
X136821155Y-74899500D01*
X136666510Y-74930261D01*
X136666498Y-74930264D01*
X136520827Y-74990602D01*
X136520814Y-74990609D01*
X136389711Y-75078210D01*
X136389707Y-75078213D01*
X136278213Y-75189707D01*
X136278210Y-75189711D01*
X136190609Y-75320814D01*
X136190602Y-75320827D01*
X136130264Y-75466498D01*
X136130261Y-75466510D01*
X136099500Y-75621153D01*
X116600500Y-75621153D01*
X116600500Y-74351153D01*
X125329500Y-74351153D01*
X125329500Y-74508846D01*
X125360261Y-74663489D01*
X125360264Y-74663501D01*
X125420602Y-74809172D01*
X125420609Y-74809185D01*
X125508210Y-74940288D01*
X125508213Y-74940292D01*
X125619707Y-75051786D01*
X125619711Y-75051789D01*
X125750814Y-75139390D01*
X125750827Y-75139397D01*
X125816256Y-75166498D01*
X125896503Y-75199737D01*
X126049967Y-75230263D01*
X126051153Y-75230499D01*
X126051156Y-75230500D01*
X126051158Y-75230500D01*
X126208844Y-75230500D01*
X126208845Y-75230499D01*
X126363497Y-75199737D01*
X126509179Y-75139394D01*
X126640289Y-75051789D01*
X126751789Y-74940289D01*
X126839394Y-74809179D01*
X126899737Y-74663497D01*
X126930500Y-74508842D01*
X126930500Y-74351158D01*
X126930500Y-74351155D01*
X126930499Y-74351153D01*
X126899737Y-74196503D01*
X126880955Y-74151158D01*
X126839397Y-74050827D01*
X126839390Y-74050814D01*
X126751789Y-73919711D01*
X126751786Y-73919707D01*
X126640292Y-73808213D01*
X126640288Y-73808210D01*
X126509185Y-73720609D01*
X126509172Y-73720602D01*
X126363501Y-73660264D01*
X126363489Y-73660261D01*
X126208845Y-73629500D01*
X126208842Y-73629500D01*
X126051158Y-73629500D01*
X126051155Y-73629500D01*
X125896510Y-73660261D01*
X125896498Y-73660264D01*
X125750827Y-73720602D01*
X125750814Y-73720609D01*
X125619711Y-73808210D01*
X125619707Y-73808213D01*
X125508213Y-73919707D01*
X125508210Y-73919711D01*
X125420609Y-74050814D01*
X125420602Y-74050827D01*
X125360264Y-74196498D01*
X125360261Y-74196510D01*
X125329500Y-74351153D01*
X116600500Y-74351153D01*
X116600500Y-73221153D01*
X136299500Y-73221153D01*
X136299500Y-73378846D01*
X136330261Y-73533489D01*
X136330264Y-73533501D01*
X136390602Y-73679172D01*
X136390609Y-73679185D01*
X136478210Y-73810288D01*
X136478213Y-73810292D01*
X136589707Y-73921786D01*
X136589711Y-73921789D01*
X136720814Y-74009390D01*
X136720827Y-74009397D01*
X136866498Y-74069735D01*
X136866503Y-74069737D01*
X137021153Y-74100499D01*
X137021156Y-74100500D01*
X137021158Y-74100500D01*
X137178844Y-74100500D01*
X137178845Y-74100499D01*
X137333497Y-74069737D01*
X137479179Y-74009394D01*
X137610289Y-73921789D01*
X137721789Y-73810289D01*
X137809394Y-73679179D01*
X137869737Y-73533497D01*
X137900500Y-73378842D01*
X137900500Y-73221158D01*
X137900500Y-73221155D01*
X137900499Y-73221153D01*
X137869738Y-73066510D01*
X137869737Y-73066503D01*
X137840745Y-72996510D01*
X137809397Y-72920827D01*
X137809390Y-72920814D01*
X137721789Y-72789711D01*
X137721786Y-72789707D01*
X137610292Y-72678213D01*
X137610288Y-72678210D01*
X137479185Y-72590609D01*
X137479172Y-72590602D01*
X137333501Y-72530264D01*
X137333489Y-72530261D01*
X137178845Y-72499500D01*
X137178842Y-72499500D01*
X137021158Y-72499500D01*
X137021155Y-72499500D01*
X136866510Y-72530261D01*
X136866498Y-72530264D01*
X136720827Y-72590602D01*
X136720814Y-72590609D01*
X136589711Y-72678210D01*
X136589707Y-72678213D01*
X136478213Y-72789707D01*
X136478210Y-72789711D01*
X136390609Y-72920814D01*
X136390602Y-72920827D01*
X136330264Y-73066498D01*
X136330261Y-73066510D01*
X136299500Y-73221153D01*
X116600500Y-73221153D01*
X116600500Y-71651153D01*
X130529500Y-71651153D01*
X130529500Y-71808846D01*
X130560261Y-71963489D01*
X130560264Y-71963501D01*
X130620602Y-72109172D01*
X130620609Y-72109185D01*
X130708210Y-72240288D01*
X130708213Y-72240292D01*
X130819707Y-72351786D01*
X130819711Y-72351789D01*
X130950814Y-72439390D01*
X130950827Y-72439397D01*
X131095931Y-72499500D01*
X131096503Y-72499737D01*
X131249967Y-72530263D01*
X131251153Y-72530499D01*
X131251156Y-72530500D01*
X131251158Y-72530500D01*
X131408844Y-72530500D01*
X131408845Y-72530499D01*
X131563497Y-72499737D01*
X131709179Y-72439394D01*
X131840289Y-72351789D01*
X131951789Y-72240289D01*
X132039394Y-72109179D01*
X132099737Y-71963497D01*
X132130500Y-71808842D01*
X132130500Y-71651158D01*
X132130500Y-71651155D01*
X132130499Y-71651153D01*
X132116115Y-71578842D01*
X132099737Y-71496503D01*
X132068526Y-71421153D01*
X135399500Y-71421153D01*
X135399500Y-71578846D01*
X135430261Y-71733489D01*
X135430264Y-71733501D01*
X135490602Y-71879172D01*
X135490609Y-71879185D01*
X135578210Y-72010288D01*
X135578213Y-72010292D01*
X135689707Y-72121786D01*
X135689711Y-72121789D01*
X135820814Y-72209390D01*
X135820827Y-72209397D01*
X135966498Y-72269735D01*
X135966503Y-72269737D01*
X136121153Y-72300499D01*
X136121156Y-72300500D01*
X136121158Y-72300500D01*
X136278844Y-72300500D01*
X136278845Y-72300499D01*
X136433497Y-72269737D01*
X136579179Y-72209394D01*
X136710289Y-72121789D01*
X136821789Y-72010289D01*
X136909394Y-71879179D01*
X136969737Y-71733497D01*
X137000500Y-71578842D01*
X137000500Y-71421158D01*
X137000500Y-71421155D01*
X137000499Y-71421153D01*
X136986509Y-71350821D01*
X136969737Y-71266503D01*
X136945853Y-71208842D01*
X136909397Y-71120827D01*
X136909390Y-71120814D01*
X136821789Y-70989711D01*
X136821786Y-70989707D01*
X136710292Y-70878213D01*
X136710288Y-70878210D01*
X136579185Y-70790609D01*
X136579172Y-70790602D01*
X136433501Y-70730264D01*
X136433489Y-70730261D01*
X136278845Y-70699500D01*
X136278842Y-70699500D01*
X136121158Y-70699500D01*
X136121155Y-70699500D01*
X135966510Y-70730261D01*
X135966498Y-70730264D01*
X135820827Y-70790602D01*
X135820814Y-70790609D01*
X135689711Y-70878210D01*
X135689707Y-70878213D01*
X135578213Y-70989707D01*
X135578210Y-70989711D01*
X135490609Y-71120814D01*
X135490602Y-71120827D01*
X135430264Y-71266498D01*
X135430261Y-71266510D01*
X135399500Y-71421153D01*
X132068526Y-71421153D01*
X132059925Y-71400389D01*
X132039397Y-71350827D01*
X132039390Y-71350814D01*
X131951789Y-71219711D01*
X131951786Y-71219707D01*
X131840292Y-71108213D01*
X131840288Y-71108210D01*
X131709185Y-71020609D01*
X131709172Y-71020602D01*
X131563501Y-70960264D01*
X131563489Y-70960261D01*
X131408845Y-70929500D01*
X131408842Y-70929500D01*
X131251158Y-70929500D01*
X131251155Y-70929500D01*
X131096510Y-70960261D01*
X131096498Y-70960264D01*
X130950827Y-71020602D01*
X130950814Y-71020609D01*
X130819711Y-71108210D01*
X130819707Y-71108213D01*
X130708213Y-71219707D01*
X130708210Y-71219711D01*
X130620609Y-71350814D01*
X130620602Y-71350827D01*
X130560264Y-71496498D01*
X130560261Y-71496510D01*
X130529500Y-71651153D01*
X116600500Y-71651153D01*
X116600500Y-68951153D01*
X172329500Y-68951153D01*
X172329500Y-69108846D01*
X172360261Y-69263489D01*
X172360264Y-69263501D01*
X172420602Y-69409172D01*
X172420609Y-69409185D01*
X172455304Y-69461109D01*
X172476182Y-69527786D01*
X172457698Y-69595167D01*
X172455304Y-69598891D01*
X172420609Y-69650814D01*
X172420602Y-69650827D01*
X172360264Y-69796498D01*
X172360261Y-69796510D01*
X172329500Y-69951153D01*
X172329500Y-70108846D01*
X172360261Y-70263489D01*
X172360264Y-70263501D01*
X172420602Y-70409172D01*
X172420609Y-70409185D01*
X172488713Y-70511109D01*
X172509591Y-70577787D01*
X172491107Y-70645167D01*
X172488713Y-70648891D01*
X172420609Y-70750814D01*
X172420602Y-70750827D01*
X172360264Y-70896498D01*
X172360261Y-70896510D01*
X172329500Y-71051153D01*
X172329500Y-71208846D01*
X172360261Y-71363489D01*
X172360264Y-71363501D01*
X172420602Y-71509172D01*
X172420609Y-71509185D01*
X172508210Y-71640288D01*
X172508213Y-71640292D01*
X172510240Y-71642319D01*
X172510962Y-71643642D01*
X172512076Y-71644999D01*
X172511818Y-71645210D01*
X172543725Y-71703642D01*
X172538741Y-71773334D01*
X172512001Y-71814939D01*
X172512076Y-71815001D01*
X172511552Y-71815639D01*
X172510240Y-71817681D01*
X172508213Y-71819707D01*
X172508210Y-71819711D01*
X172420609Y-71950814D01*
X172420602Y-71950827D01*
X172360264Y-72096498D01*
X172360261Y-72096510D01*
X172329500Y-72251153D01*
X172329500Y-72408846D01*
X172360261Y-72563489D01*
X172360264Y-72563501D01*
X172420604Y-72709177D01*
X172420605Y-72709179D01*
X172421899Y-72711115D01*
X172422264Y-72712282D01*
X172423476Y-72714549D01*
X172423045Y-72714778D01*
X172442773Y-72777794D01*
X172424285Y-72845173D01*
X172421899Y-72848885D01*
X172420605Y-72850820D01*
X172420604Y-72850822D01*
X172360264Y-72996498D01*
X172360261Y-72996510D01*
X172329500Y-73151153D01*
X172329500Y-73308846D01*
X172360261Y-73463489D01*
X172360264Y-73463501D01*
X172420602Y-73609172D01*
X172420609Y-73609185D01*
X172455304Y-73661109D01*
X172476182Y-73727786D01*
X172457698Y-73795167D01*
X172455304Y-73798891D01*
X172420609Y-73850814D01*
X172420602Y-73850827D01*
X172360264Y-73996498D01*
X172360261Y-73996510D01*
X172329500Y-74151153D01*
X172329500Y-74308846D01*
X172360261Y-74463489D01*
X172360264Y-74463501D01*
X172420602Y-74609172D01*
X172420609Y-74609185D01*
X172508210Y-74740288D01*
X172508213Y-74740292D01*
X172619707Y-74851786D01*
X172619711Y-74851789D01*
X172750814Y-74939390D01*
X172750827Y-74939397D01*
X172874466Y-74990609D01*
X172896503Y-74999737D01*
X173051153Y-75030499D01*
X173051156Y-75030500D01*
X173051158Y-75030500D01*
X173208844Y-75030500D01*
X173208845Y-75030499D01*
X173363497Y-74999737D01*
X173509179Y-74939394D01*
X173640289Y-74851789D01*
X173751789Y-74740289D01*
X173839394Y-74609179D01*
X173899737Y-74463497D01*
X173930500Y-74308842D01*
X173930500Y-74151158D01*
X173930500Y-74151155D01*
X173930499Y-74151153D01*
X173910543Y-74050827D01*
X173899737Y-73996503D01*
X173868790Y-73921789D01*
X173839396Y-73850825D01*
X173839394Y-73850822D01*
X173839394Y-73850821D01*
X173804694Y-73798889D01*
X173783816Y-73732215D01*
X173802300Y-73664835D01*
X173804676Y-73661136D01*
X173839394Y-73609179D01*
X173899737Y-73463497D01*
X173930500Y-73308842D01*
X173930500Y-73151158D01*
X173930500Y-73151155D01*
X173930499Y-73151153D01*
X173899738Y-72996510D01*
X173899737Y-72996503D01*
X173899735Y-72996498D01*
X173839397Y-72850827D01*
X173839394Y-72850822D01*
X173839394Y-72850821D01*
X173838103Y-72848889D01*
X173837737Y-72847723D01*
X173836525Y-72845454D01*
X173836955Y-72845223D01*
X173817226Y-72782214D01*
X173835710Y-72714834D01*
X173838100Y-72711115D01*
X173839394Y-72709179D01*
X173899737Y-72563497D01*
X173930500Y-72408842D01*
X173930500Y-72251158D01*
X173930500Y-72251155D01*
X173930499Y-72251153D01*
X173922193Y-72209397D01*
X173899737Y-72096503D01*
X173864028Y-72010292D01*
X173839397Y-71950827D01*
X173839390Y-71950814D01*
X173751789Y-71819711D01*
X173749766Y-71817688D01*
X173749043Y-71816365D01*
X173747924Y-71815001D01*
X173748182Y-71814788D01*
X173716276Y-71756368D01*
X173721255Y-71686676D01*
X173747999Y-71645060D01*
X173747924Y-71644999D01*
X173748454Y-71644351D01*
X173749766Y-71642312D01*
X173751789Y-71640289D01*
X173839394Y-71509179D01*
X173899737Y-71363497D01*
X173930500Y-71208842D01*
X173930500Y-71051158D01*
X173930500Y-71051155D01*
X173930499Y-71051153D01*
X173918277Y-70989711D01*
X173899737Y-70896503D01*
X173888650Y-70869737D01*
X173839397Y-70750827D01*
X173839393Y-70750820D01*
X173825658Y-70730264D01*
X173771284Y-70648888D01*
X173750408Y-70582214D01*
X173768892Y-70514834D01*
X173771257Y-70511152D01*
X173839394Y-70409179D01*
X173899737Y-70263497D01*
X173930500Y-70108842D01*
X173930500Y-69951158D01*
X173930500Y-69951155D01*
X173930499Y-69951153D01*
X173919627Y-69896498D01*
X173899737Y-69796503D01*
X173868386Y-69720814D01*
X173839396Y-69650825D01*
X173839394Y-69650822D01*
X173839394Y-69650821D01*
X173804694Y-69598889D01*
X173800267Y-69584754D01*
X173791436Y-69572854D01*
X173790036Y-69552080D01*
X173783816Y-69532215D01*
X173787655Y-69516729D01*
X173786740Y-69503142D01*
X173796949Y-69479239D01*
X173799210Y-69470124D01*
X173801753Y-69465511D01*
X173831393Y-69421153D01*
X176299500Y-69421153D01*
X176299500Y-69578846D01*
X176330261Y-69733489D01*
X176330264Y-69733501D01*
X176390602Y-69879172D01*
X176390609Y-69879185D01*
X176478210Y-70010288D01*
X176478213Y-70010292D01*
X176589707Y-70121786D01*
X176589711Y-70121789D01*
X176720814Y-70209390D01*
X176720827Y-70209397D01*
X176851419Y-70263489D01*
X176866503Y-70269737D01*
X177021153Y-70300499D01*
X177021156Y-70300500D01*
X177021158Y-70300500D01*
X177178844Y-70300500D01*
X177178845Y-70300499D01*
X177333497Y-70269737D01*
X177479179Y-70209394D01*
X177610289Y-70121789D01*
X177680925Y-70051153D01*
X179029500Y-70051153D01*
X179029500Y-70208846D01*
X179060261Y-70363489D01*
X179060264Y-70363501D01*
X179120602Y-70509172D01*
X179120609Y-70509185D01*
X179208210Y-70640288D01*
X179208213Y-70640292D01*
X179319707Y-70751786D01*
X179319711Y-70751789D01*
X179450814Y-70839390D01*
X179450827Y-70839397D01*
X179544534Y-70878211D01*
X179596503Y-70899737D01*
X179746131Y-70929500D01*
X179751153Y-70930499D01*
X179751156Y-70930500D01*
X179751158Y-70930500D01*
X179908844Y-70930500D01*
X179908845Y-70930499D01*
X180063497Y-70899737D01*
X180209179Y-70839394D01*
X180340289Y-70751789D01*
X180451789Y-70640289D01*
X180539394Y-70509179D01*
X180599737Y-70363497D01*
X180630500Y-70208842D01*
X180630500Y-70051158D01*
X180624531Y-70021153D01*
X182799500Y-70021153D01*
X182799500Y-70178846D01*
X182830261Y-70333489D01*
X182830264Y-70333501D01*
X182890602Y-70479172D01*
X182890609Y-70479185D01*
X182978210Y-70610288D01*
X182978213Y-70610292D01*
X183089707Y-70721786D01*
X183089711Y-70721789D01*
X183220814Y-70809390D01*
X183220827Y-70809397D01*
X183366498Y-70869735D01*
X183366503Y-70869737D01*
X183501039Y-70896498D01*
X183521153Y-70900499D01*
X183521156Y-70900500D01*
X183521158Y-70900500D01*
X183678844Y-70900500D01*
X183678845Y-70900499D01*
X183833497Y-70869737D01*
X183979179Y-70809394D01*
X184110289Y-70721789D01*
X184221789Y-70610289D01*
X184309394Y-70479179D01*
X184369737Y-70333497D01*
X184400500Y-70178842D01*
X184400500Y-70021158D01*
X184400500Y-70021155D01*
X184400499Y-70021153D01*
X184386575Y-69951153D01*
X184369737Y-69866503D01*
X184340745Y-69796510D01*
X184309397Y-69720827D01*
X184309390Y-69720814D01*
X184221789Y-69589711D01*
X184221786Y-69589707D01*
X184110292Y-69478213D01*
X184110288Y-69478210D01*
X183979185Y-69390609D01*
X183979172Y-69390602D01*
X183833501Y-69330264D01*
X183833489Y-69330261D01*
X183678845Y-69299500D01*
X183678842Y-69299500D01*
X183521158Y-69299500D01*
X183521155Y-69299500D01*
X183366510Y-69330261D01*
X183366498Y-69330264D01*
X183220827Y-69390602D01*
X183220814Y-69390609D01*
X183089711Y-69478210D01*
X183089707Y-69478213D01*
X182978213Y-69589707D01*
X182978210Y-69589711D01*
X182890609Y-69720814D01*
X182890602Y-69720827D01*
X182830264Y-69866498D01*
X182830261Y-69866510D01*
X182799500Y-70021153D01*
X180624531Y-70021153D01*
X180622370Y-70010288D01*
X180615585Y-69976175D01*
X180599737Y-69896503D01*
X180558314Y-69796498D01*
X180539397Y-69750827D01*
X180539390Y-69750814D01*
X180451789Y-69619711D01*
X180451786Y-69619707D01*
X180340292Y-69508213D01*
X180340288Y-69508210D01*
X180209185Y-69420609D01*
X180209172Y-69420602D01*
X180063501Y-69360264D01*
X180063489Y-69360261D01*
X179908845Y-69329500D01*
X179908842Y-69329500D01*
X179751158Y-69329500D01*
X179751155Y-69329500D01*
X179596510Y-69360261D01*
X179596498Y-69360264D01*
X179450827Y-69420602D01*
X179450814Y-69420609D01*
X179319711Y-69508210D01*
X179319707Y-69508213D01*
X179208213Y-69619707D01*
X179208210Y-69619711D01*
X179120609Y-69750814D01*
X179120602Y-69750827D01*
X179060264Y-69896498D01*
X179060261Y-69896510D01*
X179029500Y-70051153D01*
X177680925Y-70051153D01*
X177721789Y-70010289D01*
X177732696Y-69993965D01*
X177744584Y-69976175D01*
X177809390Y-69879185D01*
X177809390Y-69879184D01*
X177809394Y-69879179D01*
X177869737Y-69733497D01*
X177900500Y-69578842D01*
X177900500Y-69421158D01*
X177900500Y-69421155D01*
X177900499Y-69421153D01*
X177882268Y-69329500D01*
X177869737Y-69266503D01*
X177868489Y-69263489D01*
X177809397Y-69120827D01*
X177809390Y-69120814D01*
X177721789Y-68989711D01*
X177721786Y-68989707D01*
X177610292Y-68878213D01*
X177610288Y-68878210D01*
X177479185Y-68790609D01*
X177479172Y-68790602D01*
X177333501Y-68730264D01*
X177333489Y-68730261D01*
X177178845Y-68699500D01*
X177178842Y-68699500D01*
X177021158Y-68699500D01*
X177021155Y-68699500D01*
X176866510Y-68730261D01*
X176866498Y-68730264D01*
X176720827Y-68790602D01*
X176720814Y-68790609D01*
X176589711Y-68878210D01*
X176589707Y-68878213D01*
X176478213Y-68989707D01*
X176478210Y-68989711D01*
X176390609Y-69120814D01*
X176390602Y-69120827D01*
X176330264Y-69266498D01*
X176330261Y-69266510D01*
X176299500Y-69421153D01*
X173831393Y-69421153D01*
X173839394Y-69409179D01*
X173899737Y-69263497D01*
X173930500Y-69108842D01*
X173930500Y-68951158D01*
X173930500Y-68951155D01*
X173930499Y-68951153D01*
X173915990Y-68878211D01*
X173899737Y-68796503D01*
X173872299Y-68730261D01*
X173839397Y-68650827D01*
X173839390Y-68650814D01*
X173751789Y-68519711D01*
X173751786Y-68519707D01*
X173640292Y-68408213D01*
X173640288Y-68408210D01*
X173509185Y-68320609D01*
X173509172Y-68320602D01*
X173363501Y-68260264D01*
X173363489Y-68260261D01*
X173208845Y-68229500D01*
X173208842Y-68229500D01*
X173051158Y-68229500D01*
X173051155Y-68229500D01*
X172896510Y-68260261D01*
X172896498Y-68260264D01*
X172750827Y-68320602D01*
X172750814Y-68320609D01*
X172619711Y-68408210D01*
X172619707Y-68408213D01*
X172508213Y-68519707D01*
X172508210Y-68519711D01*
X172420609Y-68650814D01*
X172420602Y-68650827D01*
X172360264Y-68796498D01*
X172360261Y-68796510D01*
X172329500Y-68951153D01*
X116600500Y-68951153D01*
X116600500Y-66151153D01*
X136829500Y-66151153D01*
X136829500Y-66308846D01*
X136860261Y-66463489D01*
X136860264Y-66463501D01*
X136920602Y-66609172D01*
X136920609Y-66609185D01*
X137008210Y-66740288D01*
X137008213Y-66740292D01*
X137119707Y-66851786D01*
X137119711Y-66851789D01*
X137250814Y-66939390D01*
X137250827Y-66939397D01*
X137375955Y-66991226D01*
X137396503Y-66999737D01*
X137551153Y-67030499D01*
X137551156Y-67030500D01*
X137551158Y-67030500D01*
X137708844Y-67030500D01*
X137708845Y-67030499D01*
X137863497Y-66999737D01*
X137976166Y-66953067D01*
X138009172Y-66939397D01*
X138009172Y-66939396D01*
X138009179Y-66939394D01*
X138140289Y-66851789D01*
X138251789Y-66740289D01*
X138339394Y-66609179D01*
X138399737Y-66463497D01*
X138430500Y-66308842D01*
X138430500Y-66151158D01*
X138430500Y-66151155D01*
X138430499Y-66151153D01*
X138408447Y-66040292D01*
X138399737Y-65996503D01*
X138399735Y-65996498D01*
X138339397Y-65850827D01*
X138339390Y-65850814D01*
X138251789Y-65719711D01*
X138251786Y-65719707D01*
X138140292Y-65608213D01*
X138140288Y-65608210D01*
X138054897Y-65551153D01*
X138629500Y-65551153D01*
X138629500Y-65708846D01*
X138660261Y-65863489D01*
X138660264Y-65863501D01*
X138720602Y-66009172D01*
X138720609Y-66009185D01*
X138808210Y-66140288D01*
X138808213Y-66140292D01*
X138919707Y-66251786D01*
X138919711Y-66251789D01*
X139050814Y-66339390D01*
X139050827Y-66339397D01*
X139196498Y-66399735D01*
X139196503Y-66399737D01*
X139351153Y-66430499D01*
X139351156Y-66430500D01*
X139351158Y-66430500D01*
X139508844Y-66430500D01*
X139508845Y-66430499D01*
X139663497Y-66399737D01*
X139809179Y-66339394D01*
X139940289Y-66251789D01*
X139972480Y-66219598D01*
X140051122Y-66140957D01*
X140051786Y-66140292D01*
X140051789Y-66140289D01*
X140139394Y-66009179D01*
X140199737Y-65863497D01*
X140230500Y-65708842D01*
X140230500Y-65551158D01*
X140230500Y-65551155D01*
X140230499Y-65551153D01*
X140212419Y-65460261D01*
X140199737Y-65396503D01*
X140163569Y-65309185D01*
X140139397Y-65250827D01*
X140139390Y-65250814D01*
X140051789Y-65119711D01*
X140051786Y-65119707D01*
X139940292Y-65008213D01*
X139940288Y-65008210D01*
X139938709Y-65007155D01*
X143395000Y-65007155D01*
X143395000Y-65780000D01*
X144269999Y-65780000D01*
X144244979Y-65840402D01*
X144220000Y-65965981D01*
X144220000Y-66094019D01*
X144244979Y-66219598D01*
X144269999Y-66280000D01*
X143395000Y-66280000D01*
X143395000Y-67052844D01*
X143401401Y-67112372D01*
X143401403Y-67112379D01*
X143451645Y-67247086D01*
X143451649Y-67247093D01*
X143537809Y-67362187D01*
X143537812Y-67362190D01*
X143652906Y-67448350D01*
X143652913Y-67448354D01*
X143787620Y-67498596D01*
X143787627Y-67498598D01*
X143847155Y-67504999D01*
X143847172Y-67505000D01*
X144620000Y-67505000D01*
X144620000Y-66630001D01*
X144680402Y-66655021D01*
X144805981Y-66680000D01*
X144934019Y-66680000D01*
X145059598Y-66655021D01*
X145120000Y-66630001D01*
X145120000Y-67505000D01*
X145892828Y-67505000D01*
X145892844Y-67504999D01*
X145952372Y-67498598D01*
X145952379Y-67498596D01*
X146087086Y-67448354D01*
X146087093Y-67448350D01*
X146202187Y-67362190D01*
X146202190Y-67362187D01*
X146288351Y-67247092D01*
X146290780Y-67242644D01*
X146340183Y-67193236D01*
X146408455Y-67178380D01*
X146472498Y-67201746D01*
X146596669Y-67291961D01*
X146694436Y-67341776D01*
X146803599Y-67397398D01*
X146803601Y-67397398D01*
X146803604Y-67397400D01*
X147024486Y-67469169D01*
X147142668Y-67487886D01*
X147253871Y-67505500D01*
X147253876Y-67505500D01*
X147486129Y-67505500D01*
X147587502Y-67489443D01*
X147715514Y-67469169D01*
X147936396Y-67397400D01*
X148143331Y-67291961D01*
X148331224Y-67155449D01*
X148495449Y-66991224D01*
X148519681Y-66957871D01*
X148575010Y-66915205D01*
X148644623Y-66909224D01*
X148706418Y-66941829D01*
X148720320Y-66957872D01*
X148744549Y-66991222D01*
X148744551Y-66991224D01*
X148908776Y-67155449D01*
X149096669Y-67291961D01*
X149194436Y-67341776D01*
X149303599Y-67397398D01*
X149303601Y-67397398D01*
X149303604Y-67397400D01*
X149524486Y-67469169D01*
X149642668Y-67487886D01*
X149753871Y-67505500D01*
X149753876Y-67505500D01*
X149986129Y-67505500D01*
X150087502Y-67489443D01*
X150215514Y-67469169D01*
X150436396Y-67397400D01*
X150643331Y-67291961D01*
X150831224Y-67155449D01*
X150995449Y-66991224D01*
X151019681Y-66957871D01*
X151075010Y-66915205D01*
X151144623Y-66909224D01*
X151206418Y-66941829D01*
X151220320Y-66957872D01*
X151244549Y-66991222D01*
X151244551Y-66991224D01*
X151408776Y-67155449D01*
X151596669Y-67291961D01*
X151694436Y-67341776D01*
X151803599Y-67397398D01*
X151803601Y-67397398D01*
X151803604Y-67397400D01*
X152024486Y-67469169D01*
X152142668Y-67487886D01*
X152253871Y-67505500D01*
X152253876Y-67505500D01*
X152486129Y-67505500D01*
X152587502Y-67489443D01*
X152715514Y-67469169D01*
X152936396Y-67397400D01*
X153143331Y-67291961D01*
X153331224Y-67155449D01*
X153495449Y-66991224D01*
X153519681Y-66957871D01*
X153575010Y-66915205D01*
X153644623Y-66909224D01*
X153706418Y-66941829D01*
X153720320Y-66957872D01*
X153744549Y-66991222D01*
X153744551Y-66991224D01*
X153908776Y-67155449D01*
X154096669Y-67291961D01*
X154194436Y-67341776D01*
X154303599Y-67397398D01*
X154303601Y-67397398D01*
X154303604Y-67397400D01*
X154524486Y-67469169D01*
X154642668Y-67487886D01*
X154753871Y-67505500D01*
X154753876Y-67505500D01*
X154986129Y-67505500D01*
X155087502Y-67489443D01*
X155215514Y-67469169D01*
X155436396Y-67397400D01*
X155643331Y-67291961D01*
X155831224Y-67155449D01*
X155995449Y-66991224D01*
X156019681Y-66957871D01*
X156075010Y-66915205D01*
X156144623Y-66909224D01*
X156206418Y-66941829D01*
X156220320Y-66957872D01*
X156244549Y-66991222D01*
X156244551Y-66991224D01*
X156408776Y-67155449D01*
X156596669Y-67291961D01*
X156694436Y-67341776D01*
X156803599Y-67397398D01*
X156803601Y-67397398D01*
X156803604Y-67397400D01*
X157024486Y-67469169D01*
X157142668Y-67487886D01*
X157253871Y-67505500D01*
X157253876Y-67505500D01*
X157486129Y-67505500D01*
X157587502Y-67489443D01*
X157715514Y-67469169D01*
X157936396Y-67397400D01*
X158143331Y-67291961D01*
X158331224Y-67155449D01*
X158495449Y-66991224D01*
X158519681Y-66957871D01*
X158575010Y-66915205D01*
X158644623Y-66909224D01*
X158706418Y-66941829D01*
X158720320Y-66957872D01*
X158744549Y-66991222D01*
X158744551Y-66991224D01*
X158908776Y-67155449D01*
X159096669Y-67291961D01*
X159194436Y-67341776D01*
X159303599Y-67397398D01*
X159303601Y-67397398D01*
X159303604Y-67397400D01*
X159524486Y-67469169D01*
X159642668Y-67487886D01*
X159753871Y-67505500D01*
X159753876Y-67505500D01*
X159986129Y-67505500D01*
X160087502Y-67489443D01*
X160215514Y-67469169D01*
X160436396Y-67397400D01*
X160643331Y-67291961D01*
X160831224Y-67155449D01*
X160995449Y-66991224D01*
X161019681Y-66957871D01*
X161075010Y-66915205D01*
X161144623Y-66909224D01*
X161206418Y-66941829D01*
X161220320Y-66957872D01*
X161244549Y-66991222D01*
X161244551Y-66991224D01*
X161408776Y-67155449D01*
X161596669Y-67291961D01*
X161694436Y-67341776D01*
X161803599Y-67397398D01*
X161803601Y-67397398D01*
X161803604Y-67397400D01*
X162024486Y-67469169D01*
X162142668Y-67487886D01*
X162253871Y-67505500D01*
X162253876Y-67505500D01*
X162486129Y-67505500D01*
X162587502Y-67489443D01*
X162715514Y-67469169D01*
X162936396Y-67397400D01*
X163143331Y-67291961D01*
X163331224Y-67155449D01*
X163495449Y-66991224D01*
X163519681Y-66957871D01*
X163575010Y-66915205D01*
X163644623Y-66909224D01*
X163706418Y-66941829D01*
X163720320Y-66957872D01*
X163744549Y-66991222D01*
X163744551Y-66991224D01*
X163908776Y-67155449D01*
X164096669Y-67291961D01*
X164194436Y-67341776D01*
X164303599Y-67397398D01*
X164303601Y-67397398D01*
X164303604Y-67397400D01*
X164524486Y-67469169D01*
X164642668Y-67487886D01*
X164753871Y-67505500D01*
X164753876Y-67505500D01*
X164986129Y-67505500D01*
X165087502Y-67489443D01*
X165215514Y-67469169D01*
X165436396Y-67397400D01*
X165643331Y-67291961D01*
X165831224Y-67155449D01*
X165995449Y-66991224D01*
X166019681Y-66957871D01*
X166075010Y-66915205D01*
X166144623Y-66909224D01*
X166206418Y-66941829D01*
X166220320Y-66957872D01*
X166244549Y-66991222D01*
X166244551Y-66991224D01*
X166408776Y-67155449D01*
X166596669Y-67291961D01*
X166694436Y-67341776D01*
X166803599Y-67397398D01*
X166803601Y-67397398D01*
X166803604Y-67397400D01*
X167024486Y-67469169D01*
X167142668Y-67487886D01*
X167253871Y-67505500D01*
X167253876Y-67505500D01*
X167486129Y-67505500D01*
X167587502Y-67489443D01*
X167715514Y-67469169D01*
X167936396Y-67397400D01*
X168143331Y-67291961D01*
X168331224Y-67155449D01*
X168495449Y-66991224D01*
X168519681Y-66957871D01*
X168575010Y-66915205D01*
X168644623Y-66909224D01*
X168706418Y-66941829D01*
X168720320Y-66957872D01*
X168744549Y-66991222D01*
X168744551Y-66991224D01*
X168908776Y-67155449D01*
X169096669Y-67291961D01*
X169194436Y-67341776D01*
X169303599Y-67397398D01*
X169303601Y-67397398D01*
X169303604Y-67397400D01*
X169524486Y-67469169D01*
X169642668Y-67487886D01*
X169753871Y-67505500D01*
X169753876Y-67505500D01*
X169986129Y-67505500D01*
X170087502Y-67489443D01*
X170215514Y-67469169D01*
X170436396Y-67397400D01*
X170643331Y-67291961D01*
X170831224Y-67155449D01*
X170995449Y-66991224D01*
X171019681Y-66957871D01*
X171075010Y-66915205D01*
X171144623Y-66909224D01*
X171206418Y-66941829D01*
X171220320Y-66957872D01*
X171244549Y-66991222D01*
X171244551Y-66991224D01*
X171408776Y-67155449D01*
X171596669Y-67291961D01*
X171694436Y-67341776D01*
X171803599Y-67397398D01*
X171803601Y-67397398D01*
X171803604Y-67397400D01*
X172024486Y-67469169D01*
X172142668Y-67487886D01*
X172253871Y-67505500D01*
X172253876Y-67505500D01*
X172486129Y-67505500D01*
X172587502Y-67489443D01*
X172715514Y-67469169D01*
X172936396Y-67397400D01*
X173143331Y-67291961D01*
X173331224Y-67155449D01*
X173495449Y-66991224D01*
X173631961Y-66803331D01*
X173737400Y-66596396D01*
X173809169Y-66375514D01*
X173830728Y-66239394D01*
X173845500Y-66146129D01*
X173845500Y-65913870D01*
X173821683Y-65763497D01*
X173809169Y-65684486D01*
X173809168Y-65684482D01*
X173809168Y-65684481D01*
X173743827Y-65483384D01*
X173743826Y-65483382D01*
X173737400Y-65463603D01*
X173731056Y-65451153D01*
X185029500Y-65451153D01*
X185029500Y-65608846D01*
X185060261Y-65763489D01*
X185060264Y-65763501D01*
X185120602Y-65909172D01*
X185120609Y-65909185D01*
X185208210Y-66040288D01*
X185208213Y-66040292D01*
X185319707Y-66151786D01*
X185319711Y-66151789D01*
X185450814Y-66239390D01*
X185450827Y-66239397D01*
X185548853Y-66280000D01*
X185596503Y-66299737D01*
X185751153Y-66330499D01*
X185751156Y-66330500D01*
X185751158Y-66330500D01*
X185908844Y-66330500D01*
X185908845Y-66330499D01*
X186063497Y-66299737D01*
X186209179Y-66239394D01*
X186340289Y-66151789D01*
X186451789Y-66040289D01*
X186539394Y-65909179D01*
X186599737Y-65763497D01*
X186630500Y-65608842D01*
X186630500Y-65451158D01*
X186630500Y-65451155D01*
X186630499Y-65451153D01*
X186616346Y-65380000D01*
X186599737Y-65296503D01*
X186599735Y-65296498D01*
X186539397Y-65150827D01*
X186539390Y-65150814D01*
X186451789Y-65019711D01*
X186451786Y-65019707D01*
X186340292Y-64908213D01*
X186340288Y-64908210D01*
X186209185Y-64820609D01*
X186209172Y-64820602D01*
X186063501Y-64760264D01*
X186063489Y-64760261D01*
X185908845Y-64729500D01*
X185908842Y-64729500D01*
X185751158Y-64729500D01*
X185751155Y-64729500D01*
X185596510Y-64760261D01*
X185596498Y-64760264D01*
X185450827Y-64820602D01*
X185450814Y-64820609D01*
X185319711Y-64908210D01*
X185319707Y-64908213D01*
X185208213Y-65019707D01*
X185208210Y-65019711D01*
X185120609Y-65150814D01*
X185120602Y-65150827D01*
X185060264Y-65296498D01*
X185060261Y-65296510D01*
X185029500Y-65451153D01*
X173731056Y-65451153D01*
X173658716Y-65309179D01*
X173631961Y-65256669D01*
X173495449Y-65068776D01*
X173331224Y-64904551D01*
X173143331Y-64768039D01*
X173128066Y-64760261D01*
X172936400Y-64662601D01*
X172715514Y-64590831D01*
X172486129Y-64554500D01*
X172486124Y-64554500D01*
X172253876Y-64554500D01*
X172253871Y-64554500D01*
X172024485Y-64590831D01*
X171803599Y-64662601D01*
X171596668Y-64768039D01*
X171408773Y-64904553D01*
X171244553Y-65068773D01*
X171244546Y-65068782D01*
X171220317Y-65102130D01*
X171164987Y-65144796D01*
X171095374Y-65150774D01*
X171033579Y-65118167D01*
X171019683Y-65102130D01*
X170995453Y-65068782D01*
X170995449Y-65068776D01*
X170831224Y-64904551D01*
X170643331Y-64768039D01*
X170628066Y-64760261D01*
X170436400Y-64662601D01*
X170215514Y-64590831D01*
X169986129Y-64554500D01*
X169986124Y-64554500D01*
X169753876Y-64554500D01*
X169753871Y-64554500D01*
X169524485Y-64590831D01*
X169303599Y-64662601D01*
X169096668Y-64768039D01*
X168908773Y-64904553D01*
X168744553Y-65068773D01*
X168744546Y-65068782D01*
X168720317Y-65102130D01*
X168664987Y-65144796D01*
X168595374Y-65150774D01*
X168533579Y-65118167D01*
X168519683Y-65102130D01*
X168495453Y-65068782D01*
X168495449Y-65068776D01*
X168331224Y-64904551D01*
X168143331Y-64768039D01*
X168128066Y-64760261D01*
X167936400Y-64662601D01*
X167715514Y-64590831D01*
X167486129Y-64554500D01*
X167486124Y-64554500D01*
X167253876Y-64554500D01*
X167253871Y-64554500D01*
X167024485Y-64590831D01*
X166803599Y-64662601D01*
X166596668Y-64768039D01*
X166408773Y-64904553D01*
X166244553Y-65068773D01*
X166244546Y-65068782D01*
X166220317Y-65102130D01*
X166164987Y-65144796D01*
X166095374Y-65150774D01*
X166033579Y-65118167D01*
X166019683Y-65102130D01*
X165995453Y-65068782D01*
X165995449Y-65068776D01*
X165831224Y-64904551D01*
X165643331Y-64768039D01*
X165628066Y-64760261D01*
X165436400Y-64662601D01*
X165215514Y-64590831D01*
X164986129Y-64554500D01*
X164986124Y-64554500D01*
X164753876Y-64554500D01*
X164753871Y-64554500D01*
X164524485Y-64590831D01*
X164303599Y-64662601D01*
X164096668Y-64768039D01*
X163908773Y-64904553D01*
X163744553Y-65068773D01*
X163744546Y-65068782D01*
X163720317Y-65102130D01*
X163664987Y-65144796D01*
X163595374Y-65150774D01*
X163533579Y-65118167D01*
X163519683Y-65102130D01*
X163495453Y-65068782D01*
X163495449Y-65068776D01*
X163331224Y-64904551D01*
X163143331Y-64768039D01*
X163128066Y-64760261D01*
X162936400Y-64662601D01*
X162715514Y-64590831D01*
X162486129Y-64554500D01*
X162486124Y-64554500D01*
X162253876Y-64554500D01*
X162253871Y-64554500D01*
X162024485Y-64590831D01*
X161803599Y-64662601D01*
X161596668Y-64768039D01*
X161408773Y-64904553D01*
X161244553Y-65068773D01*
X161244546Y-65068782D01*
X161220317Y-65102130D01*
X161164987Y-65144796D01*
X161095374Y-65150774D01*
X161033579Y-65118167D01*
X161019683Y-65102130D01*
X160995453Y-65068782D01*
X160995449Y-65068776D01*
X160831224Y-64904551D01*
X160643331Y-64768039D01*
X160628066Y-64760261D01*
X160436400Y-64662601D01*
X160215514Y-64590831D01*
X159986129Y-64554500D01*
X159986124Y-64554500D01*
X159753876Y-64554500D01*
X159753871Y-64554500D01*
X159524485Y-64590831D01*
X159303599Y-64662601D01*
X159096668Y-64768039D01*
X158908773Y-64904553D01*
X158744553Y-65068773D01*
X158744546Y-65068782D01*
X158720317Y-65102130D01*
X158664987Y-65144796D01*
X158595374Y-65150774D01*
X158533579Y-65118167D01*
X158519683Y-65102130D01*
X158495453Y-65068782D01*
X158495449Y-65068776D01*
X158331224Y-64904551D01*
X158143331Y-64768039D01*
X158128066Y-64760261D01*
X157936400Y-64662601D01*
X157715514Y-64590831D01*
X157486129Y-64554500D01*
X157486124Y-64554500D01*
X157253876Y-64554500D01*
X157253871Y-64554500D01*
X157024485Y-64590831D01*
X156803599Y-64662601D01*
X156596668Y-64768039D01*
X156408773Y-64904553D01*
X156244553Y-65068773D01*
X156244546Y-65068782D01*
X156220317Y-65102130D01*
X156164987Y-65144796D01*
X156095374Y-65150774D01*
X156033579Y-65118167D01*
X156019683Y-65102130D01*
X155995453Y-65068782D01*
X155995449Y-65068776D01*
X155831224Y-64904551D01*
X155643331Y-64768039D01*
X155628066Y-64760261D01*
X155436400Y-64662601D01*
X155215514Y-64590831D01*
X154986129Y-64554500D01*
X154986124Y-64554500D01*
X154753876Y-64554500D01*
X154753871Y-64554500D01*
X154524485Y-64590831D01*
X154303599Y-64662601D01*
X154096668Y-64768039D01*
X153908773Y-64904553D01*
X153744553Y-65068773D01*
X153744546Y-65068782D01*
X153720317Y-65102130D01*
X153664987Y-65144796D01*
X153595374Y-65150774D01*
X153533579Y-65118167D01*
X153519683Y-65102130D01*
X153495453Y-65068782D01*
X153495449Y-65068776D01*
X153331224Y-64904551D01*
X153143331Y-64768039D01*
X153128066Y-64760261D01*
X152936400Y-64662601D01*
X152715514Y-64590831D01*
X152486129Y-64554500D01*
X152486124Y-64554500D01*
X152253876Y-64554500D01*
X152253871Y-64554500D01*
X152024485Y-64590831D01*
X151803599Y-64662601D01*
X151596668Y-64768039D01*
X151408773Y-64904553D01*
X151244553Y-65068773D01*
X151244546Y-65068782D01*
X151220317Y-65102130D01*
X151164987Y-65144796D01*
X151095374Y-65150774D01*
X151033579Y-65118167D01*
X151019683Y-65102130D01*
X150995453Y-65068782D01*
X150995449Y-65068776D01*
X150831224Y-64904551D01*
X150643331Y-64768039D01*
X150628066Y-64760261D01*
X150436400Y-64662601D01*
X150215514Y-64590831D01*
X149986129Y-64554500D01*
X149986124Y-64554500D01*
X149753876Y-64554500D01*
X149753871Y-64554500D01*
X149524485Y-64590831D01*
X149303599Y-64662601D01*
X149096668Y-64768039D01*
X148908773Y-64904553D01*
X148744553Y-65068773D01*
X148744546Y-65068782D01*
X148720317Y-65102130D01*
X148664987Y-65144796D01*
X148595374Y-65150774D01*
X148533579Y-65118167D01*
X148519683Y-65102130D01*
X148495453Y-65068782D01*
X148495449Y-65068776D01*
X148331224Y-64904551D01*
X148143331Y-64768039D01*
X148128066Y-64760261D01*
X147936400Y-64662601D01*
X147715514Y-64590831D01*
X147486129Y-64554500D01*
X147486124Y-64554500D01*
X147253876Y-64554500D01*
X147253871Y-64554500D01*
X147024485Y-64590831D01*
X146803599Y-64662601D01*
X146596669Y-64768038D01*
X146472500Y-64858252D01*
X146406693Y-64881731D01*
X146338639Y-64865905D01*
X146290784Y-64817362D01*
X146288352Y-64812908D01*
X146202190Y-64697812D01*
X146202187Y-64697809D01*
X146087093Y-64611649D01*
X146087086Y-64611645D01*
X145952379Y-64561403D01*
X145952372Y-64561401D01*
X145892844Y-64555000D01*
X145120000Y-64555000D01*
X145120000Y-65429998D01*
X145059598Y-65404979D01*
X144934019Y-65380000D01*
X144805981Y-65380000D01*
X144680402Y-65404979D01*
X144620000Y-65429998D01*
X144620000Y-64555000D01*
X143847155Y-64555000D01*
X143787627Y-64561401D01*
X143787620Y-64561403D01*
X143652913Y-64611645D01*
X143652906Y-64611649D01*
X143537812Y-64697809D01*
X143537809Y-64697812D01*
X143451649Y-64812906D01*
X143451645Y-64812913D01*
X143401403Y-64947620D01*
X143401401Y-64947627D01*
X143395000Y-65007155D01*
X139938709Y-65007155D01*
X139809185Y-64920609D01*
X139809172Y-64920602D01*
X139663501Y-64860264D01*
X139663489Y-64860261D01*
X139508845Y-64829500D01*
X139508842Y-64829500D01*
X139351158Y-64829500D01*
X139351155Y-64829500D01*
X139196510Y-64860261D01*
X139196498Y-64860264D01*
X139050827Y-64920602D01*
X139050814Y-64920609D01*
X138919711Y-65008210D01*
X138919707Y-65008213D01*
X138808213Y-65119707D01*
X138808210Y-65119711D01*
X138720609Y-65250814D01*
X138720602Y-65250827D01*
X138660264Y-65396498D01*
X138660261Y-65396510D01*
X138629500Y-65551153D01*
X138054897Y-65551153D01*
X138009185Y-65520609D01*
X138009172Y-65520602D01*
X137863501Y-65460264D01*
X137863489Y-65460261D01*
X137708845Y-65429500D01*
X137708842Y-65429500D01*
X137551158Y-65429500D01*
X137551155Y-65429500D01*
X137396510Y-65460261D01*
X137396498Y-65460264D01*
X137250827Y-65520602D01*
X137250814Y-65520609D01*
X137119711Y-65608210D01*
X137119707Y-65608213D01*
X137008213Y-65719707D01*
X137008210Y-65719711D01*
X136920609Y-65850814D01*
X136920602Y-65850827D01*
X136860264Y-65996498D01*
X136860261Y-65996510D01*
X136829500Y-66151153D01*
X116600500Y-66151153D01*
X116600500Y-64851153D01*
X132629500Y-64851153D01*
X132629500Y-65008846D01*
X132660261Y-65163489D01*
X132660264Y-65163501D01*
X132720602Y-65309172D01*
X132720609Y-65309185D01*
X132808210Y-65440288D01*
X132808213Y-65440292D01*
X132919707Y-65551786D01*
X132919711Y-65551789D01*
X133050814Y-65639390D01*
X133050827Y-65639397D01*
X133196498Y-65699735D01*
X133196503Y-65699737D01*
X133308979Y-65722110D01*
X133351153Y-65730499D01*
X133351156Y-65730500D01*
X133351158Y-65730500D01*
X133508844Y-65730500D01*
X133508845Y-65730499D01*
X133663497Y-65699737D01*
X133809179Y-65639394D01*
X133940289Y-65551789D01*
X134051789Y-65440289D01*
X134139394Y-65309179D01*
X134199737Y-65163497D01*
X134204567Y-65139213D01*
X134236950Y-65077305D01*
X134297665Y-65042729D01*
X134367434Y-65046467D01*
X134373616Y-65048836D01*
X134496503Y-65099737D01*
X134651153Y-65130499D01*
X134651156Y-65130500D01*
X134651158Y-65130500D01*
X134808844Y-65130500D01*
X134808845Y-65130499D01*
X134963497Y-65099737D01*
X135109179Y-65039394D01*
X135240289Y-64951789D01*
X135351789Y-64840289D01*
X135439394Y-64709179D01*
X135488452Y-64590740D01*
X135532290Y-64536342D01*
X135578815Y-64516581D01*
X135663497Y-64499737D01*
X135809179Y-64439394D01*
X135940289Y-64351789D01*
X136051789Y-64240289D01*
X136139394Y-64109179D01*
X136199737Y-63963497D01*
X136230500Y-63808842D01*
X136230500Y-63651158D01*
X136230500Y-63651155D01*
X136230499Y-63651153D01*
X136209069Y-63543419D01*
X136199737Y-63496503D01*
X136188451Y-63469255D01*
X136139397Y-63350827D01*
X136139390Y-63350814D01*
X136051789Y-63219711D01*
X136051786Y-63219707D01*
X135940292Y-63108213D01*
X135940288Y-63108210D01*
X135809185Y-63020609D01*
X135809172Y-63020602D01*
X135663501Y-62960264D01*
X135663489Y-62960261D01*
X135508845Y-62929500D01*
X135508842Y-62929500D01*
X135351158Y-62929500D01*
X135351155Y-62929500D01*
X135196510Y-62960261D01*
X135196498Y-62960264D01*
X135050827Y-63020602D01*
X135050814Y-63020609D01*
X134919711Y-63108210D01*
X134919707Y-63108213D01*
X134808213Y-63219707D01*
X134808210Y-63219711D01*
X134720609Y-63350814D01*
X134720604Y-63350823D01*
X134671549Y-63469255D01*
X134627708Y-63523658D01*
X134581180Y-63543419D01*
X134496508Y-63560261D01*
X134496498Y-63560264D01*
X134350827Y-63620602D01*
X134350814Y-63620609D01*
X134219711Y-63708210D01*
X134219707Y-63708213D01*
X134108213Y-63819707D01*
X134108210Y-63819711D01*
X134020609Y-63950814D01*
X134020602Y-63950827D01*
X133960264Y-64096498D01*
X133960261Y-64096507D01*
X133955432Y-64120787D01*
X133923046Y-64182698D01*
X133862330Y-64217271D01*
X133792560Y-64213530D01*
X133786363Y-64211155D01*
X133663501Y-64160264D01*
X133663489Y-64160261D01*
X133508845Y-64129500D01*
X133508842Y-64129500D01*
X133351158Y-64129500D01*
X133351155Y-64129500D01*
X133196510Y-64160261D01*
X133196498Y-64160264D01*
X133050827Y-64220602D01*
X133050814Y-64220609D01*
X132919711Y-64308210D01*
X132919707Y-64308213D01*
X132808213Y-64419707D01*
X132808210Y-64419711D01*
X132720609Y-64550814D01*
X132720602Y-64550827D01*
X132660264Y-64696498D01*
X132660261Y-64696510D01*
X132629500Y-64851153D01*
X116600500Y-64851153D01*
X116600500Y-63051153D01*
X129829500Y-63051153D01*
X129829500Y-63208846D01*
X129860261Y-63363489D01*
X129860264Y-63363501D01*
X129920602Y-63509172D01*
X129920609Y-63509185D01*
X130008210Y-63640288D01*
X130008213Y-63640292D01*
X130119707Y-63751786D01*
X130119711Y-63751789D01*
X130250814Y-63839390D01*
X130250827Y-63839397D01*
X130396498Y-63899735D01*
X130396503Y-63899737D01*
X130551153Y-63930499D01*
X130551156Y-63930500D01*
X130551158Y-63930500D01*
X130708844Y-63930500D01*
X130708845Y-63930499D01*
X130863497Y-63899737D01*
X131009179Y-63839394D01*
X131140289Y-63751789D01*
X131251789Y-63640289D01*
X131339394Y-63509179D01*
X131399737Y-63363497D01*
X131430500Y-63208842D01*
X131430500Y-63051158D01*
X131430500Y-63051155D01*
X131430499Y-63051153D01*
X131412419Y-62960261D01*
X131399737Y-62896503D01*
X131399735Y-62896498D01*
X131339397Y-62750827D01*
X131339390Y-62750814D01*
X131251789Y-62619711D01*
X131251786Y-62619707D01*
X131140292Y-62508213D01*
X131140288Y-62508210D01*
X131009185Y-62420609D01*
X131009172Y-62420602D01*
X130863501Y-62360264D01*
X130863489Y-62360261D01*
X130708845Y-62329500D01*
X130708842Y-62329500D01*
X130551158Y-62329500D01*
X130551155Y-62329500D01*
X130396510Y-62360261D01*
X130396498Y-62360264D01*
X130250827Y-62420602D01*
X130250814Y-62420609D01*
X130119711Y-62508210D01*
X130119707Y-62508213D01*
X130008213Y-62619707D01*
X130008210Y-62619711D01*
X129920609Y-62750814D01*
X129920602Y-62750827D01*
X129860264Y-62896498D01*
X129860261Y-62896510D01*
X129829500Y-63051153D01*
X116600500Y-63051153D01*
X116600500Y-59893713D01*
X119749500Y-59893713D01*
X119749500Y-60106286D01*
X119782753Y-60316239D01*
X119848444Y-60518414D01*
X119944951Y-60707820D01*
X120069890Y-60879786D01*
X120220213Y-61030109D01*
X120392179Y-61155048D01*
X120392181Y-61155049D01*
X120392184Y-61155051D01*
X120581588Y-61251557D01*
X120783757Y-61317246D01*
X120993713Y-61350500D01*
X120993714Y-61350500D01*
X121206286Y-61350500D01*
X121206287Y-61350500D01*
X121416243Y-61317246D01*
X121618412Y-61251557D01*
X121807816Y-61155051D01*
X121829789Y-61139086D01*
X121979786Y-61030109D01*
X121979788Y-61030106D01*
X121979792Y-61030104D01*
X122130104Y-60879792D01*
X122130106Y-60879788D01*
X122130109Y-60879786D01*
X122255048Y-60707820D01*
X122255047Y-60707820D01*
X122255051Y-60707816D01*
X122351557Y-60518412D01*
X122417246Y-60316243D01*
X122450500Y-60106287D01*
X122450500Y-59893713D01*
X194749500Y-59893713D01*
X194749500Y-60106286D01*
X194782753Y-60316239D01*
X194848444Y-60518414D01*
X194944951Y-60707820D01*
X195069890Y-60879786D01*
X195220213Y-61030109D01*
X195392179Y-61155048D01*
X195392181Y-61155049D01*
X195392184Y-61155051D01*
X195581588Y-61251557D01*
X195783757Y-61317246D01*
X195993713Y-61350500D01*
X195993714Y-61350500D01*
X196206286Y-61350500D01*
X196206287Y-61350500D01*
X196416243Y-61317246D01*
X196618412Y-61251557D01*
X196807816Y-61155051D01*
X196829789Y-61139086D01*
X196979786Y-61030109D01*
X196979788Y-61030106D01*
X196979792Y-61030104D01*
X197130104Y-60879792D01*
X197130106Y-60879788D01*
X197130109Y-60879786D01*
X197255048Y-60707820D01*
X197255047Y-60707820D01*
X197255051Y-60707816D01*
X197351557Y-60518412D01*
X197417246Y-60316243D01*
X197450500Y-60106287D01*
X197450500Y-59893713D01*
X197417246Y-59683757D01*
X197351557Y-59481588D01*
X197255051Y-59292184D01*
X197255049Y-59292181D01*
X197255048Y-59292179D01*
X197130109Y-59120213D01*
X196979786Y-58969890D01*
X196807820Y-58844951D01*
X196618414Y-58748444D01*
X196618413Y-58748443D01*
X196618412Y-58748443D01*
X196416243Y-58682754D01*
X196416241Y-58682753D01*
X196416240Y-58682753D01*
X196254957Y-58657208D01*
X196206287Y-58649500D01*
X195993713Y-58649500D01*
X195945042Y-58657208D01*
X195783760Y-58682753D01*
X195581585Y-58748444D01*
X195392179Y-58844951D01*
X195220213Y-58969890D01*
X195069890Y-59120213D01*
X194944951Y-59292179D01*
X194848444Y-59481585D01*
X194782753Y-59683760D01*
X194749500Y-59893713D01*
X122450500Y-59893713D01*
X122417246Y-59683757D01*
X122351557Y-59481588D01*
X122255051Y-59292184D01*
X122255049Y-59292181D01*
X122255048Y-59292179D01*
X122130109Y-59120213D01*
X121979786Y-58969890D01*
X121807820Y-58844951D01*
X121618414Y-58748444D01*
X121618413Y-58748443D01*
X121618412Y-58748443D01*
X121416243Y-58682754D01*
X121416241Y-58682753D01*
X121416240Y-58682753D01*
X121254957Y-58657208D01*
X121206287Y-58649500D01*
X120993713Y-58649500D01*
X120945042Y-58657208D01*
X120783760Y-58682753D01*
X120581585Y-58748444D01*
X120392179Y-58844951D01*
X120220213Y-58969890D01*
X120069890Y-59120213D01*
X119944951Y-59292179D01*
X119848444Y-59481585D01*
X119782753Y-59683760D01*
X119749500Y-59893713D01*
X116600500Y-59893713D01*
X116600500Y-55624500D01*
X116620185Y-55557461D01*
X116672989Y-55511706D01*
X116724500Y-55500500D01*
X200475500Y-55500500D01*
X200542539Y-55520185D01*
G37*
%TD.AperFunction*%
%TD*%
M02*
