%TF.GenerationSoftware,KiCad,Pcbnew,9.0.6*%
%TF.CreationDate,2025-12-08T21:47:26-05:00*%
%TF.ProjectId,electrical,656c6563-7472-4696-9361-6c2e6b696361,rev?*%
%TF.SameCoordinates,Original*%
%TF.FileFunction,Soldermask,Bot*%
%TF.FilePolarity,Negative*%
%FSLAX46Y46*%
G04 Gerber Fmt 4.6, Leading zero omitted, Abs format (unit mm)*
G04 Created by KiCad (PCBNEW 9.0.6) date 2025-12-08 21:47:26*
%MOMM*%
%LPD*%
G01*
G04 APERTURE LIST*
G04 Aperture macros list*
%AMRoundRect*
0 Rectangle with rounded corners*
0 $1 Rounding radius*
0 $2 $3 $4 $5 $6 $7 $8 $9 X,Y pos of 4 corners*
0 Add a 4 corners polygon primitive as box body*
4,1,4,$2,$3,$4,$5,$6,$7,$8,$9,$2,$3,0*
0 Add four circle primitives for the rounded corners*
1,1,$1+$1,$2,$3*
1,1,$1+$1,$4,$5*
1,1,$1+$1,$6,$7*
1,1,$1+$1,$8,$9*
0 Add four rect primitives between the rounded corners*
20,1,$1+$1,$2,$3,$4,$5,0*
20,1,$1+$1,$4,$5,$6,$7,0*
20,1,$1+$1,$6,$7,$8,$9,0*
20,1,$1+$1,$8,$9,$2,$3,0*%
G04 Aperture macros list end*
%ADD10C,2.200000*%
%ADD11R,0.800000X1.150000*%
%ADD12R,0.508000X1.117600*%
%ADD13R,1.117600X0.508000*%
%ADD14R,0.700000X0.700000*%
%ADD15R,0.500000X0.600000*%
%ADD16RoundRect,0.237500X-0.250000X-0.237500X0.250000X-0.237500X0.250000X0.237500X-0.250000X0.237500X0*%
%ADD17R,0.950000X1.100000*%
%ADD18R,1.300000X1.300000*%
%ADD19R,0.650000X0.900000*%
%ADD20R,2.600000X3.500000*%
%ADD21R,0.800000X0.800000*%
%ADD22R,0.450000X1.000000*%
%ADD23C,1.300000*%
%ADD24R,0.780000X0.990000*%
%ADD25R,1.060000X0.490000*%
%ADD26R,1.950000X1.950000*%
%ADD27C,1.950000*%
G04 APERTURE END LIST*
D10*
%TO.C,H5*%
X171930000Y-93830000D03*
%TD*%
%TO.C,RV1*%
X141100000Y-125000000D03*
X136100000Y-125000000D03*
X131100000Y-125000000D03*
%TD*%
%TO.C,H3*%
X196100000Y-139430000D03*
%TD*%
%TO.C,RV2*%
X186100000Y-125000000D03*
X181100000Y-125000000D03*
X176100000Y-125000000D03*
%TD*%
%TO.C,H2*%
X196100000Y-60000000D03*
%TD*%
%TO.C,H6*%
X145230000Y-93830000D03*
%TD*%
%TO.C,H1*%
X121100000Y-60000000D03*
%TD*%
%TO.C,H4*%
X121100000Y-139430000D03*
%TD*%
D11*
%TO.C,D2*%
X137430000Y-101380000D03*
X137430000Y-97880000D03*
%TD*%
D12*
%TO.C,IC2*%
X186600400Y-133200000D03*
X185787600Y-133200000D03*
X185000200Y-133200000D03*
X184187400Y-133200000D03*
X183400000Y-133200000D03*
X182587200Y-133200000D03*
D13*
X182714200Y-131828400D03*
D12*
X182587200Y-130456800D03*
X183400000Y-130456800D03*
X184187400Y-130456800D03*
X185000200Y-130456800D03*
X185787600Y-130456800D03*
X186600400Y-130456800D03*
D13*
X186473400Y-131828400D03*
%TD*%
D14*
%TO.C,C27*%
X134730000Y-88230000D03*
X136130000Y-88230000D03*
%TD*%
D15*
%TO.C,R1*%
X138430000Y-135030000D03*
X139930000Y-135030000D03*
%TD*%
D11*
%TO.C,D1*%
X133930000Y-97880000D03*
X133930000Y-101380000D03*
%TD*%
D16*
%TO.C,R7*%
X128505000Y-96130000D03*
X130330000Y-96130000D03*
%TD*%
D17*
%TO.C,R3*%
X164930000Y-118330000D03*
X164930000Y-117030000D03*
%TD*%
D14*
%TO.C,C31*%
X136130000Y-85230000D03*
X134730000Y-85230000D03*
%TD*%
%TO.C,C8*%
X134730000Y-73230000D03*
X136130000Y-73230000D03*
%TD*%
D18*
%TO.C,L1*%
X131030000Y-104930000D03*
X134030000Y-104930000D03*
%TD*%
D17*
%TO.C,R4*%
X181087600Y-131156800D03*
X181087600Y-132456800D03*
%TD*%
D19*
%TO.C,R8*%
X136730000Y-96030000D03*
X138180000Y-96030000D03*
%TD*%
D20*
%TO.C,BT1*%
X143830000Y-132130000D03*
X173230000Y-132130000D03*
%TD*%
D11*
%TO.C,D3*%
X141030000Y-97880000D03*
X141030000Y-101380000D03*
%TD*%
D21*
%TO.C,LED1*%
X138330000Y-131930000D03*
X139830000Y-131930000D03*
%TD*%
D14*
%TO.C,C26*%
X134730000Y-82230000D03*
X136130000Y-82230000D03*
%TD*%
%TO.C,C30*%
X132630000Y-95430000D03*
X134030000Y-95430000D03*
%TD*%
%TO.C,C29*%
X137230000Y-104330000D03*
X137230000Y-105730000D03*
%TD*%
D22*
%TO.C,Q1*%
X130080000Y-99530000D03*
X130730000Y-99530000D03*
X131380000Y-99530000D03*
X131380000Y-101430000D03*
X130730000Y-101430000D03*
X130080000Y-101430000D03*
%TD*%
D14*
%TO.C,C28*%
X134730000Y-70230000D03*
X136130000Y-70230000D03*
%TD*%
%TO.C,C25*%
X134730000Y-79230000D03*
X136130000Y-79230000D03*
%TD*%
%TO.C,C3*%
X186587600Y-135256800D03*
X186587600Y-136656800D03*
%TD*%
D23*
%TO.C,S1*%
X161030000Y-119430000D03*
X158530000Y-119430000D03*
X156030000Y-119430000D03*
X161030000Y-116230000D03*
X158530000Y-116230000D03*
X156030000Y-116230000D03*
%TD*%
D14*
%TO.C,C24*%
X134730000Y-76230000D03*
X136130000Y-76230000D03*
%TD*%
D19*
%TO.C,R9*%
X138180000Y-94330000D03*
X136730000Y-94330000D03*
%TD*%
D24*
%TO.C,C1*%
X140730000Y-129630000D03*
X139330000Y-129630000D03*
%TD*%
D25*
%TO.C,C7*%
X182587600Y-134376800D03*
X182587600Y-136136800D03*
%TD*%
D26*
%TO.C,U1*%
X144870000Y-66030000D03*
D27*
X147370000Y-66030000D03*
X149870000Y-66030000D03*
X152370000Y-66030000D03*
X154870000Y-66030000D03*
X157370000Y-66030000D03*
X159870000Y-66030000D03*
X162370000Y-66030000D03*
X164870000Y-66030000D03*
X167370000Y-66030000D03*
X169870000Y-66030000D03*
X172370000Y-66030000D03*
%TD*%
M02*
