M48
; DRILL file {KiCad 9.0.6} date 2025-12-08T21:47:44-0500
; FORMAT={-:-/ absolute / metric / decimal}
; #@! TF.CreationDate,2025-12-08T21:47:44-05:00
; #@! TF.GenerationSoftware,Kicad,Pcbnew,9.0.6
; #@! TF.FileFunction,Plated,1,4,PTH
FMAT,2
METRIC
; #@! TA.AperFunction,Plated,PTH,ViaDrill
T1C0.300
; #@! TA.AperFunction,Plated,PTH,ComponentDrill
T2C0.800
; #@! TA.AperFunction,Plated,PTH,ComponentDrill
T3C1.000
; #@! TA.AperFunction,Plated,PTH,ComponentDrill
T4C1.300
%
G90
G05
T1
X122.6Y-106.4
X124.53Y-76.43
X125.93Y-81.63
X125.93Y-85.33
X126.13Y-74.43
X126.7Y-111.8
X127.03Y-82.63
X128.6Y-82.5
X130.33Y-87.23
X130.63Y-63.13
X131.33Y-71.73
X131.5Y-77.6
X131.83Y-84.73
X131.83Y-85.73
X131.93Y-75.23
X132.7Y-96.5
X132.83Y-77.03
X133.43Y-64.93
X134.73Y-64.33
X135.43Y-63.73
X136.1Y-89.4
X136.2Y-71.5
X136.8Y-93.1
X136.9Y-75.7
X137.1Y-73.3
X137.1Y-79.2
X137.2Y-82.3
X137.3Y-85.3
X137.63Y-66.23
X137.7Y-135.7
X138.18Y-92.73
X138.5Y-128.8
X139.43Y-65.63
X141.1Y-112.1
X142.5Y-97.9
X145.0Y-130.0
X149.6Y-105.0
X152.6Y-79.7
X152.6Y-82.4
X162.4Y-82.4
X165.3Y-78.7
X166.2Y-85.0
X166.4Y-88.6
X166.9Y-82.7
X167.2Y-86.6
X167.6Y-105.0
X169.2Y-81.1
X170.0Y-130.0
X170.2Y-76.0
X171.4Y-76.1
X172.2Y-81.2
X172.4Y-87.4
X173.13Y-69.03
X173.13Y-70.03
X173.13Y-71.13
X173.13Y-72.33
X173.13Y-73.23
X173.13Y-74.23
X173.8Y-87.3
X173.9Y-107.6
X176.9Y-111.8
X177.0Y-71.9
X177.1Y-69.5
X177.9Y-80.0
X178.7Y-75.6
X178.7Y-97.4
X179.83Y-70.13
X180.0Y-94.2
X180.1Y-92.2
X181.1Y-90.9
X181.2Y-134.4
X181.5Y-130.1
X181.6Y-97.4
X183.6Y-70.1
X183.6Y-72.2
X183.8Y-134.3
X184.6Y-94.5
X184.8Y-136.5
X185.0Y-75.7
X185.0Y-129.3
X185.0Y-134.3
X185.4Y-92.2
X185.83Y-65.53
X186.8Y-96.9
X187.5Y-135.3
X188.4Y-91.3
X188.4Y-94.3
X188.7Y-96.8
X189.5Y-86.0
X189.5Y-91.1
X190.8Y-111.7
X191.5Y-91.1
X191.5Y-94.3
X193.4Y-75.5
X193.4Y-76.7
X193.5Y-81.7
X193.5Y-83.2
X193.95Y-95.15
X194.0Y-93.05
X194.3Y-88.3
X194.8Y-86.5
X195.6Y-86.5
X196.6Y-75.4
X196.6Y-81.7
T2
X156.03Y-116.23
X156.03Y-119.43
X158.53Y-116.23
X158.53Y-119.43
X161.03Y-116.23
X161.03Y-119.43
T3
X131.1Y-125.0
X136.1Y-125.0
X141.1Y-125.0
X176.1Y-125.0
X181.1Y-125.0
X186.1Y-125.0
T4
X144.87Y-66.03
X147.37Y-66.03
X149.87Y-66.03
X152.37Y-66.03
X154.87Y-66.03
X157.37Y-66.03
X159.87Y-66.03
X162.37Y-66.03
X164.87Y-66.03
X167.37Y-66.03
X169.87Y-66.03
X172.37Y-66.03
M30
