%TF.GenerationSoftware,KiCad,Pcbnew,9.0.6*%
%TF.CreationDate,2025-12-08T21:47:25-05:00*%
%TF.ProjectId,electrical,656c6563-7472-4696-9361-6c2e6b696361,rev?*%
%TF.SameCoordinates,Original*%
%TF.FileFunction,Paste,Top*%
%TF.FilePolarity,Positive*%
%FSLAX46Y46*%
G04 Gerber Fmt 4.6, Leading zero omitted, Abs format (unit mm)*
G04 Created by KiCad (PCBNEW 9.0.6) date 2025-12-08 21:47:25*
%MOMM*%
%LPD*%
G01*
G04 APERTURE LIST*
%ADD10R,1.400000X1.200000*%
%ADD11R,0.700000X0.700000*%
%ADD12R,2.000000X1.500000*%
%ADD13R,0.780000X0.990000*%
%ADD14R,1.300000X0.300000*%
%ADD15R,1.800000X2.000000*%
%ADD16R,1.100000X0.950000*%
%ADD17R,1.475000X0.200000*%
%ADD18R,0.200000X1.475000*%
%ADD19R,0.950000X1.100000*%
%ADD20R,1.800000X1.000000*%
%ADD21R,2.790000X0.740000*%
%ADD22R,0.990000X0.780000*%
%ADD23R,0.550000X0.600000*%
G04 APERTURE END LIST*
D10*
%TO.C,Y3*%
X164715000Y-83630000D03*
X162515000Y-83630000D03*
X162515000Y-85330000D03*
X164715000Y-85330000D03*
%TD*%
D11*
%TO.C,C6*%
X172330000Y-86330000D03*
X173730000Y-86330000D03*
%TD*%
%TO.C,C18*%
X190530000Y-93530000D03*
X190530000Y-92130000D03*
%TD*%
D12*
%TO.C,S4*%
X165750000Y-110000000D03*
X151450000Y-110000000D03*
X165750000Y-105000000D03*
X151450000Y-105000000D03*
%TD*%
%TO.C,S3*%
X176800000Y-105000000D03*
X191100000Y-105000000D03*
X176800000Y-110000000D03*
X191100000Y-110000000D03*
%TD*%
D11*
%TO.C,C20*%
X181530000Y-93530000D03*
X181530000Y-92130000D03*
%TD*%
%TO.C,C11*%
X178530000Y-93530000D03*
X178530000Y-92130000D03*
%TD*%
%TO.C,C17*%
X195730000Y-82430000D03*
X194330000Y-82430000D03*
%TD*%
%TO.C,C15*%
X177830000Y-70230000D03*
X177830000Y-71630000D03*
%TD*%
D13*
%TO.C,C32*%
X168015000Y-82830000D03*
X169415000Y-82830000D03*
%TD*%
D11*
%TO.C,C14*%
X184630000Y-70130000D03*
X184630000Y-71530000D03*
%TD*%
D14*
%TO.C,J2*%
X130175000Y-74250000D03*
X130175000Y-74750000D03*
X130175000Y-75250000D03*
X130175000Y-75750000D03*
X130175000Y-76250000D03*
X130175000Y-76750000D03*
X130175000Y-77250000D03*
X130175000Y-77750000D03*
X130175000Y-78250000D03*
X130175000Y-78750000D03*
X130175000Y-79250000D03*
X130175000Y-79750000D03*
X130175000Y-80250000D03*
X130175000Y-80750000D03*
X130175000Y-81250000D03*
X130175000Y-81750000D03*
X130175000Y-82250000D03*
X130175000Y-82750000D03*
X130175000Y-83250000D03*
X130175000Y-83750000D03*
X130175000Y-84250000D03*
X130175000Y-84750000D03*
X130175000Y-85250000D03*
X130175000Y-85750000D03*
D15*
X127425000Y-72450000D03*
X127425000Y-87550000D03*
%TD*%
D11*
%TO.C,C13*%
X187530000Y-93530000D03*
X187530000Y-92130000D03*
%TD*%
D16*
%TO.C,R10*%
X168065000Y-84830000D03*
X169365000Y-84830000D03*
%TD*%
D12*
%TO.C,S2*%
X126800000Y-105000000D03*
X141100000Y-105000000D03*
X126800000Y-110000000D03*
X141100000Y-110000000D03*
%TD*%
D17*
%TO.C,IC1*%
X176292000Y-75630000D03*
X176292000Y-76030000D03*
X176292000Y-76430000D03*
X176292000Y-76830000D03*
X176292000Y-77230000D03*
X176292000Y-77630000D03*
X176292000Y-78030000D03*
X176292000Y-78430000D03*
X176292000Y-78830000D03*
X176292000Y-79230000D03*
X176292000Y-79630000D03*
X176292000Y-80030000D03*
X176292000Y-80430000D03*
X176292000Y-80830000D03*
X176292000Y-81230000D03*
X176292000Y-81630000D03*
X176292000Y-82030000D03*
X176292000Y-82430000D03*
X176292000Y-82830000D03*
X176292000Y-83230000D03*
X176292000Y-83630000D03*
X176292000Y-84030000D03*
X176292000Y-84430000D03*
X176292000Y-84830000D03*
X176292000Y-85230000D03*
X176292000Y-85630000D03*
X176292000Y-86030000D03*
X176292000Y-86430000D03*
X176292000Y-86830000D03*
X176292000Y-87230000D03*
X176292000Y-87630000D03*
X176292000Y-88030000D03*
D18*
X177830000Y-89568000D03*
X178230000Y-89568000D03*
X178630000Y-89568000D03*
X179030000Y-89568000D03*
X179430000Y-89568000D03*
X179830000Y-89568000D03*
X180230000Y-89568000D03*
X180630000Y-89568000D03*
X181030000Y-89568000D03*
X181430000Y-89568000D03*
X181830000Y-89568000D03*
X182230000Y-89568000D03*
X182630000Y-89568000D03*
X183030000Y-89568000D03*
X183430000Y-89568000D03*
X183830000Y-89568000D03*
X184230000Y-89568000D03*
X184630000Y-89568000D03*
X185030000Y-89568000D03*
X185430000Y-89568000D03*
X185830000Y-89568000D03*
X186230000Y-89568000D03*
X186630000Y-89568000D03*
X187030000Y-89568000D03*
X187430000Y-89568000D03*
X187830000Y-89568000D03*
X188230000Y-89568000D03*
X188630000Y-89568000D03*
X189030000Y-89568000D03*
X189430000Y-89568000D03*
X189830000Y-89568000D03*
X190230000Y-89568000D03*
D17*
X191768000Y-88030000D03*
X191768000Y-87630000D03*
X191768000Y-87230000D03*
X191768000Y-86830000D03*
X191768000Y-86430000D03*
X191768000Y-86030000D03*
X191768000Y-85630000D03*
X191768000Y-85230000D03*
X191768000Y-84830000D03*
X191768000Y-84430000D03*
X191768000Y-84030000D03*
X191768000Y-83630000D03*
X191768000Y-83230000D03*
X191768000Y-82830000D03*
X191768000Y-82430000D03*
X191768000Y-82030000D03*
X191768000Y-81630000D03*
X191768000Y-81230000D03*
X191768000Y-80830000D03*
X191768000Y-80430000D03*
X191768000Y-80030000D03*
X191768000Y-79630000D03*
X191768000Y-79230000D03*
X191768000Y-78830000D03*
X191768000Y-78430000D03*
X191768000Y-78030000D03*
X191768000Y-77630000D03*
X191768000Y-77230000D03*
X191768000Y-76830000D03*
X191768000Y-76430000D03*
X191768000Y-76030000D03*
X191768000Y-75630000D03*
D18*
X190230000Y-74092000D03*
X189830000Y-74092000D03*
X189430000Y-74092000D03*
X189030000Y-74092000D03*
X188630000Y-74092000D03*
X188230000Y-74092000D03*
X187830000Y-74092000D03*
X187430000Y-74092000D03*
X187030000Y-74092000D03*
X186630000Y-74092000D03*
X186230000Y-74092000D03*
X185830000Y-74092000D03*
X185430000Y-74092000D03*
X185030000Y-74092000D03*
X184630000Y-74092000D03*
X184230000Y-74092000D03*
X183830000Y-74092000D03*
X183430000Y-74092000D03*
X183030000Y-74092000D03*
X182630000Y-74092000D03*
X182230000Y-74092000D03*
X181830000Y-74092000D03*
X181430000Y-74092000D03*
X181030000Y-74092000D03*
X180630000Y-74092000D03*
X180230000Y-74092000D03*
X179830000Y-74092000D03*
X179430000Y-74092000D03*
X179030000Y-74092000D03*
X178630000Y-74092000D03*
X178230000Y-74092000D03*
X177830000Y-74092000D03*
%TD*%
D11*
%TO.C,C5*%
X163676250Y-88607000D03*
X165076250Y-88607000D03*
%TD*%
%TO.C,C2*%
X170030000Y-80230000D03*
X171430000Y-80230000D03*
%TD*%
D19*
%TO.C,R5*%
X123800000Y-106300000D03*
X123800000Y-105000000D03*
%TD*%
D11*
%TO.C,C16*%
X179430000Y-96530000D03*
X180830000Y-96530000D03*
%TD*%
%TO.C,C12*%
X184530000Y-93530000D03*
X184530000Y-92130000D03*
%TD*%
D13*
%TO.C,C4*%
X186830000Y-95730000D03*
X188230000Y-95730000D03*
%TD*%
D20*
%TO.C,Y1*%
X166530000Y-79930000D03*
X166530000Y-77430000D03*
%TD*%
D21*
%TO.C,J1*%
X155030000Y-78520000D03*
X159100000Y-78520000D03*
X155030000Y-79790000D03*
X159100000Y-79790000D03*
X155030000Y-81060000D03*
X159100000Y-81060000D03*
X155030000Y-82330000D03*
X159100000Y-82330000D03*
X155030000Y-83600000D03*
X159100000Y-83600000D03*
X155030000Y-84870000D03*
X159100000Y-84870000D03*
X155030000Y-86140000D03*
X159100000Y-86140000D03*
%TD*%
D22*
%TO.C,C22*%
X163830000Y-79330000D03*
X163830000Y-80730000D03*
%TD*%
D23*
%TO.C,FB1*%
X183730000Y-96430000D03*
X184680000Y-96430000D03*
%TD*%
D19*
%TO.C,R2*%
X173900000Y-106300000D03*
X173900000Y-105000000D03*
%TD*%
D11*
%TO.C,C10*%
X195730000Y-76030000D03*
X194330000Y-76030000D03*
%TD*%
D22*
%TO.C,C9*%
X163830000Y-77830000D03*
X163830000Y-76430000D03*
%TD*%
D11*
%TO.C,C21*%
X170030000Y-77130000D03*
X171430000Y-77130000D03*
%TD*%
D13*
%TO.C,C33*%
X168015000Y-86830000D03*
X169415000Y-86830000D03*
%TD*%
M02*
