%TF.GenerationSoftware,KiCad,Pcbnew,9.0.6*%
%TF.CreationDate,2025-12-08T21:47:26-05:00*%
%TF.ProjectId,electrical,656c6563-7472-4696-9361-6c2e6b696361,rev?*%
%TF.SameCoordinates,Original*%
%TF.FileFunction,Legend,Bot*%
%TF.FilePolarity,Positive*%
%FSLAX46Y46*%
G04 Gerber Fmt 4.6, Leading zero omitted, Abs format (unit mm)*
G04 Created by KiCad (PCBNEW 9.0.6) date 2025-12-08 21:47:26*
%MOMM*%
%LPD*%
G01*
G04 APERTURE LIST*
%ADD10C,0.254000*%
%ADD11C,0.150000*%
%ADD12C,0.100000*%
%ADD13C,0.200000*%
%ADD14C,0.120000*%
G04 APERTURE END LIST*
D10*
X138004318Y-98692618D02*
X136734318Y-98692618D01*
X136734318Y-98692618D02*
X136734318Y-98994999D01*
X136734318Y-98994999D02*
X136794794Y-99176428D01*
X136794794Y-99176428D02*
X136915746Y-99297380D01*
X136915746Y-99297380D02*
X137036699Y-99357857D01*
X137036699Y-99357857D02*
X137278603Y-99418333D01*
X137278603Y-99418333D02*
X137460032Y-99418333D01*
X137460032Y-99418333D02*
X137701937Y-99357857D01*
X137701937Y-99357857D02*
X137822889Y-99297380D01*
X137822889Y-99297380D02*
X137943842Y-99176428D01*
X137943842Y-99176428D02*
X138004318Y-98994999D01*
X138004318Y-98994999D02*
X138004318Y-98692618D01*
X136855270Y-99902142D02*
X136794794Y-99962618D01*
X136794794Y-99962618D02*
X136734318Y-100083571D01*
X136734318Y-100083571D02*
X136734318Y-100385952D01*
X136734318Y-100385952D02*
X136794794Y-100506904D01*
X136794794Y-100506904D02*
X136855270Y-100567380D01*
X136855270Y-100567380D02*
X136976222Y-100627857D01*
X136976222Y-100627857D02*
X137097175Y-100627857D01*
X137097175Y-100627857D02*
X137278603Y-100567380D01*
X137278603Y-100567380D02*
X138004318Y-99841666D01*
X138004318Y-99841666D02*
X138004318Y-100627857D01*
X188983518Y-130519037D02*
X187713518Y-130519037D01*
X188862565Y-131849514D02*
X188923042Y-131789038D01*
X188923042Y-131789038D02*
X188983518Y-131607609D01*
X188983518Y-131607609D02*
X188983518Y-131486657D01*
X188983518Y-131486657D02*
X188923042Y-131305228D01*
X188923042Y-131305228D02*
X188802089Y-131184276D01*
X188802089Y-131184276D02*
X188681137Y-131123799D01*
X188681137Y-131123799D02*
X188439232Y-131063323D01*
X188439232Y-131063323D02*
X188257803Y-131063323D01*
X188257803Y-131063323D02*
X188015899Y-131123799D01*
X188015899Y-131123799D02*
X187894946Y-131184276D01*
X187894946Y-131184276D02*
X187773994Y-131305228D01*
X187773994Y-131305228D02*
X187713518Y-131486657D01*
X187713518Y-131486657D02*
X187713518Y-131607609D01*
X187713518Y-131607609D02*
X187773994Y-131789038D01*
X187773994Y-131789038D02*
X187834470Y-131849514D01*
X187834470Y-132333323D02*
X187773994Y-132393799D01*
X187773994Y-132393799D02*
X187713518Y-132514752D01*
X187713518Y-132514752D02*
X187713518Y-132817133D01*
X187713518Y-132817133D02*
X187773994Y-132938085D01*
X187773994Y-132938085D02*
X187834470Y-132998561D01*
X187834470Y-132998561D02*
X187955422Y-133059038D01*
X187955422Y-133059038D02*
X188076375Y-133059038D01*
X188076375Y-133059038D02*
X188257803Y-132998561D01*
X188257803Y-132998561D02*
X188983518Y-132272847D01*
X188983518Y-132272847D02*
X188983518Y-133059038D01*
X136246428Y-88683365D02*
X136306904Y-88743842D01*
X136306904Y-88743842D02*
X136488333Y-88804318D01*
X136488333Y-88804318D02*
X136609285Y-88804318D01*
X136609285Y-88804318D02*
X136790714Y-88743842D01*
X136790714Y-88743842D02*
X136911666Y-88622889D01*
X136911666Y-88622889D02*
X136972143Y-88501937D01*
X136972143Y-88501937D02*
X137032619Y-88260032D01*
X137032619Y-88260032D02*
X137032619Y-88078603D01*
X137032619Y-88078603D02*
X136972143Y-87836699D01*
X136972143Y-87836699D02*
X136911666Y-87715746D01*
X136911666Y-87715746D02*
X136790714Y-87594794D01*
X136790714Y-87594794D02*
X136609285Y-87534318D01*
X136609285Y-87534318D02*
X136488333Y-87534318D01*
X136488333Y-87534318D02*
X136306904Y-87594794D01*
X136306904Y-87594794D02*
X136246428Y-87655270D01*
X135762619Y-87655270D02*
X135702143Y-87594794D01*
X135702143Y-87594794D02*
X135581190Y-87534318D01*
X135581190Y-87534318D02*
X135278809Y-87534318D01*
X135278809Y-87534318D02*
X135157857Y-87594794D01*
X135157857Y-87594794D02*
X135097381Y-87655270D01*
X135097381Y-87655270D02*
X135036904Y-87776222D01*
X135036904Y-87776222D02*
X135036904Y-87897175D01*
X135036904Y-87897175D02*
X135097381Y-88078603D01*
X135097381Y-88078603D02*
X135823095Y-88804318D01*
X135823095Y-88804318D02*
X135036904Y-88804318D01*
X134613571Y-87534318D02*
X133766904Y-87534318D01*
X133766904Y-87534318D02*
X134311190Y-88804318D01*
X139391666Y-135604318D02*
X139815000Y-134999556D01*
X140117381Y-135604318D02*
X140117381Y-134334318D01*
X140117381Y-134334318D02*
X139633571Y-134334318D01*
X139633571Y-134334318D02*
X139512619Y-134394794D01*
X139512619Y-134394794D02*
X139452142Y-134455270D01*
X139452142Y-134455270D02*
X139391666Y-134576222D01*
X139391666Y-134576222D02*
X139391666Y-134757651D01*
X139391666Y-134757651D02*
X139452142Y-134878603D01*
X139452142Y-134878603D02*
X139512619Y-134939080D01*
X139512619Y-134939080D02*
X139633571Y-134999556D01*
X139633571Y-134999556D02*
X140117381Y-134999556D01*
X138182142Y-135604318D02*
X138907857Y-135604318D01*
X138545000Y-135604318D02*
X138545000Y-134334318D01*
X138545000Y-134334318D02*
X138665952Y-134515746D01*
X138665952Y-134515746D02*
X138786904Y-134636699D01*
X138786904Y-134636699D02*
X138907857Y-134697175D01*
X134504318Y-98692618D02*
X133234318Y-98692618D01*
X133234318Y-98692618D02*
X133234318Y-98994999D01*
X133234318Y-98994999D02*
X133294794Y-99176428D01*
X133294794Y-99176428D02*
X133415746Y-99297380D01*
X133415746Y-99297380D02*
X133536699Y-99357857D01*
X133536699Y-99357857D02*
X133778603Y-99418333D01*
X133778603Y-99418333D02*
X133960032Y-99418333D01*
X133960032Y-99418333D02*
X134201937Y-99357857D01*
X134201937Y-99357857D02*
X134322889Y-99297380D01*
X134322889Y-99297380D02*
X134443842Y-99176428D01*
X134443842Y-99176428D02*
X134504318Y-98994999D01*
X134504318Y-98994999D02*
X134504318Y-98692618D01*
X134504318Y-100627857D02*
X134504318Y-99902142D01*
X134504318Y-100264999D02*
X133234318Y-100264999D01*
X133234318Y-100264999D02*
X133415746Y-100144047D01*
X133415746Y-100144047D02*
X133536699Y-100023095D01*
X133536699Y-100023095D02*
X133597175Y-99902142D01*
D11*
X127559819Y-95963333D02*
X127083628Y-95630000D01*
X127559819Y-95391905D02*
X126559819Y-95391905D01*
X126559819Y-95391905D02*
X126559819Y-95772857D01*
X126559819Y-95772857D02*
X126607438Y-95868095D01*
X126607438Y-95868095D02*
X126655057Y-95915714D01*
X126655057Y-95915714D02*
X126750295Y-95963333D01*
X126750295Y-95963333D02*
X126893152Y-95963333D01*
X126893152Y-95963333D02*
X126988390Y-95915714D01*
X126988390Y-95915714D02*
X127036009Y-95868095D01*
X127036009Y-95868095D02*
X127083628Y-95772857D01*
X127083628Y-95772857D02*
X127083628Y-95391905D01*
X126559819Y-96296667D02*
X126559819Y-96963333D01*
X126559819Y-96963333D02*
X127559819Y-96534762D01*
D10*
X165504318Y-117468333D02*
X164899556Y-117044999D01*
X165504318Y-116742618D02*
X164234318Y-116742618D01*
X164234318Y-116742618D02*
X164234318Y-117226428D01*
X164234318Y-117226428D02*
X164294794Y-117347380D01*
X164294794Y-117347380D02*
X164355270Y-117407857D01*
X164355270Y-117407857D02*
X164476222Y-117468333D01*
X164476222Y-117468333D02*
X164657651Y-117468333D01*
X164657651Y-117468333D02*
X164778603Y-117407857D01*
X164778603Y-117407857D02*
X164839080Y-117347380D01*
X164839080Y-117347380D02*
X164899556Y-117226428D01*
X164899556Y-117226428D02*
X164899556Y-116742618D01*
X164234318Y-117891666D02*
X164234318Y-118677857D01*
X164234318Y-118677857D02*
X164718127Y-118254523D01*
X164718127Y-118254523D02*
X164718127Y-118435952D01*
X164718127Y-118435952D02*
X164778603Y-118556904D01*
X164778603Y-118556904D02*
X164839080Y-118617380D01*
X164839080Y-118617380D02*
X164960032Y-118677857D01*
X164960032Y-118677857D02*
X165262413Y-118677857D01*
X165262413Y-118677857D02*
X165383365Y-118617380D01*
X165383365Y-118617380D02*
X165443842Y-118556904D01*
X165443842Y-118556904D02*
X165504318Y-118435952D01*
X165504318Y-118435952D02*
X165504318Y-118073095D01*
X165504318Y-118073095D02*
X165443842Y-117952142D01*
X165443842Y-117952142D02*
X165383365Y-117891666D01*
X136246428Y-85683365D02*
X136306904Y-85743842D01*
X136306904Y-85743842D02*
X136488333Y-85804318D01*
X136488333Y-85804318D02*
X136609285Y-85804318D01*
X136609285Y-85804318D02*
X136790714Y-85743842D01*
X136790714Y-85743842D02*
X136911666Y-85622889D01*
X136911666Y-85622889D02*
X136972143Y-85501937D01*
X136972143Y-85501937D02*
X137032619Y-85260032D01*
X137032619Y-85260032D02*
X137032619Y-85078603D01*
X137032619Y-85078603D02*
X136972143Y-84836699D01*
X136972143Y-84836699D02*
X136911666Y-84715746D01*
X136911666Y-84715746D02*
X136790714Y-84594794D01*
X136790714Y-84594794D02*
X136609285Y-84534318D01*
X136609285Y-84534318D02*
X136488333Y-84534318D01*
X136488333Y-84534318D02*
X136306904Y-84594794D01*
X136306904Y-84594794D02*
X136246428Y-84655270D01*
X135823095Y-84534318D02*
X135036904Y-84534318D01*
X135036904Y-84534318D02*
X135460238Y-85018127D01*
X135460238Y-85018127D02*
X135278809Y-85018127D01*
X135278809Y-85018127D02*
X135157857Y-85078603D01*
X135157857Y-85078603D02*
X135097381Y-85139080D01*
X135097381Y-85139080D02*
X135036904Y-85260032D01*
X135036904Y-85260032D02*
X135036904Y-85562413D01*
X135036904Y-85562413D02*
X135097381Y-85683365D01*
X135097381Y-85683365D02*
X135157857Y-85743842D01*
X135157857Y-85743842D02*
X135278809Y-85804318D01*
X135278809Y-85804318D02*
X135641666Y-85804318D01*
X135641666Y-85804318D02*
X135762619Y-85743842D01*
X135762619Y-85743842D02*
X135823095Y-85683365D01*
X133827380Y-85804318D02*
X134553095Y-85804318D01*
X134190238Y-85804318D02*
X134190238Y-84534318D01*
X134190238Y-84534318D02*
X134311190Y-84715746D01*
X134311190Y-84715746D02*
X134432142Y-84836699D01*
X134432142Y-84836699D02*
X134553095Y-84897175D01*
X135641666Y-73683365D02*
X135702142Y-73743842D01*
X135702142Y-73743842D02*
X135883571Y-73804318D01*
X135883571Y-73804318D02*
X136004523Y-73804318D01*
X136004523Y-73804318D02*
X136185952Y-73743842D01*
X136185952Y-73743842D02*
X136306904Y-73622889D01*
X136306904Y-73622889D02*
X136367381Y-73501937D01*
X136367381Y-73501937D02*
X136427857Y-73260032D01*
X136427857Y-73260032D02*
X136427857Y-73078603D01*
X136427857Y-73078603D02*
X136367381Y-72836699D01*
X136367381Y-72836699D02*
X136306904Y-72715746D01*
X136306904Y-72715746D02*
X136185952Y-72594794D01*
X136185952Y-72594794D02*
X136004523Y-72534318D01*
X136004523Y-72534318D02*
X135883571Y-72534318D01*
X135883571Y-72534318D02*
X135702142Y-72594794D01*
X135702142Y-72594794D02*
X135641666Y-72655270D01*
X134915952Y-73078603D02*
X135036904Y-73018127D01*
X135036904Y-73018127D02*
X135097381Y-72957651D01*
X135097381Y-72957651D02*
X135157857Y-72836699D01*
X135157857Y-72836699D02*
X135157857Y-72776222D01*
X135157857Y-72776222D02*
X135097381Y-72655270D01*
X135097381Y-72655270D02*
X135036904Y-72594794D01*
X135036904Y-72594794D02*
X134915952Y-72534318D01*
X134915952Y-72534318D02*
X134674047Y-72534318D01*
X134674047Y-72534318D02*
X134553095Y-72594794D01*
X134553095Y-72594794D02*
X134492619Y-72655270D01*
X134492619Y-72655270D02*
X134432142Y-72776222D01*
X134432142Y-72776222D02*
X134432142Y-72836699D01*
X134432142Y-72836699D02*
X134492619Y-72957651D01*
X134492619Y-72957651D02*
X134553095Y-73018127D01*
X134553095Y-73018127D02*
X134674047Y-73078603D01*
X134674047Y-73078603D02*
X134915952Y-73078603D01*
X134915952Y-73078603D02*
X135036904Y-73139080D01*
X135036904Y-73139080D02*
X135097381Y-73199556D01*
X135097381Y-73199556D02*
X135157857Y-73320508D01*
X135157857Y-73320508D02*
X135157857Y-73562413D01*
X135157857Y-73562413D02*
X135097381Y-73683365D01*
X135097381Y-73683365D02*
X135036904Y-73743842D01*
X135036904Y-73743842D02*
X134915952Y-73804318D01*
X134915952Y-73804318D02*
X134674047Y-73804318D01*
X134674047Y-73804318D02*
X134553095Y-73743842D01*
X134553095Y-73743842D02*
X134492619Y-73683365D01*
X134492619Y-73683365D02*
X134432142Y-73562413D01*
X134432142Y-73562413D02*
X134432142Y-73320508D01*
X134432142Y-73320508D02*
X134492619Y-73199556D01*
X134492619Y-73199556D02*
X134553095Y-73139080D01*
X134553095Y-73139080D02*
X134674047Y-73078603D01*
X133104318Y-104746333D02*
X133104318Y-104141571D01*
X133104318Y-104141571D02*
X131834318Y-104141571D01*
X133104318Y-105834905D02*
X133104318Y-105109190D01*
X133104318Y-105472047D02*
X131834318Y-105472047D01*
X131834318Y-105472047D02*
X132015746Y-105351095D01*
X132015746Y-105351095D02*
X132136699Y-105230143D01*
X132136699Y-105230143D02*
X132197175Y-105109190D01*
X181661918Y-131595133D02*
X181057156Y-131171799D01*
X181661918Y-130869418D02*
X180391918Y-130869418D01*
X180391918Y-130869418D02*
X180391918Y-131353228D01*
X180391918Y-131353228D02*
X180452394Y-131474180D01*
X180452394Y-131474180D02*
X180512870Y-131534657D01*
X180512870Y-131534657D02*
X180633822Y-131595133D01*
X180633822Y-131595133D02*
X180815251Y-131595133D01*
X180815251Y-131595133D02*
X180936203Y-131534657D01*
X180936203Y-131534657D02*
X180996680Y-131474180D01*
X180996680Y-131474180D02*
X181057156Y-131353228D01*
X181057156Y-131353228D02*
X181057156Y-130869418D01*
X180815251Y-132683704D02*
X181661918Y-132683704D01*
X180331442Y-132381323D02*
X181238584Y-132078942D01*
X181238584Y-132078942D02*
X181238584Y-132865133D01*
X137666666Y-96604318D02*
X138090000Y-95999556D01*
X138392381Y-96604318D02*
X138392381Y-95334318D01*
X138392381Y-95334318D02*
X137908571Y-95334318D01*
X137908571Y-95334318D02*
X137787619Y-95394794D01*
X137787619Y-95394794D02*
X137727142Y-95455270D01*
X137727142Y-95455270D02*
X137666666Y-95576222D01*
X137666666Y-95576222D02*
X137666666Y-95757651D01*
X137666666Y-95757651D02*
X137727142Y-95878603D01*
X137727142Y-95878603D02*
X137787619Y-95939080D01*
X137787619Y-95939080D02*
X137908571Y-95999556D01*
X137908571Y-95999556D02*
X138392381Y-95999556D01*
X136940952Y-95878603D02*
X137061904Y-95818127D01*
X137061904Y-95818127D02*
X137122381Y-95757651D01*
X137122381Y-95757651D02*
X137182857Y-95636699D01*
X137182857Y-95636699D02*
X137182857Y-95576222D01*
X137182857Y-95576222D02*
X137122381Y-95455270D01*
X137122381Y-95455270D02*
X137061904Y-95394794D01*
X137061904Y-95394794D02*
X136940952Y-95334318D01*
X136940952Y-95334318D02*
X136699047Y-95334318D01*
X136699047Y-95334318D02*
X136578095Y-95394794D01*
X136578095Y-95394794D02*
X136517619Y-95455270D01*
X136517619Y-95455270D02*
X136457142Y-95576222D01*
X136457142Y-95576222D02*
X136457142Y-95636699D01*
X136457142Y-95636699D02*
X136517619Y-95757651D01*
X136517619Y-95757651D02*
X136578095Y-95818127D01*
X136578095Y-95818127D02*
X136699047Y-95878603D01*
X136699047Y-95878603D02*
X136940952Y-95878603D01*
X136940952Y-95878603D02*
X137061904Y-95939080D01*
X137061904Y-95939080D02*
X137122381Y-95999556D01*
X137122381Y-95999556D02*
X137182857Y-96120508D01*
X137182857Y-96120508D02*
X137182857Y-96362413D01*
X137182857Y-96362413D02*
X137122381Y-96483365D01*
X137122381Y-96483365D02*
X137061904Y-96543842D01*
X137061904Y-96543842D02*
X136940952Y-96604318D01*
X136940952Y-96604318D02*
X136699047Y-96604318D01*
X136699047Y-96604318D02*
X136578095Y-96543842D01*
X136578095Y-96543842D02*
X136517619Y-96483365D01*
X136517619Y-96483365D02*
X136457142Y-96362413D01*
X136457142Y-96362413D02*
X136457142Y-96120508D01*
X136457142Y-96120508D02*
X136517619Y-95999556D01*
X136517619Y-95999556D02*
X136578095Y-95939080D01*
X136578095Y-95939080D02*
X136699047Y-95878603D01*
X159527856Y-132039080D02*
X159346428Y-132099556D01*
X159346428Y-132099556D02*
X159285951Y-132160032D01*
X159285951Y-132160032D02*
X159225475Y-132280984D01*
X159225475Y-132280984D02*
X159225475Y-132462413D01*
X159225475Y-132462413D02*
X159285951Y-132583365D01*
X159285951Y-132583365D02*
X159346428Y-132643842D01*
X159346428Y-132643842D02*
X159467380Y-132704318D01*
X159467380Y-132704318D02*
X159951190Y-132704318D01*
X159951190Y-132704318D02*
X159951190Y-131434318D01*
X159951190Y-131434318D02*
X159527856Y-131434318D01*
X159527856Y-131434318D02*
X159406904Y-131494794D01*
X159406904Y-131494794D02*
X159346428Y-131555270D01*
X159346428Y-131555270D02*
X159285951Y-131676222D01*
X159285951Y-131676222D02*
X159285951Y-131797175D01*
X159285951Y-131797175D02*
X159346428Y-131918127D01*
X159346428Y-131918127D02*
X159406904Y-131978603D01*
X159406904Y-131978603D02*
X159527856Y-132039080D01*
X159527856Y-132039080D02*
X159951190Y-132039080D01*
X158862618Y-131434318D02*
X158136904Y-131434318D01*
X158499761Y-132704318D02*
X158499761Y-131434318D01*
X157048332Y-132704318D02*
X157774047Y-132704318D01*
X157411190Y-132704318D02*
X157411190Y-131434318D01*
X157411190Y-131434318D02*
X157532142Y-131615746D01*
X157532142Y-131615746D02*
X157653094Y-131736699D01*
X157653094Y-131736699D02*
X157774047Y-131797175D01*
X141604318Y-98692618D02*
X140334318Y-98692618D01*
X140334318Y-98692618D02*
X140334318Y-98994999D01*
X140334318Y-98994999D02*
X140394794Y-99176428D01*
X140394794Y-99176428D02*
X140515746Y-99297380D01*
X140515746Y-99297380D02*
X140636699Y-99357857D01*
X140636699Y-99357857D02*
X140878603Y-99418333D01*
X140878603Y-99418333D02*
X141060032Y-99418333D01*
X141060032Y-99418333D02*
X141301937Y-99357857D01*
X141301937Y-99357857D02*
X141422889Y-99297380D01*
X141422889Y-99297380D02*
X141543842Y-99176428D01*
X141543842Y-99176428D02*
X141604318Y-98994999D01*
X141604318Y-98994999D02*
X141604318Y-98692618D01*
X140334318Y-99841666D02*
X140334318Y-100627857D01*
X140334318Y-100627857D02*
X140818127Y-100204523D01*
X140818127Y-100204523D02*
X140818127Y-100385952D01*
X140818127Y-100385952D02*
X140878603Y-100506904D01*
X140878603Y-100506904D02*
X140939080Y-100567380D01*
X140939080Y-100567380D02*
X141060032Y-100627857D01*
X141060032Y-100627857D02*
X141362413Y-100627857D01*
X141362413Y-100627857D02*
X141483365Y-100567380D01*
X141483365Y-100567380D02*
X141543842Y-100506904D01*
X141543842Y-100506904D02*
X141604318Y-100385952D01*
X141604318Y-100385952D02*
X141604318Y-100023095D01*
X141604318Y-100023095D02*
X141543842Y-99902142D01*
X141543842Y-99902142D02*
X141483365Y-99841666D01*
X140501190Y-132504318D02*
X141105952Y-132504318D01*
X141105952Y-132504318D02*
X141105952Y-131234318D01*
X140077857Y-131839080D02*
X139654523Y-131839080D01*
X139473095Y-132504318D02*
X140077857Y-132504318D01*
X140077857Y-132504318D02*
X140077857Y-131234318D01*
X140077857Y-131234318D02*
X139473095Y-131234318D01*
X138928809Y-132504318D02*
X138928809Y-131234318D01*
X138928809Y-131234318D02*
X138626428Y-131234318D01*
X138626428Y-131234318D02*
X138444999Y-131294794D01*
X138444999Y-131294794D02*
X138324047Y-131415746D01*
X138324047Y-131415746D02*
X138263570Y-131536699D01*
X138263570Y-131536699D02*
X138203094Y-131778603D01*
X138203094Y-131778603D02*
X138203094Y-131960032D01*
X138203094Y-131960032D02*
X138263570Y-132201937D01*
X138263570Y-132201937D02*
X138324047Y-132322889D01*
X138324047Y-132322889D02*
X138444999Y-132443842D01*
X138444999Y-132443842D02*
X138626428Y-132504318D01*
X138626428Y-132504318D02*
X138928809Y-132504318D01*
X136993570Y-132504318D02*
X137719285Y-132504318D01*
X137356428Y-132504318D02*
X137356428Y-131234318D01*
X137356428Y-131234318D02*
X137477380Y-131415746D01*
X137477380Y-131415746D02*
X137598332Y-131536699D01*
X137598332Y-131536699D02*
X137719285Y-131597175D01*
X136246428Y-82683365D02*
X136306904Y-82743842D01*
X136306904Y-82743842D02*
X136488333Y-82804318D01*
X136488333Y-82804318D02*
X136609285Y-82804318D01*
X136609285Y-82804318D02*
X136790714Y-82743842D01*
X136790714Y-82743842D02*
X136911666Y-82622889D01*
X136911666Y-82622889D02*
X136972143Y-82501937D01*
X136972143Y-82501937D02*
X137032619Y-82260032D01*
X137032619Y-82260032D02*
X137032619Y-82078603D01*
X137032619Y-82078603D02*
X136972143Y-81836699D01*
X136972143Y-81836699D02*
X136911666Y-81715746D01*
X136911666Y-81715746D02*
X136790714Y-81594794D01*
X136790714Y-81594794D02*
X136609285Y-81534318D01*
X136609285Y-81534318D02*
X136488333Y-81534318D01*
X136488333Y-81534318D02*
X136306904Y-81594794D01*
X136306904Y-81594794D02*
X136246428Y-81655270D01*
X135762619Y-81655270D02*
X135702143Y-81594794D01*
X135702143Y-81594794D02*
X135581190Y-81534318D01*
X135581190Y-81534318D02*
X135278809Y-81534318D01*
X135278809Y-81534318D02*
X135157857Y-81594794D01*
X135157857Y-81594794D02*
X135097381Y-81655270D01*
X135097381Y-81655270D02*
X135036904Y-81776222D01*
X135036904Y-81776222D02*
X135036904Y-81897175D01*
X135036904Y-81897175D02*
X135097381Y-82078603D01*
X135097381Y-82078603D02*
X135823095Y-82804318D01*
X135823095Y-82804318D02*
X135036904Y-82804318D01*
X133948333Y-81534318D02*
X134190238Y-81534318D01*
X134190238Y-81534318D02*
X134311190Y-81594794D01*
X134311190Y-81594794D02*
X134371666Y-81655270D01*
X134371666Y-81655270D02*
X134492619Y-81836699D01*
X134492619Y-81836699D02*
X134553095Y-82078603D01*
X134553095Y-82078603D02*
X134553095Y-82562413D01*
X134553095Y-82562413D02*
X134492619Y-82683365D01*
X134492619Y-82683365D02*
X134432142Y-82743842D01*
X134432142Y-82743842D02*
X134311190Y-82804318D01*
X134311190Y-82804318D02*
X134069285Y-82804318D01*
X134069285Y-82804318D02*
X133948333Y-82743842D01*
X133948333Y-82743842D02*
X133887857Y-82683365D01*
X133887857Y-82683365D02*
X133827380Y-82562413D01*
X133827380Y-82562413D02*
X133827380Y-82260032D01*
X133827380Y-82260032D02*
X133887857Y-82139080D01*
X133887857Y-82139080D02*
X133948333Y-82078603D01*
X133948333Y-82078603D02*
X134069285Y-82018127D01*
X134069285Y-82018127D02*
X134311190Y-82018127D01*
X134311190Y-82018127D02*
X134432142Y-82078603D01*
X134432142Y-82078603D02*
X134492619Y-82139080D01*
X134492619Y-82139080D02*
X134553095Y-82260032D01*
X134146428Y-95883365D02*
X134206904Y-95943842D01*
X134206904Y-95943842D02*
X134388333Y-96004318D01*
X134388333Y-96004318D02*
X134509285Y-96004318D01*
X134509285Y-96004318D02*
X134690714Y-95943842D01*
X134690714Y-95943842D02*
X134811666Y-95822889D01*
X134811666Y-95822889D02*
X134872143Y-95701937D01*
X134872143Y-95701937D02*
X134932619Y-95460032D01*
X134932619Y-95460032D02*
X134932619Y-95278603D01*
X134932619Y-95278603D02*
X134872143Y-95036699D01*
X134872143Y-95036699D02*
X134811666Y-94915746D01*
X134811666Y-94915746D02*
X134690714Y-94794794D01*
X134690714Y-94794794D02*
X134509285Y-94734318D01*
X134509285Y-94734318D02*
X134388333Y-94734318D01*
X134388333Y-94734318D02*
X134206904Y-94794794D01*
X134206904Y-94794794D02*
X134146428Y-94855270D01*
X133723095Y-94734318D02*
X132936904Y-94734318D01*
X132936904Y-94734318D02*
X133360238Y-95218127D01*
X133360238Y-95218127D02*
X133178809Y-95218127D01*
X133178809Y-95218127D02*
X133057857Y-95278603D01*
X133057857Y-95278603D02*
X132997381Y-95339080D01*
X132997381Y-95339080D02*
X132936904Y-95460032D01*
X132936904Y-95460032D02*
X132936904Y-95762413D01*
X132936904Y-95762413D02*
X132997381Y-95883365D01*
X132997381Y-95883365D02*
X133057857Y-95943842D01*
X133057857Y-95943842D02*
X133178809Y-96004318D01*
X133178809Y-96004318D02*
X133541666Y-96004318D01*
X133541666Y-96004318D02*
X133662619Y-95943842D01*
X133662619Y-95943842D02*
X133723095Y-95883365D01*
X132150714Y-94734318D02*
X132029761Y-94734318D01*
X132029761Y-94734318D02*
X131908809Y-94794794D01*
X131908809Y-94794794D02*
X131848333Y-94855270D01*
X131848333Y-94855270D02*
X131787857Y-94976222D01*
X131787857Y-94976222D02*
X131727380Y-95218127D01*
X131727380Y-95218127D02*
X131727380Y-95520508D01*
X131727380Y-95520508D02*
X131787857Y-95762413D01*
X131787857Y-95762413D02*
X131848333Y-95883365D01*
X131848333Y-95883365D02*
X131908809Y-95943842D01*
X131908809Y-95943842D02*
X132029761Y-96004318D01*
X132029761Y-96004318D02*
X132150714Y-96004318D01*
X132150714Y-96004318D02*
X132271666Y-95943842D01*
X132271666Y-95943842D02*
X132332142Y-95883365D01*
X132332142Y-95883365D02*
X132392619Y-95762413D01*
X132392619Y-95762413D02*
X132453095Y-95520508D01*
X132453095Y-95520508D02*
X132453095Y-95218127D01*
X132453095Y-95218127D02*
X132392619Y-94976222D01*
X132392619Y-94976222D02*
X132332142Y-94855270D01*
X132332142Y-94855270D02*
X132271666Y-94794794D01*
X132271666Y-94794794D02*
X132150714Y-94734318D01*
X137683365Y-104213571D02*
X137743842Y-104153095D01*
X137743842Y-104153095D02*
X137804318Y-103971666D01*
X137804318Y-103971666D02*
X137804318Y-103850714D01*
X137804318Y-103850714D02*
X137743842Y-103669285D01*
X137743842Y-103669285D02*
X137622889Y-103548333D01*
X137622889Y-103548333D02*
X137501937Y-103487856D01*
X137501937Y-103487856D02*
X137260032Y-103427380D01*
X137260032Y-103427380D02*
X137078603Y-103427380D01*
X137078603Y-103427380D02*
X136836699Y-103487856D01*
X136836699Y-103487856D02*
X136715746Y-103548333D01*
X136715746Y-103548333D02*
X136594794Y-103669285D01*
X136594794Y-103669285D02*
X136534318Y-103850714D01*
X136534318Y-103850714D02*
X136534318Y-103971666D01*
X136534318Y-103971666D02*
X136594794Y-104153095D01*
X136594794Y-104153095D02*
X136655270Y-104213571D01*
X136655270Y-104697380D02*
X136594794Y-104757856D01*
X136594794Y-104757856D02*
X136534318Y-104878809D01*
X136534318Y-104878809D02*
X136534318Y-105181190D01*
X136534318Y-105181190D02*
X136594794Y-105302142D01*
X136594794Y-105302142D02*
X136655270Y-105362618D01*
X136655270Y-105362618D02*
X136776222Y-105423095D01*
X136776222Y-105423095D02*
X136897175Y-105423095D01*
X136897175Y-105423095D02*
X137078603Y-105362618D01*
X137078603Y-105362618D02*
X137804318Y-104636904D01*
X137804318Y-104636904D02*
X137804318Y-105423095D01*
X137804318Y-106027857D02*
X137804318Y-106269761D01*
X137804318Y-106269761D02*
X137743842Y-106390714D01*
X137743842Y-106390714D02*
X137683365Y-106451190D01*
X137683365Y-106451190D02*
X137501937Y-106572142D01*
X137501937Y-106572142D02*
X137260032Y-106632619D01*
X137260032Y-106632619D02*
X136776222Y-106632619D01*
X136776222Y-106632619D02*
X136655270Y-106572142D01*
X136655270Y-106572142D02*
X136594794Y-106511666D01*
X136594794Y-106511666D02*
X136534318Y-106390714D01*
X136534318Y-106390714D02*
X136534318Y-106148809D01*
X136534318Y-106148809D02*
X136594794Y-106027857D01*
X136594794Y-106027857D02*
X136655270Y-105967380D01*
X136655270Y-105967380D02*
X136776222Y-105906904D01*
X136776222Y-105906904D02*
X137078603Y-105906904D01*
X137078603Y-105906904D02*
X137199556Y-105967380D01*
X137199556Y-105967380D02*
X137260032Y-106027857D01*
X137260032Y-106027857D02*
X137320508Y-106148809D01*
X137320508Y-106148809D02*
X137320508Y-106390714D01*
X137320508Y-106390714D02*
X137260032Y-106511666D01*
X137260032Y-106511666D02*
X137199556Y-106572142D01*
X137199556Y-106572142D02*
X137078603Y-106632619D01*
X131425270Y-100359047D02*
X131364794Y-100238095D01*
X131364794Y-100238095D02*
X131243842Y-100117142D01*
X131243842Y-100117142D02*
X131062413Y-99935714D01*
X131062413Y-99935714D02*
X131001937Y-99814761D01*
X131001937Y-99814761D02*
X131001937Y-99693809D01*
X131304318Y-99754285D02*
X131243842Y-99633333D01*
X131243842Y-99633333D02*
X131122889Y-99512380D01*
X131122889Y-99512380D02*
X130880984Y-99451904D01*
X130880984Y-99451904D02*
X130457651Y-99451904D01*
X130457651Y-99451904D02*
X130215746Y-99512380D01*
X130215746Y-99512380D02*
X130094794Y-99633333D01*
X130094794Y-99633333D02*
X130034318Y-99754285D01*
X130034318Y-99754285D02*
X130034318Y-99996190D01*
X130034318Y-99996190D02*
X130094794Y-100117142D01*
X130094794Y-100117142D02*
X130215746Y-100238095D01*
X130215746Y-100238095D02*
X130457651Y-100298571D01*
X130457651Y-100298571D02*
X130880984Y-100298571D01*
X130880984Y-100298571D02*
X131122889Y-100238095D01*
X131122889Y-100238095D02*
X131243842Y-100117142D01*
X131243842Y-100117142D02*
X131304318Y-99996190D01*
X131304318Y-99996190D02*
X131304318Y-99754285D01*
X131304318Y-101508095D02*
X131304318Y-100782380D01*
X131304318Y-101145237D02*
X130034318Y-101145237D01*
X130034318Y-101145237D02*
X130215746Y-101024285D01*
X130215746Y-101024285D02*
X130336699Y-100903333D01*
X130336699Y-100903333D02*
X130397175Y-100782380D01*
X136246428Y-70683365D02*
X136306904Y-70743842D01*
X136306904Y-70743842D02*
X136488333Y-70804318D01*
X136488333Y-70804318D02*
X136609285Y-70804318D01*
X136609285Y-70804318D02*
X136790714Y-70743842D01*
X136790714Y-70743842D02*
X136911666Y-70622889D01*
X136911666Y-70622889D02*
X136972143Y-70501937D01*
X136972143Y-70501937D02*
X137032619Y-70260032D01*
X137032619Y-70260032D02*
X137032619Y-70078603D01*
X137032619Y-70078603D02*
X136972143Y-69836699D01*
X136972143Y-69836699D02*
X136911666Y-69715746D01*
X136911666Y-69715746D02*
X136790714Y-69594794D01*
X136790714Y-69594794D02*
X136609285Y-69534318D01*
X136609285Y-69534318D02*
X136488333Y-69534318D01*
X136488333Y-69534318D02*
X136306904Y-69594794D01*
X136306904Y-69594794D02*
X136246428Y-69655270D01*
X135762619Y-69655270D02*
X135702143Y-69594794D01*
X135702143Y-69594794D02*
X135581190Y-69534318D01*
X135581190Y-69534318D02*
X135278809Y-69534318D01*
X135278809Y-69534318D02*
X135157857Y-69594794D01*
X135157857Y-69594794D02*
X135097381Y-69655270D01*
X135097381Y-69655270D02*
X135036904Y-69776222D01*
X135036904Y-69776222D02*
X135036904Y-69897175D01*
X135036904Y-69897175D02*
X135097381Y-70078603D01*
X135097381Y-70078603D02*
X135823095Y-70804318D01*
X135823095Y-70804318D02*
X135036904Y-70804318D01*
X134311190Y-70078603D02*
X134432142Y-70018127D01*
X134432142Y-70018127D02*
X134492619Y-69957651D01*
X134492619Y-69957651D02*
X134553095Y-69836699D01*
X134553095Y-69836699D02*
X134553095Y-69776222D01*
X134553095Y-69776222D02*
X134492619Y-69655270D01*
X134492619Y-69655270D02*
X134432142Y-69594794D01*
X134432142Y-69594794D02*
X134311190Y-69534318D01*
X134311190Y-69534318D02*
X134069285Y-69534318D01*
X134069285Y-69534318D02*
X133948333Y-69594794D01*
X133948333Y-69594794D02*
X133887857Y-69655270D01*
X133887857Y-69655270D02*
X133827380Y-69776222D01*
X133827380Y-69776222D02*
X133827380Y-69836699D01*
X133827380Y-69836699D02*
X133887857Y-69957651D01*
X133887857Y-69957651D02*
X133948333Y-70018127D01*
X133948333Y-70018127D02*
X134069285Y-70078603D01*
X134069285Y-70078603D02*
X134311190Y-70078603D01*
X134311190Y-70078603D02*
X134432142Y-70139080D01*
X134432142Y-70139080D02*
X134492619Y-70199556D01*
X134492619Y-70199556D02*
X134553095Y-70320508D01*
X134553095Y-70320508D02*
X134553095Y-70562413D01*
X134553095Y-70562413D02*
X134492619Y-70683365D01*
X134492619Y-70683365D02*
X134432142Y-70743842D01*
X134432142Y-70743842D02*
X134311190Y-70804318D01*
X134311190Y-70804318D02*
X134069285Y-70804318D01*
X134069285Y-70804318D02*
X133948333Y-70743842D01*
X133948333Y-70743842D02*
X133887857Y-70683365D01*
X133887857Y-70683365D02*
X133827380Y-70562413D01*
X133827380Y-70562413D02*
X133827380Y-70320508D01*
X133827380Y-70320508D02*
X133887857Y-70199556D01*
X133887857Y-70199556D02*
X133948333Y-70139080D01*
X133948333Y-70139080D02*
X134069285Y-70078603D01*
X136246428Y-79683365D02*
X136306904Y-79743842D01*
X136306904Y-79743842D02*
X136488333Y-79804318D01*
X136488333Y-79804318D02*
X136609285Y-79804318D01*
X136609285Y-79804318D02*
X136790714Y-79743842D01*
X136790714Y-79743842D02*
X136911666Y-79622889D01*
X136911666Y-79622889D02*
X136972143Y-79501937D01*
X136972143Y-79501937D02*
X137032619Y-79260032D01*
X137032619Y-79260032D02*
X137032619Y-79078603D01*
X137032619Y-79078603D02*
X136972143Y-78836699D01*
X136972143Y-78836699D02*
X136911666Y-78715746D01*
X136911666Y-78715746D02*
X136790714Y-78594794D01*
X136790714Y-78594794D02*
X136609285Y-78534318D01*
X136609285Y-78534318D02*
X136488333Y-78534318D01*
X136488333Y-78534318D02*
X136306904Y-78594794D01*
X136306904Y-78594794D02*
X136246428Y-78655270D01*
X135762619Y-78655270D02*
X135702143Y-78594794D01*
X135702143Y-78594794D02*
X135581190Y-78534318D01*
X135581190Y-78534318D02*
X135278809Y-78534318D01*
X135278809Y-78534318D02*
X135157857Y-78594794D01*
X135157857Y-78594794D02*
X135097381Y-78655270D01*
X135097381Y-78655270D02*
X135036904Y-78776222D01*
X135036904Y-78776222D02*
X135036904Y-78897175D01*
X135036904Y-78897175D02*
X135097381Y-79078603D01*
X135097381Y-79078603D02*
X135823095Y-79804318D01*
X135823095Y-79804318D02*
X135036904Y-79804318D01*
X133887857Y-78534318D02*
X134492619Y-78534318D01*
X134492619Y-78534318D02*
X134553095Y-79139080D01*
X134553095Y-79139080D02*
X134492619Y-79078603D01*
X134492619Y-79078603D02*
X134371666Y-79018127D01*
X134371666Y-79018127D02*
X134069285Y-79018127D01*
X134069285Y-79018127D02*
X133948333Y-79078603D01*
X133948333Y-79078603D02*
X133887857Y-79139080D01*
X133887857Y-79139080D02*
X133827380Y-79260032D01*
X133827380Y-79260032D02*
X133827380Y-79562413D01*
X133827380Y-79562413D02*
X133887857Y-79683365D01*
X133887857Y-79683365D02*
X133948333Y-79743842D01*
X133948333Y-79743842D02*
X134069285Y-79804318D01*
X134069285Y-79804318D02*
X134371666Y-79804318D01*
X134371666Y-79804318D02*
X134492619Y-79743842D01*
X134492619Y-79743842D02*
X134553095Y-79683365D01*
X187040965Y-135745133D02*
X187101442Y-135684657D01*
X187101442Y-135684657D02*
X187161918Y-135503228D01*
X187161918Y-135503228D02*
X187161918Y-135382276D01*
X187161918Y-135382276D02*
X187101442Y-135200847D01*
X187101442Y-135200847D02*
X186980489Y-135079895D01*
X186980489Y-135079895D02*
X186859537Y-135019418D01*
X186859537Y-135019418D02*
X186617632Y-134958942D01*
X186617632Y-134958942D02*
X186436203Y-134958942D01*
X186436203Y-134958942D02*
X186194299Y-135019418D01*
X186194299Y-135019418D02*
X186073346Y-135079895D01*
X186073346Y-135079895D02*
X185952394Y-135200847D01*
X185952394Y-135200847D02*
X185891918Y-135382276D01*
X185891918Y-135382276D02*
X185891918Y-135503228D01*
X185891918Y-135503228D02*
X185952394Y-135684657D01*
X185952394Y-135684657D02*
X186012870Y-135745133D01*
X185891918Y-136168466D02*
X185891918Y-136954657D01*
X185891918Y-136954657D02*
X186375727Y-136531323D01*
X186375727Y-136531323D02*
X186375727Y-136712752D01*
X186375727Y-136712752D02*
X186436203Y-136833704D01*
X186436203Y-136833704D02*
X186496680Y-136894180D01*
X186496680Y-136894180D02*
X186617632Y-136954657D01*
X186617632Y-136954657D02*
X186920013Y-136954657D01*
X186920013Y-136954657D02*
X187040965Y-136894180D01*
X187040965Y-136894180D02*
X187101442Y-136833704D01*
X187101442Y-136833704D02*
X187161918Y-136712752D01*
X187161918Y-136712752D02*
X187161918Y-136349895D01*
X187161918Y-136349895D02*
X187101442Y-136228942D01*
X187101442Y-136228942D02*
X187040965Y-136168466D01*
X159043842Y-116862380D02*
X159104318Y-117043809D01*
X159104318Y-117043809D02*
X159104318Y-117346190D01*
X159104318Y-117346190D02*
X159043842Y-117467142D01*
X159043842Y-117467142D02*
X158983365Y-117527618D01*
X158983365Y-117527618D02*
X158862413Y-117588095D01*
X158862413Y-117588095D02*
X158741461Y-117588095D01*
X158741461Y-117588095D02*
X158620508Y-117527618D01*
X158620508Y-117527618D02*
X158560032Y-117467142D01*
X158560032Y-117467142D02*
X158499556Y-117346190D01*
X158499556Y-117346190D02*
X158439080Y-117104285D01*
X158439080Y-117104285D02*
X158378603Y-116983333D01*
X158378603Y-116983333D02*
X158318127Y-116922856D01*
X158318127Y-116922856D02*
X158197175Y-116862380D01*
X158197175Y-116862380D02*
X158076222Y-116862380D01*
X158076222Y-116862380D02*
X157955270Y-116922856D01*
X157955270Y-116922856D02*
X157894794Y-116983333D01*
X157894794Y-116983333D02*
X157834318Y-117104285D01*
X157834318Y-117104285D02*
X157834318Y-117406666D01*
X157834318Y-117406666D02*
X157894794Y-117588095D01*
X159104318Y-118797619D02*
X159104318Y-118071904D01*
X159104318Y-118434761D02*
X157834318Y-118434761D01*
X157834318Y-118434761D02*
X158015746Y-118313809D01*
X158015746Y-118313809D02*
X158136699Y-118192857D01*
X158136699Y-118192857D02*
X158197175Y-118071904D01*
X136246428Y-76683365D02*
X136306904Y-76743842D01*
X136306904Y-76743842D02*
X136488333Y-76804318D01*
X136488333Y-76804318D02*
X136609285Y-76804318D01*
X136609285Y-76804318D02*
X136790714Y-76743842D01*
X136790714Y-76743842D02*
X136911666Y-76622889D01*
X136911666Y-76622889D02*
X136972143Y-76501937D01*
X136972143Y-76501937D02*
X137032619Y-76260032D01*
X137032619Y-76260032D02*
X137032619Y-76078603D01*
X137032619Y-76078603D02*
X136972143Y-75836699D01*
X136972143Y-75836699D02*
X136911666Y-75715746D01*
X136911666Y-75715746D02*
X136790714Y-75594794D01*
X136790714Y-75594794D02*
X136609285Y-75534318D01*
X136609285Y-75534318D02*
X136488333Y-75534318D01*
X136488333Y-75534318D02*
X136306904Y-75594794D01*
X136306904Y-75594794D02*
X136246428Y-75655270D01*
X135762619Y-75655270D02*
X135702143Y-75594794D01*
X135702143Y-75594794D02*
X135581190Y-75534318D01*
X135581190Y-75534318D02*
X135278809Y-75534318D01*
X135278809Y-75534318D02*
X135157857Y-75594794D01*
X135157857Y-75594794D02*
X135097381Y-75655270D01*
X135097381Y-75655270D02*
X135036904Y-75776222D01*
X135036904Y-75776222D02*
X135036904Y-75897175D01*
X135036904Y-75897175D02*
X135097381Y-76078603D01*
X135097381Y-76078603D02*
X135823095Y-76804318D01*
X135823095Y-76804318D02*
X135036904Y-76804318D01*
X133948333Y-75957651D02*
X133948333Y-76804318D01*
X134250714Y-75473842D02*
X134553095Y-76380984D01*
X134553095Y-76380984D02*
X133766904Y-76380984D01*
X137666666Y-94904318D02*
X138090000Y-94299556D01*
X138392381Y-94904318D02*
X138392381Y-93634318D01*
X138392381Y-93634318D02*
X137908571Y-93634318D01*
X137908571Y-93634318D02*
X137787619Y-93694794D01*
X137787619Y-93694794D02*
X137727142Y-93755270D01*
X137727142Y-93755270D02*
X137666666Y-93876222D01*
X137666666Y-93876222D02*
X137666666Y-94057651D01*
X137666666Y-94057651D02*
X137727142Y-94178603D01*
X137727142Y-94178603D02*
X137787619Y-94239080D01*
X137787619Y-94239080D02*
X137908571Y-94299556D01*
X137908571Y-94299556D02*
X138392381Y-94299556D01*
X137061904Y-94904318D02*
X136820000Y-94904318D01*
X136820000Y-94904318D02*
X136699047Y-94843842D01*
X136699047Y-94843842D02*
X136638571Y-94783365D01*
X136638571Y-94783365D02*
X136517619Y-94601937D01*
X136517619Y-94601937D02*
X136457142Y-94360032D01*
X136457142Y-94360032D02*
X136457142Y-93876222D01*
X136457142Y-93876222D02*
X136517619Y-93755270D01*
X136517619Y-93755270D02*
X136578095Y-93694794D01*
X136578095Y-93694794D02*
X136699047Y-93634318D01*
X136699047Y-93634318D02*
X136940952Y-93634318D01*
X136940952Y-93634318D02*
X137061904Y-93694794D01*
X137061904Y-93694794D02*
X137122381Y-93755270D01*
X137122381Y-93755270D02*
X137182857Y-93876222D01*
X137182857Y-93876222D02*
X137182857Y-94178603D01*
X137182857Y-94178603D02*
X137122381Y-94299556D01*
X137122381Y-94299556D02*
X137061904Y-94360032D01*
X137061904Y-94360032D02*
X136940952Y-94420508D01*
X136940952Y-94420508D02*
X136699047Y-94420508D01*
X136699047Y-94420508D02*
X136578095Y-94360032D01*
X136578095Y-94360032D02*
X136517619Y-94299556D01*
X136517619Y-94299556D02*
X136457142Y-94178603D01*
X140241666Y-130058365D02*
X140302142Y-130118842D01*
X140302142Y-130118842D02*
X140483571Y-130179318D01*
X140483571Y-130179318D02*
X140604523Y-130179318D01*
X140604523Y-130179318D02*
X140785952Y-130118842D01*
X140785952Y-130118842D02*
X140906904Y-129997889D01*
X140906904Y-129997889D02*
X140967381Y-129876937D01*
X140967381Y-129876937D02*
X141027857Y-129635032D01*
X141027857Y-129635032D02*
X141027857Y-129453603D01*
X141027857Y-129453603D02*
X140967381Y-129211699D01*
X140967381Y-129211699D02*
X140906904Y-129090746D01*
X140906904Y-129090746D02*
X140785952Y-128969794D01*
X140785952Y-128969794D02*
X140604523Y-128909318D01*
X140604523Y-128909318D02*
X140483571Y-128909318D01*
X140483571Y-128909318D02*
X140302142Y-128969794D01*
X140302142Y-128969794D02*
X140241666Y-129030270D01*
X139032142Y-130179318D02*
X139757857Y-130179318D01*
X139395000Y-130179318D02*
X139395000Y-128909318D01*
X139395000Y-128909318D02*
X139515952Y-129090746D01*
X139515952Y-129090746D02*
X139636904Y-129211699D01*
X139636904Y-129211699D02*
X139757857Y-129272175D01*
X183040965Y-135045133D02*
X183101442Y-134984657D01*
X183101442Y-134984657D02*
X183161918Y-134803228D01*
X183161918Y-134803228D02*
X183161918Y-134682276D01*
X183161918Y-134682276D02*
X183101442Y-134500847D01*
X183101442Y-134500847D02*
X182980489Y-134379895D01*
X182980489Y-134379895D02*
X182859537Y-134319418D01*
X182859537Y-134319418D02*
X182617632Y-134258942D01*
X182617632Y-134258942D02*
X182436203Y-134258942D01*
X182436203Y-134258942D02*
X182194299Y-134319418D01*
X182194299Y-134319418D02*
X182073346Y-134379895D01*
X182073346Y-134379895D02*
X181952394Y-134500847D01*
X181952394Y-134500847D02*
X181891918Y-134682276D01*
X181891918Y-134682276D02*
X181891918Y-134803228D01*
X181891918Y-134803228D02*
X181952394Y-134984657D01*
X181952394Y-134984657D02*
X182012870Y-135045133D01*
X181891918Y-135468466D02*
X181891918Y-136315133D01*
X181891918Y-136315133D02*
X183161918Y-135770847D01*
D11*
X157838095Y-78075180D02*
X157838095Y-77265657D01*
X157838095Y-77265657D02*
X157885714Y-77170419D01*
X157885714Y-77170419D02*
X157933333Y-77122800D01*
X157933333Y-77122800D02*
X158028571Y-77075180D01*
X158028571Y-77075180D02*
X158219047Y-77075180D01*
X158219047Y-77075180D02*
X158314285Y-77122800D01*
X158314285Y-77122800D02*
X158361904Y-77170419D01*
X158361904Y-77170419D02*
X158409523Y-77265657D01*
X158409523Y-77265657D02*
X158409523Y-78075180D01*
X159409523Y-77075180D02*
X158838095Y-77075180D01*
X159123809Y-77075180D02*
X159123809Y-78075180D01*
X159123809Y-78075180D02*
X159028571Y-77932323D01*
X159028571Y-77932323D02*
X158933333Y-77837085D01*
X158933333Y-77837085D02*
X158838095Y-77789466D01*
D12*
X165457419Y-68175312D02*
X164981228Y-67841979D01*
X165457419Y-67603884D02*
X164457419Y-67603884D01*
X164457419Y-67603884D02*
X164457419Y-67984836D01*
X164457419Y-67984836D02*
X164505038Y-68080074D01*
X164505038Y-68080074D02*
X164552657Y-68127693D01*
X164552657Y-68127693D02*
X164647895Y-68175312D01*
X164647895Y-68175312D02*
X164790752Y-68175312D01*
X164790752Y-68175312D02*
X164885990Y-68127693D01*
X164885990Y-68127693D02*
X164933609Y-68080074D01*
X164933609Y-68080074D02*
X164981228Y-67984836D01*
X164981228Y-67984836D02*
X164981228Y-67603884D01*
X164933609Y-68603884D02*
X164933609Y-68937217D01*
X165457419Y-69080074D02*
X165457419Y-68603884D01*
X165457419Y-68603884D02*
X164457419Y-68603884D01*
X164457419Y-68603884D02*
X164457419Y-69080074D01*
X165409800Y-69461027D02*
X165457419Y-69603884D01*
X165457419Y-69603884D02*
X165457419Y-69841979D01*
X165457419Y-69841979D02*
X165409800Y-69937217D01*
X165409800Y-69937217D02*
X165362180Y-69984836D01*
X165362180Y-69984836D02*
X165266942Y-70032455D01*
X165266942Y-70032455D02*
X165171704Y-70032455D01*
X165171704Y-70032455D02*
X165076466Y-69984836D01*
X165076466Y-69984836D02*
X165028847Y-69937217D01*
X165028847Y-69937217D02*
X164981228Y-69841979D01*
X164981228Y-69841979D02*
X164933609Y-69651503D01*
X164933609Y-69651503D02*
X164885990Y-69556265D01*
X164885990Y-69556265D02*
X164838371Y-69508646D01*
X164838371Y-69508646D02*
X164743133Y-69461027D01*
X164743133Y-69461027D02*
X164647895Y-69461027D01*
X164647895Y-69461027D02*
X164552657Y-69508646D01*
X164552657Y-69508646D02*
X164505038Y-69556265D01*
X164505038Y-69556265D02*
X164457419Y-69651503D01*
X164457419Y-69651503D02*
X164457419Y-69889598D01*
X164457419Y-69889598D02*
X164505038Y-70032455D01*
X164933609Y-70461027D02*
X164933609Y-70794360D01*
X165457419Y-70937217D02*
X165457419Y-70461027D01*
X165457419Y-70461027D02*
X164457419Y-70461027D01*
X164457419Y-70461027D02*
X164457419Y-70937217D01*
X164457419Y-71222932D02*
X164457419Y-71794360D01*
X165457419Y-71508646D02*
X164457419Y-71508646D01*
X162393609Y-67937217D02*
X162441228Y-68080074D01*
X162441228Y-68080074D02*
X162488847Y-68127693D01*
X162488847Y-68127693D02*
X162584085Y-68175312D01*
X162584085Y-68175312D02*
X162726942Y-68175312D01*
X162726942Y-68175312D02*
X162822180Y-68127693D01*
X162822180Y-68127693D02*
X162869800Y-68080074D01*
X162869800Y-68080074D02*
X162917419Y-67984836D01*
X162917419Y-67984836D02*
X162917419Y-67603884D01*
X162917419Y-67603884D02*
X161917419Y-67603884D01*
X161917419Y-67603884D02*
X161917419Y-67937217D01*
X161917419Y-67937217D02*
X161965038Y-68032455D01*
X161965038Y-68032455D02*
X162012657Y-68080074D01*
X162012657Y-68080074D02*
X162107895Y-68127693D01*
X162107895Y-68127693D02*
X162203133Y-68127693D01*
X162203133Y-68127693D02*
X162298371Y-68080074D01*
X162298371Y-68080074D02*
X162345990Y-68032455D01*
X162345990Y-68032455D02*
X162393609Y-67937217D01*
X162393609Y-67937217D02*
X162393609Y-67603884D01*
X161917419Y-68603884D02*
X162726942Y-68603884D01*
X162726942Y-68603884D02*
X162822180Y-68651503D01*
X162822180Y-68651503D02*
X162869800Y-68699122D01*
X162869800Y-68699122D02*
X162917419Y-68794360D01*
X162917419Y-68794360D02*
X162917419Y-68984836D01*
X162917419Y-68984836D02*
X162869800Y-69080074D01*
X162869800Y-69080074D02*
X162822180Y-69127693D01*
X162822180Y-69127693D02*
X162726942Y-69175312D01*
X162726942Y-69175312D02*
X161917419Y-69175312D01*
X162869800Y-69603884D02*
X162917419Y-69746741D01*
X162917419Y-69746741D02*
X162917419Y-69984836D01*
X162917419Y-69984836D02*
X162869800Y-70080074D01*
X162869800Y-70080074D02*
X162822180Y-70127693D01*
X162822180Y-70127693D02*
X162726942Y-70175312D01*
X162726942Y-70175312D02*
X162631704Y-70175312D01*
X162631704Y-70175312D02*
X162536466Y-70127693D01*
X162536466Y-70127693D02*
X162488847Y-70080074D01*
X162488847Y-70080074D02*
X162441228Y-69984836D01*
X162441228Y-69984836D02*
X162393609Y-69794360D01*
X162393609Y-69794360D02*
X162345990Y-69699122D01*
X162345990Y-69699122D02*
X162298371Y-69651503D01*
X162298371Y-69651503D02*
X162203133Y-69603884D01*
X162203133Y-69603884D02*
X162107895Y-69603884D01*
X162107895Y-69603884D02*
X162012657Y-69651503D01*
X162012657Y-69651503D02*
X161965038Y-69699122D01*
X161965038Y-69699122D02*
X161917419Y-69794360D01*
X161917419Y-69794360D02*
X161917419Y-70032455D01*
X161917419Y-70032455D02*
X161965038Y-70175312D01*
X162441228Y-70794360D02*
X162917419Y-70794360D01*
X161917419Y-70461027D02*
X162441228Y-70794360D01*
X162441228Y-70794360D02*
X161917419Y-71127693D01*
X146677419Y-67508646D02*
X146677419Y-68127693D01*
X146677419Y-68127693D02*
X147058371Y-67794360D01*
X147058371Y-67794360D02*
X147058371Y-67937217D01*
X147058371Y-67937217D02*
X147105990Y-68032455D01*
X147105990Y-68032455D02*
X147153609Y-68080074D01*
X147153609Y-68080074D02*
X147248847Y-68127693D01*
X147248847Y-68127693D02*
X147486942Y-68127693D01*
X147486942Y-68127693D02*
X147582180Y-68080074D01*
X147582180Y-68080074D02*
X147629800Y-68032455D01*
X147629800Y-68032455D02*
X147677419Y-67937217D01*
X147677419Y-67937217D02*
X147677419Y-67651503D01*
X147677419Y-67651503D02*
X147629800Y-67556265D01*
X147629800Y-67556265D02*
X147582180Y-67508646D01*
X146677419Y-68413408D02*
X147677419Y-68746741D01*
X147677419Y-68746741D02*
X146677419Y-69080074D01*
X146677419Y-69603884D02*
X146677419Y-69699122D01*
X146677419Y-69699122D02*
X146725038Y-69794360D01*
X146725038Y-69794360D02*
X146772657Y-69841979D01*
X146772657Y-69841979D02*
X146867895Y-69889598D01*
X146867895Y-69889598D02*
X147058371Y-69937217D01*
X147058371Y-69937217D02*
X147296466Y-69937217D01*
X147296466Y-69937217D02*
X147486942Y-69889598D01*
X147486942Y-69889598D02*
X147582180Y-69841979D01*
X147582180Y-69841979D02*
X147629800Y-69794360D01*
X147629800Y-69794360D02*
X147677419Y-69699122D01*
X147677419Y-69699122D02*
X147677419Y-69603884D01*
X147677419Y-69603884D02*
X147629800Y-69508646D01*
X147629800Y-69508646D02*
X147582180Y-69461027D01*
X147582180Y-69461027D02*
X147486942Y-69413408D01*
X147486942Y-69413408D02*
X147296466Y-69365789D01*
X147296466Y-69365789D02*
X147058371Y-69365789D01*
X147058371Y-69365789D02*
X146867895Y-69413408D01*
X146867895Y-69413408D02*
X146772657Y-69461027D01*
X146772657Y-69461027D02*
X146725038Y-69508646D01*
X146725038Y-69508646D02*
X146677419Y-69603884D01*
X157837419Y-67603884D02*
X156837419Y-67603884D01*
X156837419Y-67603884D02*
X157551704Y-67937217D01*
X157551704Y-67937217D02*
X156837419Y-68270550D01*
X156837419Y-68270550D02*
X157837419Y-68270550D01*
X156837419Y-68937217D02*
X156837419Y-69127693D01*
X156837419Y-69127693D02*
X156885038Y-69222931D01*
X156885038Y-69222931D02*
X156980276Y-69318169D01*
X156980276Y-69318169D02*
X157170752Y-69365788D01*
X157170752Y-69365788D02*
X157504085Y-69365788D01*
X157504085Y-69365788D02*
X157694561Y-69318169D01*
X157694561Y-69318169D02*
X157789800Y-69222931D01*
X157789800Y-69222931D02*
X157837419Y-69127693D01*
X157837419Y-69127693D02*
X157837419Y-68937217D01*
X157837419Y-68937217D02*
X157789800Y-68841979D01*
X157789800Y-68841979D02*
X157694561Y-68746741D01*
X157694561Y-68746741D02*
X157504085Y-68699122D01*
X157504085Y-68699122D02*
X157170752Y-68699122D01*
X157170752Y-68699122D02*
X156980276Y-68746741D01*
X156980276Y-68746741D02*
X156885038Y-68841979D01*
X156885038Y-68841979D02*
X156837419Y-68937217D01*
X157789800Y-69746741D02*
X157837419Y-69889598D01*
X157837419Y-69889598D02*
X157837419Y-70127693D01*
X157837419Y-70127693D02*
X157789800Y-70222931D01*
X157789800Y-70222931D02*
X157742180Y-70270550D01*
X157742180Y-70270550D02*
X157646942Y-70318169D01*
X157646942Y-70318169D02*
X157551704Y-70318169D01*
X157551704Y-70318169D02*
X157456466Y-70270550D01*
X157456466Y-70270550D02*
X157408847Y-70222931D01*
X157408847Y-70222931D02*
X157361228Y-70127693D01*
X157361228Y-70127693D02*
X157313609Y-69937217D01*
X157313609Y-69937217D02*
X157265990Y-69841979D01*
X157265990Y-69841979D02*
X157218371Y-69794360D01*
X157218371Y-69794360D02*
X157123133Y-69746741D01*
X157123133Y-69746741D02*
X157027895Y-69746741D01*
X157027895Y-69746741D02*
X156932657Y-69794360D01*
X156932657Y-69794360D02*
X156885038Y-69841979D01*
X156885038Y-69841979D02*
X156837419Y-69937217D01*
X156837419Y-69937217D02*
X156837419Y-70175312D01*
X156837419Y-70175312D02*
X156885038Y-70318169D01*
X157837419Y-70746741D02*
X156837419Y-70746741D01*
X152709800Y-67556265D02*
X152757419Y-67699122D01*
X152757419Y-67699122D02*
X152757419Y-67937217D01*
X152757419Y-67937217D02*
X152709800Y-68032455D01*
X152709800Y-68032455D02*
X152662180Y-68080074D01*
X152662180Y-68080074D02*
X152566942Y-68127693D01*
X152566942Y-68127693D02*
X152471704Y-68127693D01*
X152471704Y-68127693D02*
X152376466Y-68080074D01*
X152376466Y-68080074D02*
X152328847Y-68032455D01*
X152328847Y-68032455D02*
X152281228Y-67937217D01*
X152281228Y-67937217D02*
X152233609Y-67746741D01*
X152233609Y-67746741D02*
X152185990Y-67651503D01*
X152185990Y-67651503D02*
X152138371Y-67603884D01*
X152138371Y-67603884D02*
X152043133Y-67556265D01*
X152043133Y-67556265D02*
X151947895Y-67556265D01*
X151947895Y-67556265D02*
X151852657Y-67603884D01*
X151852657Y-67603884D02*
X151805038Y-67651503D01*
X151805038Y-67651503D02*
X151757419Y-67746741D01*
X151757419Y-67746741D02*
X151757419Y-67984836D01*
X151757419Y-67984836D02*
X151805038Y-68127693D01*
X152662180Y-69127693D02*
X152709800Y-69080074D01*
X152709800Y-69080074D02*
X152757419Y-68937217D01*
X152757419Y-68937217D02*
X152757419Y-68841979D01*
X152757419Y-68841979D02*
X152709800Y-68699122D01*
X152709800Y-68699122D02*
X152614561Y-68603884D01*
X152614561Y-68603884D02*
X152519323Y-68556265D01*
X152519323Y-68556265D02*
X152328847Y-68508646D01*
X152328847Y-68508646D02*
X152185990Y-68508646D01*
X152185990Y-68508646D02*
X151995514Y-68556265D01*
X151995514Y-68556265D02*
X151900276Y-68603884D01*
X151900276Y-68603884D02*
X151805038Y-68699122D01*
X151805038Y-68699122D02*
X151757419Y-68841979D01*
X151757419Y-68841979D02*
X151757419Y-68937217D01*
X151757419Y-68937217D02*
X151805038Y-69080074D01*
X151805038Y-69080074D02*
X151852657Y-69127693D01*
X152757419Y-69556265D02*
X151757419Y-69556265D01*
X152757419Y-70127693D02*
X152185990Y-69699122D01*
X151757419Y-70127693D02*
X152328847Y-69556265D01*
X155297419Y-67603884D02*
X154297419Y-67603884D01*
X154297419Y-67603884D02*
X155011704Y-67937217D01*
X155011704Y-67937217D02*
X154297419Y-68270550D01*
X154297419Y-68270550D02*
X155297419Y-68270550D01*
X155297419Y-68746741D02*
X154297419Y-68746741D01*
X155249800Y-69175312D02*
X155297419Y-69318169D01*
X155297419Y-69318169D02*
X155297419Y-69556264D01*
X155297419Y-69556264D02*
X155249800Y-69651502D01*
X155249800Y-69651502D02*
X155202180Y-69699121D01*
X155202180Y-69699121D02*
X155106942Y-69746740D01*
X155106942Y-69746740D02*
X155011704Y-69746740D01*
X155011704Y-69746740D02*
X154916466Y-69699121D01*
X154916466Y-69699121D02*
X154868847Y-69651502D01*
X154868847Y-69651502D02*
X154821228Y-69556264D01*
X154821228Y-69556264D02*
X154773609Y-69365788D01*
X154773609Y-69365788D02*
X154725990Y-69270550D01*
X154725990Y-69270550D02*
X154678371Y-69222931D01*
X154678371Y-69222931D02*
X154583133Y-69175312D01*
X154583133Y-69175312D02*
X154487895Y-69175312D01*
X154487895Y-69175312D02*
X154392657Y-69222931D01*
X154392657Y-69222931D02*
X154345038Y-69270550D01*
X154345038Y-69270550D02*
X154297419Y-69365788D01*
X154297419Y-69365788D02*
X154297419Y-69603883D01*
X154297419Y-69603883D02*
X154345038Y-69746740D01*
X154297419Y-70365788D02*
X154297419Y-70556264D01*
X154297419Y-70556264D02*
X154345038Y-70651502D01*
X154345038Y-70651502D02*
X154440276Y-70746740D01*
X154440276Y-70746740D02*
X154630752Y-70794359D01*
X154630752Y-70794359D02*
X154964085Y-70794359D01*
X154964085Y-70794359D02*
X155154561Y-70746740D01*
X155154561Y-70746740D02*
X155249800Y-70651502D01*
X155249800Y-70651502D02*
X155297419Y-70556264D01*
X155297419Y-70556264D02*
X155297419Y-70365788D01*
X155297419Y-70365788D02*
X155249800Y-70270550D01*
X155249800Y-70270550D02*
X155154561Y-70175312D01*
X155154561Y-70175312D02*
X154964085Y-70127693D01*
X154964085Y-70127693D02*
X154630752Y-70127693D01*
X154630752Y-70127693D02*
X154440276Y-70175312D01*
X154440276Y-70175312D02*
X154345038Y-70270550D01*
X154345038Y-70270550D02*
X154297419Y-70365788D01*
X160282180Y-68175312D02*
X160329800Y-68127693D01*
X160329800Y-68127693D02*
X160377419Y-67984836D01*
X160377419Y-67984836D02*
X160377419Y-67889598D01*
X160377419Y-67889598D02*
X160329800Y-67746741D01*
X160329800Y-67746741D02*
X160234561Y-67651503D01*
X160234561Y-67651503D02*
X160139323Y-67603884D01*
X160139323Y-67603884D02*
X159948847Y-67556265D01*
X159948847Y-67556265D02*
X159805990Y-67556265D01*
X159805990Y-67556265D02*
X159615514Y-67603884D01*
X159615514Y-67603884D02*
X159520276Y-67651503D01*
X159520276Y-67651503D02*
X159425038Y-67746741D01*
X159425038Y-67746741D02*
X159377419Y-67889598D01*
X159377419Y-67889598D02*
X159377419Y-67984836D01*
X159377419Y-67984836D02*
X159425038Y-68127693D01*
X159425038Y-68127693D02*
X159472657Y-68175312D01*
X160329800Y-68556265D02*
X160377419Y-68699122D01*
X160377419Y-68699122D02*
X160377419Y-68937217D01*
X160377419Y-68937217D02*
X160329800Y-69032455D01*
X160329800Y-69032455D02*
X160282180Y-69080074D01*
X160282180Y-69080074D02*
X160186942Y-69127693D01*
X160186942Y-69127693D02*
X160091704Y-69127693D01*
X160091704Y-69127693D02*
X159996466Y-69080074D01*
X159996466Y-69080074D02*
X159948847Y-69032455D01*
X159948847Y-69032455D02*
X159901228Y-68937217D01*
X159901228Y-68937217D02*
X159853609Y-68746741D01*
X159853609Y-68746741D02*
X159805990Y-68651503D01*
X159805990Y-68651503D02*
X159758371Y-68603884D01*
X159758371Y-68603884D02*
X159663133Y-68556265D01*
X159663133Y-68556265D02*
X159567895Y-68556265D01*
X159567895Y-68556265D02*
X159472657Y-68603884D01*
X159472657Y-68603884D02*
X159425038Y-68651503D01*
X159425038Y-68651503D02*
X159377419Y-68746741D01*
X159377419Y-68746741D02*
X159377419Y-68984836D01*
X159377419Y-68984836D02*
X159425038Y-69127693D01*
X167045038Y-68127693D02*
X166997419Y-68032455D01*
X166997419Y-68032455D02*
X166997419Y-67889598D01*
X166997419Y-67889598D02*
X167045038Y-67746741D01*
X167045038Y-67746741D02*
X167140276Y-67651503D01*
X167140276Y-67651503D02*
X167235514Y-67603884D01*
X167235514Y-67603884D02*
X167425990Y-67556265D01*
X167425990Y-67556265D02*
X167568847Y-67556265D01*
X167568847Y-67556265D02*
X167759323Y-67603884D01*
X167759323Y-67603884D02*
X167854561Y-67651503D01*
X167854561Y-67651503D02*
X167949800Y-67746741D01*
X167949800Y-67746741D02*
X167997419Y-67889598D01*
X167997419Y-67889598D02*
X167997419Y-67984836D01*
X167997419Y-67984836D02*
X167949800Y-68127693D01*
X167949800Y-68127693D02*
X167902180Y-68175312D01*
X167902180Y-68175312D02*
X167568847Y-68175312D01*
X167568847Y-68175312D02*
X167568847Y-67984836D01*
X167997419Y-68603884D02*
X166997419Y-68603884D01*
X166997419Y-68603884D02*
X166997419Y-68984836D01*
X166997419Y-68984836D02*
X167045038Y-69080074D01*
X167045038Y-69080074D02*
X167092657Y-69127693D01*
X167092657Y-69127693D02*
X167187895Y-69175312D01*
X167187895Y-69175312D02*
X167330752Y-69175312D01*
X167330752Y-69175312D02*
X167425990Y-69127693D01*
X167425990Y-69127693D02*
X167473609Y-69080074D01*
X167473609Y-69080074D02*
X167521228Y-68984836D01*
X167521228Y-68984836D02*
X167521228Y-68603884D01*
X167997419Y-69603884D02*
X166997419Y-69603884D01*
X166997419Y-70270550D02*
X166997419Y-70461026D01*
X166997419Y-70461026D02*
X167045038Y-70556264D01*
X167045038Y-70556264D02*
X167140276Y-70651502D01*
X167140276Y-70651502D02*
X167330752Y-70699121D01*
X167330752Y-70699121D02*
X167664085Y-70699121D01*
X167664085Y-70699121D02*
X167854561Y-70651502D01*
X167854561Y-70651502D02*
X167949800Y-70556264D01*
X167949800Y-70556264D02*
X167997419Y-70461026D01*
X167997419Y-70461026D02*
X167997419Y-70270550D01*
X167997419Y-70270550D02*
X167949800Y-70175312D01*
X167949800Y-70175312D02*
X167854561Y-70080074D01*
X167854561Y-70080074D02*
X167664085Y-70032455D01*
X167664085Y-70032455D02*
X167330752Y-70032455D01*
X167330752Y-70032455D02*
X167140276Y-70080074D01*
X167140276Y-70080074D02*
X167045038Y-70175312D01*
X167045038Y-70175312D02*
X166997419Y-70270550D01*
X168092657Y-70889598D02*
X168092657Y-71651502D01*
X166997419Y-72080074D02*
X166997419Y-72175312D01*
X166997419Y-72175312D02*
X167045038Y-72270550D01*
X167045038Y-72270550D02*
X167092657Y-72318169D01*
X167092657Y-72318169D02*
X167187895Y-72365788D01*
X167187895Y-72365788D02*
X167378371Y-72413407D01*
X167378371Y-72413407D02*
X167616466Y-72413407D01*
X167616466Y-72413407D02*
X167806942Y-72365788D01*
X167806942Y-72365788D02*
X167902180Y-72318169D01*
X167902180Y-72318169D02*
X167949800Y-72270550D01*
X167949800Y-72270550D02*
X167997419Y-72175312D01*
X167997419Y-72175312D02*
X167997419Y-72080074D01*
X167997419Y-72080074D02*
X167949800Y-71984836D01*
X167949800Y-71984836D02*
X167902180Y-71937217D01*
X167902180Y-71937217D02*
X167806942Y-71889598D01*
X167806942Y-71889598D02*
X167616466Y-71841979D01*
X167616466Y-71841979D02*
X167378371Y-71841979D01*
X167378371Y-71841979D02*
X167187895Y-71889598D01*
X167187895Y-71889598D02*
X167092657Y-71937217D01*
X167092657Y-71937217D02*
X167045038Y-71984836D01*
X167045038Y-71984836D02*
X166997419Y-72080074D01*
X172077419Y-67603884D02*
X172886942Y-67603884D01*
X172886942Y-67603884D02*
X172982180Y-67651503D01*
X172982180Y-67651503D02*
X173029800Y-67699122D01*
X173029800Y-67699122D02*
X173077419Y-67794360D01*
X173077419Y-67794360D02*
X173077419Y-67984836D01*
X173077419Y-67984836D02*
X173029800Y-68080074D01*
X173029800Y-68080074D02*
X172982180Y-68127693D01*
X172982180Y-68127693D02*
X172886942Y-68175312D01*
X172886942Y-68175312D02*
X172077419Y-68175312D01*
X172791704Y-68603884D02*
X172791704Y-69080074D01*
X173077419Y-68508646D02*
X172077419Y-68841979D01*
X172077419Y-68841979D02*
X173077419Y-69175312D01*
X173077419Y-70080074D02*
X172601228Y-69746741D01*
X173077419Y-69508646D02*
X172077419Y-69508646D01*
X172077419Y-69508646D02*
X172077419Y-69889598D01*
X172077419Y-69889598D02*
X172125038Y-69984836D01*
X172125038Y-69984836D02*
X172172657Y-70032455D01*
X172172657Y-70032455D02*
X172267895Y-70080074D01*
X172267895Y-70080074D02*
X172410752Y-70080074D01*
X172410752Y-70080074D02*
X172505990Y-70032455D01*
X172505990Y-70032455D02*
X172553609Y-69984836D01*
X172553609Y-69984836D02*
X172601228Y-69889598D01*
X172601228Y-69889598D02*
X172601228Y-69508646D01*
X172077419Y-70365789D02*
X172077419Y-70937217D01*
X173077419Y-70651503D02*
X172077419Y-70651503D01*
X173172657Y-71032456D02*
X173172657Y-71794360D01*
X172077419Y-71889599D02*
X172077419Y-72461027D01*
X173077419Y-72175313D02*
X172077419Y-72175313D01*
X172077419Y-72699123D02*
X173077419Y-73365789D01*
X172077419Y-73365789D02*
X173077419Y-72699123D01*
X149265038Y-68127693D02*
X149217419Y-68032455D01*
X149217419Y-68032455D02*
X149217419Y-67889598D01*
X149217419Y-67889598D02*
X149265038Y-67746741D01*
X149265038Y-67746741D02*
X149360276Y-67651503D01*
X149360276Y-67651503D02*
X149455514Y-67603884D01*
X149455514Y-67603884D02*
X149645990Y-67556265D01*
X149645990Y-67556265D02*
X149788847Y-67556265D01*
X149788847Y-67556265D02*
X149979323Y-67603884D01*
X149979323Y-67603884D02*
X150074561Y-67651503D01*
X150074561Y-67651503D02*
X150169800Y-67746741D01*
X150169800Y-67746741D02*
X150217419Y-67889598D01*
X150217419Y-67889598D02*
X150217419Y-67984836D01*
X150217419Y-67984836D02*
X150169800Y-68127693D01*
X150169800Y-68127693D02*
X150122180Y-68175312D01*
X150122180Y-68175312D02*
X149788847Y-68175312D01*
X149788847Y-68175312D02*
X149788847Y-67984836D01*
X150217419Y-68603884D02*
X149217419Y-68603884D01*
X149217419Y-68603884D02*
X150217419Y-69175312D01*
X150217419Y-69175312D02*
X149217419Y-69175312D01*
X150217419Y-69651503D02*
X149217419Y-69651503D01*
X149217419Y-69651503D02*
X149217419Y-69889598D01*
X149217419Y-69889598D02*
X149265038Y-70032455D01*
X149265038Y-70032455D02*
X149360276Y-70127693D01*
X149360276Y-70127693D02*
X149455514Y-70175312D01*
X149455514Y-70175312D02*
X149645990Y-70222931D01*
X149645990Y-70222931D02*
X149788847Y-70222931D01*
X149788847Y-70222931D02*
X149979323Y-70175312D01*
X149979323Y-70175312D02*
X150074561Y-70127693D01*
X150074561Y-70127693D02*
X150169800Y-70032455D01*
X150169800Y-70032455D02*
X150217419Y-69889598D01*
X150217419Y-69889598D02*
X150217419Y-69651503D01*
X144137419Y-67461027D02*
X145137419Y-67794360D01*
X145137419Y-67794360D02*
X144137419Y-68127693D01*
X145137419Y-68461027D02*
X144137419Y-68461027D01*
X145137419Y-68937217D02*
X144137419Y-68937217D01*
X144137419Y-68937217D02*
X145137419Y-69508645D01*
X145137419Y-69508645D02*
X144137419Y-69508645D01*
X169537419Y-67603884D02*
X170346942Y-67603884D01*
X170346942Y-67603884D02*
X170442180Y-67651503D01*
X170442180Y-67651503D02*
X170489800Y-67699122D01*
X170489800Y-67699122D02*
X170537419Y-67794360D01*
X170537419Y-67794360D02*
X170537419Y-67984836D01*
X170537419Y-67984836D02*
X170489800Y-68080074D01*
X170489800Y-68080074D02*
X170442180Y-68127693D01*
X170442180Y-68127693D02*
X170346942Y-68175312D01*
X170346942Y-68175312D02*
X169537419Y-68175312D01*
X170251704Y-68603884D02*
X170251704Y-69080074D01*
X170537419Y-68508646D02*
X169537419Y-68841979D01*
X169537419Y-68841979D02*
X170537419Y-69175312D01*
X170537419Y-70080074D02*
X170061228Y-69746741D01*
X170537419Y-69508646D02*
X169537419Y-69508646D01*
X169537419Y-69508646D02*
X169537419Y-69889598D01*
X169537419Y-69889598D02*
X169585038Y-69984836D01*
X169585038Y-69984836D02*
X169632657Y-70032455D01*
X169632657Y-70032455D02*
X169727895Y-70080074D01*
X169727895Y-70080074D02*
X169870752Y-70080074D01*
X169870752Y-70080074D02*
X169965990Y-70032455D01*
X169965990Y-70032455D02*
X170013609Y-69984836D01*
X170013609Y-69984836D02*
X170061228Y-69889598D01*
X170061228Y-69889598D02*
X170061228Y-69508646D01*
X169537419Y-70365789D02*
X169537419Y-70937217D01*
X170537419Y-70651503D02*
X169537419Y-70651503D01*
X170632657Y-71032456D02*
X170632657Y-71794360D01*
X170537419Y-72603884D02*
X170061228Y-72270551D01*
X170537419Y-72032456D02*
X169537419Y-72032456D01*
X169537419Y-72032456D02*
X169537419Y-72413408D01*
X169537419Y-72413408D02*
X169585038Y-72508646D01*
X169585038Y-72508646D02*
X169632657Y-72556265D01*
X169632657Y-72556265D02*
X169727895Y-72603884D01*
X169727895Y-72603884D02*
X169870752Y-72603884D01*
X169870752Y-72603884D02*
X169965990Y-72556265D01*
X169965990Y-72556265D02*
X170013609Y-72508646D01*
X170013609Y-72508646D02*
X170061228Y-72413408D01*
X170061228Y-72413408D02*
X170061228Y-72032456D01*
X169537419Y-72937218D02*
X170537419Y-73603884D01*
X169537419Y-73603884D02*
X170537419Y-72937218D01*
D13*
%TO.C,D2*%
X136630000Y-100975000D02*
X136630000Y-98285000D01*
X138230000Y-101955000D02*
X138230000Y-98285000D01*
%TO.C,C27*%
X133930000Y-88130000D02*
X133930000Y-88130000D01*
X133930000Y-88330000D02*
X133930000Y-88330000D01*
X135430000Y-88630000D02*
X135430000Y-87830000D01*
X133930000Y-88130000D02*
G75*
G02*
X133930000Y-88330000I0J-100000D01*
G01*
X133930000Y-88330000D02*
G75*
G02*
X133930000Y-88130000I0J100000D01*
G01*
D12*
%TO.C,R1*%
X137580000Y-135030000D02*
X137580000Y-135030000D01*
X137680000Y-135030000D02*
X137680000Y-135030000D01*
D13*
X138980000Y-134630000D02*
X139380000Y-134630000D01*
X138980000Y-135430000D02*
X139380000Y-135430000D01*
D12*
X137580000Y-135030000D02*
G75*
G02*
X137680000Y-135030000I50000J0D01*
G01*
X137680000Y-135030000D02*
G75*
G02*
X137580000Y-135030000I-50000J0D01*
G01*
D13*
%TO.C,D1*%
X133130000Y-97305000D02*
X133130000Y-100975000D01*
X134730000Y-98285000D02*
X134730000Y-100975000D01*
D14*
%TO.C,R7*%
X129162776Y-95607500D02*
X129672224Y-95607500D01*
X129162776Y-96652500D02*
X129672224Y-96652500D01*
D13*
%TO.C,C31*%
X135430000Y-84830000D02*
X135430000Y-85630000D01*
X136930000Y-85130000D02*
X136930000Y-85130000D01*
X136930000Y-85330000D02*
X136930000Y-85330000D01*
X136930000Y-85130000D02*
G75*
G02*
X136930000Y-85330000I0J-100000D01*
G01*
X136930000Y-85330000D02*
G75*
G02*
X136930000Y-85130000I0J100000D01*
G01*
%TO.C,C8*%
X133930000Y-73130000D02*
X133930000Y-73130000D01*
X133930000Y-73330000D02*
X133930000Y-73330000D01*
X135430000Y-73630000D02*
X135430000Y-72830000D01*
X133930000Y-73130000D02*
G75*
G02*
X133930000Y-73330000I0J-100000D01*
G01*
X133930000Y-73330000D02*
G75*
G02*
X133930000Y-73130000I0J100000D01*
G01*
D12*
%TO.C,L1*%
X129830000Y-104930000D02*
X129830000Y-104930000D01*
X129930000Y-104930000D02*
X129930000Y-104930000D01*
D13*
X132630000Y-106430000D02*
X132230000Y-106430000D01*
D12*
X129830000Y-104930000D02*
G75*
G02*
X129930000Y-104930000I50000J0D01*
G01*
X129930000Y-104930000D02*
G75*
G02*
X129830000Y-104930000I-50000J0D01*
G01*
%TO.C,R8*%
X136155000Y-95980000D02*
X136155000Y-95980000D01*
X136155000Y-96080000D02*
X136155000Y-96080000D01*
X136155000Y-95980000D02*
G75*
G02*
X136155000Y-96080000I0J-50000D01*
G01*
X136155000Y-96080000D02*
G75*
G02*
X136155000Y-95980000I0J50000D01*
G01*
%TO.C,BT1*%
X141930000Y-132130000D02*
X141930000Y-132130000D01*
X142030000Y-132130000D02*
X142030000Y-132130000D01*
D13*
X142530000Y-122130000D02*
X142530000Y-130130000D01*
X142530000Y-134130000D02*
X142530000Y-142130000D01*
X142530000Y-142130000D02*
X174530000Y-142130000D01*
X174530000Y-122130000D02*
X142530000Y-122130000D01*
X174530000Y-130130000D02*
X174530000Y-122130000D01*
X174530000Y-142130000D02*
X174530000Y-134130000D01*
D12*
X141930000Y-132130000D02*
G75*
G02*
X142030000Y-132130000I50000J0D01*
G01*
X142030000Y-132130000D02*
G75*
G02*
X141930000Y-132130000I-50000J0D01*
G01*
D13*
%TO.C,D3*%
X140230000Y-97305000D02*
X140230000Y-100975000D01*
X141830000Y-98285000D02*
X141830000Y-100975000D01*
D12*
%TO.C,LED1*%
X137380000Y-131930000D02*
X137380000Y-131930000D01*
X137480000Y-131930000D02*
X137480000Y-131930000D01*
X137380000Y-131930000D02*
G75*
G02*
X137480000Y-131930000I50000J0D01*
G01*
X137480000Y-131930000D02*
G75*
G02*
X137380000Y-131930000I-50000J0D01*
G01*
D13*
%TO.C,C26*%
X133930000Y-82130000D02*
X133930000Y-82130000D01*
X133930000Y-82330000D02*
X133930000Y-82330000D01*
X135430000Y-82630000D02*
X135430000Y-81830000D01*
X133930000Y-82130000D02*
G75*
G02*
X133930000Y-82330000I0J-100000D01*
G01*
X133930000Y-82330000D02*
G75*
G02*
X133930000Y-82130000I0J100000D01*
G01*
%TO.C,C30*%
X131830000Y-95330000D02*
X131830000Y-95330000D01*
X131830000Y-95530000D02*
X131830000Y-95530000D01*
X133330000Y-95830000D02*
X133330000Y-95030000D01*
X131830000Y-95330000D02*
G75*
G02*
X131830000Y-95530000I0J-100000D01*
G01*
X131830000Y-95530000D02*
G75*
G02*
X131830000Y-95330000I0J100000D01*
G01*
%TO.C,C29*%
X136830000Y-105030000D02*
X137630000Y-105030000D01*
X137130000Y-103530000D02*
X137130000Y-103530000D01*
X137330000Y-103530000D02*
X137330000Y-103530000D01*
X137130000Y-103530000D02*
G75*
G02*
X137330000Y-103530000I100000J0D01*
G01*
X137330000Y-103530000D02*
G75*
G02*
X137130000Y-103530000I-100000J0D01*
G01*
%TO.C,Q1*%
X129505000Y-99030000D02*
X129505000Y-100030000D01*
X129730000Y-100380000D02*
X129730000Y-100580000D01*
X129730000Y-100580000D02*
X131730000Y-100580000D01*
X131730000Y-100380000D02*
X129730000Y-100380000D01*
X131730000Y-100580000D02*
X131730000Y-100380000D01*
%TO.C,C28*%
X133930000Y-70130000D02*
X133930000Y-70130000D01*
X133930000Y-70330000D02*
X133930000Y-70330000D01*
X135430000Y-70630000D02*
X135430000Y-69830000D01*
X133930000Y-70130000D02*
G75*
G02*
X133930000Y-70330000I0J-100000D01*
G01*
X133930000Y-70330000D02*
G75*
G02*
X133930000Y-70130000I0J100000D01*
G01*
%TO.C,C25*%
X133930000Y-79130000D02*
X133930000Y-79130000D01*
X133930000Y-79330000D02*
X133930000Y-79330000D01*
X135430000Y-79630000D02*
X135430000Y-78830000D01*
X133930000Y-79130000D02*
G75*
G02*
X133930000Y-79330000I0J-100000D01*
G01*
X133930000Y-79330000D02*
G75*
G02*
X133930000Y-79130000I0J100000D01*
G01*
%TO.C,C3*%
X186187600Y-135956800D02*
X186987600Y-135956800D01*
X186487600Y-134456800D02*
X186487600Y-134456800D01*
X186687600Y-134456800D02*
X186687600Y-134456800D01*
X186487600Y-134456800D02*
G75*
G02*
X186687600Y-134456800I100000J0D01*
G01*
X186687600Y-134456800D02*
G75*
G02*
X186487600Y-134456800I-100000J0D01*
G01*
D12*
%TO.C,S1*%
X154280000Y-119580000D02*
X154280000Y-116130000D01*
X162780000Y-119580000D02*
X162780000Y-116130000D01*
D13*
%TO.C,C24*%
X133930000Y-76130000D02*
X133930000Y-76130000D01*
X133930000Y-76330000D02*
X133930000Y-76330000D01*
X135430000Y-76630000D02*
X135430000Y-75830000D01*
X133930000Y-76130000D02*
G75*
G02*
X133930000Y-76330000I0J-100000D01*
G01*
X133930000Y-76330000D02*
G75*
G02*
X133930000Y-76130000I0J100000D01*
G01*
D12*
%TO.C,R9*%
X138755000Y-94280000D02*
X138755000Y-94280000D01*
X138755000Y-94380000D02*
X138755000Y-94380000D01*
X138755000Y-94280000D02*
G75*
G02*
X138755000Y-94380000I0J-50000D01*
G01*
X138755000Y-94380000D02*
G75*
G02*
X138755000Y-94280000I0J50000D01*
G01*
D13*
%TO.C,C7*%
X182225600Y-135256800D02*
X182949600Y-135256800D01*
%TO.C,U1*%
D12*
X142600000Y-96500000D02*
X174600000Y-96500000D01*
X174600000Y-63500000D01*
X142600000Y-63500000D01*
X142600000Y-96500000D01*
%TD*%
M02*
