%TF.GenerationSoftware,KiCad,Pcbnew,9.0.6*%
%TF.CreationDate,2025-12-08T21:47:26-05:00*%
%TF.ProjectId,electrical,656c6563-7472-4696-9361-6c2e6b696361,rev?*%
%TF.SameCoordinates,Original*%
%TF.FileFunction,Legend,Top*%
%TF.FilePolarity,Positive*%
%FSLAX46Y46*%
G04 Gerber Fmt 4.6, Leading zero omitted, Abs format (unit mm)*
G04 Created by KiCad (PCBNEW 9.0.6) date 2025-12-08 21:47:26*
%MOMM*%
%LPD*%
G01*
G04 APERTURE LIST*
%ADD10C,0.200000*%
%ADD11C,0.150000*%
%ADD12C,0.254000*%
%ADD13C,0.100000*%
G04 APERTURE END LIST*
D10*
X122600000Y-61500000D02*
X194600000Y-61500000D01*
X194600000Y-98500000D01*
X122600000Y-98500000D01*
X122600000Y-61500000D01*
D11*
X171168095Y-91134819D02*
X171168095Y-90134819D01*
X171168095Y-90611009D02*
X171739523Y-90611009D01*
X171739523Y-91134819D02*
X171739523Y-90134819D01*
X172691904Y-90134819D02*
X172215714Y-90134819D01*
X172215714Y-90134819D02*
X172168095Y-90611009D01*
X172168095Y-90611009D02*
X172215714Y-90563390D01*
X172215714Y-90563390D02*
X172310952Y-90515771D01*
X172310952Y-90515771D02*
X172549047Y-90515771D01*
X172549047Y-90515771D02*
X172644285Y-90563390D01*
X172644285Y-90563390D02*
X172691904Y-90611009D01*
X172691904Y-90611009D02*
X172739523Y-90706247D01*
X172739523Y-90706247D02*
X172739523Y-90944342D01*
X172739523Y-90944342D02*
X172691904Y-91039580D01*
X172691904Y-91039580D02*
X172644285Y-91087200D01*
X172644285Y-91087200D02*
X172549047Y-91134819D01*
X172549047Y-91134819D02*
X172310952Y-91134819D01*
X172310952Y-91134819D02*
X172215714Y-91087200D01*
X172215714Y-91087200D02*
X172168095Y-91039580D01*
D12*
X163010238Y-84449556D02*
X163010238Y-85054318D01*
X162586905Y-83784318D02*
X163010238Y-84449556D01*
X163010238Y-84449556D02*
X163433572Y-83784318D01*
X163735952Y-83784318D02*
X164522143Y-83784318D01*
X164522143Y-83784318D02*
X164098809Y-84268127D01*
X164098809Y-84268127D02*
X164280238Y-84268127D01*
X164280238Y-84268127D02*
X164401190Y-84328603D01*
X164401190Y-84328603D02*
X164461666Y-84389080D01*
X164461666Y-84389080D02*
X164522143Y-84510032D01*
X164522143Y-84510032D02*
X164522143Y-84812413D01*
X164522143Y-84812413D02*
X164461666Y-84933365D01*
X164461666Y-84933365D02*
X164401190Y-84993842D01*
X164401190Y-84993842D02*
X164280238Y-85054318D01*
X164280238Y-85054318D02*
X163917381Y-85054318D01*
X163917381Y-85054318D02*
X163796428Y-84993842D01*
X163796428Y-84993842D02*
X163735952Y-84933365D01*
D11*
X136695238Y-130045180D02*
X137028571Y-130521371D01*
X137266666Y-130045180D02*
X137266666Y-131045180D01*
X137266666Y-131045180D02*
X136885714Y-131045180D01*
X136885714Y-131045180D02*
X136790476Y-130997561D01*
X136790476Y-130997561D02*
X136742857Y-130949942D01*
X136742857Y-130949942D02*
X136695238Y-130854704D01*
X136695238Y-130854704D02*
X136695238Y-130711847D01*
X136695238Y-130711847D02*
X136742857Y-130616609D01*
X136742857Y-130616609D02*
X136790476Y-130568990D01*
X136790476Y-130568990D02*
X136885714Y-130521371D01*
X136885714Y-130521371D02*
X137266666Y-130521371D01*
X136409523Y-131045180D02*
X136076190Y-130045180D01*
X136076190Y-130045180D02*
X135742857Y-131045180D01*
X134885714Y-130045180D02*
X135457142Y-130045180D01*
X135171428Y-130045180D02*
X135171428Y-131045180D01*
X135171428Y-131045180D02*
X135266666Y-130902323D01*
X135266666Y-130902323D02*
X135361904Y-130807085D01*
X135361904Y-130807085D02*
X135457142Y-130759466D01*
D12*
X172818333Y-86783365D02*
X172757857Y-86843842D01*
X172757857Y-86843842D02*
X172576428Y-86904318D01*
X172576428Y-86904318D02*
X172455476Y-86904318D01*
X172455476Y-86904318D02*
X172274047Y-86843842D01*
X172274047Y-86843842D02*
X172153095Y-86722889D01*
X172153095Y-86722889D02*
X172092618Y-86601937D01*
X172092618Y-86601937D02*
X172032142Y-86360032D01*
X172032142Y-86360032D02*
X172032142Y-86178603D01*
X172032142Y-86178603D02*
X172092618Y-85936699D01*
X172092618Y-85936699D02*
X172153095Y-85815746D01*
X172153095Y-85815746D02*
X172274047Y-85694794D01*
X172274047Y-85694794D02*
X172455476Y-85634318D01*
X172455476Y-85634318D02*
X172576428Y-85634318D01*
X172576428Y-85634318D02*
X172757857Y-85694794D01*
X172757857Y-85694794D02*
X172818333Y-85755270D01*
X173906904Y-85634318D02*
X173664999Y-85634318D01*
X173664999Y-85634318D02*
X173544047Y-85694794D01*
X173544047Y-85694794D02*
X173483571Y-85755270D01*
X173483571Y-85755270D02*
X173362618Y-85936699D01*
X173362618Y-85936699D02*
X173302142Y-86178603D01*
X173302142Y-86178603D02*
X173302142Y-86662413D01*
X173302142Y-86662413D02*
X173362618Y-86783365D01*
X173362618Y-86783365D02*
X173423095Y-86843842D01*
X173423095Y-86843842D02*
X173544047Y-86904318D01*
X173544047Y-86904318D02*
X173785952Y-86904318D01*
X173785952Y-86904318D02*
X173906904Y-86843842D01*
X173906904Y-86843842D02*
X173967380Y-86783365D01*
X173967380Y-86783365D02*
X174027857Y-86662413D01*
X174027857Y-86662413D02*
X174027857Y-86360032D01*
X174027857Y-86360032D02*
X173967380Y-86239080D01*
X173967380Y-86239080D02*
X173906904Y-86178603D01*
X173906904Y-86178603D02*
X173785952Y-86118127D01*
X173785952Y-86118127D02*
X173544047Y-86118127D01*
X173544047Y-86118127D02*
X173423095Y-86178603D01*
X173423095Y-86178603D02*
X173362618Y-86239080D01*
X173362618Y-86239080D02*
X173302142Y-86360032D01*
X190983365Y-93646428D02*
X191043842Y-93706904D01*
X191043842Y-93706904D02*
X191104318Y-93888333D01*
X191104318Y-93888333D02*
X191104318Y-94009285D01*
X191104318Y-94009285D02*
X191043842Y-94190714D01*
X191043842Y-94190714D02*
X190922889Y-94311666D01*
X190922889Y-94311666D02*
X190801937Y-94372143D01*
X190801937Y-94372143D02*
X190560032Y-94432619D01*
X190560032Y-94432619D02*
X190378603Y-94432619D01*
X190378603Y-94432619D02*
X190136699Y-94372143D01*
X190136699Y-94372143D02*
X190015746Y-94311666D01*
X190015746Y-94311666D02*
X189894794Y-94190714D01*
X189894794Y-94190714D02*
X189834318Y-94009285D01*
X189834318Y-94009285D02*
X189834318Y-93888333D01*
X189834318Y-93888333D02*
X189894794Y-93706904D01*
X189894794Y-93706904D02*
X189955270Y-93646428D01*
X191104318Y-92436904D02*
X191104318Y-93162619D01*
X191104318Y-92799762D02*
X189834318Y-92799762D01*
X189834318Y-92799762D02*
X190015746Y-92920714D01*
X190015746Y-92920714D02*
X190136699Y-93041666D01*
X190136699Y-93041666D02*
X190197175Y-93162619D01*
X190378603Y-91711190D02*
X190318127Y-91832142D01*
X190318127Y-91832142D02*
X190257651Y-91892619D01*
X190257651Y-91892619D02*
X190136699Y-91953095D01*
X190136699Y-91953095D02*
X190076222Y-91953095D01*
X190076222Y-91953095D02*
X189955270Y-91892619D01*
X189955270Y-91892619D02*
X189894794Y-91832142D01*
X189894794Y-91832142D02*
X189834318Y-91711190D01*
X189834318Y-91711190D02*
X189834318Y-91469285D01*
X189834318Y-91469285D02*
X189894794Y-91348333D01*
X189894794Y-91348333D02*
X189955270Y-91287857D01*
X189955270Y-91287857D02*
X190076222Y-91227380D01*
X190076222Y-91227380D02*
X190136699Y-91227380D01*
X190136699Y-91227380D02*
X190257651Y-91287857D01*
X190257651Y-91287857D02*
X190318127Y-91348333D01*
X190318127Y-91348333D02*
X190378603Y-91469285D01*
X190378603Y-91469285D02*
X190378603Y-91711190D01*
X190378603Y-91711190D02*
X190439080Y-91832142D01*
X190439080Y-91832142D02*
X190499556Y-91892619D01*
X190499556Y-91892619D02*
X190620508Y-91953095D01*
X190620508Y-91953095D02*
X190862413Y-91953095D01*
X190862413Y-91953095D02*
X190983365Y-91892619D01*
X190983365Y-91892619D02*
X191043842Y-91832142D01*
X191043842Y-91832142D02*
X191104318Y-91711190D01*
X191104318Y-91711190D02*
X191104318Y-91469285D01*
X191104318Y-91469285D02*
X191043842Y-91348333D01*
X191043842Y-91348333D02*
X190983365Y-91287857D01*
X190983365Y-91287857D02*
X190862413Y-91227380D01*
X190862413Y-91227380D02*
X190620508Y-91227380D01*
X190620508Y-91227380D02*
X190499556Y-91287857D01*
X190499556Y-91287857D02*
X190439080Y-91348333D01*
X190439080Y-91348333D02*
X190378603Y-91469285D01*
X157632380Y-108013842D02*
X157813809Y-108074318D01*
X157813809Y-108074318D02*
X158116190Y-108074318D01*
X158116190Y-108074318D02*
X158237142Y-108013842D01*
X158237142Y-108013842D02*
X158297618Y-107953365D01*
X158297618Y-107953365D02*
X158358095Y-107832413D01*
X158358095Y-107832413D02*
X158358095Y-107711461D01*
X158358095Y-107711461D02*
X158297618Y-107590508D01*
X158297618Y-107590508D02*
X158237142Y-107530032D01*
X158237142Y-107530032D02*
X158116190Y-107469556D01*
X158116190Y-107469556D02*
X157874285Y-107409080D01*
X157874285Y-107409080D02*
X157753333Y-107348603D01*
X157753333Y-107348603D02*
X157692856Y-107288127D01*
X157692856Y-107288127D02*
X157632380Y-107167175D01*
X157632380Y-107167175D02*
X157632380Y-107046222D01*
X157632380Y-107046222D02*
X157692856Y-106925270D01*
X157692856Y-106925270D02*
X157753333Y-106864794D01*
X157753333Y-106864794D02*
X157874285Y-106804318D01*
X157874285Y-106804318D02*
X158176666Y-106804318D01*
X158176666Y-106804318D02*
X158358095Y-106864794D01*
X159446666Y-107227651D02*
X159446666Y-108074318D01*
X159144285Y-106743842D02*
X158841904Y-107650984D01*
X158841904Y-107650984D02*
X159628095Y-107650984D01*
X182982380Y-108013842D02*
X183163809Y-108074318D01*
X183163809Y-108074318D02*
X183466190Y-108074318D01*
X183466190Y-108074318D02*
X183587142Y-108013842D01*
X183587142Y-108013842D02*
X183647618Y-107953365D01*
X183647618Y-107953365D02*
X183708095Y-107832413D01*
X183708095Y-107832413D02*
X183708095Y-107711461D01*
X183708095Y-107711461D02*
X183647618Y-107590508D01*
X183647618Y-107590508D02*
X183587142Y-107530032D01*
X183587142Y-107530032D02*
X183466190Y-107469556D01*
X183466190Y-107469556D02*
X183224285Y-107409080D01*
X183224285Y-107409080D02*
X183103333Y-107348603D01*
X183103333Y-107348603D02*
X183042856Y-107288127D01*
X183042856Y-107288127D02*
X182982380Y-107167175D01*
X182982380Y-107167175D02*
X182982380Y-107046222D01*
X182982380Y-107046222D02*
X183042856Y-106925270D01*
X183042856Y-106925270D02*
X183103333Y-106864794D01*
X183103333Y-106864794D02*
X183224285Y-106804318D01*
X183224285Y-106804318D02*
X183526666Y-106804318D01*
X183526666Y-106804318D02*
X183708095Y-106864794D01*
X184131428Y-106804318D02*
X184917619Y-106804318D01*
X184917619Y-106804318D02*
X184494285Y-107288127D01*
X184494285Y-107288127D02*
X184675714Y-107288127D01*
X184675714Y-107288127D02*
X184796666Y-107348603D01*
X184796666Y-107348603D02*
X184857142Y-107409080D01*
X184857142Y-107409080D02*
X184917619Y-107530032D01*
X184917619Y-107530032D02*
X184917619Y-107832413D01*
X184917619Y-107832413D02*
X184857142Y-107953365D01*
X184857142Y-107953365D02*
X184796666Y-108013842D01*
X184796666Y-108013842D02*
X184675714Y-108074318D01*
X184675714Y-108074318D02*
X184312857Y-108074318D01*
X184312857Y-108074318D02*
X184191904Y-108013842D01*
X184191904Y-108013842D02*
X184131428Y-107953365D01*
D11*
X195338095Y-136734819D02*
X195338095Y-135734819D01*
X195338095Y-136211009D02*
X195909523Y-136211009D01*
X195909523Y-136734819D02*
X195909523Y-135734819D01*
X196290476Y-135734819D02*
X196909523Y-135734819D01*
X196909523Y-135734819D02*
X196576190Y-136115771D01*
X196576190Y-136115771D02*
X196719047Y-136115771D01*
X196719047Y-136115771D02*
X196814285Y-136163390D01*
X196814285Y-136163390D02*
X196861904Y-136211009D01*
X196861904Y-136211009D02*
X196909523Y-136306247D01*
X196909523Y-136306247D02*
X196909523Y-136544342D01*
X196909523Y-136544342D02*
X196861904Y-136639580D01*
X196861904Y-136639580D02*
X196814285Y-136687200D01*
X196814285Y-136687200D02*
X196719047Y-136734819D01*
X196719047Y-136734819D02*
X196433333Y-136734819D01*
X196433333Y-136734819D02*
X196338095Y-136687200D01*
X196338095Y-136687200D02*
X196290476Y-136639580D01*
D12*
X181983365Y-93646428D02*
X182043842Y-93706904D01*
X182043842Y-93706904D02*
X182104318Y-93888333D01*
X182104318Y-93888333D02*
X182104318Y-94009285D01*
X182104318Y-94009285D02*
X182043842Y-94190714D01*
X182043842Y-94190714D02*
X181922889Y-94311666D01*
X181922889Y-94311666D02*
X181801937Y-94372143D01*
X181801937Y-94372143D02*
X181560032Y-94432619D01*
X181560032Y-94432619D02*
X181378603Y-94432619D01*
X181378603Y-94432619D02*
X181136699Y-94372143D01*
X181136699Y-94372143D02*
X181015746Y-94311666D01*
X181015746Y-94311666D02*
X180894794Y-94190714D01*
X180894794Y-94190714D02*
X180834318Y-94009285D01*
X180834318Y-94009285D02*
X180834318Y-93888333D01*
X180834318Y-93888333D02*
X180894794Y-93706904D01*
X180894794Y-93706904D02*
X180955270Y-93646428D01*
X180955270Y-93162619D02*
X180894794Y-93102143D01*
X180894794Y-93102143D02*
X180834318Y-92981190D01*
X180834318Y-92981190D02*
X180834318Y-92678809D01*
X180834318Y-92678809D02*
X180894794Y-92557857D01*
X180894794Y-92557857D02*
X180955270Y-92497381D01*
X180955270Y-92497381D02*
X181076222Y-92436904D01*
X181076222Y-92436904D02*
X181197175Y-92436904D01*
X181197175Y-92436904D02*
X181378603Y-92497381D01*
X181378603Y-92497381D02*
X182104318Y-93223095D01*
X182104318Y-93223095D02*
X182104318Y-92436904D01*
X180834318Y-91650714D02*
X180834318Y-91529761D01*
X180834318Y-91529761D02*
X180894794Y-91408809D01*
X180894794Y-91408809D02*
X180955270Y-91348333D01*
X180955270Y-91348333D02*
X181076222Y-91287857D01*
X181076222Y-91287857D02*
X181318127Y-91227380D01*
X181318127Y-91227380D02*
X181620508Y-91227380D01*
X181620508Y-91227380D02*
X181862413Y-91287857D01*
X181862413Y-91287857D02*
X181983365Y-91348333D01*
X181983365Y-91348333D02*
X182043842Y-91408809D01*
X182043842Y-91408809D02*
X182104318Y-91529761D01*
X182104318Y-91529761D02*
X182104318Y-91650714D01*
X182104318Y-91650714D02*
X182043842Y-91771666D01*
X182043842Y-91771666D02*
X181983365Y-91832142D01*
X181983365Y-91832142D02*
X181862413Y-91892619D01*
X181862413Y-91892619D02*
X181620508Y-91953095D01*
X181620508Y-91953095D02*
X181318127Y-91953095D01*
X181318127Y-91953095D02*
X181076222Y-91892619D01*
X181076222Y-91892619D02*
X180955270Y-91832142D01*
X180955270Y-91832142D02*
X180894794Y-91771666D01*
X180894794Y-91771666D02*
X180834318Y-91650714D01*
X178983365Y-93646428D02*
X179043842Y-93706904D01*
X179043842Y-93706904D02*
X179104318Y-93888333D01*
X179104318Y-93888333D02*
X179104318Y-94009285D01*
X179104318Y-94009285D02*
X179043842Y-94190714D01*
X179043842Y-94190714D02*
X178922889Y-94311666D01*
X178922889Y-94311666D02*
X178801937Y-94372143D01*
X178801937Y-94372143D02*
X178560032Y-94432619D01*
X178560032Y-94432619D02*
X178378603Y-94432619D01*
X178378603Y-94432619D02*
X178136699Y-94372143D01*
X178136699Y-94372143D02*
X178015746Y-94311666D01*
X178015746Y-94311666D02*
X177894794Y-94190714D01*
X177894794Y-94190714D02*
X177834318Y-94009285D01*
X177834318Y-94009285D02*
X177834318Y-93888333D01*
X177834318Y-93888333D02*
X177894794Y-93706904D01*
X177894794Y-93706904D02*
X177955270Y-93646428D01*
X179104318Y-92436904D02*
X179104318Y-93162619D01*
X179104318Y-92799762D02*
X177834318Y-92799762D01*
X177834318Y-92799762D02*
X178015746Y-92920714D01*
X178015746Y-92920714D02*
X178136699Y-93041666D01*
X178136699Y-93041666D02*
X178197175Y-93162619D01*
X179104318Y-91227380D02*
X179104318Y-91953095D01*
X179104318Y-91590238D02*
X177834318Y-91590238D01*
X177834318Y-91590238D02*
X178015746Y-91711190D01*
X178015746Y-91711190D02*
X178136699Y-91832142D01*
X178136699Y-91832142D02*
X178197175Y-91953095D01*
X194213571Y-82883365D02*
X194153095Y-82943842D01*
X194153095Y-82943842D02*
X193971666Y-83004318D01*
X193971666Y-83004318D02*
X193850714Y-83004318D01*
X193850714Y-83004318D02*
X193669285Y-82943842D01*
X193669285Y-82943842D02*
X193548333Y-82822889D01*
X193548333Y-82822889D02*
X193487856Y-82701937D01*
X193487856Y-82701937D02*
X193427380Y-82460032D01*
X193427380Y-82460032D02*
X193427380Y-82278603D01*
X193427380Y-82278603D02*
X193487856Y-82036699D01*
X193487856Y-82036699D02*
X193548333Y-81915746D01*
X193548333Y-81915746D02*
X193669285Y-81794794D01*
X193669285Y-81794794D02*
X193850714Y-81734318D01*
X193850714Y-81734318D02*
X193971666Y-81734318D01*
X193971666Y-81734318D02*
X194153095Y-81794794D01*
X194153095Y-81794794D02*
X194213571Y-81855270D01*
X195423095Y-83004318D02*
X194697380Y-83004318D01*
X195060237Y-83004318D02*
X195060237Y-81734318D01*
X195060237Y-81734318D02*
X194939285Y-81915746D01*
X194939285Y-81915746D02*
X194818333Y-82036699D01*
X194818333Y-82036699D02*
X194697380Y-82097175D01*
X195846428Y-81734318D02*
X196693095Y-81734318D01*
X196693095Y-81734318D02*
X196148809Y-83004318D01*
X178283365Y-71746428D02*
X178343842Y-71806904D01*
X178343842Y-71806904D02*
X178404318Y-71988333D01*
X178404318Y-71988333D02*
X178404318Y-72109285D01*
X178404318Y-72109285D02*
X178343842Y-72290714D01*
X178343842Y-72290714D02*
X178222889Y-72411666D01*
X178222889Y-72411666D02*
X178101937Y-72472143D01*
X178101937Y-72472143D02*
X177860032Y-72532619D01*
X177860032Y-72532619D02*
X177678603Y-72532619D01*
X177678603Y-72532619D02*
X177436699Y-72472143D01*
X177436699Y-72472143D02*
X177315746Y-72411666D01*
X177315746Y-72411666D02*
X177194794Y-72290714D01*
X177194794Y-72290714D02*
X177134318Y-72109285D01*
X177134318Y-72109285D02*
X177134318Y-71988333D01*
X177134318Y-71988333D02*
X177194794Y-71806904D01*
X177194794Y-71806904D02*
X177255270Y-71746428D01*
X178404318Y-70536904D02*
X178404318Y-71262619D01*
X178404318Y-70899762D02*
X177134318Y-70899762D01*
X177134318Y-70899762D02*
X177315746Y-71020714D01*
X177315746Y-71020714D02*
X177436699Y-71141666D01*
X177436699Y-71141666D02*
X177497175Y-71262619D01*
X177134318Y-69387857D02*
X177134318Y-69992619D01*
X177134318Y-69992619D02*
X177739080Y-70053095D01*
X177739080Y-70053095D02*
X177678603Y-69992619D01*
X177678603Y-69992619D02*
X177618127Y-69871666D01*
X177618127Y-69871666D02*
X177618127Y-69569285D01*
X177618127Y-69569285D02*
X177678603Y-69448333D01*
X177678603Y-69448333D02*
X177739080Y-69387857D01*
X177739080Y-69387857D02*
X177860032Y-69327380D01*
X177860032Y-69327380D02*
X178162413Y-69327380D01*
X178162413Y-69327380D02*
X178283365Y-69387857D01*
X178283365Y-69387857D02*
X178343842Y-69448333D01*
X178343842Y-69448333D02*
X178404318Y-69569285D01*
X178404318Y-69569285D02*
X178404318Y-69871666D01*
X178404318Y-69871666D02*
X178343842Y-69992619D01*
X178343842Y-69992619D02*
X178283365Y-70053095D01*
X167898571Y-83283365D02*
X167838095Y-83343842D01*
X167838095Y-83343842D02*
X167656666Y-83404318D01*
X167656666Y-83404318D02*
X167535714Y-83404318D01*
X167535714Y-83404318D02*
X167354285Y-83343842D01*
X167354285Y-83343842D02*
X167233333Y-83222889D01*
X167233333Y-83222889D02*
X167172856Y-83101937D01*
X167172856Y-83101937D02*
X167112380Y-82860032D01*
X167112380Y-82860032D02*
X167112380Y-82678603D01*
X167112380Y-82678603D02*
X167172856Y-82436699D01*
X167172856Y-82436699D02*
X167233333Y-82315746D01*
X167233333Y-82315746D02*
X167354285Y-82194794D01*
X167354285Y-82194794D02*
X167535714Y-82134318D01*
X167535714Y-82134318D02*
X167656666Y-82134318D01*
X167656666Y-82134318D02*
X167838095Y-82194794D01*
X167838095Y-82194794D02*
X167898571Y-82255270D01*
X168321904Y-82134318D02*
X169108095Y-82134318D01*
X169108095Y-82134318D02*
X168684761Y-82618127D01*
X168684761Y-82618127D02*
X168866190Y-82618127D01*
X168866190Y-82618127D02*
X168987142Y-82678603D01*
X168987142Y-82678603D02*
X169047618Y-82739080D01*
X169047618Y-82739080D02*
X169108095Y-82860032D01*
X169108095Y-82860032D02*
X169108095Y-83162413D01*
X169108095Y-83162413D02*
X169047618Y-83283365D01*
X169047618Y-83283365D02*
X168987142Y-83343842D01*
X168987142Y-83343842D02*
X168866190Y-83404318D01*
X168866190Y-83404318D02*
X168503333Y-83404318D01*
X168503333Y-83404318D02*
X168382380Y-83343842D01*
X168382380Y-83343842D02*
X168321904Y-83283365D01*
X169591904Y-82255270D02*
X169652380Y-82194794D01*
X169652380Y-82194794D02*
X169773333Y-82134318D01*
X169773333Y-82134318D02*
X170075714Y-82134318D01*
X170075714Y-82134318D02*
X170196666Y-82194794D01*
X170196666Y-82194794D02*
X170257142Y-82255270D01*
X170257142Y-82255270D02*
X170317619Y-82376222D01*
X170317619Y-82376222D02*
X170317619Y-82497175D01*
X170317619Y-82497175D02*
X170257142Y-82678603D01*
X170257142Y-82678603D02*
X169531428Y-83404318D01*
X169531428Y-83404318D02*
X170317619Y-83404318D01*
D11*
X181695238Y-130045180D02*
X182028571Y-130521371D01*
X182266666Y-130045180D02*
X182266666Y-131045180D01*
X182266666Y-131045180D02*
X181885714Y-131045180D01*
X181885714Y-131045180D02*
X181790476Y-130997561D01*
X181790476Y-130997561D02*
X181742857Y-130949942D01*
X181742857Y-130949942D02*
X181695238Y-130854704D01*
X181695238Y-130854704D02*
X181695238Y-130711847D01*
X181695238Y-130711847D02*
X181742857Y-130616609D01*
X181742857Y-130616609D02*
X181790476Y-130568990D01*
X181790476Y-130568990D02*
X181885714Y-130521371D01*
X181885714Y-130521371D02*
X182266666Y-130521371D01*
X181409523Y-131045180D02*
X181076190Y-130045180D01*
X181076190Y-130045180D02*
X180742857Y-131045180D01*
X180457142Y-130949942D02*
X180409523Y-130997561D01*
X180409523Y-130997561D02*
X180314285Y-131045180D01*
X180314285Y-131045180D02*
X180076190Y-131045180D01*
X180076190Y-131045180D02*
X179980952Y-130997561D01*
X179980952Y-130997561D02*
X179933333Y-130949942D01*
X179933333Y-130949942D02*
X179885714Y-130854704D01*
X179885714Y-130854704D02*
X179885714Y-130759466D01*
X179885714Y-130759466D02*
X179933333Y-130616609D01*
X179933333Y-130616609D02*
X180504761Y-130045180D01*
X180504761Y-130045180D02*
X179885714Y-130045180D01*
D12*
X185083365Y-71646428D02*
X185143842Y-71706904D01*
X185143842Y-71706904D02*
X185204318Y-71888333D01*
X185204318Y-71888333D02*
X185204318Y-72009285D01*
X185204318Y-72009285D02*
X185143842Y-72190714D01*
X185143842Y-72190714D02*
X185022889Y-72311666D01*
X185022889Y-72311666D02*
X184901937Y-72372143D01*
X184901937Y-72372143D02*
X184660032Y-72432619D01*
X184660032Y-72432619D02*
X184478603Y-72432619D01*
X184478603Y-72432619D02*
X184236699Y-72372143D01*
X184236699Y-72372143D02*
X184115746Y-72311666D01*
X184115746Y-72311666D02*
X183994794Y-72190714D01*
X183994794Y-72190714D02*
X183934318Y-72009285D01*
X183934318Y-72009285D02*
X183934318Y-71888333D01*
X183934318Y-71888333D02*
X183994794Y-71706904D01*
X183994794Y-71706904D02*
X184055270Y-71646428D01*
X185204318Y-70436904D02*
X185204318Y-71162619D01*
X185204318Y-70799762D02*
X183934318Y-70799762D01*
X183934318Y-70799762D02*
X184115746Y-70920714D01*
X184115746Y-70920714D02*
X184236699Y-71041666D01*
X184236699Y-71041666D02*
X184297175Y-71162619D01*
X184357651Y-69348333D02*
X185204318Y-69348333D01*
X183873842Y-69650714D02*
X184780984Y-69953095D01*
X184780984Y-69953095D02*
X184780984Y-69166904D01*
X126804318Y-80423332D02*
X127711461Y-80423332D01*
X127711461Y-80423332D02*
X127892889Y-80483809D01*
X127892889Y-80483809D02*
X128013842Y-80604761D01*
X128013842Y-80604761D02*
X128074318Y-80786190D01*
X128074318Y-80786190D02*
X128074318Y-80907142D01*
X126925270Y-79879047D02*
X126864794Y-79818571D01*
X126864794Y-79818571D02*
X126804318Y-79697618D01*
X126804318Y-79697618D02*
X126804318Y-79395237D01*
X126804318Y-79395237D02*
X126864794Y-79274285D01*
X126864794Y-79274285D02*
X126925270Y-79213809D01*
X126925270Y-79213809D02*
X127046222Y-79153332D01*
X127046222Y-79153332D02*
X127167175Y-79153332D01*
X127167175Y-79153332D02*
X127348603Y-79213809D01*
X127348603Y-79213809D02*
X128074318Y-79939523D01*
X128074318Y-79939523D02*
X128074318Y-79153332D01*
X187983365Y-93646428D02*
X188043842Y-93706904D01*
X188043842Y-93706904D02*
X188104318Y-93888333D01*
X188104318Y-93888333D02*
X188104318Y-94009285D01*
X188104318Y-94009285D02*
X188043842Y-94190714D01*
X188043842Y-94190714D02*
X187922889Y-94311666D01*
X187922889Y-94311666D02*
X187801937Y-94372143D01*
X187801937Y-94372143D02*
X187560032Y-94432619D01*
X187560032Y-94432619D02*
X187378603Y-94432619D01*
X187378603Y-94432619D02*
X187136699Y-94372143D01*
X187136699Y-94372143D02*
X187015746Y-94311666D01*
X187015746Y-94311666D02*
X186894794Y-94190714D01*
X186894794Y-94190714D02*
X186834318Y-94009285D01*
X186834318Y-94009285D02*
X186834318Y-93888333D01*
X186834318Y-93888333D02*
X186894794Y-93706904D01*
X186894794Y-93706904D02*
X186955270Y-93646428D01*
X188104318Y-92436904D02*
X188104318Y-93162619D01*
X188104318Y-92799762D02*
X186834318Y-92799762D01*
X186834318Y-92799762D02*
X187015746Y-92920714D01*
X187015746Y-92920714D02*
X187136699Y-93041666D01*
X187136699Y-93041666D02*
X187197175Y-93162619D01*
X186834318Y-92013571D02*
X186834318Y-91227380D01*
X186834318Y-91227380D02*
X187318127Y-91650714D01*
X187318127Y-91650714D02*
X187318127Y-91469285D01*
X187318127Y-91469285D02*
X187378603Y-91348333D01*
X187378603Y-91348333D02*
X187439080Y-91287857D01*
X187439080Y-91287857D02*
X187560032Y-91227380D01*
X187560032Y-91227380D02*
X187862413Y-91227380D01*
X187862413Y-91227380D02*
X187983365Y-91287857D01*
X187983365Y-91287857D02*
X188043842Y-91348333D01*
X188043842Y-91348333D02*
X188104318Y-91469285D01*
X188104318Y-91469285D02*
X188104318Y-91832142D01*
X188104318Y-91832142D02*
X188043842Y-91953095D01*
X188043842Y-91953095D02*
X187983365Y-92013571D01*
X167898571Y-85404318D02*
X167475237Y-84799556D01*
X167172856Y-85404318D02*
X167172856Y-84134318D01*
X167172856Y-84134318D02*
X167656666Y-84134318D01*
X167656666Y-84134318D02*
X167777618Y-84194794D01*
X167777618Y-84194794D02*
X167838095Y-84255270D01*
X167838095Y-84255270D02*
X167898571Y-84376222D01*
X167898571Y-84376222D02*
X167898571Y-84557651D01*
X167898571Y-84557651D02*
X167838095Y-84678603D01*
X167838095Y-84678603D02*
X167777618Y-84739080D01*
X167777618Y-84739080D02*
X167656666Y-84799556D01*
X167656666Y-84799556D02*
X167172856Y-84799556D01*
X169108095Y-85404318D02*
X168382380Y-85404318D01*
X168745237Y-85404318D02*
X168745237Y-84134318D01*
X168745237Y-84134318D02*
X168624285Y-84315746D01*
X168624285Y-84315746D02*
X168503333Y-84436699D01*
X168503333Y-84436699D02*
X168382380Y-84497175D01*
X169894285Y-84134318D02*
X170015238Y-84134318D01*
X170015238Y-84134318D02*
X170136190Y-84194794D01*
X170136190Y-84194794D02*
X170196666Y-84255270D01*
X170196666Y-84255270D02*
X170257142Y-84376222D01*
X170257142Y-84376222D02*
X170317619Y-84618127D01*
X170317619Y-84618127D02*
X170317619Y-84920508D01*
X170317619Y-84920508D02*
X170257142Y-85162413D01*
X170257142Y-85162413D02*
X170196666Y-85283365D01*
X170196666Y-85283365D02*
X170136190Y-85343842D01*
X170136190Y-85343842D02*
X170015238Y-85404318D01*
X170015238Y-85404318D02*
X169894285Y-85404318D01*
X169894285Y-85404318D02*
X169773333Y-85343842D01*
X169773333Y-85343842D02*
X169712857Y-85283365D01*
X169712857Y-85283365D02*
X169652380Y-85162413D01*
X169652380Y-85162413D02*
X169591904Y-84920508D01*
X169591904Y-84920508D02*
X169591904Y-84618127D01*
X169591904Y-84618127D02*
X169652380Y-84376222D01*
X169652380Y-84376222D02*
X169712857Y-84255270D01*
X169712857Y-84255270D02*
X169773333Y-84194794D01*
X169773333Y-84194794D02*
X169894285Y-84134318D01*
X132982380Y-108013842D02*
X133163809Y-108074318D01*
X133163809Y-108074318D02*
X133466190Y-108074318D01*
X133466190Y-108074318D02*
X133587142Y-108013842D01*
X133587142Y-108013842D02*
X133647618Y-107953365D01*
X133647618Y-107953365D02*
X133708095Y-107832413D01*
X133708095Y-107832413D02*
X133708095Y-107711461D01*
X133708095Y-107711461D02*
X133647618Y-107590508D01*
X133647618Y-107590508D02*
X133587142Y-107530032D01*
X133587142Y-107530032D02*
X133466190Y-107469556D01*
X133466190Y-107469556D02*
X133224285Y-107409080D01*
X133224285Y-107409080D02*
X133103333Y-107348603D01*
X133103333Y-107348603D02*
X133042856Y-107288127D01*
X133042856Y-107288127D02*
X132982380Y-107167175D01*
X132982380Y-107167175D02*
X132982380Y-107046222D01*
X132982380Y-107046222D02*
X133042856Y-106925270D01*
X133042856Y-106925270D02*
X133103333Y-106864794D01*
X133103333Y-106864794D02*
X133224285Y-106804318D01*
X133224285Y-106804318D02*
X133526666Y-106804318D01*
X133526666Y-106804318D02*
X133708095Y-106864794D01*
X134191904Y-106925270D02*
X134252380Y-106864794D01*
X134252380Y-106864794D02*
X134373333Y-106804318D01*
X134373333Y-106804318D02*
X134675714Y-106804318D01*
X134675714Y-106804318D02*
X134796666Y-106864794D01*
X134796666Y-106864794D02*
X134857142Y-106925270D01*
X134857142Y-106925270D02*
X134917619Y-107046222D01*
X134917619Y-107046222D02*
X134917619Y-107167175D01*
X134917619Y-107167175D02*
X134857142Y-107348603D01*
X134857142Y-107348603D02*
X134131428Y-108074318D01*
X134131428Y-108074318D02*
X134917619Y-108074318D01*
D11*
X195338095Y-57304819D02*
X195338095Y-56304819D01*
X195338095Y-56781009D02*
X195909523Y-56781009D01*
X195909523Y-57304819D02*
X195909523Y-56304819D01*
X196338095Y-56400057D02*
X196385714Y-56352438D01*
X196385714Y-56352438D02*
X196480952Y-56304819D01*
X196480952Y-56304819D02*
X196719047Y-56304819D01*
X196719047Y-56304819D02*
X196814285Y-56352438D01*
X196814285Y-56352438D02*
X196861904Y-56400057D01*
X196861904Y-56400057D02*
X196909523Y-56495295D01*
X196909523Y-56495295D02*
X196909523Y-56590533D01*
X196909523Y-56590533D02*
X196861904Y-56733390D01*
X196861904Y-56733390D02*
X196290476Y-57304819D01*
X196290476Y-57304819D02*
X196909523Y-57304819D01*
D12*
X182790237Y-82404318D02*
X182790237Y-81134318D01*
X184120714Y-82283365D02*
X184060238Y-82343842D01*
X184060238Y-82343842D02*
X183878809Y-82404318D01*
X183878809Y-82404318D02*
X183757857Y-82404318D01*
X183757857Y-82404318D02*
X183576428Y-82343842D01*
X183576428Y-82343842D02*
X183455476Y-82222889D01*
X183455476Y-82222889D02*
X183394999Y-82101937D01*
X183394999Y-82101937D02*
X183334523Y-81860032D01*
X183334523Y-81860032D02*
X183334523Y-81678603D01*
X183334523Y-81678603D02*
X183394999Y-81436699D01*
X183394999Y-81436699D02*
X183455476Y-81315746D01*
X183455476Y-81315746D02*
X183576428Y-81194794D01*
X183576428Y-81194794D02*
X183757857Y-81134318D01*
X183757857Y-81134318D02*
X183878809Y-81134318D01*
X183878809Y-81134318D02*
X184060238Y-81194794D01*
X184060238Y-81194794D02*
X184120714Y-81255270D01*
X185330238Y-82404318D02*
X184604523Y-82404318D01*
X184967380Y-82404318D02*
X184967380Y-81134318D01*
X184967380Y-81134318D02*
X184846428Y-81315746D01*
X184846428Y-81315746D02*
X184725476Y-81436699D01*
X184725476Y-81436699D02*
X184604523Y-81497175D01*
X164164583Y-89060365D02*
X164104107Y-89120842D01*
X164104107Y-89120842D02*
X163922678Y-89181318D01*
X163922678Y-89181318D02*
X163801726Y-89181318D01*
X163801726Y-89181318D02*
X163620297Y-89120842D01*
X163620297Y-89120842D02*
X163499345Y-88999889D01*
X163499345Y-88999889D02*
X163438868Y-88878937D01*
X163438868Y-88878937D02*
X163378392Y-88637032D01*
X163378392Y-88637032D02*
X163378392Y-88455603D01*
X163378392Y-88455603D02*
X163438868Y-88213699D01*
X163438868Y-88213699D02*
X163499345Y-88092746D01*
X163499345Y-88092746D02*
X163620297Y-87971794D01*
X163620297Y-87971794D02*
X163801726Y-87911318D01*
X163801726Y-87911318D02*
X163922678Y-87911318D01*
X163922678Y-87911318D02*
X164104107Y-87971794D01*
X164104107Y-87971794D02*
X164164583Y-88032270D01*
X165313630Y-87911318D02*
X164708868Y-87911318D01*
X164708868Y-87911318D02*
X164648392Y-88516080D01*
X164648392Y-88516080D02*
X164708868Y-88455603D01*
X164708868Y-88455603D02*
X164829821Y-88395127D01*
X164829821Y-88395127D02*
X165132202Y-88395127D01*
X165132202Y-88395127D02*
X165253154Y-88455603D01*
X165253154Y-88455603D02*
X165313630Y-88516080D01*
X165313630Y-88516080D02*
X165374107Y-88637032D01*
X165374107Y-88637032D02*
X165374107Y-88939413D01*
X165374107Y-88939413D02*
X165313630Y-89060365D01*
X165313630Y-89060365D02*
X165253154Y-89120842D01*
X165253154Y-89120842D02*
X165132202Y-89181318D01*
X165132202Y-89181318D02*
X164829821Y-89181318D01*
X164829821Y-89181318D02*
X164708868Y-89120842D01*
X164708868Y-89120842D02*
X164648392Y-89060365D01*
X170518333Y-80683365D02*
X170457857Y-80743842D01*
X170457857Y-80743842D02*
X170276428Y-80804318D01*
X170276428Y-80804318D02*
X170155476Y-80804318D01*
X170155476Y-80804318D02*
X169974047Y-80743842D01*
X169974047Y-80743842D02*
X169853095Y-80622889D01*
X169853095Y-80622889D02*
X169792618Y-80501937D01*
X169792618Y-80501937D02*
X169732142Y-80260032D01*
X169732142Y-80260032D02*
X169732142Y-80078603D01*
X169732142Y-80078603D02*
X169792618Y-79836699D01*
X169792618Y-79836699D02*
X169853095Y-79715746D01*
X169853095Y-79715746D02*
X169974047Y-79594794D01*
X169974047Y-79594794D02*
X170155476Y-79534318D01*
X170155476Y-79534318D02*
X170276428Y-79534318D01*
X170276428Y-79534318D02*
X170457857Y-79594794D01*
X170457857Y-79594794D02*
X170518333Y-79655270D01*
X171002142Y-79655270D02*
X171062618Y-79594794D01*
X171062618Y-79594794D02*
X171183571Y-79534318D01*
X171183571Y-79534318D02*
X171485952Y-79534318D01*
X171485952Y-79534318D02*
X171606904Y-79594794D01*
X171606904Y-79594794D02*
X171667380Y-79655270D01*
X171667380Y-79655270D02*
X171727857Y-79776222D01*
X171727857Y-79776222D02*
X171727857Y-79897175D01*
X171727857Y-79897175D02*
X171667380Y-80078603D01*
X171667380Y-80078603D02*
X170941666Y-80804318D01*
X170941666Y-80804318D02*
X171727857Y-80804318D01*
X124374318Y-105861666D02*
X123769556Y-106285000D01*
X124374318Y-106587381D02*
X123104318Y-106587381D01*
X123104318Y-106587381D02*
X123104318Y-106103571D01*
X123104318Y-106103571D02*
X123164794Y-105982619D01*
X123164794Y-105982619D02*
X123225270Y-105922142D01*
X123225270Y-105922142D02*
X123346222Y-105861666D01*
X123346222Y-105861666D02*
X123527651Y-105861666D01*
X123527651Y-105861666D02*
X123648603Y-105922142D01*
X123648603Y-105922142D02*
X123709080Y-105982619D01*
X123709080Y-105982619D02*
X123769556Y-106103571D01*
X123769556Y-106103571D02*
X123769556Y-106587381D01*
X123104318Y-104712619D02*
X123104318Y-105317381D01*
X123104318Y-105317381D02*
X123709080Y-105377857D01*
X123709080Y-105377857D02*
X123648603Y-105317381D01*
X123648603Y-105317381D02*
X123588127Y-105196428D01*
X123588127Y-105196428D02*
X123588127Y-104894047D01*
X123588127Y-104894047D02*
X123648603Y-104773095D01*
X123648603Y-104773095D02*
X123709080Y-104712619D01*
X123709080Y-104712619D02*
X123830032Y-104652142D01*
X123830032Y-104652142D02*
X124132413Y-104652142D01*
X124132413Y-104652142D02*
X124253365Y-104712619D01*
X124253365Y-104712619D02*
X124313842Y-104773095D01*
X124313842Y-104773095D02*
X124374318Y-104894047D01*
X124374318Y-104894047D02*
X124374318Y-105196428D01*
X124374318Y-105196428D02*
X124313842Y-105317381D01*
X124313842Y-105317381D02*
X124253365Y-105377857D01*
X179313571Y-96983365D02*
X179253095Y-97043842D01*
X179253095Y-97043842D02*
X179071666Y-97104318D01*
X179071666Y-97104318D02*
X178950714Y-97104318D01*
X178950714Y-97104318D02*
X178769285Y-97043842D01*
X178769285Y-97043842D02*
X178648333Y-96922889D01*
X178648333Y-96922889D02*
X178587856Y-96801937D01*
X178587856Y-96801937D02*
X178527380Y-96560032D01*
X178527380Y-96560032D02*
X178527380Y-96378603D01*
X178527380Y-96378603D02*
X178587856Y-96136699D01*
X178587856Y-96136699D02*
X178648333Y-96015746D01*
X178648333Y-96015746D02*
X178769285Y-95894794D01*
X178769285Y-95894794D02*
X178950714Y-95834318D01*
X178950714Y-95834318D02*
X179071666Y-95834318D01*
X179071666Y-95834318D02*
X179253095Y-95894794D01*
X179253095Y-95894794D02*
X179313571Y-95955270D01*
X180523095Y-97104318D02*
X179797380Y-97104318D01*
X180160237Y-97104318D02*
X180160237Y-95834318D01*
X180160237Y-95834318D02*
X180039285Y-96015746D01*
X180039285Y-96015746D02*
X179918333Y-96136699D01*
X179918333Y-96136699D02*
X179797380Y-96197175D01*
X181611666Y-95834318D02*
X181369761Y-95834318D01*
X181369761Y-95834318D02*
X181248809Y-95894794D01*
X181248809Y-95894794D02*
X181188333Y-95955270D01*
X181188333Y-95955270D02*
X181067380Y-96136699D01*
X181067380Y-96136699D02*
X181006904Y-96378603D01*
X181006904Y-96378603D02*
X181006904Y-96862413D01*
X181006904Y-96862413D02*
X181067380Y-96983365D01*
X181067380Y-96983365D02*
X181127857Y-97043842D01*
X181127857Y-97043842D02*
X181248809Y-97104318D01*
X181248809Y-97104318D02*
X181490714Y-97104318D01*
X181490714Y-97104318D02*
X181611666Y-97043842D01*
X181611666Y-97043842D02*
X181672142Y-96983365D01*
X181672142Y-96983365D02*
X181732619Y-96862413D01*
X181732619Y-96862413D02*
X181732619Y-96560032D01*
X181732619Y-96560032D02*
X181672142Y-96439080D01*
X181672142Y-96439080D02*
X181611666Y-96378603D01*
X181611666Y-96378603D02*
X181490714Y-96318127D01*
X181490714Y-96318127D02*
X181248809Y-96318127D01*
X181248809Y-96318127D02*
X181127857Y-96378603D01*
X181127857Y-96378603D02*
X181067380Y-96439080D01*
X181067380Y-96439080D02*
X181006904Y-96560032D01*
X184983365Y-93646428D02*
X185043842Y-93706904D01*
X185043842Y-93706904D02*
X185104318Y-93888333D01*
X185104318Y-93888333D02*
X185104318Y-94009285D01*
X185104318Y-94009285D02*
X185043842Y-94190714D01*
X185043842Y-94190714D02*
X184922889Y-94311666D01*
X184922889Y-94311666D02*
X184801937Y-94372143D01*
X184801937Y-94372143D02*
X184560032Y-94432619D01*
X184560032Y-94432619D02*
X184378603Y-94432619D01*
X184378603Y-94432619D02*
X184136699Y-94372143D01*
X184136699Y-94372143D02*
X184015746Y-94311666D01*
X184015746Y-94311666D02*
X183894794Y-94190714D01*
X183894794Y-94190714D02*
X183834318Y-94009285D01*
X183834318Y-94009285D02*
X183834318Y-93888333D01*
X183834318Y-93888333D02*
X183894794Y-93706904D01*
X183894794Y-93706904D02*
X183955270Y-93646428D01*
X185104318Y-92436904D02*
X185104318Y-93162619D01*
X185104318Y-92799762D02*
X183834318Y-92799762D01*
X183834318Y-92799762D02*
X184015746Y-92920714D01*
X184015746Y-92920714D02*
X184136699Y-93041666D01*
X184136699Y-93041666D02*
X184197175Y-93162619D01*
X183955270Y-91953095D02*
X183894794Y-91892619D01*
X183894794Y-91892619D02*
X183834318Y-91771666D01*
X183834318Y-91771666D02*
X183834318Y-91469285D01*
X183834318Y-91469285D02*
X183894794Y-91348333D01*
X183894794Y-91348333D02*
X183955270Y-91287857D01*
X183955270Y-91287857D02*
X184076222Y-91227380D01*
X184076222Y-91227380D02*
X184197175Y-91227380D01*
X184197175Y-91227380D02*
X184378603Y-91287857D01*
X184378603Y-91287857D02*
X185104318Y-92013571D01*
X185104318Y-92013571D02*
X185104318Y-91227380D01*
X187318333Y-96183365D02*
X187257857Y-96243842D01*
X187257857Y-96243842D02*
X187076428Y-96304318D01*
X187076428Y-96304318D02*
X186955476Y-96304318D01*
X186955476Y-96304318D02*
X186774047Y-96243842D01*
X186774047Y-96243842D02*
X186653095Y-96122889D01*
X186653095Y-96122889D02*
X186592618Y-96001937D01*
X186592618Y-96001937D02*
X186532142Y-95760032D01*
X186532142Y-95760032D02*
X186532142Y-95578603D01*
X186532142Y-95578603D02*
X186592618Y-95336699D01*
X186592618Y-95336699D02*
X186653095Y-95215746D01*
X186653095Y-95215746D02*
X186774047Y-95094794D01*
X186774047Y-95094794D02*
X186955476Y-95034318D01*
X186955476Y-95034318D02*
X187076428Y-95034318D01*
X187076428Y-95034318D02*
X187257857Y-95094794D01*
X187257857Y-95094794D02*
X187318333Y-95155270D01*
X188406904Y-95457651D02*
X188406904Y-96304318D01*
X188104523Y-94973842D02*
X187802142Y-95880984D01*
X187802142Y-95880984D02*
X188588333Y-95880984D01*
X166499556Y-79284761D02*
X167104318Y-79284761D01*
X165834318Y-79708094D02*
X166499556Y-79284761D01*
X166499556Y-79284761D02*
X165834318Y-78861427D01*
X167104318Y-77772856D02*
X167104318Y-78498571D01*
X167104318Y-78135714D02*
X165834318Y-78135714D01*
X165834318Y-78135714D02*
X166015746Y-78256666D01*
X166015746Y-78256666D02*
X166136699Y-78377618D01*
X166136699Y-78377618D02*
X166197175Y-78498571D01*
D11*
X156731666Y-76284819D02*
X156731666Y-76999104D01*
X156731666Y-76999104D02*
X156684047Y-77141961D01*
X156684047Y-77141961D02*
X156588809Y-77237200D01*
X156588809Y-77237200D02*
X156445952Y-77284819D01*
X156445952Y-77284819D02*
X156350714Y-77284819D01*
X157731666Y-77284819D02*
X157160238Y-77284819D01*
X157445952Y-77284819D02*
X157445952Y-76284819D01*
X157445952Y-76284819D02*
X157350714Y-76427676D01*
X157350714Y-76427676D02*
X157255476Y-76522914D01*
X157255476Y-76522914D02*
X157160238Y-76570533D01*
D12*
X164283365Y-80846428D02*
X164343842Y-80906904D01*
X164343842Y-80906904D02*
X164404318Y-81088333D01*
X164404318Y-81088333D02*
X164404318Y-81209285D01*
X164404318Y-81209285D02*
X164343842Y-81390714D01*
X164343842Y-81390714D02*
X164222889Y-81511666D01*
X164222889Y-81511666D02*
X164101937Y-81572143D01*
X164101937Y-81572143D02*
X163860032Y-81632619D01*
X163860032Y-81632619D02*
X163678603Y-81632619D01*
X163678603Y-81632619D02*
X163436699Y-81572143D01*
X163436699Y-81572143D02*
X163315746Y-81511666D01*
X163315746Y-81511666D02*
X163194794Y-81390714D01*
X163194794Y-81390714D02*
X163134318Y-81209285D01*
X163134318Y-81209285D02*
X163134318Y-81088333D01*
X163134318Y-81088333D02*
X163194794Y-80906904D01*
X163194794Y-80906904D02*
X163255270Y-80846428D01*
X163255270Y-80362619D02*
X163194794Y-80302143D01*
X163194794Y-80302143D02*
X163134318Y-80181190D01*
X163134318Y-80181190D02*
X163134318Y-79878809D01*
X163134318Y-79878809D02*
X163194794Y-79757857D01*
X163194794Y-79757857D02*
X163255270Y-79697381D01*
X163255270Y-79697381D02*
X163376222Y-79636904D01*
X163376222Y-79636904D02*
X163497175Y-79636904D01*
X163497175Y-79636904D02*
X163678603Y-79697381D01*
X163678603Y-79697381D02*
X164404318Y-80423095D01*
X164404318Y-80423095D02*
X164404318Y-79636904D01*
X163255270Y-79153095D02*
X163194794Y-79092619D01*
X163194794Y-79092619D02*
X163134318Y-78971666D01*
X163134318Y-78971666D02*
X163134318Y-78669285D01*
X163134318Y-78669285D02*
X163194794Y-78548333D01*
X163194794Y-78548333D02*
X163255270Y-78487857D01*
X163255270Y-78487857D02*
X163376222Y-78427380D01*
X163376222Y-78427380D02*
X163497175Y-78427380D01*
X163497175Y-78427380D02*
X163678603Y-78487857D01*
X163678603Y-78487857D02*
X164404318Y-79213571D01*
X164404318Y-79213571D02*
X164404318Y-78427380D01*
D11*
X144468095Y-91134819D02*
X144468095Y-90134819D01*
X144468095Y-90611009D02*
X145039523Y-90611009D01*
X145039523Y-91134819D02*
X145039523Y-90134819D01*
X145944285Y-90134819D02*
X145753809Y-90134819D01*
X145753809Y-90134819D02*
X145658571Y-90182438D01*
X145658571Y-90182438D02*
X145610952Y-90230057D01*
X145610952Y-90230057D02*
X145515714Y-90372914D01*
X145515714Y-90372914D02*
X145468095Y-90563390D01*
X145468095Y-90563390D02*
X145468095Y-90944342D01*
X145468095Y-90944342D02*
X145515714Y-91039580D01*
X145515714Y-91039580D02*
X145563333Y-91087200D01*
X145563333Y-91087200D02*
X145658571Y-91134819D01*
X145658571Y-91134819D02*
X145849047Y-91134819D01*
X145849047Y-91134819D02*
X145944285Y-91087200D01*
X145944285Y-91087200D02*
X145991904Y-91039580D01*
X145991904Y-91039580D02*
X146039523Y-90944342D01*
X146039523Y-90944342D02*
X146039523Y-90706247D01*
X146039523Y-90706247D02*
X145991904Y-90611009D01*
X145991904Y-90611009D02*
X145944285Y-90563390D01*
X145944285Y-90563390D02*
X145849047Y-90515771D01*
X145849047Y-90515771D02*
X145658571Y-90515771D01*
X145658571Y-90515771D02*
X145563333Y-90563390D01*
X145563333Y-90563390D02*
X145515714Y-90611009D01*
X145515714Y-90611009D02*
X145468095Y-90706247D01*
X120338095Y-57304819D02*
X120338095Y-56304819D01*
X120338095Y-56781009D02*
X120909523Y-56781009D01*
X120909523Y-57304819D02*
X120909523Y-56304819D01*
X121909523Y-57304819D02*
X121338095Y-57304819D01*
X121623809Y-57304819D02*
X121623809Y-56304819D01*
X121623809Y-56304819D02*
X121528571Y-56447676D01*
X121528571Y-56447676D02*
X121433333Y-56542914D01*
X121433333Y-56542914D02*
X121338095Y-56590533D01*
D12*
X183146667Y-96339080D02*
X182723333Y-96339080D01*
X182723333Y-97004318D02*
X182723333Y-95734318D01*
X182723333Y-95734318D02*
X183328095Y-95734318D01*
X184235238Y-96339080D02*
X184416666Y-96399556D01*
X184416666Y-96399556D02*
X184477143Y-96460032D01*
X184477143Y-96460032D02*
X184537619Y-96580984D01*
X184537619Y-96580984D02*
X184537619Y-96762413D01*
X184537619Y-96762413D02*
X184477143Y-96883365D01*
X184477143Y-96883365D02*
X184416666Y-96943842D01*
X184416666Y-96943842D02*
X184295714Y-97004318D01*
X184295714Y-97004318D02*
X183811904Y-97004318D01*
X183811904Y-97004318D02*
X183811904Y-95734318D01*
X183811904Y-95734318D02*
X184235238Y-95734318D01*
X184235238Y-95734318D02*
X184356190Y-95794794D01*
X184356190Y-95794794D02*
X184416666Y-95855270D01*
X184416666Y-95855270D02*
X184477143Y-95976222D01*
X184477143Y-95976222D02*
X184477143Y-96097175D01*
X184477143Y-96097175D02*
X184416666Y-96218127D01*
X184416666Y-96218127D02*
X184356190Y-96278603D01*
X184356190Y-96278603D02*
X184235238Y-96339080D01*
X184235238Y-96339080D02*
X183811904Y-96339080D01*
X185747143Y-97004318D02*
X185021428Y-97004318D01*
X185384285Y-97004318D02*
X185384285Y-95734318D01*
X185384285Y-95734318D02*
X185263333Y-95915746D01*
X185263333Y-95915746D02*
X185142381Y-96036699D01*
X185142381Y-96036699D02*
X185021428Y-96097175D01*
X174474318Y-105861666D02*
X173869556Y-106285000D01*
X174474318Y-106587381D02*
X173204318Y-106587381D01*
X173204318Y-106587381D02*
X173204318Y-106103571D01*
X173204318Y-106103571D02*
X173264794Y-105982619D01*
X173264794Y-105982619D02*
X173325270Y-105922142D01*
X173325270Y-105922142D02*
X173446222Y-105861666D01*
X173446222Y-105861666D02*
X173627651Y-105861666D01*
X173627651Y-105861666D02*
X173748603Y-105922142D01*
X173748603Y-105922142D02*
X173809080Y-105982619D01*
X173809080Y-105982619D02*
X173869556Y-106103571D01*
X173869556Y-106103571D02*
X173869556Y-106587381D01*
X173325270Y-105377857D02*
X173264794Y-105317381D01*
X173264794Y-105317381D02*
X173204318Y-105196428D01*
X173204318Y-105196428D02*
X173204318Y-104894047D01*
X173204318Y-104894047D02*
X173264794Y-104773095D01*
X173264794Y-104773095D02*
X173325270Y-104712619D01*
X173325270Y-104712619D02*
X173446222Y-104652142D01*
X173446222Y-104652142D02*
X173567175Y-104652142D01*
X173567175Y-104652142D02*
X173748603Y-104712619D01*
X173748603Y-104712619D02*
X174474318Y-105438333D01*
X174474318Y-105438333D02*
X174474318Y-104652142D01*
X194213571Y-76483365D02*
X194153095Y-76543842D01*
X194153095Y-76543842D02*
X193971666Y-76604318D01*
X193971666Y-76604318D02*
X193850714Y-76604318D01*
X193850714Y-76604318D02*
X193669285Y-76543842D01*
X193669285Y-76543842D02*
X193548333Y-76422889D01*
X193548333Y-76422889D02*
X193487856Y-76301937D01*
X193487856Y-76301937D02*
X193427380Y-76060032D01*
X193427380Y-76060032D02*
X193427380Y-75878603D01*
X193427380Y-75878603D02*
X193487856Y-75636699D01*
X193487856Y-75636699D02*
X193548333Y-75515746D01*
X193548333Y-75515746D02*
X193669285Y-75394794D01*
X193669285Y-75394794D02*
X193850714Y-75334318D01*
X193850714Y-75334318D02*
X193971666Y-75334318D01*
X193971666Y-75334318D02*
X194153095Y-75394794D01*
X194153095Y-75394794D02*
X194213571Y-75455270D01*
X195423095Y-76604318D02*
X194697380Y-76604318D01*
X195060237Y-76604318D02*
X195060237Y-75334318D01*
X195060237Y-75334318D02*
X194939285Y-75515746D01*
X194939285Y-75515746D02*
X194818333Y-75636699D01*
X194818333Y-75636699D02*
X194697380Y-75697175D01*
X196209285Y-75334318D02*
X196330238Y-75334318D01*
X196330238Y-75334318D02*
X196451190Y-75394794D01*
X196451190Y-75394794D02*
X196511666Y-75455270D01*
X196511666Y-75455270D02*
X196572142Y-75576222D01*
X196572142Y-75576222D02*
X196632619Y-75818127D01*
X196632619Y-75818127D02*
X196632619Y-76120508D01*
X196632619Y-76120508D02*
X196572142Y-76362413D01*
X196572142Y-76362413D02*
X196511666Y-76483365D01*
X196511666Y-76483365D02*
X196451190Y-76543842D01*
X196451190Y-76543842D02*
X196330238Y-76604318D01*
X196330238Y-76604318D02*
X196209285Y-76604318D01*
X196209285Y-76604318D02*
X196088333Y-76543842D01*
X196088333Y-76543842D02*
X196027857Y-76483365D01*
X196027857Y-76483365D02*
X195967380Y-76362413D01*
X195967380Y-76362413D02*
X195906904Y-76120508D01*
X195906904Y-76120508D02*
X195906904Y-75818127D01*
X195906904Y-75818127D02*
X195967380Y-75576222D01*
X195967380Y-75576222D02*
X196027857Y-75455270D01*
X196027857Y-75455270D02*
X196088333Y-75394794D01*
X196088333Y-75394794D02*
X196209285Y-75334318D01*
X164283365Y-77341666D02*
X164343842Y-77402142D01*
X164343842Y-77402142D02*
X164404318Y-77583571D01*
X164404318Y-77583571D02*
X164404318Y-77704523D01*
X164404318Y-77704523D02*
X164343842Y-77885952D01*
X164343842Y-77885952D02*
X164222889Y-78006904D01*
X164222889Y-78006904D02*
X164101937Y-78067381D01*
X164101937Y-78067381D02*
X163860032Y-78127857D01*
X163860032Y-78127857D02*
X163678603Y-78127857D01*
X163678603Y-78127857D02*
X163436699Y-78067381D01*
X163436699Y-78067381D02*
X163315746Y-78006904D01*
X163315746Y-78006904D02*
X163194794Y-77885952D01*
X163194794Y-77885952D02*
X163134318Y-77704523D01*
X163134318Y-77704523D02*
X163134318Y-77583571D01*
X163134318Y-77583571D02*
X163194794Y-77402142D01*
X163194794Y-77402142D02*
X163255270Y-77341666D01*
X164404318Y-76736904D02*
X164404318Y-76495000D01*
X164404318Y-76495000D02*
X164343842Y-76374047D01*
X164343842Y-76374047D02*
X164283365Y-76313571D01*
X164283365Y-76313571D02*
X164101937Y-76192619D01*
X164101937Y-76192619D02*
X163860032Y-76132142D01*
X163860032Y-76132142D02*
X163376222Y-76132142D01*
X163376222Y-76132142D02*
X163255270Y-76192619D01*
X163255270Y-76192619D02*
X163194794Y-76253095D01*
X163194794Y-76253095D02*
X163134318Y-76374047D01*
X163134318Y-76374047D02*
X163134318Y-76615952D01*
X163134318Y-76615952D02*
X163194794Y-76736904D01*
X163194794Y-76736904D02*
X163255270Y-76797381D01*
X163255270Y-76797381D02*
X163376222Y-76857857D01*
X163376222Y-76857857D02*
X163678603Y-76857857D01*
X163678603Y-76857857D02*
X163799556Y-76797381D01*
X163799556Y-76797381D02*
X163860032Y-76736904D01*
X163860032Y-76736904D02*
X163920508Y-76615952D01*
X163920508Y-76615952D02*
X163920508Y-76374047D01*
X163920508Y-76374047D02*
X163860032Y-76253095D01*
X163860032Y-76253095D02*
X163799556Y-76192619D01*
X163799556Y-76192619D02*
X163678603Y-76132142D01*
X169913571Y-77583365D02*
X169853095Y-77643842D01*
X169853095Y-77643842D02*
X169671666Y-77704318D01*
X169671666Y-77704318D02*
X169550714Y-77704318D01*
X169550714Y-77704318D02*
X169369285Y-77643842D01*
X169369285Y-77643842D02*
X169248333Y-77522889D01*
X169248333Y-77522889D02*
X169187856Y-77401937D01*
X169187856Y-77401937D02*
X169127380Y-77160032D01*
X169127380Y-77160032D02*
X169127380Y-76978603D01*
X169127380Y-76978603D02*
X169187856Y-76736699D01*
X169187856Y-76736699D02*
X169248333Y-76615746D01*
X169248333Y-76615746D02*
X169369285Y-76494794D01*
X169369285Y-76494794D02*
X169550714Y-76434318D01*
X169550714Y-76434318D02*
X169671666Y-76434318D01*
X169671666Y-76434318D02*
X169853095Y-76494794D01*
X169853095Y-76494794D02*
X169913571Y-76555270D01*
X170397380Y-76555270D02*
X170457856Y-76494794D01*
X170457856Y-76494794D02*
X170578809Y-76434318D01*
X170578809Y-76434318D02*
X170881190Y-76434318D01*
X170881190Y-76434318D02*
X171002142Y-76494794D01*
X171002142Y-76494794D02*
X171062618Y-76555270D01*
X171062618Y-76555270D02*
X171123095Y-76676222D01*
X171123095Y-76676222D02*
X171123095Y-76797175D01*
X171123095Y-76797175D02*
X171062618Y-76978603D01*
X171062618Y-76978603D02*
X170336904Y-77704318D01*
X170336904Y-77704318D02*
X171123095Y-77704318D01*
X172332619Y-77704318D02*
X171606904Y-77704318D01*
X171969761Y-77704318D02*
X171969761Y-76434318D01*
X171969761Y-76434318D02*
X171848809Y-76615746D01*
X171848809Y-76615746D02*
X171727857Y-76736699D01*
X171727857Y-76736699D02*
X171606904Y-76797175D01*
D11*
X120338095Y-136734819D02*
X120338095Y-135734819D01*
X120338095Y-136211009D02*
X120909523Y-136211009D01*
X120909523Y-136734819D02*
X120909523Y-135734819D01*
X121814285Y-136068152D02*
X121814285Y-136734819D01*
X121576190Y-135687200D02*
X121338095Y-136401485D01*
X121338095Y-136401485D02*
X121957142Y-136401485D01*
D12*
X167898571Y-87283365D02*
X167838095Y-87343842D01*
X167838095Y-87343842D02*
X167656666Y-87404318D01*
X167656666Y-87404318D02*
X167535714Y-87404318D01*
X167535714Y-87404318D02*
X167354285Y-87343842D01*
X167354285Y-87343842D02*
X167233333Y-87222889D01*
X167233333Y-87222889D02*
X167172856Y-87101937D01*
X167172856Y-87101937D02*
X167112380Y-86860032D01*
X167112380Y-86860032D02*
X167112380Y-86678603D01*
X167112380Y-86678603D02*
X167172856Y-86436699D01*
X167172856Y-86436699D02*
X167233333Y-86315746D01*
X167233333Y-86315746D02*
X167354285Y-86194794D01*
X167354285Y-86194794D02*
X167535714Y-86134318D01*
X167535714Y-86134318D02*
X167656666Y-86134318D01*
X167656666Y-86134318D02*
X167838095Y-86194794D01*
X167838095Y-86194794D02*
X167898571Y-86255270D01*
X168321904Y-86134318D02*
X169108095Y-86134318D01*
X169108095Y-86134318D02*
X168684761Y-86618127D01*
X168684761Y-86618127D02*
X168866190Y-86618127D01*
X168866190Y-86618127D02*
X168987142Y-86678603D01*
X168987142Y-86678603D02*
X169047618Y-86739080D01*
X169047618Y-86739080D02*
X169108095Y-86860032D01*
X169108095Y-86860032D02*
X169108095Y-87162413D01*
X169108095Y-87162413D02*
X169047618Y-87283365D01*
X169047618Y-87283365D02*
X168987142Y-87343842D01*
X168987142Y-87343842D02*
X168866190Y-87404318D01*
X168866190Y-87404318D02*
X168503333Y-87404318D01*
X168503333Y-87404318D02*
X168382380Y-87343842D01*
X168382380Y-87343842D02*
X168321904Y-87283365D01*
X169531428Y-86134318D02*
X170317619Y-86134318D01*
X170317619Y-86134318D02*
X169894285Y-86618127D01*
X169894285Y-86618127D02*
X170075714Y-86618127D01*
X170075714Y-86618127D02*
X170196666Y-86678603D01*
X170196666Y-86678603D02*
X170257142Y-86739080D01*
X170257142Y-86739080D02*
X170317619Y-86860032D01*
X170317619Y-86860032D02*
X170317619Y-87162413D01*
X170317619Y-87162413D02*
X170257142Y-87283365D01*
X170257142Y-87283365D02*
X170196666Y-87343842D01*
X170196666Y-87343842D02*
X170075714Y-87404318D01*
X170075714Y-87404318D02*
X169712857Y-87404318D01*
X169712857Y-87404318D02*
X169591904Y-87343842D01*
X169591904Y-87343842D02*
X169531428Y-87283365D01*
D13*
%TO.C,Y3*%
X164715000Y-82480000D02*
X164715000Y-82480000D01*
X164715000Y-82580000D02*
X164715000Y-82580000D01*
X164715000Y-82480000D02*
G75*
G02*
X164715000Y-82580000I0J-50000D01*
G01*
X164715000Y-82580000D02*
G75*
G02*
X164715000Y-82480000I0J50000D01*
G01*
%TO.C,RV1*%
X144600000Y-141000000D02*
X127600000Y-141000000D01*
X127600000Y-119000000D01*
X144600000Y-119000000D01*
X144600000Y-141000000D01*
D10*
%TO.C,C6*%
X171530000Y-86230000D02*
X171530000Y-86230000D01*
X171530000Y-86430000D02*
X171530000Y-86430000D01*
X173030000Y-85930000D02*
X173030000Y-86730000D01*
X171530000Y-86230000D02*
G75*
G02*
X171530000Y-86430000I0J-100000D01*
G01*
X171530000Y-86430000D02*
G75*
G02*
X171530000Y-86230000I0J100000D01*
G01*
%TO.C,C18*%
X190130000Y-92830000D02*
X190930000Y-92830000D01*
X190430000Y-94330000D02*
X190430000Y-94330000D01*
X190630000Y-94330000D02*
X190630000Y-94330000D01*
X190430000Y-94330000D02*
G75*
G02*
X190630000Y-94330000I100000J0D01*
G01*
X190630000Y-94330000D02*
G75*
G02*
X190430000Y-94330000I-100000J0D01*
G01*
%TO.C,S4*%
X152600000Y-101500000D02*
X152600000Y-103500000D01*
X152600000Y-106500000D02*
X152600000Y-108500000D01*
X152600000Y-113500000D02*
X152600000Y-111500000D01*
X164600000Y-101500000D02*
X152600000Y-101500000D01*
X164600000Y-103500000D02*
X164600000Y-101500000D01*
X164600000Y-106500000D02*
X164600000Y-108500000D01*
X164600000Y-111500000D02*
X164600000Y-113500000D01*
X164600000Y-113500000D02*
X152600000Y-113500000D01*
D13*
X167200000Y-110000000D02*
X167200000Y-110000000D01*
X167300000Y-110000000D02*
X167300000Y-110000000D01*
X167200000Y-110000000D02*
G75*
G02*
X167300000Y-110000000I50000J0D01*
G01*
X167300000Y-110000000D02*
G75*
G02*
X167200000Y-110000000I-50000J0D01*
G01*
%TO.C,S3*%
X175250000Y-105000000D02*
X175250000Y-105000000D01*
X175350000Y-105000000D02*
X175350000Y-105000000D01*
D10*
X177950000Y-101500000D02*
X189950000Y-101500000D01*
X177950000Y-103500000D02*
X177950000Y-101500000D01*
X177950000Y-108500000D02*
X177950000Y-106500000D01*
X177950000Y-111500000D02*
X177950000Y-113500000D01*
X177950000Y-113500000D02*
X189950000Y-113500000D01*
X189950000Y-101500000D02*
X189950000Y-103500000D01*
X189950000Y-108500000D02*
X189950000Y-106500000D01*
X189950000Y-113500000D02*
X189950000Y-111500000D01*
D13*
X175250000Y-105000000D02*
G75*
G02*
X175350000Y-105000000I50000J0D01*
G01*
X175350000Y-105000000D02*
G75*
G02*
X175250000Y-105000000I-50000J0D01*
G01*
D10*
%TO.C,C20*%
X181130000Y-92830000D02*
X181930000Y-92830000D01*
X181430000Y-94330000D02*
X181430000Y-94330000D01*
X181630000Y-94330000D02*
X181630000Y-94330000D01*
X181430000Y-94330000D02*
G75*
G02*
X181630000Y-94330000I100000J0D01*
G01*
X181630000Y-94330000D02*
G75*
G02*
X181430000Y-94330000I-100000J0D01*
G01*
%TO.C,C11*%
X178130000Y-92830000D02*
X178930000Y-92830000D01*
X178430000Y-94330000D02*
X178430000Y-94330000D01*
X178630000Y-94330000D02*
X178630000Y-94330000D01*
X178430000Y-94330000D02*
G75*
G02*
X178630000Y-94330000I100000J0D01*
G01*
X178630000Y-94330000D02*
G75*
G02*
X178430000Y-94330000I-100000J0D01*
G01*
%TO.C,C17*%
X195030000Y-82830000D02*
X195030000Y-82030000D01*
X196530000Y-82330000D02*
X196530000Y-82330000D01*
X196530000Y-82530000D02*
X196530000Y-82530000D01*
X196530000Y-82330000D02*
G75*
G02*
X196530000Y-82530000I0J-100000D01*
G01*
X196530000Y-82530000D02*
G75*
G02*
X196530000Y-82330000I0J100000D01*
G01*
%TO.C,C15*%
X177730000Y-69430000D02*
X177730000Y-69430000D01*
X177930000Y-69430000D02*
X177930000Y-69430000D01*
X178230000Y-70930000D02*
X177430000Y-70930000D01*
X177730000Y-69430000D02*
G75*
G02*
X177930000Y-69430000I100000J0D01*
G01*
X177930000Y-69430000D02*
G75*
G02*
X177730000Y-69430000I-100000J0D01*
G01*
%TO.C,RV2*%
D13*
X189600000Y-141000000D02*
X172600000Y-141000000D01*
X172600000Y-119000000D01*
X189600000Y-119000000D01*
X189600000Y-141000000D01*
D10*
%TO.C,C14*%
X184530000Y-69330000D02*
X184530000Y-69330000D01*
X184730000Y-69330000D02*
X184730000Y-69330000D01*
X185030000Y-70830000D02*
X184230000Y-70830000D01*
X184530000Y-69330000D02*
G75*
G02*
X184730000Y-69330000I100000J0D01*
G01*
X184730000Y-69330000D02*
G75*
G02*
X184530000Y-69330000I-100000J0D01*
G01*
D13*
%TO.C,J2*%
X123775000Y-71950000D02*
X123775000Y-88050000D01*
X123775000Y-88050000D02*
X126175000Y-88050000D01*
X126175000Y-71950000D02*
X123775000Y-71950000D01*
X128575000Y-71950000D02*
X129575000Y-71950000D01*
X128575000Y-88050000D02*
X129575000Y-88050000D01*
X129575000Y-71950000D02*
X129575000Y-73800000D01*
X129575000Y-88050000D02*
X129575000Y-86200000D01*
X131175000Y-74200000D02*
X131175000Y-74200000D01*
X131175000Y-74300000D02*
X131175000Y-74300000D01*
X131175000Y-74200000D02*
G75*
G02*
X131175000Y-74300000I0J-50000D01*
G01*
X131175000Y-74300000D02*
G75*
G02*
X131175000Y-74200000I0J50000D01*
G01*
D10*
%TO.C,C13*%
X187130000Y-92830000D02*
X187930000Y-92830000D01*
X187430000Y-94330000D02*
X187430000Y-94330000D01*
X187630000Y-94330000D02*
X187630000Y-94330000D01*
X187430000Y-94330000D02*
G75*
G02*
X187630000Y-94330000I100000J0D01*
G01*
X187630000Y-94330000D02*
G75*
G02*
X187430000Y-94330000I-100000J0D01*
G01*
D13*
%TO.C,S2*%
X125250000Y-105000000D02*
X125250000Y-105000000D01*
X125350000Y-105000000D02*
X125350000Y-105000000D01*
D10*
X127950000Y-101500000D02*
X139950000Y-101500000D01*
X127950000Y-103500000D02*
X127950000Y-101500000D01*
X127950000Y-108500000D02*
X127950000Y-106500000D01*
X127950000Y-111500000D02*
X127950000Y-113500000D01*
X127950000Y-113500000D02*
X139950000Y-113500000D01*
X139950000Y-101500000D02*
X139950000Y-103500000D01*
X139950000Y-108500000D02*
X139950000Y-106500000D01*
X139950000Y-113500000D02*
X139950000Y-111500000D01*
D13*
X125250000Y-105000000D02*
G75*
G02*
X125350000Y-105000000I50000J0D01*
G01*
X125350000Y-105000000D02*
G75*
G02*
X125250000Y-105000000I-50000J0D01*
G01*
D10*
%TO.C,IC1*%
X177380000Y-75180000D02*
X190680000Y-75180000D01*
X177380000Y-88480000D02*
X177380000Y-75180000D01*
X190680000Y-75180000D02*
X190680000Y-88480000D01*
X190680000Y-88480000D02*
X177380000Y-88480000D01*
X175855000Y-75030000D02*
G75*
G02*
X175655000Y-75030000I-100000J0D01*
G01*
X175655000Y-75030000D02*
G75*
G02*
X175855000Y-75030000I100000J0D01*
G01*
%TO.C,C5*%
X162876250Y-88507000D02*
X162876250Y-88507000D01*
X162876250Y-88707000D02*
X162876250Y-88707000D01*
X164376250Y-88207000D02*
X164376250Y-89007000D01*
X162876250Y-88507000D02*
G75*
G02*
X162876250Y-88707000I0J-100000D01*
G01*
X162876250Y-88707000D02*
G75*
G02*
X162876250Y-88507000I0J100000D01*
G01*
%TO.C,C2*%
X169230000Y-80130000D02*
X169230000Y-80130000D01*
X169230000Y-80330000D02*
X169230000Y-80330000D01*
X170730000Y-79830000D02*
X170730000Y-80630000D01*
X169230000Y-80130000D02*
G75*
G02*
X169230000Y-80330000I0J-100000D01*
G01*
X169230000Y-80330000D02*
G75*
G02*
X169230000Y-80130000I0J100000D01*
G01*
%TO.C,C16*%
X178630000Y-96430000D02*
X178630000Y-96430000D01*
X178630000Y-96630000D02*
X178630000Y-96630000D01*
X180130000Y-96130000D02*
X180130000Y-96930000D01*
X178630000Y-96430000D02*
G75*
G02*
X178630000Y-96630000I0J-100000D01*
G01*
X178630000Y-96630000D02*
G75*
G02*
X178630000Y-96430000I0J100000D01*
G01*
%TO.C,C12*%
X184130000Y-92830000D02*
X184930000Y-92830000D01*
X184430000Y-94330000D02*
X184430000Y-94330000D01*
X184630000Y-94330000D02*
X184630000Y-94330000D01*
X184430000Y-94330000D02*
G75*
G02*
X184630000Y-94330000I100000J0D01*
G01*
X184630000Y-94330000D02*
G75*
G02*
X184430000Y-94330000I-100000J0D01*
G01*
%TO.C,Y1*%
X165780000Y-79080000D02*
X165780000Y-78280000D01*
D13*
X166530000Y-80880000D02*
X166530000Y-80880000D01*
X166530000Y-80980000D02*
X166530000Y-80980000D01*
D10*
X167280000Y-79080000D02*
X167280000Y-78280000D01*
D13*
X166530000Y-80880000D02*
G75*
G02*
X166530000Y-80980000I0J-50000D01*
G01*
X166530000Y-80980000D02*
G75*
G02*
X166530000Y-80880000I0J50000D01*
G01*
D10*
%TO.C,J1*%
X155350000Y-77800000D02*
X155350000Y-77800000D01*
X155350000Y-77800000D02*
X158780000Y-77800000D01*
X155350000Y-86860000D02*
X155350000Y-86860000D01*
X158780000Y-77800000D02*
X158780000Y-77800000D01*
X158780000Y-86860000D02*
X155350000Y-86860000D01*
X158780000Y-86860000D02*
X158780000Y-86860000D01*
X155130000Y-77235000D02*
G75*
G02*
X154930000Y-77235000I-100000J0D01*
G01*
X154930000Y-77235000D02*
G75*
G02*
X155130000Y-77235000I100000J0D01*
G01*
D13*
%TO.C,FB1*%
X183005000Y-96430000D02*
X183005000Y-96430000D01*
X183105000Y-96430000D02*
X183105000Y-96430000D01*
X183005000Y-96430000D02*
G75*
G02*
X183105000Y-96430000I50000J0D01*
G01*
X183105000Y-96430000D02*
G75*
G02*
X183005000Y-96430000I-50000J0D01*
G01*
D10*
%TO.C,C10*%
X195030000Y-76430000D02*
X195030000Y-75630000D01*
X196530000Y-75930000D02*
X196530000Y-75930000D01*
X196530000Y-76130000D02*
X196530000Y-76130000D01*
X196530000Y-75930000D02*
G75*
G02*
X196530000Y-76130000I0J-100000D01*
G01*
X196530000Y-76130000D02*
G75*
G02*
X196530000Y-75930000I0J100000D01*
G01*
%TO.C,C21*%
X169230000Y-77030000D02*
X169230000Y-77030000D01*
X169230000Y-77230000D02*
X169230000Y-77230000D01*
X170730000Y-76730000D02*
X170730000Y-77530000D01*
X169230000Y-77030000D02*
G75*
G02*
X169230000Y-77230000I0J-100000D01*
G01*
X169230000Y-77230000D02*
G75*
G02*
X169230000Y-77030000I0J100000D01*
G01*
%TD*%
M02*
