%TF.GenerationSoftware,KiCad,Pcbnew,9.0.6*%
%TF.CreationDate,2025-12-08T21:47:25-05:00*%
%TF.ProjectId,electrical,656c6563-7472-4696-9361-6c2e6b696361,rev?*%
%TF.SameCoordinates,Original*%
%TF.FileFunction,Copper,L4,Bot*%
%TF.FilePolarity,Positive*%
%FSLAX46Y46*%
G04 Gerber Fmt 4.6, Leading zero omitted, Abs format (unit mm)*
G04 Created by KiCad (PCBNEW 9.0.6) date 2025-12-08 21:47:25*
%MOMM*%
%LPD*%
G01*
G04 APERTURE LIST*
G04 Aperture macros list*
%AMRoundRect*
0 Rectangle with rounded corners*
0 $1 Rounding radius*
0 $2 $3 $4 $5 $6 $7 $8 $9 X,Y pos of 4 corners*
0 Add a 4 corners polygon primitive as box body*
4,1,4,$2,$3,$4,$5,$6,$7,$8,$9,$2,$3,0*
0 Add four circle primitives for the rounded corners*
1,1,$1+$1,$2,$3*
1,1,$1+$1,$4,$5*
1,1,$1+$1,$6,$7*
1,1,$1+$1,$8,$9*
0 Add four rect primitives between the rounded corners*
20,1,$1+$1,$2,$3,$4,$5,0*
20,1,$1+$1,$4,$5,$6,$7,0*
20,1,$1+$1,$6,$7,$8,$9,0*
20,1,$1+$1,$8,$9,$2,$3,0*%
G04 Aperture macros list end*
%TA.AperFunction,ComponentPad*%
%ADD10C,2.200000*%
%TD*%
%TA.AperFunction,SMDPad,CuDef*%
%ADD11R,0.800000X1.150000*%
%TD*%
%TA.AperFunction,SMDPad,CuDef*%
%ADD12R,0.508000X1.117600*%
%TD*%
%TA.AperFunction,SMDPad,CuDef*%
%ADD13R,1.117600X0.508000*%
%TD*%
%TA.AperFunction,SMDPad,CuDef*%
%ADD14R,0.700000X0.700000*%
%TD*%
%TA.AperFunction,SMDPad,CuDef*%
%ADD15R,0.500000X0.600000*%
%TD*%
%TA.AperFunction,SMDPad,CuDef*%
%ADD16RoundRect,0.237500X-0.250000X-0.237500X0.250000X-0.237500X0.250000X0.237500X-0.250000X0.237500X0*%
%TD*%
%TA.AperFunction,SMDPad,CuDef*%
%ADD17R,0.950000X1.100000*%
%TD*%
%TA.AperFunction,SMDPad,CuDef*%
%ADD18R,1.300000X1.300000*%
%TD*%
%TA.AperFunction,SMDPad,CuDef*%
%ADD19R,0.650000X0.900000*%
%TD*%
%TA.AperFunction,SMDPad,CuDef*%
%ADD20R,2.600000X3.500000*%
%TD*%
%TA.AperFunction,SMDPad,CuDef*%
%ADD21R,0.800000X0.800000*%
%TD*%
%TA.AperFunction,SMDPad,CuDef*%
%ADD22R,0.450000X1.000000*%
%TD*%
%TA.AperFunction,ComponentPad*%
%ADD23C,1.300000*%
%TD*%
%TA.AperFunction,SMDPad,CuDef*%
%ADD24R,0.780000X0.990000*%
%TD*%
%TA.AperFunction,SMDPad,CuDef*%
%ADD25R,1.060000X0.490000*%
%TD*%
%TA.AperFunction,ComponentPad*%
%ADD26R,1.950000X1.950000*%
%TD*%
%TA.AperFunction,ComponentPad*%
%ADD27C,1.950000*%
%TD*%
%TA.AperFunction,ViaPad*%
%ADD28C,0.600000*%
%TD*%
%TA.AperFunction,Conductor*%
%ADD29C,0.200000*%
%TD*%
G04 APERTURE END LIST*
D10*
%TO.P,RV1,1,1*%
%TO.N,/Controls/POT_1*%
X141100000Y-125000000D03*
%TO.P,RV1,2,2*%
%TO.N,/Connectivity/GND*%
X136100000Y-125000000D03*
%TO.P,RV1,3,3*%
%TO.N,/Connectivity/3V0*%
X131100000Y-125000000D03*
%TD*%
%TO.P,RV2,1,1*%
%TO.N,/Controls/POT_2*%
X186100000Y-125000000D03*
%TO.P,RV2,2,2*%
%TO.N,/Connectivity/GND*%
X181100000Y-125000000D03*
%TO.P,RV2,3,3*%
%TO.N,/Connectivity/3V0*%
X176100000Y-125000000D03*
%TD*%
D11*
%TO.P,D2,1,K*%
%TO.N,Net-(D2-K)*%
X137430000Y-101380000D03*
%TO.P,D2,2,A*%
%TO.N,/Display/VGL*%
X137430000Y-97880000D03*
%TD*%
D12*
%TO.P,IC2,1,VDD_I/O*%
%TO.N,/Connectivity/3V0*%
X186600400Y-133200000D03*
%TO.P,IC2,2,GND_2*%
%TO.N,/Connectivity/GND*%
X185787600Y-133200000D03*
%TO.P,IC2,3,RESERVED_2*%
%TO.N,/Connectivity/3V0*%
X185000200Y-133200000D03*
%TO.P,IC2,4,GND_3*%
%TO.N,/Connectivity/GND*%
X184187400Y-133200000D03*
%TO.P,IC2,5,GND*%
X183400000Y-133200000D03*
%TO.P,IC2,6,VS*%
%TO.N,/Connectivity/3V0*%
X182587200Y-133200000D03*
D13*
%TO.P,IC2,7,~{CS}*%
%TO.N,/Controls/ADXL_CS*%
X182714200Y-131828400D03*
D12*
%TO.P,IC2,8,INT1*%
%TO.N,/Controls/ADXL_INT1*%
X182587200Y-130456800D03*
%TO.P,IC2,9,INT2*%
%TO.N,/Controls/ADXL_INT2*%
X183400000Y-130456800D03*
%TO.P,IC2,10,NC*%
%TO.N,unconnected-(IC2-NC-Pad10)*%
X184187400Y-130456800D03*
%TO.P,IC2,11,RESERVED*%
%TO.N,/Connectivity/3V0*%
X185000200Y-130456800D03*
%TO.P,IC2,12,SDO/ALT_ADDRESS*%
%TO.N,/Controls/ADXL_SDO*%
X185787600Y-130456800D03*
%TO.P,IC2,13,SDA/SDI/SDIO*%
%TO.N,/Controls/ADXL_SDI*%
X186600400Y-130456800D03*
D13*
%TO.P,IC2,14,SCL/SCLK*%
%TO.N,/Controls/ADXL_SCL*%
X186473400Y-131828400D03*
%TD*%
D14*
%TO.P,C27,1,1*%
%TO.N,/Display/VCOM*%
X134730000Y-88230000D03*
%TO.P,C27,2,2*%
%TO.N,/Connectivity/GND*%
X136130000Y-88230000D03*
%TD*%
D15*
%TO.P,R1,1,1*%
%TO.N,/Connectivity/GND*%
X138430000Y-135030000D03*
%TO.P,R1,2,2*%
%TO.N,Net-(LED1-K)*%
X139930000Y-135030000D03*
%TD*%
D11*
%TO.P,D1,1,K*%
%TO.N,/Display/VGH*%
X133930000Y-97880000D03*
%TO.P,D1,2,A*%
%TO.N,Net-(D1-A)*%
X133930000Y-101380000D03*
%TD*%
D16*
%TO.P,R7,1*%
%TO.N,/Display/RESE*%
X128505000Y-96130000D03*
%TO.P,R7,2*%
%TO.N,/Display/GDR*%
X130330000Y-96130000D03*
%TD*%
D17*
%TO.P,R3,1,1*%
%TO.N,Net-(S1-COM_1)*%
X164930000Y-118330000D03*
%TO.P,R3,2,2*%
%TO.N,/Processor/BOOT0*%
X164930000Y-117030000D03*
%TD*%
D14*
%TO.P,C31,1,1*%
%TO.N,/Connectivity/GND*%
X136130000Y-85230000D03*
%TO.P,C31,2,2*%
%TO.N,/Display/VGL*%
X134730000Y-85230000D03*
%TD*%
%TO.P,C8,1,1*%
%TO.N,/Connectivity/3V0*%
X134730000Y-73230000D03*
%TO.P,C8,2,2*%
%TO.N,/Connectivity/GND*%
X136130000Y-73230000D03*
%TD*%
D18*
%TO.P,L1,1,1*%
%TO.N,Net-(D1-A)*%
X131030000Y-104930000D03*
%TO.P,L1,2,2*%
%TO.N,/Connectivity/3V0*%
X134030000Y-104930000D03*
%TD*%
D17*
%TO.P,R4,1,1*%
%TO.N,/Connectivity/3V0*%
X181087600Y-131156800D03*
%TO.P,R4,2,2*%
%TO.N,/Controls/ADXL_CS*%
X181087600Y-132456800D03*
%TD*%
D19*
%TO.P,R8,1,1*%
%TO.N,/Connectivity/3V0*%
X136730000Y-96030000D03*
%TO.P,R8,2,2*%
%TO.N,/Display/1V8*%
X138180000Y-96030000D03*
%TD*%
D20*
%TO.P,BT1,1,+*%
%TO.N,/Connectivity/3V0*%
X143830000Y-132130000D03*
%TO.P,BT1,2,-*%
%TO.N,/Connectivity/GND*%
X173230000Y-132130000D03*
%TD*%
D11*
%TO.P,D3,1,K*%
%TO.N,/Connectivity/GND*%
X141030000Y-97880000D03*
%TO.P,D3,2,A*%
%TO.N,Net-(D2-K)*%
X141030000Y-101380000D03*
%TD*%
D21*
%TO.P,LED1,1,K*%
%TO.N,Net-(LED1-K)*%
X138330000Y-131930000D03*
%TO.P,LED1,2,A*%
%TO.N,/Connectivity/3V0*%
X139830000Y-131930000D03*
%TD*%
D14*
%TO.P,C26,1,1*%
%TO.N,/Display/VSL*%
X134730000Y-82230000D03*
%TO.P,C26,2,2*%
%TO.N,/Connectivity/GND*%
X136130000Y-82230000D03*
%TD*%
%TO.P,C30,1,1*%
%TO.N,/Connectivity/GND*%
X132630000Y-95430000D03*
%TO.P,C30,2,2*%
%TO.N,/Display/VGH*%
X134030000Y-95430000D03*
%TD*%
%TO.P,C29,1,1*%
%TO.N,Net-(D2-K)*%
X137230000Y-104330000D03*
%TO.P,C29,2,2*%
%TO.N,Net-(D1-A)*%
X137230000Y-105730000D03*
%TD*%
D22*
%TO.P,Q1,1,S1*%
%TO.N,/Display/RESE*%
X130080000Y-99530000D03*
%TO.P,Q1,2,G1*%
%TO.N,/Display/GDR*%
X130730000Y-99530000D03*
%TO.P,Q1,3,D2*%
%TO.N,unconnected-(Q1-D2-Pad3)*%
X131380000Y-99530000D03*
%TO.P,Q1,4,S2*%
%TO.N,unconnected-(Q1-S2-Pad4)*%
X131380000Y-101430000D03*
%TO.P,Q1,5,G2*%
%TO.N,unconnected-(Q1-G2-Pad5)*%
X130730000Y-101430000D03*
%TO.P,Q1,6,D1*%
%TO.N,Net-(D1-A)*%
X130080000Y-101430000D03*
%TD*%
D14*
%TO.P,C28,1,1*%
%TO.N,/Display/VSH2*%
X134730000Y-70230000D03*
%TO.P,C28,2,2*%
%TO.N,/Connectivity/GND*%
X136130000Y-70230000D03*
%TD*%
%TO.P,C25,1,1*%
%TO.N,/Display/VSH1*%
X134730000Y-79230000D03*
%TO.P,C25,2,2*%
%TO.N,/Connectivity/GND*%
X136130000Y-79230000D03*
%TD*%
%TO.P,C3,1,1*%
%TO.N,/Connectivity/3V0*%
X186587600Y-135256800D03*
%TO.P,C3,2,2*%
%TO.N,/Connectivity/GND*%
X186587600Y-136656800D03*
%TD*%
D23*
%TO.P,S1,A1,NC_1*%
%TO.N,unconnected-(S1-NC_1-PadA1)*%
X161030000Y-119430000D03*
%TO.P,S1,A2,COM_1*%
%TO.N,Net-(S1-COM_1)*%
X158530000Y-119430000D03*
%TO.P,S1,A3,NO_1*%
%TO.N,/Connectivity/3V0*%
X156030000Y-119430000D03*
%TO.P,S1,B1,NC_2*%
%TO.N,unconnected-(S1-NC_2-PadB1)*%
X161030000Y-116230000D03*
%TO.P,S1,B2,COM_2*%
%TO.N,Net-(S1-COM_1)*%
X158530000Y-116230000D03*
%TO.P,S1,B3,NO_2*%
%TO.N,/Connectivity/GND*%
X156030000Y-116230000D03*
%TD*%
D14*
%TO.P,C24,1,1*%
%TO.N,/Display/1V8*%
X134730000Y-76230000D03*
%TO.P,C24,2,2*%
%TO.N,/Connectivity/GND*%
X136130000Y-76230000D03*
%TD*%
D19*
%TO.P,R9,1,1*%
%TO.N,/Display/1V8*%
X138180000Y-94330000D03*
%TO.P,R9,2,2*%
%TO.N,/Connectivity/GND*%
X136730000Y-94330000D03*
%TD*%
D24*
%TO.P,C1,1,1*%
%TO.N,/Connectivity/3V0*%
X140730000Y-129630000D03*
%TO.P,C1,2,2*%
%TO.N,/Connectivity/GND*%
X139330000Y-129630000D03*
%TD*%
D25*
%TO.P,C7,1,1*%
%TO.N,/Connectivity/3V0*%
X182587600Y-134376800D03*
%TO.P,C7,2,2*%
%TO.N,/Connectivity/GND*%
X182587600Y-136136800D03*
%TD*%
D26*
%TO.P,U1,1,VIN*%
%TO.N,/Connectivity/3V0*%
X144870000Y-66030000D03*
D27*
%TO.P,U1,2,3V0_OUT*%
%TO.N,unconnected-(U1-3V0_OUT-Pad2)*%
X147370000Y-66030000D03*
%TO.P,U1,3,VSS*%
%TO.N,/Connectivity/GND*%
X149870000Y-66030000D03*
%TO.P,U1,4,SCK*%
%TO.N,/Connectivity/WIFI_SCK*%
X152370000Y-66030000D03*
%TO.P,U1,5,MISO*%
%TO.N,/Connectivity/WIFI_MISO*%
X154870000Y-66030000D03*
%TO.P,U1,6,MOSI*%
%TO.N,/Connectivity/WIFI_MOSI*%
X157370000Y-66030000D03*
%TO.P,U1,7,CS*%
%TO.N,/Connectivity/WIFI_CS*%
X159870000Y-66030000D03*
%TO.P,U1,8,BUSY*%
%TO.N,/Connectivity/WIFI_BUSY*%
X162370000Y-66030000D03*
%TO.P,U1,9,RESET*%
%TO.N,/Connectivity/WIFI_RESET*%
X164870000Y-66030000D03*
%TO.P,U1,10,GPIO_0*%
%TO.N,unconnected-(U1-GPIO_0-Pad10)*%
X167370000Y-66030000D03*
%TO.P,U1,11,UART_RX*%
%TO.N,unconnected-(U1-UART_RX-Pad11)*%
X169870000Y-66030000D03*
%TO.P,U1,12,UART_TX*%
%TO.N,unconnected-(U1-UART_TX-Pad12)*%
X172370000Y-66030000D03*
%TD*%
D28*
%TO.N,/Display/SCREEN_CS*%
X173130000Y-72330000D03*
X134730000Y-64330000D03*
%TO.N,/Display/SCREEN_D_C*%
X173130000Y-73230000D03*
X133430000Y-64930000D03*
%TO.N,/Display/SCREEN_RST*%
X173130000Y-69030000D03*
X139430000Y-65630000D03*
%TO.N,/Display/SCREEN_BUSY*%
X137630000Y-66230000D03*
X173130000Y-71130000D03*
%TO.N,/Display/1V8*%
X138180000Y-92730000D03*
X132830000Y-77030000D03*
%TO.N,/Display/VSH1*%
X125930000Y-81630000D03*
%TO.N,/Display/VSL*%
X131830000Y-84730000D03*
%TO.N,/Display/VCOM*%
X130330000Y-87230000D03*
%TO.N,/Display/VSH2*%
X131330000Y-71730000D03*
%TO.N,/Display/VGH*%
X125930000Y-85330000D03*
%TO.N,/Display/VGL*%
X131830000Y-85730000D03*
%TO.N,/Display/SCREEN_SCL*%
X135430000Y-63730000D03*
X173130000Y-70030000D03*
%TO.N,/Processor/BOOT0*%
X179830000Y-70130000D03*
%TO.N,/Connectivity/GND*%
X180000000Y-94200000D03*
X185000000Y-75700000D03*
X131500000Y-77600000D03*
X137100000Y-73300000D03*
X184800000Y-136500000D03*
X176900000Y-111800000D03*
X167600000Y-105000000D03*
X137300000Y-85300000D03*
X142500000Y-97900000D03*
X165300000Y-78700000D03*
X178700000Y-97400000D03*
X166900000Y-82700000D03*
X193500000Y-83200000D03*
X162400000Y-82400000D03*
X169200000Y-81100000D03*
X191500000Y-94300000D03*
X126700000Y-111800000D03*
X177900000Y-80000000D03*
X188700000Y-96800000D03*
X170000000Y-130000000D03*
X170200000Y-76000000D03*
X152600000Y-82400000D03*
X178700000Y-75600000D03*
X167200000Y-86600000D03*
X188400000Y-94300000D03*
X196600000Y-81700000D03*
X136100000Y-89400000D03*
X137700000Y-135700000D03*
X136800000Y-93100000D03*
X137200000Y-82300000D03*
X189500000Y-91100000D03*
X196600000Y-75400000D03*
X172400000Y-87400000D03*
X136900000Y-75700000D03*
X184600000Y-94500000D03*
X181100000Y-90900000D03*
X132700000Y-96500000D03*
X193400000Y-76700000D03*
X166400000Y-88600000D03*
X177100000Y-69500000D03*
X138500000Y-128800000D03*
X141100000Y-112100000D03*
X136200000Y-71500000D03*
X190800000Y-111700000D03*
X166200000Y-85000000D03*
X183600000Y-70100000D03*
X183800000Y-134300000D03*
X149600000Y-105000000D03*
X128600000Y-82500000D03*
X137100000Y-79200000D03*
%TO.N,/Controls/ADXL_SDO*%
X189500000Y-86000000D03*
%TO.N,/Controls/ADXL_CS*%
X193950000Y-95150000D03*
%TO.N,/Controls/ADXL_INT2*%
X195600000Y-86500000D03*
%TO.N,/Controls/ADXL_SDI*%
X194000000Y-93050000D03*
%TO.N,/Controls/ADXL_SCL*%
X194300000Y-88300000D03*
%TO.N,/Controls/ADXL_INT1*%
X194800000Y-86500000D03*
%TO.N,/Connectivity/3V0*%
X180100000Y-92200000D03*
X171400000Y-76100000D03*
X186800000Y-96900000D03*
X122600000Y-106400000D03*
X188400000Y-91300000D03*
X193400000Y-75500000D03*
X131930000Y-75230000D03*
X173800000Y-87300000D03*
X152600000Y-79700000D03*
X193500000Y-81700000D03*
X185400000Y-92200000D03*
X172200000Y-81200000D03*
X173900000Y-107600000D03*
X183600000Y-72200000D03*
X181600000Y-97400000D03*
X185000000Y-134300000D03*
X177000000Y-71900000D03*
X181500000Y-130100000D03*
X187500000Y-135300000D03*
X191500000Y-91100000D03*
X181200000Y-134400000D03*
X145000000Y-130000000D03*
X127030000Y-82630000D03*
X185000000Y-129300000D03*
%TO.N,/Display/SCREEN_SDA*%
X130630000Y-63130000D03*
X173130000Y-74230000D03*
%TO.N,/Display/GDR*%
X126130000Y-74430000D03*
%TO.N,/Display/RESE*%
X124530000Y-76430000D03*
%TO.N,/Connectivity/WIFI_CS*%
X185830000Y-65530000D03*
%TD*%
D29*
%TO.N,/Display/SCREEN_CS*%
X141330000Y-70930000D02*
X134730000Y-64330000D01*
X173130000Y-72330000D02*
X171730000Y-70930000D01*
X171730000Y-70930000D02*
X170030000Y-70930000D01*
X170030000Y-70930000D02*
X141330000Y-70930000D01*
%TO.N,/Display/SCREEN_D_C*%
X134430000Y-64930000D02*
X134030000Y-64930000D01*
X155730000Y-71430000D02*
X140930000Y-71430000D01*
X173130000Y-73230000D02*
X172630000Y-73230000D01*
X140530000Y-71030000D02*
X134430000Y-64930000D01*
X170930000Y-71530000D02*
X155830000Y-71530000D01*
X140930000Y-71430000D02*
X140530000Y-71030000D01*
X134030000Y-64930000D02*
X133430000Y-64930000D01*
X172630000Y-73230000D02*
X170930000Y-71530000D01*
X155830000Y-71530000D02*
X155730000Y-71430000D01*
%TO.N,/Display/SCREEN_RST*%
X139430000Y-65630000D02*
X142830000Y-69030000D01*
X142830000Y-69030000D02*
X173130000Y-69030000D01*
%TO.N,/Display/SCREEN_BUSY*%
X137630000Y-66230000D02*
X141830000Y-70430000D01*
X172430000Y-70430000D02*
X173130000Y-71130000D01*
X141830000Y-70430000D02*
X172430000Y-70430000D01*
%TO.N,/Display/1V8*%
X133630000Y-76230000D02*
X132830000Y-77030000D01*
X138180000Y-94330000D02*
X138180000Y-92730000D01*
X138180000Y-96030000D02*
X138180000Y-94330000D01*
X138180000Y-92730000D02*
X138180000Y-92680000D01*
X134730000Y-76230000D02*
X133630000Y-76230000D01*
%TO.N,/Display/VSH1*%
X125930000Y-81630000D02*
X128330000Y-79230000D01*
X128330000Y-79230000D02*
X134730000Y-79230000D01*
%TO.N,/Display/VSL*%
X132230000Y-84730000D02*
X132130000Y-84730000D01*
X134730000Y-82230000D02*
X132230000Y-84730000D01*
X132230000Y-84730000D02*
X131830000Y-84730000D01*
%TO.N,/Display/VCOM*%
X134730000Y-88230000D02*
X131330000Y-88230000D01*
X131330000Y-88230000D02*
X130330000Y-87230000D01*
%TO.N,/Display/VSH2*%
X132830000Y-70230000D02*
X134730000Y-70230000D01*
X131330000Y-71730000D02*
X132830000Y-70230000D01*
%TO.N,Net-(D2-K)*%
X141030000Y-101380000D02*
X137430000Y-101380000D01*
X137230000Y-104330000D02*
X137230000Y-101580000D01*
X137230000Y-101580000D02*
X137430000Y-101380000D01*
%TO.N,Net-(D1-A)*%
X131030000Y-104930000D02*
X130080000Y-103980000D01*
X130080000Y-103980000D02*
X130080000Y-101430000D01*
X132230000Y-106430000D02*
X131030000Y-105230000D01*
X137230000Y-105730000D02*
X136530000Y-106430000D01*
X136530000Y-106430000D02*
X132230000Y-106430000D01*
X131030000Y-105230000D02*
X131030000Y-104930000D01*
X131030000Y-104930000D02*
X131030000Y-104280000D01*
X131030000Y-104280000D02*
X133930000Y-101380000D01*
%TO.N,/Display/VGH*%
X125930000Y-86930000D02*
X125930000Y-85330000D01*
X133930000Y-95530000D02*
X134030000Y-95430000D01*
X134030000Y-95430000D02*
X125930000Y-87330000D01*
X125930000Y-87330000D02*
X125930000Y-86930000D01*
X133930000Y-97880000D02*
X133930000Y-95530000D01*
%TO.N,/Display/VGL*%
X134730000Y-85230000D02*
X134230000Y-85730000D01*
X139130000Y-96780000D02*
X139130000Y-89630000D01*
X137430000Y-97880000D02*
X138030000Y-97880000D01*
X138030000Y-97880000D02*
X139130000Y-96780000D01*
X134230000Y-85730000D02*
X131830000Y-85730000D01*
X139130000Y-89630000D02*
X134730000Y-85230000D01*
%TO.N,/Display/SCREEN_SCL*%
X173130000Y-70030000D02*
X142980056Y-70030000D01*
X136680056Y-63730000D02*
X135430000Y-63730000D01*
X142980056Y-70030000D02*
X136680056Y-63730000D01*
%TO.N,/Processor/BOOT0*%
X182430000Y-85030000D02*
X175830000Y-91630000D01*
X182430000Y-70230000D02*
X182430000Y-85030000D01*
X175830000Y-91630000D02*
X175830000Y-95730000D01*
X166130000Y-117030000D02*
X164930000Y-117030000D01*
X179830000Y-69930000D02*
X180430000Y-69330000D01*
X170830000Y-100730000D02*
X170830000Y-112330000D01*
X175830000Y-95730000D02*
X170830000Y-100730000D01*
X170830000Y-112330000D02*
X166130000Y-117030000D01*
X180430000Y-69330000D02*
X181530000Y-69330000D01*
X181530000Y-69330000D02*
X182430000Y-70230000D01*
X179830000Y-70130000D02*
X179830000Y-69930000D01*
%TO.N,/Connectivity/GND*%
X137200000Y-82300000D02*
X136200000Y-82300000D01*
X185787600Y-134362343D02*
X185248943Y-134901000D01*
X136160000Y-79200000D02*
X136130000Y-79230000D01*
X137230000Y-85230000D02*
X137300000Y-85300000D01*
X183800000Y-134300000D02*
X183800000Y-133587400D01*
X136730000Y-93170000D02*
X136800000Y-93100000D01*
X136100000Y-89400000D02*
X136100000Y-88260000D01*
X136200000Y-73300000D02*
X136130000Y-73230000D01*
X184401000Y-134901000D02*
X183800000Y-134300000D01*
X136200000Y-82300000D02*
X136130000Y-82230000D01*
X183800000Y-134300000D02*
X183800000Y-133600000D01*
X186430800Y-136500000D02*
X186587600Y-136656800D01*
X141050000Y-97900000D02*
X141030000Y-97880000D01*
X136200000Y-71500000D02*
X136200000Y-70300000D01*
X136100000Y-88260000D02*
X136130000Y-88230000D01*
X137700000Y-135700000D02*
X137760000Y-135700000D01*
X183800000Y-133587400D02*
X184187400Y-133200000D01*
X138500000Y-128800000D02*
X139330000Y-129630000D01*
X142500000Y-97900000D02*
X141050000Y-97900000D01*
X184436800Y-136136800D02*
X184800000Y-136500000D01*
X185248943Y-134901000D02*
X184401000Y-134901000D01*
X137100000Y-73300000D02*
X136200000Y-73300000D01*
X136130000Y-76230000D02*
X136370000Y-76230000D01*
X132700000Y-96500000D02*
X132700000Y-95500000D01*
X136200000Y-70300000D02*
X136130000Y-70230000D01*
X137100000Y-79200000D02*
X136160000Y-79200000D01*
X183800000Y-133600000D02*
X183400000Y-133200000D01*
X137760000Y-135700000D02*
X138430000Y-135030000D01*
X173230000Y-132130000D02*
X171100000Y-130000000D01*
X136130000Y-85230000D02*
X137230000Y-85230000D01*
X171100000Y-130000000D02*
X170000000Y-130000000D01*
X184800000Y-136500000D02*
X186430800Y-136500000D01*
X132700000Y-95500000D02*
X132630000Y-95430000D01*
X185787600Y-133200000D02*
X185787600Y-134362343D01*
X136730000Y-94330000D02*
X136730000Y-93170000D01*
X182587600Y-136136800D02*
X184436800Y-136136800D01*
X136370000Y-76230000D02*
X136900000Y-75700000D01*
%TO.N,/Controls/ADXL_SDO*%
X194949943Y-85000000D02*
X189900000Y-85000000D01*
X185787600Y-130456800D02*
X185787600Y-128712400D01*
X196201000Y-86251057D02*
X194949943Y-85000000D01*
X189900000Y-85000000D02*
X189500000Y-85400000D01*
X186300000Y-128200000D02*
X194500000Y-128200000D01*
X194500000Y-128200000D02*
X196201000Y-126499000D01*
X185787600Y-128712400D02*
X186300000Y-128200000D01*
X189500000Y-85400000D02*
X189500000Y-86000000D01*
X196201000Y-126499000D02*
X196201000Y-86251057D01*
%TO.N,/Controls/ADXL_CS*%
X193950000Y-95150000D02*
X194700000Y-95900000D01*
X181087600Y-132456800D02*
X180760600Y-132456800D01*
X182085800Y-132456800D02*
X182714200Y-131828400D01*
X194800000Y-115800000D02*
X194700000Y-115700000D01*
X194800000Y-125800000D02*
X194800000Y-115800000D01*
X179800000Y-130700000D02*
X183400000Y-127100000D01*
X194700000Y-95900000D02*
X194700000Y-115700000D01*
X183400000Y-127100000D02*
X193500000Y-127100000D01*
X193500000Y-127100000D02*
X194800000Y-125800000D01*
X180760600Y-132456800D02*
X179800000Y-131496200D01*
X194700000Y-115700000D02*
X194700000Y-115800000D01*
X179800000Y-131496200D02*
X179800000Y-130700000D01*
X181087600Y-132456800D02*
X182085800Y-132456800D01*
%TO.N,/Controls/ADXL_INT2*%
X194200000Y-127800000D02*
X195600000Y-126400000D01*
X183400000Y-129800000D02*
X185400000Y-127800000D01*
X183400000Y-130456800D02*
X183400000Y-129800000D01*
X185400000Y-127800000D02*
X194200000Y-127800000D01*
X195600000Y-126400000D02*
X195600000Y-86500000D01*
%TO.N,/Controls/ADXL_SDI*%
X192800000Y-95463862D02*
X193973000Y-96636862D01*
X181664138Y-138728000D02*
X187135862Y-138728000D01*
X192800000Y-94400000D02*
X192800000Y-95463862D01*
X193973000Y-114177000D02*
X178872000Y-129278000D01*
X189500000Y-136363862D02*
X189500000Y-133356400D01*
X178872000Y-129278000D02*
X178872000Y-135935862D01*
X194000000Y-93200000D02*
X192800000Y-94400000D01*
X194000000Y-93050000D02*
X194000000Y-93200000D01*
X178872000Y-135935862D02*
X181664138Y-138728000D01*
X189500000Y-133356400D02*
X186600400Y-130456800D01*
X193973000Y-96636862D02*
X193973000Y-114177000D01*
X187135862Y-138728000D02*
X189500000Y-136363862D01*
%TO.N,/Controls/ADXL_SCL*%
X194301000Y-114399000D02*
X179200000Y-129500000D01*
X179200000Y-135800000D02*
X181800000Y-138400000D01*
X194099000Y-94101000D02*
X193562862Y-94101000D01*
X193128000Y-94535862D02*
X193128000Y-95328000D01*
X194600000Y-93600000D02*
X194099000Y-94101000D01*
X179200000Y-129500000D02*
X179200000Y-135800000D01*
X188500000Y-136900000D02*
X188500000Y-133600000D01*
X193562862Y-94101000D02*
X193128000Y-94535862D01*
X186728400Y-131828400D02*
X186473400Y-131828400D01*
X181800000Y-138400000D02*
X187000000Y-138400000D01*
X188500000Y-133600000D02*
X186728400Y-131828400D01*
X194301000Y-96501000D02*
X194301000Y-114399000D01*
X194300000Y-88300000D02*
X194600000Y-88600000D01*
X187000000Y-138400000D02*
X188500000Y-136900000D01*
X194600000Y-88600000D02*
X194600000Y-93600000D01*
X193128000Y-95328000D02*
X194301000Y-96501000D01*
%TO.N,/Controls/ADXL_INT1*%
X182587200Y-130456800D02*
X182587200Y-129712800D01*
X194064138Y-127472000D02*
X195272000Y-126264138D01*
X195272000Y-126264138D02*
X195272000Y-117172000D01*
X195200000Y-117100000D02*
X195200000Y-86949943D01*
X184828000Y-127472000D02*
X194064138Y-127472000D01*
X194999000Y-86699000D02*
X194800000Y-86500000D01*
X182587200Y-129712800D02*
X184828000Y-127472000D01*
X195200000Y-86949943D02*
X194999000Y-86748943D01*
X194999000Y-86748943D02*
X194999000Y-86699000D01*
X195272000Y-117172000D02*
X195200000Y-117100000D01*
%TO.N,/Connectivity/3V0*%
X134030000Y-103030000D02*
X135730000Y-101330000D01*
X186630800Y-135300000D02*
X186587600Y-135256800D01*
X131930000Y-74230000D02*
X132930000Y-73230000D01*
X185000000Y-133200200D02*
X185000200Y-133200000D01*
X181087600Y-130512400D02*
X181500000Y-130100000D01*
X145000000Y-130000000D02*
X145000000Y-130960000D01*
X135730000Y-97030000D02*
X135730000Y-95730000D01*
X185000200Y-130456800D02*
X185000200Y-129300200D01*
X135730000Y-97330000D02*
X135730000Y-97030000D01*
X135730000Y-97030000D02*
X136730000Y-96030000D01*
X135730000Y-101330000D02*
X135730000Y-97330000D01*
X185000000Y-134300000D02*
X185000000Y-133200200D01*
X132930000Y-73230000D02*
X134730000Y-73230000D01*
X182564400Y-134400000D02*
X182587600Y-134376800D01*
X182587600Y-134376800D02*
X182587600Y-133200400D01*
X135730000Y-95730000D02*
X133330000Y-93330000D01*
X145000000Y-130960000D02*
X143830000Y-132130000D01*
X186587600Y-133212800D02*
X186600400Y-133200000D01*
X143830000Y-132130000D02*
X140030000Y-132130000D01*
X131930000Y-75230000D02*
X131930000Y-74230000D01*
X139830000Y-131830000D02*
X140730000Y-130930000D01*
X181087600Y-131156800D02*
X181087600Y-130512400D01*
X134030000Y-104930000D02*
X134030000Y-103030000D01*
X181200000Y-134400000D02*
X182564400Y-134400000D01*
X140030000Y-132130000D02*
X139830000Y-131930000D01*
X186587600Y-135256800D02*
X186587600Y-133212800D01*
X140730000Y-130930000D02*
X140730000Y-129630000D01*
X182587600Y-133200400D02*
X182587200Y-133200000D01*
X127030000Y-86830000D02*
X127030000Y-82630000D01*
X187500000Y-135300000D02*
X186630800Y-135300000D01*
X133330000Y-93330000D02*
X127030000Y-87030000D01*
X139830000Y-131930000D02*
X139830000Y-131830000D01*
X127030000Y-87030000D02*
X127030000Y-86830000D01*
X185000200Y-129300200D02*
X185000000Y-129300000D01*
%TO.N,/Display/SCREEN_SDA*%
X138730000Y-71230000D02*
X130630000Y-63130000D01*
X170630000Y-72130000D02*
X140630000Y-72130000D01*
X173130000Y-74230000D02*
X172730000Y-74230000D01*
X139730000Y-71230000D02*
X138730000Y-71230000D01*
X172730000Y-74230000D02*
X170630000Y-72130000D01*
X140630000Y-72130000D02*
X139730000Y-71230000D01*
%TO.N,/Display/GDR*%
X130730000Y-99530000D02*
X130730000Y-97730000D01*
X125630000Y-74430000D02*
X125830000Y-74430000D01*
X130330000Y-94530000D02*
X125130000Y-89330000D01*
X130330000Y-96130000D02*
X130330000Y-94530000D01*
X130330000Y-97330000D02*
X130330000Y-96130000D01*
X125130000Y-89330000D02*
X125130000Y-74930000D01*
X130730000Y-97730000D02*
X130330000Y-97330000D01*
X125830000Y-74430000D02*
X126130000Y-74430000D01*
X125130000Y-74930000D02*
X125630000Y-74430000D01*
%TO.N,/Display/RESE*%
X124530000Y-76430000D02*
X124530000Y-89630000D01*
X124530000Y-89630000D02*
X128505000Y-93605000D01*
X128505000Y-96680000D02*
X128505000Y-96130000D01*
X130080000Y-99530000D02*
X130080000Y-98255000D01*
X128505000Y-93605000D02*
X128505000Y-96130000D01*
X130080000Y-98255000D02*
X128505000Y-96680000D01*
%TO.N,Net-(LED1-K)*%
X139930000Y-133530000D02*
X138330000Y-131930000D01*
X139930000Y-135030000D02*
X139930000Y-133530000D01*
%TO.N,Net-(S1-COM_1)*%
X158730000Y-117530000D02*
X158730000Y-116430000D01*
X159630000Y-118330000D02*
X158530000Y-119430000D01*
X159530000Y-118330000D02*
X158730000Y-117530000D01*
X159630000Y-118330000D02*
X159530000Y-118330000D01*
X158730000Y-116430000D02*
X158530000Y-116230000D01*
X164930000Y-118330000D02*
X159630000Y-118330000D01*
%TO.N,/Connectivity/WIFI_CS*%
X161146000Y-64754000D02*
X159870000Y-66030000D01*
X185830000Y-65530000D02*
X185054000Y-64754000D01*
X185054000Y-64754000D02*
X161146000Y-64754000D01*
%TD*%
M02*
