%TF.GenerationSoftware,KiCad,Pcbnew,9.0.6*%
%TF.CreationDate,2025-12-08T21:47:25-05:00*%
%TF.ProjectId,electrical,656c6563-7472-4696-9361-6c2e6b696361,rev?*%
%TF.SameCoordinates,Original*%
%TF.FileFunction,Copper,L1,Top*%
%TF.FilePolarity,Positive*%
%FSLAX46Y46*%
G04 Gerber Fmt 4.6, Leading zero omitted, Abs format (unit mm)*
G04 Created by KiCad (PCBNEW 9.0.6) date 2025-12-08 21:47:25*
%MOMM*%
%LPD*%
G01*
G04 APERTURE LIST*
%TA.AperFunction,SMDPad,CuDef*%
%ADD10R,1.400000X1.200000*%
%TD*%
%TA.AperFunction,ComponentPad*%
%ADD11C,2.200000*%
%TD*%
%TA.AperFunction,SMDPad,CuDef*%
%ADD12R,0.700000X0.700000*%
%TD*%
%TA.AperFunction,SMDPad,CuDef*%
%ADD13R,2.000000X1.500000*%
%TD*%
%TA.AperFunction,SMDPad,CuDef*%
%ADD14R,0.780000X0.990000*%
%TD*%
%TA.AperFunction,SMDPad,CuDef*%
%ADD15R,1.300000X0.300000*%
%TD*%
%TA.AperFunction,SMDPad,CuDef*%
%ADD16R,1.800000X2.000000*%
%TD*%
%TA.AperFunction,SMDPad,CuDef*%
%ADD17R,1.100000X0.950000*%
%TD*%
%TA.AperFunction,SMDPad,CuDef*%
%ADD18R,1.475000X0.200000*%
%TD*%
%TA.AperFunction,SMDPad,CuDef*%
%ADD19R,0.200000X1.475000*%
%TD*%
%TA.AperFunction,SMDPad,CuDef*%
%ADD20R,0.950000X1.100000*%
%TD*%
%TA.AperFunction,SMDPad,CuDef*%
%ADD21R,1.800000X1.000000*%
%TD*%
%TA.AperFunction,SMDPad,CuDef*%
%ADD22R,2.790000X0.740000*%
%TD*%
%TA.AperFunction,SMDPad,CuDef*%
%ADD23R,0.990000X0.780000*%
%TD*%
%TA.AperFunction,SMDPad,CuDef*%
%ADD24R,0.550000X0.600000*%
%TD*%
%TA.AperFunction,ComponentPad*%
%ADD25C,1.300000*%
%TD*%
%TA.AperFunction,ComponentPad*%
%ADD26R,1.950000X1.950000*%
%TD*%
%TA.AperFunction,ComponentPad*%
%ADD27C,1.950000*%
%TD*%
%TA.AperFunction,ViaPad*%
%ADD28C,0.600000*%
%TD*%
%TA.AperFunction,Conductor*%
%ADD29C,0.200000*%
%TD*%
G04 APERTURE END LIST*
D10*
%TO.P,Y3,1,IO*%
%TO.N,/Processor/OSC_IN*%
X164715000Y-83630000D03*
%TO.P,Y3,2,GND*%
%TO.N,/Connectivity/GND*%
X162515000Y-83630000D03*
%TO.P,Y3,3,IO*%
%TO.N,Net-(C33-Pad2)*%
X162515000Y-85330000D03*
%TO.P,Y3,4,GND*%
%TO.N,/Connectivity/GND*%
X164715000Y-85330000D03*
%TD*%
D11*
%TO.P,RV1,1,1*%
%TO.N,/Controls/POT_1*%
X141100000Y-125000000D03*
%TO.P,RV1,2,2*%
%TO.N,/Connectivity/GND*%
X136100000Y-125000000D03*
%TO.P,RV1,3,3*%
%TO.N,/Connectivity/3V0*%
X131100000Y-125000000D03*
%TD*%
D12*
%TO.P,C6,1,1*%
%TO.N,/Connectivity/GND*%
X172330000Y-86330000D03*
%TO.P,C6,2,2*%
%TO.N,/Connectivity/3V0*%
X173730000Y-86330000D03*
%TD*%
%TO.P,C18,1,1*%
%TO.N,/Connectivity/GND*%
X190530000Y-93530000D03*
%TO.P,C18,2,2*%
%TO.N,/Connectivity/3V0*%
X190530000Y-92130000D03*
%TD*%
D13*
%TO.P,S4,A1,NO_1*%
%TO.N,/Processor/NRST*%
X165750000Y-110000000D03*
%TO.P,S4,B1,NO_2*%
X151450000Y-110000000D03*
%TO.P,S4,C1,COM_1*%
%TO.N,/Connectivity/GND*%
X165750000Y-105000000D03*
%TO.P,S4,D1,COM_2*%
X151450000Y-105000000D03*
%TD*%
%TO.P,S3,A1,NO_1*%
%TO.N,/Controls/BUTTON_2*%
X176800000Y-105000000D03*
%TO.P,S3,B1,NO_2*%
X191100000Y-105000000D03*
%TO.P,S3,C1,COM_1*%
%TO.N,/Connectivity/GND*%
X176800000Y-110000000D03*
%TO.P,S3,D1,COM_2*%
X191100000Y-110000000D03*
%TD*%
D12*
%TO.P,C20,1,1*%
%TO.N,/Connectivity/GND*%
X181530000Y-93530000D03*
%TO.P,C20,2,2*%
%TO.N,/Connectivity/3V0*%
X181530000Y-92130000D03*
%TD*%
%TO.P,C11,1,1*%
%TO.N,/Connectivity/GND*%
X178530000Y-93530000D03*
%TO.P,C11,2,2*%
%TO.N,/Connectivity/3V0*%
X178530000Y-92130000D03*
%TD*%
%TO.P,C17,1,1*%
%TO.N,/Connectivity/GND*%
X195730000Y-82430000D03*
%TO.P,C17,2,2*%
%TO.N,/Connectivity/3V0*%
X194330000Y-82430000D03*
%TD*%
%TO.P,C15,1,1*%
%TO.N,/Connectivity/GND*%
X177830000Y-70230000D03*
%TO.P,C15,2,2*%
%TO.N,/Connectivity/3V0*%
X177830000Y-71630000D03*
%TD*%
D14*
%TO.P,C32,1,1*%
%TO.N,/Connectivity/GND*%
X168015000Y-82830000D03*
%TO.P,C32,2,2*%
%TO.N,/Processor/OSC_IN*%
X169415000Y-82830000D03*
%TD*%
D11*
%TO.P,RV2,1,1*%
%TO.N,/Controls/POT_2*%
X186100000Y-125000000D03*
%TO.P,RV2,2,2*%
%TO.N,/Connectivity/GND*%
X181100000Y-125000000D03*
%TO.P,RV2,3,3*%
%TO.N,/Connectivity/3V0*%
X176100000Y-125000000D03*
%TD*%
D12*
%TO.P,C14,1,1*%
%TO.N,/Connectivity/GND*%
X184630000Y-70130000D03*
%TO.P,C14,2,2*%
%TO.N,/Connectivity/3V0*%
X184630000Y-71530000D03*
%TD*%
D15*
%TO.P,J2,1,1*%
%TO.N,unconnected-(J2-Pad1)*%
X130175000Y-74250000D03*
%TO.P,J2,2,2*%
%TO.N,/Display/GDR*%
X130175000Y-74750000D03*
%TO.P,J2,3,3*%
%TO.N,/Display/RESE*%
X130175000Y-75250000D03*
%TO.P,J2,4,4*%
%TO.N,unconnected-(J2-Pad4)*%
X130175000Y-75750000D03*
%TO.P,J2,5,5*%
%TO.N,/Display/VSH2*%
X130175000Y-76250000D03*
%TO.P,J2,6,6*%
%TO.N,/Connectivity/GND*%
X130175000Y-76750000D03*
%TO.P,J2,7,7*%
X130175000Y-77250000D03*
%TO.P,J2,8,8*%
X130175000Y-77750000D03*
%TO.P,J2,9,9*%
%TO.N,/Display/SCREEN_BUSY*%
X130175000Y-78250000D03*
%TO.P,J2,10,10*%
%TO.N,/Display/SCREEN_RST*%
X130175000Y-78750000D03*
%TO.P,J2,11,11*%
%TO.N,/Display/SCREEN_D_C*%
X130175000Y-79250000D03*
%TO.P,J2,12,12*%
%TO.N,/Display/SCREEN_CS*%
X130175000Y-79750000D03*
%TO.P,J2,13,13*%
%TO.N,/Display/SCREEN_SCL*%
X130175000Y-80250000D03*
%TO.P,J2,14,14*%
%TO.N,/Display/SCREEN_SDA*%
X130175000Y-80750000D03*
%TO.P,J2,15,15*%
%TO.N,/Connectivity/3V0*%
X130175000Y-81250000D03*
%TO.P,J2,16,16*%
X130175000Y-81750000D03*
%TO.P,J2,17,17*%
%TO.N,/Connectivity/GND*%
X130175000Y-82250000D03*
%TO.P,J2,18,18*%
%TO.N,/Display/1V8*%
X130175000Y-82750000D03*
%TO.P,J2,19,19*%
%TO.N,unconnected-(J2-Pad19)*%
X130175000Y-83250000D03*
%TO.P,J2,20,20*%
%TO.N,/Display/VSH1*%
X130175000Y-83750000D03*
%TO.P,J2,21,21*%
%TO.N,/Display/VGH*%
X130175000Y-84250000D03*
%TO.P,J2,22,22*%
%TO.N,/Display/VSL*%
X130175000Y-84750000D03*
%TO.P,J2,23,23*%
%TO.N,/Display/VGL*%
X130175000Y-85250000D03*
%TO.P,J2,24,24*%
%TO.N,/Display/VCOM*%
X130175000Y-85750000D03*
D16*
%TO.P,J2,MP1,MP1*%
%TO.N,unconnected-(J2-PadMP1)*%
X127425000Y-72450000D03*
%TO.P,J2,MP2,MP2*%
%TO.N,unconnected-(J2-PadMP2)*%
X127425000Y-87550000D03*
%TD*%
D12*
%TO.P,C13,1,1*%
%TO.N,/Connectivity/GND*%
X187530000Y-93530000D03*
%TO.P,C13,2,2*%
%TO.N,/Connectivity/3V0*%
X187530000Y-92130000D03*
%TD*%
D17*
%TO.P,R10,1,1*%
%TO.N,Net-(C33-Pad2)*%
X168065000Y-84830000D03*
%TO.P,R10,2,2*%
%TO.N,/Processor/OSC_OUT*%
X169365000Y-84830000D03*
%TD*%
D13*
%TO.P,S2,A1,NO_1*%
%TO.N,/Controls/BUTTON_1*%
X126800000Y-105000000D03*
%TO.P,S2,B1,NO_2*%
X141100000Y-105000000D03*
%TO.P,S2,C1,COM_1*%
%TO.N,/Connectivity/GND*%
X126800000Y-110000000D03*
%TO.P,S2,D1,COM_2*%
X141100000Y-110000000D03*
%TD*%
D18*
%TO.P,IC1,1,PE2*%
%TO.N,/Display/SCREEN_SCL*%
X176292000Y-75630000D03*
%TO.P,IC1,2,PE3*%
%TO.N,/Display/SCREEN_BUSY*%
X176292000Y-76030000D03*
%TO.P,IC1,3,PE4*%
%TO.N,/Display/SCREEN_CS*%
X176292000Y-76430000D03*
%TO.P,IC1,4,PE5*%
%TO.N,/Display/SCREEN_D_C*%
X176292000Y-76830000D03*
%TO.P,IC1,5,PE6*%
%TO.N,/Display/SCREEN_SDA*%
X176292000Y-77230000D03*
%TO.P,IC1,6,VBAT*%
%TO.N,/Connectivity/3V0*%
X176292000Y-77630000D03*
%TO.P,IC1,7,PC13*%
%TO.N,/Display/SCREEN_RST*%
X176292000Y-78030000D03*
%TO.P,IC1,8,PC14-OSC32_IN*%
%TO.N,/Processor/OSC32_IN*%
X176292000Y-78430000D03*
%TO.P,IC1,9,PC15-OSC32_OUT*%
%TO.N,/Processor/OSC32_OUT*%
X176292000Y-78830000D03*
%TO.P,IC1,10,PF3*%
%TO.N,unconnected-(IC1-PF3-Pad10)*%
X176292000Y-79230000D03*
%TO.P,IC1,11,PF4*%
%TO.N,unconnected-(IC1-PF4-Pad11)*%
X176292000Y-79630000D03*
%TO.P,IC1,12,VSS_1*%
%TO.N,/Connectivity/GND*%
X176292000Y-80030000D03*
%TO.P,IC1,13,VDD_1*%
%TO.N,/Connectivity/3V0*%
X176292000Y-80430000D03*
%TO.P,IC1,14,PF5*%
%TO.N,unconnected-(IC1-PF5-Pad14)*%
X176292000Y-80830000D03*
%TO.P,IC1,15,PF7*%
%TO.N,unconnected-(IC1-PF7-Pad15)*%
X176292000Y-81230000D03*
%TO.P,IC1,16,PF8*%
%TO.N,unconnected-(IC1-PF8-Pad16)*%
X176292000Y-81630000D03*
%TO.P,IC1,17,PF9*%
%TO.N,unconnected-(IC1-PF9-Pad17)*%
X176292000Y-82030000D03*
%TO.P,IC1,18,PF10*%
%TO.N,unconnected-(IC1-PF10-Pad18)*%
X176292000Y-82430000D03*
%TO.P,IC1,19,PF0-OSC_IN*%
%TO.N,/Processor/OSC_IN*%
X176292000Y-82830000D03*
%TO.P,IC1,20,PF1-OSC_OUT*%
%TO.N,/Processor/OSC_OUT*%
X176292000Y-83230000D03*
%TO.P,IC1,21,PG10-NRST*%
%TO.N,/Processor/NRST*%
X176292000Y-83630000D03*
%TO.P,IC1,22,PC0*%
%TO.N,unconnected-(IC1-PC0-Pad22)*%
X176292000Y-84030000D03*
%TO.P,IC1,23,PC1*%
%TO.N,unconnected-(IC1-PC1-Pad23)*%
X176292000Y-84430000D03*
%TO.P,IC1,24,PC2*%
%TO.N,unconnected-(IC1-PC2-Pad24)*%
X176292000Y-84830000D03*
%TO.P,IC1,25,PC3*%
%TO.N,unconnected-(IC1-PC3-Pad25)*%
X176292000Y-85230000D03*
%TO.P,IC1,26,PF2*%
%TO.N,unconnected-(IC1-PF2-Pad26)*%
X176292000Y-85630000D03*
%TO.P,IC1,27,PA0*%
%TO.N,unconnected-(IC1-PA0-Pad27)*%
X176292000Y-86030000D03*
%TO.P,IC1,28,PA1*%
%TO.N,unconnected-(IC1-PA1-Pad28)*%
X176292000Y-86430000D03*
%TO.P,IC1,29,PA2*%
%TO.N,/Processor/LPUART1_TX*%
X176292000Y-86830000D03*
%TO.P,IC1,30,VSS_2*%
%TO.N,/Connectivity/GND*%
X176292000Y-87230000D03*
%TO.P,IC1,31,VDD_2*%
%TO.N,/Connectivity/3V0*%
X176292000Y-87630000D03*
%TO.P,IC1,32,PA3*%
%TO.N,/Processor/LPUART1_RX*%
X176292000Y-88030000D03*
D19*
%TO.P,IC1,33,PA4*%
%TO.N,unconnected-(IC1-PA4-Pad33)*%
X177830000Y-89568000D03*
%TO.P,IC1,34,PA5*%
%TO.N,unconnected-(IC1-PA5-Pad34)*%
X178230000Y-89568000D03*
%TO.P,IC1,35,PA6*%
%TO.N,unconnected-(IC1-PA6-Pad35)*%
X178630000Y-89568000D03*
%TO.P,IC1,36,PA7*%
%TO.N,unconnected-(IC1-PA7-Pad36)*%
X179030000Y-89568000D03*
%TO.P,IC1,37,PC4*%
%TO.N,unconnected-(IC1-PC4-Pad37)*%
X179430000Y-89568000D03*
%TO.P,IC1,38,PC5*%
%TO.N,unconnected-(IC1-PC5-Pad38)*%
X179830000Y-89568000D03*
%TO.P,IC1,39,PB0*%
%TO.N,unconnected-(IC1-PB0-Pad39)*%
X180230000Y-89568000D03*
%TO.P,IC1,40,PB1*%
%TO.N,unconnected-(IC1-PB1-Pad40)*%
X180630000Y-89568000D03*
%TO.P,IC1,41,PB2*%
%TO.N,unconnected-(IC1-PB2-Pad41)*%
X181030000Y-89568000D03*
%TO.P,IC1,42,VSSA*%
%TO.N,/Connectivity/GND*%
X181430000Y-89568000D03*
%TO.P,IC1,43,VREF+_1*%
%TO.N,/Connectivity/3V0*%
X181830000Y-89568000D03*
%TO.P,IC1,44,VREF+_2*%
X182230000Y-89568000D03*
%TO.P,IC1,45,VDDA*%
X182630000Y-89568000D03*
%TO.P,IC1,46,VSS_3*%
%TO.N,/Connectivity/GND*%
X183030000Y-89568000D03*
%TO.P,IC1,47,VDD_3*%
%TO.N,/Connectivity/3V0*%
X183430000Y-89568000D03*
%TO.P,IC1,48,PF11*%
%TO.N,unconnected-(IC1-PF11-Pad48)*%
X183830000Y-89568000D03*
%TO.P,IC1,49,PF12*%
%TO.N,unconnected-(IC1-PF12-Pad49)*%
X184230000Y-89568000D03*
%TO.P,IC1,50,PF13*%
%TO.N,unconnected-(IC1-PF13-Pad50)*%
X184630000Y-89568000D03*
%TO.P,IC1,51,PF14*%
%TO.N,unconnected-(IC1-PF14-Pad51)*%
X185030000Y-89568000D03*
%TO.P,IC1,52,PF15*%
%TO.N,unconnected-(IC1-PF15-Pad52)*%
X185430000Y-89568000D03*
%TO.P,IC1,53,PE7*%
%TO.N,unconnected-(IC1-PE7-Pad53)*%
X185830000Y-89568000D03*
%TO.P,IC1,54,PE8*%
%TO.N,unconnected-(IC1-PE8-Pad54)*%
X186230000Y-89568000D03*
%TO.P,IC1,55,PE9*%
%TO.N,unconnected-(IC1-PE9-Pad55)*%
X186630000Y-89568000D03*
%TO.P,IC1,56,PE10*%
%TO.N,unconnected-(IC1-PE10-Pad56)*%
X187030000Y-89568000D03*
%TO.P,IC1,57,PE11*%
%TO.N,unconnected-(IC1-PE11-Pad57)*%
X187430000Y-89568000D03*
%TO.P,IC1,58,PE12*%
%TO.N,unconnected-(IC1-PE12-Pad58)*%
X187830000Y-89568000D03*
%TO.P,IC1,59,PE13*%
%TO.N,unconnected-(IC1-PE13-Pad59)*%
X188230000Y-89568000D03*
%TO.P,IC1,60,PE14*%
%TO.N,unconnected-(IC1-PE14-Pad60)*%
X188630000Y-89568000D03*
%TO.P,IC1,61,PE15*%
%TO.N,unconnected-(IC1-PE15-Pad61)*%
X189030000Y-89568000D03*
%TO.P,IC1,62,PB10*%
%TO.N,unconnected-(IC1-PB10-Pad62)*%
X189430000Y-89568000D03*
%TO.P,IC1,63,VSS_4*%
%TO.N,/Connectivity/GND*%
X189830000Y-89568000D03*
%TO.P,IC1,64,VDD_4*%
%TO.N,/Connectivity/3V0*%
X190230000Y-89568000D03*
D18*
%TO.P,IC1,65,PB11*%
%TO.N,unconnected-(IC1-PB11-Pad65)*%
X191768000Y-88030000D03*
%TO.P,IC1,66,PB12*%
%TO.N,/Controls/ADXL_CS*%
X191768000Y-87630000D03*
%TO.P,IC1,67,PB13*%
%TO.N,/Controls/ADXL_SCL*%
X191768000Y-87230000D03*
%TO.P,IC1,68,PB14*%
%TO.N,/Controls/ADXL_SDO*%
X191768000Y-86830000D03*
%TO.P,IC1,69,PB15*%
%TO.N,/Controls/ADXL_SDI*%
X191768000Y-86430000D03*
%TO.P,IC1,70,PD8*%
%TO.N,/Controls/ADXL_INT1*%
X191768000Y-86030000D03*
%TO.P,IC1,71,PD9*%
%TO.N,/Controls/ADXL_INT2*%
X191768000Y-85630000D03*
%TO.P,IC1,72,PD10*%
%TO.N,/Controls/BUTTON_1*%
X191768000Y-85230000D03*
%TO.P,IC1,73,PD11*%
%TO.N,/Controls/BUTTON_2*%
X191768000Y-84830000D03*
%TO.P,IC1,74,PD12*%
%TO.N,/Controls/POT_1*%
X191768000Y-84430000D03*
%TO.P,IC1,75,PD13*%
%TO.N,/Controls/POT_2*%
X191768000Y-84030000D03*
%TO.P,IC1,76,PD14*%
%TO.N,unconnected-(IC1-PD14-Pad76)*%
X191768000Y-83630000D03*
%TO.P,IC1,77,PD15*%
%TO.N,unconnected-(IC1-PD15-Pad77)*%
X191768000Y-83230000D03*
%TO.P,IC1,78,VSS_5*%
%TO.N,/Connectivity/GND*%
X191768000Y-82830000D03*
%TO.P,IC1,79,VDD_5*%
%TO.N,/Connectivity/3V0*%
X191768000Y-82430000D03*
%TO.P,IC1,80,PC6*%
%TO.N,unconnected-(IC1-PC6-Pad80)*%
X191768000Y-82030000D03*
%TO.P,IC1,81,PC7*%
%TO.N,unconnected-(IC1-PC7-Pad81)*%
X191768000Y-81630000D03*
%TO.P,IC1,82,PG0*%
%TO.N,unconnected-(IC1-PG0-Pad82)*%
X191768000Y-81230000D03*
%TO.P,IC1,83,PG1*%
%TO.N,unconnected-(IC1-PG1-Pad83)*%
X191768000Y-80830000D03*
%TO.P,IC1,84,PG2*%
%TO.N,unconnected-(IC1-PG2-Pad84)*%
X191768000Y-80430000D03*
%TO.P,IC1,85,PG3*%
%TO.N,unconnected-(IC1-PG3-Pad85)*%
X191768000Y-80030000D03*
%TO.P,IC1,86,PG4*%
%TO.N,unconnected-(IC1-PG4-Pad86)*%
X191768000Y-79630000D03*
%TO.P,IC1,87,PC8*%
%TO.N,unconnected-(IC1-PC8-Pad87)*%
X191768000Y-79230000D03*
%TO.P,IC1,88,PC9*%
%TO.N,unconnected-(IC1-PC9-Pad88)*%
X191768000Y-78830000D03*
%TO.P,IC1,89,PA8*%
%TO.N,unconnected-(IC1-PA8-Pad89)*%
X191768000Y-78430000D03*
%TO.P,IC1,90,PA9*%
%TO.N,unconnected-(IC1-PA9-Pad90)*%
X191768000Y-78030000D03*
%TO.P,IC1,91,PA10*%
%TO.N,unconnected-(IC1-PA10-Pad91)*%
X191768000Y-77630000D03*
%TO.P,IC1,92,PA11*%
%TO.N,unconnected-(IC1-PA11-Pad92)*%
X191768000Y-77230000D03*
%TO.P,IC1,93,PA12*%
%TO.N,unconnected-(IC1-PA12-Pad93)*%
X191768000Y-76830000D03*
%TO.P,IC1,94,VSS_6*%
%TO.N,/Connectivity/GND*%
X191768000Y-76430000D03*
%TO.P,IC1,95,VDD_6*%
%TO.N,/Connectivity/3V0*%
X191768000Y-76030000D03*
%TO.P,IC1,96,PA13*%
%TO.N,/Processor/SWDIO*%
X191768000Y-75630000D03*
D19*
%TO.P,IC1,97,PF6*%
%TO.N,unconnected-(IC1-PF6-Pad97)*%
X190230000Y-74092000D03*
%TO.P,IC1,98,PA14*%
%TO.N,/Processor/SWCLK*%
X189830000Y-74092000D03*
%TO.P,IC1,99,PA15*%
%TO.N,/Connectivity/WIFI_CS*%
X189430000Y-74092000D03*
%TO.P,IC1,100,PC10*%
%TO.N,/Connectivity/WIFI_SCK*%
X189030000Y-74092000D03*
%TO.P,IC1,101,PC11*%
%TO.N,/Connectivity/WIFI_MISO*%
X188630000Y-74092000D03*
%TO.P,IC1,102,PC12*%
%TO.N,/Connectivity/WIFI_MOSI*%
X188230000Y-74092000D03*
%TO.P,IC1,103,PG5*%
%TO.N,/Connectivity/WIFI_BUSY*%
X187830000Y-74092000D03*
%TO.P,IC1,104,PG6*%
%TO.N,/Connectivity/WIFI_RESET*%
X187430000Y-74092000D03*
%TO.P,IC1,105,PG7*%
%TO.N,unconnected-(IC1-PG7-Pad105)*%
X187030000Y-74092000D03*
%TO.P,IC1,106,PG8*%
%TO.N,unconnected-(IC1-PG8-Pad106)*%
X186630000Y-74092000D03*
%TO.P,IC1,107,PG9*%
%TO.N,unconnected-(IC1-PG9-Pad107)*%
X186230000Y-74092000D03*
%TO.P,IC1,108,PD0*%
%TO.N,unconnected-(IC1-PD0-Pad108)*%
X185830000Y-74092000D03*
%TO.P,IC1,109,PD1*%
%TO.N,unconnected-(IC1-PD1-Pad109)*%
X185430000Y-74092000D03*
%TO.P,IC1,110,VSS_7*%
%TO.N,/Connectivity/GND*%
X185030000Y-74092000D03*
%TO.P,IC1,111,VDD_7*%
%TO.N,/Connectivity/3V0*%
X184630000Y-74092000D03*
%TO.P,IC1,112,PD2*%
%TO.N,unconnected-(IC1-PD2-Pad112)*%
X184230000Y-74092000D03*
%TO.P,IC1,113,PD3*%
%TO.N,unconnected-(IC1-PD3-Pad113)*%
X183830000Y-74092000D03*
%TO.P,IC1,114,PD4*%
%TO.N,unconnected-(IC1-PD4-Pad114)*%
X183430000Y-74092000D03*
%TO.P,IC1,115,PD5*%
%TO.N,unconnected-(IC1-PD5-Pad115)*%
X183030000Y-74092000D03*
%TO.P,IC1,116,PD6*%
%TO.N,unconnected-(IC1-PD6-Pad116)*%
X182630000Y-74092000D03*
%TO.P,IC1,117,PD7*%
%TO.N,unconnected-(IC1-PD7-Pad117)*%
X182230000Y-74092000D03*
%TO.P,IC1,118,PB3*%
%TO.N,/Processor/SWO*%
X181830000Y-74092000D03*
%TO.P,IC1,119,PB4*%
%TO.N,unconnected-(IC1-PB4-Pad119)*%
X181430000Y-74092000D03*
%TO.P,IC1,120,PB5*%
%TO.N,unconnected-(IC1-PB5-Pad120)*%
X181030000Y-74092000D03*
%TO.P,IC1,121,PB6*%
%TO.N,unconnected-(IC1-PB6-Pad121)*%
X180630000Y-74092000D03*
%TO.P,IC1,122,PB7*%
%TO.N,unconnected-(IC1-PB7-Pad122)*%
X180230000Y-74092000D03*
%TO.P,IC1,123,PB8-BOOT0*%
%TO.N,/Processor/BOOT0*%
X179830000Y-74092000D03*
%TO.P,IC1,124,PB9*%
%TO.N,unconnected-(IC1-PB9-Pad124)*%
X179430000Y-74092000D03*
%TO.P,IC1,125,PE0*%
%TO.N,unconnected-(IC1-PE0-Pad125)*%
X179030000Y-74092000D03*
%TO.P,IC1,126,PE1*%
%TO.N,unconnected-(IC1-PE1-Pad126)*%
X178630000Y-74092000D03*
%TO.P,IC1,127,VSS_8*%
%TO.N,/Connectivity/GND*%
X178230000Y-74092000D03*
%TO.P,IC1,128,VDD_8*%
%TO.N,/Connectivity/3V0*%
X177830000Y-74092000D03*
%TD*%
D12*
%TO.P,C5,1,1*%
%TO.N,/Processor/NRST*%
X163676250Y-88607000D03*
%TO.P,C5,2,2*%
%TO.N,/Connectivity/GND*%
X165076250Y-88607000D03*
%TD*%
%TO.P,C2,1,1*%
%TO.N,/Connectivity/GND*%
X170030000Y-80230000D03*
%TO.P,C2,2,2*%
%TO.N,/Connectivity/3V0*%
X171430000Y-80230000D03*
%TD*%
D20*
%TO.P,R5,1,1*%
%TO.N,/Connectivity/3V0*%
X123800000Y-106300000D03*
%TO.P,R5,2,2*%
%TO.N,/Controls/BUTTON_1*%
X123800000Y-105000000D03*
%TD*%
D12*
%TO.P,C16,1,1*%
%TO.N,/Connectivity/GND*%
X179430000Y-96530000D03*
%TO.P,C16,2,2*%
%TO.N,/Connectivity/3V0*%
X180830000Y-96530000D03*
%TD*%
%TO.P,C12,1,1*%
%TO.N,/Connectivity/GND*%
X184530000Y-93530000D03*
%TO.P,C12,2,2*%
%TO.N,/Connectivity/3V0*%
X184530000Y-92130000D03*
%TD*%
D14*
%TO.P,C4,1,1*%
%TO.N,/Connectivity/3V0*%
X186830000Y-95730000D03*
%TO.P,C4,2,2*%
%TO.N,/Connectivity/GND*%
X188230000Y-95730000D03*
%TD*%
D21*
%TO.P,Y1,1,1*%
%TO.N,/Processor/OSC32_OUT*%
X166530000Y-79930000D03*
%TO.P,Y1,2,2*%
%TO.N,/Processor/OSC32_IN*%
X166530000Y-77430000D03*
%TD*%
D22*
%TO.P,J1,01,01*%
%TO.N,unconnected-(J1-Pad01)*%
X155030000Y-78520000D03*
%TO.P,J1,02,02*%
%TO.N,unconnected-(J1-Pad02)*%
X159100000Y-78520000D03*
%TO.P,J1,03,03*%
%TO.N,/Connectivity/3V0*%
X155030000Y-79790000D03*
%TO.P,J1,04,04*%
%TO.N,/Processor/SWDIO*%
X159100000Y-79790000D03*
%TO.P,J1,05,05*%
%TO.N,/Connectivity/GND*%
X155030000Y-81060000D03*
%TO.P,J1,06,06*%
%TO.N,/Processor/SWCLK*%
X159100000Y-81060000D03*
%TO.P,J1,07,07*%
%TO.N,/Connectivity/GND*%
X155030000Y-82330000D03*
%TO.P,J1,08,08*%
%TO.N,/Processor/SWO*%
X159100000Y-82330000D03*
%TO.P,J1,09,09*%
%TO.N,unconnected-(J1-Pad09)*%
X155030000Y-83600000D03*
%TO.P,J1,10,10*%
%TO.N,unconnected-(J1-Pad10)*%
X159100000Y-83600000D03*
%TO.P,J1,11,11*%
%TO.N,/Connectivity/GND*%
X155030000Y-84870000D03*
%TO.P,J1,12,12*%
%TO.N,/Processor/NRST*%
X159100000Y-84870000D03*
%TO.P,J1,13,13*%
%TO.N,/Processor/LPUART1_TX*%
X155030000Y-86140000D03*
%TO.P,J1,14,14*%
%TO.N,/Processor/LPUART1_RX*%
X159100000Y-86140000D03*
%TD*%
D23*
%TO.P,C22,1,1*%
%TO.N,/Connectivity/GND*%
X163830000Y-79330000D03*
%TO.P,C22,2,2*%
%TO.N,/Processor/OSC32_OUT*%
X163830000Y-80730000D03*
%TD*%
D24*
%TO.P,FB1,1,1*%
%TO.N,/Connectivity/3V0*%
X183730000Y-96430000D03*
%TO.P,FB1,2,2*%
X184680000Y-96430000D03*
%TD*%
D20*
%TO.P,R2,1,1*%
%TO.N,/Connectivity/3V0*%
X173900000Y-106300000D03*
%TO.P,R2,2,2*%
%TO.N,/Controls/BUTTON_2*%
X173900000Y-105000000D03*
%TD*%
D12*
%TO.P,C10,1,1*%
%TO.N,/Connectivity/GND*%
X195730000Y-76030000D03*
%TO.P,C10,2,2*%
%TO.N,/Connectivity/3V0*%
X194330000Y-76030000D03*
%TD*%
D23*
%TO.P,C9,1,1*%
%TO.N,/Connectivity/GND*%
X163830000Y-77830000D03*
%TO.P,C9,2,2*%
%TO.N,/Processor/OSC32_IN*%
X163830000Y-76430000D03*
%TD*%
D12*
%TO.P,C21,1,1*%
%TO.N,/Connectivity/GND*%
X170030000Y-77130000D03*
%TO.P,C21,2,2*%
%TO.N,/Connectivity/3V0*%
X171430000Y-77130000D03*
%TD*%
D14*
%TO.P,C33,1,1*%
%TO.N,/Connectivity/GND*%
X168015000Y-86830000D03*
%TO.P,C33,2,2*%
%TO.N,Net-(C33-Pad2)*%
X169415000Y-86830000D03*
%TD*%
D25*
%TO.P,S1,A1,NC_1*%
%TO.N,unconnected-(S1-NC_1-PadA1)*%
X161030000Y-119430000D03*
%TO.P,S1,A2,COM_1*%
%TO.N,Net-(S1-COM_1)*%
X158530000Y-119430000D03*
%TO.P,S1,A3,NO_1*%
%TO.N,/Connectivity/3V0*%
X156030000Y-119430000D03*
%TO.P,S1,B1,NC_2*%
%TO.N,unconnected-(S1-NC_2-PadB1)*%
X161030000Y-116230000D03*
%TO.P,S1,B2,COM_2*%
%TO.N,Net-(S1-COM_1)*%
X158530000Y-116230000D03*
%TO.P,S1,B3,NO_2*%
%TO.N,/Connectivity/GND*%
X156030000Y-116230000D03*
%TD*%
D26*
%TO.P,U1,1,VIN*%
%TO.N,/Connectivity/3V0*%
X144870000Y-66030000D03*
D27*
%TO.P,U1,2,3V0_OUT*%
%TO.N,unconnected-(U1-3V0_OUT-Pad2)*%
X147370000Y-66030000D03*
%TO.P,U1,3,VSS*%
%TO.N,/Connectivity/GND*%
X149870000Y-66030000D03*
%TO.P,U1,4,SCK*%
%TO.N,/Connectivity/WIFI_SCK*%
X152370000Y-66030000D03*
%TO.P,U1,5,MISO*%
%TO.N,/Connectivity/WIFI_MISO*%
X154870000Y-66030000D03*
%TO.P,U1,6,MOSI*%
%TO.N,/Connectivity/WIFI_MOSI*%
X157370000Y-66030000D03*
%TO.P,U1,7,CS*%
%TO.N,/Connectivity/WIFI_CS*%
X159870000Y-66030000D03*
%TO.P,U1,8,BUSY*%
%TO.N,/Connectivity/WIFI_BUSY*%
X162370000Y-66030000D03*
%TO.P,U1,9,RESET*%
%TO.N,/Connectivity/WIFI_RESET*%
X164870000Y-66030000D03*
%TO.P,U1,10,GPIO_0*%
%TO.N,unconnected-(U1-GPIO_0-Pad10)*%
X167370000Y-66030000D03*
%TO.P,U1,11,UART_RX*%
%TO.N,unconnected-(U1-UART_RX-Pad11)*%
X169870000Y-66030000D03*
%TO.P,U1,12,UART_TX*%
%TO.N,unconnected-(U1-UART_TX-Pad12)*%
X172370000Y-66030000D03*
%TD*%
D28*
%TO.N,/Display/SCREEN_CS*%
X173130000Y-72330000D03*
X134730000Y-64330000D03*
%TO.N,/Display/SCREEN_D_C*%
X173130000Y-73230000D03*
X133430000Y-64930000D03*
%TO.N,/Display/SCREEN_RST*%
X173130000Y-69030000D03*
X139430000Y-65630000D03*
%TO.N,/Display/SCREEN_BUSY*%
X137630000Y-66230000D03*
X173130000Y-71130000D03*
%TO.N,/Display/1V8*%
X138180000Y-92730000D03*
X132830000Y-77030000D03*
%TO.N,/Display/VSH1*%
X125930000Y-81630000D03*
%TO.N,/Display/VSL*%
X131830000Y-84730000D03*
%TO.N,/Display/VCOM*%
X130330000Y-87230000D03*
%TO.N,/Display/VSH2*%
X131330000Y-71730000D03*
%TO.N,/Display/VGH*%
X125930000Y-85330000D03*
%TO.N,/Display/VGL*%
X131830000Y-85730000D03*
%TO.N,/Display/SCREEN_SCL*%
X135430000Y-63730000D03*
X173130000Y-70030000D03*
%TO.N,/Processor/BOOT0*%
X179830000Y-70130000D03*
%TO.N,/Connectivity/GND*%
X180000000Y-94200000D03*
X185000000Y-75700000D03*
X131500000Y-77600000D03*
X137100000Y-73300000D03*
X184800000Y-136500000D03*
X176900000Y-111800000D03*
X167600000Y-105000000D03*
X137300000Y-85300000D03*
X142500000Y-97900000D03*
X165300000Y-78700000D03*
X178700000Y-97400000D03*
X166900000Y-82700000D03*
X193500000Y-83200000D03*
X162400000Y-82400000D03*
X169200000Y-81100000D03*
X191500000Y-94300000D03*
X126700000Y-111800000D03*
X177900000Y-80000000D03*
X188700000Y-96800000D03*
X170000000Y-130000000D03*
X170200000Y-76000000D03*
X152600000Y-82400000D03*
X178700000Y-75600000D03*
X167200000Y-86600000D03*
X188400000Y-94300000D03*
X196600000Y-81700000D03*
X136100000Y-89400000D03*
X137700000Y-135700000D03*
X136800000Y-93100000D03*
X137200000Y-82300000D03*
X189500000Y-91100000D03*
X196600000Y-75400000D03*
X172400000Y-87400000D03*
X136900000Y-75700000D03*
X184600000Y-94500000D03*
X181100000Y-90900000D03*
X132700000Y-96500000D03*
X193400000Y-76700000D03*
X166400000Y-88600000D03*
X177100000Y-69500000D03*
X138500000Y-128800000D03*
X141100000Y-112100000D03*
X136200000Y-71500000D03*
X190800000Y-111700000D03*
X166200000Y-85000000D03*
X183600000Y-70100000D03*
X183800000Y-134300000D03*
X149600000Y-105000000D03*
X128600000Y-82500000D03*
X137100000Y-79200000D03*
%TO.N,/Controls/ADXL_SDO*%
X189500000Y-86000000D03*
%TO.N,/Controls/ADXL_CS*%
X193950000Y-95150000D03*
%TO.N,/Controls/ADXL_INT2*%
X195600000Y-86500000D03*
%TO.N,/Controls/ADXL_SDI*%
X194000000Y-93050000D03*
%TO.N,/Controls/ADXL_SCL*%
X194300000Y-88300000D03*
%TO.N,/Controls/ADXL_INT1*%
X194800000Y-86500000D03*
%TO.N,/Connectivity/3V0*%
X180100000Y-92200000D03*
X171400000Y-76100000D03*
X186800000Y-96900000D03*
X122600000Y-106400000D03*
X188400000Y-91300000D03*
X193400000Y-75500000D03*
X131930000Y-75230000D03*
X173800000Y-87300000D03*
X152600000Y-79700000D03*
X193500000Y-81700000D03*
X185400000Y-92200000D03*
X172200000Y-81200000D03*
X173900000Y-107600000D03*
X183600000Y-72200000D03*
X181600000Y-97400000D03*
X185000000Y-134300000D03*
X177000000Y-71900000D03*
X181500000Y-130100000D03*
X187500000Y-135300000D03*
X191500000Y-91100000D03*
X181200000Y-134400000D03*
X145000000Y-130000000D03*
X127030000Y-82630000D03*
X185000000Y-129300000D03*
%TO.N,/Display/SCREEN_SDA*%
X130630000Y-63130000D03*
X173130000Y-74230000D03*
%TO.N,/Display/GDR*%
X126130000Y-74430000D03*
%TO.N,/Display/RESE*%
X124530000Y-76430000D03*
%TO.N,/Connectivity/WIFI_CS*%
X185830000Y-65530000D03*
%TD*%
D29*
%TO.N,/Display/SCREEN_CS*%
X174230000Y-75530000D02*
X175130000Y-76430000D01*
X123550000Y-79750000D02*
X120030000Y-76230000D01*
X173130000Y-72330000D02*
X174230000Y-73430000D01*
X120030000Y-68030000D02*
X123730000Y-64330000D01*
X174230000Y-73430000D02*
X174230000Y-75530000D01*
X175130000Y-76430000D02*
X176292000Y-76430000D01*
X130175000Y-79750000D02*
X123550000Y-79750000D01*
X123730000Y-64330000D02*
X134730000Y-64330000D01*
X120030000Y-76230000D02*
X120030000Y-68030000D01*
%TO.N,/Display/SCREEN_D_C*%
X130175000Y-79250000D02*
X124150000Y-79250000D01*
X123930000Y-64930000D02*
X133430000Y-64930000D01*
X173130000Y-73230000D02*
X173730000Y-73830000D01*
X120830000Y-75930000D02*
X120830000Y-68030000D01*
X174930000Y-76830000D02*
X176292000Y-76830000D01*
X120830000Y-68030000D02*
X123930000Y-64930000D01*
X173730000Y-75630000D02*
X174930000Y-76830000D01*
X124150000Y-79250000D02*
X120830000Y-75930000D01*
X173730000Y-73830000D02*
X173730000Y-75630000D01*
%TO.N,/Processor/NRST*%
X170565000Y-84330000D02*
X170565000Y-87167000D01*
X163676250Y-88607000D02*
X163676250Y-88330000D01*
X162176250Y-86830000D02*
X162113000Y-86830000D01*
X153334000Y-108116000D02*
X153334000Y-97584000D01*
X157130000Y-78330000D02*
X155730000Y-76930000D01*
X159100000Y-84870000D02*
X158003000Y-84870000D01*
X158003000Y-84870000D02*
X157130000Y-83997000D01*
X155730000Y-76930000D02*
X152830000Y-76930000D01*
X170565000Y-87167000D02*
X170106000Y-87626000D01*
X160153000Y-84870000D02*
X159100000Y-84870000D01*
X151450000Y-110000000D02*
X153334000Y-108116000D01*
X166528000Y-86830000D02*
X162176250Y-86830000D01*
X162113000Y-86830000D02*
X160153000Y-84870000D01*
X152830000Y-76930000D02*
X151430000Y-78330000D01*
X167324000Y-87626000D02*
X166528000Y-86830000D01*
X151430000Y-78330000D02*
X151430000Y-95680000D01*
X151430000Y-95680000D02*
X153334000Y-97584000D01*
X153334000Y-97584000D02*
X165750000Y-110000000D01*
X163676250Y-88330000D02*
X162176250Y-86830000D01*
X171265000Y-83630000D02*
X176292000Y-83630000D01*
X157130000Y-83997000D02*
X157130000Y-78330000D01*
X171265000Y-83630000D02*
X170565000Y-84330000D01*
X170106000Y-87626000D02*
X167324000Y-87626000D01*
%TO.N,/Display/SCREEN_RST*%
X177530000Y-78030000D02*
X176292000Y-78030000D01*
X177130000Y-75130000D02*
X178130000Y-76130000D01*
X124130000Y-65630000D02*
X121530000Y-68230000D01*
X177130000Y-73030000D02*
X177130000Y-75130000D01*
X124750000Y-78750000D02*
X130175000Y-78750000D01*
X178130000Y-77430000D02*
X177530000Y-78030000D01*
X173130000Y-69030000D02*
X177130000Y-73030000D01*
X121530000Y-68230000D02*
X121530000Y-75530000D01*
X139430000Y-65630000D02*
X124130000Y-65630000D01*
X178130000Y-76130000D02*
X178130000Y-77430000D01*
X121530000Y-75530000D02*
X124750000Y-78750000D01*
%TO.N,/Display/SCREEN_BUSY*%
X137630000Y-66230000D02*
X124330000Y-66230000D01*
X125099000Y-78299000D02*
X130126000Y-78299000D01*
X174730000Y-72730000D02*
X174730000Y-75330000D01*
X174730000Y-75330000D02*
X175430000Y-76030000D01*
X175430000Y-76030000D02*
X176292000Y-76030000D01*
X173130000Y-71130000D02*
X174730000Y-72730000D01*
X122230000Y-68330000D02*
X122230000Y-75430000D01*
X122230000Y-75430000D02*
X125099000Y-78299000D01*
X130126000Y-78299000D02*
X130175000Y-78250000D01*
X124330000Y-66230000D02*
X122230000Y-68330000D01*
%TO.N,/Processor/OSC32_IN*%
X165530000Y-76430000D02*
X166530000Y-77430000D01*
X167530000Y-78430000D02*
X166530000Y-77430000D01*
X163830000Y-76430000D02*
X165530000Y-76430000D01*
X176292000Y-78430000D02*
X167530000Y-78430000D01*
%TO.N,/Processor/OSC32_OUT*%
X163830000Y-80730000D02*
X165730000Y-80730000D01*
X167630000Y-78830000D02*
X166530000Y-79930000D01*
X165730000Y-80730000D02*
X166530000Y-79930000D01*
X176292000Y-78830000D02*
X167630000Y-78830000D01*
%TO.N,/Display/1V8*%
X132230000Y-81630000D02*
X132230000Y-81730000D01*
X131007000Y-82780000D02*
X131093500Y-82866500D01*
X130105000Y-82780000D02*
X131007000Y-82780000D01*
X132830000Y-81030000D02*
X132230000Y-81630000D01*
X131093500Y-82866500D02*
X138180000Y-89953000D01*
X132830000Y-77030000D02*
X132830000Y-81030000D01*
X132230000Y-81730000D02*
X131093500Y-82866500D01*
X138180000Y-89953000D02*
X138180000Y-92730000D01*
%TO.N,/Display/VSH1*%
X126880000Y-83780000D02*
X125930000Y-82830000D01*
X130105000Y-83780000D02*
X126880000Y-83780000D01*
X125930000Y-82830000D02*
X125930000Y-81630000D01*
%TO.N,/Display/VSL*%
X131830000Y-84730000D02*
X130195000Y-84730000D01*
X130195000Y-84730000D02*
X130175000Y-84750000D01*
%TO.N,/Display/VCOM*%
X130105000Y-87005000D02*
X130330000Y-87230000D01*
X130105000Y-85780000D02*
X130105000Y-87005000D01*
%TO.N,/Display/VSH2*%
X130105000Y-76280000D02*
X131007000Y-76280000D01*
X131007000Y-76280000D02*
X131330000Y-75957000D01*
X131330000Y-75957000D02*
X131330000Y-71730000D01*
%TO.N,/Display/VGH*%
X126980000Y-84280000D02*
X125930000Y-85330000D01*
X130105000Y-84280000D02*
X126980000Y-84280000D01*
%TO.N,/Display/VGL*%
X131830000Y-85730000D02*
X131803000Y-85703000D01*
X131530000Y-85703000D02*
X131077000Y-85250000D01*
X131803000Y-85703000D02*
X131530000Y-85703000D01*
X131077000Y-85250000D02*
X130175000Y-85250000D01*
%TO.N,/Processor/OSC_IN*%
X169415000Y-82830000D02*
X169415000Y-82935000D01*
X176292000Y-82830000D02*
X169415000Y-82830000D01*
X169415000Y-82935000D02*
X168720000Y-83630000D01*
X168720000Y-83630000D02*
X164715000Y-83630000D01*
%TO.N,Net-(C33-Pad2)*%
X163515000Y-86330000D02*
X166565000Y-86330000D01*
X168065000Y-85480000D02*
X169415000Y-86830000D01*
X162515000Y-85330000D02*
X163515000Y-86330000D01*
X166565000Y-86330000D02*
X168065000Y-84830000D01*
X168065000Y-84830000D02*
X168065000Y-85480000D01*
%TO.N,/Display/SCREEN_SCL*%
X123530000Y-63730000D02*
X135430000Y-63730000D01*
X173130000Y-70030000D02*
X176292000Y-73192000D01*
X119430000Y-76630000D02*
X119430000Y-67830000D01*
X119430000Y-67830000D02*
X123530000Y-63730000D01*
X123050000Y-80250000D02*
X119430000Y-76630000D01*
X176292000Y-73192000D02*
X176292000Y-75630000D01*
X130175000Y-80250000D02*
X123050000Y-80250000D01*
%TO.N,/Processor/SWDIO*%
X146830000Y-75430000D02*
X158830000Y-75430000D01*
X191768000Y-75630000D02*
X191768000Y-68868000D01*
X158830000Y-75430000D02*
X161130000Y-77730000D01*
X140930000Y-69530000D02*
X146830000Y-75430000D01*
X161130000Y-79430000D02*
X160770000Y-79790000D01*
X143630000Y-60730000D02*
X140930000Y-63430000D01*
X183630000Y-60730000D02*
X143630000Y-60730000D01*
X160770000Y-79790000D02*
X159100000Y-79790000D01*
X161130000Y-77730000D02*
X161130000Y-79430000D01*
X140930000Y-63430000D02*
X140930000Y-69530000D01*
X191768000Y-68868000D02*
X183630000Y-60730000D01*
%TO.N,/Processor/SWCLK*%
X142530000Y-69130000D02*
X147230000Y-73830000D01*
X144630000Y-61430000D02*
X142530000Y-63530000D01*
X161830000Y-79930000D02*
X160700000Y-81060000D01*
X160700000Y-81060000D02*
X159100000Y-81060000D01*
X159930000Y-73830000D02*
X161830000Y-75730000D01*
X189830000Y-68630000D02*
X182630000Y-61430000D01*
X142530000Y-63530000D02*
X142530000Y-69130000D01*
X189830000Y-74092000D02*
X189830000Y-68630000D01*
X147230000Y-73830000D02*
X159930000Y-73830000D01*
X182630000Y-61430000D02*
X144630000Y-61430000D01*
X161830000Y-75730000D02*
X161830000Y-79930000D01*
%TO.N,/Processor/BOOT0*%
X179830000Y-70130000D02*
X179830000Y-74092000D01*
%TO.N,/Processor/LPUART1_RX*%
X176292000Y-88030000D02*
X174015000Y-90307000D01*
X161076250Y-90307000D02*
X159100000Y-88330750D01*
X174015000Y-90307000D02*
X161076250Y-90307000D01*
X159100000Y-88330750D02*
X159100000Y-86140000D01*
%TO.N,/Processor/OSC_OUT*%
X171165000Y-83230000D02*
X169565000Y-84830000D01*
X169365000Y-84830000D02*
X169365000Y-84303500D01*
X176292000Y-83230000D02*
X171165000Y-83230000D01*
X169565000Y-84830000D02*
X169365000Y-84830000D01*
%TO.N,/Processor/LPUART1_TX*%
X177830000Y-87330000D02*
X177830000Y-87931500D01*
X177830000Y-87931500D02*
X174954500Y-90807000D01*
X174954500Y-90807000D02*
X159697000Y-90807000D01*
X159697000Y-90807000D02*
X155030000Y-86140000D01*
X177330000Y-86830000D02*
X177830000Y-87330000D01*
X176292000Y-86830000D02*
X177330000Y-86830000D01*
%TO.N,/Processor/SWO*%
X160530000Y-82330000D02*
X159100000Y-82330000D01*
X181830000Y-74092000D02*
X181830000Y-70430000D01*
X170030000Y-68330000D02*
X162630000Y-75730000D01*
X162630000Y-75730000D02*
X162630000Y-80230000D01*
X162630000Y-80230000D02*
X160530000Y-82330000D01*
X179730000Y-68330000D02*
X170030000Y-68330000D01*
X181830000Y-70430000D02*
X179730000Y-68330000D01*
%TO.N,/Connectivity/GND*%
X130175000Y-76750000D02*
X130650000Y-76750000D01*
X167200000Y-86600000D02*
X167785000Y-86600000D01*
X170030000Y-77130000D02*
X170030000Y-76170000D01*
X180000000Y-94200000D02*
X180860000Y-94200000D01*
X189830000Y-90770000D02*
X189830000Y-89568000D01*
X176900000Y-110100000D02*
X176800000Y-110000000D01*
X155030000Y-84870000D02*
X153870000Y-84870000D01*
X126700000Y-110100000D02*
X126800000Y-110000000D01*
X195870000Y-82430000D02*
X196600000Y-81700000D01*
X178530000Y-93530000D02*
X179330000Y-93530000D01*
X188700000Y-96800000D02*
X188700000Y-96200000D01*
X181430000Y-90570000D02*
X181430000Y-89568000D01*
X153870000Y-84870000D02*
X152600000Y-83600000D01*
X162515000Y-82515000D02*
X162400000Y-82400000D01*
X190800000Y-110300000D02*
X191100000Y-110000000D01*
X178230000Y-75130000D02*
X178700000Y-75600000D01*
X152600000Y-83600000D02*
X152600000Y-82400000D01*
X165045000Y-85000000D02*
X164715000Y-85330000D01*
X165300000Y-78700000D02*
X164700000Y-78700000D01*
X191300000Y-94300000D02*
X190530000Y-93530000D01*
X167600000Y-105000000D02*
X165750000Y-105000000D01*
X174300000Y-85200000D02*
X173460000Y-85200000D01*
X178230000Y-74092000D02*
X178230000Y-75130000D01*
X193130000Y-76430000D02*
X193400000Y-76700000D01*
X174900000Y-85800000D02*
X174300000Y-85200000D01*
X169200000Y-81060000D02*
X170030000Y-80230000D01*
X162515000Y-83630000D02*
X162515000Y-82515000D01*
X176292000Y-87230000D02*
X175430000Y-87230000D01*
X166900000Y-82700000D02*
X167885000Y-82700000D01*
X149600000Y-105000000D02*
X151450000Y-105000000D01*
X195730000Y-82430000D02*
X195870000Y-82430000D01*
X181100000Y-90900000D02*
X181430000Y-90570000D01*
X152600000Y-82400000D02*
X152670000Y-82330000D01*
X166200000Y-85000000D02*
X165045000Y-85000000D01*
X130650000Y-76750000D02*
X131500000Y-77600000D01*
X174900000Y-86700000D02*
X174900000Y-85800000D01*
X172400000Y-87400000D02*
X172400000Y-86400000D01*
X153940000Y-81060000D02*
X155030000Y-81060000D01*
X180860000Y-94200000D02*
X181530000Y-93530000D01*
X181430000Y-89568000D02*
X181430000Y-88530500D01*
X190800000Y-111700000D02*
X190800000Y-110300000D01*
X188400000Y-94300000D02*
X188300000Y-94300000D01*
X177870000Y-80030000D02*
X177900000Y-80000000D01*
X184530000Y-94430000D02*
X184600000Y-94500000D01*
X188300000Y-94300000D02*
X187530000Y-93530000D01*
X184630000Y-70130000D02*
X183630000Y-70130000D01*
X131350000Y-77750000D02*
X131500000Y-77600000D01*
X130175000Y-77250000D02*
X131150000Y-77250000D01*
X164670000Y-79330000D02*
X165300000Y-78700000D01*
X175430000Y-87230000D02*
X174900000Y-86700000D01*
X189500000Y-91100000D02*
X189830000Y-90770000D01*
X152670000Y-82330000D02*
X155030000Y-82330000D01*
X152600000Y-82400000D02*
X153940000Y-81060000D01*
X183630000Y-70130000D02*
X183600000Y-70100000D01*
X179430000Y-96670000D02*
X178700000Y-97400000D01*
X184530000Y-93530000D02*
X184530000Y-94430000D01*
X164700000Y-78700000D02*
X163830000Y-77830000D01*
X179430000Y-96530000D02*
X179430000Y-96670000D01*
X179330000Y-93530000D02*
X180000000Y-94200000D01*
X195970000Y-76030000D02*
X196600000Y-75400000D01*
X128850000Y-82250000D02*
X130175000Y-82250000D01*
X185030000Y-75670000D02*
X185000000Y-75700000D01*
X176900000Y-111800000D02*
X176900000Y-110100000D01*
X182800000Y-88400000D02*
X181558500Y-88400000D01*
X173460000Y-85200000D02*
X172330000Y-86330000D01*
X131150000Y-77250000D02*
X131500000Y-77600000D01*
X141100000Y-112100000D02*
X141100000Y-110000000D01*
X181558500Y-88400000D02*
X181429000Y-88529500D01*
X181430000Y-88530500D02*
X181429000Y-88529500D01*
X128600000Y-82500000D02*
X128850000Y-82250000D01*
X167885000Y-82700000D02*
X168015000Y-82830000D01*
X166400000Y-88600000D02*
X165083250Y-88600000D01*
X188700000Y-96200000D02*
X188230000Y-95730000D01*
X126700000Y-111800000D02*
X126700000Y-110100000D01*
X193130000Y-82830000D02*
X193500000Y-83200000D01*
X177830000Y-70230000D02*
X177100000Y-69500000D01*
X191768000Y-76430000D02*
X193130000Y-76430000D01*
X176292000Y-80030000D02*
X177870000Y-80030000D01*
X191768000Y-82830000D02*
X193130000Y-82830000D01*
X183030000Y-89568000D02*
X183030000Y-88630000D01*
X195730000Y-76030000D02*
X195970000Y-76030000D01*
X170030000Y-76170000D02*
X170200000Y-76000000D01*
X130175000Y-77750000D02*
X131350000Y-77750000D01*
X191500000Y-94300000D02*
X191300000Y-94300000D01*
X172400000Y-86400000D02*
X172330000Y-86330000D01*
X183030000Y-88630000D02*
X182800000Y-88400000D01*
X169200000Y-81100000D02*
X169200000Y-81060000D01*
X185030000Y-74092000D02*
X185030000Y-75670000D01*
X167785000Y-86600000D02*
X168015000Y-86830000D01*
X165083250Y-88600000D02*
X165076250Y-88607000D01*
X163830000Y-79330000D02*
X164670000Y-79330000D01*
%TO.N,/Controls/ADXL_SDO*%
X191768000Y-86830000D02*
X190330000Y-86830000D01*
X190330000Y-86830000D02*
X189500000Y-86000000D01*
%TO.N,/Controls/ADXL_CS*%
X193950000Y-95150000D02*
X193099000Y-94299000D01*
X192630000Y-87630000D02*
X191768000Y-87630000D01*
X193099000Y-94299000D02*
X193099000Y-91601000D01*
X193600000Y-88600000D02*
X192630000Y-87630000D01*
X193600000Y-91100000D02*
X193600000Y-88600000D01*
X193099000Y-91601000D02*
X193600000Y-91100000D01*
%TO.N,/Controls/ADXL_INT2*%
X195600000Y-86500000D02*
X195600000Y-86100000D01*
X195130000Y-85630000D02*
X191768000Y-85630000D01*
X195600000Y-86100000D02*
X195130000Y-85630000D01*
X195600000Y-86500000D02*
X195500000Y-86400000D01*
%TO.N,/Controls/ADXL_SDI*%
X194900000Y-87600000D02*
X193730000Y-86430000D01*
X194900000Y-92300000D02*
X194900000Y-87600000D01*
X194150000Y-93050000D02*
X194900000Y-92300000D01*
X193730000Y-86430000D02*
X191768000Y-86430000D01*
X194000000Y-93050000D02*
X194150000Y-93050000D01*
%TO.N,/Controls/ADXL_SCL*%
X194300000Y-88300000D02*
X193230000Y-87230000D01*
X193230000Y-87230000D02*
X191768000Y-87230000D01*
%TO.N,/Controls/ADXL_INT1*%
X194800000Y-86500000D02*
X194330000Y-86030000D01*
X194330000Y-86030000D02*
X191768000Y-86030000D01*
%TO.N,/Connectivity/3V0*%
X127880000Y-81780000D02*
X130105000Y-81780000D01*
X188400000Y-91300000D02*
X187858000Y-91842000D01*
X178530000Y-92130000D02*
X180030000Y-92130000D01*
X184130000Y-91730000D02*
X184530000Y-92130000D01*
X181430000Y-91530000D02*
X179130000Y-91530000D01*
X181430000Y-96530000D02*
X182630000Y-95330000D01*
X186030000Y-94930000D02*
X186030000Y-91706500D01*
X132530000Y-76480057D02*
X132530000Y-75830000D01*
X186706500Y-90606500D02*
X184930000Y-90606500D01*
X171430000Y-76130000D02*
X171400000Y-76100000D01*
X132229000Y-77278943D02*
X132229000Y-76781057D01*
X172200000Y-81200000D02*
X172200000Y-81000000D01*
X184930000Y-90606500D02*
X183606500Y-90606500D01*
X186830000Y-95730000D02*
X186030000Y-94930000D01*
X177830000Y-74092000D02*
X177830000Y-71630000D01*
X182630000Y-90430000D02*
X183930000Y-91730000D01*
X177830000Y-71630000D02*
X177270000Y-71630000D01*
X171930000Y-77630000D02*
X176292000Y-77630000D01*
X171430000Y-77130000D02*
X171430000Y-76130000D01*
X132530000Y-75830000D02*
X131930000Y-75230000D01*
X132502000Y-77551943D02*
X132229000Y-77278943D01*
X182630000Y-90330000D02*
X182630000Y-95330000D01*
X173800000Y-86400000D02*
X173730000Y-86330000D01*
X190230000Y-89568000D02*
X190230000Y-90630000D01*
X179130000Y-91530000D02*
X178530000Y-92130000D01*
X186800000Y-96223862D02*
X187061931Y-95961931D01*
X130105000Y-81780000D02*
X130105000Y-81280000D01*
X181830000Y-89568000D02*
X181830000Y-91130000D01*
X193700000Y-82430000D02*
X191768000Y-82430000D01*
X190230000Y-90630000D02*
X190530000Y-90930000D01*
X175030000Y-87630000D02*
X176292000Y-87630000D01*
X186800000Y-96900000D02*
X186800000Y-96223862D01*
X186030000Y-91706500D02*
X184930000Y-90606500D01*
X172200000Y-81000000D02*
X171430000Y-80230000D01*
X193400000Y-76030000D02*
X191768000Y-76030000D01*
X193500000Y-81700000D02*
X193700000Y-81900000D01*
X194330000Y-82430000D02*
X193700000Y-82430000D01*
X191500000Y-91100000D02*
X190530000Y-91100000D01*
X182630000Y-90330000D02*
X182630000Y-90430000D01*
X194330000Y-76030000D02*
X193400000Y-76030000D01*
X181600000Y-97400000D02*
X181600000Y-97300000D01*
X132229000Y-76781057D02*
X132530000Y-76480057D01*
X184680000Y-96430000D02*
X186130000Y-96430000D01*
X184270000Y-71530000D02*
X184302000Y-71530000D01*
X185330000Y-92130000D02*
X185400000Y-92200000D01*
X187530000Y-91430000D02*
X186706500Y-90606500D01*
X152690000Y-79790000D02*
X155030000Y-79790000D01*
X190530000Y-90930000D02*
X190530000Y-91100000D01*
X193400000Y-75500000D02*
X193400000Y-76030000D01*
X190530000Y-91100000D02*
X190530000Y-92130000D01*
X182630000Y-89568000D02*
X182630000Y-90330000D01*
X184530000Y-92130000D02*
X185330000Y-92130000D01*
X127030000Y-82630000D02*
X127880000Y-81780000D01*
X180030000Y-92130000D02*
X180100000Y-92200000D01*
X183600000Y-72200000D02*
X184270000Y-71530000D01*
X173900000Y-106300000D02*
X173900000Y-107600000D01*
X180170000Y-92130000D02*
X180100000Y-92200000D01*
X178830000Y-92130000D02*
X178530000Y-92130000D01*
X171630000Y-80430000D02*
X171430000Y-80230000D01*
X131880000Y-81280000D02*
X132502000Y-80658000D01*
X123700000Y-106400000D02*
X123800000Y-106300000D01*
X132502000Y-80658000D02*
X132502000Y-77551943D01*
X182230000Y-91430000D02*
X181530000Y-92130000D01*
X183430000Y-90430000D02*
X183430000Y-89568000D01*
X173730000Y-86330000D02*
X175030000Y-87630000D01*
X122600000Y-106400000D02*
X123700000Y-106400000D01*
X186130000Y-96430000D02*
X186830000Y-95730000D01*
X171430000Y-77130000D02*
X171930000Y-77630000D01*
X193700000Y-81900000D02*
X193700000Y-82430000D01*
X130105000Y-81280000D02*
X131880000Y-81280000D01*
X181600000Y-97300000D02*
X180830000Y-96530000D01*
X152600000Y-79700000D02*
X152690000Y-79790000D01*
X176292000Y-80430000D02*
X171630000Y-80430000D01*
X180830000Y-96530000D02*
X181430000Y-96530000D01*
X181830000Y-91130000D02*
X181430000Y-91530000D01*
X187530000Y-92130000D02*
X187530000Y-91430000D01*
X184630000Y-74092000D02*
X184630000Y-71530000D01*
X182630000Y-95330000D02*
X183730000Y-96430000D01*
X187858000Y-91842000D02*
X187858000Y-92130000D01*
X183606500Y-90606500D02*
X183430000Y-90430000D01*
X181530000Y-92130000D02*
X180170000Y-92130000D01*
X177270000Y-71630000D02*
X177000000Y-71900000D01*
X173800000Y-87300000D02*
X173800000Y-86400000D01*
X182230000Y-89568000D02*
X182230000Y-91430000D01*
X183930000Y-91730000D02*
X184130000Y-91730000D01*
%TO.N,/Display/SCREEN_SDA*%
X130175000Y-80750000D02*
X122650000Y-80750000D01*
X123430000Y-63130000D02*
X130630000Y-63130000D01*
X122650000Y-80750000D02*
X118830000Y-76930000D01*
X174730000Y-77230000D02*
X176292000Y-77230000D01*
X118830000Y-67730000D02*
X123430000Y-63130000D01*
X173130000Y-74230000D02*
X173130000Y-75630000D01*
X173130000Y-75630000D02*
X174730000Y-77230000D01*
X118830000Y-76930000D02*
X118830000Y-67730000D01*
%TO.N,/Display/GDR*%
X130105000Y-74780000D02*
X126480000Y-74780000D01*
X126480000Y-74780000D02*
X126130000Y-74430000D01*
%TO.N,/Display/RESE*%
X125680000Y-75280000D02*
X130105000Y-75280000D01*
X124530000Y-76430000D02*
X125680000Y-75280000D01*
%TO.N,/Controls/BUTTON_1*%
X195100000Y-102100000D02*
X196200000Y-101000000D01*
X174000000Y-102100000D02*
X195100000Y-102100000D01*
X123800000Y-105000000D02*
X126800000Y-105000000D01*
X171000000Y-114572000D02*
X171000000Y-105100000D01*
X196200000Y-101000000D02*
X196200000Y-85700000D01*
X171000000Y-105100000D02*
X174000000Y-102100000D01*
X141100000Y-105000000D02*
X126800000Y-105000000D01*
X150672000Y-114572000D02*
X171000000Y-114572000D01*
X195730000Y-85230000D02*
X191768000Y-85230000D01*
X141100000Y-105000000D02*
X150672000Y-114572000D01*
X196200000Y-85700000D02*
X195730000Y-85230000D01*
%TO.N,/Controls/BUTTON_2*%
X196672000Y-103300000D02*
X196600000Y-103228000D01*
X194972000Y-105000000D02*
X196672000Y-103300000D01*
X173900000Y-105000000D02*
X176800000Y-105000000D01*
X176800000Y-105000000D02*
X191100000Y-105000000D01*
X196600000Y-85600000D02*
X195830000Y-84830000D01*
X195830000Y-84830000D02*
X191768000Y-84830000D01*
X196600000Y-103228000D02*
X196600000Y-85600000D01*
X191100000Y-105000000D02*
X194972000Y-105000000D01*
%TO.N,/Controls/POT_1*%
X195930000Y-84430000D02*
X191768000Y-84430000D01*
X145200000Y-114900000D02*
X189736138Y-114900000D01*
X141100000Y-119000000D02*
X145200000Y-114900000D01*
X189736138Y-114900000D02*
X197000000Y-107636138D01*
X141100000Y-119000000D02*
X141100000Y-125000000D01*
X197000000Y-107636138D02*
X197000000Y-85500000D01*
X197000000Y-85500000D02*
X195930000Y-84430000D01*
%TO.N,/Controls/POT_2*%
X197500000Y-107600000D02*
X197500000Y-85500000D01*
X196030000Y-84030000D02*
X191768000Y-84030000D01*
X186100000Y-119000000D02*
X197500000Y-107600000D01*
X186100000Y-119000000D02*
X186100000Y-125000000D01*
X197500000Y-85500000D02*
X196030000Y-84030000D01*
%TO.N,/Connectivity/WIFI_CS*%
X189430000Y-69130000D02*
X185830000Y-65530000D01*
X189430000Y-74092000D02*
X189430000Y-69130000D01*
%TO.N,/Connectivity/WIFI_BUSY*%
X164170000Y-64230000D02*
X162370000Y-66030000D01*
X180730000Y-64230000D02*
X164170000Y-64230000D01*
X187830000Y-71330000D02*
X180730000Y-64230000D01*
X187830000Y-74092000D02*
X187830000Y-71330000D01*
%TO.N,/Connectivity/WIFI_MOSI*%
X188230000Y-70830000D02*
X180930000Y-63530000D01*
X188230000Y-74092000D02*
X188230000Y-70830000D01*
X180930000Y-63530000D02*
X159870000Y-63530000D01*
X159870000Y-63530000D02*
X157370000Y-66030000D01*
%TO.N,/Connectivity/WIFI_SCK*%
X155970000Y-62430000D02*
X152370000Y-66030000D01*
X181430000Y-62430000D02*
X155970000Y-62430000D01*
X189030000Y-74092000D02*
X189030000Y-70030000D01*
X189030000Y-70030000D02*
X181430000Y-62430000D01*
%TO.N,/Connectivity/WIFI_MISO*%
X181130000Y-62930000D02*
X157970000Y-62930000D01*
X157970000Y-62930000D02*
X154870000Y-66030000D01*
X188630000Y-74092000D02*
X188630000Y-70430000D01*
X188630000Y-70430000D02*
X181130000Y-62930000D01*
%TO.N,/Connectivity/WIFI_RESET*%
X166146000Y-64754000D02*
X164870000Y-66030000D01*
X180556000Y-64754000D02*
X166146000Y-64754000D01*
X187430000Y-74092000D02*
X187430000Y-71628000D01*
X187430000Y-71628000D02*
X180556000Y-64754000D01*
%TD*%
M02*
